<?xml version="1.0" encoding="UTF-8" standalone="no"?>
<!-- Created with Inkscape (http://www.inkscape.org/) -->

<svg
   width="405.29306mm"
   height="39.333832mm"
   viewBox="0 0 405.29306 39.333833"
   version="1.1"
   id="svg1"
   xmlns:xlink="http://www.w3.org/1999/xlink"
   xmlns="http://www.w3.org/2000/svg"
   xmlns:svg="http://www.w3.org/2000/svg">
  <defs
     id="defs1">
    <linearGradient
       id="linearGradient1">
      <stop
         style="stop-color:#000000;stop-opacity:1;"
         offset="0.49324325"
         id="stop1" />
      <stop
         style="stop-color:#000000;stop-opacity:0;"
         offset="0.51013511"
         id="stop2" />
    </linearGradient>
    <linearGradient
       xlink:href="#linearGradient1"
       id="linearGradient2"
       x1="237.93152"
       y1="321.21014"
       x2="237.93152"
       y2="-79.415543"
       gradientUnits="userSpaceOnUse" />
  </defs>
  <g
     id="layer1"
     transform="translate(-35.374881,-106.01509)">
    <path
       id="logo-shadow"
       style="-inkscape-font-specification:'WtfNew Strike';display:inline;fill:#000000;fill-opacity:1;stroke-linecap:round;stroke-linejoin:round"
       transform="translate(2.9305758e-4)"
       d="m 114.21112,106.01509 v 5.2e-4 c -1.97829,-0.004 -3.98711,0.14433 -5.96501,0.54105 -1.77718,0.35646 -3.62493,0.83143 -5.3573,1.70119 -1.52224,0.76426 -3.064341,2.13027 -3.525363,2.52749 -0.640089,-0.76929 -1.320968,-1.67214 -2.357479,-2.50579 -0.592146,-0.47626 -1.277746,-0.93373 -2.088244,-1.23248 -0.887783,-0.32724 -1.829546,-0.48065 -2.757455,-0.47491 -7.027287,0.0434 -14.075873,0.0367 -20.78116,0 h -0.0021 c -0.541193,-0.003 -0.944226,0.24296 -1.19941,0.45734 -0.255546,0.21467 -0.411776,0.42692 -0.533301,0.60926 -0.221836,0.33285 -0.222507,0.62471 -0.320394,0.9431 L 67.41966,106.8848 c -0.214185,-0.19115 -0.488278,-0.3017 -0.775146,-0.31264 0,0 -11.197123,-0.426 -16.978292,0.004 -1.438467,0.10701 -2.981181,0.22594 -4.521688,0.68574 -1.453157,0.43373 -2.855942,1.0755 -4.133081,1.90428 -1.206976,0.78323 -2.370793,1.73594 -3.318144,2.91403 -0.828145,1.02985 -1.597741,2.23731 -1.990059,3.64422 -0.338182,1.21277 -0.462833,2.56741 -0.144694,3.89486 0.304452,1.27034 1.003327,2.347 1.786971,3.22047 2.747914,3.06294 6.415291,4.8088 9.507947,6.81251 0.837356,0.54252 1.78372,1.21176 2.941422,1.711 0.116252,0.0786 0.245048,0.13678 0.380856,0.17209 1.255925,0.45618 2.628664,0.69298 4.117061,0.69298 H 70.73212 c 0.437223,0 0.81781,-0.19038 1.103808,-0.40411 l -0.0217,0.0393 c 0.01361,-0.009 0.01797,-0.0338 0.03152,-0.0434 0.01403,-0.0106 0.04129,-0.009 0.05478,-0.0191 0.03142,-0.0538 0.05871,-0.10999 0.08165,-0.16795 0.269617,-0.2415 0.549991,-0.51699 0.644921,-0.89296 l 0.07803,-0.30645 1.451074,1.15807 c 0.05997,0.0819 0.04451,0.16505 0.127124,0.23823 0.335006,0.29673 0.772483,0.39816 1.105359,0.39843 h 4.935616 c 0.391581,0 0.860647,-0.11486 1.228349,-0.41186 0.367703,-0.29701 0.572784,-0.71696 0.661975,-1.09193 l 1.703255,-7.15615 1.382861,1.42782 c 0.02016,0.0202 0.04102,0.0397 0.06253,0.0584 l 7.230566,6.49987 c 0.02924,0.027 0.05977,0.0525 0.09147,0.0765 l 0.377238,0.2775 c 0.112852,0.0831 0.239022,0.14634 0.373103,0.18707 0.274189,0.0834 0.562642,0.13281 0.85938,0.13281 h 7.960761 c 0.15786,0 0.32429,-0.005 0.54673,-0.0682 0.22244,-0.0632 0.56051,-0.20383 0.80667,-0.58394 0.24615,-0.3801 0.23621,-0.87811 0.15038,-1.15238 -0.0858,-0.27428 -0.20016,-0.42549 -0.30437,-0.55656 -0.0427,-0.0532 -0.0897,-0.10284 -0.14056,-0.14831 l -0.006,-0.006 -4.480355,-4.2969 0.853178,-0.12505 c 0.07034,-0.0102 0.139676,-0.0265 0.207223,-0.0486 0.391984,-0.12877 0.657824,-0.3052 0.978754,-0.46715 l 3.33365,3.53931 -0.13643,-0.17363 c 0.34622,0.53102 0.76775,0.85372 1.25936,1.21646 0.4916,0.36275 1.05311,0.72083 1.62315,1.07022 1.16183,0.71213 2.54683,1.43571 4.40852,1.81643 1.75883,0.3597 3.62555,0.53546 5.58984,0.53899 0.0417,0.001 0.0834,7.8e-4 0.12506,-0.002 1.9599,-0.004 3.86525,-0.17756 5.70869,-0.5333 1.89834,-0.36123 3.61657,-0.92235 5.14646,-1.6893 0.005,-10e-4 0.009,-0.003 0.014,-0.004 0.001,-6.7e-4 0.003,-0.001 0.004,-0.002 3.7e-4,-1.8e-4 -3.7e-4,-0.002 0,-0.002 1.56432,-0.77318 2.89372,-1.76474 3.94963,-2.97087 2.5e-4,-2.8e-4 0.002,2.8e-4 0.002,0 0.40041,-0.44721 0.70216,-0.94244 0.97668,-1.44694 l 1.40043,1.82004 c 0.75133,0.98647 1.42662,2.01636 2.7404,2.79518 l -0.60564,-1.06247 c 0.009,0.48982 0.30615,0.92818 0.75809,1.11724 1.18599,0.67993 2.54181,1.18209 4.09174,1.48415 h 0.004 c 1.61126,0.30854 3.34053,0.46096 5.18728,0.46096 1.83246,0 3.57223,-0.15156 5.22036,-0.45372 0.0124,-8.1e-4 0.0248,-0.002 0.0372,-0.003 1.65878,-0.30172 3.15173,-0.79657 4.49224,-1.46503 0.16101,-0.0583 0.30813,-0.14947 0.43201,-0.26769 l -0.30902,0.2248 c 1.29435,-0.66012 2.37449,-1.55148 3.24631,-2.61896 0.002,-0.003 0.004,-0.005 0.006,-0.008 0.12309,-0.11048 0.22273,-0.24456 0.29301,-0.39429 0.0486,-0.0665 0.0598,-0.14516 0.10542,-0.21291 l 1.85311,3.21841 c 0.2014,0.34403 0.36757,0.69547 0.62893,0.99835 0.22477,0.22715 0.6588,0.46457 1.10174,0.46457 h 1.94923 c 0.39158,0 0.88484,-0.11649 1.26194,-0.45682 0.37711,-0.34034 0.5421,-0.8153 0.58394,-1.20303 l 0.91985,-8.52971 9.53481,6.55102 4.57647,3.14244 c 0.0779,0.0338 0.15916,0.0594 0.24236,0.0765 0.44379,0.2424 0.93112,0.41962 1.42937,0.41962 h 5.01572 c 0.39158,0 0.89011,-0.11703 1.26969,-0.47077 0.37958,-0.35375 0.53054,-0.84244 0.55862,-1.23249 l 0.2496,-3.46077 1.28726,3.7698 c 0.0164,0.0492 0.0359,0.0974 0.0584,0.14417 0.0291,0.0594 0.0219,0.17221 0.25786,0.53537 0.23599,0.36317 0.94439,0.71262 1.37305,0.71262 h 16.39848 c 1.49113,0 2.92164,-0.23603 4.28139,-0.67954 0.0842,-0.0213 0.166,-0.0514 0.24392,-0.0899 1.31671,-0.45839 2.50606,-1.0689 3.51399,-1.87482 1.05696,-0.82437 1.92026,-1.80168 2.55437,-2.91197 0.002,-0.004 0.004,-0.008 0.006,-0.0119 0.64107,-1.15163 0.9919,-2.40073 1.02371,-3.68763 0.0181,-0.73583 -0.0872,-1.43109 -0.25632,-2.0779 l 0.0315,0.16019 -0.64079,-5.14077 -0.002,-0.01 c -10e-4,-0.009 -0.0669,-0.58856 -0.19895,-1.30483 -0.13301,-0.72167 -0.29343,-1.54696 -0.66043,-2.29133 -0.60604,-1.22917 -1.51624,-2.2457 -2.50579,-3.06028 -1.09276,-0.89954 -2.35676,-1.54066 -3.64267,-1.97456 -1.4461,-0.48796 -2.96581,-0.69462 -4.44727,-0.70124 -5.71699,-0.0255 -11.26723,3.5e-4 -16.80673,0 -0.52479,-4e-5 -0.87782,0.19124 -1.18339,0.44545 -0.30557,0.2542 -0.6103,0.61987 -0.65216,1.22059 -0.088,1.26227 -0.14626,2.21206 -0.25993,3.91966 -0.4959,-1.55019 -0.88881,-2.82 -1.38079,-4.23798 -0.0948,-0.2731 -0.22576,-0.52101 -0.46302,-0.77928 -0.23725,-0.25828 -0.65344,-0.57997 -1.26142,-0.56844 -0.64332,0.0122 -1.34324,6.6e-4 -2.01384,0 -0.54894,-5.4e-4 -0.91318,0.2203 -1.20302,0.48265 -0.28984,0.26235 -0.54906,0.60763 -0.5979,1.16169 -0.25828,2.92954 -0.53819,6.8953 -0.67954,8.85786 -1.91007,-1.29804 -9.72595,-6.60895 -14.76189,-10.0118 -0.54451,-0.36793 -1.1309,-0.49343 -1.68931,-0.4904 -1.85751,0.01 -3.33969,-0.002 -5.17177,0 h -0.002 c -0.50972,6.7e-4 -0.86465,0.18067 -1.17409,0.42788 -0.30943,0.24721 -0.61535,0.6035 -0.67954,1.18907 -0.0659,0.6012 -0.11265,1.00569 -0.20309,1.80868 l -1.19321,-2.25206 c -0.048,-0.0901 -0.10704,-0.17399 -0.1757,-0.2496 l -0.46871,-0.5178 c -0.23427,-0.25881 -0.56713,-0.40637 -0.91622,-0.40617 0,0 -3.53,0.002 -5.17591,0 -0.50833,-6.7e-4 -0.86515,0.17818 -1.17564,0.42374 -0.31049,0.24556 -0.61605,0.59825 -0.6873,1.17771 -0.32236,2.62185 -0.68958,5.4615 -1.05316,8.25376 -0.11319,0.86929 -0.37779,1.71615 -0.79479,2.34611 -0.30865,0.46626 -0.80671,0.90295 -1.36115,1.21491 -0.47953,0.26981 -1.16419,0.42851 -1.94355,0.56224 -0.49932,0.0857 -1.80724,0.0927 -2.1208,0.0956 l 0.72243,-4.88859 c 0.0515,-0.34736 -0.0108,-0.8346 -0.2775,-1.19941 -0.0757,-0.10346 -0.16566,-0.0961 -0.25166,-0.1695 -0.0926,-0.15533 -2.72049,-4.57217 -4.52531,-6.83421 0.0575,0.072 -0.0121,-0.0506 -0.17001,-0.27336 -0.15789,-0.2227 -0.59633,-0.70724 -1.2852,-0.709 -1.63911,-0.004 -3.62478,-0.0599 -5.18935,0.002 -0.46232,0.0183 -0.80326,0.17463 -1.11362,0.41031 -0.31036,0.23567 -0.62945,0.58847 -0.71262,1.16376 -0.21303,1.47383 -0.46228,2.9724 -0.74207,4.70927 l -1.12707,-1.50792 c -0.012,-0.0167 -0.0244,-0.0331 -0.0372,-0.0491 0,0 -0.44403,-0.53596 -1.03147,-1.16169 -0.58744,-0.62573 -1.27752,-1.33981 -2.05052,-1.82469 -1.5398,-0.96588 -3.24645,-1.40237 -4.81056,-1.75183 -1.92395,-0.42986 -3.87224,-0.54316 -5.75985,-0.54674 z m 161.75757,5.2e-4 c -1.92794,3.8e-4 -3.90339,0.12814 -5.85339,0.54518 -1.67985,0.35926 -3.30157,0.86888 -4.95525,1.69499 -1.44749,0.72311 -2.63485,1.83078 -3.56826,3.10162 -0.25021,0.34066 -0.2464,0.71182 -0.38861,1.07797 l 0.61702,-4.16977 c 0.0277,-0.19084 0.0104,-0.38552 -0.0507,-0.56844 l -0.092,-0.27699 c -0.16663,-0.50515 -0.63803,-0.84683 -1.16995,-0.84801 0,0 -3.53736,-0.005 -5.30666,0 -0.3202,9.3e-4 -0.60307,0.0545 -0.85162,0.12299 -0.226,0.0623 -0.51026,0.15277 -0.81442,0.34417 -3.80634,2.39541 -10.91635,6.84442 -11.65821,7.30859 -0.0148,-2.65664 -0.0216,-3.968 -0.0331,-6.02753 -0.002,-0.63132 -0.31173,-1.01753 -0.6134,-1.28106 -0.30168,-0.26353 -0.65088,-0.46757 -1.19528,-0.46716 -1.61386,0.001 -3.38234,4.9e-4 -5.1387,0 -0.54465,-1.5e-4 -0.89411,0.20498 -1.19528,0.46871 -0.30116,0.26372 -0.60839,0.64765 -0.61133,1.27744 -0.0234,5.03509 -0.0605,15.60576 -0.0605,15.60576 4.6e-4,0.0129 10e-4,0.0259 0.002,0.0388 l 0.17983,6.50968 v -0.0367 c -0.001,0.39075 0.11227,0.90559 0.49609,1.29088 0.38383,0.38529 0.90137,0.50178 1.29295,0.50178 h 5.01571 c 0.39159,0 0.90667,-0.11608 1.29088,-0.50178 0.38421,-0.3857 0.50027,-0.90317 0.49816,-1.29501 v -0.002 l 0.10542,-5.45496 8.56434,6.67556 c 0.0412,0.032 0.0843,0.0614 0.12919,0.0879 0.16386,0.0969 0.33875,0.19118 0.52503,0.28318 0.0676,0.0338 0.13819,0.0613 0.21084,0.0822 0.27519,0.078 0.55903,0.12506 0.85576,0.12506 h 8.31836 c 0.14837,0 0.30258,-0.002 0.53123,-0.0682 0.22865,-0.0662 0.63949,-0.23905 0.86506,-0.72502 l -1.12086,0.71521 c 0.5998,8e-5 1.11292,-0.43086 1.21647,-1.02165 l 0.34209,-1.94355 c 0.60899,0.50486 1.28102,0.95655 2.01383,1.34979 0.003,0.001 0.007,0.003 0.01,0.004 1.47861,0.77795 3.15656,1.34302 5.02347,1.70688 1.83511,0.35768 3.74012,0.53215 5.70714,0.53536 0.0344,0.001 0.0689,0.001 0.10336,0 1.96639,-0.003 3.84214,-0.17789 5.61723,-0.53743 1.82671,-0.36471 3.43852,-0.93083 4.82037,-1.72031 4.8e-4,-2.7e-4 0.001,2.7e-4 0.002,0 1.41305,-0.79222 2.55276,-1.8255 3.35328,-3.08198 l 0.002,-0.004 c 0.0129,-0.0196 0.0106,-0.0428 0.0233,-0.0625 0.11034,-0.18388 0.1709,-0.39333 0.1757,-0.60772 v 0.14263 c 0.33353,-0.64654 0.62938,-1.30846 0.75035,-1.98438 l -0.0589,0.21291 0.37103,-0.9958 0.5395,6.39805 c 0.0328,0.38943 0.18916,0.8736 0.56793,1.22267 0.37878,0.34907 0.87448,0.46509 1.26607,0.46509 h 1.95079 c 0.39158,0 0.93068,-0.11631 1.31826,-0.54106 0.38757,-0.42475 0.45467,-0.97029 0.42013,-1.3596 l 0.004,0.10955 v 0.25787 l 2.74815,-6.27145 c 0.0171,-0.0395 0.0321,-0.0799 0.045,-0.12093 l 8.15402,4.93355 4.19354,2.53525 c 0.15742,0.0843 0.33126,0.13352 0.50953,0.14417 0.37648,0.14605 0.75309,0.31265 1.15652,0.31265 h 5.01365 c 0.0419,-0.0147 0.0829,-0.0315 0.12299,-0.0506 0.37888,-0.0212 0.85445,-0.10594 1.20716,-0.50798 0.13816,-0.15748 0.074,-0.31881 0.13643,-0.49195 0.0255,-0.0288 0.0496,-0.0588 0.0723,-0.0899 l 4.02921,-6.50968 c 0.14856,-0.23976 0.21057,-0.52316 0.1757,-0.80305 l -0.5643,-4.52738 h 4.35374 l 1.6247,11.3652 c 0.053,0.37098 0.20887,0.8092 0.56844,1.14463 0.35957,0.33543 0.85591,0.47078 1.25006,0.47078 H 336.18 c 0.006,-0.003 0.0118,-0.005 0.0176,-0.008 0.45441,-0.007 0.97554,-0.25342 1.2578,-0.58602 l 0.29456,-0.38447 4.67207,-6.15828 c 0.0788,-0.10365 0.14072,-0.21911 0.18345,-0.3421 l 0.14469,-0.41806 c 0.0658,-0.18919 0.0846,-0.39155 0.0548,-0.58963 l -0.68368,-4.4943 h 1.88671 0.002 c 0.005,-0.003 0.0104,-0.005 0.0155,-0.008 0.34876,-0.003 0.82722,-0.17797 1.18752,-0.54312 l 2.03295,11.94759 c 0.0652,0.38314 0.25408,0.83216 0.62684,1.15032 0.37275,0.31816 0.85278,0.43357 1.24436,0.43357 h 4.93562 c 0.62021,0 0.68491,-0.18516 0.80254,-0.26769 0.11763,-0.0825 0.19725,-0.15405 0.2775,-0.22841 0.1605,-0.14872 0.3127,-0.31058 0.47284,-0.48834 0.32029,-0.35551 0.65498,-0.7603 0.89607,-1.07022 0.10561,-0.13576 0.18069,-0.23818 0.262,-0.35967 l 2.7404,-3.06234 6.76909,4.88652 c 0.0377,0.027 0.0768,0.0518 0.11731,0.0744 l 0.49248,0.2775 c 0.0897,0.0507 0.18532,0.0899 0.28473,0.11679 0.27706,0.0748 0.55902,0.12144 0.85576,0.12144 h 7.95869 c 0.25488,0 0.66469,0.0818 1.15084,-0.48059 0.0478,-0.0553 0.0238,-0.13212 0.0605,-0.19741 l 1.67535,-1.57406 c 0.31911,0.19547 0.60691,0.40079 0.96893,0.57826 0.003,0.001 0.005,0.003 0.008,0.004 1.59014,0.76557 3.34997,1.32776 5.27151,1.68982 1.88961,0.35605 3.82208,0.52945 5.7888,0.53279 0.0351,0.001 0.0703,0.001 0.10541,0 1.96604,-0.003 3.81399,-0.17749 5.53507,-0.53899 1.72565,-0.35703 2.73089,-0.72739 3.94343,-1.35134 1.90693,-0.98125 3.70955,-2.59133 4.83588,-3.64835 0.10647,0.16077 0.15366,0.32183 0.2775,0.48059 0.008,0.01 0.0153,0.0194 0.0232,0.0289 0.72628,0.87403 1.58989,1.64363 2.57039,2.30683 0.007,0.005 0.0121,0.0126 0.0196,0.0176 h 0.002 c 1.00424,0.67613 2.11592,1.20333 3.32021,1.58027 1.21608,0.38064 2.46509,0.57206 3.73053,0.57206 h 14.20895 c 0.36169,0 0.42315,-0.0681 0.50023,-0.0997 0.0771,-0.0317 0.12284,-0.0569 0.16588,-0.0801 0.0861,-0.0464 0.15295,-0.0879 0.22634,-0.13487 0.14679,-0.0939 0.30713,-0.20534 0.48059,-0.32815 0.1847,-0.13076 0.35151,-0.25828 0.53537,-0.39429 l 8.35711,-5.65805 c 0.0352,-0.0237 0.0692,-0.0493 0.1018,-0.0765 0,0 0.17403,-0.14147 0.35554,-0.35554 0.0908,-0.10703 0.1937,-0.23531 0.29662,-0.44493 0.10291,-0.20962 0.24876,-0.55263 0.11731,-1.04697 -0.17247,-0.64864 -0.37438,-1.37148 -0.62116,-2.10943 -0.13459,-0.40238 -0.35463,-0.69755 -0.64853,-0.94723 -0.29389,-0.24967 -0.6892,-0.47306 -1.22629,-0.47645 -3.85452,-0.0243 -8.31504,0.0579 -13.34595,0 -0.72854,-0.008 -1.58899,-0.33011 -2.20917,-0.81287 -0.61052,-0.47524 -1.12935,-1.24835 -1.36322,-2.01538 -0.8688,-2.84944 -1.59728,-6.08349 -2.48616,-9.25784 -0.13959,-0.49824 -0.43563,-0.81254 -0.74827,-1.03508 -0.31265,-0.22254 -0.66748,-0.37291 -1.125,-0.38292 -1.85862,-0.0407 -5.17953,0 -5.17953,0 -0.29485,0.003 -0.57879,0.112 -0.80046,0.30644 l -3.11764,2.74454 c -0.54567,-0.43632 -1.0884,-0.9319 -1.98593,-1.37149 -1.74265,-0.85351 -3.59444,-1.3371 -5.38882,-1.69499 -1.97224,-0.39336 -3.9785,-0.5443 -5.95312,-0.54105 -1.89062,0.003 -3.84486,0.11252 -5.77536,0.54673 -1.54447,0.34739 -3.25082,0.77118 -4.77955,1.76165 -0.76342,0.49461 -1.41524,1.20974 -1.97249,1.83813 -0.52014,0.58655 -0.85921,1.0247 -0.91002,1.08986 l -0.26562,0.27544 c -0.014,-0.0341 -0.0105,-0.0294 -0.0253,-0.0646 -0.18712,-0.44652 -0.39849,-0.95198 -0.75241,-1.4335 -0.56826,-0.77314 -1.28037,-1.34618 -1.97456,-1.81281 -0.77171,-0.51875 -1.61806,-0.91807 -2.49597,-1.19115 -0.90606,-0.28184 -1.87136,-0.45131 -2.85357,-0.4532 -7.04917,-0.0136 -20.8008,0 -20.8008,0 -0.34146,8.2e-4 -0.66734,0.14299 -0.9002,0.39274 l -0.48266,0.51728 c -0.0312,0.0335 -0.0606,0.0687 -0.0879,0.10542 l -0.008,0.0119 c -0.0345,-0.0785 -0.0771,-0.1531 -0.12713,-0.22273 l -0.61701,-0.51573 c -0.22227,-0.18649 -0.5031,-0.28876 -0.79324,-0.28887 h -25.60929 c -0.33214,-5e-5 -0.65029,0.13369 -0.88263,0.37104 l -0.50591,0.5178 c -0.052,0.058 -0.0983,0.12083 -0.13849,0.18758 -0.0402,-0.10096 -0.0935,-0.19618 -0.15865,-0.28318 l -0.63459,-0.51574 c -0.22013,-0.17934 -0.49534,-0.27734 -0.77928,-0.2775 h -2.03915 c -0.34891,-6e-5 -0.68157,0.1475 -0.91571,0.40618 l -0.46922,0.5178 c -0.0696,0.0774 -0.12919,0.16339 -0.17725,0.25579 l -3.44578,6.59392 -12.23388,-7.32049 c -0.0988,-0.0595 -0.20541,-0.10493 -0.31678,-0.13487 l -1.0449,-0.2775 c -0.10388,-0.0274 -0.21089,-0.0411 -0.31832,-0.0408 h -5.17746 c -0.32341,-7.4e-4 -0.6342,0.12544 -0.86558,0.3514 l -0.5271,0.5178 c -0.13235,0.12944 -0.2339,0.28697 -0.29714,0.46095 l -1.32602,3.65043 c -0.0538,-0.12229 -0.12711,-0.23503 -0.21704,-0.33383 0,0 -0.55477,-0.56058 -1.28468,-1.19941 -0.72992,-0.63883 -1.58645,-1.36401 -2.53369,-1.78697 -1.58076,-0.70584 -3.26742,-1.38303 -5.10925,-1.68362 -1.91192,-0.31203 -3.84534,-0.53369 -5.81825,-0.5333 z m 36.73264,9.0041 c -10e-4,0.003 -10e-4,0.006 -0.002,0.01 -0.0143,0.0332 -0.0153,0.0389 -0.0315,0.0765 0.0174,-0.0425 0.0206,-0.0547 0.0336,-0.0863 z m -156.88448,0.0641 h 0.73845 v 5.1e-4 h -0.73845 z m 139.00133,0 h 0.40256 l -5.1e-4,5.1e-4 h -0.40153 z m 17.7736,0.20722 c -5.5e-4,0.0109 -0.007,0.1212 -0.0124,0.21962 l -0.001,-5.1e-4 c 0.005,-0.10097 0.0114,-0.215 0.0114,-0.21498 z m -52.35133,1.05678 c 0,0 -0.66041,4.34709 -0.73279,4.64468 l -3.14451,-2.31459 3.79511,-2.26756 c 0.009,-0.006 0.0183,-0.0116 0.0274,-0.0176 0.0167,-0.0106 0.0379,-0.034 0.0548,-0.045 z m -42.11888,1.01493 0.002,0.001 v 5.2e-4 l -0.002,-0.002 z m 56.21053,1.31878 2.41225,0.20516 2.13475,0.71468 0.84336,0.74414 -0.33589,0.11937 -2.56419,0.18966 -2.63498,-0.18966 -2.28306,-0.77721 -0.64441,-0.57412 0.65422,-0.22686 z m -156.67365,0.15245 c -0.34381,0.29641 -0.63299,0.62052 -1.0666,0.85731 -0.67707,0.36972 -1.52202,0.60331 -2.42776,0.78135 -0.13695,0.0269 -0.33414,0.0185 -0.56069,0.0393 0.34725,-0.31992 0.67404,-0.6456 1.17409,-0.92191 0.57456,-0.31746 1.42145,-0.5348 2.30632,-0.709 0.14268,-0.0281 0.33799,-0.0237 0.57464,-0.047 z m 83.93907,0.41392 h 7.80676 l 0.4687,0.0941 -0.59945,0.39067 -1.74253,0.34571 h -5.97999 z m 68.57617,0.0708 c 0.0327,-0.0378 -0.01,0.0141 -0.0605,0.0646 l -0.0196,0.0191 -0.008,0.006 c 0.0279,-0.0277 0.0753,-0.0755 0.0879,-0.0899 z m 12.04371,5.03277 c -0.005,0.0329 -0.0115,0.0646 -0.017,0.0971 l -0.0134,-0.003 z m 6.79235,3.07061 -0.008,0.014 c 0.002,-0.003 0.004,-0.005 0.006,-0.008 6.7e-4,-0.002 0.001,-0.004 0.002,-0.006 z m -73.84769,3.99248 -0.0253,0.0114 c 0.007,-0.003 0.0145,-0.005 0.0217,-0.008 z m -165.289132,0.0114 c -0.0078,-0.005 0.124885,0.0624 0.125057,0.0625 l -0.0155,-0.01 c -0.04597,-0.0221 -0.104233,-0.0497 -0.109554,-0.0527 z m 0.377238,0.14263 c 0.0033,0.001 0.0065,0.003 0.0098,0.004 h 0.0057 z m 225.033294,1.21078 -0.0393,0.002 c 0.01,1.2e-4 0.0197,1.2e-4 0.0295,0 z m 115.8105,0 -0.0413,0.002 c 0.0105,1.3e-4 0.021,1.3e-4 0.0315,0 z m -274.21685,0.002 0.0114,0.002 c 0.007,6e-5 0.0145,6e-5 0.0217,0 z m 41.79551,11.72089 c -1.46844,0 -3.02948,-0.0529 -4.49792,-0.1852 -0.0926,-1.09803 -0.13229,-2.14313 -0.13229,-3.26761 0,-1.12448 0.0397,-2.16958 0.13229,-3.2676 1.46844,-0.13229 3.02948,-0.18521 4.49792,-0.18521 1.42875,0 2.9501,0.0529 4.39208,0.18521 0.0661,0.59531 0.10584,1.12448 0.11907,1.71979 h 1.19062 c -0.0265,-0.84667 -0.0794,-1.62719 -0.18521,-2.48708 -1.85208,-0.17198 -3.69094,-0.26459 -5.51656,-0.26459 -1.86531,0 -3.75708,0.0926 -5.6224,0.30427 -0.13229,1.34938 -0.19843,2.63261 -0.19843,3.99521 0,1.36261 0.0661,2.64583 0.19843,4.00844 1.86532,0.19844 3.75709,0.29104 5.6224,0.29104 1.82562,0 3.66448,-0.0926 5.51656,-0.29104 0.10584,-0.87313 0.17198,-1.66688 0.18521,-2.52677 h -1.19062 c -0.0132,0.62177 -0.0529,1.16416 -0.11907,1.78594 -1.44198,0.13229 -2.96333,0.1852 -4.39208,0.1852 z m 8.36083,-7.62 v 1.68011 c 0,2.14312 0.0926,4.43177 0.25135,6.56166 1.60073,0.15875 3.175,0.2249 4.77573,0.2249 1.57427,0 3.16177,-0.0661 4.74927,-0.2249 0.14552,-0.75406 0.2249,-1.41552 0.25135,-2.14312 h -1.15093 c -0.0265,0.46302 -0.0794,0.88635 -0.17198,1.33615 -1.20386,0.13229 -2.48709,0.1852 -3.67771,0.1852 -1.21708,0 -2.50031,-0.0529 -3.70417,-0.1852 -0.11906,-1.85209 -0.15875,-3.87615 -0.15875,-5.75469 v -1.68011 z m 17.76675,-0.0397 c -0.74083,0 -1.37583,0.0265 -2.14312,0.0926 l -4.39208,8.28146 h 1.16416 l 1.29646,-2.40771 h 8.1624 l 1.29646,2.40771 h 1.16416 l -4.39208,-8.28146 c -0.78052,-0.0661 -1.41552,-0.0926 -2.15636,-0.0926 z m 0,0.84666 c 0.46303,0 0.93928,0.0265 1.36261,0.0661 l 2.28864,4.24656 h -7.28927 l 2.28865,-4.24656 c 0.42333,-0.0397 0.89958,-0.0661 1.34937,-0.0661 z m 17.78,3.83646 c 0.0661,0.46302 0.0926,0.92604 0.0926,1.38906 0,0.50271 -0.0265,0.99219 -0.0926,1.46844 -1.45521,0.11906 -2.97657,0.18521 -4.5773,0.18521 -1.71979,0 -3.34697,-0.0661 -4.93447,-0.17198 v 0.76729 c 1.75947,0.14552 3.54541,0.18521 5.29166,0.18521 1.74625,0 3.51896,-0.0794 5.29167,-0.23812 0.11906,-0.79375 0.17198,-1.4023 0.17198,-2.18282 0,-0.71437 -0.0661,-1.32291 -0.17198,-2.06375 -3.28083,-0.46302 -6.42938,-0.4101 -9.525,-0.68791 -0.0529,-0.39688 -0.0794,-0.79375 -0.0794,-1.19063 0,-0.43656 0.0265,-0.83344 0.0794,-1.25677 1.46844,-0.11906 2.97656,-0.19844 4.55083,-0.19844 1.69334,0 3.29406,0.0794 4.85511,0.19844 v -0.76729 c -1.75948,-0.14552 -3.53219,-0.21167 -5.27844,-0.21167 -1.70656,0 -3.43958,0.0926 -5.17261,0.26459 -0.11906,0.70114 -0.17197,1.25677 -0.17197,1.97114 0,0.64823 0.0529,1.21708 0.17197,1.86531 3.22792,0.39688 6.37646,0.38365 9.49855,0.67469 z m 13.45406,0 c 0.0661,0.46302 0.0926,0.92604 0.0926,1.38906 0,0.50271 -0.0265,0.99219 -0.0926,1.46844 -1.45521,0.11906 -2.97657,0.18521 -4.5773,0.18521 -1.71979,0 -3.34698,-0.0661 -4.93448,-0.17198 v 0.76729 c 1.75948,0.14552 3.54542,0.18521 5.29167,0.18521 1.74625,0 3.51896,-0.0794 5.29167,-0.23812 0.11906,-0.79375 0.17198,-1.4023 0.17198,-2.18282 0,-0.71437 -0.0661,-1.32291 -0.17198,-2.06375 -3.28084,-0.46302 -6.42938,-0.4101 -9.525,-0.68791 -0.0529,-0.39688 -0.0794,-0.79375 -0.0794,-1.19063 0,-0.43656 0.0265,-0.83344 0.0794,-1.25677 1.46844,-0.11906 2.97656,-0.19844 4.55083,-0.19844 1.69333,0 3.29406,0.0794 4.85511,0.19844 v -0.76729 c -1.75948,-0.14552 -3.53219,-0.21167 -5.27844,-0.21167 -1.70656,0 -3.43959,0.0926 -5.17261,0.26459 -0.11906,0.70114 -0.17198,1.25677 -0.17198,1.97114 0,0.64823 0.0529,1.21708 0.17198,1.86531 3.22792,0.39688 6.37646,0.38365 9.49855,0.67469 z m 5.06676,-4.64344 h -1.16417 v 8.33438 h 1.16417 z m 8.50635,7.62 c -1.46844,0 -3.02948,-0.0529 -4.49792,-0.1852 -0.0926,-1.09803 -0.13229,-2.14313 -0.13229,-3.26761 0,-1.12448 0.0397,-2.16958 0.13229,-3.2676 1.46844,-0.13229 3.02948,-0.18521 4.49792,-0.18521 1.42875,0 2.9501,0.0529 4.39208,0.18521 0.0661,0.59531 0.10583,1.12448 0.11906,1.71979 h 1.19063 c -0.0265,-0.84667 -0.0794,-1.62719 -0.18521,-2.48708 -1.85209,-0.17198 -3.69094,-0.26459 -5.51656,-0.26459 -1.86532,0 -3.75709,0.0926 -5.6224,0.30427 -0.13229,1.34938 -0.19844,2.63261 -0.19844,3.99521 0,1.36261 0.0661,2.64583 0.19844,4.00844 1.86531,0.19844 3.75708,0.29104 5.6224,0.29104 1.82562,0 3.66447,-0.0926 5.51656,-0.29104 0.10583,-0.87313 0.17198,-1.66688 0.18521,-2.52677 h -1.19063 c -0.0132,0.62177 -0.0529,1.16416 -0.11906,1.78594 -1.44198,0.13229 -2.96333,0.1852 -4.39208,0.1852 z m 18.60021,-7.65968 c -0.74083,0 -1.37583,0.0265 -2.14313,0.0926 l -4.39208,8.28146 h 1.16417 l 1.29646,-2.40771 h 8.16239 l 1.29646,2.40771 h 1.16417 l -4.39209,-8.28146 c -0.78052,-0.0661 -1.41552,-0.0926 -2.15635,-0.0926 z m 0,0.84666 c 0.46302,0 0.93927,0.0265 1.3626,0.0661 l 2.28865,4.24656 h -7.28927 l 2.28864,-4.24656 c 0.42334,-0.0397 0.89959,-0.0661 1.34938,-0.0661 z m 12.28989,3.57188 v 0.23812 l 5.37104,3.7174 h 1.48167 l -4.60375,-3.21469 c 1.49489,-0.0132 3.09562,-0.0132 4.51114,-0.0926 0.15875,-0.89959 0.2249,-1.78594 0.2249,-2.64584 0,-0.79375 -0.0926,-1.4552 -0.2249,-2.24895 -1.71979,-0.25136 -3.63802,-0.26459 -5.33135,-0.26459 -1.77271,0 -3.55865,0.0265 -5.33135,0.13229 v 8.33438 h 1.1377 v -7.56708 c 1.38907,-0.11907 2.79136,-0.11907 4.18042,-0.11907 1.46844,0 2.8575,0.0529 4.27302,0.15875 0.0794,0.59532 0.11906,1.04511 0.11906,1.65365 0,0.62177 -0.0529,1.23031 -0.13229,1.85208 -1.15094,0.0529 -2.34156,0.0661 -3.55864,0.0661 z m 15.26644,3.24114 c -1.46843,0 -3.02948,-0.0529 -4.49791,-0.1852 -0.0926,-1.09803 -0.1323,-2.14313 -0.1323,-3.26761 0,-1.12448 0.0397,-2.16958 0.1323,-3.2676 1.46843,-0.13229 3.02948,-0.18521 4.49791,-0.18521 1.42875,0 2.95011,0.0529 4.39209,0.18521 0.0661,0.59531 0.10583,1.12448 0.11906,1.71979 h 1.19062 c -0.0265,-0.84667 -0.0794,-1.62719 -0.1852,-2.48708 -1.85209,-0.17198 -3.69094,-0.26459 -5.51657,-0.26459 -1.86531,0 -3.75708,0.0926 -5.62239,0.30427 -0.13229,1.34938 -0.19844,2.63261 -0.19844,3.99521 0,1.36261 0.0661,2.64583 0.19844,4.00844 1.86531,0.19844 3.75708,0.29104 5.62239,0.29104 1.82563,0 3.66448,-0.0926 5.51657,-0.29104 0.10583,-0.87313 0.17197,-1.66688 0.1852,-2.52677 h -1.19062 c -0.0132,0.62177 -0.0529,1.16416 -0.11906,1.78594 -1.44198,0.13229 -2.96334,0.1852 -4.39209,0.1852 z m 13.99647,-7.65968 c -0.74084,0 -1.37584,0.0265 -2.14313,0.0926 l -4.39208,8.28146 h 1.16416 l 1.29646,-2.40771 h 8.1624 l 1.29646,2.40771 h 1.16416 l -4.39208,-8.28146 c -0.78052,-0.0661 -1.41552,-0.0926 -2.15635,-0.0926 z m 0,0.84666 c 0.46302,0 0.93927,0.0265 1.3626,0.0661 l 2.28865,4.24656 h -7.28928 l 2.28865,-4.24656 c 0.42333,-0.0397 0.89958,-0.0661 1.34938,-0.0661 z m 13.96998,-0.93927 c -1.56104,0 -3.33375,0.0662 -5.58271,0.13229 v 8.32115 c 2.48709,0.0926 4.0349,0.14552 5.58271,0.14552 1.85208,0 3.75708,-0.0926 5.63563,-0.29104 0.44979,-1.36261 0.635,-2.64583 0.635,-4.00844 0,-1.3626 -0.18521,-2.64583 -0.635,-3.99521 -1.87855,-0.21166 -3.78355,-0.30427 -5.63563,-0.30427 z m 0,7.79198 c -1.54781,0 -2.97656,-0.0529 -4.43177,-0.15875 v -6.68073 c 1.45521,-0.0926 2.88396,-0.14552 4.43177,-0.14552 1.5875,0 3.04271,0.0529 4.55083,0.18521 0.29105,1.11125 0.43657,2.16958 0.43657,3.30729 0,1.13771 -0.14552,2.19604 -0.42334,3.30729 -1.50812,0.13229 -2.97656,0.18521 -4.56406,0.18521 z m 16.89364,-3.82323 h -6.81302 v -2.97656 c 1.54781,-0.11906 3.175,-0.17198 4.72281,-0.17198 1.48167,0 3.175,0.0529 4.64344,0.18521 v -0.80698 c -1.61396,-0.13229 -3.16177,-0.19844 -4.7625,-0.19844 -1.905,0 -3.86292,0.0662 -5.76792,0.19844 v 8.20208 c 1.86532,0.13229 3.77032,0.19844 5.64886,0.19844 1.64042,0 3.22792,-0.0661 4.89479,-0.19844 v -0.80698 c -1.44198,0.1323 -3.06917,0.18521 -4.5376,0.18521 -1.57427,0 -3.25438,-0.0529 -4.84188,-0.18521 v -2.98979 h 6.82625 z" />
    <path
       style="font-size:38.8056px;line-height:0.8;font-family:'WtfNew Strike';-inkscape-font-specification:'WtfNew Strike';letter-spacing:0px;word-spacing:0px;display:inline;fill:#ffffff;fill-opacity:1;stroke-width:0.105;stroke-linecap:round;stroke-linejoin:round"
       d="m 64.910786,114.47194 c 0.13728,0 0.247155,0.0541 0.329644,0.16223 0.10998,0.10822 0.144486,0.24351 0.103478,0.40594 l -2.244219,8.88811 c -0.04211,0.16679 -0.146851,0.30584 -0.31424,0.41713 -0.13958,0.11131 -0.279043,0.16698 -0.418354,0.16698 H 45.106419 c -1.4767,0 -2.806901,-0.22263 -3.989456,-0.66747 -1.15321,-0.44427 -2.104163,-1.0542 -2.852707,-1.82893 -0.746857,-0.77296 -1.248159,-1.66797 -1.504593,-2.68407 -0.247645,-1.04043 -0.202831,-2.1322 0.133029,-3.2748 0.334739,-1.13879 0.922839,-2.2063 1.763284,-3.20322 0.845811,-1.02082 1.854992,-1.90482 3.027503,-2.65306 1.169917,-0.74659 2.441303,-1.33205 3.814799,-1.7572 1.398956,-0.42461 2.818211,-0.63671 4.259092,-0.63671 h 16.841987 c 0.353423,0 0.486613,0.17233 0.399503,0.51723 l -0.504309,1.99681 c -0.09447,0.37405 -0.319264,0.56123 -0.674303,0.56123 H 50.539836 c -0.737392,0 -1.47102,0.13377 -2.201316,0.40146 -0.703536,0.26791 -1.369395,0.64333 -1.997829,1.12662 -0.594345,0.45707 -1.116421,0.9956 -1.566242,1.61597 -0.450644,0.62152 -0.780056,1.29836 -0.987949,2.03087 -0.208342,0.73408 -0.263766,1.41521 -0.165799,2.04306 0.09814,0.629 0.312615,1.1906 0.643622,1.68449 0.366901,0.46709 0.830552,0.83848 1.390918,1.11384 0.588543,0.27559 1.257385,0.41347 2.00617,0.41347 h 9.692608 l 0.969669,-3.70326 h -6.909533 c -0.386161,0 -0.530872,-0.17729 -0.434206,-0.5316 l 0.555732,-2.03695 c 0.03693,-0.13536 0.125094,-0.25715 0.264466,-0.36536 0.146693,-0.13521 0.302386,-0.20281 0.467123,-0.20281 z m 30.800879,9.66477 c 0.19938,0.25038 0.11801,0.37562 -0.2442,0.37562 H 87.10879 c -0.167174,0 -0.342213,-0.0278 -0.525096,-0.0835 -0.17677,-0.0835 -0.308678,-0.18087 -0.395733,-0.29213 l -9.007794,-9.29962 c -0.1899,-0.24348 -0.106333,-0.36515 0.250595,-0.36515 h 11.078522 c 0.521665,0 0.99911,-0.17567 1.431997,-0.52672 0.43244,-0.3507 0.700824,-0.76837 0.805374,-1.25276 0.1102,-0.51055 0.0251,-0.93989 -0.25489,-1.28832 -0.279731,-0.34808 -0.678939,-0.52199 -1.197844,-0.52199 H 76.266653 l -3.103293,13.04607 c -0.0926,0.38929 -0.33398,0.58411 -0.724052,0.58411 h -5.182381 c -0.390072,0 -0.536969,-0.19482 -0.440774,-0.58411 l 3.855711,-15.60412 c 0.08523,-0.3449 0.31811,-0.51723 0.69872,-0.51723 h 20.797611 c 0.86997,0 1.64376,0.13256 2.32178,0.39781 0.71136,0.23891 1.29205,0.5843 1.74216,1.03649 0.48351,0.42616 0.82828,0.93291 1.03412,1.52065 0.20621,0.58874 0.23758,1.23219 0.0937,1.93064 -0.13868,0.67295 -0.43391,1.30674 -0.88608,1.90115 -0.45296,0.59546 -1.0164,1.12413 -1.69041,1.58569 -0.64169,0.43498 -1.37722,0.78881 -2.2065,1.06124 -0.79655,0.24537 -1.63637,0.36813 -2.519028,0.36813 H 88.40296 Z M 114.2092,107.25074 c 1.9558,0 3.78609,0.17204 5.49216,0.51639 1.73503,0.34468 3.20904,0.87568 4.42265,1.59385 1.24347,0.7197 2.17222,1.62818 2.78574,2.72696 0.64292,1.10237 0.84146,2.42456 0.59317,3.96912 -0.2494,1.5516 -0.87928,2.89111 -1.89126,4.01598 -0.98758,1.12857 -2.23805,2.06729 -3.75143,2.81457 -1.48884,0.74892 -3.18431,1.30472 -5.08543,1.66648 -1.87524,0.36214 -3.8175,0.54335 -5.82529,0.54335 -2.00778,0 -3.89777,-0.18121 -5.66859,-0.54335 -1.76894,-0.36176 -3.27525,-0.91756 -4.51825,-1.66648 -1.212535,-0.74728 -2.120025,-1.686 -2.722935,-2.81457 -0.57329,-1.12487 -0.69994,-2.46438 -0.38245,-4.01598 0.31604,-1.54456 0.98395,-2.86675 2.00229,-3.96912 1.042335,-1.09878 2.303035,-2.00726 3.782205,-2.72696 1.50326,-0.71817 3.18488,-1.24917 5.04585,-1.59385 1.85906,-0.34435 3.76576,-0.51639 5.72157,-0.51639 z m -2.67414,14.64085 c 0.94372,0 1.89986,-0.0691 2.86813,-0.20713 1.0005,-0.16563 1.9277,-0.46907 2.78113,-0.90995 0.85234,-0.44031 1.57744,-1.03109 2.17515,-1.77155 0.62871,-0.7662 1.04508,-1.74879 1.24965,-2.9459 0.20383,-1.19292 0.12318,-2.16583 -0.2408,-2.92061 -0.3358,-0.7531 -0.85149,-1.33024 -1.547,-1.73231 -0.68998,-0.42836 -1.49828,-0.72254 -2.42526,-0.88289 -0.89923,-0.16027 -1.81257,-0.24039 -2.74031,-0.24039 -0.92775,0 -1.88398,0.0801 -2.86906,0.24039 -0.98556,0.16035 -1.90135,0.45453 -2.74783,0.88289 -0.8424,0.40207 -1.58264,0.97921 -2.22102,1.73231 -0.61237,0.75478 -1.03477,1.72769 -1.26676,2.92061 -0.23282,1.19711 -0.18924,2.1797 0.13188,2.9459 0.3548,0.74046 0.87789,1.33124 1.56936,1.77155 0.69235,0.44088 1.50868,0.74432 2.44867,0.90995 0.94558,0.13807 1.89036,0.20713 2.83407,0.20713 z m 45.35037,-14.08472 c 0.35342,0 0.50976,0.17233 0.46899,0.51723 l -0.9767,8.26297 c -0.18369,1.55403 -0.69857,2.8682 -1.54602,3.9397 -0.82236,1.07487 -1.88592,1.94548 -3.19064,2.6103 -1.30726,0.66611 -2.80288,1.15263 -4.4861,1.45879 -1.65682,0.30643 -3.41991,0.45975 -5.28815,0.45975 -1.86825,0 -3.60302,-0.15332 -5.20325,-0.45975 -1.57096,-0.30616 -2.91857,-0.79268 -4.04223,-1.45879 -1.1215,-0.66482 -1.95899,-1.53543 -2.51279,-2.6103 -0.52441,-1.0715 -0.66328,-2.38567 -0.41867,-3.9397 l 1.30063,-8.26297 c 0.0543,-0.3449 0.27172,-0.51723 0.65233,-0.51723 h 5.13824 c 0.38061,0 0.5454,0.17233 0.49434,0.51723 l -1.22341,8.26297 c -0.17752,1.19898 -0.12578,2.15573 0.15614,2.8682 0.31423,0.68647 0.76203,1.22288 1.34342,1.6085 0.61374,0.35848 1.32914,0.59307 2.14589,0.70352 0.84867,0.0829 1.71716,0.1243 2.60537,0.1243 0.88819,0 1.75424,-0.0415 2.59799,-0.1243 0.87495,-0.11045 1.655,-0.34504 2.33984,-0.70352 0.7154,-0.38562 1.31104,-0.92203 1.78682,-1.6085 0.50595,-0.71247 0.8352,-1.66922 0.98813,-2.8682 l 1.05392,-8.26297 c 0.044,-0.3449 0.25629,-0.51723 0.63689,-0.51723 z m 30.9517,0 c 0.38061,0 0.55849,0.17233 0.53363,0.51723 l -1.12477,15.60412 c -0.028,0.38929 -0.23714,0.58411 -0.62722,0.58411 h -5.26597 c -0.39007,0 -0.7304,-0.0974 -1.02085,-0.29218 l -16.6062,-11.40667 -1.20047,11.11474 c -0.0421,0.38929 -0.25813,0.58411 -0.6482,0.58411 h -2.04787 c -0.39008,0 -0.56316,-0.19482 -0.51929,-0.58411 l 1.75827,-15.60412 c 0.0388,-0.3449 0.24859,-0.51723 0.6292,-0.51723 h 5.17901 c 0.35342,0 0.68369,0.0928 0.99093,0.27842 l 16.51924,11.20543 0.84174,-10.96662 c 0.0265,-0.3449 0.21642,-0.51723 0.56984,-0.51723 z m 21.98021,0 c 1.44087,0 2.79254,0.2121 4.05621,0.63671 1.26526,0.42515 2.35013,1.01061 3.2549,1.7572 0.9341,0.74824 1.66161,1.63224 2.18215,2.65306 0.5228,0.99692 0.77076,2.06443 0.74265,3.20322 -0.0282,1.1426 -0.33127,2.23437 -0.91044,3.2748 -0.58019,1.0161 -1.36667,1.91111 -2.35982,2.68407 -0.9676,0.77473 -2.11287,1.38466 -3.43546,1.82893 -1.3243,0.44484 -2.72544,0.66747 -4.20214,0.66747 h -17.21887 c -0.39007,0 -0.57224,-0.19482 -0.54651,-0.58411 l 1.03104,-15.60412 c 0.0228,-0.3449 0.22447,-0.51723 0.60508,-0.51723 z m -2.16559,13.50505 c 0.74879,0 1.44769,-0.13788 2.09632,-0.41347 0.6481,-0.27536 1.21624,-0.64675 1.70432,-1.11384 0.51605,-0.49389 0.92329,-1.05549 1.22186,-1.68449 0.29802,-0.62785 0.45962,-1.30897 0.48518,-2.04306 0.0255,-0.73251 -0.0882,-1.40935 -0.34085,-2.03087 -0.25214,-0.62037 -0.61633,-1.15889 -1.0924,-1.61597 -0.44705,-0.48329 -0.97963,-0.85871 -1.59779,-1.12662 -0.61769,-0.26769 -1.29504,-0.40146 -2.03244,-0.40146 h -9.54513 l -0.59167,10.42978 z m 32.38322,-13.50505 c 0.38062,0 0.57188,0.17233 0.57382,0.51723 l 0.0873,15.60412 c 0.002,0.38929 -0.19177,0.58411 -0.58185,0.58411 h -5.26597 c -0.39007,0 -0.58437,-0.19482 -0.58291,-0.58411 l 0.0585,-15.60412 c 0.001,-0.3449 0.19226,-0.51723 0.57286,-0.51723 z m 21.71615,16.37156 c 0.14228,0.0835 0.20103,0.16691 0.17621,0.2504 -0.0258,0.0556 -0.12233,0.0835 -0.28951,0.0835 H 252.903 c -0.16717,0 -0.34891,-0.0278 -0.54519,-0.0835 -0.16902,-0.0835 -0.32406,-0.16696 -0.46515,-0.2504 l -9.9998,-7.79531 c -0.11072,-0.0816 -0.16646,-0.17666 -0.16724,-0.28532 -9.8e-4,-0.13579 0.067,-0.24438 0.20397,-0.3258 l 12.2631,-7.68671 c 0.13392,-0.0796 0.29534,-0.14587 0.48428,-0.19889 0.21609,-0.053 0.39209,-0.0795 0.52802,-0.0795 h 5.30136 c 0.35342,0 0.38392,0.0928 0.0913,0.27842 l -11.42136,6.83298 z m 14.21911,-16.92769 c 1.95581,0 3.82755,0.17204 5.61657,0.51639 1.81807,0.34468 3.42001,0.87568 4.80663,1.59385 1.41686,0.7197 2.56447,1.62818 3.44272,2.72696 0.90849,1.10237 1.42556,2.42456 1.54939,3.96912 0.1244,1.5516 -0.18276,2.89111 -0.92373,4.01598 -0.7157,1.12857 -1.74002,2.06729 -3.07336,2.81457 -1.30843,0.74892 -2.86998,1.30472 -4.68395,1.66648 -1.78799,0.36214 -3.68659,0.54335 -5.69438,0.54335 -2.00778,0 -3.94143,-0.18121 -5.79949,-0.54335 -1.85611,-0.36176 -3.4963,-0.91756 -4.91975,-1.66648 -1.39256,-0.74728 -2.5262,-1.686 -3.401,-2.81457 -0.84429,-1.12487 -1.29365,-2.46438 -1.34997,-4.01598 -0.0561,-1.54456 0.29329,-2.86675 1.04606,-3.96912 0.77763,-1.09878 1.81945,-2.00726 3.12525,-2.72696 1.33023,-0.71817 2.88393,-1.24917 4.66185,-1.59385 1.7761,-0.34435 3.64136,-0.51639 5.59716,-0.51639 z m 0.8531,14.64085 c 0.94371,0 1.8832,-0.0691 2.81821,-0.20713 0.9606,-0.16563 1.8147,-0.46907 2.56192,-0.90995 0.74625,-0.44031 1.32902,-1.03109 1.74835,-1.77155 0.44412,-0.7662 0.62377,-1.74879 0.53993,-2.9459 -0.0836,-1.19292 -0.39859,-2.16583 -0.94441,-2.92061 -0.51725,-0.7531 -1.17198,-1.33024 -1.96435,-1.73231 -0.79317,-0.42836 -1.67236,-0.72254 -2.63797,-0.88289 -0.93785,-0.16027 -1.87048,-0.24039 -2.79822,-0.24039 -0.92774,0 -1.86467,0.0801 -2.81114,0.24039 -0.94693,0.16035 -1.79185,0.45453 -2.53513,0.88289 -0.74554,0.40207 -1.34673,0.97921 -1.80367,1.73231 -0.43053,0.75478 -0.61854,1.72769 -0.56315,2.92061 0.0555,1.19711 0.3359,2.1797 0.84161,2.9459 0.53319,0.74046 1.1986,1.33124 1.99614,1.77155 0.79857,0.44088 1.68801,0.74432 2.66791,0.90995 0.97884,0.13807 1.94025,0.20713 2.88397,0.20713 z m 43.26206,-14.08472 c 0.3806,0 0.5924,0.17233 0.63541,0.51723 l 1.94611,15.60412 c 0.0485,0.38929 -0.12219,0.58411 -0.51226,0.58411 h -5.26597 c -0.39007,0 -0.74957,-0.0974 -1.07835,-0.29218 l -18.85103,-11.40667 0.9869,11.11474 c 0.0345,0.38929 -0.14317,0.58411 -0.53324,0.58411 h -2.04787 c -0.39008,0 -0.6015,-0.19482 -0.63425,-0.58411 l -1.31261,-15.60412 c -0.029,-0.3449 0.1468,-0.51723 0.52741,-0.51723 h 5.17902 c 0.35342,0 0.70194,0.0928 1.04571,0.27842 l 18.72447,11.20543 -1.31648,-10.96662 c -0.0414,-0.3449 0.11462,-0.51723 0.46804,-0.51723 z m 28.70883,0 c 0.35343,0 0.55898,0.17233 0.61671,0.51723 l 0.33423,1.99681 c 0.0626,0.37405 -0.0836,0.56123 -0.43862,0.56123 h -9.709 l 1.9857,13.04608 c 0.0254,0.16679 -0.0231,0.30584 -0.14543,0.41713 -0.0945,0.11131 -0.21146,0.16698 -0.35078,0.16698 h -5.30776 c -0.3622,0 -0.57113,-0.19482 -0.62675,-0.58411 l -1.86378,-13.04608 h -9.70902 c -0.38234,0 -0.59742,-0.18718 -0.64515,-0.56123 l -0.25485,-1.99681 c -0.044,-0.3449 0.12428,-0.51723 0.5049,-0.51723 z m 34.17368,16.32984 c 0.30386,0.25038 0.27478,0.37562 -0.0875,0.37562 h -8.35868 c -0.16718,0 -0.35382,-0.0278 -0.55994,-0.0835 -0.21161,-0.0835 -0.38415,-0.18087 -0.51765,-0.29212 l -12.88877,-9.29963 c -0.29151,-0.24348 -0.25872,-0.36515 0.0982,-0.36515 h 11.07852 c 0.52166,0 0.9258,-0.17567 1.21219,-0.52672 0.28607,-0.3507 0.38015,-0.76837 0.28256,-1.25276 -0.1029,-0.51055 -0.36712,-0.93989 -0.79255,-1.28832 -0.42499,-0.34808 -0.89677,-0.52199 -1.41568,-0.52199 h -13.02727 l 2.34119,13.04607 c 0.0698,0.38929 -0.0902,0.58411 -0.48029,0.58411 h -5.18238 c -0.39007,0 -0.61828,-0.19482 -0.68454,-0.58411 l -2.6563,-15.60412 c -0.0587,-0.3449 0.10227,-0.51723 0.48286,-0.51723 h 20.79761 c 0.86997,0 1.69908,0.13256 2.4878,0.39781 0.81106,0.23891 1.53589,0.5843 2.17471,1.03649 0.66135,0.42616 1.21761,0.93291 1.66873,1.52065 0.45191,0.58874 0.75182,1.23219 0.89937,1.93064 0.14216,0.67295 0.11142,1.30674 -0.0927,1.90115 -0.20446,0.59546 -0.54728,1.12413 -1.02867,1.58569 -0.46015,0.43498 -1.04803,0.78881 -1.7636,1.06124 -0.69417,0.24537 -1.48276,0.36813 -2.36541,0.36813 h -1.65498 z m 11.45058,-16.88597 c 1.9558,0 3.85788,0.17204 5.70766,0.51639 1.87888,0.34468 3.57448,0.87568 5.0878,1.59385 1.54381,0.7197 2.85169,1.62818 3.92376,2.72696 1.10297,1.10237 1.85329,2.42456 2.24961,3.96912 0.39811,1.5516 0.32725,2.89111 -0.2153,4.01598 -0.5166,1.12857 -1.37531,2.06729 -2.57682,2.81457 -1.17631,0.74892 -2.63981,1.30472 -4.38997,1.66648 -1.72411,0.36214 -3.59075,0.54335 -5.59852,0.54335 -2.00779,0 -3.97341,-0.18121 -5.89536,-0.54335 -1.91991,-0.36176 -3.65816,-0.91756 -5.21372,-1.66648 -1.5244,-0.74728 -2.82364,-1.686 -3.89753,-2.81457 -1.04273,-1.12487 -1.7284,-2.46438 -2.05844,-4.01598 -0.32854,-1.54456 -0.21242,-2.86675 0.34587,-3.96912 0.5838,-1.09878 1.46536,-2.00726 2.6442,-2.72696 1.20355,-0.71817 2.66358,-1.24917 4.38068,-1.59385 1.71536,-0.34435 3.55027,-0.51639 5.50608,-0.51639 z m 3.43587,14.64085 c 0.94372,0 1.87103,-0.0691 2.78167,-0.20713 0.93139,-0.16563 1.73196,-0.46907 2.40139,-0.90995 0.66859,-0.44031 1.14714,-1.03109 1.43584,-1.77155 0.30896,-0.7662 0.31528,-1.74879 0.0203,-2.9459 -0.29399,-1.19292 -0.78066,-2.16583 -1.45965,-2.92061 -0.65009,-0.7531 -1.40663,-1.33024 -2.26994,-1.73231 -0.86874,-0.42836 -1.79981,-0.72254 -2.7937,-0.88289 -0.96613,-0.16027 -1.91289,-0.24039 -2.84063,-0.24039 -0.92774,0 -1.85055,0.0801 -2.76876,0.24039 -0.91862,0.16035 -1.71164,0.45453 -2.37936,0.88289 -0.67461,0.40207 -1.174,0.97921 -1.49809,1.73231 -0.29737,0.75478 -0.31374,1.72769 -0.0479,2.92061 0.26677,1.19711 0.7204,2.1797 1.36128,2.9459 0.66382,0.74046 1.43345,1.33124 2.30866,1.77155 0.87635,0.44088 1.81932,0.74432 2.82843,0.90995 1.0032,0.13808 1.9768,0.20713 2.92051,0.20713 z m 40.25676,-0.57967 c 0.36053,0 0.59764,0.19312 0.71144,0.57967 l 0.59956,2.03663 c 0.1146,0.38929 -0.009,0.58411 -0.37136,0.58411 h -14.92023 c -1.19809,0 -2.37508,-0.1809 -3.5301,-0.54243 -1.15382,-0.36114 -2.204,-0.86056 -3.15011,-1.49765 -0.94437,-0.63591 -1.75966,-1.36713 -2.44595,-2.19305 -0.6641,-0.85136 -1.11622,-1.74164 -1.3571,-2.67054 l -2.40762,-9.28456 c -0.0895,-0.3449 0.0562,-0.51723 0.43678,-0.51723 h 5.13824 c 0.38061,0 0.61721,0.17233 0.70988,0.51723 l 2.49439,9.28456 c 0.27896,1.03835 0.87412,1.9152 1.78627,2.6293 0.91405,0.7156 1.89872,1.07396 2.95258,1.07396 z"
       id="logo-face"
       aria-label="GROUND KONTROL" />
    <path
       id="logo-hightlight"
       style="font-size:38.8056px;line-height:0.8;font-family:'WtfNew Strike';-inkscape-font-specification:'WtfNew Strike';letter-spacing:0px;word-spacing:0px;display:inline;fill:url(#linearGradient2);fill-opacity:1;stroke-width:0.105;stroke-linecap:round;stroke-linejoin:round"
       d="m 37.626423,117.70658 c -0.02504,0.47737 0.0098,0.93804 0.115755,1.38544 0.215086,0.84631 0.617143,1.56972 1.247986,2.22261 0.635698,0.65794 1.453035,1.18842 2.490287,1.58801 1.044926,0.39304 2.249252,0.59945 3.625102,0.59945 h 17.060458 l 1.463476,-5.79551 H 59.34241 l -1.209745,4.61574 H 47.661986 c -0.876715,0 -1.69496,-0.16276 -2.43551,-0.50953 -0.0033,-0.001 -0.0065,-0.003 -0.0098,-0.004 l -0.0078,-0.004 c -0.690057,-0.33909 -1.275198,-0.8045 -1.740462,-1.39682 -0.0078,-0.01 -0.01545,-0.0195 -0.02325,-0.0294 -0.0072,-0.0103 -0.01409,-0.0206 -0.02119,-0.031 -0.419982,-0.62665 -0.681679,-1.3272 -0.800985,-2.09186 -0.02804,-0.17969 -0.01009,-0.36646 -0.01809,-0.54932 z m 31.768087,0 -1.431437,5.79551 h 4.263305 l 1.378728,-5.79551 z m 11.968262,0 5.586222,5.76657 0.0021,0.002 c 0.05708,0.0121 0.11615,0.0269 0.15813,0.0269 h 6.375321 l -6.490043,-5.79551 z m 17.183964,0 c 0.01243,0.70991 0.115572,1.35719 0.390673,1.89962 0.51269,0.95492 1.271901,1.75237 2.345591,2.41588 h 0.002 c 1.12325,0.67651 2.52012,1.19967 4.19923,1.54306 1.69731,0.34711 3.51764,0.52348 5.46478,0.52348 1.94715,0 3.82564,-0.17617 5.6348,-0.52555 1.82494,-0.34727 3.42867,-0.87711 4.82244,-1.5782 1.41715,-0.6998 2.55329,-1.55882 3.44527,-2.57814 l 0.004,-0.004 0.006,-0.006 c 0.46292,-0.51457 0.82011,-1.07874 1.09709,-1.69034 h -4.77594 c -0.25947,0.71377 -0.58264,1.37882 -1.04179,1.93838 -0.68402,0.84743 -1.51492,1.52127 -2.49442,2.02727 -0.95341,0.49253 -1.98152,0.82585 -3.07992,1.00769 l -0.01,0.002 -0.0119,0.002 c -1.01383,0.1445 -2.01645,0.21704 -3.00964,0.21704 -0.99316,0 -1.98729,-0.072 -2.9807,-0.21704 l -0.0134,-0.002 -0.0155,-0.004 c -1.04997,-0.18501 -1.9954,-0.52747 -2.81688,-1.05058 -0.85555,-0.54479 -1.49735,-1.27351 -1.93528,-2.18746 -0.004,-0.007 -0.008,-0.0147 -0.0119,-0.0217 -0.004,-0.008 -0.007,-0.0152 -0.01,-0.0232 -0.21601,-0.51539 -0.32379,-1.08346 -0.3483,-1.68827 z m 32.103464,0 c -0.0318,0.92421 0.0586,1.73875 0.36174,2.36368 0.46569,0.901 1.1486,1.61851 2.12493,2.19728 1.00443,0.59543 2.24052,1.04736 3.72071,1.33584 1.52538,0.29209 3.19676,0.44183 5.01003,0.44183 1.81326,0 3.51372,-0.14779 5.10356,-0.44183 1.6044,-0.29183 3.00371,-0.75188 4.2106,-1.36684 1.18522,-0.60393 2.12131,-1.37267 2.84788,-2.32234 l 0.006,-0.008 0.004,-0.006 c 0.48634,-0.6149 0.80033,-1.36793 1.03508,-2.19366 h -4.27984 c -0.20479,0.87615 -0.48449,1.68723 -0.94051,2.33009 l -0.002,0.002 c -0.56363,0.81066 -1.2748,1.45166 -2.13269,1.91409 l -0.004,0.004 -0.006,0.002 c -0.80546,0.42163 -1.70263,0.68672 -2.68149,0.81029 l -0.014,0.002 -0.0134,0.002 c -0.87887,0.0863 -1.77886,0.12713 -2.69751,0.12713 -0.91858,0 -1.81961,-0.0408 -2.70319,-0.12713 l -0.0191,-0.002 c -0.006,-0.001 -0.0116,-0.003 -0.0176,-0.004 -0.92877,-0.1256 -1.77664,-0.39467 -2.52181,-0.82992 -0.008,-0.005 -0.0153,-0.0105 -0.0233,-0.0155 -0.009,-0.005 -0.0173,-0.0105 -0.0253,-0.0155 -0.75477,-0.50062 -1.31341,-1.18425 -1.70119,-2.0314 -0.004,-0.008 -0.008,-0.0153 -0.0119,-0.0233 -0.004,-0.008 -0.007,-0.0173 -0.01,-0.0253 -0.24387,-0.61631 -0.30228,-1.34696 -0.28887,-2.11977 z m 30.37748,0 -0.65268,5.79551 h 1.18184 l 0.6258,-5.79551 z m 11.60497,0 8.26203,5.67614 h 0.002 c 0.11418,0.0762 0.23376,0.11937 0.45682,0.11937 h 4.91029 l 0.41755,-5.79551 h -1.16014 l -0.26148,3.39669 -5.00745,-3.39669 z m 20.1719,0 -0.38241,5.79603 h 16.7225 c 1.37585,0 2.66479,-0.2049 3.8809,-0.6134 1.22443,-0.4113 2.26063,-0.96828 3.12694,-1.66192 l 0.006,-0.004 0.004,-0.004 c 0.89611,-0.69744 1.58655,-1.48549 2.09806,-2.37867 0.20812,-0.37388 0.34654,-0.7527 0.47077,-1.13378 h -4.85397 c -0.0854,0.27918 -0.16505,0.56053 -0.29145,0.82682 -0.35202,0.7416 -0.82949,1.40423 -1.43351,1.98231 -0.58067,0.5557 -1.25406,0.99153 -2.00969,1.31258 -0.78274,0.33256 -1.61016,0.49403 -2.49029,0.49403 h -10.7618 l 0.26149,-4.61574 z m 42.49456,0 -0.0217,5.79551 h 4.40593 l -0.032,-5.79551 z m 9.93325,0 7.22074,5.62756 c 0.0789,0.0458 0.16543,0.0906 0.25373,0.13643 0.0745,0.0157 0.15104,0.0315 0.19534,0.0315 h 6.22856 l -7.87084,-5.79551 z m 17.60771,0 c 0.19205,0.63863 0.46224,1.22762 0.85524,1.75286 0.78154,1.00628 1.79377,1.8502 3.07423,2.53732 1.31591,0.6923 2.86024,1.22043 4.63486,1.56631 1.79092,0.34906 3.6582,0.52555 5.60534,0.52555 1.94714,0 3.77854,-0.17598 5.49424,-0.52348 1.73082,-0.34518 3.18739,-0.87079 4.38268,-1.55495 1.21887,-0.68318 2.10259,-1.50363 2.72076,-2.4784 l 0.006,-0.008 0.004,-0.006 c 0.35188,-0.5342 0.55209,-1.14576 0.66766,-1.81126 h -4.86533 c -0.10257,0.65257 -0.28352,1.26418 -0.59583,1.80299 -0.51088,0.89873 -1.20775,1.60394 -2.10737,2.13475 -0.86554,0.51069 -1.83801,0.85124 -2.90421,1.03508 l -0.0119,0.002 -0.0114,0.002 c -0.98389,0.1452 -1.97176,0.21704 -2.96519,0.21704 -0.99298,0 -2.00165,-0.0727 -3.02514,-0.21704 l -0.0139,-0.002 -0.0134,-0.002 c -1.0817,-0.18284 -2.08097,-0.51806 -2.98845,-1.01906 -0.93129,-0.51416 -1.70603,-1.20275 -2.32802,-2.06654 -0.004,-0.005 -0.008,-0.0105 -0.0119,-0.0155 -0.004,-0.006 -0.007,-0.0116 -0.0114,-0.0176 -0.35992,-0.5453 -0.59253,-1.17812 -0.75861,-1.85415 z m 32.37993,0 0.48679,5.79551 h 1.18753 l -0.51418,-5.79551 z m 11.77603,0 9.33793,5.65082 c 0.16865,0.0998 0.33054,0.14469 0.55449,0.14469 h 4.7072 l -0.72295,-5.79551 h -1.15135 l 0.42116,3.50831 -5.86321,-3.50831 z m 28.28819,0 0.82734,5.79551 h 4.3863 l -0.88263,-5.79551 z m 18.66656,0 0.98651,5.79551 h 4.29328 l -1.03973,-5.79551 z m 12.30571,0 7.81761,5.63945 c 0.005,0.005 0.0105,0.0105 0.0155,0.0155 0.0235,0.0196 0.10418,0.0622 0.19378,0.10335 0.0973,0.0215 0.18923,0.0372 0.23823,0.0372 h 5.62085 l -8.90954,-5.79551 z m 16.923,0 c 0.30434,0.60687 0.68452,1.16569 1.15807,1.6769 l 0.002,0.002 c 0.98461,1.03276 2.17894,1.89742 3.60339,2.5957 1.46072,0.70323 3.11187,1.235 4.95526,1.58234 1.85886,0.35025 3.76154,0.52503 5.70869,0.52503 1.94713,0 3.74404,-0.17551 5.39089,-0.52142 1.66132,-0.34341 3.00703,-0.86426 4.05453,-1.53117 l 0.006,-0.004 0.004,-0.002 c 1.06256,-0.66086 1.76243,-1.44018 2.19108,-2.3766 10e-4,-0.003 0.003,-0.007 0.004,-0.0103 10e-4,-0.003 0.003,-0.007 0.004,-0.01 0.26247,-0.5442 0.3362,-1.20209 0.31109,-1.9265 h -4.85552 c -0.005,0.59573 -0.10144,1.15702 -0.30799,1.6707 -0.36573,0.93411 -0.97667,1.68766 -1.81798,2.24172 -0.80275,0.52868 -1.73413,0.87329 -2.77761,1.05885 l -0.0134,0.002 -0.0139,0.002 c -0.96206,0.14585 -1.94061,0.21859 -2.93368,0.21859 -0.99293,0 -2.01259,-0.0731 -3.05821,-0.21704 l -0.0119,-0.002 -0.014,-0.002 c -1.1055,-0.18145 -2.14436,-0.51262 -3.11712,-1.00201 -0.9907,-0.49841 -1.85957,-1.16607 -2.60707,-1.99987 l -0.0119,-0.0119 c -0.004,-0.005 -0.008,-0.009 -0.0119,-0.014 -0.46768,-0.55913 -0.81121,-1.22769 -1.09813,-1.94562 z m 31.57947,0 c 0.21805,0.65623 0.53838,1.30199 1.03611,1.942 0.61944,0.74251 1.3558,1.40414 2.22054,1.98644 0.86236,0.58069 1.81782,1.03709 2.88458,1.37098 1.05912,0.33151 2.13359,0.49609 3.23081,0.49609 h 14.11335 l -0.34779,-1.17977 h -13.13873 c -1.30303,0 -2.49695,-0.44454 -3.57601,-1.28933 -1.07697,-0.84313 -1.79635,-1.89478 -2.13682,-3.16208 l -0.0439,-0.16433 z" />
  </g>
</svg>
