<?xml version="1.0" encoding="UTF-8" standalone="no"?>
<!-- Created with Inkscape (http://www.inkscape.org/) -->

<svg
   width="190.42mm"
   height="25.873mm"
   version="1.1"
   viewBox="0 0 190.42 25.873"
   id="svg4"
   sodipodi:docname="taplist.svg"
   inkscape:version="1.4 (86a8ad7, 2024-10-11)"
   xmlns:inkscape="http://www.inkscape.org/namespaces/inkscape"
   xmlns:sodipodi="http://sodipodi.sourceforge.net/DTD/sodipodi-0.dtd"
   xmlns="http://www.w3.org/2000/svg"
   xmlns:svg="http://www.w3.org/2000/svg">
  <sodipodi:namedview
     id="namedview4"
     pagecolor="#ffffff"
     bordercolor="#000000"
     borderopacity="0.25"
     inkscape:showpageshadow="2"
     inkscape:pageopacity="0.0"
     inkscape:pagecheckerboard="0"
     inkscape:deskcolor="#d1d1d1"
     inkscape:document-units="mm"
     inkscape:zoom="2.4760398"
     inkscape:cx="359.64688"
     inkscape:cy="48.868358"
     inkscape:window-width="1920"
     inkscape:window-height="1027"
     inkscape:window-x="-8"
     inkscape:window-y="-8"
     inkscape:window-maximized="1"
     inkscape:current-layer="svg4" />
  <defs
     id="defs2">
    <linearGradient
       id="highlight-gradient"
       x1="105.02"
       x2="105.02"
       y1="232.51"
       y2="60.004"
       gradientUnits="userSpaceOnUse">
      <stop
         offset=".4912"
         id="stop1"
         stop-color="#000" />
      <stop
         stop-opacity="0"
         offset=".51613"
         id="stop2" />
    </linearGradient>
   </defs>
   <desc>
   52 61 70 68 61 65 6C 20 61 72 63 68 61 6E 67 65 6C 75 73 2C 20 63 75 73 74 6F 73 20 68 75 69 75 73 20 74 61 62 65 72 6E 61 65 20 65 73 74 6F 2E 20 44 61 20 73 61 6C 75 74 65 6D 2C 20 70 72 6F 73 70 65 72 69 74 61 74 65 6D 2C 20 65 74 20 73 70 69 72 69 74 75 6D 20 6C 61 65 74 69 74 69 61 65 20 6F 6D 6E 69 62 75 73 20 71 75 69 20 68 69 63 20 6C 61 62 6F 72 61 6E 74 2C 20 62 69 62 75 6E 74 2C 20 65 74 20 6C 75 64 75 6E 74 2E 20 4C 75 78 20 74 75 61 20 73 69 74 20 6E 6F 62 69 73 63 75 6D 20 73 65 6D 70 65 72 2E
   <!-- Lux Raphael -->
   </desc>

  <g
     transform="translate(-9.7914 -131.91)"
     id="g4">
    <path class="logo-shadow" d="m12.457 131.95c-0.98047-2e-3 -1.6153 0.45563-1.9629 1.3418-0.29209 0.74463-0.65234 2.0684-0.65234 2.0684-0.1022 0.35951-0.047565 0.74547 0.15039 1.0625l4.4551 7.1367c6.31e-4 1e-3 0.0013 8.9e-4 2e-3 2e-3 0.45098 0.75636 0.91954 1.1198 1.2394 1.1571 0.62406 1e-3 1.2281 0.0106 1.8427 0.0106l-1.1992 4.291c-0.10164 0.36241-0.0441 0.75096 0.1582 1.0684l3.9531 6.1856s0.15396 0.25139 0.24662 0.36546c0.31738 0.39074 0.60404 0.85391 1.0521 1.0834 0.11953 0.0612 0.20497 0.0578 0.39858 0.0589h5.2051c0.46582 0 0.87261-0.20012 1.1758-0.42773 0.35876-0.25215 0.70432-0.65793 0.82812-1.1367l1.4512-5.6133 3.3322 6.1925s0.34225 0.65329 0.63994 0.84225c0.19291 0.12245 0.2149 0.0822 0.67042 0.14297h3.1152c0.72784 0 1.4269-0.34399 1.9199-0.81836 0.01399-0.014 0.02767-0.0284 0.04102-0.043l3.1328-3.3008h11.533l1.8203 3.0645-0.07227-0.13867c0.18646 0.42046 0.54088 0.76033 0.89648 0.95312 0.10149 0.0556 0.20984 0.0976 0.32227 0.125l0.51367 0.12305c0.10113 0.0238 0.2047 0.0356 0.30859 0.0352h6.3945c0.29959 0 0.66682-0.22878 0.99609-0.46093 0.36669 0.2544 0.77424 0.46093 1.0938 0.46093h5.166c0.41139 0 0.93185-0.12162 1.332-0.48242 0.40018-0.3608 0.57362-0.86324 0.61719-1.2715 0.0051-0.0467 0.0077-0.0936 0.0078-0.14063v0.0703l0.35547-3.332h12.709c1.1223 0 2.201-0.16499 3.2168-0.50195h2e-3c0.96552-0.32035 1.8363-0.77333 2.6074-1.3398 0.37129-0.24152 0.59709-0.6528 0.60156-1.0957l-0.53125 1.0586c0.78893-0.59113 1.4453-1.3088 1.9336-2.1348v-2e-3l0.0059-0.0215c0.49082-0.83747 0.77535-1.7648 0.80859-2.7168 1e-3 -0.0299 1e-3 -0.0599 0-0.0898 0 0-0.13921-4.6469-0.51562-7.166-0.1001-0.66989-0.13425-1.598-0.625-2.5801-0.45798-0.91653-1.1375-1.6373-1.8496-2.207-0.81364-0.65095-1.7343-1.0894-2.6504-1.3887-1.0524-0.34381-2.1388-0.48146-3.1895-0.49024-6.7026-0.0561-13.146-0.0505-19.783 0-0.5109 4e-3 -0.8711 0.17201-1.1973 0.41992-0.32617 0.24792-0.66621 0.62087-0.74219 1.2441-0.52333 4.2934-1.5176 11.906-1.7715 13.854-0.93552-1.5364-5.8543-9.6189-8.8809-14.471-0.25439-0.40779-0.57292-0.62904-0.86523-0.78125-0.32649-0.1699-0.68491-0.2688-1.0898-0.26563-1.6842 0.0132-3.4414-9.1e-4 -5.125 0-0.76857 4.1e-4 -1.4215 0.29163-1.9395 0.83789-1.493 1.5747-3.3708 3.5116-4.5352 4.7148-0.60592-1.3231-1.3435-2.8802-1.832-4.1895-0.04618-0.12377-0.11316-0.3306-0.29883-0.60547-0.18567-0.27486-0.64248-0.75529-1.3535-0.75781-7.9192-0.028-17.169 0.0192-25.59 0zm95.945 0c-0.5712-5e-3 -0.93105 0.20125-1.248 0.47266-0.317 0.27141-0.65465 0.68134-0.65039 1.3613 0.0143 2.2852-0.13477 7.2031-0.13477 7.2031l0.38672-0.89453c-0.25072 0.25112-0.39006 0.59243-0.38672 0.94727l0.041 4.3906 0.041 4.3496v6e-3c2e-5 2e-3 2e-3 4e-3 2e-3 6e-3 0.0121 1.0989 0.29557 2.1762 0.82617 3.168 8e-3 0.0151 0.0153 0.0301 0.0234 0.0449 0.5529 0.9431 1.2859 1.7791 2.1699 2.4902l0.64162 0.47177c0.78926 0.55334 1.5207 0.88529 2.4912 1.2138 1.1898 0.40263 2.4496 0.60156 3.7578 0.60156h14.635c0.41466 0 1.0088-0.1505 1.3984-0.61328 0.22199-0.26364 0.18097-0.52387 0.22852-0.79687l0.2207 0.45898c0.0894 0.15773 0.0757 0.33083 0.22071 0.46289 0.40087 0.36513 0.92259 0.48828 1.334 0.48828h5.166c0.41131-2.1e-4 0.99188-0.12301 1.4043-0.58984s0.46392-1.0519 0.41602-1.459l8e-3 0.15429v0.17383l1.709-6.3398c9e-3 -0.0374 0.0173-0.0752 0.0234-0.11328 0.1274 0.0798 0.26092 0.13179 0.39063 0.20312l-0.58008 1.9844-0.375 1.2793 0.42383-0.64453c-0.49211 0.4085-0.66359 1.1512-0.59961 1.6406l0.25 1.9023v-0.0859c-4e-4 0.0575 3e-3 0.11486 0.01 0.17188 0.0532 0.40664 0.23842 0.89866 0.63672 1.25 0.39831 0.35133 0.91283 0.47265 1.3242 0.47265h20.293c0.94417 0 1.828-0.14724 2.6582-0.41406 0.24365-0.0475 0.46903-0.16253 0.65039-0.33203l-0.0371 0.0352c0.64762-0.29825 0.67991-0.32663 0.98717-0.54242 0.35894-0.25207 0.70285-0.53594 0.98744-0.86969 0.45717-0.53615 0.90616-1.1138 1.1289-1.7871l-0.0684 0.16797 3.25-6.6309c0.0828-0.16872 0.12879-0.35315 0.13477-0.54102l0.0644-2.0117c7e-4 -0.0424-6.4e-4 -0.0847-4e-3 -0.12695h3.0664l2.9688 11.488c0.0976 0.3777 0.30079 0.79769 0.67383 1.1113s0.87272 0.45256 1.2871 0.45312h5.2071c0.14126 0 0.30216 0.0151 0.45271-0.0307 0.4155-0.0153 0.74729-0.39951 0.98479-0.74079l4.1602-6.4902c0.0839-0.13102 0.14411-0.27581 0.17774-0.42773l0.0957-0.42969c0.0464-0.21254 0.0397-0.43325-0.0195-0.64258l-1.1992-4.291h1.5606c0.53419 0 0.86125-0.27649 1.0195-0.44141 0.15828-0.16491 0.21885-0.28883 0.2793-0.39258 0.14064-0.24137 0.15845-0.2977 0.36905-0.6348l4.2715-6.8379c0.20883-0.33541 0.25683-0.74661 0.13086-1.1211 0 0-0.44194-1.3277-0.58984-1.873-0.14196-0.52328-0.443-0.8483-0.76758-1.082-0.32458-0.23374-0.69992-0.3988-1.2012-0.39649-7.5266 0.0347-25.58 0-25.58 0-0.37306-7.9e-4 -0.72912 0.15596-0.98047 0.43164l-0.37891 0.41407c-0.0125-0.0206-0.0255-0.0408-0.0391-0.0606l-0.63867-0.50195c-0.23329-0.18353-0.52153-0.28328-0.81836-0.28321 0 0-13.431-3e-3 -20.211 0-0.94406 3.4e-4 -1.9025 0.14597-2.8164 0.45703-0.77599 0.26414-1.5873 0.6435-2.3008 1.2578-0.63012 0.54253-1.1091 1.2091-1.4492 1.916-0.2726 0.5666-0.39287 1.3059-0.59961 1.9844-0.20792-1.7358-0.29223-2.65-0.4668-3.9648-0.0809-0.60993-0.41209-0.97741-0.73437-1.2246-0.32229-0.24719-0.67835-0.41626-1.1816-0.42578-1.533-0.029-3.3245-0.0407-5.1875 0-0.58928 0.0122-0.98261 0.29056-1.248 0.56055s-0.44778 0.56515-0.53906 0.98242c-0.58522 2.6754-1.3789 7.3106-1.3789 7.3106-0.0122 0.0742-0.0181 0.14938-0.0176 0.22461-3e-5 0.0424 2e-3 0.0848 6e-3 0.12695l0.13867 1.4356 0.26953 2.7852c-0.72264 3e-5 -8.7104 3e-4 -13.086 0-0.62874-4e-5 -1.4158-0.30915-1.8496-0.72461-0.43004-0.41184-0.76773-1.1631-0.77735-1.7226-0.052-3.0244-0.14135-6.39-0.28125-9.2188-0.032-0.648-0.35952-1.0365-0.67773-1.3008-0.31821-0.26426-0.68357-0.46214-1.2383-0.45899-1.5142 9e-3 -3.2797 0.0171-5.1133 0h-2e-3zm-95.551 2.6445c8.1091 0.0165 16.886-0.0232 24.525 0 0.86412 2.208 2.5371 5.8125 2.5371 5.8125 0.39288 0.83885 1.5039 1.0247 2.1484 0.35938 0 0 3.9534-4.0799 5.9238-6.1582-0.028 0.0295 0.07798-0.0137 0.02148-0.0137 1.6068-8.7e-4 3.301 0.011 4.9551 0 3.2924 5.2842 9.3719 15.272 9.4844 15.457l1.5391 5.0859h-4.8223l-2.0879-3.5156c-0.238-0.40153-0.66996-0.64794-1.1367-0.64844l-17.301-6.6506c0.80519-0.84053 0.21084-2.2363-0.95312-2.2383h-6.3906c-0.6028-3.4e-4 -1.1296 0.40682-1.2812 0.99023l-3.1191 12.062h-3.6875c-0.10992-0.0417-0.19493-0.0685-0.26758-0.0898-0.07974-0.0235-0.10833-0.0353-0.17578-0.0566l-3.7246-5.8281 1.5117-5.4004c0.23471-0.84348-0.39986-1.6782-1.2754-1.6777l-6.7168-6.5469c0.10038-0.33597 0.17843-0.59406 0.29297-0.94336zm55.43 0c6.4191-0.0463 12.667-0.0543 19.156 0 0.83074 7e-3 1.6545 0.12086 2.3906 0.36133 0.6816 0.22267 1.3215 0.54037 1.8203 0.93945 0.49086 0.39272 0.9041 0.86261 1.1348 1.3242 0.17721 0.35464 0.25426 0.98102 0.375 1.7891 0.73236 6.064 2.0314 9.6605-5.5117 10.973h-13.898c-0.67558 5.2e-4 -1.2422 0.50993-1.3145 1.1816l-0.42578 3.9746h-3.8906l-1.7129-5.8652c0.04591-0.35154 1.2587-9.6641 1.877-14.678zm40.852 0c1.3074 7e-3 2.5481 8e-3 3.6816 2e-3 0.11909 2.6315 0.2085 5.6225 0.25586 8.3789 0.0237 1.3783 0.62212 2.6592 1.5918 3.5879 0.99717 0.95497 2.3271 1.4589 3.6797 1.459 4.3517 2.9e-4 12.21 2e-5 13.014 0l0.11328 1.2793-1.1875 5.8359h-13.918c-1.042 0-2.0052-0.15665-2.9102-0.46289-0.91419-0.30942-3.4652-2.3407-3.8477-2.9864-0.33763-0.63886-0.50104-1.2606-0.50781-1.9297-8.5e-4 -0.10405-0.014-0.20763-0.0391-0.3086l0.0371 0.14844-0.0391-4.1934-0.0371-3.834-0.39258 0.39257c0.23848-0.2386 0.37682-0.55928 0.38672-0.89648 0 0 0.10301-3.9161 0.11914-6.4727zm25.762 0c1.3658-0.0208 2.6726-0.0183 3.8594 0 0.67371 5.2068 1.6945 14.373 1.7285 14.682l-1.5781 5.8613h-3.877l-1.2363-12.801-0.1211-1.2441c0.0313-0.18197 0.69549-3.9546 1.2246-6.498zm14.039 0h2e-3c6.5979-3e-3 18.995 2e-3 19.674 2e-3l0.2168 0.99218-1.7695 4.0801c-0.34309 0.79327 0.15412 1.6971 1.0078 1.832l-0.0215-2e-3 0.0644 0.0293c0.67478 0.31993 1.4804 0.0183 1.7793-0.66602l2.7363-6.2656c0.83282 2e-3 16.942 0.0311 24.521 0 0.12764 0.41756 0.20414 0.66143 0.29688 0.9414l-6.6783 6.5472c-0.87472 7.8e-4 -1.5079 0.83503-1.2734 1.6777l1.5645 5.5957-7.9121 5.7793-3.1191-12.062c-0.15164-0.58341-0.67845-0.99057-1.2812-0.99023h-6.0859c-0.97427 6.7e-4 -1.6137 1.0185-1.1914 1.8965l0.53711 1.1152-0.0449 1.4023c-5.8424 11.916-14.269 8.6389-26.762 8.6389l-0.1582-1.2188c0.0229-0.0322 0.0444-0.0654 0.0644-0.0996l0.375-1.2793 0.88281-3.0215c0.1892-0.64613-0.13699-1.3313-0.75781-1.5918-0.45678-0.19108-0.85532-0.39284-1.1777-0.60742-0.47051-0.3548-0.8495-0.74201-1.1484-1.1738-0.28039-0.40503-0.42525-0.79039-0.47852-1.209-0.0571-0.44931-6e-3 -0.78487 0.13672-1.1074 0.0746-0.16855 0.11321-0.35083 0.11328-0.53516l-0.0156 0.20508s0.18671-1.1961 0.50391-2.6641 0.79624-3.2333 1.2168-4.1074c0.19767-0.41087 0.48112-0.78982 0.79102-1.0566 0.35784-0.30811 0.8654-0.56836 1.4277-0.75977 0.61404-0.209 1.293-0.31617 1.9629-0.31641zm-116.61 10.135h2.2578l-3.0879 3.209zm74.145 5.1602c3e-3 0.0669 0.0119 0.13355 0.0254 0.19921l2e-3 4e-3zm28.232 5.0527 0.19921 0.19531h-0.10546c-0.0258-0.0676-0.0572-0.13288-0.0937-0.19531zm32.809 2.4531-0.0117 2e-3h6e-3c2e-3 -6.6e-4 4e-3 -1e-3 6e-3 -2e-3zm-155.05-24.123c-0.29486-6.7e-4 -0.62045 0.22781-0.72812 0.5023-0.2148 0.54759-0.61236 1.9477-0.61236 1.9477l8.1623 7.6843-1.6702 5.9697 4.1615 6.5102v5.1e-4c-0.10676 0.38162 2.1145 0.57258 0.37259 0.57258h5.2059c0.13664 0 0.27424-0.0546 0.41186-0.16381 0.16482-0.10915 0.26832-0.24534 0.31058-0.40877l3.2272-12.48h6.3908l-5.8673 6.0988 0.14728 0.47284 6.5934 6.4813c0.35527 0 0.68917-0.15008 1.001-0.4501l3.5243-3.713h12.854l2.204 3.713c0.06044 0.13629 0.16623 0.24521 0.31729 0.32711l0.51366 0.12299h6.395c0.13664 0 0.23787-0.0411 0.30334-0.12299 0.06544-0.0819 0.05241-0.19082-0.03876-0.32711l-1.9684-6.504s-6.4021-10.52-9.7007-15.808c-0.08297-0.133-0.21546-0.23662-0.3545-0.30902-0.14278-0.0743-0.30774-0.11754-0.46871-0.11628-1.6987 0.0133-3.4585-9.1e-4 -5.1341 0-0.35604 1.9e-4 -0.73482 0.16693-0.97978 0.4253-1.9571 2.0643-5.9154 6.1485-5.9154 6.1485s-1.9034-4.0652-2.652-6.0715c-0.07608-0.20389-0.19941-0.50153-0.41703-0.5023-7.9103-0.028-17.161 0.0192-25.589 0zm55.233 0c-0.26977 2e-3 -0.60194 0.23451-0.63459 0.5023-0.59103 4.8488-1.9957 15.602-1.9957 15.602l1.9022 6.5102v5.1e-4c-0.04881 0.38162 0.11814 0.57258 0.50074 0.57258h5.1651c0.3826 0 0.59437-0.19096 0.6351-0.57258v-5.1e-4l0.48886-4.5832h13.898c0.99367 0 1.9275-0.14487 2.8009-0.4346h5.17e-4c0.86956-0.28851 3.4919-2.2589 3.8892-2.931 0-9.1925 2.381 5.9408 0.12971-9.1256-0.11042-0.73897-0.16677-1.5165-0.50074-2.1849-0.34432-0.68907-0.88988-1.284-1.4914-1.7653-0.65624-0.52502-1.4372-0.90381-2.236-1.1648-0.89424-0.29214-1.8493-0.41744-2.79-0.4253-6.6948-0.056-13.13-0.05-19.762 4.2e-4zm40.705 0c-0.2522-2e-3 -0.56743 0.25009-0.56585 0.5023 0.0147 2.3524-0.13385 7.2528-0.13385 7.2528l-5.1e-4 5.1e-4 0.0413 4.3899 0.0408 4.3496 1e-3 4e-3c9e-3 0.88913 0.23137 1.7444 0.67024 2.5647 1.0131 1.7871 2.718 2.8663 4.5842 3.592 1.0474 0.35443 2.1596 0.53175 3.3347 0.53175h14.634c0.35527 0 0.51604-0.19096 0.48214-0.57258v-2e-3l1.3234-6.5086-0.185-2.0867-0.60565-0.59118s-9.1004 3.1e-4 -13.672 0c-0.99068-7e-5 -2.0487-0.40671-2.7642-1.0919-0.69986-0.67025-1.1672-1.6862-1.1839-2.6551-0.0518-3.0147-0.14239-6.3716-0.28112-9.1767-0.0127-0.25696-0.32874-0.50376-0.58601-0.5023-1.5157 9e-3 -3.2887 0.0168-5.1339-3.7e-4zm25.833 0c-0.2414 5e-3 -0.47033 0.26642-0.52193 0.5023-0.57006 2.6061-1.3668 7.2528-1.3668 7.2528v5.1e-4l0.13849 1.4351 1.2966 13.423 5.2e-4 5.1e-4c0.0369 0.38162 0.2463 0.57258 0.6289 0.57258h5.1656c0.38218-2e-4 0.55079-0.19115 0.50591-0.57258v-5.1e-4l1.7539-6.5102s-1.1541-10.457-1.8371-15.602c-0.0353-0.26622-0.36142-0.49722-0.62993-0.5023-1.5207-0.0288-3.2944-0.0402-5.1341 0zm14.709 0c-0.807 2.9e-4 -1.6261 0.126-2.39 0.38603-0.66916 0.22777-1.3294 0.54803-1.865 1.0092-0.47001 0.40468-0.8499 0.92783-1.1188 1.4867-1.0653 2.2142-1.8361 7.1391-1.8361 7.1391v0.00103c-0.24307 0.55025-0.32368 1.1529-0.2403 1.8087v5.1e-4c0.0806 0.63338 0.31475 1.2316 0.70383 1.7937 0.39072 0.56439 0.88072 1.0662 1.4702 1.5053 0.4309 0.29073 0.91866 0.52971 1.4325 0.74465l-0.88419 3.02-0.37465 1.28c-0.11083 0.092-0.16026 0.23821-0.13229 0.45217l0.25993 1.987v5.1e-4c0.0499 0.38162 0.26646 0.57258 0.64906 0.57258 13.369 0.262 22.737 3.2814 28.662-9.6339l0.0651-2.0118-0.67799-1.4072h6.0854l3.2267 12.48c0.0985 0.38115 0.32606 0.5721 0.68058 0.57258h5.2e-4l9.6888-6.6528 0.0951-0.43047-1.6702-5.9697 8.121-7.6843s-0.43618-1.3-0.61184-1.9477c-0.0743-0.27387-0.40354-0.50361-0.6873-0.5023-7.5404 0.0348-25.589 0-25.589 0l-0.45734 0.5023-2.8654 6.5583-0.23668-0.11214-0.16795-0.0264 1.9394-4.4721-0.4253-1.9477-0.63872-0.5023s-13.432-3e-3 -20.211-1.1e-4z"
       stroke-linejoin="round"
       id="logo-shadow" />
    <path class="logo-face" d="m63.665 149.5c0.09573 0.1431 0.10928 0.25769 0.04057 0.34368-0.06874 0.086-0.17486 0.12908-0.31834 0.12908h-6.7146c-0.17217 0-0.35199-0.043-0.53939-0.12908-0.15862-0.086-0.26964-0.20058-0.3331-0.34368l-2.3145-3.8987h-13.496l-3.7008 3.8987c-0.32739 0.31502-0.67785 0.47276-1.0509 0.47276h-3.2712c-0.37304 0-0.42208-0.15774-0.14754-0.47276l15.209-15.808c0.29997-0.2834 0.62631-0.42489 0.97944-0.42489h5.134c0.16298 0 0.31926 0.0385 0.46888 0.11576 0.17688 0.0772 0.29504 0.18024 0.35444 0.30913zm-20.652-7.0878h8.6106l-3.2695-5.5932zm44.436-9.1452c1.0051 0 1.9348 0.14149 2.7903 0.42489 0.85718 0.28394 1.6024 0.67202 2.236 1.165 0.63568 0.49464 1.133 1.0826 1.4915 1.7648 0.36018 0.68537 0.52746 1.4137 0.50045 2.1856-0.02709 0.77584-0.24766 1.5152-0.66294 2.2177-0.4172 0.70567-0.97253 1.319-1.6663 1.8388-0.69616 0.52161-1.5021 0.93467-2.4173 1.2383-0.91707 0.30422-1.898 0.45655-2.9413 0.45655h-14.593l-0.5137 4.8127c-0.04277 0.4007-0.26506 0.60144-0.66679 0.60144h-5.4234c-0.40173 0-0.57692-0.20074-0.52566-0.60144l1.9957-15.602c0.04285-0.33504 0.25439-0.50227 0.63469-0.50227zm-2.4912 8.124c0.72562 0 1.3694-0.25765 1.9299-0.77163 0.55862-0.51226 0.85715-1.1166 0.89686-1.812 0.04104-0.71878-0.18663-1.3152-0.68171-1.7906-0.4919-0.50018-1.0939-0.74964-1.8074-0.74964h-12.224l-0.54691 5.1239zm47.055 5.3023c0.36913 0 0.57118 0.1968 0.60624 0.59116l0.18551 2.087c0.0356 0.4007-0.13306 0.60144-0.50609 0.60144h-15.366c-1.2339 0-2.4017-0.18641-3.5015-0.55856-1.0971-0.37127-2.0517-0.88387-2.8631-1.5364-0.80798-0.64982-1.4578-1.3952-1.9499-2.2346-0.46154-0.8627-0.69577-1.762-0.70459-2.6972l-0.0865-9.1768c-3e-3 -0.33504 0.1854-0.50227 0.5657-0.50227h5.134c0.3803 0 0.57556 0.16723 0.58582 0.50227l0.28082 9.1768c0.032 1.0456 0.42607 1.9316 1.1847 2.6553 0.76224 0.72709 1.6842 1.0919 2.7632 1.0919zm7.3464-13.426c0.3803 0 0.59014 0.16723 0.62959 0.50227l1.8373 15.602c0.0472 0.4007-0.13004 0.60144-0.53177 0.60144h-5.4234c-0.40173 0-0.62199-0.20074-0.66069-0.60144l-1.507-15.602c-0.0323-0.33504 0.14162-0.50227 0.52192-0.50227zm26.495 6.5443c0.88843 0 1.7491 0.13437 2.5831 0.40348 0.82976 0.24259 1.5726 0.5937 2.229 1.0541 0.68039 0.43456 1.2578 0.96587 1.7321 1.5949 0.47021 0.60413 0.78255 1.2521 0.93613 1.9444 0.15428 0.69548 0.13296 1.3661-0.0651 2.0115-0.20506 0.61988-0.55471 1.1714-1.0495 1.6538-0.47379 0.4554-1.0817 0.8264-1.8236 1.1124-0.74923 0.25782-1.5834 0.3869-2.5017 0.3869h-21.306c-0.40173 0-0.62886-0.20074-0.68129-0.60144l-0.27302-2.087c-0.0515-0.39436 0.12142-0.59116 0.51895-0.59116h18.868c0.53949 0 0.95787-0.18252 1.2546-0.54692 0.29604-0.36354 0.39087-0.80982 0.28531-1.3381-0.1052-0.52646-0.37639-0.96841-0.81305-1.3266-0.43565-0.35732-0.91957-0.53566-1.4525-0.53566h-13.927c-0.89764 0-1.7567-0.12334-2.5763-0.36973-0.82201-0.27332-1.5557-0.62789-2.2008-1.0632-0.61895-0.46111-1.1334-0.98831-1.5437-1.5809-0.40865-0.5903-0.6548-1.2183-0.73936-1.8836-0.0876-0.68873-3e-3 -1.3217 0.25224-1.8996 0.25438-0.57567 0.62733-1.0711 1.1186-1.487 0.51361-0.44061 1.1351-0.77667 1.8648-1.0089 0.72488-0.2576 1.5215-0.38622 2.3907-0.38622h20.21c0.35313 0 0.56617 0.16723 0.63925 0.50227l0.42487 1.9478c0.0799 0.36643-0.0584 0.54999-0.4151 0.54999h-18.233c-0.52133 0-0.93438 0.17063-1.2397 0.5125-0.30597 0.34266-0.42173 0.76545-0.34656 1.2691 0.0714 0.47868 0.31308 0.89209 0.72547 1.2397 0.41334 0.3484 0.88413 0.52291 1.4116 0.52291zm31.731-6.5443c0.35313 0 0.58222 0.16723 0.68745 0.50227l0.61179 1.9478c0.11508 0.36643-5e-3 0.54999-0.36234 0.54999h-9.7545l3.6654 13.104c0.048 0.1716 0.0164 0.31475-0.095 0.42936-0.0827 0.1147-0.1959 0.17208-0.33937 0.17208h-5.4664c-0.37304 0-0.61145-0.20074-0.71505-0.60144l-3.388-13.104h-9.7545c-0.38414 0-0.61733-0.18356-0.69943-0.54999l-0.43637-1.9478c-0.0751-0.33504 0.0776-0.50227 0.45791-0.50227zm-159.54 0c0.35313 0 0.4922 0.16723 0.41708 0.50227l-0.43674 1.9478c-0.08216 0.36643-0.30167 0.54999-0.65838 0.54999h-9.7545l-3.3886 13.104c-0.04437 0.1716-0.15306 0.31475-0.32612 0.42936-0.1445 0.1147-0.28852 0.17208-0.432 0.17208h-5.4664c-0.37304 0-0.5034-0.20074-0.39129-0.60144l3.6661-13.104h-9.7545c-0.38414 0-0.51853-0.18356-0.40338-0.54999l0.61214-1.9478c0.10529-0.33504 0.348-0.50227 0.72829-0.50227z"
       id="logo-face" />
    <path class="logo-highlight" fill="url(#highlight-gradient)" d="m20.284 143.55-1.5162 5.4183h4.516l1.4015-5.4183zm18.667 0-5.2121 5.4183h1.4976c0.0885 0 0.16408-0.011 0.35192-0.19172l3.9667-4.1817h14.506l2.5916 4.3672c0.0016 1.4e-4 0.02012 6e-3 0.01964 6e-3h5.4782l-3.3243-5.4183zm27.869 0-0.69298 5.4183h4.5723l0.57826-5.4162zm42.182 0c0.077 0.54309 0.21752 1.0755 0.49764 1.6035 0.42617 0.72181 0.98651 1.3667 1.7012 1.9415 0.71204 0.57265 1.5552 1.0298 2.5528 1.3674 0.99107 0.33536 2.046 0.50591 3.1781 0.50591h14.822l-0.1111-1.2619h-13.303c-1.327 0-2.5106-0.46608-3.4592-1.371-0.80902-0.77174-1.2754-1.7158-1.4278-2.7854zm26.662 0 0.524 5.4183h4.5723l-0.63769-5.4183zm31.471 0c0.19802 0.32111 0.33881 0.67572 0.41651 1.0645 0.15673 0.78431 0.0152 1.5506-0.49248 2.174-0.50829 0.62415-1.2339 0.91777-2.0371 0.91777h-18.313l0.16433 1.2619h21.021c0.81354 0 1.5267-0.11561 2.1523-0.32814 0.63463-0.24643 1.1178-0.54824 1.4743-0.89091 0.3815-0.37201 0.63134-0.7729 0.78548-1.2346 0.14301-0.47276 0.15976-0.94574 0.0403-1.4841-0.11502-0.51849-0.34705-1.0011-0.70849-1.4805zm18.219 0 1.4004 5.4183h4.5176l-1.5162-5.4183z"       
       id="logo-highlight" />
  </g>
</svg>
