<?xml version="1.0" encoding="UTF-8"?>
<!-- Created with Inkscape (http://www.inkscape.org/) -->
<svg width="755.53px" height="800px" version="1.1" viewBox="0 0 199.9 211.67" xmlns="http://www.w3.org/2000/svg">
 <path d="m27.423 211.5c-1.3186-0.20918-2.1669-0.51317-3.1367-1.1239l-0.86327-0.54371-0.7556-1.0264c-0.41559-0.56453-0.93033-1.4803-1.1438-2.0351l-0.38827-1.0087-0.0839-1.9429-0.0839-1.9429 0.20981-1.0107c0.11545-0.55588 0.48533-1.5614 0.82202-2.2344l0.61222-1.2237 1.5794-1.625 2.0159-0.94484h3.8765l2.0263 1.1114v-0.84711h3.5241v5.9909h-3.6838l-0.33843-0.76509-0.33845-0.76509-1.0679-0.76044h-1.3024l-0.5787 0.57871-0.5787 0.5787-0.21806 1.0504-0.21806 1.0504 0.0816 1.6933 0.0816 1.6933 0.39849 0.82315 0.39848 0.82317 0.50181 0.2595c0.67651 0.34983 1.2016 0.32559 1.8778-0.0866l0.56555-0.34484 0.35484-0.69555c0.1952-0.38255 0.40673-1.02 0.47013-1.4165 0.0635-0.39654 0.18288-0.72098 0.26543-0.72098 0.14509 0 3.721 1.3934 3.8167 1.4872 0.11629 0.11398-0.66764 2.2764-1.0813 2.9822-0.252 0.43-0.82438 1.1042-1.272 1.4982l-0.81381 0.71636-1.8906 0.70737-1.3712 0.0814c-0.75417 0.0449-1.7755 0.0167-2.2695-0.061zm97.457-0.0167c-1.8872-0.2948-3.3675-1.1123-4.648-2.5671-1.322-1.5018-1.9596-3.3789-1.9596-5.7688v-1.2758l0.26981-1.0358c0.14844-0.56971 0.51758-1.5007 0.8204-2.0688l0.5506-1.033 2.212-2.0692 1.025-0.39712 1.025-0.39709 3.3896-0.16 0.90042 0.19311c0.49522 0.10626 1.2787 0.36918 1.7411 0.58442l0.8407 0.39133 0.98234 0.97689 0.98232 0.97691 0.64742 1.3215 0.64741 1.3215 0.1808 1.3299 0.18079 1.3299-0.17808 1.2564c-0.70685 4.9839-4.619 7.8707-9.6099 7.0911zm2.2123-4.0525c0.18643-0.0998 0.47858-0.43678 0.64918-0.74887l0.31017-0.56743v-5.8147l-0.32071-0.6445-0.32071-0.64451-0.54043-0.22384-0.54042-0.22386-0.46037 0.25413-0.4604 0.25411-0.34284 0.70012-0.34286 0.70011-0.0104 2.381c-0.0104 2.7913 0.1096 3.5031 0.71793 4.2259l0.44914 0.5338h0.43643c0.24004 0 0.58898-0.0816 0.77543-0.18142zm14.656 4.0488c-1.2883-0.22925-2.0002-0.55672-2.8194-1.2968l-0.70322-0.63532-0.37213-0.86505c-0.53787-1.2503-0.71976-2.859-0.72371-6.4004l-4e-3 -3.1276h-1.0572v-4.0526h7.5767v4.0526h-0.7048l2.8e-4 3.5681 2.7e-4 3.5681 0.30808 0.61672 0.30808 0.6167 1.3003 0.1082 0.31898-0.48622 0.31897-0.4862 0.0566-3.7527 0.0566-3.7526h-0.72988v-4.0526h5.4623v4.0526h-1.0572v7l-0.17578 0.9491c-0.0967 0.52202-0.39585 1.3852-0.66472 1.9182l-0.48885 0.96911-0.84582 0.5679c-0.46519 0.31236-1.1374 0.64957-1.4938 0.74938-0.98094 0.27467-2.8268 0.35649-3.867 0.17139zm40.027-0.0666c-0.30077-0.1309-0.72762-0.49188-0.94851-0.80211l-0.40163-0.56405-0.0848-0.75186-0.0848-0.75187 0.30614-0.64513c0.16826-0.3548 0.54436-0.81476 0.83553-1.0221l0.52939-0.37695 0.82931-0.0798 0.82933-0.0797 0.51373 0.26716c0.28255 0.14697 0.71196 0.47933 0.95424 0.73862l0.44052 0.47146v2.41l-0.44052 0.47146c-0.89386 0.95664-2.1121 1.2223-3.278 0.7147zm2.2736-0.58466 0.5639-0.30793-1.09-0.1074-0.28284-0.56355-0.28284-0.56357 0.10105 0.57267 0.10104 0.57265h-1.544l-0.025-2.8192h1.0146c0.55801 0 1.2285 0.0812 1.4899 0.1808l0.4753 0.18079-0.10021 0.74436-0.10021 0.74434 0.23215 0.31355 0.23215 0.31353 0.10898-0.28391c0.18893-0.49235 0.11879-1.3108-0.15846-1.8466l-0.26728-0.51687-0.5543-0.28664-0.5543-0.28665-1.4404 0.1934-0.48085 0.53814c-0.89779 1.0047-0.85816 1.9682 0.12129 2.9476l0.58871 0.58868h1.2862zm-27.23 0.48486c-0.26514-0.0797-0.76071-0.31734-1.1013-0.52782l-0.61919-0.38267v0.90974h-3.3478v-5.2861h3.4858l0.1071 0.42692c0.0589 0.23483 0.30755 0.6651 0.55248 0.95616l0.4453 0.52925 0.53102 0.1167 0.531 0.1167 0.86668-0.56789v-0.88971l-0.42234-0.38803c-0.23229-0.21343-1.164-0.78451-2.0704-1.2691-0.90642-0.48457-1.997-1.1982-2.4236-1.5858l-0.77555-0.70482-0.41209-0.881-0.41208-0.88102-2e-3 -1.4221-2e-3 -1.4221 0.48455-0.95545 0.48457-0.95544 0.74517-0.56062 0.74518-0.56061 1.9274-0.4 1.0064 0.18602c0.55352 0.10229 1.2712 0.34229 1.5949 0.53327l0.58851 0.34722v-0.69292h3.3479v4.7575h-3.28l-0.31215-0.70747-0.31215-0.70749-0.50592-0.26163c-1.0138-0.52426-1.7568-0.24844-1.7568 0.65213v0.49085l0.66077 0.42154c0.3634 0.23184 1.4176 0.86038 2.3427 1.3967 1.9987 1.1587 2.7 1.8195 3.3119 3.1204l0.45589 0.96912-2e-3 1.3215-2e-3 1.3215-0.3599 0.79291c-0.51958 1.1448-1.1784 1.8478-2.2164 2.365l-0.91148 0.45419-1.2428-0.0146c-0.68359-8e-3 -1.4598-0.0804-1.725-0.16033zm-119.25-2.0271v-2.0263h1.2334v-8.1053h-1.2334v-4.0527h8.2815v4.0527h-1.2334v8.1053h1.2334v4.0526h-8.2815zm10.044 0v-2.0263h1.0572v-8.1053h-1.0572v-4.0527h9.4668l0.93622 0.17746c1.3189 0.25012 2.6545 0.90331 3.5671 1.7445l0.78136 0.72023 0.54785 1.0279c0.30131 0.56535 0.66926 1.494 0.81765 2.0637l0.26982 1.0358-2e-3 1.5048-2e-3 1.5048-0.23568 0.88102c-0.52559 1.9646-1.777 3.7589-3.2054 4.596l-0.74359 0.43578-2.4188 0.51244-4.8896 2e-3 -4.8896 4e-3zm8.735-2.2847 0.61833-0.25836 0.37369-0.84291 0.37372-0.8429 0.1604-2.4764-0.21369-1.0294-0.2137-1.0294-1.1417-1.2458-0.99814-0.0827-0.99814-0.0829v8.149h0.71046c0.39077 0 0.98872-0.11628 1.3288-0.25835zm9.5901 2.2847v-2.0263h1.0572v-8.1053h-1.0572v-4.0527h13.744v5.2861h-3.8764v-1.2334h-3.1716v2.2906h2.8192v3.3479h-2.8192v2.4668h3.1716v-1.2334h3.8764v5.2861h-13.744zm15.682 0v-2.0263h1.2334v-8.1053h-1.2334v-4.0527h10.984l1.0812 0.18831c1.3801 0.24034 2.3062 0.76352 3.0291 1.7113 0.91982 1.206 1.1994 2.9215 0.73084 4.4852l-0.20946 0.69917-1.5145 1.6845 0.89219 1.6947 0.89219 1.6947h1.0301v4.0618l-2.6756-0.0486-2.6756-0.0487-3.0183-6.429-1.6739-2e-3v2.4668h1.0572v4.0527h-7.9291zm9.5792-8.03 0.46428-0.36518v-1.3585l-0.46428-0.36519-0.46426-0.3652h-2.2431v2.8192h2.2431zm8.5696 8.03v-2.0263h1.0572v-8.1053h-1.2334v-4.0527h7.7529v4.0527h-0.88102v2.1144h3.1716v-2.1144h-0.881v-4.0527h7.7529v4.0527h-1.2334v8.1053h1.2334v4.0526h-7.7529v-4.0526h0.881v-2.4668h-3.1716v2.4668h0.88102v4.0526h-7.5767zm65.195 0v-2.0263h1.0572v-8.1053h-1.0572v-4.0527h13.92v5.2861h-4.0527v-1.2334h-2.9954v2.2906h2.8192v3.3479h-2.8192v2.4668h2.9954v-1.2334h4.0527v5.2861h-13.92zm-143.91-18.898 0.0919-2.2466 0.39225-1.2334c1.0612-3.3368 2.2612-4.8657 7.094-9.0379 1.0432-0.90059 2.1034-1.9498 2.356-2.3315l0.45929-0.69402 0.0864-0.76695 0.0864-0.76693-0.29153-0.56374-0.2915-0.56373-0.51678-0.10334c-0.63332-0.12673-0.59292-0.12673-1.2416 2e-3l-0.53167 0.10626-0.34125 0.75181-0.34123 0.75182-4e-3 0.83695-4e-3 0.83697-1.1012-6.5e-4c-0.60569-3.3e-4 -2.1226-0.0528-3.3709-0.1165l-2.2696-0.11565 0.0979-1.4253 0.0979-1.4253 0.37109-1.0572c0.20417-0.58148 0.64895-1.4366 0.98855-1.9003l0.61746-0.84309 0.93889-0.6006c0.51638-0.33033 1.4453-0.77647 2.0642-0.99139l1.1253-0.39082 4.4191-0.1586 1.1383 0.28696c0.62607 0.15782 1.6224 0.52281 2.2142 0.81112l1.0759 0.52417 0.93204 0.91748 0.93206 0.91745 0.54701 1.1544 0.54704 1.1544v4.0526l-1.1307 2.3871-0.93235 0.9309c-1.0031 1.0015-2.4763 2.0288-5.4621 3.8087-1.0377 0.6186-2.1837 1.4288-2.5466 1.8005l-0.65989 0.67578h5.3576v-1.9382h5.6385v1.2052c0 0.66284-0.0522 2.6451-0.11587 4.4051l-0.11587 3.1999h-18.492zm59.688 1.7084c-2.4466-0.6343-4.3323-1.8359-5.9887-3.816-1.0453-1.2496-1.6504-2.3442-2.2197-4.0154l-0.48021-1.4096-0.0798-2.4668-0.0797-2.4668 0.36171-1.5148c0.67259-2.8167 1.8231-4.8125 3.8389-6.6597l1.1885-1.089 1.2449-0.60848c0.68474-0.33465 1.7604-0.74409 2.3903-0.90983l1.1453-0.30138 4.5813 8e-3 1.4034 0.39389c0.7719 0.21664 1.8815 0.64713 2.4659 0.95667l1.0624 0.56282 1.1543 1.1453c1.4752 1.4638 2.3955 2.8753 3.1018 4.7575l0.56204 1.4977 0.21526 1.4818 0.21526 1.4818-0.10897 1.5136c-0.14823 2.0584-0.49902 3.3271-1.4632 5.2922l-0.81658 1.6642-3.0341 3.0322-1.09 0.56837c-0.59949 0.31261-1.7024 0.72499-2.451 0.91645l-1.361 0.34808-4.4368-0.0208zm4.7575-5.9637c0.24228-0.16514 0.61568-0.6529 0.82977-1.084l0.38927-0.78375 0.1833-1.4931c0.33248-2.7069 0.16471-6.3382-0.37602-8.1433l-0.21344-0.7124-0.50144-0.50143-0.50144-0.50144-1.2256-0.23006-0.53638 0.22217c-0.29503 0.12212-0.73213 0.4788-0.97136 0.79246l-0.43497 0.57024-0.27375 1.2981-0.27378 1.2981 0.0714 3.436 0.0716 3.4359 0.3948 1.0091 0.39478 1.0091 0.47342 0.33589c0.84208 0.59747 1.6646 0.61137 2.4998 0.0422zm64.078 5.6649c-0.46094-0.73198-7.6069-12.291-8.1996-13.263l-0.37377-0.61311-6.5e-4 4.0967-6.6e-4 4.0967h1.9382v5.9909h-9.1625v-5.9909h1.762v-12.687h-1.762v-6.1671l10.484 4e-3 3.85 6.2536c2.1175 3.4395 3.8818 6.2536 3.9205 6.2536 0.0388 0 0.0703-1.4272 0.0703-3.1716v-3.1716h-1.762v-6.1671h8.9863v6.1671h-1.9382v19.03h-7.3961zm20.187 0.39875c-1.0031-0.28211-1.7867-0.64551-2.5514-1.1833l-0.48457-0.34073v1.4336h-5.1099v-8.1147l5.169 0.0976 0.25353 0.76118 0.25353 0.76121 1.2839 1.346 1.3627 0.37452 1.0268-0.20542 0.34701-0.44117 0.34704-0.44115v-0.99743l-1.0339-1.1775-2.2583-1.2048c-3.8885-2.0745-5.1805-3.1524-6.1476-5.1291l-0.45703-0.93417-0.1929-1.2466-0.19291-1.2466 0.21076-1.3555 0.21075-1.3556 0.42333-0.92472 0.42334-0.92469 0.79157-0.79156c0.95638-0.95639 2.1368-1.5787 3.5477-1.8702l1.0514-0.21722 1.1222 0.11502c1.3321 0.13654 2.6445 0.60526 3.4812 1.2434l0.6063 0.46244v-1.4276h5.1099v7.2243l-5.0218-0.0013-0.5286-1.0014c-0.58678-1.1116-1.1375-1.5972-2.04-1.7986l-0.60307-0.13466-0.52841 0.1428c-0.67307 0.18184-0.96931 0.59054-0.96931 1.3372v0.59144l0.4232 0.38803c0.23275 0.21343 1.673 1.1017 3.2006 1.9739 1.5276 0.87221 3.1935 1.8825 3.702 2.2452l0.92459 0.65933 0.70862 1.0612c0.38975 0.58366 0.87877 1.5159 1.0867 2.0716l0.37803 1.0104 0.099 1.1802 0.099 1.1802-0.21654 1.1106-0.21655 1.1106-1.0701 2.0169-1.8932 1.7905-1.9966 0.91405-3.2024 0.1232zm-66.616-5.5086c-0.99758-3.0769-2.3788-7.319-3.0695-9.4268l-1.2557-3.8324h-1.5182v-6.1671h11.453v6.1671h-1.4096v0.18016c0 0.0992 0.51538 2.3115 1.1453 4.9163 0.62991 2.6048 1.1494 4.8033 1.1544 4.8856 4e-3 0.0822 0.66601-1.9517 1.469-4.5198 0.80294-2.5682 1.5178-4.8478 1.5886-5.0658l0.12881-0.39645h-1.6096v-6.1671h9.6911v6.1671h-0.7048c-0.38764 0-0.70482 0.0532-0.70482 0.11816 0 0.0649 0.69285 2.3402 1.5397 5.0561l1.5397 4.9379 1.1846-4.8358c0.65152-2.6597 1.1877-4.9349 1.1915-5.0561l6e-3 -0.22025h-1.4096v-6.1671h8.9863v6.1671h-1.5184l-6.1656 18.766-7.0627 0.0952-1.3913-4.4893c-0.76521-2.4691-1.4391-4.4332-1.4975-4.3646-0.0585 0.0687-0.36296 0.95728-0.67678 1.9749-0.3138 1.0176-0.92711 2.98-1.3629 4.361l-0.79233 2.5109h-7.1157zm-49.894 2.4228v-2.9955h1.762v-12.687h-2.2906v4.4051h-4.2288v-10.572h21.849v10.572h-4.2289v-4.4051h-2.4668v12.687h1.9382v5.9909h-12.334zm-37.046-27.708c-8.234-13.318-13.338-27.795-15.267-43.306-0.4515-3.6293-0.67977-6.6951-0.82623-11.097l-0.11441-3.4359 0.20083-3.9646c0.53539-10.572 2.2609-19.951 5.4128-29.421 10.756-32.316 36.209-57.25 67.726-66.345 7.1077-2.0511 13.664-3.1579 21.498-3.6293l3.4359-0.20668 3.9646 0.10919c10.159 0.27956 19.121 1.8408 28.457 4.9575 27.778 9.2732 50.807 31.615 61.847 60 4.1284 10.615 6.4669 21.616 7.1541 33.653l0.20626 3.6121-0.10688 4.4932c-0.11566 4.8584-0.27896 7.1244-0.83812 11.629-1.8704 15.069-7.1966 30.098-15.207 42.909l-1.65 2.6389-164.23 0.0886zm14.481-3.9243c16.89-1.3209 32.907-4.8303 43.025-9.4268 4.5899-2.0851 7.8094-4.1843 10.745-7.0058l1.8845-1.8114 0.91263-1.3201c0.50194-0.7261 1.2223-1.981 1.6008-2.7886l0.68815-1.4685 0.35455-1.479 0.35454-1.479 6.5e-4 -2.1144 6.6e-4 -2.1144-0.26908-1.6592c-1.2169-7.502-6.2627-12.696-14.327-14.746-2.1704-0.55194-5.9836-1.1003-8.5906-1.2354l-2.0975-0.10877-3.4368 0.1952c-1.8902 0.10751-4.9771 0.39628-6.8596 0.64193l-3.4229 0.44668-3.7125 0.80263c-4.1314 0.89319-5.4512 1.2278-8.3188 2.1091l-1.9632 0.60336-0.85601 0.71423c-1.0798 0.90094-2.9905 1.8338-4.4708 2.1826l-1.1426 0.26931-3.9415 4e-3 -1.2036-0.2532c-2.3777-0.50014-4.8703-1.5588-7.1862-3.0521-1.4186-0.91475-4.8484-3.5594-4.8484-3.7384 0-0.0664 1.2488-0.38194 2.7752-0.70114 2.4059-0.50318 6.4864-1.5399 12.29-3.1226l1.5858-0.43246 2.643 0.1408 0.70914 0.3649c1.2245 0.63012 3.0792 2.9196 3.0792 3.8011v0.24524l-1.1894 0.5399c-1.5359 0.69715-4.3154 1.5735-5.4816 1.7282-0.50254 0.0666-0.95625 0.18998-1.0083 0.2742l-0.0946 0.15302 0.58304-6.1e-4c0.32069-3.3e-4 1.4949-0.0831 2.6094-0.18372l2.0263-0.18309 3.1845-0.78102c3.7393-0.91705 6.5935-1.8458 10.119-3.2925 1.4052-0.57668 2.779-1.1315 3.0528-1.233l0.49791-0.18455-0.14551-0.13758c-0.08-0.0756-2.6035-1.0112-5.6078-2.079l-5.4622-1.9414-2.5549 0.0146-2.5549 0.0125-1.4977-0.39048c-5.81-1.5148-10.807-6.535-14.187-14.254-0.82759-1.8897-2.6082-6.909-2.4922-7.025 0.1025-0.1025 11.671 4.1651 16.752 6.1796l4.7089 1.8672 0.7411 0.50989c0.4076 0.28044 1.0826 0.88037 1.5 1.3332l0.75889 0.8233 0.63018 1.327 0.63021 1.327 0.0816 1.2726 0.0816 1.2726-0.28993 0.56068-0.28996 0.56067-0.74432-9.7e-4c-0.40939-6.5e-4 -1.5246-0.11858-2.4784-0.26243l-1.734-0.26135-1.8202-0.6091c-1.0011-0.33499-2.31-0.85632-2.9086-1.1585-1.4776-0.74587-1.1938-0.4085 0.74997 0.89166 6.3227 4.2292 16.132 7.0181 27.005 7.6777l1.762 0.10689 2.2977-0.28461 2.2977-0.28459h2.6389c2.971 0 7.6058 0.26388 9.5929 0.54615 1.4842 0.21086 5.8901 0.99837 6.4314 1.1496l0.3524 0.0985-17.273-17.212-1.7985-1.4448c-1.6422-1.3192-5.9918-4.4678-8.8688-6.42l-1.1573-0.78523-3.3239-0.44221-1.5395-0.51558c-9.1994-3.081-14.88-12.333-15.581-25.379l-0.11607-2.1604 0.24883 0.15178c0.13695 0.0835 1.1211 0.71505 2.1871 1.4035 2.7743 1.7918 4.2736 2.671 10.22 5.9932 2.9073 1.6243 5.986 3.4308 6.8416 4.0144 2.6561 1.8117 4.3499 3.733 5.1567 5.8492l0.33588 0.88102-0.0292 3.7002-0.69878 2.1144-0.52591-0.0401c-1.6727-0.12714-5.7069-1.9026-8.4038-3.6984-2.5001-1.6648-2.5161-1.6637-0.73789 0.048 1.7294 1.6648 6.0982 5.0201 9.1625 7.037 3.4873 2.2953 10.23 6.2168 10.399 6.048 0.0447-0.0447-0.28272-0.98749-0.72764-2.095l-0.80898-2.0136-2.9019-3.0118-0.63371-1.1371c-0.34854-0.62543-0.85566-1.7715-1.1269-2.5468l-0.49317-1.4096 0.012-5.6385 0.39222-1.5761c0.47845-1.9226 1.4162-4.3293 2.3609-6.0594l0.70564-1.2922 0.13695 0.14698c0.0754 0.0808 1.1101 2.0102 2.2993 4.2877 1.1892 2.2774 2.5117 4.7751 2.9388 5.5504 1.0554 1.9159 1.7294 3.5055 1.9896 4.6919l0.21747 0.99165-0.0804 1.4752-0.0804 1.4752-0.31591 0.61671c-0.40995 0.80032-0.94312 1.3784-1.574 1.7065l-0.50647 0.2634-0.22597-0.23609c-0.12422-0.12985-1.0353-1.5048-2.0244-3.0553-0.98912-1.5506-1.7419-2.621-1.6729-2.3787 0.0691 0.24227 0.41 1.3086 0.75777 2.3695l0.63227 1.929 1.1849 2.3879c2.0353 4.102 4.0519 6.7922 7.4281 9.9099 3.683 3.4009 6.1123 5.4212 10.263 8.5349 3.4998 2.6255 8.3838 6.1011 8.4627 6.0222 0.0407-0.0407-0.14196-1.2847-0.40563-2.7646l-0.47956-2.6906-2.7315-1.9006c-1.5023-1.0453-3.3075-2.3716-4.0116-2.9473-0.70402-0.57572-1.5762-1.1511-1.9382-1.2787-1.1505-0.40547-2.7319-1.4637-3.8331-2.5648-1.7876-1.7876-2.8888-3.9332-3.5343-6.8861l-0.30572-1.3986 9.7e-4 -2.7311 9.8e-4 -2.7311 0.30906-1.762c0.16993-0.96912 0.34806-1.8017 0.3957-1.8501 0.0476-0.0484 1.2486 1.1021 2.6688 2.5569 1.4202 1.4548 3.7385 3.7542 5.1517 5.1099l2.5695 2.4648 0.77188 1.5802 0.77185 1.5802 0.0608 1.5915 0.0607 1.5915-0.31864 0.61315c-0.17536 0.33722-0.52429 0.72711-0.77565 0.86645l-0.45699 0.25332-2.2577-1.3521-3.0805-3.0903 0.63837 1.0023c1.1121 1.7463 2.3057 3.1254 4.6341 5.3547l2.2634 2.1671 1.2633 0.67912c0.69482 0.37351 1.2999 0.64253 1.3446 0.59779 0.0447-0.0447 3.1e-4 -1.1432-0.0987-2.4411-0.54183-7.1028 0.10292-19.374 1.5776-30.024 0.37573-2.7135 0.93137-6.7573 1.2348-8.9863 0.30336-2.229 0.8234-5.6329 1.1556-7.5643 0.33221-1.9314 0.582-3.5337 0.55509-3.5606-0.0269-0.0269-0.99511 3.1893-2.1516 7.1472l-2.1026 7.1962-0.18079-0.0779c-0.0994-0.0428-0.5099-0.4895-0.91208-0.9925-1.7258-2.1583-2.7582-4.5264-3.0751-7.0536l-0.17995-1.4359 0.19791-1.8382 0.19791-1.8382 0.66724-1.951c0.36697-1.0731 1.0777-2.9422 1.5794-4.1536 1.0193-2.4613 7.4649-15.197 7.7372-15.288l0.17433-0.058 0.79062 1.3736c1.2404 2.155 2.3409 4.4281 3.5525 7.3378 1.9593 4.7051 2.8209 7.8294 3.2875 11.92l0.211 1.8501-0.11169 2.1144-0.11169 2.1144-0.33203 1.5858c-0.18267 0.87218-0.57824 2.2221-0.8792 2.9998l-0.54716 1.414-0.92108 1.4053-0.92111 1.4053-1.2399 1.2369c-0.68194 0.68031-1.619 1.4732-2.0824 1.762l-0.84255 0.52509-0.43014 1.4096c-0.55353 1.814-1.2399 4.7705-1.4726 6.3433-0.26353 1.7812-0.44474 4.317-0.3085 4.317 0.23368 0 2.7021-1.3053 4.2487-2.2468 1.4595-0.88846 4.4932-3.1269 4.4932-3.3154 0-0.0445-0.30156 0.1096-0.67014 0.3423-1.3296 0.8393-3.1961 1.6893-4.3414 1.977l-1.1682 0.29345-0.12589-0.12589c-0.0693-0.0691-0.12568-0.89227-0.12568-1.8291l1.3e-4 -1.7033 0.39891-0.86521c0.98409-2.1344 2.4797-3.4876 5.8734-5.3141 5.547-2.9854 6.7257-3.6386 8.6877-4.8143 1.1536-0.69131 2.1301-1.2243 2.1701-1.1844 0.0399 0.0399-0.21756 1.3294-0.57217 2.8655-0.73023 3.1634-1.9531 6.9879-2.7202 8.5075l-0.5166 1.0234-0.81001 0.81c-2.021 2.021-8.2133 5.403-9.8925 5.403h-0.45664l-2.2963 1.2586-2.2963 1.2586 0.10564 3.4548 0.10563 3.4548 0.45259 3.0503c0.24891 1.6776 0.61361 3.8978 0.81042 4.9337 0.37026 1.9488 2.3537 9.9055 2.9981 12.027l0.36627 1.2059 1.9675-1.4322c1.0821-0.78771 2.5324-1.8478 3.2228-2.3558l1.2553-0.92361 0.11274-1.2926 0.11273-1.2926-0.16451-2.2906-0.1645-2.2906-0.5171-1.1453c-0.63417-1.4046-0.8924-2.4292-1.0321-4.095l-0.1073-1.2792 0.1977-1.2691c0.10877-0.69799 0.44096-1.9412 0.7382-2.7626l0.54046-1.4936 1.0797-1.6424 1.0797-1.6424 1.6834-1.6899c0.92584-0.92948 2.2384-2.1054 2.9168-2.6131l1.2334-0.92313 0.11544 2.9655c0.0635 1.631 0.25307 4.7495 0.42113 6.93l0.30557 3.9646-0.28707 1.4977-0.28708 1.4977-0.53588 1.0898-0.53589 1.0898-1.777 1.5977-0.58626 0.11002c-0.32244 0.0605-0.73294 0.0829-0.91221 0.0497l-0.32595-0.0603-0.4155-1.2334-0.41549-1.2334-0.10376-2.2906-0.10376-2.2906-0.21897 1.1453c-0.12046 0.62992-0.27284 2.0175-0.33869 3.0835l-0.11962 1.9382 0.20772 2.2906c0.20209 2.2278 0.41351 3.5453 0.59866 3.7304 0.27568 0.2757 8.5202-6.5609 11.496-9.5332l2.1292-2.1264 1.3488-1.816c2.5563-3.4417 4.3286-7.0032 5.4054-10.862 0.21501-0.77068 0.43091-1.5239 0.47974-1.6739 0.0488-0.14989-0.22607 0.32771-0.61093 1.0615-0.73462 1.4007-3.0802 4.9921-3.3824 5.1789-0.0969 0.0599-0.40698-0.0104-0.68902-0.15616-1.6858-0.87175-2.3365-3.3021-1.7021-6.3568l0.25614-1.2334 0.93193-1.8501c0.51257-1.0176 2.0738-4.0219 3.4694-6.6763l2.5375-4.8262 0.25769 0.33303c0.94772 1.2248 2.7802 5.9882 3.2124 8.3502l0.20956 1.1453-6e-3 1.9382-6e-3 1.9382-0.36381 1.4096c-0.20001 0.77528-0.68526 2.0637-1.0781 2.8631l-0.71428 1.4534-1.5333 1.6099-1.5333 1.6099-0.8196 2.0466c-0.45077 1.1256-0.79269 2.0746-0.75981 2.109 0.08 0.0835 3.863-2.0032 6.6012-3.641 5.4143-3.2385 11.103-7.4419 13.656-10.09l1.2334-1.2796-0.70482 0.53023c-3.2396 2.4371-7.3711 4.4846-10.232 5.0708l-0.54115 0.11086-0.21586-0.47378c-0.37714-0.82772-0.72286-2.5876-0.72555-3.6932l-2e-3 -1.0693 0.28394-0.95705c0.84419-2.8453 2.6184-4.7748 6.7636-7.356 0.983-0.6121 3.9122-2.2892 6.5094-3.7268 4.2835-2.3711 8.735-5.0225 10.727-6.3894 0.41869-0.28726 0.79739-0.48615 0.84156-0.44198 0.14447 0.14447-0.44478 5.8133-0.79181 7.6184-0.97945 5.0947-2.2323 8.3265-4.6002 11.867l-1.0872 1.6254-1.4406 1.4474c-2.4581 2.4696-5.3319 4.1782-8.6398 5.1368-0.85995 0.2492-2.1107 0.50396-2.7794 0.56611l-1.2158 0.11295-3.0343 2.0468c-6.3438 4.2792-7.601 5.3739-17.609 15.332-4.6243 4.6012-8.3845 8.389-8.3561 8.4174 0.0284 0.0284 0.79578-0.11065 1.7052-0.30923 2.4558-0.53599 5.7395-1.0031 8.7153-1.2399l2.643-0.21025 3.9646 0.11148c2.1805 0.0614 4.4799 0.19958 5.1099 0.3071l1.1453 0.19561 2.0263-0.11231c10.461-0.57948 20.574-3.4446 26.809-7.5959 2.0137-1.3406 2.3651-1.7217 0.91595-0.99344-2.264 1.1378-6.2194 2.2197-8.6031 2.3531l-1.053 0.0589-0.25438-0.52697c-0.13988-0.28983-0.29007-0.89841-0.3337-1.3524l-0.0793-0.82546 0.73494-2.4197 0.68102-1.0499c0.37455-0.57746 1.0245-1.3587 1.4443-1.7361l0.76332-0.68616 1.6012-0.74467c2.6482-1.2316 20.49-7.9498 20.661-7.7795 0.10793 0.10794-0.78411 2.833-1.6534 5.051-3.3186 8.4679-8.2208 14.035-14.027 15.931-1.6353 0.53382-2.7707 0.67541-5.6599 0.7058l-2.2999 0.0242-5.3301 1.9198c-2.9316 1.0559-5.3301 1.9747-5.3301 2.0418 0 0.19018 4.5545 2.0655 7.5767 3.1196 3.1365 1.0939 5.7448 1.7955 8.6277 2.3205l2.0201 0.36793 3.7127-0.025-1.8426-0.42618c-2.2166-0.51265-3.2362-0.83828-4.809-1.5358l-1.1894-0.52746v-0.24772c0-0.87534 1.6596-2.9468 2.9853-3.7262l0.80305-0.4721 3.3479 0.0208 4.255 1.1804c3.688 1.023 8.9106 2.283 11.03 2.661 0.36342 0.0647 0.66077 0.19019 0.66077 0.27848 0 0.0883-0.53522 0.59112-1.1894 1.1173-3.3087 2.6614-5.7779 4.0844-8.9676 5.1677l-1.9129 0.6497-4.6477 0.1532-1.3062-0.29061c-1.5879-0.35327-3.5721-1.28-4.752-2.2195l-0.87552-0.69709-1.8741-0.60121c-5.4794-1.7578-14.865-3.5476-20.849-3.9757-9.939-0.71119-18.084 0.86104-23.11 4.4609-1.9362 1.3868-4.1194 3.9211-5.1809 6.0142-0.67814 1.3371-1.4227 3.73-1.7271 5.5509l-0.30539 1.8263 0.0981 2.3904 0.0981 2.3904 0.47605 1.4977c0.58468 1.8394 1.2677 3.2214 2.4138 4.8843l0.87678 1.2721 3.7541 3.6228 1.8489 1.2535c2.7051 1.834 4.635 2.868 8.1922 4.3895 5.9713 2.5541 11.648 4.2383 20.175 5.9856 8.9236 1.8286 22.31 3.3761 27.924 3.2281l2.1108-0.0557 1.2027-2.0263c1.7647-2.9734 5.2172-10.051 6.537-13.4 4.0104-10.178 6.246-20.167 6.9981-31.267l0.20292-2.9954-0.197-10.925-0.28079-2.643c-1.6391-15.428-6.2514-29.353-13.977-42.2-4.0852-6.7929-8.8367-12.858-14.569-18.598-5.7548-5.7619-11.253-10.084-18.108-14.237l-2.8649-1.7353-4.0527-1.9922c-9.6509-4.7441-18.697-7.4047-29.776-8.7574l-3.1736-0.38748h-13.215l-3.2159 0.3923c-10.901 1.3297-20.249 4.0813-29.734 8.7517-15.281 7.5245-28.037 18.896-37.673 33.582-6.0214 9.1779-10.66 19.855-13.326 30.672-1.3399 5.4364-2.094 9.9473-2.6909 16.096l-0.22238 2.2906 4e-3 6.2552 4e-3 6.2552 0.30812 3.0835c1.5479 15.491 6.0656 29.483 13.669 42.333l0.9123 1.5418 2.9446-4e-5c1.6195-2e-5 4.4858-0.12046 6.3694-0.26789zm11.352-19.804c-1.5568-0.42221-2.6566-0.9716-4.0665-2.0314l-1.0902-0.81948-0.82696-1.0927c-0.97138-1.2835-1.7126-2.793-2.0906-4.2574l-0.27111-1.0502v-3.4872l0.26693-1.0301c0.14676-0.56657 0.42632-1.402 0.62115-1.8564 0.19478-0.45448 0.33238-0.84392 0.30572-0.8654-0.0267-0.0215-0.6828 0.0319-1.4581 0.11879-0.77528 0.0868-1.6332 0.13549-1.9066 0.10814l-0.49692-0.0499 0.73208-1.1303c0.40263-0.62165 1.1856-1.5837 1.7398-2.138l1.0077-1.0077 0.87154-0.43904c0.47937-0.24148 1.4662-0.57858 2.1931-0.74914l1.3215-0.3101 1.8501-0.0606c1.0176-0.0332 2.5006-0.11336 3.2956-0.17787l1.4455-0.11732 2.5712 0.38997 4.0527-0.79045-7.7529 0.1186 0.4405-0.35451c0.66245-0.53309 2.8778-1.4164 4.736-1.8884l1.6525-0.41972 0.90246 2e-3c1.8954 6e-3 4.3791 0.881 6.5985 2.326l1.1148 0.7258-0.27094 0.15157c-0.52981 0.29651-6.2665 2.4324-6.533 2.4324-0.40035 0-0.34739 0.11838 0.50037 1.1172 1.1132 1.3117 1.7789 2.4769 2.3314 4.0808l0.48562 1.4096-4e-3 2.1144-4e-3 2.1144-0.94905 2.8948-0.88353 1.321-0.88354 1.321-0.97987 0.87336c-1.0799 0.96246-2.5061 1.7826-4.0651 2.3376l-1.0176 0.3623-4.2289 0.144zm-4.382-19.747 0.10772-0.17411-0.27347 0.10501c-0.30525 0.11712-0.3611 0.24342-0.10772 0.24342 0.0912 0 0.21424-0.0785 0.27345-0.17411zm25.419-15.505c-3.526-0.44471-7.4516-2.6402-11.07-6.1911-0.96211-0.94413-1.7493-1.7915-1.7493-1.883 0-0.20731 0.861-0.38666 1.8563-0.38666 0.94568 0 9.6086-0.97507 11.976-1.3479l1.762-0.27758 1.9603 0.1766 0.88586 0.4489 0.88584 0.44891 0.57998 0.66054c0.61608 0.70167 1.41 2.245 1.4129 2.7465l2e-3 0.30088-1.2775 0.38158c-1.7419 0.5203-4.2813 1.0338-5.242 1.06l-0.7929 0.0217 0.7929 0.18246 0.79292 0.18247 6.1671 0.012 1.6739-0.3676c0.92066-0.20208 1.7929-0.41453 1.9382-0.4719l0.26429-0.10438 0.49848 0.90476 0.49849 0.90475-0.20104 0.12422c-0.11065 0.0683-1.2312 0.22265-2.4902 0.34288l-2.2891 0.2186-1.3561 0.68376c-0.74588 0.37605-1.8319 0.80828-2.4134 0.96049-1.3245 0.34672-3.5132 0.46163-5.065 0.26593zm71.933-0.68576c-1.1019-0.36127-2.8181-1.459-2.8181-1.8026 0-0.28539 3.3433-3.6482 4.4666-4.4927 0.56682-0.42616 0.98135-0.77482 0.92114-0.77482-0.32517 0-3.1098 1.5488-4.7008 2.6146-1.9378 1.2981-4.5633 3.4464-4.5633 3.7339 0 0.36834-0.30996 0.13507-0.86324-0.64996l-0.57864-0.82091 0.23637-0.13529c0.13006-0.0743 0.91035-0.6768 1.7341-1.3386l1.4977-1.2033 0.51231-0.96803 0.51232-0.96804 1.4259-1.4137 1.4259-1.4137 1.4196-0.73599c1.7361-0.90006 3.4935-1.397 5.7713-1.632l1.7286-0.17829 1.978 0.17349c2.2183 0.19457 3.0475 0.33482 5.2665 0.89158l1.5392 0.38618-0.0958 0.15512c-0.0528 0.0854-0.74541 0.64626-1.5392 1.2464-2.5302 1.9131-7.9168 6.1672-9.2843 7.3324-0.72683 0.61931-1.718 1.3288-2.2025 1.5767l-0.88102 0.45064-1.2334 0.0559c-0.67837 0.0307-1.4322-8e-3 -1.675-0.0889zm-81.845-10.908-1.762-0.62376-2.2344-0.11336-2.2344-0.11315-2.9506-1.4621-0.83229-0.73261c-1.1082-0.97549-2.2642-2.6251-3.0987-4.422-0.8525-1.8357-1.6402-4.0251-1.448-4.0251 0.0797 0 0.61317 0.16305 1.1856 0.3624 0.57242 0.19937 2.6662 0.83659 4.6529 1.4162 5.0401 1.4704 6.1771 2.0873 7.2297 3.9226l0.51985 0.90639 2e-3 0.62707 2e-3 0.62708-0.23517 0.32162-0.23518 0.32163-1.1304-0.12129c-0.62171-0.0666-1.6656-0.30138-2.3198-0.52161-0.65413-0.22023-1.1894-0.36954-1.1894-0.33177 0 0.0378 0.73344 0.41517 1.6299 0.83874 1.8381 0.8685 4.8049 1.7904 6.3873 1.9849l1.0572 0.12986 0.0549 0.47584c0.0303 0.26171-0.0322 0.63835-0.13841 0.83697l-0.19332 0.36111-0.47835-0.0211c-0.26311-0.0104-1.2713-0.30175-2.2404-0.64482zm99.378-3.9272-1.2334-0.3542-1.8501 0.1048c-1.0176 0.0576-2.1475 0.15011-2.5109 0.20564l-0.66077 0.10063v-2.0142l0.74887 0.14761c1.677 0.33062 6.3019 0.0334 8.2-0.5271l0.70954-0.20952-1.9659 2e-3c-1.0812 9.8e-4 -2.1828-0.0591-2.4478-0.13319l-0.48186-0.13486-0.10981-0.43727-0.10981-0.43728 0.4154-0.83357 0.41543-0.83359 0.82835-0.5869c0.45559-0.3228 1.2793-0.74539 1.8304-0.9391l1.0021-0.35219 2.7508-0.0839c1.513-0.0461 3.8895-0.16492 5.2812-0.26415 1.3917-0.0992 2.5751-0.13549 2.6298-0.0808 0.15825 0.15824-1.7912 2.922-2.9645 4.2024l-1.0706 1.1684-1.3019 0.87077c-0.71606 0.47893-1.7621 1.047-2.3246 1.2624l-1.0226 0.39159-3.5241 0.1202zm-61.921-9.7304c-0.0843-0.22196-0.71173-1.2385-1.3941-2.2589l-1.2407-1.8554-0.71115-0.49282c-1.7136-1.1875-2.8856-2.8926-3.4682-5.0454l-0.30651-1.1327 0.0104-1.9382 0.0104-1.9382 0.44244-1.6739c0.51975-1.9665 1.1507-3.7003 1.3466-3.7003 0.0762 0 0.83117 1.0712 1.6777 2.3805 0.84657 1.3092 2.1325 3.2123 2.8576 4.2289l1.3184 1.8484 0.35952 1.0131 0.35952 1.0131 0.0104 1.3215 0.0104 1.3215-0.29325 0.56197c-0.27804 0.53279-0.91317 1.112-1.2194 1.112-0.28539 0-1.7162-1.4627-2.2604-2.3108-0.30854-0.48081-0.59745-0.83777-0.642-0.79322-0.29414 0.29414 2.4246 4.7573 3.8923 6.3897l0.78219 0.86998-0.18372 0.34495c-0.24977 0.46899-0.86795 1.1379-1.0517 1.1379-0.0825 0-0.2189-0.18163-0.30328-0.40355zm31.39-7.594-0.20271-2.3618-0.66748-1.5601-0.66749-1.5601 0.0208-4.0526 0.45229-1.1879c0.24877-0.65334 0.72008-1.6402 1.0474-2.1931l0.59507-1.0052 3.7568-3.8953 0.12693 0.12568c0.0697 0.0691 0.23011 1.32 0.35628 2.7797 0.1261 1.4596 0.3633 3.5794 0.52696 4.7106l0.29751 2.0567-0.09 1.1209-0.09 1.1209-0.5921 1.1789-0.59211 1.1789-0.5987 0.39645-0.59873 0.39645h-0.96684l-0.27933-0.69814c-0.15365-0.38396-0.38029-1.4346-0.5037-2.3347l-0.22434-1.6365-0.10041 1.2334c-0.16326 2.0056 0.28707 6.2166 0.80431 7.5208l0.11754 0.29645-0.49885 0.25388c-0.27436 0.13967-0.6623 0.30418-0.86206 0.36564l-0.36324 0.11169zm-44.845-3.852-0.0958-2.8633-0.37536-1.0572 0.0904 0.7048c0.0979 0.76438-0.18037 2.5319-0.43956 2.7911l-0.16054 0.16033-1.6521-0.79977-0.49365-0.77843c-0.27153-0.42814-0.57453-1.1502-0.67334-1.6045l-0.17975-0.82606-0.0912-4.2729c-0.0503-2.3501-0.0355-4.2727 0.0326-4.2724 0.0681 3.2e-4 1.1238 0.97163 2.3459 2.1585l2.222 2.1579 0.37311 0.79647 0.37309 0.79645 0.40042 3.5227-0.21553 1.3186c-0.11859 0.72526-0.25165 2.1314-0.29583 3.1247l-0.0804 1.8061h-0.98877z" fill="#fff" stroke-width=".32519"/>
</svg>
