<?xml version="1.0" encoding="UTF-8" standalone="no"?>
<!-- Created with Inkscape (http://www.inkscape.org/) -->

<svg
   width="614.72205mm"
   height="650.90057mm"
   viewBox="0 0 614.72205 650.90057"
   version="1.1"
   id="svg1"
   xml:space="preserve"
   xmlns="http://www.w3.org/2000/svg"
   xmlns:svg="http://www.w3.org/2000/svg"><defs
     id="defs1"><pattern
       id="EMFhbasepattern"
       patternUnits="userSpaceOnUse"
       width="6"
       height="6"
       x="0"
       y="0" /></defs><g
     id="logo-face"
     transform="translate(315.0458,430.79181)"><path
       class="logo-face"
       d="m -230.71762,219.59903 c -4.05478,-0.64327 -6.66348,-1.57806 -9.64564,-3.45626 l -2.65467,-1.67198 -2.32354,-3.15633 c -1.278,-1.73599 -2.86088,-4.55219 -3.5175,-6.25826 l -1.19396,-3.10188 -0.25808,-5.9747 -0.25808,-5.9747 0.6452,-3.10798 c 0.35501,-1.70942 1.49242,-4.80141 2.52781,-6.87111 l 1.88263,-3.76313 2.42837,-2.4986 2.42837,-2.49861 3.09957,-1.45275 3.09951,-1.45275 h 5.96026 5.96032 l 3.11555,1.7089 3.11562,1.70884 v -1.30246 -1.30252 h 5.41842 5.41849 v 9.21133 9.21134 h -5.66405 -5.66398 l -1.04072,-2.35275 -1.04079,-2.35275 -1.642,-1.16925 -1.64201,-1.16918 h -2.00242 -2.00248 l -1.77958,1.77958 -1.77958,1.77959 -0.67056,3.23002 -0.67055,3.23008 0.25101,5.20714 0.25102,5.20715 1.22542,2.53128 1.22536,2.53135 1.54314,0.79799 c 2.08035,1.07577 3.6952,1.00124 5.7744,-0.26643 l 1.73914,-1.06043 1.09118,-2.1389 c 0.60026,-1.17637 1.25072,-3.13661 1.44569,-4.356 0.19516,-1.21939 0.56238,-2.2171 0.81622,-2.2171 0.44618,0 11.44243,4.28474 11.73671,4.57332 0.35759,0.35052 -2.05307,7.0002 -3.32503,9.17069 -0.77494,1.3223 -2.53507,3.39546 -3.91156,4.60702 l -2.50258,2.20291 -2.90698,1.08758 -2.90691,1.08766 -4.21675,0.25037 c -2.31917,0.13803 -5.45976,0.0514 -6.97896,-0.18746 z m 299.692517,-0.0514 c -5.80342,-0.90655 -10.35535,-3.42056 -14.29316,-7.89411 -4.06518,-4.61831 -6.026,-10.3906 -6.026,-17.73972 v -3.9233 l 0.8297,-3.18534 c 0.45645,-1.75192 1.59161,-4.61479 2.52281,-6.36195 l 1.69317,-3.17674 3.40111,-3.18155 3.40118,-3.18161 3.15189,-1.22119 3.15196,-1.22112 5.21176,-0.24588 5.21183,-0.24588 2.76888,0.59384 c 1.52286,0.32677 3.93223,1.13528 5.3541,1.79717 l 2.58527,1.2034 3.0208,3.00405 3.02074,3.0041 1.99092,4.06383 1.99086,4.06383 0.55596,4.08971 0.55596,4.08964 -0.54761,3.86347 c -2.17364,15.32618 -14.20393,24.20323 -29.55155,21.80586 z m 6.80305,-12.4619 c 0.5733,-0.30687 1.47169,-1.34316 1.99632,-2.30286 l 0.9538,-1.74492 v -8.94042 -8.94041 l -0.98622,-1.98194 -0.98622,-1.98194 -1.6619,-0.68834 -1.66185,-0.6884 -1.4157,0.78149 -1.41577,0.78143 -1.05427,2.15296 -1.05434,2.1529 -0.0321,7.32171 c -0.0321,8.5836 0.33704,10.77239 2.20772,12.99513 l 1.38117,1.6415 h 1.34207 c 0.73815,0 1.81117,-0.25102 2.38452,-0.55789 z m 45.068213,12.4506 c -3.96156,-0.70496 -6.15099,-1.71198 -8.67007,-3.98782 l -2.16247,-1.95369 -1.14434,-2.66013 c -1.65401,-3.84479 -2.21337,-8.79167 -2.2255,-19.68186 l -0.0128,-9.61771 h -1.62557 -1.62551 v -6.23117 -6.23124 h 11.64966 11.64959 v 6.23124 6.23117 h -1.08367 -1.08367 l 8.4e-4,10.97236 8.3e-4,10.9723 0.94738,1.89649 0.94738,1.89643 1.99927,0.16627 1.99927,0.16628 0.98089,-1.49519 0.98089,-1.49512 0.17397,-11.53988 0.17398,-11.53981 h -1.12219 -1.12225 v -6.23124 -6.23117 h 8.39858 8.39858 v 6.23117 6.23124 h -1.62551 -1.62557 v 10.76288 10.76295 l -0.54055,2.9186 c -0.29724,1.60528 -1.21727,4.2597 -2.04408,5.89881 l -1.50327,2.9801 -2.60101,1.74639 c -1.43053,0.96054 -3.4976,1.99748 -4.59347,2.30441 -3.0165,0.84466 -8.69287,1.09625 -11.89143,0.52707 z m 123.08799,-0.20479 c -0.92491,-0.40253 -2.23751,-1.51258 -2.9168,-2.46657 l -1.23505,-1.73452 -0.26065,-2.31205 -0.26064,-2.31211 0.94141,-1.98386 c 0.51744,-1.09105 1.67397,-2.50548 2.56935,-3.14303 l 1.62795,-1.15917 2.55022,-0.24524 2.55029,-0.24524 1.57979,0.82155 c 0.86887,0.45196 2.18937,1.474 2.93439,2.27135 l 1.35465,1.44979 v 3.70561 3.70553 l -1.35465,1.4498 c -2.74872,2.94177 -6.4949,3.75857 -10.08033,2.19777 z m 6.99167,-1.79788 1.73407,-0.94693 -1.67597,-0.16499 -1.6759,-0.16499 -0.86977,-1.73298 -0.86976,-1.73304 0.31072,1.76103 0.31072,1.76097 h -2.37399 -2.37394 l -0.0385,-4.33475 -0.0385,-4.33475 h 3.11992 c 1.71597,0 3.7777,0.24973 4.5816,0.55596 l 1.46161,0.55596 -0.30816,2.289 -0.30815,2.28893 0.71389,0.9642 0.71389,0.96414 0.33511,-0.87304 c 0.581,-1.51406 0.36529,-4.03083 -0.48727,-5.67868 l -0.82193,-1.58943 -1.70453,-0.88145 -1.70454,-0.88151 -2.21466,0.29724 -2.21465,0.29724 -1.47869,1.65485 c -2.76079,3.08955 -2.63894,6.05244 0.37299,9.06419 l 1.81034,1.81027 h 1.97757 1.97751 z m -83.73415,1.49101 c -0.81533,-0.24524 -2.33927,-0.97588 -3.38654,-1.62313 l -1.90407,-1.17676 v 1.39876 1.39882 h -5.1475 -5.1475 v -8.12767 -8.12766 h 5.35968 5.35968 l 0.32933,1.31286 c 0.18104,0.72211 0.94578,2.04524 1.69895,2.94029 l 1.36936,1.6275 1.63295,0.35887 1.63289,0.35887 1.33257,-0.87316 1.33257,-0.87317 v -1.36794 -1.36801 l -1.29874,-1.19325 c -0.71433,-0.65631 -3.57932,-2.41246 -6.36663,-3.90251 -2.78737,-1.49011 -6.14117,-3.68454 -7.45287,-4.87658 l -2.38491,-2.16741 -1.26722,-2.70918 -1.26721,-2.70924 -0.005,-4.37307 -0.005,-4.37302 1.49005,-2.93811 1.49012,-2.93811 2.2915,-1.72398 2.2915,-1.72393 2.96353,-0.61502 2.96354,-0.61502 3.09475,0.57201 c 1.70216,0.31457 3.90918,1.0526 4.90451,1.63988 l 1.80976,1.06775 v -1.06537 -1.06544 h 5.1475 5.14757 v 7.31491 7.31485 h -5.04324 -5.04325 l -0.9599,-2.17556 -0.95989,-2.17563 -1.55579,-0.80453 c -3.11748,-1.61216 -5.4025,-0.76397 -5.4025,2.00537 v 1.50943 l 2.03195,1.2963 c 1.1175,0.71292 4.35946,2.64575 7.20423,4.29507 6.14611,3.56328 8.3028,5.59529 10.18458,9.59563 l 1.40191,2.98016 -0.006,4.06383 -0.006,4.06383 -1.10672,2.43827 c -1.59777,3.52026 -3.62388,5.68227 -6.81564,7.27279 l -2.80291,1.3967 -3.82193,-0.0449 c -2.10211,-0.0257 -4.48914,-0.24717 -5.30447,-0.49305 z m -366.70026,-6.23349 v -6.23123 h 1.89643 1.89648 v -12.46242 -12.46235 h -1.89648 -1.89643 v -6.23123 -6.23118 h 12.73333 12.73333 v 6.23118 6.23123 h -1.89649 -1.89642 v 12.46235 12.46242 h 1.89642 1.89649 v 6.23123 6.23118 h -12.73333 -12.73333 z m 30.88508,0 v -6.23123 h 1.62551 1.62557 v -12.46242 -12.46235 h -1.62557 -1.62551 v -6.23123 -6.23118 h 14.5558 14.55587 l 2.87898,0.54569 c 4.05574,0.76916 8.16291,2.7778 10.96928,5.36462 l 2.40276,2.21479 1.6847,3.16081 c 0.92658,1.7385 2.05808,4.59431 2.5144,6.34622 l 0.8297,3.18527 -0.006,4.62731 -0.006,4.6273 -0.72474,2.70924 c -1.61626,6.0414 -5.46445,11.55914 -9.85691,14.13331 l -2.28663,1.34008 -3.71902,0.78791 -3.71895,0.78791 -15.0362,0.006 -15.03613,0.0128 z m 26.86106,-7.02569 1.90143,-0.79446 1.14915,-2.59208 1.14922,-2.59201 0.24652,-3.80756 0.24653,-3.80755 -0.65714,-3.16543 -0.65714,-3.16544 -1.75538,-1.91549 -1.75538,-1.91543 -3.06939,-0.25423 -3.0694,-0.25487 v 12.5295 12.52951 h 2.18474 c 1.20167,0 3.04044,-0.35759 4.08624,-0.79446 z m 29.49069,7.02569 v -6.23123 h 1.6255 1.62558 v -12.46242 -12.46235 h -1.62558 -1.6255 v -6.23123 -6.23118 h 21.131907 21.13185 v 8.12766 8.1276 h -5.96026 -5.96026 v -1.89642 -1.89643 h -4.87658 -4.87659 v 3.52194 3.52199 h 4.33475 4.33475 v 5.1475 5.14757 h -4.33475 -4.33475 v 3.79285 3.79292 h 4.87659 4.87658 v -1.89643 -1.89649 h 5.96026 5.96026 v 8.12766 8.12767 h -21.13185 -21.131907 z m 48.224077,0 v -6.23123 h 1.89642 1.89649 v -12.46242 -12.46235 h -1.89649 -1.89642 v -6.23123 -6.23118 h 16.88819 16.88826 l 3.32491,0.57907 c 4.24404,0.73906 7.09176,2.34793 9.31482,5.26255 2.82853,3.70843 3.68814,8.98394 2.2474,13.79254 l -0.6441,2.15001 -2.32868,2.59003 -2.32867,2.59002 2.74359,5.21151 2.74359,5.21151 h 1.58384 1.58384 v 6.2453 6.24536 l -8.22794,-0.14958 -8.22794,-0.14959 -4.64085,-9.88503 -4.64085,-9.88503 -2.57378,-0.004 -2.57372,-0.004 v 3.79292 3.79291 h 1.62551 1.6255 v 6.23117 6.23124 h -12.19143 -12.19149 z m 29.45737,-24.69326 1.42771,-1.12296 v -2.08876 -2.0887 l -1.42771,-1.12303 -1.42765,-1.12302 h -3.44894 -3.44887 v 4.33475 4.33475 h 3.44887 3.44894 z m 26.3525401,24.69326 v -6.23123 h 1.6255 1.62551 v -12.46242 -12.46235 h -1.89643 -1.89648 v -6.23123 -6.23118 h 11.92057 11.9205799 v 6.23118 6.23123 h -1.35459 -1.35465 v 3.25102 3.25108 h 4.87658 4.87659 v -3.25108 -3.25102 h -1.35459 -1.35459 v -6.23123 -6.23118 h 11.92058 11.92051 v 6.23118 6.23123 h -1.89643 -1.89648 v 12.46235 12.46242 h 1.89648 1.89643 v 6.23123 6.23118 h -11.92051 -11.92058 v -6.23118 -6.23123 h 1.35459 1.35459 v -3.79292 -3.79285 h -4.87659 -4.87658 v 3.79285 3.79292 h 1.35465 1.35459 v 6.23123 6.23118 H 3.4118171 -8.2377729 Z m 200.4820829,0 v -6.23123 h 1.62557 1.62551 v -12.46242 -12.46235 h -1.62551 -1.62557 v -6.23123 -6.23118 h 21.40283 21.40283 v 8.12766 8.1276 h -6.23124 -6.23117 v -1.89642 -1.89643 h -4.60567 -4.60567 v 3.52194 3.52199 h 4.33475 4.33475 v 5.1475 5.14757 h -4.33475 -4.33475 v 3.79285 3.79292 h 4.60567 4.60567 v -1.89643 -1.89649 h 6.23117 6.23124 v 8.12766 8.12767 h -21.40283 -21.40283 z m -442.54755,-58.11277 0.28247,-6.90847 1.20623,-3.79291 c 3.26327,-10.26118 6.95347,-14.96256 21.81498,-27.79264 3.20787,-2.7694 6.46807,-5.9957 7.24487,-7.16957 l 1.41237,-2.13421 0.26578,-2.35846 0.26578,-2.3584 -0.89647,-1.73355 -0.8964,-1.73356 -1.58917,-0.31778 c -1.94753,-0.38969 -1.8233,-0.38969 -3.81808,0.006 l -1.63494,0.32677 -1.04939,2.31192 -1.04933,2.31192 -0.0128,2.57372 -0.0128,2.57378 -3.38647,-0.002 c -1.86259,-0.001 -6.52732,-0.16243 -10.36601,-0.35823 l -6.97941,-0.35566 0.30109,-4.38303 0.30109,-4.38296 1.14113,-3.25108 c 0.62786,-1.78812 1.99561,-4.41776 3.03993,-5.84367 l 1.89874,-2.5926 2.8872,-1.84692 c 1.58795,-1.01582 4.44446,-2.38774 6.34776,-3.04866 l 3.46049,-1.2018 6.79458,-0.24395 6.79458,-0.24396 3.50043,0.88241 c 1.92525,0.48534 4.98925,1.60772 6.80883,2.49431 l 3.30841,1.61189 2.86614,2.82134 2.86621,2.82127 1.68213,3.54992 1.68219,3.54986 v 6.23117 6.23117 l -1.73856,3.67036 -1.73856,3.67036 -2.8671,2.86261 c -3.08474,3.07987 -7.61485,6.23869 -16.79672,11.71219 -3.19111,1.90227 -6.71516,4.39388 -7.83126,5.53687 l -2.02925,2.07811 h 8.23764 8.23763 v -2.9801 -2.98016 h 8.6695 8.66944 v 3.70605 c 0,2.03831 -0.1605,8.13402 -0.3563,13.54609 l -0.35631,9.84003 h -28.43321 -28.43321 z m 183.546307,5.25343 c -7.52361,-1.95054 -13.32228,-5.64549 -18.41605,-11.73479 -3.21442,-3.8426 -5.07528,-7.20885 -6.82585,-12.34769 l -1.47669,-4.33475 -0.24524,-7.58582 -0.24524,-7.58577 1.1123,-4.65818 c 2.06829,-8.6616 5.60621,-14.79905 11.80515,-20.47927 l 3.65483,-3.34898 3.82835,-1.87113 c 2.10564,-1.0291 5.41328,-2.28816 7.35034,-2.79784 l 3.522,-0.92677 7.04399,0.0128 7.04393,0.0128 4.31575,1.21124 c 2.37367,0.66619 5.78589,1.99002 7.58281,2.94189 l 3.26706,1.73073 3.5496,3.522 c 4.53646,4.50122 7.36653,8.84181 9.53856,14.62975 l 1.72835,4.60567 0.66195,4.55681 0.66195,4.55675 -0.33511,4.65459 c -0.45581,6.32998 -1.53454,10.23132 -4.49962,16.2742 l -2.51106,5.11752 -4.66518,4.66216 -4.66518,4.66217 -3.35187,1.7478 c -1.84352,0.96131 -5.23519,2.22942 -7.53703,2.81819 l -4.18517,1.07038 -6.8218,-0.0321 -6.82187,-0.0321 z m 14.62982,-18.33902 c 0.74503,-0.50781 1.89328,-2.00774 2.55164,-3.33331 l 1.19705,-2.41015 0.56366,-4.59141 c 1.02242,-8.32418 0.50653,-19.49068 -1.15628,-25.0416 l -0.65637,-2.19072 -1.54198,-1.54198 -1.54199,-1.54198 -1.88442,-0.35374 -1.88442,-0.35373 -1.64945,0.6832 c -0.90725,0.37556 -2.25138,1.47239 -2.98703,2.43691 l -1.33758,1.75358 -0.84183,3.9918 -0.8419,3.99181 0.21956,10.56598 0.2202,10.56593 1.21406,3.1031 1.21399,3.1031 1.45583,1.03289 c 2.58952,1.8373 5.11894,1.88005 7.68707,0.12968 z m 197.048823,17.42034 c -1.41744,-2.25093 -23.39215,-37.79509 -25.21469,-40.78475 l -1.14941,-1.88539 -0.002,12.59787 -0.002,12.59781 h 2.98016 2.98016 v 9.2114 9.21134 H 110.42597 96.337987 v -9.21134 -9.2114 h 2.70924 2.709243 v -19.5063 -19.50634 h -2.709243 -2.70924 v -9.48232 -9.48225 l 16.119863,0.005 16.11987,0.005 11.8393,19.23055 c 6.51166,10.57677 11.93689,19.23054 12.05604,19.23054 0.11941,0 0.21635,-4.38893 0.21635,-9.75317 v -9.75317 h -2.70918 -2.70924 v -9.48232 -9.48225 h 13.817 13.817 v 9.48225 9.48232 h -2.9801 -2.98016 v 29.25951 29.25958 H 157.5728 146.20086 Z m 62.07709,1.22619 c -3.08461,-0.86751 -5.49424,-1.98502 -7.84596,-3.63871 l -1.49011,-1.04778 v 2.20426 2.20432 h -7.85668 -7.85675 V 147.48455 135.0077 l 7.94772,0.15022 7.94765,0.15023 0.77963,2.34074 0.77962,2.34081 1.97411,2.0695 1.9741,2.06944 2.09519,0.57586 2.09518,0.57586 1.57884,-0.31586 1.57877,-0.31585 1.0671,-1.35665 1.06718,-1.35657 v -1.53364 -1.53358 l -1.58962,-1.81053 -1.58962,-1.81046 -6.94442,-3.70477 c -11.95756,-6.37921 -15.93055,-9.69404 -18.90448,-15.77249 l -1.40544,-2.87269 -0.59319,-3.83349 -0.5932,-3.83348 0.64809,-4.16841 0.64808,-4.16848 1.30182,-2.84361 1.30182,-2.84355 2.43415,-2.43415 c 2.941,-2.941 6.57098,-4.85456 10.90951,-5.75097 l 3.23304,-0.66798 3.45093,0.35373 c 4.09638,0.41986 8.13229,1.86124 10.70504,3.82354 l 1.86446,1.42206 v -2.19495 -2.19495 h 7.85674 7.85675 v 11.10783 11.10776 l -7.72129,-0.002 -7.72129,-0.002 -1.6255,-3.07947 c -1.80443,-3.41838 -3.49799,-4.91157 -6.27316,-5.5309 l -1.85451,-0.41408 -1.62492,0.43912 c -2.06977,0.55917 -2.98074,1.81598 -2.98074,4.11211 v 1.81874 l 1.30137,1.19326 c 0.71574,0.6563 5.1448,3.38776 9.84234,6.06985 4.69753,2.68215 9.82038,5.78903 11.3842,6.90416 l 2.84322,2.02752 2.17909,3.26328 c 1.19852,1.7948 2.70231,4.66145 3.34166,6.37035 l 1.16251,3.10708 0.3043,3.62934 0.3043,3.62927 -0.66586,3.41536 -0.66594,3.41537 -1.6454,3.10104 -1.64541,3.10111 -2.91096,2.75303 -2.91095,2.75309 -3.06978,1.40537 -3.06985,1.40543 -4.92377,0.18939 -4.92383,0.18939 z M 2.1456271,143.29977 c -3.06765995,-9.46196 -7.31523,-22.50685 -9.43904,-28.98865 l -3.8614201,-11.78506 h -2.33439 -2.33438 V 93.04374 83.56149 H 1.7863071 19.396227 v 9.48225 9.48232 h -2.16741 -2.16734 v 0.55403 c 0,0.30495 1.58487,7.10807 3.522,15.11818 1.93706,8.01012 3.53451,14.7708 3.54979,15.02368 0.0128,0.25294 2.04806,-6.00173 4.51727,-13.89905 2.46914,-7.89738 4.66749,-14.90748 4.88525,-15.57803 l 0.3961,-1.21913 h -2.47479 -2.47479 v -9.48225 -9.48232 h 14.90068 14.90067 v 9.48232 9.48225 h -2.16734 c -1.19204,0 -2.16741,0.16371 -2.16741,0.36336 0,0.19966 2.13062,7.19647 4.73464,15.54799 l 4.73465,15.18456 3.64281,-14.87069 c 2.00351,-8.17883 3.65232,-15.17545 3.66394,-15.54799 l 0.0193,-0.67729 h -2.16734 -2.16741 v -9.48226 -9.48225 h 13.817 13.81701 v 9.48225 9.48226 h -2.33471 -2.33471 l -9.48007,28.85319 -9.48001,28.85314 -10.85931,0.14637 -10.85931,0.14637 -4.27832,-13.80519 c -2.35313,-7.59282 -4.42533,-13.63249 -4.60496,-13.42153 -0.17975,0.21121 -1.11615,2.94376 -2.08119,6.07292 -0.96496,3.12917 -2.85099,9.16396 -4.19113,13.41063 l -2.43653,7.72128 H 18.662417 7.7216371 Z m -153.4301371,7.45037 v -9.2114 h 2.70924 2.70918 V 122.0324 102.52606 h -3.52199 -3.52194 v 6.77301 6.77308 h -6.50215 -6.50209 V 99.81682 83.56149 h 33.59426 33.594317 v 16.25533 16.25533 h -6.502157 -6.50209 v -6.77308 -6.77301 h -3.79291 -3.79292 v 19.50634 19.50634 h 2.98017 2.98016 v 9.2114 9.21134 H -132.32 -151.28451 Z M -265.20437,65.54578 c -25.32054,-40.95572 -41.01535,-85.47445 -46.94884,-133.171525 -1.38842,-11.160659 -2.09037,-20.588279 -2.54078,-34.123325 l -0.35181,-10.56592 0.61759,-12.1915 c 1.64637,-32.51001 6.95244,-61.35043 16.64514,-90.47172 33.07605,-99.37549 111.34633,-176.04928 208.265387,-204.0175 21.85716,-6.30738 42.01833,-9.71099 66.10831,-11.16053 l 10.56593,-0.63557 12.19149015,0.33576 c 31.23996985,0.85969 58.79796985,5.66058 87.50774985,15.24484 85.420773,28.51629 156.237543,97.21874 190.186563,184.50847 12.6952,32.64187 19.88653,66.47033 21.99962,103.48753 l 0.63428,11.10776 -0.32869,13.817 c -0.35566,14.940089 -0.85782,21.908263 -2.57732,35.761665 C 291.01858,-20.19015 274.6398,26.0249 250.00611,65.42277 l -5.074,8.11502 -252.5135829,0.1361 -252.5135871,0.1361 z m 44.52978,-12.06779 c 51.93771,-4.06197 101.19346,-14.85387 132.307347,-28.9884 14.11456,-6.41202 24.01494,-12.86725 33.04157,-21.5437402 l 5.79507,-5.57032 2.80644,-4.05959 c 1.54353,-2.23283 3.7587,-6.0917398 4.92255,-8.5753898 l 2.11612,-4.51572 1.09028,-4.54795 1.09028,-4.54796 0.002,-6.50209 0.002,-6.50216 -0.82745,-5.10224 c -3.74215,-23.069552 -19.25843,-39.040607 -44.0562,-45.346573 -6.67428,-1.697281 -18.400137,-3.383584 -26.417247,-3.799077 l -6.45009,-0.334474 -10.5685,0.600256 c -5.81266,0.330623 -15.30506,1.218617 -21.09422,1.974041 l -10.5258,1.373592 -11.41636,2.468177 c -12.70457,2.74667 -16.76301,3.77558 -25.5812,6.485722 l -6.03716,1.855402 -2.63233,2.19636 c -3.32042,2.770488 -9.19625,5.639071 -13.74831,6.711893 l -3.51378,0.828161 -6.06028,0.0064 -6.06034,0.0064 -3.70131,-0.7786 c -7.31163,-1.538004 -14.97681,-4.793641 -22.09829,-9.385698 -4.36235,-2.812987 -14.90953,-10.945466 -14.90953,-11.496161 0,-0.204151 3.84036,-1.174512 8.53404,-2.156108 7.39843,-1.547313 19.94649,-4.735473 37.79361,-9.602433 l 4.87659,-1.32987 4.06383,0.21635 4.06383,0.21635 2.1807,1.12212 c 3.76544,1.93771 9.4689,8.978297 9.4689,11.688888 v 0.75414 l -3.65739,1.660238 c -4.72302,2.143846 -13.27035,4.83858 -16.85642,5.314291 -1.54539,0.204793 -2.94061,0.584207 -3.10053,0.843184 l -0.29082,0.470575 1.79293,-0.0019 c 0.98616,-10e-4 4.59701,-0.25551 8.02418,-0.564947 l 6.23124,-0.563021 9.79284,-2.401732 c 11.49892,-2.820049 20.2757,-5.675921 31.11633,-10.124815 4.3212,-1.773357 8.54572,-3.479621 9.38782,-3.791631 l 1.53113,-0.56751 -0.44746,-0.42307 c -0.24588,-0.2324 -8.0062,-3.10965 -17.24463,-6.39321 l -16.7971,-5.97015 -7.85674,0.0449 -7.85675,0.0385 -4.60567,-1.20077 c -17.86651,-4.65804 -33.23224,-20.09605 -43.62753,-43.8325 -2.54495,-5.81106 -8.0207,-21.24606 -7.66389,-21.60281 0.31522,-0.31521 35.89039,12.80819 51.51336,19.00315 l 14.48036,5.74192 2.27899,1.56799 c 1.25341,0.86238 3.32914,2.70725 4.6126,4.09972 l 2.33368,2.53173 1.9379,4.08071 1.93796,4.08066 0.25101,3.91354 0.25102,3.91354 -0.89159,1.72418 -0.89165,1.72412 -2.28887,-0.003 c -1.25894,-0.002 -4.68849,-0.36465 -7.62133,-0.80698 l -5.3324,-0.8037 -5.5974,-1.87306 c -3.07858,-1.03013 -7.10357,-2.63329 -8.94446,-3.56256 -4.54366,-2.29363 -3.67107,-1.25618 2.30626,2.74198 19.44311,13.00527 49.60859,21.58143 83.04505,23.60997 l 5.41842,0.3287 7.06582,-0.87522 7.06582,-0.87515 h 8.11502 c 9.136147,0 23.388807,0.81147 29.499417,1.6795 4.56413,0.6484 18.11272,3.0701 19.77726,3.53502 l 1.08367,0.30302 -26.55778,-26.46424 -26.557847,-26.46431 -5.5307,-4.44299 c -5.05005,-4.05683 -18.42556,-13.73913 -27.27263,-19.74214 l -3.55878,-2.4147 -5.11072,-0.67992 -5.11072,-0.67993 -4.73413,-1.58545 c -28.28927,-9.47429 -45.75718,-37.92586 -47.91425,-78.04205 l -0.35695,-6.64352 0.76518,0.46672 c 0.42115,0.2568 3.4474,2.19887 6.72551,4.31607 8.53128,5.5099 13.14182,8.21375 31.42692,18.4298 8.94041,4.99502 18.40783,10.55019 21.03876,12.34466 8.16778,5.57128 13.3764,11.47947 15.85742,17.98715 l 1.03289,2.70924 -0.0449,5.68934 -0.0449,5.68934 -1.07442,3.25108 -1.07443,3.25108 -1.61723,-0.12326 c -5.14378,-0.39097 -17.5495,-5.85061 -25.84254,-11.3729 -7.6881,-5.11939 -7.73727,-5.11618 -2.2691,0.14765 5.31802,5.11932 18.75272,15.43751 28.17584,21.63979 10.72379,7.05831 31.45793,19.11755 31.97723,18.59832 0.13738,-0.13739 -0.86938,-3.03666 -2.23758,-6.44239 l -2.48769,-6.19221 -4.46186,-4.63083 -4.46193,-4.63083 -1.94875,-3.49683 c -1.07179,-1.92326 -2.63124,-5.44744 -3.46537,-7.83158 l -1.51656,-4.33475 0.0193,-8.6695 0.0193,-8.6695 1.2061,-4.84667 c 1.4713,-5.91211 4.35497,-13.31324 7.26008,-18.63343 l 2.16991,-3.97376 0.42114,0.45196 c 0.23176,0.24845 3.41363,6.18174 7.07064,13.18509 3.657067,7.00335 7.723717,14.68394 9.037027,17.06808 3.24537,5.8915 5.31827,10.77971 6.11832,14.42817 l 0.66875,3.04943 -0.24716,4.5364 -0.24717,4.53633 -0.97145,1.89643 c -1.26066,2.46111 -2.90023,4.23871 -4.84038,5.24778 l -1.55745,0.80999 -0.69489,-0.72602 c -0.38198,-0.39931 -3.18354,-4.6273 -6.225257,-9.39552 -3.04167,-4.76828 -5.35667,-8.05993 -5.14449,-7.31491 0.2125,0.74502 1.26079,4.02396 2.33021,7.28653 l 1.94432,5.93201 3.643587,7.34316 c 6.25884,12.61405 12.45997,20.887 22.84229,30.47421 11.32558,10.4582 18.79617,16.67095 31.55949,26.24597 10.76237,8.07387 25.78117,18.76151 26.02371,18.5189 0.12519,-0.12518 -0.43655,-3.95071 -1.24738,-8.50149 l -1.4747,-8.2741 -8.39974,-5.84444 c -4.61986,-3.21449 -10.1711,-7.29302 -12.33601,-9.06336 -2.16496,-1.7704 -4.84711,-3.53991 -5.96032,-3.93229 -3.53785,-1.24686 -8.40102,-4.50096 -11.78723,-7.88717 -5.49707,-5.49713 -8.88341,-12.09494 -10.8683,-21.1757 l -0.94013,-4.30098 0.003,-8.39858 0.003,-8.39858 0.9504,-5.41842 c 0.52257,-2.98016 1.07032,-5.54034 1.21682,-5.68934 0.14637,-0.14894 3.83952,3.38923 8.20682,7.86278 4.36723,4.47355 11.49622,11.54463 15.84208,15.71349 l 7.90155,7.57973 2.37362,4.85919 2.37354,4.85925 0.18682,4.89398 0.18682,4.89392 -0.97986,1.88551 c -0.53927,1.037 -1.61228,2.23597 -2.38523,2.66443 l -1.40531,0.77899 -3.47128,-2.07894 -3.47128,-2.07894 -4.7365,-4.75153 -4.73651,-4.75153 1.96307,3.0823 c 3.41992,5.36995 7.09021,9.61091 14.25047,16.46648 l 6.96034,6.66406 3.88484,2.08838 c 2.13666,1.14858 3.99739,1.97584 4.13497,1.83826 0.13738,-0.13738 9.6e-4,-3.51564 -0.30366,-7.5068 -1.66621,-21.84194 0.3165,-59.57663 4.85123,-92.32616 1.15544,-8.3444 2.86408,-20.77965 3.79702,-27.634 0.93287,-6.85429 2.53205,-17.32186 3.55364,-23.26125 1.0215901,-5.93933 1.7897301,-10.86657 1.7069801,-10.94932 -0.0828,-0.0828 -3.0600901,9.80761 -6.6163001,21.97856 l -6.46582,22.12905 -0.55596,-0.23946 c -0.30559,-0.13161 -1.56799,-1.50527 -2.80477,-3.05206 -5.3071,-6.63717 -8.48166,-13.91915 -9.45619,-21.69083 l -0.55339,-4.41564 0.6086,-5.65262 0.6086,-5.65268 2.05185,-5.99954 c 1.12848,-3.29981 3.31406,-9.0475 4.85681,-12.77269 3.13456,-7.56875 22.9553501,-46.73185 23.7926901,-47.01092 l 0.53606,-0.17847 2.43126005,4.22388 c 3.81441995,6.62696 7.19857995,13.61702 10.92446985,22.56456 6.02504,14.46888 8.67464,24.07625 10.10947,36.65647 l 0.64886,5.68934 -0.34346,6.50216 -0.34347,6.50209 -1.02101,4.87665 c -0.56174,2.68208 -1.77817,6.83323 -2.70366,9.22462 l -1.68258,4.3481 -2.83244,4.3214 -2.8324999,4.32146 -3.81281,3.8037 c -2.09705,2.09203 -4.97872995,4.53029 -6.40373995,5.41842 l -2.59093005,1.61472 -1.32275,4.33475 c -1.70216,5.57821 -3.81275,14.66988 -4.5283,19.5064 -0.8103801,5.47742 -1.3676301,13.27517 -0.9486701,13.27517 0.7185801,0 8.3092901,-4.01408 13.0652401,-6.90911 4.48825,-2.7321 13.8169999,-9.61553 13.8169999,-10.19518 0,-0.13674 -0.92734,0.33704 -2.06077,1.0526 -4.08861,2.58097 -9.8283499,5.19482 -13.3502799,6.07947 l -3.59248,0.90238 -0.38712,-0.38712 c -0.21314,-0.2125 -0.38648,-2.74384 -0.38648,-5.62463 l 3.9e-4,-5.23783 1.2267,-2.66064 c 3.0262,-6.56353 7.62538,-10.72475 18.0614299,-16.34155 17.05761,-9.18045 20.68239,-11.18915 26.71571,-14.80462 3.54748,-2.12587 6.55043,-3.7648 6.67318,-3.64205 0.12262,0.12262 -0.66901,4.0881 -1.75949,8.81189 -2.24554,9.72768 -6.00603,21.48872 -8.36481,26.16148 l -1.5886,3.14701 -2.4909,2.49084 c -6.21468,6.21468 -25.2568,16.6149 -30.4207299,16.6149 h -1.40422 l -7.06145,3.87047 -7.0614601,3.87046 0.32485,10.6239 0.3248401,10.62383 1.39176,9.37992 c 0.76544,5.15893 1.88693,11.98619 2.49213,15.17159 1.13862,5.99287 7.238,30.46054 9.21948,36.98414 l 1.1263,3.7083 6.0503299,-4.40415 c 3.32767,-2.42228 7.78741,-5.68221 9.91065,-7.24436 l 3.86032,-2.8402 0.34667,-3.97479 0.34668,-3.97479 -0.50589,-7.04399 -0.50588,-7.04399 -1.59014,-3.52194 c -1.95015,-4.31919 -2.74422,-7.46999 -3.17384,-12.59259 l -0.32998,-3.9337 0.60796,-3.90256 c 0.33447,-2.14642 1.356,-5.96937 2.27006,-8.49546 l 1.66197,-4.59295 3.32016,-5.05063 3.32015,-5.05057 5.17659,-5.19674 c 2.84707,-2.85825 6.88337,-6.47423 8.96943,-8.03554 l 3.79292,-2.83873 0.35501,9.11921 c 0.19517,5.01551 0.77822,14.6053 1.29502,21.31064 l 0.93967,12.1915 -0.88279,4.60567 -0.8828,4.60566 -1.64791,3.35123 -1.64791,3.35116 -2.73223,2.4565 -2.73216,2.45649 -1.80282,0.33833 c -0.99155,0.18617 -2.25388,0.25486 -2.80516,0.15279 l -1.00233,-0.18553 -1.27774,-3.79292 -1.27768,-3.79291 -0.31907,-7.04399 -0.31906,-7.04393 -0.67338,3.52199 c -0.37043,1.93707 -0.83901,6.20409 -1.0415,9.48226 l -0.36785,5.96025 0.63877,7.04399 c 0.62144,6.85082 1.27158,10.90214 1.84096,11.47151 0.84774,0.84781 26.20077,-20.17561 35.35304,-29.31568 l 6.54748,-6.53882 4.14774,-5.58431 c 7.86105,-10.58357 13.31106,-21.53559 16.6221,-33.40256 0.66118,-2.36995 1.32512,-4.6863 1.47528,-5.14757 0.15022,-0.46094 -0.69521,1.00773 -1.87871,3.26431 -2.25902,4.30733 -9.47204,15.35141 -10.40119,15.92566 -0.29788,0.18425 -1.25149,-0.0321 -2.11881,-0.4802 -5.1839,-2.68074 -7.18503,-10.15422 -5.23423,-19.54801 l 0.78765,-3.79291 2.86582,-5.68934 c 1.5762,-3.12916 6.37723,-12.36785 10.6689,-20.53044 l 7.80308,-14.84116 0.7924,1.0241 c 2.914363,3.76653 8.549573,18.41451 9.878553,25.678 l 0.64442,3.522 -0.0193,5.96025 -0.0193,5.96032 -1.11878,4.33475 c -0.61503,2.38408 -2.10726,6.34603 -3.31528,8.80432 l -2.19649,4.4695 -4.715193,4.95054 -4.71519,4.95055 -2.52037,6.29338 c -1.38617,3.46133 -2.43762,6.37979 -2.33651,6.4854 0.24588,0.25679 11.879243,-6.15998 20.299393,-11.19642 16.64957,-9.9588 34.14309,-22.88479 41.99291,-31.02863 l 3.79291,-3.93498 -2.16741,1.63051 c -9.96207,7.49441 -22.66715,13.79062 -31.4655,15.59331 l -1.66409,0.3409 -0.66381,-1.45693 c -1.15975,-2.54534 -2.22288,-7.95702 -2.23116,-11.3571 l -0.006,-3.28812 0.87317,-2.94306 c 2.59599,-8.74955 8.05178,-14.68316 20.79904,-22.62067 3.02285,-1.8823 12.03061,-7.03944 20.01717,-11.46034 13.17225,-7.29135 26.86118,-15.44476 32.98765,-19.64822 1.2875,-0.88337 2.45206,-1.49499 2.5879,-1.35915 0.44426,0.44426 -1.36775,17.87673 -2.43492,23.42765 -3.01194,15.66689 -6.86456,25.60501 -14.14627,36.49129 l -3.3434,4.99843 -4.43015,4.45089 c -7.55893,7.5943 -16.39618,12.8485 -26.56831,15.79624 -2.64446,0.76634 -6.4906,1.54975 -8.54694,1.74087 l -3.7388,0.34732 -9.33093,6.29421 c -19.50788,13.15916 -23.374113,16.52541 -54.150313,47.14767 -14.22017,14.1491 -25.78336,25.79715 -25.69592,25.88453 0.0873,0.0873 2.44712,-0.34026 5.2438,-0.95091 7.552,-1.64824 17.64979,-3.08474 26.80065,-3.81275 l 8.12766,-0.64655 12.19149,0.34282 c 6.705283,0.18875 13.776373,0.61374 15.713433,0.94436 l 3.522,0.60154 6.23124,-0.34538 c 32.16969,-1.78196 63.26605,-10.59251 82.4417,-23.35819 6.19247,-4.12251 7.27306,-5.29452 2.81665,-3.05495 -6.9622,3.49894 -19.12539,6.82578 -26.45551,7.23613 l -3.23818,0.18104 -0.78225,-1.6205 c -0.43013,-0.89126 -0.89198,-2.76272 -1.02615,-4.15884 l -0.24396,-2.53841 1.13002,-3.72037 1.13003,-3.72037 2.09422,-3.22854 c 1.15178,-1.77574 3.15048,-4.17811 4.44151,-5.33863 l 2.34729,-2.11001 4.92403,-2.28996 c 8.14345,-3.7872 63.01029,-24.44668 63.53395,-23.92295 0.33191,0.33191 -2.41123,8.71168 -5.08426,15.53226 -10.20513,26.03989 -25.27991,43.16004 -43.13616,48.98888 -5.02873,1.64156 -8.52017,2.07695 -17.40493,2.17042 l -7.07256,0.0745 -16.39072,5.90377 c -9.01495,3.24709 -16.39079,6.07247 -16.39079,6.27868 0,0.58485 14.00562,6.351673 23.29926,9.593058 9.64519,3.363939 17.66609,5.521331 26.53114,7.135924 l 6.21198,1.131435 5.70859,-0.03852 5.70854,-0.03852 -5.66616,-1.310549 c -6.81616,-1.576459 -9.95181,-2.577828 -14.78839,-4.722701 l -3.65746,-1.621976 v -0.76178 c 0,-2.691781 5.10333,-9.061621 9.18013,-11.458351 l 2.46947,-1.45178 5.1475,0.0321 5.14757,0.0321 13.08475,3.62972 c 11.34099,3.145983 27.40116,7.020365 33.92013,8.183 1.11757,0.199016 2.03195,0.584849 2.03195,0.856345 0,0.27156 -1.64586,1.817781 -3.65746,3.435905 -10.17469,8.184287 -17.76771,12.559867 -27.57648,15.891386 l -5.88238,1.997922 -7.14613,0.235609 -7.1462,0.235609 -4.01671,-0.893644 c -4.88294,-1.086368 -10.98456,-3.936141 -14.61293,-6.825139 l -2.6923,-2.143654 -5.76304,-1.848789 c -16.84982,-5.405323 -45.71233,-10.909193 -64.11311,-12.22584 -30.563643,-2.186988 -55.610893,2.647804 -71.066373,13.717751 -5.95403,4.264516 -12.66759,12.057898 -15.93189,18.494315 -2.08536,4.111788 -4.37487,11.470096 -5.31115,17.069624 l -0.93909,5.61608 0.30173,7.35074 0.30173,7.35079 1.46392,4.60567 c 1.79795,5.65628 3.89827,9.90629 7.42264,15.0197598 l 2.69621,3.91194 5.77215,5.57032 5.77216,5.57025 5.68568,3.8546702 c 8.31865,5.63965 14.25304,8.81934 25.19208,13.49813 18.36258,7.85405 35.820093,13.03339 62.041083,18.40655 27.44109,5.62322 68.60661,10.38193 85.87113,9.9267 l 6.49112,-0.17141 3.69835,-6.23117 C 243.3405,38.65018 253.95727,16.88688 258.01571,6.5863498 270.34819,-24.71377 277.22276,-55.429179 279.53564,-89.563798 l 0.62401,-9.211335 -0.30302,-16.797167 -0.30301,-16.79716 -0.86347,-8.1276 c -5.04055,-47.44394 -19.22368,-90.26552 -42.98221,-129.77156 -12.56243,-20.88899 -27.17389,-39.54065 -44.80275,-57.1914 -17.69658,-17.71848 -34.60346,-31.01091 -55.68491,-43.78032 l -8.80997,-5.33638 -12.46241,-6.12614 c -29.677643,-14.5888 -57.496083,-22.77039 -91.565673,-26.93013 l -9.75907,-1.19153 H -7.6959429 -28.015103 l -9.88914,1.20636 c -33.52069,4.08912 -62.268407,12.55049 -91.435597,26.91254 -46.99134,23.13875 -86.21826,58.10596 -115.84838,103.26842 -18.5166,28.22315 -32.78125,61.05512 -40.97979,94.32023 -4.12027,16.71762 -6.43931,30.58913 -8.27481,49.4965 l -0.68384,7.04393 0.0128,19.23548 0.0128,19.235426 0.9475,9.482253 c 4.75994,47.637821 18.65263,90.662911 42.034,130.177941 l 2.80541,4.74113 9.05488,-1.3e-4 c 4.9802,-6e-5 13.79428,-0.37042 19.58678,-0.82379 z m 34.90828,-60.9012302 c -4.78748,-1.29836 -8.1692,-2.9877998 -12.50492,-6.2469698 l -3.35232,-2.51999 -2.54303,-3.36028 c -2.98709,-3.94699 -5.26646,-8.5888 -6.4289,-13.09188 l -0.83369,-3.22944 v -5.36186 -5.3618 l 0.82085,-3.167748 c 0.45131,-1.742284 1.31099,-4.311253 1.9101,-5.708791 0.59897,-1.397602 1.0221,-2.595162 0.94012,-2.661222 -0.0822,-0.06612 -2.09968,0.09822 -4.48382,0.36529 -2.38408,0.267066 -5.02238,0.416648 -5.86287,0.332548 l -1.52811,-0.153434 2.25125,-3.475709 c 1.23813,-1.91164 3.6457,-4.870166 5.35011,-6.574573 l 3.09886,-3.098863 2.6801,-1.350095 c 1.47413,-0.742585 4.50885,-1.779199 6.74399,-2.303701 l 4.06383,-0.953605 5.68934,-0.186175 c 3.12917,-0.102076 7.6897,-0.348599 10.13451,-0.546972 l 4.44517,-0.360796 3.95341,0.599615 3.95341,0.599614 6.23124,-1.215407 6.23118,-1.215342 -11.92058,0.182323 -11.92052,0.182324 1.35459,-1.090155 c 2.03709,-1.63931 8.84945,-4.355614 14.56383,-5.807015 l 5.0815,-1.290711 2.77518,0.0064 c 5.82846,0.01926 13.46622,2.709178 20.29117,7.152744 l 3.42807,2.231926 -0.83317,0.466082 c -1.62923,0.911812 -19.27022,7.480028 -20.08978,7.480028 -1.23113,0 -1.06826,0.364006 1.53872,3.435585 3.42319,4.033594 5.47029,7.616643 7.16943,12.548824 l 1.49332,4.334751 -0.0128,6.50209 -0.0128,6.50216 -1.45923,4.45095 -1.45923,4.45101 -2.71695,4.06223 -2.71701,4.06222 -3.01322,2.68568 c -3.32073,2.95969 -7.70646,5.4817198 -12.50055,7.1884398 l -3.12929,1.1141 -6.50216,0.22149 -6.50209,0.22148 z m -13.47521,-60.7252738 0.33126,-0.535416 -0.84094,0.322919 c -0.93871,0.360154 -1.11044,0.748555 -0.33126,0.748555 0.28055,0 0.65881,-0.241387 0.84087,-0.535416 z m 78.1673,-47.679296 c -10.84287,-1.36755 -22.9147,-8.1188 -34.04236,-19.03827 -2.95859,-2.90331 -5.37926,-5.50894 -5.37926,-5.79038 0,-0.63749 2.64767,-1.18902 5.70847,-1.18902 2.90806,0 29.54776,-2.99846 36.82627,-4.14498 l 5.41842,-0.85359 3.01406,0.27156 3.01399,0.27156 2.72414,1.3804 2.72407,1.38046 1.783497,2.03124 c 1.8945,2.15772 4.33603,6.90379 4.34483,8.4459 l 0.005,0.92523 -3.92837,1.17342 c -5.356657,1.59996 -13.165377,3.17892 -16.119867,3.25949 l -2.43826,0.0668 2.43826,0.56109 2.43833,0.5611 9.48225,0.0193 9.482247,0.0193 5.14751,-1.13041 c 2.83115,-0.62144 5.5133,-1.27473 5.96032,-1.45114 l 0.81275,-0.321 1.53287,2.78224 1.53293,2.78224 -0.61823,0.38198 c -0.34025,0.20993 -3.78604,0.68467 -7.65773,1.05439 l -7.0393,0.67223 -4.17021,2.10263 c -2.293687,1.15641 -5.633227,2.48557 -7.421347,2.95364 -4.07289,1.06621 -10.80366,1.41956 -15.57547,0.81776 z m 221.20165,-2.10879 c -3.388333,-1.11096 -8.666033,-4.48677 -8.666033,-5.54309 0,-0.8776 10.281013,-11.21883 13.735283,-13.81572 1.74305,-1.31049 3.01778,-2.38267 2.83263,-2.38267 -0.99996,0 -9.562893,4.7627 -14.455653,8.04029 -5.95897,3.99174 -14.03277,10.59803 -14.03277,11.4821 0,1.13272 -0.95316,0.41537 -2.65455,-1.99869 l -1.77939,-2.52441 0.72686,-0.41601 c 0.39995,-0.22855 2.79944,-2.08125 5.33258,-4.11648 l 4.60567,-3.7004 1.57543,-2.97682 1.57544,-2.97682 4.38482,-4.34721 4.38489,-4.34727 4.365373,-2.26325 c 5.33862,-2.76779 10.74292,-4.2961 17.74737,-5.01872 l 5.31557,-0.54826 6.08268,0.53349 c 6.82148,0.59833 9.37139,1.02962 16.19524,2.74173 l 4.73323,1.18754 -0.29467,0.477 c -0.16242,0.26257 -2.29221,1.98733 -4.73323,3.83297 -7.7808,5.88303 -24.34499,18.96483 -28.55031,22.54807 -2.23507,1.90445 -5.28296,4.08624 -6.77301,4.84847 l -2.70924,1.38579 -3.79292,0.17205 c -2.08606,0.0944 -4.40402,-0.0257 -5.15097,-0.27349 z m -251.68286,-33.54232 -5.41842,-1.91813 -6.8711,-0.3486 -6.87111,-0.34795 -4.53678,-2.24811 -4.53672,-2.24804 -2.5594,-2.25285 c -3.40792,-2.99974 -6.96259,-8.07258 -9.5288,-13.59828 -2.62155,-5.64498 -5.04369,-12.37761 -4.45294,-12.37761 0.24524,0 1.88558,0.50139 3.64577,1.11443 1.76026,0.61309 8.19893,2.57262 14.30825,4.3549 15.49881,4.52151 18.99526,6.41857 22.23234,12.06259 l 1.59861,2.78724 0.005,1.92833 0.005,1.92834 -0.72319,0.98904 -0.7232,0.98904 -3.47609,-0.37299 c -1.91184,-0.2048 -5.12196,-0.92677 -7.13355,-1.604 -2.01154,-0.67723 -3.65739,-1.13638 -3.65739,-1.02025 0,0.1162 2.25542,1.27672 5.01204,2.57924 5.65242,2.67073 14.77561,5.50586 19.6418,6.10394 l 3.25108,0.39931 0.16884,1.46328 c 0.0931,0.80479 -0.0989,1.963 -0.42564,2.57378 l -0.59447,1.11045 -1.47099,-0.0648 c -0.80909,-0.0321 -3.9093,-0.92793 -6.88946,-1.98291 z m 305.59975,-12.07671 -3.79285,-1.08919 -5.6894,0.32227 c -3.12911,0.17719 -6.60372,0.46159 -7.72123,0.63236 l -2.03194,0.30944 v -3.09701 -3.097 l 2.30286,0.45389 c 5.15707,1.01671 19.37916,0.10271 25.21603,-1.62089 l 2.18192,-0.6443 -6.04545,0.005 c -3.32497,0.003 -6.71228,-0.18168 -7.52728,-0.40958 l -1.48177,-0.41472 -0.33768,-1.34464 -0.33768,-1.34471 1.27742,-2.56331 1.27748,-2.56339 2.54727,-1.80481 c 1.40101,-0.99264 3.93396,-2.29215 5.62874,-2.88784 l 3.08147,-1.08303 8.45918,-0.25808 c 4.6526,-0.14188 11.96064,-0.50717 16.24018,-0.81231 4.27953,-0.30494 7.91863,-0.41664 8.08689,-0.24844 0.48663,0.48662 -5.5083,8.98567 -9.11606,12.9229 l -3.29229,3.59288 -4.00349,2.67772 c -2.20195,1.47278 -5.41861,3.21962 -7.14825,3.88189 l -3.14464,1.20417 -5.41842,0.18489 -5.41848,0.1849 z m -190.414793,-29.92223 c -0.25937,-0.68256 -2.18866,-3.80852 -4.28699,-6.94654 l -3.81525,-5.70552 -2.18686,-1.51547 c -5.26942,-3.65174 -8.87372,-8.89522 -10.66499,-15.51531 l -0.94256,-3.48328 0.0321,-5.96026 0.0321,-5.96032 1.36056,-5.14751 c 1.59829,-6.04718 3.53869,-11.37874 4.14113,-11.37874 0.23432,0 2.55593,3.29416 5.15925,7.32031 2.60331,4.02608 6.55769,9.8781 8.78756,13.00437 l 4.0542,5.68414 1.10556,3.11549 1.10557,3.11543 0.0321,4.06383 0.0321,4.06383 -0.90179,1.7281 c -0.855,1.63841 -2.80811,3.41941 -3.7499,3.41941 -0.8776,0 -5.27751,-4.49801 -6.9511,-7.10608 -0.94879,-1.47855 -1.83723,-2.57622 -1.97423,-2.43922 -0.9045,0.90449 7.45589,14.62931 11.96924,19.64918 l 2.40532,2.67528 -0.56494,1.06076 c -0.76808,1.44222 -2.66906,3.49907 -3.23401,3.49907 -0.25358,0 -0.67312,-0.55852 -0.93261,-1.24095 z m 96.52783,-23.35254 -0.62337,-7.26266 -2.05256,-4.79742 -2.05262,-4.7975 0.0321,-6.23117 0.0321,-6.23118 1.39086,-3.65289 c 0.76499,-2.0091 2.21434,-5.04389 3.22078,-6.74412 l 1.82992,-3.09123 5.77626,-5.98921 5.77626,-5.98921 0.39033,0.38648 c 0.21442,0.2125 0.7076,4.05927 1.09561,8.54784 0.38776,4.48857 1.11719,11.00716 1.62044,14.4857 l 0.91489,6.32458 -0.27669,3.44695 -0.2767,3.44694 -1.8208,3.6253 -1.8208,3.62522 -1.84108,1.21913 -1.84115,1.21913 h -1.48659 -1.48658 l -0.85897,-2.14686 c -0.4725,-1.18074 -1.16944,-4.41153 -1.54892,-7.17939 l -0.68988,-5.03258 -0.30879,3.79291 c -0.50204,6.16749 0.88279,19.11685 2.47337,23.1272 l 0.36144,0.91162 -1.53402,0.78072 c -0.8437,0.42949 -2.03664,0.93537 -2.65095,1.12437 l -1.11699,0.34347 z m -137.90495,-11.84553 -0.29467,-8.80496 -0.57714,-1.62551 -0.57715,-1.6255 0.27798,2.16734 c 0.30109,2.35056 -0.55467,7.78587 -1.3517,8.58296 l -0.49369,0.49304 -2.5402,-1.22972 -2.54021,-1.22966 -1.51804,-2.39377 c -0.83497,-1.31658 -1.76674,-3.53689 -2.07059,-4.93398 l -0.55275,-2.54021 -0.28055,-13.1397 c -0.15472,-7.22683 -0.10914,-13.13894 0.10015,-13.13798 0.20929,9.6e-4 3.45574,2.98787 7.21386,6.63755 l 6.83291,6.63588 1.14735,2.44924 1.1473,2.44918 0.61566,5.41636 0.61566,5.41631 -0.66278,4.05503 c -0.36465,2.23026 -0.77385,6.55422 -0.9097,9.60892 l -0.24716,5.55388 h -1.52029 -1.52028 z"
       id="path1" /></g></svg>
