<?xml version="1.0" encoding="UTF-8"?>
<!-- Created with Inkscape (http://www.inkscape.org/) -->
<svg width="760.79px" height="800px" version="1.1" viewBox="0 0 201.29 211.67" xml:space="preserve" xmlns="http://www.w3.org/2000/svg"><path d="m27.063 211.63c-3.9824-0.23235-7.0046-1.873-9.0156-4.8943-1.2534-1.8831-1.8785-3.7453-2.0837-6.2067-0.21356-2.5623 0.27482-5.1442 1.3871-7.3333l0.45119-0.88798h-0.57288c-0.31508 0-0.59155-0.0302-0.61436-0.0671-0.0228-0.0369-0.08826-1.2379-0.14544-2.6688-0.14754-3.6922 0.04831-5.5114 0.85393-7.9318 0.74643-2.2425 1.7871-3.9376 3.82-6.2222l0.43902-0.49338-2.0287-0.054c-1.1158-0.0297-2.2465-0.0756-2.5127-0.10204l-0.48399-0.048 0.04756-0.93271c0.02615-0.51299 0.08367-1.671 0.1278-2.5734 0.12059-2.4655 0.466-4.155 1.1705-5.7253l0.24241-0.54029-0.18738-0.18846c-0.49149-0.49432-3.4701-5.423-5.0945-8.4297-13.466-24.926-16.521-54.885-8.3993-82.371 6.5656-22.219 20.246-41.762 38.58-55.113 14.441-10.516 31.174-16.871 48.626-18.467 3.4811-0.31838 4.877-0.37698 8.9797-0.37698 4.1027 0 5.4987 0.0586 8.9797 0.37698 26.473 2.4212 50.988 15.778 68.172 37.143 11.418 14.196 19.064 31.39 22.036 49.554 4.2909 26.228-0.97776 53.003-14.77 75.059l-1.0004 1.5999-3.2e-4 5.4593-3.1e-4 5.4593h-0.98912l0.44838 0.85858c0.47678 0.91296 0.94396 2.2103 1.1671 3.2411 0.0747 0.34513 0.15726 1.2299 0.18344 1.9662 0.0787 2.2141-0.27694 3.9379-1.1736 5.6881-0.23613 0.46089-0.44226 0.86622-0.45807 0.90073-0.0158 0.0345 0.25679 0.0627 0.60575 0.0627h0.63448v24.013h-10.919c-6.0626 0-10.919-0.0321-10.919-0.0722 0-0.0397-0.2918-9.5e-4 -0.64843 0.0862-0.95192 0.23241-2.4707 0.28501-3.4713 0.12021-0.67252-0.11077-1.5604-0.13421-5.0828-0.13421h-4.268v-0.67364l-0.23009 0.11814c-0.39099 0.20075-1.588 0.55055-2.3493 0.68653-0.98615 0.17614-3.063 0.17228-4.1977-8e-3 -2.3394-0.37127-4.0614-1.2334-5.5004-2.754l-0.74843-0.79081-0.3687 0.37948c-0.57669 0.59357-1.8847 1.5439-2.7114 1.9701-1.8708 0.96438-3.4616 1.3248-5.8568 1.3271-2.3612 2e-3 -4.0624-0.40909-6.1705-1.4918-0.0345-0.0177-0.0627 0.25329-0.0627 0.60225v0.63448l-9.0989 0.0114c-10.305 0.0129-30.283 0.012-42.21-2e-3l-8.0112-9e-3v-1.248l-0.56476 0.25367c-0.76019 0.34145-1.7532 0.62181-2.7968 0.7896-1.2125 0.19495-8.5054 0.28615-17.995 0.22502l-7.4255-0.0478v-0.28802c0-0.24007-0.02438-0.27859-0.14642-0.23144-1.0426 0.4028-2.3079 0.69477-3.284 0.75772-0.39115 0.0252-0.86178 0.0567-1.0458 0.0699s-0.78648-2e-3 -1.3387-0.0345zm2.4682-4.0494c1.5832-0.24104 2.4885-0.68878 3.5559-1.7587 0.50727-0.50847 0.87256-0.96715 1.1194-1.4055 0.36268-0.64421 0.78741-1.7538 0.8878-2.3195l0.05198-0.29284-1.1551-0.43841c-0.63529-0.24113-1.4816-0.56687-1.8806-0.72386l-0.72553-0.28545-0.14093 0.64019c-0.1632 0.74134-0.57912 1.6913-0.91296 2.0851-0.3543 0.41796-0.8971 0.69819-1.4483 0.74769-1.2841 0.11531-2.1224-0.66623-2.5037-2.3341-0.19662-0.86009-0.19757-3.3751-0.0016-4.2511 0.18199-0.81348 0.57415-1.6039 0.94913-1.913 0.83515-0.6884 2.1708-0.51808 2.9567 0.37702 0.2688 0.30615 0.7536 1.2268 0.75373 1.4314 5e-5 0.0805 0.42402 0.10458 1.8408 0.10458h1.8407v-5.8567h-3.514v0.50201c0 0.2761-0.01385 0.502-0.03077 0.502s-0.27161-0.16151-0.56599-0.35891c-1.9555-1.3113-5.1802-1.28-7.2309 0.0702-1.5051 0.99095-2.7965 2.9831-3.2636 5.0348-0.18106 0.79514-0.25068 2.9306-0.12382 3.7981 0.27705 1.8948 1.3426 3.9563 2.6051 5.0401 1.5814 1.3576 4.3516 1.9985 6.9366 1.605zm99.69-0.0774c2.2375-0.485 3.9212-1.7141 5.1111-3.7313 1.6423-2.784 1.5308-6.5133-0.27591-9.2316-1.1832-1.7801-2.7558-2.8592-4.7947-3.2898-0.98788-0.20861-2.961-0.2097-3.9298-2e-3 -2.5152 0.53881-4.5534 2.2265-5.5424 4.5892-0.57193 1.3663-0.69313 2.0155-0.6843 3.6656 7e-3 1.2875 0.0335 1.5602 0.2202 2.26 0.38814 1.4545 0.93126 2.4315 1.947 3.5025 1.2325 1.2996 2.6078 2.0062 4.5184 2.3217 0.82597 0.13636 2.6158 0.0925 3.4304-0.0841zm-2.5935-3.6975c-0.92393-0.48175-1.2215-1.549-1.2231-4.3862-1e-3 -2.4186 0.1648-3.4076 0.6768-4.0287 0.47271-0.57349 1.2127-0.73103 1.8911-0.40262 0.84873 0.41087 1.204 1.706 1.204 4.3895 0 1.98-0.21361 3.2842-0.64013 3.9085-0.39123 0.57269-1.3212 0.82584-1.9086 0.51956zm19.896 3.6528c1.9218-0.49925 3.1212-1.7175 3.6723-3.7301 0.17392-0.6351 0.18492-0.86945 0.21499-4.5808l0.0317-3.9115h1.1596v-3.8487h-5.4384v3.8487h0.75301l-2e-3 2.9911c-3e-3 4.3047-0.11946 5.1462-0.76607 5.5404-0.53122 0.32387-1.3849 0.16913-1.7284-0.3133-0.39763-0.55843-0.45423-1.1421-0.46426-4.7879l-9e-3 -3.3885 0.71117-0.0514v-3.8391h-7.4464v3.8487h1.0706l0.0399 3.7023c0.036 3.3349 0.057 3.7793 0.21166 4.4785 0.55277 2.4986 2.0431 3.8201 4.7414 4.2044 0.80884 0.11519 2.506 0.0301 3.2487-0.1628zm14.491 0.034c0.8175-0.1724 1.551-0.55701 2.1743-1.1401 0.9897-0.92583 1.4495-1.9076 1.5262-3.2589 0.0572-1.0083-0.11371-1.8365-0.56472-2.7358-0.62744-1.2512-1.2728-1.7927-3.8051-3.193-2.5064-1.386-2.6355-1.4928-2.6355-2.1822 0-0.496 0.34298-0.84335 0.88409-0.89534 0.67154-0.0645 1.106 0.0986 1.5925 0.59789 0.23944 0.24574 0.49228 0.60964 0.57612 0.82918l0.14942 0.39123h3.2403v-4.5181h-3.263v1.0037l-0.50411-0.37111c-1.8575-1.3674-4.6362-1.1028-6.1821 0.58871-0.76108 0.83275-1.1171 1.8656-1.1218 3.255-3e-3 0.96784 0.13912 1.5469 0.59435 2.4163 0.60629 1.1579 1.4335 1.827 3.7415 3.0264 1.863 0.96816 2.234 1.2464 2.3834 1.7875 0.19208 0.69567-0.21698 1.2667-0.95107 1.3275-1.0506 0.0871-1.873-0.5463-2.2731-1.7509l-0.13492-0.40621h-3.2496v5.1874h3.263v-1.075l0.48117 0.32132c1.1982 0.80009 2.6819 1.0891 4.0787 0.79455zm-115.92-1.9652v-1.9244h-1.3387v-8.3668h1.3387v-3.8487h-8.2831v3.8487h1.3387v8.3668h-1.3387v3.8487h8.2831zm11.255 1.8418c1.9339-0.13209 2.8771-0.37557 3.9409-1.0173 2.438-1.4706 3.7737-4.8625 3.2571-8.271-0.46704-3.0814-2.2645-5.3094-4.9905-6.1859-1.2364-0.39754-1.9187-0.44573-6.8735-0.48549l-4.6645-0.0374v3.8641h1.1714v8.3668h-1.1714v3.8487l4.0788-1e-3c2.2433-6.3e-4 4.6065-0.0373 5.2516-0.0813zm-2.5533-7.9499v-4.2062l0.73209 0.0465c0.9997 0.0635 1.5132 0.23639 1.9438 0.65428 0.40588 0.3939 0.68588 0.95593 0.89204 1.7906 0.19852 0.8037 0.20049 2.7866 0.0036 3.582-0.41294 1.6679-1.0529 2.2006-2.7557 2.2942l-0.81576 0.0448zm25.77 5.4388v-2.5937h-3.765v1.3387h-3.3467v-2.6774h2.8447v-3.263h-2.8447v-2.4299l3.3049 0.0454 0.04914 1.2132h3.7577v-5.1037h-13.889v3.8487h1.0877v8.3668h-1.0877v3.8487h13.889zm10.124 0.66934v-1.9244h-1.0877v-2.6774h1.8078l3.1658 6.5261h5.2339v-3.8487l-1.0458-4e-3 -0.96217-1.7713c-0.5292-0.9742-0.97334-1.8151-0.98697-1.8686-0.0136-0.0535 0.0876-0.14391 0.22503-0.20082 0.35031-0.14511 1.1188-0.97559 1.3803-1.4917 0.58986-1.164 0.6166-2.7624 0.0675-4.0348-0.39877-0.92402-1.4312-1.9124-2.3567-2.2562-1.2983-0.48224-2.8772-0.58777-8.7943-0.58777h-4.5951v3.8487h1.255v8.3668h-1.255v3.8487h7.9484zm-1.0877-9.078v-1.5478h0.86709c1.434 0 1.9374 0.15037 2.349 0.70156 0.13764 0.18436 0.1725 0.3554 0.1725 0.84629 0 0.4909-0.0349 0.66193-0.1725 0.84629-0.42981 0.57568-0.81607 0.69669-2.233 0.69957l-0.98309 2e-3zm19.16 9.078v-1.9244h-0.92034v-2.6774h3.4304v2.6774h-1.004v3.8487h7.6974v-3.8487h-1.0877v-8.3668h1.0877v-3.8487h-7.7006l0.045 3.8069 0.96218 0.0502v2.418h-3.4304v-2.4264h0.92034v-3.8487h-7.6974v3.8487h1.1714v8.3668h-1.0877v3.8487h7.6138zm72.791-0.66934v-2.5937h-3.765v1.3387h-3.3467v-2.6774h2.8447v-3.263h-2.8447v-2.4299l3.3049 0.0454 0.0492 1.2132h3.7577v-5.1037h-13.889v3.8487h1.0877v8.3668h-1.0877v3.8487h13.889zm-141.95-16.796c0.02681-0.40265 0.06903-1.8804 0.09382-3.284 0.02479-1.4035 0.06786-3.0131 0.09571-3.5768l0.05062-1.0249h-5.518l-0.05334 0.56476c-0.02934 0.31062-0.0536 0.76242-0.05393 1.004l-6.32e-4 0.43926h-5.7845l0.17338-0.24349c0.32936-0.46255 1.3283-1.3061 2.1505-1.816 0.45377-0.28142 1.4651-0.87958 2.2474-1.3293 4.2441-2.4396 5.7407-3.963 6.4621-6.5778 0.23048-0.83538 0.20487-2.8275-0.04773-3.7131-0.85646-3.0027-3.388-5.0358-6.9813-5.6065-1.0999-0.17471-3.2635-0.171-4.3168 7e-3 -2.6215 0.44404-4.6388 1.6598-5.6812 3.4238-0.64587 1.093-1.1905 3.2326-1.1905 4.6768v0.35938l1.3178 0.0538c0.72477 0.0296 2.2308 0.0789 3.3467 0.10962l2.0289 0.0558 9.48e-4 -0.70338c0.0016-1.2208 0.39737-2.1999 1.0187-2.5211 0.66221-0.34231 1.6515-0.27035 2.1595 0.15707 0.44294 0.37272 0.61832 0.81686 0.62328 1.5785 0.0039 0.59671-0.02697 0.73541-0.27924 1.255-0.36307 0.74784-1.5244 1.9183-3.6906 3.7196-2.5032 2.0815-3.8096 3.4299-4.8056 4.9602-1.0565 1.6233-1.6966 3.4916-1.9695 5.7493-0.09557 0.7906-0.11662 2.8718-0.02991 2.9584 0.03067 0.0307 4.2247 0.0558 9.3201 0.0558h9.2643zm47.253 0.56032c2.913-0.29619 5.1259-1.2643 7.0286-3.075 2.0348-1.9364 3.4702-4.6875 3.8778-7.432 0.15461-1.0412 0.17424-3.1179 0.0386-4.0828-0.5737-4.0813-3.1356-7.8811-6.4322-9.5404-2.9643-1.492-7.3405-1.7095-10.711-0.53223-2.6986 0.94243-5.271 3.3332-6.562 6.0988-0.86616 1.8555-1.216 3.3411-1.2828 5.4469-0.07094 2.2366 0.19153 3.9057 0.89862 5.7142 1.0165 2.5998 3.1528 4.9306 5.673 6.1895 2.0631 1.0306 4.8371 1.4809 7.4719 1.213zm-2.188-5.7632c-0.83363-0.25357-1.4052-0.92183-1.7488-2.0448-0.31714-1.0364-0.44849-2.423-0.45277-4.7796-7e-3 -3.7514 0.28942-5.3464 1.1751-6.3267 0.49211-0.54472 0.86623-0.69918 1.6964-0.70035 0.62997-9.5e-4 0.76137 0.0268 1.1508 0.24258 1.0507 0.58214 1.5082 1.8431 1.7028 4.6927 0.11194 1.6391 0.0521 4.0859-0.13477 5.5114-0.25788 1.9673-0.83592 2.9681-1.9422 3.3628-0.34275 0.12228-1.1095 0.14458-1.4465 0.0421zm75.051-3.7287v-9.4963h1.9244v-5.9404h-8.9524v5.9347l1.7989 0.0476 0.0219 3.4095c0.012 1.8752-7e-3 3.4083-0.0418 3.4069-0.035-1e-3 -1.8709-2.8799-4.0798-6.3966l-4.016-6.394-10.584-8e-3v5.9404h1.9244v12.801h-1.9244v5.8567h9.1198v-5.8567h-1.9244l1e-3 -4.3298c6.4e-4 -2.3814 0.0289-4.2891 0.0628-4.2394 0.0338 0.0497 2.1488 3.3912 4.6999 7.4255l4.6384 7.3351h7.3312zm16.032 9.406c3.2606-0.4535 5.7879-3.1189 6.1302-6.465 0.26856-2.625-0.68347-5.1801-2.5867-6.9422-0.59344-0.54943-2.3311-1.6234-5.101-3.1526-2.8503-1.5736-3.044-1.7534-2.993-2.779 0.0333-0.66954 0.19521-0.93744 0.73884-1.2224 0.3236-0.16959 0.45809-0.18986 1.041-0.15684 1.2349 0.0699 2.0783 0.69092 2.7094 1.9949 0.18943 0.39137 0.34442 0.75589 0.34442 0.81005 0 0.0733 0.64086 0.0985 2.51 0.0985h2.51v-7.0281h-5.0138l-0.0482 1.4921-0.502-0.38186c-0.64247-0.4887-1.6579-0.97592-2.51-1.2043-0.52621-0.14105-0.92878-0.18148-1.8825-0.1891-1.4762-0.0118-2.095 0.12009-3.3176 0.707-0.69061 0.33154-0.98367 0.5349-1.5681 1.0881-1.4692 1.3907-2.1424 3.0892-2.1424 5.4051 0 1.5636 0.39461 2.8843 1.2494 4.1819 1.0409 1.58 1.9943 2.279 5.8403 4.2816 1.8431 0.9597 2.3225 1.2504 2.7322 1.6568 0.69456 0.68892 0.73913 1.8784 0.0917 2.4469-0.37709 0.33109-0.86339 0.45616-1.5933 0.4098-1.3912-0.0884-2.4658-1.0619-3.004-2.7212l-0.14245-0.43926h-5.0066v7.8648h5.0201v-1.6038l0.31375 0.24349c1.6887 1.3105 3.9931 1.9088 6.1802 1.6046zm-62.006-0.68361c1.8657-5.9077 2.7463-8.6502 2.7943-8.7021 0.0322-0.0349 0.7318 2.0645 1.5546 4.6654l1.496 4.7288 6.9341-0.0436 2.4577-7.3209c1.3517-4.0265 2.7822-8.2716 3.1787-9.4335l0.72101-2.1126h1.4862v-5.9404h-8.9525v5.9404h0.80461c0.72479 0 0.80088 0.0145 0.76711 0.14642-0.0206 0.0805-0.61506 2.4348-1.321 5.2316-0.70591 2.7969-1.3094 5.0559-1.3411 5.0201-0.0525-0.0594-3.344-10.25-3.344-10.354 0-0.0245 0.35768-0.0446 0.79485-0.0446h0.79484v-5.9404h-9.7055v5.9404h0.84563c0.64114 0 0.83637 0.0253 0.80736 0.10458-0.0211 0.0575-0.76721 2.4103-1.6581 5.2283-0.89093 2.8181-1.6443 5.0959-1.6742 5.0619-0.0548-0.0624-2.5877-10.154-2.5877-10.311 0-0.0505 0.31754-0.0842 0.79484-0.0842h0.79484v-5.9404h-11.546v5.9404h1.5758l6.303 18.909h7.0069zm-47.483-2.4891v-2.9284h-1.9244v-12.801h2.5937v4.4344h4.0997v-10.375h-22.088v10.375h4.1834v-4.4344h2.5937v12.801h-1.9244v5.8568h12.466zm-34.823-26.986c3.701-0.28034 10.172-0.98012 12.749-1.3788 6.2517-0.96689 11.653-1.991 15.201-2.8822 8.2597-2.0748 13.149-3.7988 18.377-6.4804 3.611-1.852 6.1309-3.6131 8.5638-5.9852 1.2247-1.1941 1.8584-1.9383 2.7104-3.1832 2.2318-3.2611 3.1581-6.5535 2.9128-10.354-0.16453-2.5485-0.55942-4.6124-1.2216-6.3846-2.3516-6.2939-7.7544-10.284-15.852-11.708-3.5619-0.62614-6.0923-0.83498-9.2035-0.75957-3.9908 0.0967-5.8893 0.24603-10.249 0.80603-4.3037 0.55276-11.27 2.0916-15.562 3.4376-1.342 0.42085-1.7394 0.61849-2.3702 1.1788-1.0159 0.90249-2.6782 1.7307-4.3263 2.1557-3.5154 0.90641-7.2263 0.37099-11.292-1.6292-1.641-0.80733-2.7139-1.4896-4.5969-2.9234-2.9686-2.2603-2.9282-2.2253-2.5647-2.2253 0.20804 0 4.8447-1.001 6.6178-1.4287 0.75928-0.18315 3.2442-0.83953 5.5221-1.4586 2.2779-0.61909 4.4395-1.1668 4.8037-1.2172 1.609-0.22259 3.2516 0.35442 4.4366 1.5585 0.7703 0.78271 1.8059 2.4529 1.697 2.7368-0.06465 0.16848-1.6245 0.90568-2.8804 1.3613-1.5866 0.57557-4.5358 1.2926-5.3167 1.2926-0.20757 0-0.24179 0.0217-0.16125 0.10224 0.29654 0.29654 4.5038 0.0919 6.541-0.31809 3.2991-0.66403 7.1235-1.7678 10.5-3.0304 2.2833-0.85379 6.0135-2.4462 5.926-2.5297-0.061-0.0582-4.3798-1.6178-9.8396-3.5533-1.792-0.63523-1.8318-0.64501-2.4264-0.59558-3.0106 0.25025-4.5871 0.10508-6.7959-0.62577-5.7373-1.8984-10.393-7.0247-13.822-15.219-0.43236-1.0333-2.0334-5.6049-2.0334-5.8061 0-0.0265 0.19672 0.0294 0.43716 0.12414 0.24044 0.0948 2.5088 0.92692 5.0408 1.8492 6.4893 2.3637 14.903 5.6063 16.035 6.1794 0.68046 0.34465 1.575 1.0169 2.1152 1.5895 0.96304 1.0209 1.5219 1.9812 2.0345 3.496 0.26776 0.79127 0.30289 0.99283 0.30878 1.7714 0.0075 0.98632-0.13924 1.5594-0.4983 1.9466-0.17866 0.19268-0.26258 0.2227-0.52283 0.18709-0.1705-0.0233-0.95007-0.11971-1.7324-0.21417-3.0592-0.36936-5.3531-1.092-8.2413-2.5962l-0.96218-0.50111 0.48036 0.45905c1.4034 1.3412 4.6998 3.2928 7.7157 4.5682 5.2279 2.2108 11.753 3.7658 18.452 4.3969 4.5445 0.42818 4.3305 0.42721 7.3628 0.0335 2.7574-0.35803 5.7827-0.36767 11.002-0.0351 2.6501 0.16888 4.381 0.41711 8.4043 1.2053 1.1711 0.22943 2.1393 0.40711 2.1516 0.39484 0.042-0.042-10.624-10.472-10.851-10.611-0.12436-0.076-0.71133-0.67841-1.3044-1.3387-1.4443-1.608-3.8812-4.0211-5.4708-5.4174-2.3618-2.0746-3.5426-2.9692-8.3668-6.3387-3.8997-2.7238-3.3858-2.4384-4.6501-2.5825-2.0558-0.23424-3.5706-0.63735-5.3482-1.4232-2.4978-1.1043-4.4943-2.4628-6.3178-4.2988-4.3773-4.4074-7.0354-10.958-7.7735-19.157-0.27034-3.003-0.29251-3.4714-0.16195-3.4213 0.06232 0.0239 1.1487 0.70074 2.4142 1.504 3.1664 2.0099 4.3425 2.6982 9.8728 5.778 2.646 1.4736 5.3467 3.0092 6.0016 3.4125 3.0064 1.8517 4.8897 3.6553 5.9657 5.7136 1.0341 1.9781 1.1473 3.7983 0.40059 6.4416l-0.35043 1.2405-0.29837-0.0522c-0.63134-0.11047-2.4313-0.66056-3.3487-1.0234-2.5895-1.0242-4.6731-2.2178-7.23-4.1418l-0.99318-0.74735 0.3967 0.50493c0.97349 1.2391 3.1512 3.2054 5.5639 5.0238 3.4227 2.5796 5.5888 4.0452 9.1198 6.1704 2.7496 1.6549 7.1118 4.1103 7.1118 4.0032 0-0.17064-1.7349-4.3515-1.9354-4.6638-0.13903-0.21666-0.5706-0.66156-0.95903-0.98866-1.9043-1.6036-3.3729-4.1957-3.9684-7.0044-0.25342-1.1953-0.31117-3.2613-0.1304-4.6654 0.26106-2.0277 0.5716-3.3104 1.2356-5.1037 0.59002-1.5935 2.1013-4.677 2.2654-4.6223 0.05412 0.018 0.69575 1.1784 1.4258 2.5786 0.73009 1.4002 2.0941 3.9768 3.0312 5.726 1.8222 3.4014 2.1504 4.07 2.5417 5.1788 0.35336 1.0012 0.50947 1.9276 0.50947 3.0236 0 2.0838-0.63707 3.5165-1.8808 4.2299-0.71737 0.41149-0.42365 0.74213-3.1664-3.5644-0.64476-1.0124-1.2953-2.1042-1.4456-2.4264-0.15034-0.32212-0.27581-0.55319-0.27881-0.51349-0.0028 0.0397 0.1241 0.58716 0.28244 1.2166 1.3685 5.4398 4.3774 10.953 8.1297 14.896 1.3569 1.4258 5.0753 4.759 7.4792 6.7043 1.6313 1.3201 4.5731 3.5655 7.0699 5.3965 2.1723 1.593 5.9522 4.2834 6.3386 4.5117l0.25527 0.1508-0.0518-0.1982c-0.0285-0.10901-0.26258-1.3665-0.52016-2.7944-0.25759-1.4279-0.50107-2.677-0.54108-2.7757-0.04-0.0987-0.74363-0.64141-1.5636-1.2059-2.3355-1.6079-3.9994-2.811-4.903-3.545-0.45715-0.3714-0.97543-0.79195-1.1517-0.93456-0.17631-0.1426-0.63346-0.38218-1.0159-0.53239-1.7155-0.67374-3.1635-1.7065-4.479-3.1944-1.7708-2.003-2.9086-4.73-3.2941-7.8947-0.14452-1.1867-0.12087-4.0273 0.04512-5.4198 0.14649-1.2289 0.50743-3.3942 0.57746-3.4642 0.02318-0.0232 0.6722 0.61083 1.4423 1.4089 2.1492 2.2273 3.9156 3.9585 6.0205 5.9005 1.0564 0.97466 2.0625 1.9426 2.2357 2.151 0.91215 1.097 1.7372 2.5993 2.1202 3.8607 0.19713 0.64923 0.22878 0.90254 0.23494 1.8798 6e-3 0.99517-0.0158 1.1862-0.18558 1.6066-0.24047 0.59535-0.87287 1.3218-1.1507 1.3218-0.25285 0-1.7411-0.88568-2.5052-1.4909-0.88503-0.70098-2.267-2.1383-2.9692-3.0881-0.34458-0.46609-0.64105-0.83289-0.65882-0.81511-0.0528 0.0528 1.0618 1.9448 1.6352 2.7757 1.1004 1.5945 2.6859 3.3884 4.3355 4.9056 1.8438 1.6957 2.4694 2.1676 3.7338 2.8161 0.64519 0.33092 1.194 0.5807 1.2197 0.55508 0.0256-0.0256-0.0195-0.86685-0.1004-1.8694-0.19167-2.3766-0.26892-9.3885-0.13289-12.062 0.43127-8.4754 0.83264-13.023 1.596-18.083 0.22563-1.4956 0.54575-3.8111 0.71136-5.1456 0.53401-4.303 1.2851-9.3546 2.0139-13.544 0.39127-2.2495 0.69832-4.103 0.68232-4.119s-1.085 3.5735-2.3756 7.9766c-1.2906 4.4031-2.3859 8.0188-2.4342 8.0349-0.10796 0.036-1.1952-1.2768-1.854-2.2386-0.93876-1.3706-1.6982-3.1526-2.068-4.8527-0.12294-0.5652-0.15474-1.0718-0.15491-2.4682-3.1e-4 -2.7088 0.20451-3.6446 1.5995-7.3078 1.2181-3.1985 1.8592-4.5786 4.6312-9.9696 0.93464-1.8177 2.2239-4.3308 2.865-5.5848s1.1932-2.28 1.2269-2.28 0.39645 0.593 0.80611 1.3178c2.7055 4.7865 5.1565 10.68 6.1503 14.788 1.1069 4.576 1.2498 8.4712 0.45492 12.404-0.8461 4.1865-3.2591 7.8325-6.769 10.228l-0.67429 0.46018-0.27564 0.79484c-0.56341 1.6246-1.2653 4.4361-1.6014 6.4143-0.28759 1.6929-0.60137 5.2155-0.46458 5.2155 0.0236 0 0.56525-0.26165 1.2036-0.58145 2.2907-1.1475 4.7418-2.6534 6.1998-3.8089 0.71855-0.56946 2.51-2.1328 2.51-2.1903 0-0.0335-0.21027 0.0962-1.3785 0.85024-1.0744 0.69352-2.9719 1.6565-3.8512 1.9545-0.7304 0.24756-1.9222 0.50106-1.9974 0.42486-0.0901-0.0913-0.30293-1.3737-0.30293-1.8255 0-2.0908 1.2307-4.2927 3.3038-5.9108 0.9625-0.75126 1.927-1.3179 4.812-2.8268 3.5007-1.831 7.5339-4.1154 8.8479-5.0113 0.22266-0.15183 0.35556-0.20187 0.35552-0.13386-1.6e-4 0.25021-0.93456 4.2434-1.3274 5.6725-0.46515 1.6924-0.82457 2.7944-1.3099 4.016-1.0056 2.5316-1.5195 3.2286-3.4286 4.6511-2.066 1.5394-4.4189 2.8468-6.6936 3.7195-1.0509 0.40319-1.4468 0.51638-1.8426 0.52681-0.48048 0.0127-0.61313 0.0721-2.8326 1.2683l-2.3286 1.255 0.0531 2.5937c0.0594 2.8985 0.12624 3.8683 0.42991 6.2332 0.24104 1.8771 0.94759 6.166 1.2579 7.6358 0.5998 2.8408 2.9633 11.804 3.166 12.007 0.0165 0.0165 1.5156-1.048 3.3313-2.3656l3.3013-2.3956 0.054-0.7602c0.11015-1.5519-7e-3 -5.207-0.2008-6.2735-0.0477-0.26242-0.25227-0.82717-0.45453-1.255-0.83363-1.7633-1.0878-2.9528-1.087-5.0868 6.4e-4 -1.7291 0.0904-2.3108 0.59994-3.8884 0.37225-1.1526 1.3639-3.1155 2.0722-4.1019 1.199-1.6696 2.7774-3.3477 4.4942-4.7778 0.87239-0.72673 2.0596-1.6228 2.1502-1.6228 0.0326 0 0.10531 1.4778 0.16158 3.284 0.0563 1.8062 0.15793 3.9617 0.22592 4.79 0.068 0.82831 0.18424 2.2402 0.25833 3.1375 0.0816 0.98768 0.1158 1.9947 0.0868 2.5519-0.16408 3.1507-1.6836 6.0279-3.5596 6.7398-0.55772 0.21166-1.2697 0.28401-1.452 0.14756-0.18839-0.14107-0.69709-1.7933-0.87112-2.8294-0.15036-0.89515-0.19694-3.5286-0.0829-4.6854 0.0386-0.39115 0.0498-0.69109 0.0251-0.66654-0.0863 0.0855-0.55181 2.3253-0.69713 3.3539-0.22499 1.5927-0.20124 5.5326 0.0458 7.6038 0.17601 1.4754 0.3681 2.4837 0.49677 2.6074 0.21369 0.20549 7.9834-6.0875 10.777-8.729 4.5051-4.2593 7.2971-8.4489 9.2792-13.925 0.35531-0.98157 1.4064-4.637 1.3496-4.6937-0.0217-0.0218-0.11386 0.12358-0.20467 0.32298-0.4935 1.0836-0.9208 1.937-1.2497 2.4961-0.73262 1.2453-2.8276 4.3501-2.9661 4.3959-0.20992 0.0693-0.7916-0.25931-1.2852-0.7261-1.1202-1.0595-1.5089-3.0572-1.0519-5.4069 0.32532-1.6727 0.567-2.2457 2.2542-5.3446 0.7752-1.4239 4.0651-7.6649 4.9057-9.3062l0.14441-0.28197 0.17213 0.28197c0.40957 0.67092 1.5063 2.9712 1.9406 4.0701 2.0272 5.13 2.0538 9.6664 0.0797 13.554-0.65514 1.2902-1.2795 2.1089-2.6307 3.4491l-1.223 1.2132-0.8922 2.2518c-0.49071 1.2385-0.87518 2.2688-0.85439 2.2896 0.0758 0.0758 4.9399-2.6459 7.4929-4.1927 6.1159-3.7055 11.292-7.6299 13.91-10.548 0.8301-0.92485 1.1212-1.3558 0.59721-0.88395-0.35908 0.32331-1.6822 1.329-2.543 1.9328-1.2947 0.90829-3.4134 2.061-4.9964 2.7185-1.5361 0.63797-3.9936 1.3719-4.1218 1.231-0.15547-0.17079-0.59353-1.4966-0.75804-2.2942-0.25126-1.2182-0.20073-2.7929 0.12465-3.8841 0.62327-2.0902 2.2326-4.1268 4.569-5.782 2.009-1.4232 3.6758-2.4126 8.864-5.2612 4.4679-2.4531 6.9346-3.9158 10.692-6.3399 0.42744-0.27578 0.7939-0.48469 0.81435-0.46424 0.0709 0.0709-0.37628 4.9673-0.54487 5.9665-0.80863 4.7925-1.6919 7.6862-3.2945 10.793-1.2192 2.3636-2.6484 4.3093-4.4564 6.0669-2.1208 2.0618-4.2029 3.3796-6.9869 4.4223-1.6787 0.62872-2.983 0.92482-5.0445 1.1452-0.47255 0.0505-0.60345 0.12524-2.761 1.576-4.44 2.9855-7.3559 5.1923-10.004 7.5712-0.43716 0.3927-2.4914 2.4098-4.565 4.4825-2.0736 2.0727-5.7821 5.7452-8.2413 8.1611s-4.428 4.404-4.3753 4.4179c0.0527 0.0139 0.5798-0.0869 1.1714-0.22405 2.774-0.64329 6.1387-1.1632 9.275-1.4331 1.4768-0.12709 4.8842-0.24763 5.8077-0.20544 0.44114 0.0202 1.7622 0.0781 2.9356 0.12878 1.1734 0.0507 2.6345 0.16402 3.2467 0.25186 1.4159 0.20316 2.4846 0.20117 5.167-0.01 3.744-0.29421 8.7716-1.1128 12.08-1.9668 6.3192-1.6312 11.481-3.987 15.082-6.8839 0.49271-0.3963 0.8828-0.73359 0.86686-0.74952-0.0159-0.0159-0.40632 0.1818-0.86753 0.43941-1.6027 0.89522-3.532 1.6708-5.1975 2.0895-2.1928 0.55123-5.0941 0.98596-5.4192 0.812-0.2337-0.12507-0.61389-1.4155-0.61253-2.0791 4e-3 -2.1981 1.6452-5.0592 3.6596-6.3816 1.1143-0.73152 3.8484-1.8452 12.309-5.0139 6.011-2.2512 9.8795-3.6413 9.9465-3.5744 0.0742 0.0742-1.046 3.414-1.6866 5.0288-1.7938 4.5216-4.0927 8.3455-6.5899 10.961-2.6575 2.7835-5.3706 4.4552-8.5527 5.2699-1.7898 0.45819-2.9235 0.52405-5.5903 0.32472-0.69414-0.0519-0.77293-0.0396-1.5897 0.24767-7.688 2.704-10.685 3.7862-10.801 3.8993-0.11134 0.10913 4.1313 1.8765 7.1387 2.9738 3.6866 1.3451 7.4543 2.327 10.919 2.8456 0.98761 0.14783 5.1067 0.18275 5.0201 0.0425-0.0284-0.046-0.14711-0.0837-0.26372-0.0837-0.28769 0-3.1541-0.62025-4.087-0.88436-1.5462-0.43775-4.0765-1.5028-4.174-1.7569-0.0464-0.12092 0.38341-0.97994 0.85533-1.7095 0.16372-0.25309 0.58207-0.74256 0.92966-1.0877 1.194-1.1856 2.6446-1.691 4.3103-1.5017 0.37071 0.0421 2.1232 0.46951 3.8944 0.94974 5.6275 1.5258 9.2218 2.3886 12.783 3.0683 0.28934 0.0552 0.51524 0.12856 0.50201 0.16296-0.0396 0.10306-2.9752 2.4013-3.8305 2.999-3.212 2.2442-6.6883 3.6763-9.7896 4.0329-1.1862 0.13638-3.3212 0.0537-4.2863-0.166-2.1792-0.49606-3.8777-1.314-5.3593-2.5808-0.43981-0.37606-0.61556-0.45674-1.9244-0.88344-2.0796-0.678-5.6266-1.5994-8.5939-2.2323-1.427-0.3044-6.4408-1.1608-8.5341-1.4578-6.0437-0.8573-13.146-0.82291-17.863 0.0865-7.1149 1.3717-11.836 4.2664-14.671 8.9949-2.2877 3.8162-3.169 9.279-2.2302 13.824 0.34811 1.6853 1.3321 3.8845 2.551 5.7012 2.6378 3.9316 7.7049 7.7224 13.89 10.391 7.2703 3.1374 11.256 4.3549 20.791 6.3507 5.8728 1.2292 11.728 2.092 19.513 2.8756 3.9447 0.397 5.8962 0.52296 8.7695 0.566l2.6804 0.0402 0.88928-1.4935c2.6343-4.4242 4.9745-9.1506 6.9684-14.074 7.8909-19.485 9.468-42.057 4.3795-62.678-5.3321-21.608-17.063-40.168-34.097-53.946-2.9034-2.3484-7.2256-5.3691-10.4-7.2682-6.8306-4.0864-13.827-7.1659-21.252-9.3545-6.5616-1.9341-12.918-3.0644-20.122-3.578-2.0071-0.1431-9.2908-0.14297-11.295 2e-4 -10.183 0.72741-18.889 2.7016-28.264 6.4099-2.1639 0.85588-3.9057 1.6356-6.3744 2.8534-7.7435 3.82-14.673 8.5431-21.461 14.628-1.6727 1.4994-5.7319 5.5818-7.2094 7.2506-6.9965 7.9023-12.165 15.841-16.433 25.239-7.4787 16.469-10.402 34.812-8.4841 53.241 1.5164 14.575 6.188 28.649 13.698 41.269l0.88378 1.4851h2.5846c2.1669 0 3.2161-0.0478 6.4923-0.29601zm146.92-0.20848c-1.9679-0.4942-2.7301-2.8594-1.4062-4.3634 0.97737-1.1104 2.6823-1.2136 3.7996-0.23011 0.21463 0.18893 0.48227 0.54305 0.61414 0.81258 0.31604 0.64596 0.33165 1.5966 0.037 2.2534-0.22988 0.51246-0.86271 1.1376-1.3858 1.369-0.4368 0.19321-1.2218 0.26821-1.6588 0.15847zm1.4795-0.53343c0.14183-0.0594 0.38787-0.21732 0.54676-0.35085l0.28887-0.24276-1.0658-0.0836-0.28643-0.52292c-0.29831-0.54462-0.52241-0.6792-0.52241-0.31376 0 0.11505 0.0377 0.20917 0.0837 0.20917s0.0837 0.15061 0.0837 0.33467v0.33467h-1.506v-0.33467c0-0.18406 0.0376-0.33467 0.0837-0.33467 0.0488 0 0.0837-0.27889 0.0837-0.66934s-0.0349-0.66934-0.0837-0.66934c-0.046 0-0.0837-0.15325-0.0837-0.34056v-0.34056l1.2952 0.0268c1.2825 0.0265 1.2974 0.029 1.5228 0.25461 0.28665 0.28694 0.31031 0.73902 0.0522 0.99715l-0.1754 0.1754 0.16693 0.28292c0.0918 0.1556 0.21741 0.28292 0.27911 0.28292 0.0692 0 0.12213 0.1201 0.13815 0.31375l0.026 0.31375 0.20896-0.41833c0.31127-0.62315 0.29622-1.4305-0.0379-2.0351-0.94609-1.7118-3.4775-1.521-4.1011 0.30921-0.34555 1.0141-8e-3 1.9337 0.98543 2.6856 0.42252 0.31976 1.4186 0.38684 2.0174 0.13587zm-0.55199-2.3325c0.12076-0.14551 0.019-0.28577-0.25773-0.35522-0.21306-0.0535-0.22925-0.0392-0.22925 0.20254 0 0.21806 0.0321 0.26007 0.19892 0.26007 0.10941 0 0.23903-0.0483 0.28806-0.10739zm-134.99-16.841c-4.0651-0.68284-7.5381-3.6636-8.8454-7.5918-0.42153-1.2666-0.51338-1.9056-0.51338-3.5719 0-2.0894 0.25507-3.2638 1.0732-4.9411l0.34918-0.71589-1.3387 0.14597c-0.73628 0.0803-1.6704 0.17271-2.0759 0.20537l-0.73723 0.0594 0.2602-0.44131c1.2419-2.1062 2.7506-3.6688 4.2973-4.4506 0.55484-0.28045 1.9718-0.66955 3.1502-0.86504 0.82429-0.13674 3.3467-0.27317 3.3467-0.181 0 0.0288-0.14119 0.12983-0.31376 0.22443-0.17256 0.0946-0.23845 0.15305-0.14642 0.1299 1.4704-0.36999 1.662-0.39872 2.9433-0.44147 1.0353-0.0346 1.5862-0.0113 2.3427 0.0988l0.98908 0.14397 2.259-0.43049c1.2425-0.23677 2.2967-0.44749 2.3427-0.46827 0.04602-0.0208-1.7236-0.0192-3.9324 4e-3 -4.5768 0.0472-4.343 0.10443-2.7681-0.67806 2.1889-1.0875 4.7549-1.8031 6.4494-1.7985 1.478 4e-3 2.9091 0.39012 4.6854 1.2641 0.9205 0.45293 2.717 1.5507 2.8258 1.7267 0.07599 0.12296-5.843 2.3563-6.9374 2.6177l-0.43029 0.10275 0.64806 0.64223c1.7098 1.6945 2.8637 3.9724 3.2284 6.3735 0.53113 3.4972-0.67427 7.1628-3.1791 9.6677-1.6346 1.6346-3.918 2.8087-6.1743 3.1746-0.95073 0.15419-2.8647 0.15154-3.7982-5e-3zm-6.0815-19.658c0.49943-0.15234 0.87014-0.33878 1.3309-0.66935 0.35124-0.252 0.62109-0.45819 0.59966-0.45819-0.08524 0-2.7761 1.3272-2.7021 1.3327 0.04364 3e-3 0.39086-0.0891 0.7716-0.2052zm26.553-15.941c-2.8094-0.26918-6.1031-1.7907-9.1647-4.2335-1.2368-0.98683-3.9986-3.7316-3.9596-3.9353 0.02609-0.13641 0.16383-0.1581 1.325-0.20866 1.8578-0.0809 11.348-1.1703 13.344-1.5317 1.4236-0.25781 2.7481-0.0938 3.8332 0.47467 0.6698 0.35091 1.6846 1.3593 2.134 2.1205 0.28746 0.48688 0.76811 1.6649 0.76811 1.8826 0 0.0639-1.5975 0.52902-3.1375 0.91346-1.1339 0.28306-2.7304 0.54941-3.8487 0.64212l-0.75301 0.0624 0.5602 0.10569c1.9768 0.37296 5.2387 0.47948 7.2997 0.23838 1.1177-0.13074 2.8554-0.45606 3.6224-0.67815 0.24099-0.0698 0.47102-0.10657 0.51119-0.0817 0.09663 0.0597 0.93318 1.5116 0.93318 1.6196 0 0.13784-0.26998 0.18165-2.707 0.43931-1.3599 0.14377-2.4227 0.29488-2.5519 0.36283-0.12174 0.064-0.57902 0.30626-1.0162 0.53828-0.92919 0.49315-1.998 0.8839-3.0539 1.1165-0.88415 0.1948-2.9162 0.26975-4.1385 0.15264zm72.437-0.7111c-0.86587-0.20998-1.9118-0.76846-2.784-1.4866l-0.24814-0.2043 0.37364-0.48868c0.50412-0.65932 2.7151-2.8784 3.5948-3.6081 0.39115-0.32442 1.0312-0.80405 1.4224-1.0658 0.77153-0.5164 0.68284-0.54221-0.40057-0.1166-2.3141 0.90909-6.1647 3.4799-8.2146 5.4845-0.90638 0.88634-1.0844 0.99101-1.089 0.64038-6.4e-4 -0.0529-0.22863-0.34702-0.5065-0.65364l-0.50522-0.55749 1.4041-1.0616c1.7499-1.3231 2.1441-1.715 2.6182-2.6034 0.73126-1.3702 1.7217-2.4762 3.2456-3.6241 1.3432-1.0118 2.5087-1.585 4.2428-2.0867 2.8491-0.8242 6.5253-0.84625 10.333-0.062 1.2509 0.25764 3.1275 0.78014 3.1328 0.87223 3e-3 0.046-0.61647 0.54935-1.3758 1.1185-0.75929 0.56917-2.2465 1.719-3.3049 2.5552-1.0584 0.83622-2.2632 1.7812-2.6774 2.0999-1.2365 0.95159-2.3754 1.8717-3.263 2.6361-1.6716 1.4395-2.4661 1.9396-3.5168 2.2132-0.60316 0.1571-1.8313 0.15654-2.4815-1e-3zm-80.891-10.381c-0.16106-0.0709-1.14-0.41059-2.1754-0.7549l-1.8825-0.62601-1.0877 0.0549c-1.2934 0.0653-2.1937-0.0407-3.2621-0.38396-2.676-0.85985-4.8761-2.8843-6.356-5.8489-0.62817-1.2583-1.8738-4.3958-1.7811-4.4864 0.01126-0.011 0.67936 0.20098 1.4847 0.47107 0.8053 0.27008 2.7718 0.86895 4.3701 1.3308 3.5208 1.0174 3.7645 1.099 4.6709 1.5624 1.3038 0.66673 2.2916 1.6534 2.8606 2.8574 0.2201 0.46568 0.24476 0.59552 0.21711 1.143-0.042 0.83176-0.16342 0.96715-0.86737 0.96715-1.1351 0-2.8015-0.42747-4.4324-1.137-0.94493-0.4111-0.85663-0.29092 0.32651 0.4444 2.0212 1.2562 6.0668 2.6341 8.1485 2.7753 0.86276 0.0585 0.93425 0.10512 0.93634 0.61018 0.0016 0.38132-0.12252 0.721-0.35355 0.96762-0.20502 0.21886-0.40924 0.23208-0.81652 0.0528zm99.95-4.2181c-0.27097-0.0427-0.91103-0.20076-1.4224-0.35118-0.90643-0.26664-0.9673-0.27325-2.4357-0.2644-1.3688 8e-3 -2.8345 0.10915-3.6651 0.25229l-0.31839 0.0549 0.0568-0.86929c0.0312-0.47812 0.0834-0.89871 0.11602-0.93467 0.0326-0.0359 0.28208-4e-3 0.55444 0.0703 0.39307 0.10764 0.8835 0.13406 2.3777 0.12809 2.8547-0.0114 4.3197-0.19591 6.4424-0.81131 1.1376-0.3298 1.5165-0.49317 0.96218-0.41482-1.937 0.27378-2.4219 0.31244-3.4304 0.27348-1.2702-0.0491-1.969-0.1802-2.2233-0.41718-0.15779-0.14701-0.17636-0.2328-0.13917-0.64298 0.0241-0.26592 0.13572-0.65436 0.25467-0.88644 0.40633-0.79271 1.5337-1.6889 2.7742-2.2053 1.0907-0.45405 1.516-0.50811 4.6465-0.59054 2.5324-0.0667 5.5083-0.23293 6.8318-0.38167 0.28659-0.0322 0.45151-0.0156 0.49171 0.0494 0.0618 0.1-0.84687 1.4863-1.8893 2.8824-0.73835 0.98887-2.449 2.6446-3.3425 3.2351-1.816 1.2003-3.4828 1.7953-5.2237 1.8647-0.50924 0.0203-1.1476 2e-3 -1.4186-0.0408zm-64.16-10.477c-0.51457-0.96538-1.8861-3.0276-2.3748-3.5706-0.2247-0.24972-0.69093-0.66181-1.0361-0.91575-2.2144-1.6294-3.3205-3.7512-3.5965-6.8993-0.17403-1.9852 0.147-3.8772 1.1594-6.8329 0.52875-1.5437 0.51303-1.506 0.62766-1.506 0.0533 0 0.43429 0.53652 0.84655 1.1923 1.1756 1.87 2.9497 4.5121 3.8905 5.794 1.4077 1.9182 1.865 3.1369 1.868 4.9782 2e-3 1.2039-0.18179 1.761-0.77966 2.3636-0.58107 0.58564-0.75147 0.56041-1.5834-0.23445-0.80155-0.76579-1.5456-1.7982-2.243-3.1124-0.28691-0.54064-0.52223-0.93295-0.52293-0.8718-3e-3 0.25649 0.88788 2.4714 1.3518 3.361 0.90387 1.7334 2.7202 4.3386 3.5599 5.106l0.47414 0.43333-0.19309 0.36399c-0.27015 0.50923-0.74355 1.0411-0.92665 1.0411-0.10734 0-0.26539-0.20903-0.5219-0.69026zm31.981-5.5867c0-0.84523-0.3086-3.7161-0.46297-4.307-0.0721-0.2761-0.29463-0.85968-0.49442-1.2968-1.0538-2.3058-1.1367-4.2607-0.28308-6.6796 0.77151-2.1862 2.0445-3.9747 4.3465-6.1065 0.91755-0.84975 1.1289-1.009 1.2036-0.90682 0.0498 0.0682 0.13782 0.75788 0.19554 1.5327 0.15444 2.0735 0.40639 4.3931 0.6574 6.0524 0.38457 2.5422 0.26943 3.7264-0.5178 5.3258-0.63173 1.2834-1.4705 1.9388-2.4047 1.8789-0.51124-0.0328-1.0419-2.0991-1.1413-4.4436l-0.0549-1.2968-0.10442 0.75301c-0.24226 1.747-0.29194 2.7856-0.19935 4.1672 0.14486 2.1615 0.50151 4.3184 0.81397 4.9226 0.11189 0.21638 0.10526 0.2377-0.12482 0.40154-0.32671 0.23264-1.1012 0.58872-1.2828 0.58973-0.12563 6.9e-4 -0.14642-0.0826-0.14642-0.58677zm-45.31-4.822c-0.0028-1.6328-0.04001-2.398-0.15166-3.1246-0.14352-0.93406-0.46683-2.3758-0.52069-2.3219-0.01464 0.0146 0.01537 0.52844 0.06667 1.1418 0.13116 1.5677-0.1003 3.1882-0.45537 3.1882-0.06117 0-0.38374-0.1306-0.71682-0.29023-1.0661-0.51091-1.7522-1.4094-2.1223-2.7792-0.16143-0.59753-0.18231-0.97406-0.24266-4.377-0.03632-2.0478-0.09315-3.9962-0.12629-4.3298-0.04079-0.41062-0.0315-0.6066 0.02875-0.6066 0.10524 0 1.7453 1.4832 3.1436 2.843 1.0611 1.0318 1.6049 1.7183 1.9318 2.4383 0.42804 0.9428 0.65142 3.0796 0.53724 5.1391-0.05201 0.93805-0.09466 1.1926-0.24151 1.4415-0.17179 0.29116-0.17616 0.36273-0.11876 1.9462 0.06705 1.8497 0.11622 1.7045-0.60981 1.8007l-0.39844 0.0528z" fill="#fff"/></svg>
