<?xml version="1.0" encoding="UTF-8"?>
<!-- Created with Inkscape (http://www.inkscape.org/) -->
<svg width="794.81" height="800" version="1.1" viewBox="0 0 210.29 211.67" xml:space="preserve" xmlns="http://www.w3.org/2000/svg"><g transform="matrix(.60608 0 0 .60608 -188.93 -131.28)" fill="#fff"><path id="logo-face" class="logo-face" d="m477.67 565.6-3.0427-0.14567 0.0697-12.568 0.0697-12.568 0.77698-0.58038 18.398 0.24771 0.33073 0.26487 0.33073 0.26488v5.4602l-0.66146 0.4281h-12.435v3.4396l10.278 0.38143 0.46768 0.6769-0.1123 2.2837c-0.0618 1.256-0.19461 2.4169-0.29522 2.5797l-0.18291 0.29596h-10.277l-0.15683 0.62485c-0.0863 0.34367-0.11828 1.0283-0.0712 1.5214l0.0856 0.8965 1.7198 0.16751c0.94588 0.0921 3.7498 0.18143 6.2309 0.19844l4.5112 0.0309 0.635 0.635v2.439c0 1.3414-0.0723 2.6273-0.1606 2.8575l-0.1606 0.41852-6.6524-0.0528c-3.6588-0.029-8.0216-0.11832-9.6951-0.19843zm-16.933-1.3791-2.7781-0.51899-0.41859-0.44669c-0.23023-0.24567-1.0562-1.8474-1.8354-3.5593s-1.64-3.3146-1.9128-3.5614l-0.49596-0.44884-2.7316-0.0208-0.56157 2.9799c-0.30886 1.639-0.64009 3.0584-0.73607 3.1544-0.19115 0.19115-3.694-0.29214-5.2687-0.72692l-0.98833-0.27289v-0.36799c0-0.35267 4.0834-22.92 4.3693-24.147l0.13867-0.59531h0.74631c0.41047 0 3.5596 0.52531 6.998 1.1674l6.2516 1.1674 1.4096 0.64534c0.77528 0.35493 1.8583 1.0393 2.4067 1.5208l0.9971 0.87547 0.69293 1.3467 0.69292 1.3467 0.1142 2.42 0.11419 2.42-0.45798 1.4164c-0.91331 2.8247-2.6003 4.8554-4.8263 5.8096l-1.1265 0.48286v0.36621c0 0.20142 0.77391 1.9872 1.7198 3.9683 0.94589 1.9812 1.7198 3.7256 1.7198 3.8765v0.27444l-0.7276-0.0265c-0.40018-0.0146-1.9778-0.26006-3.5057-0.5455zm-1.0663-14.054c0.35943-0.18188 0.92498-0.73351 1.2568-1.2258l0.60325-0.89517-0.00198-2.1707-1.036-1.6991-1.3992-0.39244c-1.9966-0.55999-5.3437-1.0679-5.8238-0.88368l-0.40786 0.15652-0.44272 2.4677c-0.2435 1.3572-0.49296 2.6463-0.55435 2.8646-0.0614 0.21828-0.0168 0.54766 0.0991 0.73196l0.21071 0.33509 2.6275 0.49868c3.1899 0.60543 4.0203 0.64166 4.8686 0.21245zm51.808 13.174c-0.83214-0.21098-2.2595-0.76043-3.1718-1.221l-1.6588-0.83737-3.4861-3.5007-0.73162-1.5559c-0.40239-0.85576-0.91632-2.4616-1.1421-3.5686l-0.41043-2.0126 0.30687-1.9877 0.30686-1.9877 0.91714-1.9367 0.91715-1.9367 3.2843-3.4203 4.0809-2.0426 3.8881-0.66502 4.1941 0.60216 1.6901 0.79091c0.92957 0.435 2.0397 1.0398 2.467 1.3441l0.77689 0.55319v0.93288l-1.9562 1.8968c-1.0759 1.0432-2.0769 1.8968-2.2245 1.8968s-0.88512-0.31998-1.6389-0.71107l-1.3706-0.71106-3.2609 8e-3 -1.1906 0.5333c-1.7126 0.76711-2.7726 1.7584-3.5513 3.321l-0.68203 1.3687 6e-3 1.734 6e-3 1.734 0.48855 1.0756c0.26871 0.5916 0.8628 1.5019 1.3202 2.0228l0.83166 0.94721 2.5073 1.2028 3.4443 0.02 2.5074-1.2138 0.92675-1.0827c0.88668-1.0359 1.1651-1.8672 0.71798-2.1436-0.11482-0.071-1.3399 0.0634-2.7225 0.29862-1.3826 0.2352-2.7037 0.35475-2.9359 0.26566l-0.42213-0.16198-0.33889-2.2779-0.3389-2.2779 0.24238-0.24009c0.25128-0.24893 10.071-2.1232 11.124-2.1232 0.32805 0 0.65777 0.0992 0.73273 0.2205 0.16796 0.27177 2.5408 13.2 2.5408 13.843v0.46373l-0.99219 0.27835c-0.5457 0.15309-1.6177 0.35373-2.3823 0.44586l-1.3901 0.16751-0.28945-0.8303c-0.15919-0.45666-0.31602-0.8303-0.34851-0.8303-0.0325 0-0.60494 0.52303-1.2721 1.1623l-1.213 1.1623-1.5463 0.58703-1.5463 0.58702-4.4979 0.195zm-89.034-8.7371-1.6468-0.35784-3.7191-1.9543-1.5859-1.6953c-2.2914-2.4495-3.4882-5.0503-3.8332-8.33l-0.17701-1.6824 0.39588-1.883 0.39589-1.883 0.85031-1.6845 0.85032-1.6845 2.987-2.9192 1.6019-0.85164c0.88106-0.4684 2.3018-1.034 3.1573-1.2568l1.5554-0.40513h3.7464l1.5126 0.39399c0.83195 0.21669 2.2519 0.76717 3.1555 1.2233l1.6428 0.8293 3.3306 3.3306 0.91934 1.94c1.986 4.1909 1.9345 8.0348-0.16306 12.19l-0.83163 1.6474-1.532 1.499-1.532 1.499-1.6742 0.82214c-1.8607 0.91374-4.751 1.612-6.569 1.5868-0.65484-9e-3 -1.9317-0.17746-2.8375-0.37427zm5.8949-6.8427 1.3376-0.62288 1.9745-2.3068 0.41872-1.4404 0.41872-1.4404-0.1493-1.2606c-0.38035-3.2114-3.0264-5.8575-6.2378-6.2378l-1.2606-0.1493-2.9126 0.84672-1.1968 1.0535-1.1968 1.0535-1.2105 2.7981 0.0222 2.9719 0.51537 1.1599c0.74582 1.6786 1.7461 2.7447 3.3031 3.5206l1.3687 0.68203 3.468-6e-3zm113.83 6.5672c-0.83214-0.20173-2.2537-0.74071-3.1591-1.1977l-1.6461-0.83094-1.506-1.4364-1.506-1.4365-0.79984-1.511c-0.43991-0.83103-0.98978-2.1576-1.2219-2.948l-0.42211-1.4371v-3.7615l0.39399-1.5126c0.21669-0.83194 0.76717-2.2519 1.2233-3.1555l0.82931-1.6428 3.2599-3.2599 1.6447-0.83023c0.90457-0.45662 2.4483-1.0197 3.4306-1.2513l1.7859-0.4211 4.2665 0.2879 1.7721 0.66701c2.1817 0.82117 3.6316 1.8006 5.2879 3.5719l1.2723 1.3607 1.9438 4.0904 0.10044 2.6995 0.10043 2.6996-0.54958 1.8094-0.54957 1.8094-1.0255 1.5765c-0.56404 0.86708-1.6421 2.1491-2.3957 2.8488l-1.3702 1.2723-1.9129 0.90647c-3.0707 1.4551-6.1063 1.7941-9.2468 1.0328zm6.2091-6.6785c1.644-0.73055 2.7143-1.7401 3.4854-3.2875l0.68203-1.3687-0.0201-1.6017c-0.0237-1.884-0.34755-2.8723-1.4511-4.4285l-0.80981-1.1419-2.8783-1.5624-3.4396 0.01-1.1936 0.53498c-1.5477 0.69368-2.8336 1.9978-3.6066 3.6578l-0.61862 1.3285-3e-3 1.4791-3e-3 1.4791 1.6035 3.2089 0.98214 0.74911c0.54017 0.41201 1.5784 0.9621 2.3071 1.2224l1.325 0.47331 1.2565-0.12629c0.69108-0.0695 1.7626-0.35121 2.3812-0.62611zm22.877-5.0331c-0.70427-0.8045-13.683-20.43-13.683-20.691 0-0.30716 2.107-1.877 3.5719-2.6612l1.0583-0.5666 8.4259 2.6935c4.6343 1.4814 8.4812 2.6382 8.5488 2.5706s-1.5565-2.6498-3.609-5.7382-3.6896-5.7502-3.638-5.9151c0.14379-0.45882 4.4659-3.3425 5.0098-3.3425h0.47909l6.8776 10.326c3.7827 5.6794 6.8758 10.412 6.8736 10.517-9e-3 0.40891-0.46003 0.81159-2.2421 2.0003-1.0171 0.67843-2.057 1.2335-2.311 1.2335-0.25397 0-4.1514-1.1739-8.661-2.6087-4.5096-1.4348-8.2532-2.5547-8.3192-2.4886-0.066 0.066 1.5382 2.6152 3.5649 5.6647 2.0267 3.0496 3.6831 5.628 3.6809 5.7298-2e-3 0.10182-0.0915 0.31378-0.19844 0.47103-0.23516 0.34586-3.985 2.8638-4.6013 3.0897l-0.43816 0.16059zm-192.26-6.3322c-0.36708-1.3218-0.34978-2.1055 0.0522-2.3656 0.1819-0.1177 0.92604-0.39631 1.6536-0.61912l1.3229-0.40512 0.1323-1.8573 0.13229-1.8573 0.47739-0.72682c0.26257-0.39976 0.85788-0.95882 1.3229-1.2424l0.84552-0.51555 1.133-9.9e-4c0.62314-5.4e-4 1.5282 0.16414 2.0112 0.36595l0.87821 0.36694 0.59534 0.83608 0.59533 0.83607 0.13616 1.0151 0.13615 1.0151-0.31802 0.96362c-0.45278 1.3719-1.4589 2.4595-2.9954 3.2382-1.4369 0.72813-5.872 1.9453-7.0882 1.9453h-0.74739zm223.03-9.8293-1.1906-0.1587-0.15389-1.6068c-0.0846-0.88375-0.24049-1.747-0.34634-1.9182l-0.19246-0.31141h-0.78663c-1.1536 0-2.4194-0.60924-3.2046-1.5423l-0.69044-0.82055-0.17943-1.062-0.17943-1.062 0.2919-0.88446c0.16054-0.48645 0.71298-1.2926 1.2276-1.7914l0.93575-0.90697h3.3191l1.0036 0.76545 1.0036 0.76545 1.3545 2.9587 0.11728 3.4582 0.11729 3.4582-0.44854 0.44854c-0.24669 0.24669-0.52933 0.43065-0.62807 0.4088-0.0987-0.0219-0.71532-0.11116-1.3702-0.19844zm-124.62-1.0035c-29.883-1.7549-57.597-12.99-80.433-32.606-4.2366-3.6393-12.52-12.144-16.065-16.494-15.337-18.819-25.259-41.093-28.904-64.885-0.76201-4.9741-1.2851-10.9-1.4829-16.801l-0.17299-5.1594 0.29921-5.1594c0.90334-15.577 3.7409-28.712 9.2025-42.598 10.121-25.733 28.273-47.968 51.675-63.299 18.492-12.114 39.235-19.254 62.177-21.402l3.5719-0.33433h15.346l3.5719 0.33129c17.955 1.6653 33.527 6.0747 49.246 13.944 45.297 22.678 74.05 69.298 74.05 120.06 0 40.91-18.407 79.326-50.271 104.92-21.774 17.488-47.561 27.51-75.626 29.392-3.7063 0.24858-12.629 0.29747-16.185 0.0887zm-42.935-40.98c2.7478-0.56758 19.162-6.3544 40.766-14.372 5.1376-1.9066 9.528-3.4666 9.7564-3.4666 0.47183 0 0.87015 0.14479 21.252 7.7252 15.031 5.5904 23.991 8.7368 27.914 9.8022l2.1167 0.57487 8.7312 0.0218 1.9844-0.61588c7.5978-2.3581 12.883-8.5471 14.037-16.436l0.32314-2.2099-0.14915-4.1274-0.14914-4.1274-0.67788-4.0215c-1.9183-11.38-6.7297-28.619-9.5564-34.239-1.3213-2.6271-3.6201-5.9073-5.4953-7.8415l-1.8584-1.9168 0.83441-2.5811c0.45893-1.4196 1.0189-3.6526 1.2444-4.9623l0.41-2.3812-0.00184-9.525-0.41391-3.9688c-0.538-5.1585-1.5777-11.916-2.4222-15.743-0.80817-3.6621-1.7758-6.25-3.2901-8.7989l-1.1298-1.9017-4.2723-4.2992-1.9092-1.1238c-2.6116-1.5373-5.1446-2.4783-10.381-3.8565-5.4432-1.4327-6.9198-1.9737-8.9254-3.2699-1.7255-1.1152-4.0328-3.3362-5.046-4.8572l-0.65786-0.98756 1.5859-2.3197c2.7742-4.058 4.92-8.9471 6.2436-14.226 0.93894-3.7448 1.186-5.2705 1.5093-9.3185l0.28463-3.5646-0.28649-3.8592c-0.51701-6.9643-1.691-11.176-4.2944-15.407l-1.3825-2.2466-4.2572-4.3012-2.3173-1.5055c-4.1823-2.7172-8.6063-4.4587-13.406-5.2773l-2.494-0.42536h-6.9979l-3.0029 0.51589c-5.4609 0.93818-10.312 2.9218-14.138 5.781-4.9677 3.7124-7.8688 7.6702-9.7362 13.282l-0.92443 2.7781-0.82604 5.6242v8.2394l0.40918 3.1224c1.0937 8.3458 3.295 14.649 7.089 20.299 0.96922 1.4432 1.7622 2.7419 1.7622 2.886 0 0.52047-2.283 3.207-3.795 4.4658-0.85031 0.70793-2.3599 1.697-3.3547 2.198l-1.8087 0.91085-5.0823 1.3398c-5.9967 1.5808-8.58 2.5325-10.868 4.0038-3.884 2.4972-6.2975 5.2134-8.3109 9.3529l-1.1582 2.3812-0.66254 2.5135c-0.75453 2.8626-1.7244 8.4434-2.575 14.817l-0.58262 4.3656-0.034 12.965 0.48036 2.249c0.2642 1.2369 0.81139 3.2038 1.216 4.3709l0.73561 2.122-1.8275 1.9791c-1.0051 1.0885-2.6044 3.137-3.554 4.5522l-1.7265 2.5731-1.14 2.5902c-2.5564 5.8086-6.988 22.47-8.7799 33.009l-0.71974 4.2333v4.7625l1e-5 4.7625 0.43181 1.7331c0.69081 2.7725 1.4625 4.5912 2.8244 6.6562 2.8834 4.372 6.8317 7.1607 11.906 8.4092l2.0056 0.49346 6.5046 0.0384zm-7.336-2.6832c-0.50933-0.0581-1.6852-0.27897-2.6129-0.49072l-1.6869-0.38501-4.0621-2.1133-1.65-1.6046c-2.9543-2.873-4.4224-5.768-5.091-10.039l-0.30968-1.9782 0.14868-3.8365 0.14867-3.8365 0.68363-3.8365c1.6078-9.023 5.0285-22.405 7.4496-29.144 1.5215-4.2348 3.7744-8.0463 6.4194-10.86l1.5174-1.6144 1.6815 2.2866-1.3026 1.3773c-1.5819 1.6726-3.4609 4.5305-4.4969 6.8395-2.0555 4.5812-5.7185 17.914-7.9303 28.866l-1.0687 5.2917-0.53294 6.1377 0.50304 5.2394 0.54096 1.5662c0.9911 2.8694 2.9248 5.3336 5.6113 7.1508l1.4096 0.95352 1.7071 0.53044c0.93888 0.29175 2.5596 0.60252 3.6017 0.6906l1.8946 0.16016 2.1805-0.31883c3.8785-0.56712 9.5618-2.4785 29.774-10.014 6.2574-2.3327 12.175-4.518 13.15-4.8562l1.7734-0.61493 1.8646 0.64659c1.0256 0.35562 1.864 0.71045 1.8633 0.78849-1e-3 0.14649-2.6172 1.1149-27.515 10.187-15.484 5.6418-17.558 6.3029-21.16 6.7454-2.2371 0.27485-2.7564 0.28465-4.5048 0.085zm111.65 0.0352c-0.3638-0.0636-1.3758-0.23995-2.249-0.39198-3.4462-0.60004-10.416-3.0117-33.119-11.459-21.17-7.8772-36.241-13.286-41.494-14.891l-5.0271-1.5363-6.0854 0.014-2.9104 0.74531c-2.7873 0.71378-11.395 3.7155-11.869 4.139l-0.22759 0.20332 0.44729 1.3467c0.24601 0.74067 0.53352 1.3467 0.63891 1.3467s2.3282-0.78151 4.9397-1.7367c2.6114-0.95517 5.5815-1.9702 6.6002-2.2556l1.8521-0.51891 4.8022-0.32506 1.9646 0.43997c1.0805 0.24199 2.726 0.7171 3.6567 1.0558l1.6921 0.61583-0.26713 0.1651c-0.39624 0.24489-3.3877 1.3389-17.272 6.317l-12.568 4.5059-4.7625 0.24385-2.3812-1.2311-0.63753-1.1651-0.63752-1.1651-0.11894-2.5391-0.11894-2.5391 0.4466-3.0427c0.9162-6.2421 2.6713-13.871 5.3079-23.072l1.4632-5.1062 1.2288-2.7781c1.4118-3.192 2.2127-4.4485 3.8244-6.0004l1.1482-1.1056 1.558 0.63921c0.85688 0.35157 2.4047 0.84035 3.4396 1.0862l1.8816 0.44697 78.581 0.1964 5.2917-0.58533 5.1904-1.7609 0.80177 0.67464c0.44097 0.37106 1.3833 1.5027 2.094 2.5147l1.2922 1.8401 0.80361 2.0838c1.6834 4.3652 5.3295 17.381 6.625 23.65 0.30071 1.4552 0.77833 4.1341 1.0614 5.9531l0.51461 3.3073 1e-3 2.6458 1e-3 2.6458-0.27754 0.99942c-0.15265 0.54968-0.63418 1.4056-1.0701 1.9021l-0.79254 0.90265-1.8951 0.62544-4.0316-0.23749-6.7469-2.2666c-5.3971-1.8131-19.093-6.7884-23.151-8.4102l-0.79375-0.31721 5.5562-1.8831 6.6146 0.01 2.3168 0.69845c1.2743 0.38415 4.2479 1.4054 6.608 2.2696l4.2912 1.5711 0.31801-0.26392c0.1749-0.14515 0.49976-0.79737 0.72192-1.4494l0.40392-1.1854-0.71536-0.27356c-0.39345-0.15045-3.1854-1.1036-6.2044-2.118-6.0022-2.0169-8.5795-2.6141-11.269-2.6113l-1.7627 2e-3 -2.1963 0.52652c-1.208 0.28959-3.6118 1.0031-5.342 1.5856l-3.1457 1.0591h-2.1284l-2.9796-1.1148 0.22312-0.21219c0.12271-0.11671 3.1401-1.1224 6.7054-2.2349l6.4823-2.0228 4.1671-0.56148 2.3035 0.29541c2.6612 0.34129 5.7341 1.224 12.05 3.4616 2.4739 0.87639 4.5811 1.5939 4.6828 1.5944 0.21496 1e-3 1.156-2.8568 0.98687-2.9972-0.42765-0.35495-9.5631-3.5158-12.09-4.1832l-3.1045-0.81988-7.2105-0.26658-1.8039 0.31414c-0.99216 0.17277-4.8901 1.3163-8.6622 2.5413s-7.5512 2.4216-8.3982 2.6592l-1.54 0.4321-1.9091-0.74899-1.9091-0.749 0.79716-0.32527c1.8136-0.74003 19.264-6.2312 20.912-6.5805l1.786-0.37847 3.0603-5e-3c4.6267-7e-3 7.1857 0.58689 16.343 3.7925l4.8511 1.6982 0.50669-1.1821c0.27868-0.65014 0.50669-1.3218 0.50669-1.4926v-0.31052l-4.9609-1.7846c-6.1884-2.2262-8.8119-2.9694-12.321-3.4904-3.4282-0.50904-6.5015-0.52022-9.4935-0.0345l-2.3014 0.37359-9.2079 2.9568c-5.0644 1.6262-10.505 3.4414-12.091 4.0336l-2.8833 1.0769-1.2178-0.46844c-7.0554-2.712-22.54-7.5753-25.776-8.0932l-2.0683-0.3311-6.7114 0.32496-2.9104 0.6711c-3.8214 0.88116-13.855 4.251-14.482 4.8637l-0.19447 0.19016 0.50818 1.3137 0.50817 1.3137 0.34775-0.0869c0.19126-0.0478 2.4313-0.83973 4.978-1.7599 5.1407-1.8574 7.5286-2.5568 10.811-3.1664l2.212-0.41079 6.1593 8e-3 1.7142 0.40402c2.2028 0.51917 10.474 3.0922 16.41 5.1052 2.5466 0.86354 13.56 4.9064 24.474 8.9842 20.087 7.505 21.598 8.0534 32.015 11.62l5.8208 1.993 4.5499 0.25726 1.4778-0.42961 1.4778-0.4296 2.2841-1.7387 1.8126-3.5497 0.11772-2.8573 0.11773-2.8573-0.31349-2.3676c-0.87611-6.6168-2.8291-15.238-5.7186-25.244l-1.7218-5.9628-1.4437-2.9104-1.4437-2.9104-2.9092-3.4068 0.85644-0.73323c0.47103-0.40327 0.99573-0.73806 1.166-0.74398 0.17027-6e-3 0.91903 0.67305 1.6639 1.5088l1.3544 1.5196 1.4199 2.7799c2.0561 4.0255 3.0095 7.0181 5.8409 18.334 2.8366 11.337 3.7262 15.757 3.9887 19.817l0.17974 2.7801-0.31901 2.2233-0.31902 2.2233-0.63915 1.4118c-0.89905 1.9859-2.0053 3.2858-3.8377 4.5094l-1.5818 1.0563-4.0344 0.89758-4.1351-0.34485-2.2943-0.66487c-2.9138-0.84456-19.088-6.7111-39.136-14.195-19.246-7.185-21.262-7.899-30.126-10.674l-7.1077-2.225-4.5309-0.60295-2.7807 0.31289c-1.5294 0.17209-4.098 0.65268-5.7081 1.068-2.8368 0.73168-11.433 3.7889-11.879 4.2247l-0.22034 0.2153 0.48088 1.3539c0.26448 0.74467 0.55489 1.3539 0.64536 1.3539 0.0905 0 1.8782-0.64258 3.9728-1.428 4.658-1.7466 7.7257-2.6923 10.46-3.2248l2.0792-0.40486 5.3359-0.014 1.1685 0.30427c1.4913 0.38832 7.5633 2.2795 13.339 4.1547 2.4739 0.80314 9.3795 3.2839 15.346 5.5128 46.363 17.32 49.521 18.391 54.203 18.378 2.2748-6e-3 5.0332-0.64072 7.0117-1.6123l1.6831-0.82653 3.2648-3.2452 0.84791-1.6174c0.46635-0.88955 1.0533-2.3778 1.3044-3.3073l0.45645-1.6899-6e-3 -7.9375-0.474-2.9104c-1.1851-7.2766-3.2252-15.855-6.1037-25.665l-1.4751-5.0271-1.5699-3.1778-1.5699-3.1778-3.7734-4.6646 0.72848-1.0512 0.72849-1.0512 1.428 1.4019c0.78538 0.77103 1.9574 2.1941 2.6044 3.1624 1.4383 2.1524 3.7828 7.0291 4.7403 9.8602 0.97501 2.8828 5.4885 20.835 6.4585 25.689l0.79251 3.9654 0.2814 3.6151 0.2814 3.6151-0.28905 2.6026c-0.32284 2.9068-0.94634 5.0078-2.1858 7.3651l-0.83466 1.5875-3.974 3.9834-1.9844 0.9595c-1.0914 0.52772-2.7583 1.1459-3.7042 1.3736-1.8081 0.43541-5.4913 0.73593-6.6146 0.53969zm-112.71-6.3094c-0.65484-0.1825-1.7859-0.63829-2.5135-1.0129l-1.3229-0.68104-1.2301-1.2786c-1.4094-1.465-2.3828-3.2848-2.8776-5.3796l-0.34367-1.4552 0.053-6.35 0.81731-4.7625c1.4531-8.4675 5.7168-24.723 7.6862-29.304 1.3103-3.0481 2.8319-5.5627 4.406-7.2812l1.2785-1.3959 1.054 0.90237 1.054 0.90237-1.1185 1.2135c-1.4169 1.5372-2.7874 3.676-3.8066 5.9405-1.6312 3.6244-5.3629 17.22-7.0948 25.848l-1.0622 5.2917-0.313 3.338-0.313 3.338 0.5644 4.0222 0.56135 1.1596c0.72176 1.491 2.1618 2.9235 3.7012 3.6821l1.217 0.59968 6.0854-0.023 11.642-4.1334c6.4029-2.2734 14.023-5.0214 16.933-6.1068 2.9104-1.0854 5.5622-2.0567 5.8928-2.1586l0.6011-0.18528 3.9793 1.1813-0.20952 0.20517c-0.21081 0.20644-25.889 9.689-31.563 11.656-1.6735 0.58007-4.3902 1.4041-6.0372 1.8312l-2.9944 0.77647-1.7681-0.0237c-0.97243-0.013-2.3038-0.17297-2.9587-0.35548zm18.389-56.425c-4.694-0.68144-9.5033-3.3091-12.162-6.6451-2.4064-3.019-4.2968-7.5842-4.8816-11.788l-0.28634-2.0588 6e-3 -9.0898 0.38425-3.6206c0.50816-4.788 1.8286-13.087 2.5456-16 1.1977-4.8653 3.2287-8.4693 6.384-11.328l1.6606-1.5048 5.2917-2.6086 5.1415-1.3307c5.774-1.4944 7.9003-2.3016 10.231-3.8845 1.7495-1.1881 4.653-3.9917 5.3423-5.1586 0.23839-0.40357 0.50267-0.73376 0.58728-0.73376 0.0846 0 0.60282 0.45979 1.1516 1.0218l0.99772 1.0218-2.1844 2.3077c-2.5926 2.7389-4.678 4.2823-7.699 5.698l-2.224 1.0422-5.0282 1.3116c-7.5532 1.9702-9.7801 3.0466-12.596 6.0886l-1.4099 1.5228-1.9628 3.7353-0.65643 2.4788c-0.87831 3.3167-1.8712 9.1013-2.5594 14.911l-0.56445 4.7654-0.0178 5.0271-0.0178 5.0271 0.54886 2.5162c0.30188 1.3839 0.92192 3.408 1.3779 4.4979l0.82901 1.9817 1.3146 1.7482c1.5742 2.0936 3.4286 3.575 6.0388 4.8244l1.9318 0.9247 3.5447 0.59317 39.952-0.153 1.5771-0.5949c3.2669-1.2322 5.5624-3.2065 8.076-6.9457 1.7203-2.5591 8.2063-12.899 8.2063-13.083 0-0.27492-2.4051-1.7502-2.6284-1.6122-0.13346 0.0825-1.5186 2.2618-3.0781 4.8429-1.5595 2.5811-3.6624 5.9116-4.673 7.4012l-1.8375 2.7082-1.3521 1.2157c-1.5477 1.3916-2.6322 1.9952-4.6689 2.5991l-1.4371 0.42606-37.607-0.01-1.8521-0.39057c-1.0186-0.21482-2.5774-0.74674-3.4639-1.182l-1.6118-0.79146-2.7529-2.7529-1.044-2.1333c-1.2628-2.5803-1.7672-4.4622-2.1321-7.9541l-0.27647-2.6458 0.29474-4.6302c0.42523-6.68 1.4554-14.121 2.6741-19.315l0.52771-2.249 1.9454-3.9394 3.0214-3.0878 4.4053-2.0384 4.7171-1.2266c2.5944-0.67461 5.6305-1.5791 6.7469-2.0099l2.0298-0.78336 4.7625-3.0835 1.729-1.7051c0.95098-0.9378 2.2011-2.2687 2.7781-2.9576l1.0491-1.2525 2.245 1.3657-0.85789 1.1984c-2.1459 2.9978-6.092 6.4228-9.547 8.2864-2.9381 1.5848-4.8017 2.253-10.361 3.715-5.5765 1.4666-7.1594 2.1209-8.9558 3.7022l-1.2188 1.0728-0.92016 1.9009-0.92017 1.901-0.66333 3.0427c-0.79716 3.6566-1.8842 11.107-2.2581 15.478-0.51521 6.0216-0.25608 10.602 0.79167 13.994l0.52362 1.6953 2.1132 3.1645 2.7767 1.8982 3.175 0.914 35.97 0.1954 1.6994-0.29594c0.93468-0.16277 2.1548-0.52825 2.7113-0.81218 2.3456-1.1966 3.2073-2.3155 9.2253-11.979l3.2684-5.2482-0.2609-0.17573c-1.4204-0.95663-2.2398-1.3794-2.4371-1.2574-0.13003 0.0804-0.74939 1.0115-1.3764 2.0691-2.5231 4.2562-7.4892 11.773-8.3995 12.713l-0.96838 1.0002-1.3094 0.38886-1.3094 0.38885h-34.918l-3.3798-0.58856-2.4801-1.6604-1.7353-3.4396-0.38668-1.8521-0.38669-1.8521-5e-3 -3.61c-7e-3 -5.3164 0.8367-12.676 2.2689-19.797 0.75533-3.7558 1.2516-5.0407 2.4932-6.4547 1.258-1.4328 2.7693-2.0956 7.9556-3.4889 7.7782-2.0896 9.8594-2.9334 13.897-5.6342l2.3658-1.5825 2.0417-2.0285c1.1229-1.1157 2.656-2.8547 3.4069-3.8644l1.3652-1.8359 0.42286 0.12994c1.6597 0.51 4.4081 0.97955 6.9111 1.1808l2.9414 0.23644 2.8016-0.24326c2.4001-0.2084 5.1233-0.68533 6.7238-1.1776l0.43426-0.13355 1.714 2.195c3.0305 3.881 6.9135 7.1049 11.118 9.2311 3.0545 1.5446 4.3708 2.0136 9.2832 3.3078 5.5447 1.4608 7.0375 1.9813 8.1784 2.8516l0.89932 0.68594 0.6907 1.269c1.3126 2.4118 2.2308 7.0467 3.5228 17.783l0.42984 3.5719 0.0164 3.8364 0.0164 3.8365-0.44903 1.8267c-1.1535 4.6925-2.7539 6.4068-6.5574 7.0239l-1.6856 0.27351-9.4588 2e-3c-5.2024 1e-3 -9.4588-0.0597-9.4588-0.1351s1.1289-2.0024 2.5086-4.2823c1.3798-2.2799 2.4811-4.1634 2.4474-4.1856-0.0337-0.0222-0.61098-0.41174-1.2829-0.86559l-1.2217-0.82519-2.7329 4.4203c-1.5031 2.4312-3.7057 5.9086-4.8947 7.7276l-2.1618 3.3073-1.9552 1.8521-1.9552 1.8521-1.5877 0.84116c-0.87321 0.46264-2.4798 1.1136-3.5701 1.4466l-1.9825 0.60539-19.844 0.0406c-10.914 0.0223-20.201-0.0112-20.638-0.0746zm49.477-0.49621c0.43656-0.37252 1.201-0.99704 1.6988-1.3878l0.90502-0.71051 29.675-0.2735 4.2333-1.4344 1.6472-1.0808c0.90595-0.59442 2.2546-1.7579 2.997-2.5856l1.3498-1.5049 1.1544-2.3812c1.2951-2.6716 1.8061-4.4614 2.2662-7.9375l0.31519-2.3812-0.15859-4.6302c-0.16901-4.9347-0.59044-8.8259-1.6476-15.214-1.3307-8.0403-2.3845-11.255-4.6844-14.291l-1.2052-1.5908-1.5461-1.158c-2.16-1.6178-4.2388-2.5079-8.7552-3.7488-8.693-2.3884-10.399-3.0705-13.49-5.3944-1.7859-1.3425-5.3623-5.0704-5.3623-5.5894 0-0.17593 0.43738-0.7039 0.97195-1.1733l0.97196-0.85339 0.54337 0.75983c1.9295 2.6982 5.082 5.2683 8.3841 6.8353l1.9609 0.93055 4.6905 1.1822c5.3503 1.3484 7.8979 2.2956 10.364 3.8531l1.727 1.0907 1.8656 1.9977 1.8656 1.9977 1.1831 2.4165c0.65072 1.3291 1.4811 3.467 1.8453 4.751 1.1523 4.0623 2.4792 13.194 3.0632 21.081l0.30369 4.101-0.18186 2.8561c-0.35195 5.5274-1.7152 10.127-4.071 13.736l-1.2594 1.9293-1.7021 1.5446-1.7021 1.5446-2.3812 1.1447c-1.3097 0.6296-3.2147 1.3552-4.2333 1.6125l-1.8521 0.46773-32.544 0.1654zm6.2768-6.6624 0.90233-1.2568 23.513-0.30815 3.582-1.1714 2.7288-2.2246 1.9943-3.6847 0.47769-1.8618 0.4777-1.8618-0.0126-5.9531-0.0126-5.9531-0.59391-4.101c-1.481-10.227-2.0944-12.945-3.5345-15.661-0.98883-1.8652-2.3367-3.2438-3.9983-4.0893-0.70005-0.35623-3.6294-1.2913-6.5097-2.078-7.5171-2.0531-10.218-3.1694-13.649-5.6408-1.8238-1.3139-4.9845-4.375-6.3783-6.1772l-1.1596-1.4995 2.4965-1.3953 0.52485 0.74193c1.1089 1.5675 4.5496 4.891 6.3445 6.1283 3.6948 2.547 5.928 3.4452 13.233 5.322l4.2131 1.0824 3.48 1.656 3.4798 3.4865 0.71189 1.5142c1.4159 3.0116 2.7454 9.5346 3.7898 18.594l0.45756 3.9688-7e-3 5.1594-6e-3 5.1594-0.57477 2.1167c-0.31612 1.1642-0.99163 2.9668-1.5011 4.0059l-0.92637 1.8892-1.4897 1.5137-1.4897 1.5136-1.8836 0.89256c-1.036 0.49091-2.525 1.0134-3.3088 1.1612l-1.4252 0.2686h-24.848zm-19.216-64.114c-4.0836-0.56317-7.9785-2.0768-11.097-4.3125-2.0367-1.4603-5.2992-4.8232-6.7066-6.9131-2.3753-3.5273-4.37-8.2077-5.525-12.965l-0.64245-2.6458-0.53902-4.7269-0.53901-4.7269 0.16545-2.6814c0.47323-7.6698 2.0714-12.618 5.484-16.979 3.7641-4.8107 9.631-8.1611 16.931-9.6688l2.7077-0.55923 7.4083 0.012 2.2515 0.40662c3.0404 0.54911 6.007 1.5444 8.8147 2.9572 3.2483 1.6346 4.4857 2.5246 6.9449 4.9952l2.1362 2.146 1.1298 1.9017c1.52 2.5585 2.5235 5.2301 3.1863 8.4828l0.55099 2.7038 0.16166 3.2379 0.16167 3.2379-0.31402 3.3073c-0.82656 8.7057-3.0764 15.763-6.8178 21.386l-1.5054 2.2624-2.0222 2.0222-2.0222 2.0222-2.0882 1.3709c-3.8446 2.5239-7.5902 3.6242-13.088 3.8449l-3.3003 0.13243zm10.425-3.2925c0.94588-0.24456 2.693-0.90821 3.8826-1.4748l2.1628-1.0301 4.0188-3.1936 3.356-4.2441 1.3353-2.5672c2.3668-4.5502 3.7118-9.1977 4.424-15.286 0.97795-8.3602 0.12405-15.127-2.56-20.286l-1.0792-2.0743-1.8359-1.9658-1.8359-1.9658-1.8539-1.2325c-2.4579-1.634-5.9599-3.1541-9.143-3.9686l-2.5913-0.6631-6.35-0.28961-5.4422 0.83544-5.8528 1.9442-2.1182 1.2731c-5.1591 3.1007-8.1959 7.0494-9.8734 12.838l-0.66839 2.3065-0.30476 3.3126-0.30477 3.3127 0.31396 3.9822 0.31395 3.9822 0.67243 3.3053c0.80288 3.9466 1.6368 6.5385 3.0226 9.3947 2.7103 5.586 6.6995 9.9262 11.249 12.239 1.3272 0.67473 4.4886 1.6441 6.2978 1.9311 0.75453 0.11968 3.0983 0.17502 5.2083 0.12298l3.8364-0.0946zm-9.9219-2.6982c-1.917-0.26512-4.1215-0.9943-6.0779-2.0104l-2.1092-1.0955-1.8225-1.7193c-5.3101-5.0093-8.2729-12.44-9.2079-23.095l-0.31904-3.6356 0.30613-3.1113c0.64936-6.5995 2.7086-10.948 6.7949-14.349l1.3229-1.1009 5.3041-2.6107 5.2792-1.4048 8.2021 0.00198 2.0717 0.56376c3.0722 0.836 6.2684 2.2139 8.3585 3.6035l1.8537 1.2323 1.487 1.6397 1.487 1.6397 1.0186 2.1167c1.1968 2.4868 1.7097 4.364 2.1328 7.8052l0.30904 2.5136-0.15288 3.5719-0.15287 3.5719-0.52806 3.0427c-1.9441 11.202-7.0268 18.853-14.43 21.722l-1.8668 0.72347-2.0697 0.2866c-1.9967 0.2765-5.5484 0.32468-7.1908 0.0976zm9.4472-3.4829 1.7743-0.5754 2.0217-1.3522 2.0217-1.3522 1.5026-1.8908c4.2959-5.4059 6.6328-13.317 6.6884-22.643 0.0377-6.3302-1.4375-11.157-4.3568-14.256-2.2609-2.3998-6.8678-4.6553-11.168-5.4678l-2.3747-0.44866-6.35 0.28655-2.3812 0.68867c-2.9961 0.86649-5.6581 2.1696-7.5773 3.7091l-1.4919 1.1968-1.2264 1.7948-1.2264 1.7948-0.62356 1.8452c-0.34295 1.0148-0.77476 2.9537-0.95957 4.3087l-0.33602 2.4636 0.16303 3.7542c0.34882 8.0321 2.0969 14.353 5.303 19.176l1.2482 1.8775 3.6542 3.3832 1.6954 0.83464c0.93247 0.45905 2.3977 1.011 3.2561 1.2265l1.5607 0.39184 7.4083-0.1704zm-8.7561-2.4288-1.6902-0.22509-3.7981-1.8037-1.3588-1.3588c-3.1687-3.1687-5.2004-7.4065-6.4312-13.414l-0.53874-2.6298-0.14969-4.4979-0.1497-4.4979 0.42122-2.22 0.42121-2.22 0.79033-1.6889 0.79034-1.6889 2.8494-2.8494 1.8388-0.926c1.0113-0.5093 2.7266-1.2048 3.8118-1.5456l1.973-0.61956 8.2021 4e-3 2.5135 0.87123c3.1765 1.101 5.0079 2.1944 6.6234 3.9543 1.5805 1.7217 2.5122 3.5899 3.0708 6.1578l0.43035 1.9781-0.012 7.6729-0.4395 2.8604c-0.58912 3.8341-1.5196 6.9649-2.9242 9.8396-1.4478 2.9629-3.1181 5.0893-5.2038 6.6247l-1.6093 1.1847-3.508 1.0181-2.1167 0.12288c-1.1642 0.0676-2.8772 0.0216-3.8068-0.1022zm-111.68 185.33c-0.80036-0.21413-2.0773-0.76545-2.8377-1.2252l-1.3825-0.83582-9.4058-8.9009v-0.97011l16.909-17.806 0.81785 6e-3 4.4979 4.2596c2.4739 2.3428 4.9363 4.8428 5.472 5.5556 1.2158 1.6175 2.0525 3.8154 2.2475 5.9042l0.14991 1.6054-0.43282 1.6895c-0.23805 0.9292-0.81744 2.4173-1.2875 3.3068l-0.8547 1.6174-3.7069 3.7069-1.685 0.89073c-3.0501 1.6124-5.6027 1.9715-8.5015 1.1959zm5.2917-6.9887c1.2799-0.65003 3.0702-2.5224 3.7452-3.9167l0.56369-1.1644v-2.7319l-0.46158-0.89259c-0.50001-0.96691-4.5876-5.0368-5.0658-5.0438-0.32327-5e-3 -8.8357 8.8482-8.8357 9.1892 0 0.28881 3.3726 3.5558 4.3753 4.2382 0.44188 0.30075 1.2158 0.66775 1.7198 0.81555l0.91637 0.26872 1.0583-0.14594c0.58209-0.0803 1.4751-0.35758 1.9844-0.61626zm-27.951-14.217c-0.39896-0.5457-1.0003-1.3712-1.3364-1.8344l-0.611-0.84224 5e-3 -0.74526c3e-3 -0.40989 1.0595-4.3767 2.3479-8.815l2.3426-8.0698-0.22839-0.0872c-0.12561-0.048-2.5987 1.5891-5.4958 3.638l-5.2674 3.7253h-1.0165l-1.5271-2.2252-1.5271-2.2252 0.184-0.9557 10.048-7.0865c5.5263-3.8976 10.169-7.0847 10.317-7.0824 0.46904 7e-3 0.7993 0.34934 2.0709 2.1462 0.68244 0.96437 1.2408 1.971 1.2408 2.237s-1.0786 4.2225-2.3968 8.7924c-1.3182 4.5698-2.3394 8.3661-2.2693 8.4363 0.0701 0.0701 2.131-1.2927 4.5796-3.0286 2.4486-1.7359 4.9551-3.4868 5.57-3.8911l1.1179-0.73496 0.34105 0.13087c0.18758 0.072 1.0495 1.1632 1.9154 2.4249l1.5743 2.294-0.27382 0.43408c-0.15059 0.23875-4.7088 3.5667-10.129 7.3955l-9.8555 6.9615h-0.99458zm269.35-3.8861c-0.88931-0.20083-2.1395-0.63012-2.7781-0.954-1.5699-0.79612-13.409-9.0322-13.577-9.4451l-0.13366-0.32845 3.221-4.7671h0.99808l5.6203 3.9298c3.0912 2.1614 6.1216 4.1854 6.7343 4.4979l1.1139 0.56812h2.4286l0.74133-0.38336c0.40774-0.21085 1.1311-0.82727 1.6075-1.3698 2.2534-2.5664 2.1247-5.1901-0.36434-7.4306-0.61267-0.55148-3.5779-2.7043-6.5894-4.7841l-5.4755-3.7814v-0.50837c0-0.2796 0.67351-1.4652 1.4967-2.6347l1.4967-2.1264h1.0401l11.705 8.0698 3.0617 3.0154 1.5991 3.4172 0.15153 1.8108 0.15152 1.8108-0.42384 1.6533c-1.3998 5.46-5.7309 9.5145-10.642 9.9625l-1.5666 0.14291zm-288.06-25.846c-0.63041-1.3643-2.4381-5.312-4.017-8.7728l-2.8708-6.2923 0.37896-0.35985c0.20843-0.19792 5.3796-2.6425 11.491-5.4325l11.112-5.0726 0.38709 0.23807c0.46874 0.28829 7.9473 16.572 7.9473 17.305v0.51704l-2.2218 1.0412c-2.3295 1.0916-3.164 1.2604-3.5132 0.71044-0.11549-0.1819-1.1147-2.2953-2.2205-4.6964-1.1058-2.4011-2.2225-4.8121-2.4816-5.3578l-0.47106-0.99218h-0.35965c-0.1978 0-0.89861 0.26185-1.5574 0.58188l-1.1977 0.58189v0.45525c0 0.25039 0.89628 2.3944 1.9917 4.7644l1.9917 4.3091-0.13756 0.35849c-0.17279 0.45028-4.5638 2.5285-4.9938 2.3635-0.17467-0.067-1.253-2.1624-2.3963-4.6565-1.1433-2.494-2.1814-4.5981-2.3069-4.6757-0.12552-0.0776-0.76537 0.0966-1.4219 0.38697l-1.1937 0.52802v0.49064c0 0.26984 1.0716 2.8408 2.3812 5.7131 1.3097 2.8724 2.3812 5.443 2.3812 5.7126v0.49008l-2.0505 0.97458c-1.1278 0.53602-2.3779 1.0404-2.7781 1.1208l-0.7276 0.1462zm304.34-0.72414-0.60837-0.49264 0.46159-1.161c0.25387-0.63856 0.78234-1.8138 1.1744-2.6117l0.71279-1.4507 0.79929-0.15716c1.7502-0.34412 3.1151-1.907 3.8463-4.404l0.32578-1.1125-0.88252-1.3469h-1.3467l-3.4877 3.3876c-3.857 3.7462-4.6227 4.2962-6.8946 4.9519l-1.5547 0.44876-1.0468-0.16739c-0.57575-0.0921-1.6189-0.45731-2.3182-0.81165l-1.2714-0.64426-1.9234-2.247-0.39091-1.3164c-1.0962-3.6914 0.23933-8.5222 3.2741-11.843l1.3148-1.4386 2.7533-1.4985 3.2471-0.25462 0.90426 0.23751c0.49734 0.13063 1.0256 0.42997 1.174 0.66521l0.26979 0.4277-1.1326 2.5069-1.1326 2.5069-2.5291 0.3355-0.67265 0.62339c-0.36995 0.34286-0.92086 1.1099-1.2242 1.7046l-0.55159 1.0812v2.0319l0.3175 0.3175c0.17463 0.17462 0.59773 0.3175 0.94024 0.3175h0.62274l6.7546-6.4896 3.3745-1.7986 3.7769-0.24239 1.1822 0.52293c0.6502 0.28762 1.6076 0.89644 2.1275 1.353l0.94533 0.83001 0.53878 1.2587c0.29633 0.69228 0.61745 1.7945 0.7136 2.4493l0.17483 1.1906-0.8296 3.9688-2.1219 4.424-3.5683 3.5572-2.6078 0.88238h-3.0221zm6.5029-30.616c-5.6753-4.1492-10.55-7.7729-10.832-8.0527l-0.51285-0.50857 1.2732-5.3932 0.81088-0.9397 12.7-1.7404c6.985-0.95721 13.027-1.739 13.428-1.7373l0.7276 3e-3v0.27263c0 0.77084-1.4462 5.8983-1.749 6.2011l-0.35161 0.35161-3.167 0.36757-0.23854 0.30614c-0.13119 0.16838-0.75081 2.3793-1.3769 4.9131l-1.1384 4.607 0.54477 0.4201c0.29963 0.23106 0.97338 0.75261 1.4972 1.159l0.95245 0.73889v0.67813c0 0.60601-0.22331 1.6194-1.0846 4.9217l-0.25876 0.99219-0.45282-8e-3c-0.24906-4e-3 -5.0963-3.403-10.772-7.5522zm5.0279-7.7889 0.48621-2.1289-0.48701-0.44761-3.3073 0.3818c-1.819 0.20999-3.3911 0.46356-3.4936 0.56349-0.10248 0.0999 1.1371 1.1025 2.7547 2.228l2.941 2.0464 0.30987-0.25718c0.17043-0.14144 0.52867-1.2152 0.7961-2.386zm-323.41 12.744-1.4095-0.50173-1.0608-1.0259c-0.58341-0.56426-1.3354-1.5625-1.6712-2.2184l-0.61046-1.1924-1.7479-6.8354c-0.96137-3.7595-1.7479-7.1176-1.7479-7.4625v-0.62702l0.99219-0.26043c8.57-2.2494 22.913-5.8454 23.315-5.8454h0.52622l0.40018 1.3891c0.22011 0.76399 1.0025 3.7957 1.7386 6.7372l1.3384 5.3481-0.012 3.8558-0.48343 1.0642c-0.63872 1.406-1.9985 2.7339-3.4707 3.3892l-1.1936 0.53129-3.175 0.0386-2.6053-1.4655-0.18673 0.20546c-0.1027 0.113-0.32369 0.63462-0.49108 1.1592-0.1674 0.52453-0.71485 1.4332-1.2166 2.0194l-0.91218 1.0657-1.0638 0.42564c-0.58508 0.2341-1.6891 0.48908-2.4534 0.56662l-1.3897 0.14098zm3.8009-6.7741 0.91923-0.38408 0.25049-0.65883 0.25048-0.65884-0.80822-3.3307-0.80822-3.3307-0.74334-0.74334-1.73 0.4797c-0.95148 0.26384-1.8084 0.55813-1.9042 0.65398-0.0959 0.0959 0.21703 1.7677 0.69527 3.7153l0.86955 3.541 0.44106 0.38349c0.42557 0.37002 1.0111 0.65276 1.4418 0.69623 0.11381 0.0115 0.62059-0.15195 1.1262-0.36319zm9.1293-3.5907c0.27814-0.14886 0.63814-0.5181 0.8-0.82054l0.2943-0.54989-0.70182-2.8289c-0.386-1.5559-0.80668-2.9986-0.93484-3.206l-0.23302-0.37704-1.5362 0.32096-1.5362 0.32095-0.61066 0.82814 0.75571 2.7936 0.7557 2.7936 0.90105 0.99565h0.77014c0.42357 0 0.9977-0.12179 1.2758-0.27064zm-16.812-30.331c-1.1806-0.62129-2.2677-1.7015-2.6784-2.6614l-0.36429-0.8514 8e-3 -2.7951 0.59499-1.0505c0.68564-1.2106 1.936-2.1366 3.4272-2.5381l1.0405-0.28018 0.83775 0.18074c1.9069 0.4114 3.1704 1.3469 3.9808 2.9473l0.42878 0.84676v1.3188c0 2.2584-0.93091 3.7703-2.966 4.8171l-0.98164 0.50493-2.5346-0.0212zm330.19-0.0584c-1.2692-0.57649-2.3358-1.7675-2.7751-3.0987l-0.31802-0.96361 0.12369-1.2873 0.12369-1.2873 0.70439-1.0164 0.7044-1.0164 0.98855-0.5435c0.5437-0.29893 1.4107-0.61841 1.9266-0.70997l0.93802-0.16645 2.6953 0.80042 1.8396 2.0362 0.31902 1.3298 0.31903 1.3298-0.28278 1.0502c-0.15553 0.57759-0.55093 1.4462-0.87866 1.9303l-0.59587 0.88015-2.3322 1.23-2.4303-0.012zm-324.24-26.906-11.509-6.7342-0.44248-0.97293 0.40419-2.7228c0.22231-1.4975 0.52394-2.8425 0.67029-2.9889 0.27755-0.27755 25.436-6.5382 26.274-6.5382h0.47865v0.53091c0 0.292-0.18141 1.7505-0.40312 3.2412l-0.40312 2.7102-0.38053 0.28636c-0.20929 0.1575-1.0471 0.43554-1.8618 0.61786l-1.4813 0.33149-0.24077 0.57277c-0.2675 0.63634-1.3148 7.7281-1.3148 8.9031v0.74729l1.4669 0.82787c0.8068 0.45534 1.5358 1.0075 1.6201 1.227 0.17337 0.45179-0.39976 5.2215-0.73677 6.1316-0.12125 0.32742-0.3127 0.58816-0.42544 0.57941-0.11274-9e-3 -5.3842-3.0463-11.714-6.7501zm4.4041-8.1 0.34753-2.184-0.21683-0.21682-0.21682-0.21682-6.8316 1.4792 0.0391 0.24586c0.0215 0.13522 1.3881 0.99442 3.037 1.9093l2.9979 1.6635 0.24812-0.24812c0.13646-0.13647 0.4045-1.2309 0.59563-2.4321zm308.99 12.409-1.3248-0.63367-0.85846-0.97773c-1.1562-1.3169-2.1022-3.2464-2.5752-5.2526l-0.39108-1.6587-4e-3 -2.4195-4e-3 -2.4195 1.0624-3.363 0.75735-0.99321c0.98825-1.296 1.8732-1.9757 3.1669-2.4321l1.0523-0.37126 0.88103 0.64423 0.35779 2.5022 0.35778 2.5022-0.51186 0.66146c-0.28153 0.3638-0.71446 0.94606-0.96207 1.2939l-0.4502 0.63245 0.0195 1.7488 0.0195 1.7488 0.82942 1.9655 1.4485 0.36354 1.1626-1.3516 0.43167-1.8778c0.23742-1.0328 0.62674-2.741 0.86514-3.796 0.86447-3.8255 2.5264-6.5389 4.7009-7.6747l1.0834-0.56591 4.2333-0.022 1.0583 0.57069c1.3392 0.72213 3.0928 2.5447 3.7885 3.9375 0.29511 0.59081 0.73696 1.841 0.98189 2.7781l0.44532 1.7039-0.11634 2.6961-0.11635 2.6961-1.698 3.4491-2.1689 1.8565-2.6246 0.87174-0.7687-0.76869-0.24519-1.6963c-0.13486-0.93294-0.24759-2.1822-0.25051-2.776l-5e-3 -1.0798 0.61666-0.33002c0.33916-0.18152 0.83775-0.70431 1.108-1.1618l0.49131-0.83174-0.0186-1.2323c-0.0102-0.67776-0.16116-1.6643-0.33541-2.1923l-0.31683-0.95999-0.49058-0.26255c-0.26982-0.14441-0.73348-0.26256-1.0304-0.26256h-0.53977l-0.38637 0.74715c-0.2125 0.41094-0.80647 2.4898-1.3199 4.6197l-0.93357 3.8726-0.6805 1.3429c-0.88713 1.7507-2.3421 3.3414-3.6866 4.0307l-1.0764 0.55183-3.7042 0.2092zm-6.7948-25.124c-0.23042-0.18258-0.74053-1.3159-1.1336-2.5185l-0.71461-2.1865 0.69283-1.1822c0.38106-0.65023 2.5853-4.0716 4.8983-7.6031 2.313-3.5314 4.103-6.4579 3.9778-6.5032-0.1252-0.0453-2.9829 0.8179-6.3504 1.9182-3.3676 1.1003-6.2839 2.0006-6.4808 2.0006h-0.35798l-0.51223-1.3891c-0.28173-0.76399-0.72055-2.0261-0.97515-2.8047l-0.46292-1.4157 0.36083-0.35332c0.39186-0.38372 22.744-7.7956 23.51-7.7956 0.2567 0 0.5837 0.14883 0.72666 0.33073 0.40545 0.51585 1.3931 3.6644 1.3856 4.417l-7e-3 0.67623-9.508 14.552 0.26203 0.0879c0.14411 0.0484 3.077-0.82367 6.5176-1.9378l6.2556-2.0258 0.32829 0.35035c0.48213 0.51452 1.7671 4.6019 1.6674 5.3041l-0.0855 0.60248-11.377 3.7659c-6.2574 2.0712-11.562 3.828-11.788 3.9038l-0.41075 0.13797zm-301.55-7.6847-11.482-4.0243-0.25315-0.40289-0.25314-0.40289 2.1722-6.2117c2.3996-6.8618 2.7837-7.7341 4.0328-9.1567l0.85635-0.97532 2.6497-1.2339 1.2088-3e-3c0.66481-1e-3 1.8322 0.18257 2.5943 0.40887l1.3855 0.41145 1.0169 1.0169c0.55931 0.55931 1.172 1.4457 1.3615 1.9698 0.40559 1.1216 0.7226 1.184 1.5485 0.30487 0.6605-0.70307 2.5976-1.4687 3.7159-1.4687 0.38423 0 1.3331 0.18843 2.1087 0.41874l1.4101 0.41874 2.7178 2.7344 0.32177 1.089c0.17697 0.59897 0.32176 1.8714 0.32176 2.8277v1.7387l-2.4157 6.9619c-1.3286 3.829-2.5338 7.1107-2.6782 7.2926-0.14439 0.1819-0.39678 0.32598-0.56086 0.32018-0.16408-6e-3 -5.465-1.8215-11.78-4.0349zm8.9322-4.6197c0.61269-1.1467 2.1525-6.025 2.1525-6.8194v-0.88123l-1.3943-1.0967h-1.7807l-0.95753 0.95753-2.2785 6.4392 0.1436 0.37419 0.14359 0.3742 1.5406 0.53673c1.9364 0.67462 2.1272 0.68369 2.4308 0.11549zm-9.3016-3.0427c0.49516-0.64887 1.9291-5.0305 1.9291-5.8947v-0.87993l-0.69714-0.54837c-0.85197-0.67016-1.706-0.69987-2.4528-0.0854l-0.56271 0.46302-0.92181 2.5905c-0.50699 1.4248-0.92181 2.8138-0.92181 3.0868v0.49632l1.5214 0.53033c1.8697 0.65175 1.7988 0.64363 2.1058 0.24137zm11.057-20.188c-5.8208-3.2611-10.69-6.0921-10.821-6.2911l-0.23802-0.36191 1.3205-2.3415c0.72627-1.2878 1.5064-2.4588 1.7337-2.6021l0.41322-0.26065 16.479 9.175 0.24844-0.24843c0.13664-0.13664 1.4754-2.4463 2.9752-5.1326l2.7267-4.8842 0.86765-0.1672 2.2015 1.2445c2.3954 1.3541 2.6303 1.5707 2.3882 2.2027-0.22968 0.59963-7.386 13.451-8.1539 14.642l-0.63931 0.99219-0.45926-0.0189c-0.2526-0.0104-5.2218-2.6871-11.043-5.9481zm283.04 3.9994c-0.76076-0.18434-2.1895-0.73082-3.175-1.2144l-1.7918-0.87923-3.242-3.2327-0.8293-1.6428c-0.45612-0.90356-1.0066-2.3235-1.2233-3.1555l-0.39399-1.5126v-3.7464l0.39399-1.5126c0.87549-3.3612 2.8364-6.1639 5.5311-7.9056l1.5774-1.0195 3.4012-1.0505 4.8391 0.012 1.7928 0.63273c2.3202 0.81886 4.0317 1.932 5.7276 3.7251l1.3653 1.4436 0.94723 1.9946 0.94723 1.9946 0.57 3.9565-0.58148 4.0362-2.1649 4.369-3.1818 2.9458-1.6526 0.77899c-2.8698 1.3527-5.9306 1.6926-8.8567 0.98359zm5.0256-6.6512 1.2231-0.41674 1.1831-1.0414 1.1831-1.0414 1.2019-2.4827-8e-3 -3.1998-0.53329-1.1906c-0.29332-0.65484-0.85526-1.5715-1.2488-2.037l-0.71545-0.84638-2.8782-1.4082-3.8959 0.1968-2.576 1.5926-0.84869 1.1127-0.8487 1.1127-0.32702 1.4613-0.32703 1.4613 0.32001 1.43 0.32002 1.43 0.76984 1.1497c1.7591 2.6272 5.0207 3.7343 8.0052 2.7174zm-272.36-17.737c-4.2749-3.157-8.8143-6.5052-10.088-7.4404l-2.3151-1.7003v-0.40775c0-0.22427 0.73887-1.4054 1.6419-2.6247l1.6419-2.2169h0.43111c0.38576 0 18.304 13.019 19.767 14.362 0.32743 0.30064 0.59532 0.68846 0.59532 0.86182 0 0.40456-3.2109 4.6932-3.6046 4.8145-0.1635 0.0503-3.7949-2.4915-8.0698-5.6485zm246.48-1.034-1.7604-2.2544 0.13266-0.34573c0.13793-0.35942 19.035-15.459 19.635-15.689l0.3409-0.13082 1.4354 1.8043c0.78946 0.99236 1.634 2.11 1.8768 2.4836l0.44138 0.67928-0.72637 0.67388c-1.8509 1.7171-18.88 15.033-19.225 15.033h-0.38996zm-233.79-6.5891c-0.53191-0.20454-1.276-0.57431-1.6536-0.82172l-0.68654-0.44984v-0.85274l3.8232-3.8489h2.7006l1.2014-0.79578c0.66078-0.43768 1.5146-1.2478 1.8974-1.8002l0.69603-1.0044v-1.7044l-0.65438-0.24879-0.65438-0.2488-0.99927 0.3631c-0.54959 0.1997-2.404 1.036-4.1209 1.8584l-3.1216 1.4953-3.8124 0.82733-3.0523-0.63366-2.2266-1.6982-1.5988-2.5883 5e-3 -2.4009 5e-3 -2.4009 1.5205-3.1201 1.8521-1.9498 1.8521-1.9498 3.7614-1.8396 2.9562-0.33162 2.9617 0.86099 0.81135 0.68271c0.44624 0.37548 0.81134 0.82392 0.81134 0.99653s-0.86979 1.1778-1.9329 2.2338l-1.9329 1.92-2.92-0.3432-0.81388 0.42088c-0.44764 0.23148-1.2426 0.92168-1.7665 1.5338l-0.9526 1.1129v0.8255c0 1.9516 0.95092 1.9069 5.6971-0.26769l3.7719-1.7282 3.8647-0.80582 1.0722 0.17632c2.4017 0.39495 4.3724 1.8068 5.5186 3.9536l0.56504 1.0583 8e-3 1.8658 8e-3 1.8658-2.0666 4.1814-3.7788 3.7788-4.0533 2.0032-3.5951 0.1906zm225.59-3.7872c-2.156-0.77172-3.8543-1.8949-5.7204-3.7833l-1.7551-1.7761-1.023-2.0696-1.023-2.0696v-4.0078l1.3536-2.6336 0.96298-0.1854 3.9011 3.875v2.7006l0.79579 1.2014c0.43768 0.66077 1.2478 1.5146 1.8002 1.8974l1.0044 0.69604h1.7084l0.22189-0.59532 0.2219-0.59531-0.33233-1.0583c-0.18278-0.58209-1.0078-2.4631-1.8335-4.1799l-1.5011-3.1216-0.41366-1.9062-0.41367-1.9062 0.63366-3.0523 1.6982-2.2266 2.5883-1.5988 4.8017 0.01 3.1201 1.5205 3.8913 3.6963 0.79555 1.62c0.43756 0.89103 0.93568 2.2917 1.1069 3.1125l0.31138 1.4925-0.32845 1.4676c-0.34049 1.5214-1.1521 2.9614-1.9482 3.4566l-0.45978 0.28601-3.9868-3.9601 0.16731-1.4788 0.16731-1.4788-0.4192-0.81064c-0.23056-0.44585-0.92-1.2393-1.5321-1.7632l-1.1129-0.9526h-1.692l-0.33123 0.39911-0.33124 0.39912 0.13944 0.85765c0.0767 0.47172 0.80508 2.2633 1.6186 3.9812 0.81357 1.718 1.6786 3.8016 1.9223 4.6302l0.44305 1.5066 0.0254 3.175-0.35533 1.0361-0.35532 1.0361-1.0776 1.169c-0.59268 0.64298-1.5506 1.4103-2.1287 1.7053l-1.0511 0.53622-2.9487 0.22082zm-23.283-19.054c-2.0178-0.71593-3.7978-1.8499-5.5767-3.5526l-1.6114-1.5424-0.72463-1.4799c-0.39855-0.81394-0.85508-2.1814-1.0145-3.0388l-0.2899-1.5589 0.31523-1.7108c0.4859-2.6371 1.0857-3.7752 5.5484-10.529l4.1506-6.2811 0.48529-0.15999 0.48529-0.15998 2.2387 1.4898c1.2313 0.81941 2.3058 1.6646 2.3877 1.8781l0.14899 0.38827-4.0129 6.0889c-2.2071 3.3489-4.1846 6.4997-4.3944 7.0018-0.2098 0.50213-0.38146 1.4683-0.38146 2.147v1.234l0.55305 0.89484c0.64094 1.0371 2.3204 2.257 3.7474 2.7221l0.9931 0.32365 0.85898-0.1773c0.47244-0.0975 1.3053-0.46567 1.8508-0.8181l0.99184-0.64079 4.2448-6.359c2.3346-3.4975 4.4171-6.4252 4.6278-6.506l0.38303-0.14698 2.1856 1.3945c2.38 1.5186 2.6375 1.7637 2.4932 2.3736-0.0529 0.22351-1.9393 3.2001-4.1921 6.6146l-4.0959 6.2082-2.9984 2.8068-1.522 0.7115-1.5221 0.71149-5.0271 0.1426zm-169.59-4.3044c-4.899-0.98333-8.5898-4.2208-10.164-8.9155l-0.55167-1.6453 6e-3 -4.3823 0.37809-1.4206c0.20795-0.7813 0.70343-2.091 1.1011-2.9104l0.72297-1.4899 1.8724-1.8724 1.8724-1.8724 1.4552-0.69928c0.80036-0.3846 2.1648-0.88149 3.0322-1.1042l1.5769-0.40493 1.7304 4e-3c1.9941 5e-3 4.2105 0.47253 5.7125 1.2056l1.045 0.51002-0.0312 1.089-1.4397 2.0307c-0.79181 1.1169-1.6435 2.0988-1.8927 2.1822l-0.45302 0.15144-0.60531-0.3303-0.60531-0.33031-3.7042-0.018-1.0892 0.57628c-1.7053 0.90228-2.6498 1.8237-3.3882 3.3056l-0.68203 1.3687v3.4964l0.68203 1.3686c0.77883 1.5629 1.8391 2.5543 3.5513 3.3205l1.1906 0.53282 3.175-0.0414 0.99808-0.42764c2.1846-0.93601 3.9611-3.1715 4.324-5.4412l0.17675-1.1054 0.55786-0.2237c0.30683-0.12303 1.6261-0.35004 2.9316-0.50446l2.3738-0.28076 0.38651 0.3865 0.3865 0.3865-0.28441 1.7943c-0.39865 2.515-1.2399 4.5721-2.6214 6.4099l-1.1851 1.5766-1.5766 1.1851c-3.071 2.3085-7.2698 3.2806-10.966 2.5388zm23.835-11.437c-0.19131-0.47294-2.1039-5.7687-4.2503-11.768l-3.9024-10.909 0.13647-0.35563 0.13646-0.35562 12.885-4.6504 1.7826-0.13816 1.7826-0.13815 2.3657 0.66236 1.0785 0.92319c1.242 1.0631 2.0022 2.4143 2.3988 4.2632l0.27831 1.2977-0.54549 1.5553c-0.30002 0.85542-0.5745 1.6538-0.60996 1.7741-0.0355 0.12033 0.63463 0.43934 1.4891 0.70892l1.5535 0.49015 0.79504 0.74628c0.43727 0.41046 1.0765 1.3416 1.4204 2.0692l0.62541 1.3229-6e-3 3.4396-0.49279 1.0851c-0.64192 1.4135-2.0992 2.8516-3.724 3.6749-1.5805 0.80091-13.733 5.1619-14.384 5.1619h-0.46463zm8.6155-8.1498c1.6462-0.58968 3.2039-1.263 3.4616-1.4962l0.46857-0.42406v-1.9633l-1.0967-1.3943h-0.81152c-0.81174 0-6.7328 1.9855-7.2062 2.4165l-0.25087 0.2284 0.48832 1.3895c0.26858 0.76425 0.59403 1.5979 0.72321 1.8526l0.23488 0.46303h0.49787c0.27382 0 1.8447-0.48248 3.4909-1.0722zm-4.1051-8.8677 2.6112-0.94404 0.59531-0.55729c0.69249-0.64825 0.7475-1.2554 0.20823-2.2982-0.3884-0.75109-0.88932-1.0773-1.6544-1.0773-0.66249 0-5.7456 1.8917-5.9561 2.2167-0.30779 0.47492 0.85267 3.6042 1.3366 3.6042 0.13635 0 1.423-0.42482 2.8592-0.94404zm109.5 15.776c-1.3094-0.56693-2.4905-1.2048-2.6247-1.4175l-0.24393-0.38672 9.7472-22.641 0.40981-0.25142 0.4098-0.25141 16.643 7.1279 0.0909 0.46359c0.11985 0.61154-1.8055 5.1856-2.2554 5.3583l-0.35004 0.13433-10.864-4.6516-0.35178 0.37905c-0.19348 0.20848-0.62889 1.065-0.9676 1.9034l-0.61582 1.5243 0.30633 0.30633c0.16849 0.16849 2.1852 1.1106 4.4817 2.0936s4.2788 1.9511 4.4052 2.1513l0.22987 0.36403-0.99934 2.3262c-0.54964 1.2794-1.1394 2.38-1.3105 2.4456-0.17115 0.0657-2.2657-0.72184-4.6545-1.75s-4.5204-1.8357-4.7368-1.7945l-0.39348 0.075-3.2189 7.4023-0.37832 0.0599c-0.20807 0.0329-1.4496-0.40394-2.759-0.97087zm-12.039-4.0739-2.249-0.57128-3.8785-7.8052c-2.1332-4.2929-3.9326-7.9243-3.9987-8.0698-0.0661-0.14552-0.18666-0.20446-0.26794-0.13098-0.0813 0.0735-0.76062 2.8714-1.5097 6.2177s-1.4212 6.2925-1.4938 6.5471l-0.13189 0.46303h-0.75916c-1.0207 0-5.0476-0.97412-5.3733-1.2998l-0.2598-0.2598 2.5682-11.457c1.4125-6.3014 2.6894-11.844 2.8376-12.317l0.2694-0.85989h0.52257c1.0051 0 4.3349 0.85678 4.7511 1.2225 0.23094 0.20294 2.1287 3.8818 4.2172 8.1751l3.7973 7.8062 0.19957-0.20137c0.10976-0.11076 0.84151-3.0332 1.6261-6.4944 0.78459-3.4612 1.5551-6.4216 1.7122-6.5787l0.28561-0.28562 2.6024 0.57113c1.4313 0.31412 2.7616 0.72936 2.9562 0.92276l0.35389 0.35162-2.7 12.006c-1.485 6.6033-2.8197 12.155-2.966 12.337-0.3308 0.41138-0.37022 0.40772-3.1116-0.28862zm-75.517-2.521c-0.0782-0.12649-0.98954-5.7366-2.0252-12.467l-1.8831-12.237 0.71198-0.64558 5.5562-0.82837c3.0559-0.4556 6.152-0.90296 6.8802-0.99414l1.3239-0.16576 1.5585 0.2881c5.5827 1.032 9.0272 5.0514 9.9433 11.603l0.26823 1.9182-0.25983 1.832c-0.67865 4.7851-3.1215 7.9669-7.3238 9.5392l-1.4944 0.55911-5.8907 0.91404c-6.2382 0.96794-7.1382 1.0515-7.3653 0.68406zm9.5964-7.5609 2.2095-0.39216 2.2768-1.3343 0.68703-1.3787 0.68704-1.3787v-1.4875c0-0.81814-0.17591-2.0799-0.39091-2.8039l-0.39092-1.3164-1.8696-2.1842-2.4399-0.93179-2.6405 0.32954c-1.4523 0.18124-2.9261 0.43812-3.2752 0.57082l-0.63464 0.24129v0.6744c0 1.2773 1.6431 11.378 1.9028 11.697l0.26007 0.3195 0.70453-0.11625c0.38749-0.0639 1.6988-0.29272 2.914-0.50841zm34.39 4.6416c-0.82543-0.0886-1.5914-0.25164-1.7022-0.36239l-0.20137-0.20137 0.93908-12.46 0.93909-12.46 0.7324-0.45972 2.249 0.14297c2.8172 0.1791 3.3502 0.28591 3.505 0.70241 0.13279 0.35724-1.559 23.746-1.7896 24.741l-0.138 0.59531-1.5163-0.0389c-0.83397-0.0214-2.1917-0.11136-3.0171-0.19992z" fill="#fff"/></g></svg>
