<?xml version="1.0" encoding="UTF-8" standalone="no"?>
<!-- Created with Inkscape (http://www.inkscape.org/) -->

<svg
   width="794.80652"
   height="800"
   viewBox="0 0 210.29256 211.66667"
   version="1.1"
   id="svg1"
   xml:space="preserve"
   xmlns="http://www.w3.org/2000/svg"
   xmlns:svg="http://www.w3.org/2000/svg"><defs
     id="defs1"><pattern
       id="EMFhbasepattern"
       patternUnits="userSpaceOnUse"
       width="6"
       height="6"
       x="0"
       y="0" /><pattern
       id="EMFhbasepattern-1"
       patternUnits="userSpaceOnUse"
       width="6"
       height="6"
       x="0"
       y="0" /></defs><g
     id="layer1"
     transform="matrix(0.60608187,0,0,0.60608187,-188.93212,-131.28272)"
     style="fill:#000000;stroke:none"><path
       class="logo-face"
       d="m 477.66641,565.59546 -3.04271,-0.14567 0.0697,-12.56771 0.0697,-12.5677 0.38849,-0.29019 0.38849,-0.29019 9.19914,0.12385 9.19915,0.12386 0.33073,0.26487 0.33073,0.26488 v 2.73011 2.73012 l -0.33073,0.21405 -0.33073,0.21405 h -6.21771 -6.21771 v 1.71979 1.7198 l 5.13899,0.19071 5.13899,0.19072 0.23384,0.33845 0.23384,0.33845 -0.1123,2.28373 c -0.0618,1.25605 -0.19461,2.41691 -0.29522,2.57968 l -0.18291,0.29596 h -5.13872 -5.13872 l -0.15683,0.62485 c -0.0863,0.34367 -0.11828,1.02828 -0.0712,1.52136 l 0.0856,0.8965 1.7198,0.16751 c 0.94588,0.0921 3.7498,0.18143 6.23093,0.19844 l 4.51115,0.0309 0.3175,0.3175 0.3175,0.3175 v 2.43898 c 0,1.34145 -0.0723,2.62732 -0.1606,2.8575 l -0.1606,0.41852 -6.65242,-0.0528 c -3.65883,-0.029 -8.02164,-0.11832 -9.69513,-0.19843 z m -16.93333,-1.37914 -2.77812,-0.51899 -0.41859,-0.44669 c -0.23023,-0.24567 -1.05616,-1.84736 -1.83541,-3.5593 -0.77925,-1.71194 -1.64,-3.31459 -1.91278,-3.56145 l -0.49596,-0.44884 -1.36579,-0.0104 -1.36579,-0.0104 -0.56157,2.9799 c -0.30886,1.63895 -0.64009,3.05844 -0.73607,3.15441 -0.19115,0.19115 -3.69404,-0.29214 -5.26867,-0.72692 l -0.98833,-0.27289 v -0.36799 c 0,-0.35267 4.0834,-22.91975 4.36933,-24.14724 l 0.13867,-0.59531 h 0.74631 c 0.41047,0 3.55956,0.52531 6.99796,1.16736 l 6.25165,1.16735 1.40959,0.64534 c 0.77528,0.35493 1.85829,1.03929 2.4067,1.5208 l 0.9971,0.87547 0.69293,1.34673 0.69292,1.34674 0.1142,2.42 0.11419,2.42001 -0.45798,1.41645 c -0.91331,2.8247 -2.60032,4.85543 -4.82627,5.80958 l -1.12647,0.48286 v 0.36621 c 0,0.20142 0.77391,1.98715 1.71979,3.9683 0.94589,1.98115 1.71979,3.72558 1.71979,3.87652 v 0.27444 l -0.7276,-0.0265 c -0.40018,-0.0146 -1.97776,-0.26006 -3.50573,-0.5455 z m -1.06627,-14.05397 c 0.35943,-0.18188 0.92498,-0.73351 1.25677,-1.22585 l 0.60325,-0.89517 -9.9e-4,-1.08535 -9.9e-4,-1.08535 -0.51799,-0.84955 -0.51799,-0.84954 -1.39925,-0.39244 c -1.99663,-0.55999 -5.34374,-1.06787 -5.82375,-0.88368 l -0.40786,0.15652 -0.44272,2.46767 c -0.2435,1.35723 -0.49296,2.64628 -0.55435,2.86456 -0.0614,0.21828 -0.0168,0.54766 0.0991,0.73196 l 0.21071,0.33509 2.62752,0.49868 c 3.1899,0.60543 4.02031,0.64166 4.86855,0.21245 z m 51.8085,13.17358 c -0.83214,-0.21098 -2.25946,-0.76043 -3.17182,-1.22099 l -1.65884,-0.83737 -1.74306,-1.75035 -1.74307,-1.75034 -0.73162,-1.55594 c -0.40239,-0.85576 -0.91632,-2.46161 -1.14206,-3.56856 l -0.41043,-2.01263 0.30687,-1.98769 0.30686,-1.98768 0.91714,-1.93667 0.91715,-1.93667 1.64216,-1.71014 1.64216,-1.71014 2.04046,-1.02129 2.04046,-1.02128 1.94406,-0.33251 1.94406,-0.33251 2.09704,0.30108 2.09705,0.30108 1.69013,0.79091 c 0.92957,0.435 2.03972,1.03984 2.46701,1.3441 l 0.77689,0.55319 v 0.46644 0.46644 l -1.95617,1.89679 c -1.0759,1.04324 -2.07694,1.8968 -2.22454,1.8968 -0.1476,0 -0.88512,-0.31998 -1.63892,-0.71107 l -1.37055,-0.71106 -1.63043,0.004 -1.63043,0.004 -1.19062,0.5333 c -1.71262,0.76711 -2.77262,1.75836 -3.55131,3.32099 l -0.68203,1.36866 0.006,1.73398 0.006,1.73399 0.48855,1.07563 c 0.26871,0.5916 0.8628,1.50188 1.32022,2.02285 l 0.83166,0.94721 1.25366,0.6014 1.25367,0.6014 1.72216,0.01 1.72217,0.01 1.25369,-0.6069 1.25369,-0.6069 0.92675,-1.08269 c 0.88668,-1.0359 1.16514,-1.86722 0.71798,-2.14358 -0.11482,-0.071 -1.33994,0.0634 -2.7225,0.29862 -1.38256,0.2352 -2.7037,0.35475 -2.93586,0.26566 l -0.42213,-0.16198 -0.33889,-2.2779 -0.3389,-2.2779 0.24238,-0.24009 c 0.25128,-0.24893 10.07117,-2.1232 11.12407,-2.1232 0.32805,0 0.65777,0.0992 0.73273,0.2205 0.16796,0.27177 2.54078,13.19964 2.54078,13.84298 v 0.46373 l -0.99219,0.27835 c -0.5457,0.15309 -1.61772,0.35373 -2.38227,0.44586 l -1.39008,0.16751 -0.28945,-0.8303 c -0.15919,-0.45666 -0.31602,-0.8303 -0.34851,-0.8303 -0.0325,0 -0.60494,0.52303 -1.27211,1.16229 l -1.21303,1.16229 -1.54628,0.58703 -1.54629,0.58702 -2.24895,0.0975 -2.24896,0.0975 z m -89.03386,-8.73708 -1.64683,-0.35784 -1.85953,-0.97715 -1.85953,-0.97715 -1.5859,-1.69534 c -2.29135,-2.44946 -3.48816,-5.05026 -3.83323,-8.33003 l -0.17701,-1.68238 0.39588,-1.88304 0.39589,-1.88305 0.85031,-1.68446 0.85032,-1.68446 1.49349,-1.45958 1.49349,-1.45958 1.60192,-0.85164 c 0.88106,-0.4684 2.30185,-1.03395 3.15731,-1.25677 l 1.55539,-0.40513 h 1.8732 1.8732 l 1.51262,0.39399 c 0.83195,0.21669 2.2519,0.76717 3.15546,1.22329 l 1.64284,0.8293 1.66531,1.66531 1.66531,1.66531 0.91934,1.94004 c 1.98595,4.19088 1.93453,8.0348 -0.16306,12.19011 l -0.83163,1.64745 -1.53197,1.49904 -1.53198,1.49904 -1.67418,0.82214 c -1.8607,0.91374 -4.75105,1.61195 -6.56897,1.58685 -0.65484,-0.009 -1.9317,-0.17746 -2.83746,-0.37427 z m 5.89488,-6.84272 1.33763,-0.62288 0.98725,-1.15337 0.98725,-1.15338 0.41872,-1.44036 0.41872,-1.44035 -0.1493,-1.26063 c -0.38035,-3.21144 -3.02641,-5.8575 -6.23784,-6.23785 l -1.26064,-0.1493 -1.45631,0.42336 -1.45632,0.42336 -1.19683,1.0535 -1.19684,1.0535 -0.60523,1.39903 -0.60523,1.39903 0.0111,1.48593 0.0111,1.48593 0.51537,1.1599 c 0.74582,1.67856 1.74611,2.74473 3.30306,3.52059 l 1.36866,0.68203 1.73398,-0.003 1.73399,-0.003 z m 113.83064,6.56715 c -0.83214,-0.20173 -2.25371,-0.74071 -3.15906,-1.19773 l -1.64607,-0.83094 -1.50598,-1.43645 -1.50597,-1.43646 -0.79984,-1.51095 c -0.43991,-0.83103 -0.98978,-2.15765 -1.22194,-2.94804 l -0.42211,-1.43709 v -1.88076 -1.88077 l 0.39399,-1.51262 c 0.21669,-0.83194 0.76717,-2.2519 1.22328,-3.15546 l 0.82931,-1.64284 1.62996,-1.62996 1.62996,-1.62996 1.64466,-0.83023 c 0.90457,-0.45662 2.44834,-1.01971 3.4306,-1.25132 l 1.78594,-0.4211 2.13327,0.14395 2.13327,0.14395 1.77207,0.66701 c 2.18167,0.82117 3.63162,1.8006 5.28789,3.57189 l 1.27233,1.36069 0.97189,2.04523 0.97189,2.04522 0.10044,2.69954 0.10043,2.69955 -0.54958,1.80936 -0.54957,1.80936 -1.02553,1.57651 c -0.56404,0.86708 -1.6421,2.14906 -2.39569,2.84884 l -1.37016,1.27233 -1.91293,0.90647 c -3.07073,1.4551 -6.10626,1.79414 -9.24675,1.03278 z m 6.20908,-6.67852 c 1.64396,-0.73055 2.71433,-1.74014 3.48542,-3.2875 l 0.68203,-1.36866 -0.0201,-1.60169 c -0.0237,-1.88395 -0.34755,-2.87233 -1.45114,-4.42852 l -0.80981,-1.14193 -1.43915,-0.78123 -1.43915,-0.78122 -1.71979,0.005 -1.71979,0.005 -1.1936,0.53498 c -1.54771,0.69368 -2.83357,1.9978 -3.60657,3.65778 l -0.61862,1.32846 -0.003,1.47909 -0.003,1.4791 0.80176,1.60447 0.80176,1.60446 0.98214,0.74911 c 0.54017,0.41201 1.57836,0.9621 2.30709,1.22241 l 1.32496,0.47331 1.25651,-0.12629 c 0.69108,-0.0695 1.76264,-0.35121 2.38125,-0.62611 z m 22.87745,-5.03312 c -0.70427,-0.8045 -13.68292,-20.43039 -13.68292,-20.69088 0,-0.30716 2.107,-1.87699 3.57188,-2.66125 l 1.05833,-0.5666 8.42593,2.69349 c 4.63426,1.48142 8.48123,2.63818 8.54883,2.57058 0.0676,-0.0676 -1.55646,-2.64978 -3.60901,-5.73819 -2.05255,-3.08841 -3.68964,-5.75019 -3.63797,-5.91506 0.14379,-0.45882 4.46586,-3.34248 5.00975,-3.34248 h 0.47909 l 6.87763,10.32611 c 3.78269,5.67936 6.8758,10.41209 6.87358,10.51719 -0.009,0.40891 -0.46003,0.81159 -2.24209,2.00027 -1.01709,0.67843 -2.05705,1.23351 -2.31103,1.23351 -0.25397,0 -4.1514,-1.17391 -8.66096,-2.6087 -4.50955,-1.43479 -8.25321,-2.55468 -8.31925,-2.48864 -0.066,0.066 1.53817,2.61516 3.56491,5.66473 2.02673,3.04956 3.68314,5.62796 3.68092,5.72978 -0.002,0.10182 -0.0915,0.31378 -0.19844,0.47103 -0.23516,0.34586 -3.98496,2.8638 -4.6013,3.08969 l -0.43816,0.16059 z m -192.26276,-6.33216 c -0.36708,-1.32181 -0.34978,-2.10546 0.0522,-2.36558 0.1819,-0.1177 0.92604,-0.39631 1.65365,-0.61912 l 1.32291,-0.40512 0.1323,-1.85731 0.13229,-1.8573 0.47739,-0.72682 c 0.26257,-0.39976 0.85788,-0.95882 1.32292,-1.24237 l 0.84552,-0.51555 1.13298,-9.9e-4 c 0.62314,-5.4e-4 1.52817,0.16414 2.01119,0.36595 l 0.87821,0.36694 0.59534,0.83608 0.59533,0.83607 0.13616,1.0151 0.13615,1.01509 -0.31802,0.96362 c -0.45278,1.37191 -1.45886,2.45953 -2.99545,3.23818 -1.43691,0.72813 -5.87197,1.94532 -7.08817,1.94532 h -0.74739 z m 223.02984,-9.82932 -1.19062,-0.1587 -0.15389,-1.60683 c -0.0846,-0.88375 -0.24049,-1.74695 -0.34634,-1.91822 l -0.19246,-0.31141 h -0.78663 c -1.15359,0 -2.41943,-0.60924 -3.20458,-1.54234 l -0.69044,-0.82055 -0.17943,-1.06203 -0.17943,-1.06202 0.2919,-0.88446 c 0.16054,-0.48645 0.71298,-1.29259 1.22765,-1.79142 l 0.93575,-0.90697 h 1.65954 1.65955 l 1.00356,0.76545 1.00355,0.76545 0.67726,1.47933 0.67727,1.47934 0.11728,3.45824 0.11729,3.45824 -0.44854,0.44854 c -0.24669,0.24669 -0.52933,0.43065 -0.62807,0.4088 -0.0987,-0.0219 -0.71532,-0.11116 -1.37017,-0.19844 z m -124.61875,-1.0035 c -29.88347,-1.75492 -57.59746,-12.9895 -80.43333,-32.60573 -4.2366,-3.63927 -12.52019,-12.14392 -16.06522,-16.49393 -15.33671,-18.81925 -25.25872,-41.09288 -28.90356,-64.88471 -0.76201,-4.97408 -1.28506,-10.90008 -1.48291,-16.80104 l -0.17299,-5.15938 0.29921,-5.15937 c 0.90334,-15.57692 3.74089,-28.71172 9.20253,-42.59792 10.12101,-25.73261 28.27341,-47.9683 51.67502,-63.29907 18.49165,-12.11418 39.23527,-19.2542 62.17708,-21.40155 l 3.57188,-0.33433 h 7.67291 7.67292 l 3.57188,0.33129 c 17.95489,1.6653 33.52724,6.07473 49.24596,13.94437 45.29677,22.67802 74.04987,69.29794 74.04987,120.0635 0,40.91029 -18.40668,79.32573 -50.27083,104.9171 -21.77394,17.48752 -47.56132,27.50983 -75.62574,29.39208 -3.70628,0.24858 -12.62938,0.29747 -16.18468,0.0887 z M 434.46702,484.4665 c 2.74785,-0.56758 19.1624,-6.35445 40.76642,-14.37201 5.13755,-1.90662 9.52795,-3.46657 9.75645,-3.46657 0.47183,0 0.87015,0.14479 21.25152,7.72518 15.03087,5.59039 23.99083,8.73679 27.91354,9.80216 l 2.11667,0.57487 4.36563,0.0109 4.36562,0.0109 1.98438,-0.61588 c 7.59778,-2.35813 12.88336,-8.54712 14.03688,-16.43608 l 0.32314,-2.20994 -0.14915,-4.12738 -0.14914,-4.12738 -0.67788,-4.02152 c -1.91829,-11.38042 -6.7297,-28.61898 -9.55642,-34.23925 -1.3213,-2.62709 -3.62008,-5.90732 -5.49532,-7.84149 l -1.85843,-1.91684 0.83441,-2.58107 c 0.45893,-1.4196 1.01891,-3.65265 1.24441,-4.96233 l 0.41,-2.38125 -9.2e-4,-4.7625 -9.2e-4,-4.7625 -0.41391,-3.96875 c -0.538,-5.15851 -1.57773,-11.91595 -2.42224,-15.74271 -0.80817,-3.66211 -1.77585,-6.25001 -3.2901,-8.79887 l -1.1298,-1.90173 -2.13616,-2.14962 -2.13616,-2.14962 -1.90924,-1.12385 c -2.61156,-1.53727 -5.14464,-2.47831 -10.38089,-3.85653 -5.44317,-1.43268 -6.91982,-1.97367 -8.92538,-3.26992 -1.7255,-1.11524 -4.03281,-3.33622 -5.04602,-4.8572 l -0.65786,-0.98756 1.58588,-2.31974 c 2.77423,-4.05798 4.92,-8.94711 6.24359,-14.22599 0.93894,-3.74481 1.18605,-5.2705 1.50929,-9.31848 l 0.28463,-3.56463 -0.28649,-3.85921 c -0.51701,-6.96432 -1.69097,-11.17606 -4.29445,-15.40686 l -1.3825,-2.24665 -2.12862,-2.15061 -2.12861,-2.15061 -2.31733,-1.50554 c -4.18233,-2.71719 -8.60629,-4.4587 -13.40585,-5.27726 l -2.49402,-0.42536 h -3.49896 -3.49896 l -3.00286,0.51589 c -5.46093,0.93818 -10.31209,2.92181 -14.13801,5.781 -4.96769,3.71245 -7.86883,7.67021 -9.73625,13.28228 l -0.92443,2.77813 -0.41302,2.81208 -0.41302,2.81208 v 4.11968 4.11968 l 0.40918,3.1224 c 1.09367,8.34584 3.29499,14.64904 7.08902,20.29851 0.96922,1.44321 1.76222,2.7419 1.76222,2.88597 0,0.52047 -2.28298,3.20704 -3.79498,4.46585 -0.85031,0.70793 -2.35993,1.69703 -3.35472,2.19799 l -1.80871,0.91085 -5.08231,1.33981 c -5.99667,1.58084 -8.58,2.53253 -10.86833,4.00382 -3.88399,2.49722 -6.29752,5.21335 -8.31094,9.35294 l -1.15819,2.38125 -0.66254,2.51354 c -0.75453,2.86256 -1.72442,8.44345 -2.57496,14.81667 l -0.58262,4.36563 -0.017,6.48229 -0.017,6.48229 0.48036,2.24896 c 0.2642,1.23693 0.81139,3.20385 1.21597,4.37093 l 0.73561,2.12198 -1.82748,1.97906 c -1.00511,1.08849 -2.6044,3.13696 -3.55397,4.55216 l -1.7265,2.5731 -1.13996,2.59024 c -2.55638,5.80865 -6.98797,22.47 -8.77986,33.0094 l -0.71974,4.23334 v 4.7625 l 10e-6,4.7625 0.43181,1.73306 c 0.69081,2.77254 1.46251,4.59116 2.82442,6.65615 2.88342,4.37201 6.83173,7.16074 11.90584,8.40922 l 2.00557,0.49346 3.2523,0.0192 3.2523,0.0192 z m -7.33602,-2.68316 c -0.50933,-0.0581 -1.68515,-0.27897 -2.61294,-0.49072 l -1.68689,-0.38501 -2.03105,-1.05667 -2.03106,-1.05667 -1.64997,-1.60455 c -2.95428,-2.87295 -4.42244,-5.76796 -5.09104,-10.03884 l -0.30968,-1.97817 0.14868,-3.83646 0.14867,-3.83646 0.68363,-3.83646 c 1.60784,-9.02303 5.02849,-22.4049 7.44962,-29.14358 1.52153,-4.23482 3.77444,-8.04628 6.41936,-10.86023 l 1.51741,-1.61439 0.84077,1.14328 0.84077,1.14327 -1.30261,1.37731 c -1.58186,1.67259 -3.46089,4.53049 -4.49688,6.83952 -2.05546,4.58122 -5.71846,17.91442 -7.93026,28.86586 l -1.06873,5.29167 -0.26647,3.06884 -0.26647,3.06884 0.25152,2.6197 0.25152,2.6197 0.54096,1.56615 c 0.9911,2.86937 2.92476,5.33355 5.61133,7.15085 l 1.4096,0.95352 1.70706,0.53044 c 0.93888,0.29175 2.55964,0.60252 3.60168,0.6906 l 1.89462,0.16016 2.18049,-0.31883 c 3.87854,-0.56712 9.56185,-2.47852 29.77448,-10.01369 6.2574,-2.33273 12.17511,-4.51804 13.15047,-4.85625 l 1.77339,-0.61493 1.86463,0.64659 c 1.02555,0.35562 1.86405,0.71045 1.86332,0.78849 -10e-4,0.14649 -2.61715,1.11491 -27.51535,10.18671 -15.48444,5.64184 -17.55814,6.3029 -21.15973,6.74537 -2.23712,0.27485 -2.75641,0.28465 -4.50485,0.085 z m 111.65416,0.0352 c -0.3638,-0.0636 -1.37583,-0.23995 -2.24896,-0.39198 -3.4462,-0.60004 -10.4163,-3.01169 -33.11878,-11.45907 -21.17006,-7.87718 -36.24085,-13.28566 -41.49371,-14.89093 l -5.02709,-1.53627 -3.04271,0.007 -3.0427,0.007 -2.91042,0.74531 c -2.7873,0.71378 -11.3952,3.7155 -11.86926,4.13901 l -0.22759,0.20332 0.44729,1.34668 c 0.24601,0.74067 0.53352,1.34668 0.63891,1.34668 0.10539,0 2.32824,-0.78151 4.93967,-1.73668 2.61144,-0.95517 5.5815,-1.97018 6.60015,-2.25558 l 1.85208,-0.51891 2.40108,-0.16253 2.40108,-0.16253 1.96455,0.43997 c 1.08049,0.24199 2.726,0.7171 3.65666,1.0558 l 1.69213,0.61583 -0.26713,0.1651 c -0.39624,0.24489 -3.38768,1.33894 -17.27233,6.31698 l -12.56771,4.50588 -2.38125,0.12193 -2.38125,0.12192 -1.19062,-0.61557 -1.19063,-0.61557 -0.63753,-1.16507 -0.63752,-1.16507 -0.11894,-2.53909 -0.11894,-2.5391 0.4466,-3.04271 c 0.9162,-6.24208 2.67126,-13.87078 5.30794,-23.07198 l 1.46321,-5.10615 1.22878,-2.77812 c 1.41184,-3.19203 2.21267,-4.4485 3.82441,-6.00041 l 1.14824,-1.10563 1.55796,0.63921 c 0.85688,0.35157 2.4047,0.84035 3.43959,1.08618 l 1.88162,0.44697 39.29062,0.0982 39.29063,0.0982 2.64583,-0.29266 2.64583,-0.29267 2.59521,-0.88046 2.5952,-0.88047 0.80177,0.67464 c 0.44097,0.37106 1.38326,1.50267 2.09399,2.5147 l 1.29222,1.84006 0.80361,2.08384 c 1.68339,4.36518 5.32946,17.38127 6.62496,23.65045 0.30071,1.45521 0.77833,4.13411 1.06137,5.95312 l 0.51461,3.30729 10e-4,2.64584 10e-4,2.64583 -0.27754,0.99942 c -0.15265,0.54968 -0.63418,1.40562 -1.07008,1.90208 l -0.79254,0.90265 -0.94756,0.31272 -0.94756,0.31272 -2.01578,-0.11874 -2.01578,-0.11875 -6.74687,-2.26657 c -5.39707,-1.8131 -19.09259,-6.78837 -23.15105,-8.41023 l -0.79375,-0.31721 2.77813,-0.94155 2.77812,-0.94155 3.3073,0.005 3.30729,0.005 2.31684,0.69845 c 1.27426,0.38415 4.24787,1.40544 6.60802,2.26955 l 4.29118,1.5711 0.31801,-0.26392 c 0.1749,-0.14515 0.49976,-0.79737 0.72192,-1.44936 l 0.40392,-1.18543 -0.71536,-0.27356 c -0.39345,-0.15045 -3.18543,-1.10356 -6.2044,-2.118 -6.00216,-2.01688 -8.57949,-2.6141 -11.26914,-2.61127 l -1.76266,0.002 -2.19628,0.52652 c -1.20795,0.28959 -3.61185,1.00313 -5.34201,1.58565 l -3.14573,1.05912 h -1.06421 -1.06421 l -1.48981,-0.55741 -1.48981,-0.55741 0.22312,-0.21219 c 0.12271,-0.11671 3.14014,-1.12243 6.7054,-2.23494 l 6.48229,-2.02275 2.08354,-0.28074 2.08354,-0.28074 2.3035,0.29541 c 2.66123,0.34129 5.73414,1.22402 12.05025,3.46159 2.47386,0.87639 4.58113,1.59389 4.68284,1.59444 0.21496,10e-4 1.15599,-2.8568 0.98687,-2.99717 -0.42765,-0.35495 -9.56306,-3.51578 -12.09023,-4.1832 l -3.10448,-0.81988 -3.60523,-0.13329 -3.60524,-0.13329 -1.80393,0.31414 c -0.99216,0.17277 -4.89014,1.31634 -8.66218,2.54126 -3.77204,1.22492 -7.55125,2.42157 -8.39825,2.65922 l -1.53999,0.4321 -1.90907,-0.74899 -1.90907,-0.749 0.79716,-0.32527 c 1.81361,-0.74003 19.26433,-6.23125 20.91229,-6.58048 l 1.78601,-0.37847 3.06027,-0.005 c 4.62672,-0.007 7.18573,0.58689 16.34294,3.79248 l 4.85112,1.6982 0.50669,-1.18207 c 0.27868,-0.65014 0.50669,-1.3218 0.50669,-1.49258 v -0.31052 l -4.96093,-1.78458 c -6.18843,-2.22615 -8.81189,-2.96935 -12.32095,-3.49039 -3.42819,-0.50904 -6.5015,-0.52022 -9.49352,-0.0345 l -2.30145,0.37359 -9.20793,2.95677 c -5.06436,1.62623 -10.50541,3.44136 -12.09122,4.03364 l -2.88329,1.07686 -1.21775,-0.46844 c -7.05535,-2.71204 -22.5401,-7.57528 -25.77553,-8.09323 l -2.06826,-0.3311 -3.3557,0.16248 -3.3557,0.16248 -2.91042,0.6711 c -3.82143,0.88116 -13.85543,4.25105 -14.48196,4.86373 l -0.19447,0.19016 0.50818,1.31367 0.50817,1.31366 0.34775,-0.0869 c 0.19126,-0.0478 2.43134,-0.83973 4.97795,-1.75987 5.14074,-1.85745 7.5286,-2.55682 10.811,-3.1664 l 2.21204,-0.41079 3.07963,0.004 3.07963,0.004 1.71418,0.40402 c 2.2028,0.51917 10.4735,3.09224 16.40977,5.10519 2.54662,0.86354 13.5599,4.90643 24.47396,8.9842 20.08691,7.50498 21.59782,8.05337 32.01458,11.61987 l 5.82084,1.99295 2.27496,0.12863 2.27496,0.12863 1.47777,-0.42961 1.47778,-0.4296 1.14205,-0.86934 1.14206,-0.86935 0.90629,-1.77487 0.90629,-1.77487 0.11772,-2.85729 0.11773,-2.85729 -0.31349,-2.36757 c -0.87611,-6.61675 -2.82913,-15.23831 -5.71855,-25.24438 l -1.72185,-5.96277 -1.44369,-2.91041 -1.44369,-2.91042 -1.4546,-1.70341 -1.45461,-1.70342 0.85644,-0.73323 c 0.47103,-0.40327 0.99573,-0.73806 1.16599,-0.74398 0.17027,-0.006 0.91903,0.67305 1.66393,1.50881 l 1.35437,1.51956 1.4199,2.77992 c 2.0561,4.02546 3.00948,7.0181 5.84087,18.33424 2.83659,11.33698 3.72622,15.75686 3.98871,19.81693 l 0.17974,2.78013 -0.31901,2.22327 -0.31902,2.22326 -0.63915,1.41179 c -0.89905,1.9859 -2.00529,3.28576 -3.83768,4.50938 l -1.5818,1.05628 -2.01723,0.44879 -2.01722,0.44879 -2.06757,-0.17243 -2.06757,-0.17242 -2.29433,-0.66487 c -2.91377,-0.84456 -19.08759,-6.71106 -39.13609,-14.19546 -19.24639,-7.18497 -21.2616,-7.89897 -30.1264,-10.67398 l -7.10766,-2.22496 -2.26546,-0.30148 -2.26546,-0.30147 -2.78069,0.31289 c -1.52937,0.17209 -4.09803,0.65268 -5.70813,1.06796 -2.83678,0.73168 -11.43298,3.78888 -11.87903,4.22472 l -0.22034,0.2153 0.48088,1.35393 c 0.26448,0.74467 0.55489,1.35394 0.64536,1.35394 0.0905,0 1.87822,-0.64258 3.97279,-1.42795 4.65805,-1.74656 7.72572,-2.69228 10.46034,-3.22477 l 2.07922,-0.40486 2.66797,-0.007 2.66797,-0.007 1.16849,0.30427 c 1.49129,0.38832 7.56327,2.27951 13.33932,4.1547 2.47386,0.80314 9.37948,3.28392 15.34583,5.51284 46.36268,17.32032 49.52148,18.39135 54.20267,18.37811 2.27481,-0.006 5.03325,-0.64072 7.01167,-1.61227 l 1.68308,-0.82653 1.63238,-1.62257 1.63237,-1.62258 0.84791,-1.61737 c 0.46635,-0.88955 1.05332,-2.37784 1.30436,-3.30729 l 0.45645,-1.68992 -0.003,-3.96875 -0.003,-3.96875 -0.474,-2.91042 c -1.1851,-7.27665 -3.22525,-15.85491 -6.10374,-25.66458 l -1.47512,-5.02709 -1.56994,-3.17775 -1.56993,-3.17775 -1.8867,-2.33229 -1.8867,-2.33229 0.72848,-1.0512 0.72849,-1.0512 1.42797,1.40186 c 0.78538,0.77103 1.95736,2.19411 2.60439,3.16239 1.43832,2.15245 3.78275,7.02907 4.74031,9.86025 0.97501,2.88279 5.4885,20.8353 6.45849,25.68879 l 0.79251,3.96544 0.2814,3.61507 0.2814,3.61508 -0.28905,2.60263 c -0.32284,2.90684 -0.94634,5.00777 -2.18576,7.36514 l -0.83466,1.5875 -1.98701,1.99172 -1.987,1.99172 -1.98438,0.9595 c -1.0914,0.52772 -2.75828,1.14586 -3.70416,1.37364 -1.8081,0.43541 -5.49133,0.73593 -6.61459,0.53969 z m -112.7125,-6.30937 c -0.65484,-0.1825 -1.78593,-0.63829 -2.51354,-1.01286 l -1.32292,-0.68104 -1.23009,-1.27858 c -1.4094,-1.46495 -2.38285,-3.28482 -2.87759,-5.37963 l -0.34367,-1.45521 0.0265,-3.175 0.0265,-3.175 0.81731,-4.7625 c 1.45314,-8.46752 5.71676,-24.72289 7.6862,-29.30425 1.31033,-3.04813 2.83191,-5.56266 4.40596,-7.28123 l 1.27852,-1.39589 1.05401,0.90237 1.054,0.90237 -1.11853,1.21346 c -1.41693,1.53718 -2.78745,3.67598 -3.80665,5.94052 -1.6312,3.62435 -5.36291,17.21956 -7.09484,25.84765 l -1.06221,5.29167 -0.313,3.33805 -0.313,3.33804 0.2822,2.01109 0.2822,2.01108 0.56135,1.15958 c 0.72176,1.49096 2.16178,2.92354 3.70118,3.68206 l 1.21704,0.59968 3.04271,-0.0115 3.04271,-0.0115 11.64167,-4.13338 c 6.40291,-2.27336 14.02291,-5.02139 16.93333,-6.10675 2.91042,-1.08535 5.56216,-2.05674 5.89277,-2.15864 l 0.6011,-0.18528 1.98967,0.59067 1.98967,0.59067 -0.20952,0.20517 c -0.21081,0.20644 -25.88909,9.68905 -31.56265,11.65562 -1.67349,0.58007 -4.39021,1.40409 -6.03715,1.83115 l -2.99444,0.77647 -1.76806,-0.0237 c -0.97243,-0.013 -2.30384,-0.17297 -2.95868,-0.35548 z m 18.38854,-56.42529 c -4.69395,-0.68144 -9.50333,-3.30912 -12.1623,-6.64506 -2.40639,-3.01905 -4.29681,-7.58418 -4.88156,-11.78838 l -0.28634,-2.05875 0.003,-4.54492 0.003,-4.54492 0.38425,-3.62057 c 0.50816,-4.78796 1.82855,-13.08691 2.54561,-15.99972 1.19771,-4.86528 3.22871,-8.46927 6.38405,-11.32849 l 1.66063,-1.50478 2.64583,-1.30432 2.64584,-1.30432 5.14154,-1.33066 c 5.77404,-1.49436 7.90029,-2.30164 10.23119,-3.88453 1.74953,-1.18808 4.65297,-3.99171 5.34229,-5.15864 0.23839,-0.40357 0.50267,-0.73376 0.58728,-0.73376 0.0846,0 0.60282,0.45979 1.15156,1.02176 l 0.99772,1.02175 -2.1844,2.30768 c -2.59263,2.73893 -4.67799,4.28229 -7.699,5.69799 l -2.22401,1.0422 -5.02815,1.31158 c -7.55321,1.97024 -9.78014,3.04664 -12.59642,6.08856 l -1.40988,1.52284 -0.98142,1.86764 -0.98142,1.86764 -0.65643,2.47883 c -0.87831,3.31666 -1.87117,9.1013 -2.55936,14.91137 l -0.56445,4.76537 -0.0178,5.02708 -0.0178,5.02709 0.54886,2.51619 c 0.30188,1.38391 0.92192,3.40797 1.37787,4.49792 l 0.82901,1.98172 1.31459,1.74824 c 1.57425,2.09356 3.4286,3.57501 6.03884,4.82445 l 1.93181,0.9247 1.77235,0.29659 1.77236,0.29658 19.97605,-0.0765 19.97604,-0.0765 1.57714,-0.5949 c 3.26687,-1.23225 5.56239,-3.20651 8.07597,-6.94572 1.72029,-2.55912 8.20626,-12.89945 8.20626,-13.08294 0,-0.27492 -2.4051,-1.75022 -2.62835,-1.61224 -0.13346,0.0825 -1.51862,2.26178 -3.07814,4.84288 -1.55952,2.58111 -3.66238,5.91163 -4.67302,7.40116 l -1.83754,2.70823 -1.35213,1.21569 c -1.54774,1.39155 -2.63215,1.99521 -4.66894,2.59907 l -1.43709,0.42606 -18.80354,-0.005 -18.80354,-0.005 -1.85208,-0.39057 c -1.01865,-0.21482 -2.57742,-0.74674 -3.46394,-1.18204 l -1.61185,-0.79146 -1.37643,-1.37643 -1.37643,-1.37643 -1.04399,-2.13329 c -1.26275,-2.58033 -1.76719,-4.46225 -2.13207,-7.95413 l -0.27647,-2.64583 0.29474,-4.63021 c 0.42523,-6.67999 1.45541,-14.12083 2.6741,-19.31459 l 0.52771,-2.24895 0.97271,-1.9697 0.9727,-1.96969 1.51071,-1.5439 1.51071,-1.54391 2.20265,-1.01922 2.20265,-1.01923 4.7171,-1.22658 c 2.59441,-0.67461 5.6305,-1.57908 6.74688,-2.00993 l 2.02977,-0.78336 2.38125,-1.54174 2.38125,-1.54173 1.72904,-1.70509 c 0.95098,-0.9378 2.20113,-2.2687 2.77813,-2.95756 l 1.04908,-1.25247 1.12247,0.68284 1.12248,0.68284 -0.85789,1.19845 c -2.14591,2.99776 -6.09196,6.42277 -9.54704,8.28641 -2.93811,1.5848 -4.80171,2.25301 -10.36086,3.71499 -5.57653,1.46655 -7.15936,2.12087 -8.95582,3.70218 l -1.21881,1.07284 -0.92016,1.90094 -0.92017,1.90095 -0.66333,3.04271 c -0.79716,3.65662 -1.88418,11.10742 -2.25813,15.47812 -0.51521,6.02158 -0.25608,10.60226 0.79167,13.99448 l 0.52362,1.69528 1.05658,1.58224 1.05657,1.58223 1.38837,0.94908 1.38836,0.94908 1.5875,0.457 1.5875,0.457 17.98496,0.0977 17.98496,0.0977 1.6994,-0.29594 c 0.93468,-0.16277 2.15478,-0.52825 2.71134,-0.81218 2.3456,-1.19664 3.20729,-2.31553 9.22532,-11.97895 l 3.26841,-5.24823 -0.2609,-0.17573 c -1.42036,-0.95663 -2.23976,-1.3794 -2.43713,-1.25742 -0.13003,0.0804 -0.74939,1.01147 -1.37636,2.06912 -2.52306,4.25623 -7.4892,11.7726 -8.39947,12.71279 l -0.96838,1.00021 -1.30941,0.38886 -1.30941,0.38885 h -17.45888 -17.45895 l -1.68988,-0.29428 -1.68988,-0.29428 -1.24006,-0.8302 -1.24007,-0.8302 -0.86764,-1.71979 -0.86764,-1.71979 -0.38668,-1.85209 -0.38669,-1.85208 -0.005,-3.60999 c -0.007,-5.31638 0.8367,-12.67614 2.26888,-19.79749 0.75533,-3.7558 1.25163,-5.04069 2.49317,-6.45473 1.25803,-1.43282 2.76934,-2.0956 7.95564,-3.48891 7.77816,-2.08961 9.85944,-2.93341 13.89715,-5.63419 l 2.36583,-1.58248 2.04171,-2.0285 c 1.12293,-1.11568 2.65604,-2.85466 3.4069,-3.86442 l 1.3652,-1.83592 0.42286,0.12994 c 1.65974,0.51 4.4081,0.97955 6.91111,1.18076 l 2.94143,0.23644 2.80157,-0.24326 c 2.40007,-0.2084 5.12334,-0.68533 6.72385,-1.17756 l 0.43426,-0.13355 1.71395,2.19495 c 3.03051,3.881 6.91346,7.10492 11.11807,9.23107 3.05451,1.54457 4.37077,2.01358 9.28321,3.30782 5.54468,1.46082 7.03747,1.9813 8.17845,2.85158 l 0.89932,0.68594 0.6907,1.26903 c 1.31265,2.41177 2.23082,7.04667 3.52284,17.78326 l 0.42984,3.57188 0.0164,3.83645 0.0164,3.83646 -0.44903,1.82668 c -1.15347,4.69246 -2.75392,6.40679 -6.55735,7.02394 l -1.6856,0.27351 -9.45885,0.002 c -5.20237,10e-4 -9.45885,-0.0597 -9.45885,-0.1351 0,-0.0754 1.12888,-2.00245 2.50863,-4.28234 1.37975,-2.27988 2.48107,-4.16343 2.44739,-4.18565 -0.0337,-0.0222 -0.61098,-0.41174 -1.2829,-0.86559 l -1.22167,-0.82519 -2.73286,4.42033 c -1.50308,2.43118 -3.70569,5.90861 -4.89469,7.72762 l -2.16181,3.30729 -1.95517,1.85209 -1.95517,1.85208 -1.58766,0.84116 c -0.87321,0.46264 -2.47977,1.11359 -3.57014,1.44656 l -1.9825,0.60539 -19.84374,0.0406 c -10.91407,0.0223 -20.20094,-0.0112 -20.63751,-0.0746 z m 49.47709,-0.49621 c 0.43656,-0.37252 1.20101,-0.99704 1.69878,-1.38781 l 0.90502,-0.71051 14.83768,-0.13675 14.83768,-0.13675 2.11667,-0.71721 2.11667,-0.71722 1.64718,-1.08076 c 0.90595,-0.59442 2.25459,-1.75794 2.99697,-2.58561 l 1.34978,-1.50486 1.15438,-2.38125 c 1.29513,-2.67157 1.80613,-4.46135 2.26625,-7.9375 l 0.31519,-2.38125 -0.15859,-4.63021 c -0.16901,-4.93471 -0.59044,-8.82593 -1.64763,-15.21354 -1.33073,-8.04028 -2.38451,-11.25512 -4.68437,-14.29085 l -1.20522,-1.59084 -1.54614,-1.15799 c -2.16004,-1.61778 -4.23885,-2.50788 -8.75515,-3.74875 -8.69297,-2.38841 -10.39872,-3.0705 -13.49012,-5.39435 -1.78593,-1.3425 -5.36232,-5.07035 -5.36232,-5.58941 0,-0.17593 0.43738,-0.7039 0.97195,-1.17326 l 0.97196,-0.85339 0.54337,0.75983 c 1.9295,2.69817 5.08195,5.26827 8.38412,6.83533 l 1.96089,0.93055 4.69052,1.18216 c 5.3503,1.34845 7.89787,2.29558 10.3641,3.85314 l 1.72698,1.0907 1.86563,1.99769 1.86562,1.99769 1.18313,2.4165 c 0.65072,1.32907 1.4811,3.467 1.84529,4.75096 1.15226,4.06229 2.47923,13.19444 3.06325,21.08116 l 0.30369,4.10104 -0.18186,2.85606 c -0.35195,5.52741 -1.71515,10.12684 -4.07102,13.73567 l -1.25945,1.92928 -1.70211,1.54463 -1.70211,1.54462 -2.38125,1.14471 c -1.30968,0.6296 -3.21468,1.3552 -4.23333,1.61246 l -1.85208,0.46773 -16.27188,0.0827 -16.27187,0.0827 z m 6.27676,-6.66238 0.90233,-1.25677 11.75628,-0.15407 11.75629,-0.15408 1.79098,-0.58571 1.79098,-0.58572 1.3644,-1.11229 1.36439,-1.1123 0.99714,-1.84235 0.99714,-1.84235 0.47769,-1.86181 0.4777,-1.86182 -0.0126,-5.95313 -0.0126,-5.95312 -0.59391,-4.10104 c -1.481,-10.22654 -2.09445,-12.94466 -3.53451,-15.66107 -0.98883,-1.86524 -2.33672,-3.24382 -3.99831,-4.08934 -0.70005,-0.35623 -3.6294,-1.29133 -6.50966,-2.07799 -7.51712,-2.05309 -10.2183,-3.16944 -13.64876,-5.64081 -1.82381,-1.31391 -4.98454,-4.37498 -6.37827,-6.17716 l -1.15964,-1.49949 1.24823,-0.69765 1.24823,-0.69765 0.52485,0.74193 c 1.10888,1.56751 4.54963,4.89101 6.34448,6.1283 3.69475,2.54699 5.92805,3.44516 13.23318,5.32199 l 4.21314,1.08243 1.73998,0.82802 1.73999,0.82802 1.73989,1.74326 1.73988,1.74325 0.71189,1.51423 c 1.41587,3.01162 2.74538,9.53459 3.78984,18.5941 l 0.45756,3.96875 -0.007,5.15938 -0.006,5.15937 -0.57477,2.11667 c -0.31612,1.16417 -0.99163,2.96683 -1.50114,4.00592 l -0.92637,1.88924 -1.48966,1.51366 -1.48966,1.51365 -1.88365,0.89256 c -1.036,0.49091 -2.52497,1.01343 -3.30882,1.16116 l -1.42517,0.2686 h -12.42415 -12.42407 z m -19.2157,-64.11449 c -4.08357,-0.56317 -7.97849,-2.07685 -11.09674,-4.31253 -2.03674,-1.46028 -5.29924,-4.82323 -6.70657,-6.91306 -2.37532,-3.52728 -4.36995,-8.20774 -5.525,-12.96459 l -0.64245,-2.64583 -0.53902,-4.72688 -0.53901,-4.72689 0.16545,-2.68145 c 0.47323,-7.66976 2.07135,-12.61781 5.48395,-16.97927 3.76409,-4.81067 9.63098,-8.16113 16.93067,-9.66877 l 2.70766,-0.55923 3.70416,0.006 3.70417,0.006 2.25151,0.40662 c 3.04044,0.54911 6.00701,1.54436 8.81473,2.95723 3.24834,1.63459 4.4857,2.52456 6.94492,4.99515 l 2.13617,2.14604 1.12979,1.90173 c 1.51996,2.55846 2.52348,5.23008 3.18634,8.48276 l 0.55099,2.70378 0.16166,3.23793 0.16167,3.23794 -0.31402,3.30729 c -0.82656,8.70572 -3.0764,15.76299 -6.81778,21.38593 l -1.50535,2.2624 -2.02224,2.02225 -2.02225,2.02224 -2.08822,1.3709 c -3.84458,2.52393 -7.59018,3.62424 -13.08841,3.84487 l -3.30034,0.13243 z m 10.4254,-3.29249 c 0.94588,-0.24456 2.69305,-0.90821 3.8826,-1.47478 l 2.16281,-1.03013 2.00938,-1.59678 2.00938,-1.59678 1.67798,-2.12204 1.67799,-2.12205 1.33527,-2.56715 c 2.36675,-4.55021 3.7118,-9.19768 4.42398,-15.28593 0.97795,-8.3602 0.12405,-15.12671 -2.55995,-20.28569 l -1.07919,-2.07434 -1.83589,-1.96585 -1.83588,-1.96585 -1.85392,-1.23248 c -2.45791,-1.63401 -5.95992,-3.15411 -9.14304,-3.96865 l -2.59132,-0.6631 -3.175,-0.1448 -3.175,-0.14481 -2.7211,0.41772 -2.7211,0.41772 -2.9264,0.97212 -2.92641,0.97212 -2.11824,1.2731 c -5.1591,3.10071 -8.19586,7.0494 -9.87345,12.83839 l -0.66839,2.30647 -0.30476,3.31265 -0.30477,3.31266 0.31396,3.98216 0.31395,3.98216 0.67243,3.30534 c 0.80288,3.94664 1.63678,6.53851 3.0226,9.39466 2.71034,5.58595 6.69948,9.92619 11.24905,12.23915 1.32718,0.67473 4.48864,1.6441 6.29785,1.93106 0.75453,0.11968 3.09827,0.17502 5.20833,0.12298 l 3.83645,-0.0946 z m -9.92188,-2.6982 c -1.91705,-0.26512 -4.12147,-0.9943 -6.0779,-2.01045 l -2.10915,-1.09547 -1.82252,-1.71927 c -5.31014,-5.00932 -8.27286,-12.44044 -9.20788,-23.09531 l -0.31904,-3.6356 0.30613,-3.11128 c 0.64936,-6.5995 2.70862,-10.94799 6.79494,-14.34867 l 1.32292,-1.10094 2.65205,-1.30535 2.65205,-1.30535 2.63962,-0.70241 2.63961,-0.7024 4.10105,9.9e-4 4.10104,9.9e-4 2.07173,0.56376 c 3.07216,0.836 6.26838,2.21393 8.35854,3.60347 l 1.85372,1.23234 1.48705,1.63969 1.48704,1.63969 1.01865,2.11667 c 1.19679,2.48683 1.70973,4.36396 2.13283,7.8052 l 0.30904,2.51355 -0.15288,3.57187 -0.15287,3.57188 -0.52806,3.0427 c -1.94407,11.20193 -7.02676,18.85286 -14.43047,21.72208 l -1.86682,0.72347 -2.06967,0.2866 c -1.99671,0.2765 -5.54835,0.32468 -7.19075,0.0976 z m 9.4472,-3.48294 1.77429,-0.5754 2.02169,-1.3522 2.0217,-1.35219 1.50256,-1.89082 c 4.29589,-5.40591 6.63281,-13.31731 6.68839,-22.64281 0.0377,-6.3302 -1.4375,-11.15737 -4.35678,-14.25606 -2.26086,-2.39981 -6.86781,-4.65533 -11.16806,-5.46778 l -2.37474,-0.44866 -3.175,0.14328 -3.175,0.14327 -2.38125,0.68867 c -2.99611,0.86649 -5.65812,2.16955 -7.57729,3.7091 l -1.49188,1.19678 -1.22635,1.79483 -1.22635,1.79482 -0.62356,1.84515 c -0.34295,1.01482 -0.77476,2.95374 -0.95957,4.30869 l -0.33602,2.46356 0.16303,3.75415 c 0.34882,8.03212 2.09688,14.35319 5.30297,19.17584 l 1.24817,1.87751 1.82708,1.6916 1.82707,1.69159 1.6954,0.83464 c 0.93247,0.45905 2.39773,1.01097 3.25614,1.22648 l 1.56074,0.39184 3.70417,-0.0852 3.70417,-0.0852 z m -8.7561,-2.42884 -1.69016,-0.22509 -1.89903,-0.90185 -1.89904,-0.90185 -1.35879,-1.35879 c -3.16869,-3.16869 -5.20045,-7.40652 -6.43116,-13.4141 l -0.53874,-2.62978 -0.14969,-4.49791 -0.1497,-4.49792 0.42122,-2.22 0.42121,-2.22 0.79033,-1.68891 0.79034,-1.68891 1.4247,-1.4247 1.4247,-1.4247 1.83879,-0.926 c 1.01134,-0.5093 2.72664,-1.2048 3.81178,-1.54556 l 1.97297,-0.61956 4.10105,0.002 4.10104,0.002 2.51354,0.87123 c 3.17652,1.10103 5.00788,2.19438 6.62344,3.95429 1.58053,1.72173 2.51218,3.58991 3.07081,6.15775 l 0.43035,1.97812 -0.006,3.83646 -0.006,3.83646 -0.4395,2.8604 c -0.58912,3.83412 -1.51956,6.96493 -2.92421,9.8396 -1.44776,2.96287 -3.11809,5.08927 -5.20383,6.62471 l -1.60926,1.18467 -1.75399,0.50903 -1.754,0.50903 -2.11667,0.12288 c -1.16417,0.0676 -2.87723,0.0216 -3.80682,-0.1022 z M 370.51016,521.23708 c -0.80036,-0.21413 -2.07734,-0.76545 -2.83773,-1.22515 l -1.38253,-0.83582 -4.70289,-4.45044 -4.70289,-4.45044 v -0.48505 -0.48506 l 8.45462,-8.90318 8.45461,-8.90319 0.40893,0.003 0.40892,0.003 4.49792,4.25957 c 2.47386,2.34277 4.93627,4.84277 5.47204,5.55557 1.21578,1.61752 2.05246,3.81545 2.24751,5.90417 l 0.14991,1.60542 -0.43282,1.68946 c -0.23805,0.9292 -0.81744,2.41728 -1.28753,3.30683 l -0.8547,1.61737 -1.85346,1.85345 -1.85345,1.85346 -1.68497,0.89073 c -3.0501,1.6124 -5.60271,1.97147 -8.50149,1.1959 z m 5.29167,-6.98873 c 1.27988,-0.65003 3.07024,-2.52237 3.74524,-3.91674 l 0.56369,-1.16442 v -1.36593 -1.36594 l -0.46158,-0.89259 c -0.50001,-0.96691 -4.58762,-5.03682 -5.0658,-5.04385 -0.32327,-0.005 -8.83572,8.84822 -8.83572,9.18919 0,0.28881 3.37262,3.55577 4.37529,4.23821 0.44188,0.30075 1.21579,0.66775 1.7198,0.81555 l 0.91637,0.26872 1.05833,-0.14594 c 0.58209,-0.0803 1.47506,-0.35758 1.98438,-0.61626 z m -27.95052,-14.21679 c -0.39896,-0.5457 -1.00033,-1.37119 -1.33639,-1.83443 l -0.611,-0.84224 0.005,-0.74526 c 0.003,-0.40989 1.05947,-4.37666 2.34787,-8.81505 l 2.34255,-8.06979 -0.22839,-0.0872 c -0.12561,-0.048 -2.59874,1.58911 -5.49584,3.63802 l -5.26745,3.72527 h -0.50826 -0.50825 l -1.52712,-2.22523 -1.52712,-2.22524 0.092,-0.47785 0.092,-0.47785 10.04787,-7.0865 c 5.52632,-3.89757 10.1689,-7.08467 10.31684,-7.08244 0.46904,0.007 0.7993,0.34934 2.07087,2.14621 0.68244,0.96437 1.2408,1.97101 1.2408,2.23699 0,0.26598 -1.07856,4.22253 -2.3968,8.79235 -1.31823,4.56981 -2.3394,8.36613 -2.26926,8.43627 0.0701,0.0701 2.13096,-1.29272 4.57961,-3.02858 2.44864,-1.73586 4.95514,-3.48684 5.57,-3.89106 l 1.11793,-0.73496 0.34105,0.13087 c 0.18758,0.072 1.0495,1.16317 1.91536,2.42487 l 1.57431,2.29399 -0.27382,0.43408 c -0.15059,0.23875 -4.70878,3.56674 -10.1293,7.39554 l -9.85548,6.96146 h -0.49729 -0.49729 z m 269.35338,-3.88613 c -0.88931,-0.20083 -2.13947,-0.63012 -2.77812,-0.954 -1.5699,-0.79612 -13.40884,-9.03217 -13.57688,-9.44508 l -0.13366,-0.32845 1.6105,-2.38353 1.6105,-2.38354 h 0.49904 0.49904 l 5.62034,3.92981 c 3.09119,2.16139 6.12162,4.18545 6.73428,4.49791 l 1.11394,0.56812 h 1.2143 1.21431 l 0.74133,-0.38336 c 0.40774,-0.21085 1.1311,-0.82727 1.60746,-1.36982 2.25335,-2.56643 2.1247,-5.19014 -0.36434,-7.43059 -0.61267,-0.55148 -3.57791,-2.70433 -6.58942,-4.78411 l -5.47548,-3.78141 v -0.50837 c 0,-0.2796 0.67351,-1.46523 1.49669,-2.63473 l 1.49668,-2.12636 h 0.52006 0.52005 l 5.85264,4.03489 5.85264,4.0349 1.53084,1.5077 1.53084,1.50769 0.79955,1.7086 0.79955,1.7086 0.15153,1.81079 0.15152,1.81078 -0.42384,1.65327 c -1.39979,5.46002 -5.73093,9.51447 -10.6424,9.96251 l -1.56655,0.14291 z M 329.14731,470.29901 c -0.63041,-1.36426 -2.43806,-5.31201 -4.01699,-8.77278 l -2.87079,-6.29231 0.37896,-0.35985 c 0.20843,-0.19792 5.37959,-2.64253 11.49147,-5.43247 l 11.1125,-5.07262 0.38709,0.23807 c 0.46874,0.28829 7.94728,16.57244 7.94728,17.30482 v 0.51704 l -2.2218,1.04117 c -2.32947,1.09163 -3.16403,1.26039 -3.5132,0.71044 -0.11549,-0.1819 -1.11474,-2.29526 -2.22054,-4.69635 -1.10581,-2.4011 -2.22254,-4.81211 -2.48161,-5.35782 l -0.47106,-0.99218 h -0.35965 c -0.1978,0 -0.89861,0.26185 -1.55735,0.58188 l -1.1977,0.58189 v 0.45525 c 0,0.25039 0.89628,2.39435 1.99174,4.76435 l 1.99174,4.3091 -0.13756,0.35849 c -0.17279,0.45028 -4.56383,2.5285 -4.99382,2.3635 -0.17467,-0.067 -1.253,-2.16244 -2.39629,-4.65647 -1.14328,-2.49404 -2.18139,-4.59808 -2.30691,-4.67566 -0.12552,-0.0776 -0.76537,0.0966 -1.42189,0.38697 l -1.19368,0.52802 v 0.49064 c 0,0.26984 1.07156,2.84075 2.38125,5.71313 1.30969,2.87237 2.38125,5.44304 2.38125,5.71258 v 0.49008 l -2.05052,0.97458 c -1.12779,0.53602 -2.37794,1.04037 -2.77812,1.12078 l -0.7276,0.1462 z m 304.3381,-0.72414 -0.60837,-0.49264 0.46159,-1.16101 c 0.25387,-0.63856 0.78234,-1.81382 1.17437,-2.61169 l 0.71279,-1.45067 0.79929,-0.15716 c 1.75015,-0.34412 3.11508,-1.90695 3.8463,-4.40398 l 0.32578,-1.11249 -0.44126,-0.67345 -0.44126,-0.67345 h -0.67335 -0.67334 l -3.48774,3.38756 c -3.857,3.74619 -4.62272,4.29615 -6.89457,4.95189 l -1.55473,0.44876 -1.04682,-0.16739 c -0.57575,-0.0921 -1.61894,-0.45731 -2.3182,-0.81165 l -1.27138,-0.64426 -0.96167,-1.1235 -0.96168,-1.1235 -0.39091,-1.31635 c -1.09622,-3.69137 0.23933,-8.5222 3.27407,-11.84269 l 1.31481,-1.43861 1.37664,-0.74926 1.37663,-0.74926 1.62357,-0.12731 1.62357,-0.12731 0.90426,0.23751 c 0.49734,0.13063 1.02565,0.42997 1.17403,0.66521 l 0.26979,0.4277 -1.13262,2.50688 -1.13263,2.50689 -1.26457,0.16775 -1.26457,0.16775 -0.67265,0.62339 c -0.36995,0.34286 -0.92086,1.10993 -1.22424,1.7046 l -0.55159,1.0812 v 1.01596 1.01596 l 0.3175,0.3175 c 0.17463,0.17462 0.59773,0.3175 0.94024,0.3175 h 0.62274 l 3.37729,-3.24479 3.37729,-3.2448 1.68726,-0.8993 1.68726,-0.8993 1.88846,-0.12119 1.88846,-0.1212 1.18217,0.52293 c 0.6502,0.28762 1.60757,0.89644 2.12751,1.35295 l 0.94533,0.83001 0.53878,1.2587 c 0.29633,0.69228 0.61745,1.79448 0.7136,2.44932 l 0.17483,1.19063 -0.4148,1.98437 -0.4148,1.98438 -1.06095,2.21199 -1.06095,2.21199 -1.78413,1.77859 -1.78413,1.77859 -1.3039,0.44119 -1.30391,0.44119 h -1.51105 -1.51106 z m 6.50288,-30.61571 c -5.67531,-4.14925 -10.54953,-7.77294 -10.8316,-8.05266 l -0.51285,-0.50857 0.63658,-2.6966 0.63658,-2.6966 0.40544,-0.46985 0.40544,-0.46985 12.7,-1.74038 c 6.985,-0.95721 13.02742,-1.73899 13.4276,-1.73731 l 0.7276,0.003 v 0.27263 c 0,0.77084 -1.4462,5.89828 -1.74903,6.20111 l -0.35161,0.35161 -1.58352,0.18378 -1.58352,0.18379 -0.23854,0.30614 c -0.13119,0.16838 -0.75081,2.37928 -1.37692,4.91312 l -1.13839,4.60698 0.54477,0.4201 c 0.29963,0.23106 0.97338,0.75261 1.49723,1.15899 l 0.95245,0.73889 v 0.67813 c 0,0.60601 -0.22331,1.6194 -1.08455,4.9217 l -0.25876,0.99219 -0.45282,-0.008 c -0.24906,-0.004 -5.09626,-3.40301 -10.77158,-7.55225 z m 5.02789,-7.78891 0.48621,-2.12886 -0.2435,-0.2238 -0.24351,-0.22381 -3.3073,0.3818 c -1.81901,0.20999 -3.39113,0.46356 -3.4936,0.56349 -0.10248,0.0999 1.13714,1.10254 2.7547,2.22803 l 2.94103,2.04636 0.30987,-0.25718 c 0.17043,-0.14144 0.52867,-1.21516 0.7961,-2.38603 z m -323.40822,12.74354 -1.4095,-0.50173 -1.06076,-1.02593 c -0.58341,-0.56426 -1.33545,-1.56252 -1.6712,-2.21835 l -0.61046,-1.19244 -1.74793,-6.83544 c -0.96137,-3.7595 -1.74794,-7.11761 -1.74794,-7.46248 v -0.62702 l 0.99219,-0.26043 c 8.57,-2.24943 22.9128,-5.84539 23.31487,-5.84539 h 0.52622 l 0.40018,1.38906 c 0.22011,0.76399 1.00246,3.79573 1.73857,6.73721 l 1.33838,5.34814 -0.006,1.9279 -0.006,1.9279 -0.48343,1.06421 c -0.63872,1.40604 -1.99849,2.73387 -3.47073,3.3892 l -1.19359,0.53129 -1.5875,0.0193 -1.5875,0.0193 -1.30266,-0.73274 -1.30267,-0.73274 -0.18673,0.20546 c -0.1027,0.113 -0.32369,0.63462 -0.49108,1.15915 -0.1674,0.52453 -0.71485,1.43325 -1.21655,2.01938 l -0.91218,1.06568 -1.06378,0.42564 c -0.58508,0.2341 -1.68913,0.48908 -2.45344,0.56662 l -1.38966,0.14098 z m 3.80093,-6.77412 0.91923,-0.38408 0.25049,-0.65883 0.25048,-0.65884 -0.80822,-3.33069 -0.80822,-3.3307 -0.37167,-0.37167 -0.37167,-0.37167 -1.72997,0.4797 c -0.95148,0.26384 -1.80839,0.55813 -1.90424,0.65398 -0.0959,0.0959 0.21703,1.76772 0.69527,3.71527 l 0.86955,3.541 0.44106,0.38349 c 0.42557,0.37002 1.01107,0.65276 1.44175,0.69623 0.11381,0.0115 0.62059,-0.15195 1.12616,-0.36319 z m 9.12927,-3.59073 c 0.27814,-0.14886 0.63814,-0.5181 0.8,-0.82054 l 0.2943,-0.54989 -0.70182,-2.82891 c -0.386,-1.55591 -0.80668,-2.99858 -0.93484,-3.20595 l -0.23302,-0.37704 -1.5362,0.32096 -1.5362,0.32095 -0.30533,0.41407 -0.30533,0.41407 0.75571,2.79363 0.7557,2.79364 0.45053,0.49783 0.45052,0.49782 h 0.77014 c 0.42357,0 0.9977,-0.12179 1.27584,-0.27064 z m -16.81237,-30.33076 c -1.18058,-0.62129 -2.26769,-1.70151 -2.67842,-2.66145 l -0.36429,-0.8514 0.004,-1.39756 0.004,-1.39756 0.59499,-1.05051 c 0.68564,-1.21057 1.93601,-2.13657 3.42716,-2.53809 l 1.04051,-0.28018 0.83775,0.18074 c 1.90691,0.4114 3.17043,1.34687 3.98085,2.94729 l 0.42878,0.84676 v 1.31883 c 0,2.25839 -0.93091,3.77029 -2.96602,4.8171 l -0.98164,0.50493 -1.26732,-0.0106 -1.26731,-0.0106 z m 330.18906,-0.0584 c -1.26915,-0.57649 -2.33583,-1.76752 -2.77514,-3.09867 l -0.31802,-0.96361 0.12369,-1.28728 0.12369,-1.28729 0.70439,-1.01644 0.7044,-1.01644 0.98855,-0.5435 c 0.5437,-0.29893 1.41066,-0.61841 1.92656,-0.70997 l 0.93802,-0.16645 1.34767,0.40021 1.34767,0.40021 0.91978,1.01809 0.91978,1.01809 0.31902,1.32985 0.31903,1.32985 -0.28278,1.05017 c -0.15553,0.57759 -0.55093,1.44624 -0.87866,1.93032 l -0.59587,0.88015 -1.1661,0.61502 -1.16609,0.61502 -1.21516,-0.006 -1.21515,-0.006 z m -324.23593,-26.90615 -11.50938,-6.73417 -0.22124,-0.48647 -0.22124,-0.48646 0.40419,-2.72277 c 0.22231,-1.49752 0.52394,-2.84251 0.67029,-2.98886 0.27755,-0.27755 25.43594,-6.53821 26.27373,-6.53821 h 0.47865 v 0.53091 c 0,0.292 -0.18141,1.75052 -0.40312,3.24115 l -0.40312,2.71024 -0.38053,0.28636 c -0.20929,0.1575 -1.04709,0.43554 -1.86178,0.61786 l -1.48126,0.33149 -0.24077,0.57277 c -0.2675,0.63634 -1.31484,7.72813 -1.31484,8.90309 v 0.74729 l 1.46692,0.82787 c 0.8068,0.45534 1.53583,1.00749 1.62007,1.22701 0.17337,0.45179 -0.39976,5.22153 -0.73677,6.13157 -0.12125,0.32742 -0.3127,0.58816 -0.42544,0.57941 -0.11274,-0.009 -5.38421,-3.04628 -11.71436,-6.75008 z m 4.40414,-8.10004 0.34753,-2.18398 -0.21683,-0.21682 -0.21682,-0.21682 -3.41578,0.73958 -3.41578,0.73958 0.0391,0.24586 c 0.0215,0.13522 1.38811,0.99442 3.03697,1.90934 l 2.99791,1.66348 0.24812,-0.24812 c 0.13646,-0.13647 0.4045,-1.23091 0.59563,-2.4321 z m 308.99289,12.40854 -1.32484,-0.63367 -0.85846,-0.97773 c -1.15624,-1.31688 -2.10225,-3.24642 -2.57525,-5.25261 l -0.39108,-1.65872 -0.004,-2.41952 -0.004,-2.41953 0.53119,-1.68151 0.53119,-1.68152 0.75735,-0.99321 c 0.98825,-1.29603 1.87321,-1.97566 3.16686,-2.43209 l 1.05226,-0.37126 0.44052,0.32212 0.44051,0.32211 0.35779,2.50221 0.35778,2.5022 -0.51186,0.66146 c -0.28153,0.3638 -0.71446,0.94606 -0.96207,1.2939 l -0.4502,0.63245 0.0195,1.7488 0.0195,1.74881 0.41471,0.98277 0.41471,0.98277 0.72424,0.18177 0.72424,0.18177 0.58131,-0.67581 0.58132,-0.67582 0.43167,-1.87779 c 0.23742,-1.03278 0.62674,-2.74099 0.86514,-3.79601 0.86447,-3.82554 2.52642,-6.53886 4.70086,-7.6747 l 1.08339,-0.56591 2.11666,-0.011 2.11667,-0.011 1.05833,0.57069 c 1.33919,0.72213 3.09283,2.54473 3.78852,3.93751 0.29511,0.59081 0.73696,1.84097 0.98189,2.77813 l 0.44532,1.70392 -0.11634,2.69613 -0.11635,2.69614 -0.84899,1.72453 -0.84898,1.72453 -1.08445,0.92825 -1.08445,0.92825 -1.31229,0.43587 -1.31228,0.43587 -0.38435,-0.38435 -0.38435,-0.38434 -0.24519,-1.69628 c -0.13486,-0.93294 -0.24759,-2.18216 -0.25051,-2.77604 l -0.005,-1.07977 0.61666,-0.33002 c 0.33916,-0.18152 0.83775,-0.70431 1.10798,-1.16176 l 0.49131,-0.83174 -0.0186,-1.23227 c -0.0102,-0.67776 -0.16116,-1.66428 -0.33541,-2.19228 l -0.31683,-0.95999 -0.49058,-0.26255 c -0.26982,-0.14441 -0.73348,-0.26256 -1.03035,-0.26256 h -0.53977 l -0.38637,0.74715 c -0.2125,0.41094 -0.80647,2.48981 -1.31994,4.61973 l -0.93357,3.87257 -0.6805,1.3429 c -0.88713,1.75066 -2.34207,3.34141 -3.68662,4.03073 l -1.07638,0.55183 -1.85208,0.1046 -1.85209,0.1046 z m -6.79478,-25.12409 c -0.23042,-0.18258 -0.74053,-1.31591 -1.13357,-2.5185 l -0.71461,-2.18652 0.69283,-1.18224 c 0.38106,-0.65023 2.5853,-4.0716 4.89832,-7.60306 2.31301,-3.53145 4.10304,-6.45788 3.97785,-6.50317 -0.1252,-0.0453 -2.9829,0.8179 -6.35044,1.91822 -3.36755,1.10033 -6.28391,2.00059 -6.4808,2.00059 h -0.35798 l -0.51223,-1.38906 c -0.28173,-0.76399 -0.72055,-2.02611 -0.97515,-2.80473 l -0.46292,-1.41566 0.36083,-0.35332 c 0.39186,-0.38372 22.74418,-7.79556 23.50952,-7.79556 0.2567,0 0.5837,0.14883 0.72666,0.33073 0.40545,0.51585 1.39312,3.66436 1.38559,4.417 l -0.007,0.67623 -4.754,7.27604 -4.754,7.27604 0.26203,0.0879 c 0.14411,0.0484 3.07705,-0.82367 6.51763,-1.93785 l 6.2556,-2.02577 0.32829,0.35035 c 0.48213,0.51452 1.76706,4.60192 1.66742,5.30412 l -0.0855,0.60248 -11.37708,3.76588 c -6.2574,2.07123 -11.56192,3.82796 -11.78784,3.90384 l -0.41075,0.13797 z m -301.54732,-7.68471 -11.48153,-4.02434 -0.25315,-0.40289 -0.25314,-0.40289 2.17221,-6.21169 c 2.39956,-6.86182 2.78372,-7.7341 4.03277,-9.15669 l 0.85635,-0.97532 1.32484,-0.61695 1.32484,-0.61695 1.20875,-0.003 c 0.66481,-10e-4 1.83223,0.18257 2.59427,0.40887 l 1.38552,0.41145 1.01692,1.01693 c 0.55931,0.55931 1.17198,1.44572 1.36149,1.9698 0.40559,1.12162 0.7226,1.18403 1.54853,0.30487 0.6605,-0.70307 2.59756,-1.46867 3.71592,-1.46867 0.38423,0 1.33313,0.18843 2.10866,0.41874 l 1.41007,0.41874 1.3589,1.3672 1.3589,1.36719 0.32177,1.08903 c 0.17697,0.59897 0.32176,1.87144 0.32176,2.82771 v 1.73868 l -2.4157,6.96187 c -1.32863,3.82903 -2.53383,7.11071 -2.67823,7.29261 -0.14439,0.1819 -0.39678,0.32598 -0.56086,0.32018 -0.16408,-0.006 -5.46502,-1.82151 -11.77986,-4.0349 z m 8.93218,-4.61966 c 0.61269,-1.1467 2.15247,-6.025 2.15247,-6.81942 v -0.88123 l -0.69714,-0.54837 -0.69714,-0.54837 h -0.89036 -0.89036 l -0.47876,0.47876 -0.47877,0.47877 -1.13926,3.21962 -1.13926,3.21963 0.1436,0.37419 0.14359,0.3742 1.54057,0.53673 c 1.93635,0.67462 2.12723,0.68369 2.43082,0.11549 z m -9.3016,-3.04271 c 0.49516,-0.64887 1.92907,-5.03047 1.92907,-5.89468 v -0.87993 l -0.69714,-0.54837 c -0.85197,-0.67016 -1.70595,-0.69987 -2.45278,-0.0854 l -0.56271,0.46302 -0.92181,2.59048 c -0.50699,1.42477 -0.92181,2.81383 -0.92181,3.08681 v 0.49632 l 1.52136,0.53033 c 1.86968,0.65175 1.79885,0.64363 2.10582,0.24137 z m 11.0572,-20.18841 c -5.82084,-3.26106 -10.69045,-6.09206 -10.82136,-6.2911 l -0.23802,-0.36191 1.32051,-2.34147 c 0.72627,-1.2878 1.50645,-2.45876 1.73372,-2.60212 l 0.41322,-0.26065 8.23967,4.58751 8.23967,4.58751 0.24844,-0.24843 c 0.13664,-0.13664 1.47545,-2.44632 2.97515,-5.13262 l 2.72671,-4.88417 0.43382,-0.0836 0.43383,-0.0836 2.20148,1.2445 c 2.39536,1.35408 2.63026,1.57074 2.38819,2.2027 -0.22968,0.59963 -7.38601,13.45055 -8.15386,14.64222 l -0.63931,0.99219 -0.45926,-0.0189 c -0.2526,-0.0104 -5.22177,-2.68707 -11.0426,-5.94813 z m 283.04388,3.99939 c -0.76076,-0.18434 -2.18951,-0.73082 -3.175,-1.21439 l -1.7918,-0.87923 -1.62098,-1.61636 -1.62098,-1.61636 -0.8293,-1.64283 c -0.45612,-0.90356 -1.0066,-2.32352 -1.22329,-3.15546 l -0.39399,-1.51263 v -1.87319 -1.8732 l 0.39399,-1.51263 c 0.87549,-3.36124 2.83636,-6.16392 5.53111,-7.90561 l 1.57735,-1.0195 1.7006,-0.52526 1.7006,-0.52526 2.41953,0.006 2.41953,0.006 1.79285,0.63273 c 2.32023,0.81886 4.03167,1.93195 5.72758,3.72513 l 1.36528,1.44358 0.94723,1.99459 0.94723,1.9946 0.285,1.97827 0.285,1.97827 -0.29074,2.01812 -0.29074,2.01812 -1.08246,2.18448 -1.08245,2.18448 -1.59091,1.4729 -1.59091,1.4729 -1.65265,0.77899 c -2.86976,1.35268 -5.93063,1.69261 -8.85668,0.98359 z m 5.02556,-6.65116 1.22308,-0.41674 1.18314,-1.04145 1.18314,-1.04144 0.60094,-1.24137 0.60093,-1.24137 -0.004,-1.59992 -0.004,-1.59992 -0.53329,-1.19063 c -0.29332,-0.65484 -0.85526,-1.57149 -1.24876,-2.037 l -0.71545,-0.84638 -1.43911,-0.70409 -1.43912,-0.7041 -1.94794,0.0984 -1.94794,0.0984 -1.28802,0.79631 -1.28801,0.79632 -0.84869,1.11271 -0.8487,1.11271 -0.32702,1.46131 -0.32703,1.46131 0.32001,1.42996 0.32002,1.42997 0.76984,1.14972 c 1.75912,2.62717 5.02068,3.73429 8.00524,2.71735 z M 355.13165,299.51383 c -4.27489,-3.15703 -8.81432,-6.50521 -10.08763,-7.44039 l -2.3151,-1.70033 v -0.40775 c 0,-0.22427 0.73887,-1.40537 1.64193,-2.62467 l 1.64194,-2.21691 h 0.43111 c 0.38576,0 18.30391,13.0191 19.76678,14.36229 0.32743,0.30064 0.59532,0.68846 0.59532,0.86182 0,0.40456 -3.2109,4.69322 -3.60456,4.81446 -0.1635,0.0503 -3.79491,-2.49148 -8.06979,-5.64852 z m 246.4802,-1.03404 -1.76036,-2.25441 0.13266,-0.34573 c 0.13793,-0.35942 19.03522,-15.45857 19.63536,-15.68886 l 0.3409,-0.13082 1.43539,1.8043 c 0.78946,0.99236 1.63401,2.10998 1.87677,2.48358 l 0.44138,0.67928 -0.72637,0.67388 c -1.85089,1.71714 -18.88031,15.03318 -19.2254,15.03318 h -0.38996 z m -233.78858,-6.58906 c -0.53191,-0.20454 -1.27605,-0.57431 -1.65365,-0.82172 l -0.68654,-0.44984 v -0.42637 -0.42637 l 1.91161,-1.92445 1.9116,-1.92445 h 1.35033 1.35032 l 1.20141,-0.79578 c 0.66078,-0.43768 1.51463,-1.24776 1.89745,-1.80016 l 0.69603,-1.00438 v -0.85222 -0.85223 l -0.65438,-0.24879 -0.65438,-0.2488 -0.99927,0.3631 c -0.54959,0.1997 -2.40398,1.03598 -4.12086,1.85839 l -3.12161,1.4953 -1.90621,0.41366 -1.90621,0.41367 -1.52616,-0.31683 -1.52615,-0.31683 -1.11328,-0.84913 -1.11327,-0.84912 -0.79942,-1.29417 -0.79942,-1.29416 0.005,-2.40087 0.005,-2.40086 0.76026,-1.56006 0.76026,-1.56007 1.85208,-1.94976 1.85208,-1.94975 1.8807,-0.91978 1.88071,-0.91978 1.47811,-0.16581 1.47811,-0.16581 1.48086,0.4305 1.48085,0.43049 0.81135,0.68271 c 0.44624,0.37548 0.81134,0.82392 0.81134,0.99653 0,0.17261 -0.86979,1.17782 -1.93287,2.2338 l -1.93287,1.91998 -1.46002,-0.1716 -1.46002,-0.1716 -0.81388,0.42088 c -0.44764,0.23148 -1.24256,0.92168 -1.76649,1.53377 l -0.9526,1.1129 v 0.8255 c 0,1.95155 0.95092,1.90687 5.69707,-0.26769 l 3.77191,-1.72818 1.93236,-0.40291 1.93235,-0.40291 1.07222,0.17632 c 2.40171,0.39495 4.37239,1.80678 5.51855,3.95358 l 0.56504,1.05833 0.008,1.86581 0.008,1.8658 -1.03328,2.09069 -1.03327,2.09069 -1.8894,1.8894 -1.8894,1.8894 -2.02665,1.00162 -2.02665,1.00163 -1.79755,0.0953 -1.79755,0.0953 z m 225.5949,-3.78719 c -2.15605,-0.77172 -3.8543,-1.8949 -5.72042,-3.78331 l -1.75513,-1.77609 -1.023,-2.06956 -1.02299,-2.06956 v -2.00391 -2.0039 l 0.67682,-1.31678 0.67682,-1.31678 0.48149,-0.0927 0.48149,-0.0927 1.95054,1.93753 1.95054,1.93752 v 1.35032 1.35033 l 0.79579,1.20141 c 0.43768,0.66077 1.24775,1.51462 1.80015,1.89744 l 1.00438,0.69604 h 0.8542 0.8542 l 0.22189,-0.59532 0.2219,-0.59531 -0.33233,-1.05833 c -0.18278,-0.58209 -1.00784,-2.46306 -1.83347,-4.17994 l -1.50114,-3.1216 -0.41366,-1.90621 -0.41367,-1.90622 0.31683,-1.52615 0.31683,-1.52615 0.84913,-1.11328 0.84912,-1.11328 1.29417,-0.79942 1.29416,-0.79942 2.40087,0.005 2.40086,0.005 1.56006,0.76026 1.56007,0.76026 1.94563,1.84816 1.94563,1.84816 0.79555,1.62004 c 0.43756,0.89103 0.93568,2.29167 1.10694,3.11253 l 0.31138,1.49249 -0.32845,1.46765 c -0.34049,1.52145 -1.15206,2.96137 -1.94825,3.45665 l -0.45978,0.28601 -1.99337,-1.98007 -1.99338,-1.98007 0.16731,-1.47882 0.16731,-1.47881 -0.4192,-0.81064 c -0.23056,-0.44585 -0.92,-1.2393 -1.53209,-1.76323 l -1.1129,-0.9526 h -0.84602 -0.84602 l -0.33123,0.39911 -0.33124,0.39912 0.13944,0.85765 c 0.0767,0.47172 0.80508,2.26327 1.61864,3.98125 0.81357,1.71797 1.67858,3.80156 1.92226,4.63021 l 0.44305,1.50662 0.0127,1.5875 0.0127,1.5875 -0.35533,1.03607 -0.35532,1.03607 -1.07758,1.16904 c -0.59268,0.64298 -1.55057,1.41034 -2.12866,1.70526 l -1.05107,0.53622 -1.47437,0.11041 -1.47436,0.11041 z m -23.28333,-19.05416 c -2.01775,-0.71593 -3.79782,-1.84993 -5.57667,-3.55261 l -1.61137,-1.54238 -0.72463,-1.47988 c -0.39855,-0.81394 -0.85508,-2.18138 -1.01453,-3.03876 l -0.2899,-1.55887 0.31523,-1.7108 c 0.4859,-2.63711 1.08568,-3.77524 5.54843,-10.5286 l 4.15064,-6.28106 0.48529,-0.15999 0.48529,-0.15998 2.23873,1.48985 c 1.23131,0.81941 2.30578,1.66457 2.38773,1.87812 l 0.14899,0.38827 -4.01291,6.08887 c -2.2071,3.34888 -4.18457,6.4997 -4.39437,7.00182 -0.2098,0.50213 -0.38146,1.46827 -0.38146,2.14699 v 1.23404 l 0.55305,0.89484 c 0.64094,1.03707 2.3204,2.25703 3.74735,2.72207 l 0.9931,0.32365 0.85898,-0.1773 c 0.47244,-0.0975 1.30531,-0.46567 1.85082,-0.8181 l 0.99184,-0.64079 4.24477,-6.35903 c 2.33461,-3.49747 4.41712,-6.42518 4.62779,-6.50602 l 0.38303,-0.14698 2.18558,1.39453 c 2.38002,1.51861 2.63748,1.76373 2.49317,2.37365 -0.0529,0.22351 -1.93931,3.20007 -4.19206,6.61458 l -4.09591,6.20819 -1.49922,1.40338 -1.49922,1.40338 -1.52205,0.7115 -1.52206,0.71149 -2.51354,0.0713 -2.51354,0.0713 z m -169.59447,-4.30437 c -4.89898,-0.98333 -8.58978,-4.22079 -10.16395,-8.91552 l -0.55167,-1.6453 0.003,-2.19116 0.003,-2.19116 0.37809,-1.42056 c 0.20795,-0.7813 0.70343,-2.09099 1.10107,-2.91041 l 0.72297,-1.48986 1.87235,-1.87236 1.87236,-1.87235 1.45521,-0.69928 c 0.80036,-0.3846 2.16483,-0.88149 3.03215,-1.10421 l 1.57694,-0.40493 1.73035,0.004 c 1.9941,0.005 4.21046,0.47253 5.71247,1.20563 l 1.04496,0.51002 -0.0156,0.54449 -0.0156,0.54449 -1.43966,2.03071 c -0.79181,1.11689 -1.64352,2.09885 -1.89269,2.18215 l -0.45302,0.15144 -0.60531,-0.3303 -0.60531,-0.33031 -1.85208,-0.009 -1.85208,-0.009 -1.08915,0.57628 c -1.7053,0.90228 -2.64976,1.82371 -3.3882,3.30556 l -0.68203,1.36866 v 1.74818 1.74819 l 0.68203,1.36865 c 0.77883,1.56291 1.83911,2.55428 3.55131,3.32051 l 1.19062,0.53282 1.5875,-0.0207 1.5875,-0.0207 0.99808,-0.42764 c 2.18456,-0.93601 3.9611,-3.17153 4.32403,-5.44116 l 0.17675,-1.10535 0.55786,-0.2237 c 0.30683,-0.12303 1.62606,-0.35004 2.93163,-0.50446 l 2.37377,-0.28076 0.38651,0.3865 0.3865,0.3865 -0.28441,1.79434 c -0.39865,2.51504 -1.2399,4.57207 -2.62142,6.4099 l -1.18511,1.57655 -1.57655,1.18511 c -3.07098,2.3085 -7.26981,3.28065 -10.96556,2.53884 z M 424.3749,253.3076 c -0.19131,-0.47294 -2.10393,-5.76872 -4.25027,-11.7684 l -3.90243,-10.90851 0.13647,-0.35563 0.13646,-0.35562 6.44241,-2.32522 6.44241,-2.32521 1.78263,-0.13816 1.78262,-0.13815 1.18286,0.33118 1.18287,0.33118 1.07853,0.92319 c 1.24196,1.06307 2.00224,2.41427 2.39876,4.26321 l 0.27831,1.29769 -0.54549,1.55532 c -0.30002,0.85542 -0.5745,1.65377 -0.60996,1.7741 -0.0355,0.12033 0.63463,0.43934 1.48907,0.70892 l 1.55353,0.49015 0.79504,0.74628 c 0.43727,0.41046 1.07647,1.3416 1.42045,2.0692 l 0.62541,1.32292 -0.003,1.71979 -0.003,1.71979 -0.49279,1.08509 c -0.64192,1.41349 -2.09923,2.85158 -3.72402,3.67492 -1.58051,0.80091 -13.73266,5.16187 -14.38394,5.16187 h -0.46463 z m 8.61553,-8.14977 c 1.64615,-0.58968 3.20386,-1.26298 3.46158,-1.49621 l 0.46857,-0.42406 v -0.98164 -0.98164 l -0.54837,-0.69714 -0.54837,-0.69714 h -0.81152 c -0.81174,0 -6.73283,1.98554 -7.20616,2.41647 l -0.25087,0.2284 0.48832,1.38954 c 0.26858,0.76425 0.59403,1.5979 0.72321,1.85256 l 0.23488,0.46303 h 0.49787 c 0.27382,0 1.84471,-0.48248 3.49086,-1.07217 z m -4.10506,-8.86771 2.61125,-0.94404 0.59531,-0.55729 c 0.69249,-0.64825 0.7475,-1.25537 0.20823,-2.2982 -0.3884,-0.75109 -0.88932,-1.07726 -1.65439,-1.07726 -0.66249,0 -5.74555,1.89174 -5.95613,2.21667 -0.30779,0.47492 0.85267,3.60416 1.33658,3.60416 0.13635,0 1.42296,-0.42482 2.85915,-0.94404 z m 109.50344,15.77569 c -1.30939,-0.56693 -2.49049,-1.20481 -2.62466,-1.4175 l -0.24393,-0.38672 4.87362,-11.32061 4.87361,-11.3206 0.40981,-0.25142 0.4098,-0.25141 8.32145,3.56393 8.32145,3.56393 0.0909,0.46359 c 0.11985,0.61154 -1.80547,5.18562 -2.2554,5.35827 l -0.35004,0.13433 -5.43181,-2.3258 -5.4318,-2.32579 -0.35178,0.37905 c -0.19348,0.20848 -0.62889,1.06502 -0.9676,1.90341 l -0.61582,1.52434 0.30633,0.30633 c 0.16849,0.16849 2.18525,1.11062 4.4817,2.09363 2.29645,0.98301 4.27881,1.9511 4.40523,2.15132 l 0.22987,0.36403 -0.99934,2.32622 c -0.54964,1.27943 -1.13937,2.37996 -1.31052,2.44564 -0.17115,0.0657 -2.26567,-0.72184 -4.65449,-1.75004 -2.38882,-1.0282 -4.52036,-1.83571 -4.73677,-1.79446 l -0.39348,0.075 -1.60946,3.70115 -1.60946,3.70115 -0.37832,0.0599 c -0.20807,0.0329 -1.44964,-0.40394 -2.75904,-0.97087 z m -12.03906,-4.07391 -2.24896,-0.57128 -3.87852,-7.80521 c -2.13318,-4.29286 -3.93258,-7.92427 -3.99867,-8.06979 -0.0661,-0.14552 -0.18666,-0.20446 -0.26794,-0.13098 -0.0813,0.0735 -0.76062,2.87145 -1.50966,6.21771 -0.74904,3.34626 -1.42123,6.29246 -1.49377,6.54712 l -0.13189,0.46303 h -0.75916 c -1.02071,0 -5.04763,-0.97412 -5.37333,-1.29982 l -0.2598,-0.2598 2.56821,-11.45717 c 1.41252,-6.30144 2.68944,-11.84413 2.83762,-12.31707 l 0.2694,-0.85989 h 0.52257 c 1.00511,0 4.33492,0.85678 4.75109,1.22248 0.23094,0.20294 2.12867,3.88175 4.21717,8.17514 l 3.79727,7.80616 0.19957,-0.20137 c 0.10976,-0.11076 0.84151,-3.03325 1.62611,-6.49444 0.78459,-3.46119 1.55506,-6.42159 1.71215,-6.57868 l 0.28561,-0.28562 2.60236,0.57113 c 1.4313,0.31412 2.76161,0.72936 2.95625,0.92276 l 0.35389,0.35162 -2.70003,12.00593 c -1.48502,6.60326 -2.81971,12.15476 -2.96598,12.33666 -0.3308,0.41138 -0.37022,0.40772 -3.11156,-0.28862 z m -75.51715,-2.52104 c -0.0782,-0.12649 -0.98954,-5.73657 -2.02525,-12.46686 l -1.88312,-12.23688 0.35599,-0.32279 0.35599,-0.32279 5.55625,-0.82837 c 3.05593,-0.4556 6.15202,-0.90296 6.88019,-0.99414 l 1.32394,-0.16576 1.55848,0.2881 c 5.58269,1.03201 9.02717,5.05141 9.94329,11.6029 l 0.26823,1.91823 -0.25983,1.83198 c -0.67865,4.78513 -3.12147,7.96689 -7.32376,9.53917 l -1.49438,0.55911 -5.89072,0.91404 c -6.23818,0.96794 -7.13819,1.05153 -7.3653,0.68406 z m 9.5964,-7.5609 2.20946,-0.39216 1.1384,-0.66715 1.1384,-0.66715 0.68703,-1.3787 0.68704,-1.3787 v -1.48753 c 0,-0.81814 -0.17591,-2.07989 -0.39091,-2.80388 l -0.39092,-1.31635 -0.9348,-1.09211 -0.93481,-1.09211 -1.21993,-0.4659 -1.21994,-0.46589 -2.64054,0.32954 c -1.4523,0.18124 -2.92613,0.43812 -3.27518,0.57082 l -0.63464,0.24129 v 0.6744 c 0,1.27726 1.64308,11.37774 1.90275,11.69674 l 0.26007,0.3195 0.70453,-0.11625 c 0.38749,-0.0639 1.69879,-0.29272 2.91399,-0.50841 z m 34.38975,4.64163 c -0.82543,-0.0886 -1.59141,-0.25164 -1.70216,-0.36239 l -0.20137,-0.20137 0.93908,-12.45961 0.93909,-12.45961 0.3662,-0.22986 0.3662,-0.22986 2.24896,0.14297 c 2.81718,0.1791 3.35018,0.28591 3.50501,0.70241 0.13279,0.35724 -1.559,23.74605 -1.7896,24.74083 l -0.138,0.59531 -1.51631,-0.0389 c -0.83397,-0.0214 -2.19167,-0.11136 -3.0171,-0.19992 z"
       id="logo-face"
       style="fill:#000000;stroke:none" /></g></svg>
