<?xml version="1.0" encoding="UTF-8" standalone="no"?>
<!-- Created with Inkscape (http://www.inkscape.org/) -->

<svg
   width="155.578mm"
   height="155.44092mm"
   viewBox="0 0 155.578 155.44092"
   version="1.1"
   id="svg1"
   xml:space="preserve"
   xmlns="http://www.w3.org/2000/svg"
   xmlns:svg="http://www.w3.org/2000/svg"><defs
     id="defs1" /><path
     d="m 133.86769,190.6782 c -17.35127,-1.90934 -33.34436,-9.33831 -45.6697,-21.21407 -6.77818,-6.53094 -11.8783,-13.36169 -15.80543,-21.1687 -7.59846,-15.10551 -10.09047,-31.5645 -7.30026,-48.21615 2.11711,-12.63464 7.65759,-25.024302 15.78151,-35.290707 2.93005,-3.702781 10.2623,-10.891264 13.83554,-13.564266 12.16637,-9.101189 24.86827,-14.042228 40.06483,-15.585221 4.07409,-0.413666 14.09008,-0.184654 17.87892,0.408795 14.90198,2.334108 27.68303,7.992711 38.72188,17.143475 14.85373,12.313147 24.47471,29.291021 27.46992,48.475424 0.77633,4.97238 0.95755,14.80866 0.36803,19.97604 -1.06879,9.3683 -3.40821,17.35409 -7.55716,25.79687 -4.94841,10.06961 -11.66647,18.59059 -20.28079,25.7235 -11.05926,9.15741 -23.74682,14.7754 -38.72188,17.14585 -3.28473,0.51995 -15.274,0.75556 -18.78541,0.36916 z m 16.40416,-2.50998 c 15.83609,-1.83342 30.26581,-8.36755 42.25872,-19.13576 13.66989,-12.27395 22.57283,-29.93121 24.40865,-48.40986 0.35015,-3.52444 0.34972,-11.37511 -8.1e-4,-14.89289 -2.57325,-25.824011 -18.4103,-48.694434 -41.63491,-60.12531 -6.56778,-3.23258 -11.69702,-4.996982 -18.57516,-6.389649 -5.84656,-1.183796 -9.92151,-1.518494 -16.64295,-1.366978 -6.32719,0.142629 -9.24538,0.477278 -14.68437,1.683957 C 106.63171,43.695835 89.8293,55.192835 79.14456,71.182564 72.59152,80.989213 68.65338,91.4528 66.87471,103.78344 c -0.45959,3.18615 -0.45959,15.59928 0,18.78542 2.50956,17.39754 9.69967,32.00898 21.61422,43.92354 12.53561,12.53561 28.52753,20.03817 46.70167,21.90994 2.7405,0.28225 11.84151,0.14097 15.08125,-0.23412 z m -10.95941,-15.13009 c -0.26433,-4.91133 -0.53673,-9.41748 -0.60535,-10.01367 l -0.12476,-1.08399 1.80987,-0.1709 c 3.2234,-0.30439 6.38699,-0.20394 7.44076,0.23624 2.24706,0.93865 3.50178,3.24297 3.49142,6.41204 -0.012,3.66449 -2.17875,5.96404 -6.14905,6.52589 l -1.26007,0.17832 0.1737,3.24922 0.1737,3.24922 -1.42717,0.17136 c -0.78495,0.0943 -1.79062,0.17239 -2.23482,0.17366 l -0.80765,0.002 z m 6.63694,-2.33762 c 0.70248,-0.43749 0.98788,-1.61573 0.74278,-3.06647 -0.23555,-1.39418 -1.20794,-2.33497 -2.41339,-2.33497 h -0.88874 l 0.15577,2.71198 c 0.0857,1.49159 0.20272,2.86373 0.26011,3.0492 0.12058,0.38977 1.24228,0.20151 2.14347,-0.35974 z m -18.43169,9.88104 c -0.94589,-0.29518 -1.76713,-0.57799 -1.82498,-0.62848 -0.12074,-0.10538 1.12725,-4.8493 1.71085,-6.5034 0.21479,-0.60877 0.33161,-1.04795 0.2596,-0.97594 -0.11688,0.11688 -2.00414,2.88635 -3.81033,5.59148 -0.72235,1.08186 -0.878,1.13347 -2.1165,0.70172 l -0.83323,-0.29046 -0.0209,-4.40589 c -0.0115,-2.42324 -0.0601,-4.28683 -0.10796,-4.1413 -0.0479,0.14552 -0.58624,1.93145 -1.19633,3.96875 -0.61009,2.03729 -1.14701,3.74396 -1.19314,3.79259 -0.0461,0.0486 -0.93117,-0.18445 -1.96674,-0.51798 -1.87211,-0.60296 -1.88184,-0.611 -1.70685,-1.41135 0.0968,-0.44271 1.29038,-4.5554 2.6524,-9.13931 1.36202,-4.5839 2.47747,-8.54273 2.47879,-8.79739 0.003,-0.62768 0.51148,-0.58416 3.30968,0.28341 l 2.38124,0.7383 -0.0857,3.68941 c -0.0471,2.02917 -0.13873,4.22518 -0.20361,4.88002 l -0.11795,1.19063 0.83296,-1.32292 c 2.95873,-4.69909 4.5468,-6.96809 4.81844,-6.88449 2.51698,0.77457 4.6777,1.53211 4.6777,1.63998 0,0.32092 -2.58098,8.99716 -3.17362,10.66847 -0.129,0.3638 -0.78167,2.41763 -1.45036,4.56406 -0.66869,2.14644 -1.30084,3.89004 -1.40477,3.87468 -0.10393,-0.0154 -0.96287,-0.26942 -1.90875,-0.56459 z m 28.45882,-1.5903 c -0.71645,-6.45171 -1.52929,-18.5111 -1.26361,-18.74708 0.41315,-0.36696 4.40947,-1.54625 4.59867,-1.35705 0.49692,0.49692 10.01028,16.83792 10.01028,17.19455 0,0.1221 -0.77378,0.47358 -1.71951,0.78106 l -1.71951,0.55906 -0.4633,-0.59009 c -0.25482,-0.32454 -0.69874,-1.02809 -0.98649,-1.56344 -0.28775,-0.53535 -0.70447,-0.96914 -0.92604,-0.96399 -0.22157,0.005 -1.17676,0.27304 -2.12265,0.59531 l -1.71979,0.58595 0.0884,1.88641 0.0884,1.88642 -1.66115,0.56098 c -0.91364,0.30854 -1.74853,0.56098 -1.85533,0.56098 -0.10679,0 -0.26358,-0.62508 -0.34842,-1.38907 z m 5.27453,-7.34179 c 0.7861,-0.29888 0.85395,-0.10133 -1.19117,-3.46849 -0.9598,-1.58025 -1.29262,-1.97078 -1.20116,-1.40944 0.0696,0.42707 0.20159,1.82831 0.29335,3.11386 0.18435,2.58269 0.11005,2.52025 2.09898,1.76407 z m 8.3354,-6.28645 c -2.98318,-4.46601 -5.46103,-8.26452 -5.50634,-8.44114 -0.0899,-0.35066 3.29151,-2.7353 3.87871,-2.7353 0.19931,0 1.39121,0.74981 2.64865,1.66625 3.5768,2.60681 4.11752,2.96285 3.87708,2.55297 -0.12349,-0.21052 -1.03796,-1.58619 -2.03215,-3.05705 -0.99419,-1.47086 -1.80658,-2.78055 -1.80531,-2.91042 0.003,-0.25644 3.13904,-2.3553 3.27179,-2.18937 1.20752,1.50938 10.74882,16.36647 10.74882,16.73736 0,0.0933 -0.62405,0.57003 -1.38678,1.05947 l -1.38678,0.88989 -1.45749,-0.8122 c -0.80162,-0.44671 -2.45345,-1.4497 -3.67073,-2.22886 -1.21727,-0.77916 -2.24366,-1.38073 -2.28085,-1.33683 -0.0372,0.0439 0.8635,1.50858 2.00153,3.25483 1.13804,1.74625 2.07512,3.25362 2.08242,3.34972 0.0114,0.15049 -3.28662,2.35464 -3.48598,2.32975 -0.04,-0.005 -2.51342,-3.66307 -5.49659,-8.12907 z m -65.61667,4.72517 c -1.94803,-0.41356 -4.16872,-2.19997 -4.94036,-3.9742 -1.02912,-2.36627 -0.2469,-5.74144 2.03759,-8.79193 4.09152,-5.46344 8.6285,-7.48949 12.04346,-5.37818 0.71169,0.44 1.65485,1.31389 2.09592,1.94197 0.75271,1.07189 0.80161,1.29071 0.79676,3.56562 -0.005,2.23001 -0.081,2.58219 -0.95371,4.40802 -0.98545,2.0616 -2.89558,4.62945 -4.64212,6.24059 -1.78221,1.64403 -4.33894,2.43363 -6.43754,1.98811 z m 2.86812,-4.70908 c 1.71595,-1.30581 4.51397,-5.59966 5.1162,-7.85135 0.33706,-1.2602 0.33137,-1.2864 -0.41897,-1.93182 -0.91149,-0.78403 -1.68777,-0.67884 -3.06744,0.41563 -1.96978,1.56259 -5.55625,6.86683 -5.55625,8.21746 0,1.33508 1.09672,2.23982 2.38125,1.96442 0.36381,-0.078 1.05915,-0.44445 1.54521,-0.81434 z m -16.57735,-7.64574 c -2.39115,-1.19156 -4.26569,-4.0861 -4.27663,-6.6037 -0.008,-1.84932 0.95278,-3.6543 2.97606,-5.5908 4.28766,-4.10378 10.01313,-5.96389 12.98901,-4.21991 2.30924,1.3533 3.69637,4.61814 3.05102,7.18105 l -0.31669,1.25768 -1.71735,-0.16037 c -0.94454,-0.0882 -1.77086,-0.21388 -1.83627,-0.27929 -0.0654,-0.0654 0.0246,-0.51591 0.20009,-1.00113 0.26177,-0.72391 0.24636,-1.05611 -0.0859,-1.85131 -0.87604,-2.09668 -2.35147,-2.25146 -5.17509,-0.5429 -3.96542,2.39944 -6.08591,4.76886 -5.72765,6.40001 0.3618,1.64726 2.36605,2.62446 4.13372,2.01545 0.62147,-0.21412 1.09537,-0.25701 1.18777,-0.10751 0.27022,0.43723 -0.19878,3.39697 -0.60221,3.80041 -0.66001,0.66 -3.19334,0.50289 -4.79987,-0.29768 z m 102.47694,-2.91703 c -4.31043,-3.54174 -3.86722,-3.34157 -10.18646,-4.60054 -3.1287,-0.62332 -5.90502,-1.21092 -6.16961,-1.30577 -0.42506,-0.15237 -0.3365,-0.37124 0.76055,-1.87972 0.68289,-0.939 1.33326,-1.80779 1.44527,-1.93065 0.11201,-0.12285 1.76499,0.0855 3.67329,0.46302 1.9083,0.37752 3.50662,0.6864 3.55183,0.6864 0.0452,0 -0.63573,-1.4158 -1.5132,-3.14622 l -1.5954,-3.14622 0.71965,-1.02097 c 1.43682,-2.03841 1.73761,-2.35149 1.99771,-2.0793 0.13905,0.14552 1.45736,2.65608 2.92958,5.57903 l 2.67675,5.31444 3.30242,2.6094 c 1.81632,1.43516 3.30241,2.70468 3.30241,2.82113 0,0.27338 -2.41644,3.38942 -2.62214,3.38131 -0.0858,-0.003 -1.10849,-0.78879 -2.27265,-1.74534 z m -58.12827,-2.23871 c -4.34134,-0.45967 -8.99009,-2.62751 -12.46753,-5.81394 -1.88845,-1.73043 -5.18114,-5.92604 -6.25678,-7.97252 -0.76201,-1.44978 -0.58503,-2.45913 0.54211,-3.09178 1.08579,-0.60943 1.99352,-0.20627 2.91784,1.29596 0.44544,0.72392 0.85921,1.31623 0.91949,1.31623 0.0603,0 0.10745,-0.38696 0.10484,-0.8599 -0.004,-0.73134 -0.19193,-0.98243 -1.25677,-1.67957 -4.8122,-3.15046 -9.66631,-8.98992 -14.49435,-17.43657 -0.99814,-1.74625 -2.14765,-3.70433 -2.55446,-4.35128 -0.40682,-0.64696 -0.73967,-1.492 -0.73967,-1.87788 0,-0.44549 0.81785,-1.89943 2.24051,-3.98309 1.23228,-1.80483 2.68231,-3.92906 3.22229,-4.72051 3.19046,-4.67626 7.90242,-9.63797 11.61344,-12.22901 l 1.97376,-1.378081 -0.0139,-1.340494 -0.0139,-1.340495 -0.44914,0.649686 c -0.24703,0.357327 -0.9617,1.280061 -1.58816,2.050521 -0.96703,1.189313 -1.27375,1.400833 -2.03132,1.400833 -0.64883,0 -1.04192,-0.19022 -1.44067,-0.69714 -0.95627,-1.215701 -0.74241,-1.714019 2.4568,-5.724616 5.98988,-7.50905 12.99144,-11.049108 21.82875,-11.036831 4.03633,0.0056 6.07054,0.573807 9.8265,2.744756 0.3638,0.210279 1.64228,0.560815 2.84107,0.778969 6.5877,1.198822 11.86062,6.061412 13.96312,12.876531 0.37434,1.213411 0.65318,1.596541 1.6781,2.305771 0.67604,0.46781 2.00238,1.55267 2.94741,2.41079 l 1.71825,1.56024 0.26613,-0.82019 c 0.33262,-1.02513 1.45064,-1.61652 2.4583,-1.30036 0.56594,0.17758 0.98255,0.75665 1.96471,2.73091 1.44035,2.89527 3.2992,7.46778 3.81515,9.38472 0.7255,2.69554 0.28323,4.10104 -1.2905,4.10104 -1.14024,0 -1.47834,-0.25587 -2.34905,-1.77771 -1.5315,-2.67679 -4.62772,-6.52697 -7.50679,-9.33479 l -2.84862,-2.77813 -0.46735,2.24896 c -0.25703,1.23693 -0.53042,2.42755 -0.60753,2.64583 -0.0885,0.25052 0.32062,0.78717 1.10937,1.45521 1.78295,1.5101 3.10354,3.17966 4.08099,5.15938 0.80007,1.62046 0.84911,1.88789 0.84911,4.63021 0,3.11247 -0.33742,4.28459 -1.87423,6.51064 l -0.6589,0.9544 0.6721,2.31928 c 0.6715,2.31719 1.30912,6.62541 1.04405,7.0543 -0.0772,0.12485 -0.0283,0.227 0.10862,0.227 0.39498,0 4.78414,-4.71312 6.54141,-7.02423 1.4276,-1.87755 1.70352,-2.11263 2.56461,-2.18511 1.20689,-0.10159 2.05338,0.6489 2.05338,1.8205 0,0.44729 -0.30291,1.72721 -0.67313,2.84427 -0.74913,2.26034 -3.7764,8.57325 -4.634,9.66351 -1.13884,1.4478 -3.58454,0.52177 -3.37446,-1.27769 l 0.0997,-0.85402 -1.65702,1.32786 c -1.42246,1.13989 -1.82338,1.66982 -2.83222,3.74361 -1.81159,3.72393 -5.4611,7.34569 -9.16405,9.09434 -1.73732,0.82043 -5.13503,1.63238 -6.83088,1.63238 -1.21564,0 -1.85243,0.20023 -3.7443,1.17734 -2.72893,1.40944 -5.88858,2.36594 -9.1261,2.76269 -2.60128,0.31878 -2.53505,0.31869 -5.47618,0.007 z m 8.78348,-1.82497 c 4.05011,-0.98783 8.43704,-3.56887 10.72321,-6.309 l 0.73369,-0.87937 -1.0321,0.18032 c -0.56765,0.0992 -1.44881,0.52523 -1.95814,0.9468 -4.22949,3.50076 -7.95557,4.9166 -13.63423,5.18074 -2.69446,0.12534 -3.52722,0.0621 -5.42396,-0.41191 -3.08524,-0.77102 -6.2619,-2.39099 -8.19123,-4.1772 l -1.59016,-1.47221 v -2.33492 c 0,-1.99136 -0.0681,-2.35655 -0.46302,-2.48188 -0.82214,-0.26094 -0.94775,-0.0479 -0.88456,1.50036 0.0342,0.83674 -0.0356,1.51924 -0.15506,1.51665 -0.24472,-0.005 -2.90397,-3.73874 -3.3317,-4.67751 -0.32053,-0.70349 -1.19015,-0.81151 -1.43324,-0.17803 -0.51095,1.33152 5.16248,8.30098 8.74482,10.74247 2.54031,1.7313 5.68123,2.97501 8.76755,3.47168 1.70073,0.27369 6.92378,-0.0794 9.12813,-0.61699 z m -1.19063,-2.5148 c 0.87313,-0.19993 1.93308,-0.49503 2.35545,-0.65577 l 0.76794,-0.29226 -1.82628,-0.88052 c -1.00445,-0.48429 -2.6257,-1.41942 -3.60277,-2.07806 -1.53377,-1.0339 -2.22031,-1.29623 -5.02485,-1.91996 -3.33675,-0.74211 -7.75385,-2.1656 -9.52731,-3.07035 l -1.00156,-0.51095 v 2.36601 2.36601 l 1.02872,0.88051 c 2.44514,2.09289 5.94425,3.66123 9.37338,4.20126 1.71856,0.27064 5.37089,0.0718 7.45728,-0.40592 z m 15.08125,-1.6122 c 4.94863,-1.3877 9.92258,-6.3777 11.58401,-11.62137 0.77348,-2.4412 0.83219,-8.06737 0.11167,-10.70141 -0.2566,-0.93806 -0.52586,-1.76489 -0.59836,-1.83738 -0.0725,-0.0725 -0.3793,0.11568 -0.6818,0.41817 -0.53771,0.53772 -0.5405,0.5917 -0.12494,2.41878 0.49007,2.15467 0.55544,5.99921 0.13663,8.03517 -0.15863,0.77114 -0.76439,2.3989 -1.34613,3.61723 -1.66618,3.48945 -5.22312,6.69263 -8.98784,8.09396 -0.67633,0.25174 -1.62883,0.87159 -2.11667,1.37744 l -0.88699,0.91972 0.79375,-0.17466 c 0.43657,-0.0961 1.38907,-0.34161 2.11667,-0.54565 z m -9.29988,-0.61278 0.75429,-0.4973 -1.41575,-0.46186 c -1.83366,-0.59819 -4.26415,-1.7836 -5.847,-2.85171 l -1.25626,-0.84772 -5.1e-4,-5.22553 c -2.8e-4,-2.87403 -0.0898,-5.22714 -0.19895,-5.22913 -0.10914,-0.002 -0.46633,-0.0754 -0.79375,-0.16315 l -0.59531,-0.15954 v 4.52878 c 0,2.49083 -0.0863,4.52877 -0.1918,4.52877 -0.10549,0 -0.9884,-0.7905 -1.96204,-1.75667 -1.2029,-1.19369 -1.90458,-1.70511 -2.18945,-1.5958 -0.88175,0.33836 -0.38397,1.22118 1.89589,3.36234 3.50755,3.29417 5.92897,4.96952 9.02031,6.24104 1.81642,0.74714 1.83889,0.74817 2.78033,0.12748 z m 2.83762,-2.04992 0.64143,-0.69861 -1.45521,0.16715 c -0.80036,0.0919 -1.8124,0.18039 -2.24896,0.19659 -0.67383,0.025 -0.5739,0.10284 0.66146,0.5153 1.84948,0.6175 1.65526,0.63209 2.40128,-0.18043 z m 7.46199,-0.65597 c 1.58149,-0.79301 4.38573,-2.81989 4.41171,-3.18874 0.007,-0.0977 -0.99779,0.22968 -2.23261,0.7276 -1.23482,0.49792 -2.41368,0.90531 -2.6197,0.90531 -0.30298,0 -1.25203,1.21754 -1.70146,2.18281 -0.18218,0.39129 0.52301,0.18488 2.14206,-0.62698 z m -5.76223,-1.45515 c 2.84615,-0.46199 7.80654,-2.07622 10.41203,-3.38832 1.50848,-0.75966 1.98701,-1.15479 2.41531,-1.99432 0.29377,-0.57583 0.53412,-1.09213 0.53412,-1.14734 0,-0.0552 -1.36563,0.58392 -3.03474,1.42029 -5.42919,2.72049 -9.84783,3.88068 -15.75068,4.13561 l -3.83646,0.16568 1.58313,0.74684 c 1.76764,0.83389 2.86502,0.84269 7.67729,0.0616 z m -17.33021,-1.4236 c -0.64319,-0.58208 -1.2981,-1.05833 -1.45534,-1.05833 -0.75562,0 -5.58743,-1.7575 -8.02529,-2.91908 -3.65226,-1.74021 -6.07422,-3.38543 -8.74399,-5.93971 -3.94184,-3.77134 -6.6553,-7.63267 -12.14409,-17.28137 l -0.64682,-1.13704 2.07502,-3.09629 c 4.7378,-7.06964 8.61925,-11.63676 12.4702,-14.67307 1.35063,-1.06491 1.65364,-1.44485 1.65364,-2.07342 0,-0.42329 -0.0787,-0.76961 -0.17488,-0.76961 -0.43662,0 -4.38382,3.20867 -6.19068,5.03239 -2.50409,2.52746 -4.6289,5.25303 -8.54032,10.955 l -3.07181,4.478 1.10087,2.00429 c 8.20164,14.93229 14.33732,21.22696 24.63299,25.27131 1.74076,0.6838 7.05331,2.20459 7.84366,2.24535 0.21246,0.011 -0.13996,-0.45633 -0.78316,-1.03842 z m 15.875,-1.07245 c 3.45373,-0.55166 3.55275,-0.60583 4.06225,-2.22215 0.62157,-1.97185 1.00267,-5.50423 0.79627,-7.38053 -0.165,-1.49996 -0.19118,-1.5424 -0.8607,-1.39545 -0.37979,0.0834 -1.82162,0.39843 -3.20407,0.70016 -1.54136,0.33641 -4.02297,0.60958 -6.41614,0.70628 l -3.90261,0.15768 v 4.85636 4.85635 l 3.90261,-0.002 c 2.14643,-10e-4 4.67651,-0.12562 5.62239,-0.27671 z m 6.69552,-1.81856 c 0.11728,-0.11425 0.39484,-1.20716 0.61681,-2.42867 0.66831,-3.67777 0.12592,-9.94937 -1.26754,-14.65636 -0.60214,-2.03396 -2.49515,-6.22265 -2.80619,-6.20929 -0.10774,0.005 -0.41163,0.17198 -0.67532,0.3719 -0.45694,0.34643 -0.44304,0.43605 0.29627,1.90981 1.12065,2.23392 2.08443,5.19668 2.61916,8.05148 0.63795,3.40589 0.64311,10.10783 0.009,12.10896 l -0.44853,1.41618 0.7214,-0.17813 c 0.39677,-0.098 0.81735,-0.27162 0.93462,-0.38588 z m -25.03996,-0.54515 c 0,-1.13497 0.757,-1.8555 1.94943,-1.8555 0.82389,0 1.14253,0.17917 1.94336,1.09279 l 0.9579,1.09279 v -3.74693 c 0,-2.77381 -0.0859,-3.76998 -0.33073,-3.83569 -0.1819,-0.0488 -1.64041,-0.2933 -3.24114,-0.54328 -1.60073,-0.24997 -4.42847,-0.9598 -6.28386,-1.57738 l -3.37344,-1.12289 v 4.01399 4.01398 l 2.129,0.99908 c 2.05226,0.96306 5.37061,2.21178 5.96285,2.24385 0.15764,0.009 0.28663,-0.34013 0.28663,-0.77481 z m 29.58548,-1.32442 c 4.03256,-2.0531 4.29051,-2.30461 4.51515,-4.40225 0.18561,-1.73318 -0.13766,-5.0543 -0.68353,-7.02231 l -0.26949,-0.97159 -1.77919,1.17061 c -0.97855,0.64385 -2.3745,1.41797 -3.1021,1.72029 l -1.32292,0.54967 v 4.1461 c 0,2.28036 -0.0818,4.59259 -0.1818,5.13829 -0.1,0.54571 -0.0893,0.99219 0.0237,0.99219 0.11305,0 1.37312,-0.59445 2.80016,-1.321 z m 13.25566,-1.26274 c 0.4159,-0.28138 2.56754,-4.33004 3.65944,-6.88581 1.24986,-2.92554 1.80824,-5.08052 1.43345,-5.53212 -0.52672,-0.63466 -0.96075,-0.35458 -2.23432,1.44177 -1.25305,1.7674 -2.6655,3.3642 -5.29715,5.98848 -1.00682,1.00401 -1.39555,1.61014 -1.50479,2.34635 -0.12944,0.87239 -0.0932,0.96335 0.29917,0.75092 0.24556,-0.13294 1.66685,-1.4395 3.15844,-2.90347 1.49159,-1.46398 2.71198,-2.58719 2.71198,-2.49603 0,0.0912 -0.75837,1.61866 -1.68528,3.39447 -1.24706,2.38919 -1.62203,3.34174 -1.44206,3.66333 0.26648,0.47616 0.46486,0.52726 0.90112,0.23211 z m -50.48833,-17.91587 c 7.55859,-1.63502 14.76156,-4.51536 19.91092,-7.96202 l 2.12558,-1.42273 0.88531,0.98541 c 0.48692,0.54197 1.20882,1.37236 1.60421,1.8453 0.81395,0.97359 0.90584,1.00179 1.603,0.49202 0.47639,-0.34835 0.41022,-0.47397 -1.2462,-2.36567 l -1.74931,-1.99779 1.05907,-1.11331 c 1.19855,-1.25994 2.5928,-3.11808 2.5928,-3.45546 0,-0.12369 -0.33858,-0.22489 -0.75242,-0.22489 -0.59754,0 -1.00461,0.31315 -1.97765,1.52135 -2.96725,3.68437 -8.25317,6.99944 -15.24814,9.5629 -3.41495,1.25147 -10.34199,3.03471 -10.63812,2.73858 -0.11581,-0.1158 -0.24318,-2.331 -0.28305,-4.92266 l -0.0725,-4.71211 -0.59906,0.51994 -0.59906,0.51994 -0.005,13.06259 -0.005,13.0626 0.60377,0.49297 0.60377,0.49298 0.0698,-8.33859 0.0698,-8.33859 z m -4.70004,11.42853 v -3.77941 l -0.7276,-0.43028 c -0.40018,-0.23665 -1.52974,-1.22487 -2.51013,-2.19604 -5.26283,-5.21337 -5.29093,-12.14157 -0.0706,-17.4135 0.94951,-0.9589 2.08233,-1.95371 2.51737,-2.2107 l 0.79099,-0.46725 v -3.40055 -3.40056 l -0.85989,0.60454 c -1.4999,1.05448 -5.8719,5.56983 -7.51932,7.76587 -0.87334,1.16417 -2.67602,3.68834 -4.00597,5.60927 l -2.41809,3.4926 2.41166,4.18032 c 2.67248,4.6324 5.0263,8.12651 7.09379,10.53031 1.45731,1.69437 4.76966,4.86706 5.09938,4.88437 0.10914,0.006 0.19844,-1.69031 0.19844,-3.76899 z m 26.93179,0.58824 c 2.58425,-0.28239 5.05003,-0.72793 7.13332,-1.28892 1.00876,-0.27164 1.12448,-0.38527 1.12448,-1.10418 0,-0.64585 -0.0908,-0.77258 -0.46767,-0.65295 -1.34337,0.42637 -5.53101,1.20992 -7.79013,1.45761 -6.57366,0.72075 -13.79113,-0.10235 -19.72189,-2.24914 l -2.44739,-0.8859 v 0.77553 c 0,0.96267 0.54744,1.27127 4.125,2.32529 5.76042,1.69714 12.12501,2.26949 18.04428,1.62266 z m -7.02935,-6.21878 0.0736,-3.58911 2.38125,-1.0008 c 4.27529,-1.79683 12.00833,-5.91086 14.62425,-7.78021 l 1.1305,-0.80786 1.20884,1.17365 c 1.52825,1.48379 3.38647,4.06031 4.62273,6.40969 l 0.95946,1.82334 0.5526,-0.70251 0.5526,-0.70252 -1.19884,-2.03342 c -1.33204,-2.25936 -2.7506,-4.17957 -4.25937,-5.76562 l -1.00062,-1.05187 1.27816,-1.57672 c 1.65851,-2.04588 3.21976,-5.30482 3.72025,-7.7656 0.39146,-1.92471 0.38861,-1.96318 -0.18079,-2.4386 -0.31819,-0.26567 -0.65665,-0.48699 -0.75213,-0.49183 -0.0955,-0.005 -0.25852,0.61627 -0.3623,1.38026 -0.26119,1.92278 -1.05106,4.38893 -1.89645,5.92115 -1.18515,2.14801 -4.10001,4.79305 -7.48952,6.79622 -3.54295,2.09386 -12.94112,6.79565 -13.58347,6.79565 -0.36028,0 -0.43944,-0.2835 -0.43944,-1.57374 v -1.57374 l -0.79375,0.27671 -0.79375,0.2767 v 5.61856 c 0,3.09021 0.0794,5.69794 0.17639,5.79495 0.097,0.097 0.45084,0.17639 0.78628,0.17639 0.60321,0 0.6107,-0.0393 0.68351,-3.58912 z m 11.05382,2.82526 c 1.38244,-0.28194 2.83138,-0.63553 3.21985,-0.78577 l 0.70631,-0.27316 -0.38983,-1.536 c -0.55076,-2.17012 -1.55429,-4.74393 -2.47443,-6.34635 l -0.78712,-1.37076 -5.02903,2.4291 -5.02903,2.42909 -0.003,3.14812 -0.003,3.14812 3.63802,-0.16489 c 2.00092,-0.0907 4.76912,-0.39556 6.15157,-0.6775 z m -13.75834,-5.34986 c 0,-5.46232 -0.0306,-5.83732 -0.46302,-5.67039 -2.61556,1.00974 -6.37221,2.20375 -9.19427,2.92231 l -3.43959,0.8758 -0.0774,2.01852 -0.0774,2.01853 2.06183,0.93983 c 2.83828,1.29375 7.90949,2.62582 10.33006,2.71342 l 0.85989,0.0311 z m 25.31437,3.95447 c 5.49722,-3.24696 8.42069,-8.12343 7.53277,-12.56497 -0.44111,-2.2065 -1.4056,-4.01356 -3.16067,-5.92178 l -1.52673,-1.65995 -0.46578,0.71087 -0.46578,0.71087 1.21618,1.21618 c 0.6689,0.6689 1.58959,1.9448 2.04597,2.83533 0.70489,1.37544 0.83228,1.91859 0.8463,3.6084 0.0143,1.72647 -0.0958,2.21579 -0.83382,3.70417 -1.27533,2.57208 -3.28714,4.53528 -6.49187,6.33502 -0.83674,0.46991 -1.52135,1.01186 -1.52135,1.20435 0,0.40334 0.27535,1.18701 0.41706,1.18701 0.0527,0 1.1362,-0.61448 2.40772,-1.3655 z m -43.90082,-4.28967 c -7.31277,-7.49014 -1.11472,-16.62473 13.55937,-19.98358 1.23693,-0.28313 2.87404,-0.59453 3.63802,-0.69201 1.31639,-0.16796 1.38906,-0.21746 1.38906,-0.94615 0,-0.90516 0.0591,-0.89884 -3.19452,-0.34236 -9.29993,1.59062 -16.42505,5.75032 -19.07708,11.13736 -0.79919,1.6234 -0.87944,2.00421 -0.87944,4.17322 0,3.28627 0.86855,5.13815 3.75544,8.00715 l 2.06539,2.05258 0.0812,-0.9766 c 0.0724,-0.87049 -0.0729,-1.13446 -1.33742,-2.42961 z m 43.52343,1.23634 c 0.98227,-0.64793 1.78594,-1.2324 1.78594,-1.29883 0,-0.71276 -3.19673,-5.76718 -4.83036,-7.63737 l -0.91884,-1.0519 -1.68946,1.02851 c -0.92921,0.56567 -1.72284,1.05256 -1.76363,1.08197 -0.0408,0.0294 0.45817,1.07117 1.10881,2.31503 0.65064,1.24386 1.49539,3.31392 1.87721,4.60014 0.38183,1.28621 0.74392,2.49156 0.80466,2.67855 0.13596,0.41857 1.03368,-0.006 3.62567,-1.7161 z m -42.1349,-7.9362 v -6.26961 l -0.89267,0.86522 c -2.9034,2.81409 -3.0538,7.44007 -0.34204,10.52079 0.55831,0.63427 1.06451,1.15321 1.12491,1.15321 0.0604,0 0.1098,-2.82132 0.1098,-6.26961 z m 47.30236,0.40197 c 0.11644,-1.62747 0.0479,-1.97299 -0.68629,-3.46028 -0.4486,-0.90876 -1.39162,-2.21798 -2.09559,-2.90938 l -1.27994,-1.25711 -0.99628,1.33448 -0.99628,1.33448 1.35009,1.61576 c 0.74256,0.88867 1.96113,2.61567 2.70795,3.83779 1.56424,2.5598 1.78158,2.50583 1.99634,-0.49574 z m -22.10079,0.22843 c 2.00091,-0.95418 3.63268,-1.83188 3.62616,-1.95044 -0.007,-0.11855 -0.52148,-0.78395 -1.14436,-1.47865 l -1.13251,-1.26311 -2.01135,1.32614 c -1.10624,0.72937 -2.31768,1.4657 -2.69209,1.6363 -0.62803,0.28614 -0.68075,0.44127 -0.68075,2.0031 0,0.93112 0.0893,1.64087 0.19844,1.57724 0.10914,-0.0636 1.83555,-0.89639 3.83646,-1.85058 z m -16.47031,-0.73668 c 1.52797,-0.4325 4.05804,-1.275 5.62239,-1.87222 l 2.84427,-1.08586 v -4.89571 -4.8957 l -1.62805,0.17017 c -3.16739,0.33105 -9.94184,2.3851 -11.27039,3.41723 -0.24395,0.18953 -0.33073,1.57519 -0.33073,5.28108 v 5.02413 l 0.99219,-0.17838 c 0.54571,-0.0981 2.24235,-0.53224 3.77032,-0.96474 z m 25.35595,-4.07031 c 3.151,-1.84675 6.02042,-4.58534 5.4266,-5.17916 -0.33532,-0.33532 -4.4978,-2.00646 -5.51485,-2.21408 -0.73526,-0.1501 -0.84784,-0.0653 -1.52801,1.15048 -0.40384,0.72189 -1.20433,1.82542 -1.77886,2.4523 -0.57453,0.62689 -1.04779,1.21735 -1.05168,1.31215 -0.007,0.17056 2.65111,3.39951 2.79852,3.39951 0.0421,0 0.78379,-0.41454 1.64828,-0.9212 z m 25.1664,0.54007 c 0.41339,-0.4981 -0.1264,-2.64786 -1.58608,-6.31682 -1.78313,-4.48193 -3.22449,-7.19267 -3.8245,-7.19267 -0.87972,0 -0.74076,0.71544 0.75886,3.90699 0.79329,1.68831 1.30419,3.00482 1.13534,2.92558 -0.16886,-0.0792 -1.14922,-1.1132 -2.17858,-2.2977 -3.84672,-4.42646 -8.63826,-8.09904 -14.22345,-10.901895 -3.08589,-1.548606 -3.61867,-1.692431 -3.61239,-0.975165 0.007,0.773162 0.28799,0.989222 3.17095,2.43613 7.7967,3.91305 14.31424,10.06213 19.15177,18.06908 0.49663,0.82202 0.75251,0.8954 1.20808,0.34647 z m -39.92163,-0.68651 c 0.49142,-0.26299 0.51178,-0.65249 0.51178,-9.78958 v -9.515695 h -0.79375 -0.79375 v 9.789585 c 0,6.75259 0.0875,9.78958 0.28197,9.78958 0.15509,0 0.51228,-0.12325 0.79375,-0.27389 z m 3.76744,-2.15641 c 2.77575,-1.87529 6.43223,-5.69708 5.93058,-6.19873 -0.074,-0.074 -1.8735,-0.20498 -3.99893,-0.2911 l -3.8644,-0.15658 v 3.8769 c 0,2.13229 0.0661,3.8769 0.14681,3.8769 0.0807,0 0.88442,-0.49833 1.78594,-1.10739 z m 17.66037,-4.61785 c 0.14599,-0.38398 0.21845,-0.74514 0.16103,-0.80256 -0.37013,-0.37013 -4.97807,-2.0216 -7.18644,-2.57559 -3.35264,-0.84104 -5.36513,-1.1515 -8.92969,-1.37753 l -2.84427,-0.18035 v 0.79294 0.79294 l 2.84427,0.17326 c 5.06308,0.30842 10.43075,1.51299 13.69219,3.0727 1.98091,0.94733 1.94301,0.94558 2.26291,0.10419 z M 123.01977,91.33487 c 0,-9.569507 -0.17792,-8.694456 2.14088,-10.52973 1.63555,-1.294496 5.27539,-2.967285 7.96268,-3.659469 2.69458,-0.69406 7.94568,-0.816636 10.40819,-0.242958 1.00548,0.23424 1.9824,0.29793 2.64584,0.172495 l 1.05178,-0.198862 -1.20447,-0.614008 c -1.44696,-0.73762 -4.72493,-1.451364 -6.65572,-1.449213 -2.04922,0.0023 -6.43351,0.711429 -8.41168,1.360565 -3.35593,1.101247 -6.66099,3.089072 -9.26908,5.574893 -1.36819,1.304043 -4.24453,4.648088 -5.22555,6.075237 -1.01732,1.479956 -1.08617,2.068995 -0.24183,2.068995 0.43977,0 0.91108,-0.423428 1.69341,-1.521354 1.52971,-2.146801 3.42787,-4.301458 3.62008,-4.109249 0.0894,0.0894 0.16255,3.771558 0.16255,8.182568 v 8.02003 l 0.66146,-0.30138 0.66146,-0.30139 z m 39.21404,7.26942 c 0.11087,-0.49845 0.233,-1.72121 0.27138,-2.71725 0.066,-1.71142 0.0284,-1.84401 -0.68333,-2.41154 -0.75403,-0.60127 -4.57881,-2.56835 -5.62232,-2.89156 -0.53263,-0.16497 -0.5614,-0.0589 -0.72608,2.6774 -0.0943,1.56705 -0.23857,3.09029 -0.32058,3.38498 -0.13111,0.4711 0.1163,0.62342 2.04899,1.26143 1.20896,0.3991 2.67436,0.95147 3.25644,1.22749 1.34073,0.63577 1.52845,0.57964 1.7755,-0.53095 z m -28.23383,-2.23977 c 1.60073,-0.2512 3.05924,-0.49667 3.24114,-0.54549 0.24392,-0.0655 0.33073,-1.02854 0.33073,-3.66895 v -3.580181 h -0.80901 c -2.11724,0 -7.82504,1.514414 -11.03109,2.926801 l -1.38907,0.61194 v 3.46241 3.46241 l 3.37344,-1.10611 c 1.85539,-0.60836 4.68313,-1.31163 6.28386,-1.56283 z m 20.0708,-0.58472 c 0.54851,-3.31844 -0.0312,-8.904505 -1.24246,-11.972401 -0.48438,-1.226863 -0.71966,-1.502698 -1.49936,-1.757848 -0.50865,-0.166452 -0.95563,-0.27454 -0.9933,-0.240195 -0.0377,0.03435 0.29202,0.857526 0.73264,1.829292 1.22916,2.710861 1.63442,4.877194 1.6271,8.697832 -0.004,1.85334 -0.0811,3.49044 -0.17228,3.63802 -0.26053,0.42155 0.10359,0.79748 0.77244,0.79748 0.50076,0 0.64086,-0.17931 0.77522,-0.99218 z m -2.64426,-0.76454 c 0.28509,-2.08001 0.19475,-5.252284 -0.16248,-5.705245 -0.41774,-0.529683 -2.92289,-0.969088 -6.74687,-1.183407 l -2.97657,-0.166824 v 3.825246 3.82525 l 2.57969,0.0736 c 1.41883,0.0405 3.29406,0.16721 4.16719,0.28158 3.05194,0.39979 2.94976,0.43072 3.13904,-0.95022 z m -16.89738,-7.418151 c 3.18987,-0.578084 13.57707,-0.679969 15.33096,-0.150377 0.5739,0.17329 1.09232,0.266211 1.15204,0.20649 0.0597,-0.05972 -0.003,-0.443447 -0.13875,-0.852724 -0.22667,-0.681986 -0.4113,-0.770378 -2.21037,-1.058265 -5.98822,-0.95823 -16.12698,0.142082 -21.80679,2.366588 -1.41403,0.553805 -1.59627,0.710184 -1.6677,1.431054 l -0.0802,0.809307 3.38749,-1.136291 c 1.86311,-0.62496 4.57811,-1.352062 6.03331,-1.615782 z m 29.41448,1.034439 c -1.93479,-4.761543 -6.42916,-8.739695 -11.32342,-10.022815 -2.34257,-0.614148 -6.13969,-0.553232 -8.83064,0.141667 -2.24944,0.580888 -7.15241,2.925369 -8.26731,3.953234 -0.6227,0.574079 -0.63828,0.645946 -0.22879,1.055432 0.40949,0.409487 0.52719,0.39006 1.72862,-0.285297 0.70907,-0.398587 1.36097,-0.724704 1.44866,-0.724704 0.0877,0 0.15945,0.365096 0.15945,0.811325 0,0.728988 0.0738,0.802828 0.7276,0.727604 0.66781,-0.07684 0.73429,-0.188302 0.8089,-1.356386 0.0786,-1.231144 0.12005,-1.289283 1.2695,-1.781994 3.48024,-1.491805 8.23246,-1.87641 11.44948,-0.926626 3.42207,1.010324 6.94289,3.946728 8.8752,7.402036 0.53727,0.960721 1.30877,1.916096 1.7969,2.225158 0.47047,0.297879 0.89471,0.502289 0.94275,0.454245 0.048,-0.04805 -0.20256,-0.80084 -0.5569,-1.672879 z m -3.92442,-1.57825 c -1.26392,-1.837041 -3.16666,-3.578382 -4.94678,-4.527177 -0.86204,-0.459464 -1.64303,-0.835389 -1.73554,-0.835389 -0.0925,0 -0.003,0.327422 0.19963,0.727604 0.2023,0.400183 0.56454,1.329884 0.80498,2.066004 l 0.43715,1.338399 2.66348,1.0377 c 1.46491,0.570734 2.7201,1.129314 2.78931,1.241288 0.0692,0.111974 0.24358,0.203588 0.3875,0.203588 0.14392,0 -0.12596,-0.563407 -0.59973,-1.252017 z m -33.16297,-0.204731 c 1.39996,-0.519244 4.68647,-1.408775 6.81885,-1.845597 0.62601,-0.12824 0.69382,-0.224249 0.46302,-0.655514 -0.49232,-0.919896 -0.30688,-1.785251 0.53422,-2.492989 1.05728,-0.889641 4.88856,-2.969979 6.51129,-3.535549 l 1.28303,-0.447176 -1.4552,-0.192347 c -1.7157,-0.226778 -5.74883,0.138081 -8.03757,0.727123 -2.25639,0.580715 -5.59199,2.198778 -7.24212,3.513074 l -1.38907,1.106362 v 2.403405 c 0,2.187881 0.0415,2.385676 0.46302,2.205707 0.25467,-0.108734 1.1774,-0.462659 2.05053,-0.786499 z m 22.64021,-3.629132 c -1.58573,-2.60843 -1.33064,-2.46011 -3.61906,-2.104338 -1.10953,0.172495 -2.5392,0.544478 -3.17705,0.826629 -0.98902,0.43749 -1.15973,0.627022 -1.15973,1.287633 v 0.774631 l 3.10886,0.195634 c 1.70987,0.107599 3.64463,0.278216 4.29948,0.37915 0.65484,0.100934 1.23692,0.150567 1.29352,0.110294 0.0566,-0.04027 -0.27912,-0.701608 -0.74602,-1.469633 z m -71.7429,52.644735 c -0.0124,-0.0364 -0.0358,-0.89958 -0.0521,-1.91823 l -0.0297,-1.85208 1.63962,-0.0788 c 1.33745,-0.0643 1.63962,-0.003 1.63962,0.33073 0,0.31501 -0.30525,0.4095 -1.32291,0.4095 -0.99954,0 -1.32292,0.097 -1.32292,0.39687 0,0.25036 0.25233,0.39688 0.68351,0.39688 0.42797,0 0.64243,0.12322 0.57364,0.3296 -0.0604,0.18129 -0.3363,0.33012 -0.61304,0.33073 -0.27674,6.2e-4 -0.54361,0.20949 -0.59304,0.46415 -0.0761,0.39194 0.1162,0.46302 1.25245,0.46302 1.01678,0 1.34231,0.0962 1.34231,0.39687 0,0.30868 -0.35277,0.39688 -1.5875,0.39688 -0.87312,0 -1.59761,-0.0298 -1.60997,-0.0661 z m 3.72664,-0.0638 c 0,-0.55485 1.73733,-3.83878 2.03087,-3.83878 0.32757,0 1.93788,3.09852 1.93788,3.72883 0,0.49247 -0.55118,0.21649 -0.84189,-0.42154 -0.21924,-0.48119 -0.50767,-0.66146 -1.05833,-0.66146 -0.55066,0 -0.83909,0.18027 -1.05834,0.66146 -0.25277,0.55478 -1.01019,0.95328 -1.01019,0.53149 z m 2.19543,-2.42766 c -0.12398,-0.32308 -0.19412,-0.33134 -0.37611,-0.0442 -0.33442,0.52755 -0.278,0.7509 0.14835,0.58729 0.20909,-0.0802 0.31159,-0.32461 0.22776,-0.54305 z m 2.76551,2.27185 c -0.25466,-0.14833 -0.46302,-0.43629 -0.46302,-0.63991 0,-0.31378 0.13111,-0.31636 0.8599,-0.0169 0.55337,0.22737 1.0721,0.27275 1.4552,0.12732 1.11295,-0.42251 0.53147,-1.03681 -0.98143,-1.03681 -1.02917,0 -1.49902,-0.61726 -1.11366,-1.46304 0.24958,-0.54777 0.48083,-0.65297 1.42796,-0.64957 1.35477,0.005 2.06529,0.35727 1.61937,0.80319 -0.22376,0.22376 -0.44451,0.22284 -0.86768,-0.004 -0.65034,-0.34805 -1.68478,-0.11652 -1.53388,0.34333 0.0556,0.16955 0.5667,0.34691 1.13569,0.39414 1.17699,0.0977 1.7027,0.43612 1.7027,1.09615 0,1.09283 -2.03373,1.74901 -3.24115,1.04575 z m 5.07559,0.15349 c -0.01,-0.0728 -0.0245,-0.75737 -0.0328,-1.52136 -0.014,-1.28373 -0.0679,-1.39929 -0.70996,-1.52395 -1.26027,-0.24468 -0.72365,-0.65749 0.95887,-0.73763 1.35011,-0.0643 1.65364,-0.004 1.65364,0.33073 0,0.26041 -0.24082,0.4095 -0.66145,0.4095 -0.63206,0 -0.66146,0.0706 -0.66146,1.5875 0,0.88194 -0.1176,1.5875 -0.26459,1.5875 -0.14552,0 -0.27252,-0.0595 -0.28222,-0.13229 z m 100.07626,-0.4801 c -1.27206,-1.35405 -0.35782,-3.35638 1.53249,-3.35638 0.79631,0 1.15275,0.15755 1.57719,0.69714 1.11911,1.42271 0.24802,3.27161 -1.54138,3.27161 -0.69588,0 -1.16515,-0.18323 -1.5683,-0.61237 z m 2.53357,-0.51944 c 0.55923,-0.43271 0.38229,-1.46804 -0.33073,-1.93523 -0.61274,-0.40148 -0.71017,-0.40148 -1.32292,0 -0.82005,0.53732 -0.86993,1.56809 -0.10191,2.10603 0.55107,0.38599 1.10572,0.33203 1.75556,-0.1708 z m 1.91823,-0.83052 v -2.00642 h 1.30128 c 0.7157,0 1.48961,0.0723 1.71979,0.1606 0.49077,0.18832 0.5623,1.44186 0.10819,1.89597 -0.23737,0.23738 -0.23737,0.47043 0,0.99141 0.39743,0.87226 0.39215,0.92077 -0.10032,0.92077 -0.22585,0 -0.53515,-0.35719 -0.68734,-0.79375 -0.22283,-0.63922 -0.42815,-0.79375 -1.05458,-0.79375 -0.68393,0 -0.76868,0.0845 -0.70172,0.69985 0.0419,0.38492 -0.0727,0.75203 -0.25457,0.8158 -0.2457,0.0861 -0.33073,-0.39989 -0.33073,-1.89048 z m 2.77812,-0.8158 c 0,-0.14552 -0.50601,-0.30119 -1.12447,-0.34594 -0.89232,-0.0646 -1.12448,0.007 -1.12448,0.34594 0,0.33908 0.23216,0.41051 1.12448,0.34594 0.61846,-0.0447 1.12447,-0.20042 1.12447,-0.34594 z m 1.7198,0.79375 v -1.98437 h 1.5875 c 1.23472,0 1.5875,0.0882 1.5875,0.39687 0,0.29398 -0.30868,0.39688 -1.19063,0.39688 -0.88194,0 -1.19062,0.10289 -1.19062,0.39687 0,0.21828 0.23109,0.39688 0.51355,0.39688 0.28245,0 0.58713,0.11906 0.67707,0.26458 0.15899,0.25725 -0.18713,0.3717 -0.85989,0.28433 -0.18191,-0.0236 -0.33073,0.19388 -0.33073,0.48333 0,0.43869 0.20568,0.53968 1.23609,0.60691 0.69084,0.0451 1.28411,0.22652 1.34496,0.41137 0.0797,0.24212 -0.35781,0.33073 -1.63296,0.33073 h -1.74184 z M 74.90217,129.68199 c -0.42324,-0.29646 -0.52583,-0.512 -0.33466,-0.70316 0.19116,-0.19117 0.39546,-0.17625 0.66647,0.0487 0.54001,0.44817 2.14516,0.26789 2.14516,-0.24093 0,-0.27207 -0.33177,-0.42388 -1.05498,-0.48274 -1.26139,-0.10266 -1.72314,-0.43423 -1.72314,-1.23735 0,-0.78974 1.26183,-1.34298 2.28512,-1.00189 1.13582,0.37861 1.14619,0.94196 0.0134,0.72945 -0.51261,-0.0962 -1.15019,-0.0524 -1.41685,0.0973 -0.54474,0.30577 -0.48679,0.33711 1.36725,0.7395 0.94378,0.20482 1.06731,0.32278 1.14126,1.08975 0.0696,0.72178 -0.0289,0.90258 -0.61254,1.12448 -0.99604,0.37869 -1.77639,0.32731 -2.47652,-0.16308 z m 4.41398,-0.37291 c -0.94377,-0.94378 -0.87696,-1.87142 0.20437,-2.83762 0.83029,-0.74188 1.6823,-0.75735 2.58544,-0.0469 0.98484,0.77468 0.98484,2.36192 0,3.13659 -0.97545,0.7673 -1.84944,0.68834 -2.78981,-0.25203 z m 2.47393,-0.43123 c 0.60039,-0.54334 0.6151,-1.09521 0.046,-1.72409 -0.53739,-0.59381 -1.4992,-0.62565 -2.05676,-0.0681 -1.2734,1.2734 0.67003,3.00555 2.01079,1.79218 z m 2.48067,0.87658 c -0.37309,-0.27281 -0.49206,-0.73072 -0.51359,-1.97669 -0.0357,-2.06545 0.45676,-2.15927 0.63344,-0.12068 l 0.13229,1.52638 h 0.92604 0.92604 l 0.1323,-1.52638 c 0.16751,-1.93282 0.63637,-1.98157 0.74042,-0.077 0.064,1.17106 -0.0239,1.54831 -0.46302,1.98742 -0.61995,0.61995 -1.80157,0.70781 -2.51392,0.18693 z m 5.31613,0.17147 c -0.0931,-0.0931 -0.1692,-0.86372 -0.1692,-1.7126 0,-1.4699 -0.0315,-1.5434 -0.66146,-1.5434 -0.3638,0 -0.66145,-0.11906 -0.66145,-0.26458 0,-0.14925 0.74965,-0.26459 1.71979,-0.26459 0.97014,0 1.71979,0.11534 1.71979,0.26459 0,0.14552 -0.29766,0.26458 -0.66146,0.26458 -0.63133,0 -0.66146,0.0716 -0.66146,1.57189 0,1.46812 -0.22739,2.08128 -0.62455,1.68411 z m 2.85159,-0.17501 c -0.26539,-0.69161 0.0129,-3.69745 0.35265,-3.80964 0.21668,-0.0715 0.33073,0.17212 0.33073,0.7066 0,0.77538 0.0524,0.8158 1.05833,0.8158 1.0059,0 1.05834,-0.0404 1.05834,-0.8158 0,-0.53504 0.11381,-0.77786 0.33073,-0.70555 0.22449,0.0748 0.33072,0.73348 0.33072,2.05052 0,1.31703 -0.10623,1.97569 -0.33072,2.05052 -0.22357,0.0745 -0.33073,-0.19697 -0.33073,-0.83785 0,-0.92972 -0.0205,-0.94809 -1.05834,-0.94809 -1.03313,0 -1.05833,0.0221 -1.05833,0.92604 0,0.91544 -0.41698,1.26168 -0.68338,0.56745 z m 93.73692,0.16016 c -0.19198,-0.34311 -0.0623,-3.63476 0.14594,-3.70417 0.10914,-0.0364 0.78956,-0.0661 1.51205,-0.0661 1.04282,0 1.37198,0.10909 1.59681,0.52917 0.50388,0.94151 -0.0921,1.5875 -1.46452,1.5875 -1.17369,0 -1.18132,0.006 -1.18132,0.92604 0,0.83874 -0.3277,1.23029 -0.60896,0.72761 z m 2.59334,-2.71198 c 0,-0.26763 -0.32313,-0.42362 -0.99219,-0.479 -0.86044,-0.0712 -0.99219,-0.008 -0.99219,0.479 0,0.4866 0.13175,0.5502 0.99219,0.47899 0.66906,-0.0554 0.99219,-0.21137 0.99219,-0.47899 z m 2.15235,2.36204 c -1.39283,-1.0956 -0.48246,-3.68496 1.29556,-3.68496 0.76349,0 2.24063,1.28658 2.24063,1.95157 0,0.7511 -0.58345,1.69239 -1.23225,1.988 -0.93843,0.42758 -1.51812,0.36352 -2.30394,-0.25461 z m 2.32667,-0.66115 c 0.85555,-0.85556 0.207,-2.23006 -1.05224,-2.23006 -0.38693,0 -0.80638,0.25933 -1.06986,0.66146 -0.40149,0.61274 -0.40149,0.71017 0,1.32292 0.49832,0.76053 1.49218,0.8756 2.1221,0.24568 z m 2.00323,-0.841 -4e-5,-2.05052 1.65369,0.13229 c 1.6416,0.13133 1.65429,0.13859 1.73673,0.99401 0.0567,0.58833 -0.0461,0.91129 -0.32419,1.01798 -0.35897,0.13775 -0.36222,0.2433 -0.0275,0.89068 0.35922,0.69465 0.30419,1.06608 -0.15794,1.06608 -0.11333,0 -0.36226,-0.32742 -0.55317,-0.7276 -0.23161,-0.48548 -0.5886,-0.75546 -1.07277,-0.81132 -0.65159,-0.0752 -0.72565,-9.1e-4 -0.72565,0.7276 0,0.44623 -0.11907,0.81132 -0.26459,0.81132 -0.15362,0 -0.2646,-0.85992 -0.26462,-2.05052 z m 2.73163,-0.70173 c 0.20699,-0.53941 -0.0487,-0.68733 -1.18819,-0.68733 -0.83784,0 -1.01423,0.092 -1.01423,0.52917 0,0.43855 0.17639,0.52916 1.03002,0.52916 0.63959,0 1.08399,-0.14063 1.1724,-0.371 z m 2.72927,2.56867 c -0.0931,-0.0931 -0.16919,-0.86372 -0.16919,-1.7126 0,-1.48318 -0.0267,-1.5434 -0.68351,-1.5434 -0.3918,0 -0.64084,-0.12801 -0.58353,-0.29994 0.13864,-0.4159 3.18406,-0.43128 3.32223,-0.0168 0.0638,0.19142 -0.16484,0.31672 -0.57794,0.31672 -0.65825,0 -0.6835,0.0581 -0.6835,1.57189 0,1.46812 -0.22739,2.08128 -0.62456,1.68411 z m 4.6477,-1.82403 0.0779,-2.0772 1.32291,0.0714 c 1.51276,0.0817 2.24896,0.70259 2.24896,1.8967 0,1.22527 -0.77281,1.90232 -2.34368,2.05326 l -1.38399,0.13299 z m 2.53852,0.89636 c 0.17463,-0.17462 0.3175,-0.64668 0.3175,-1.04902 0,-0.77878 -0.6143,-1.27931 -1.5701,-1.27931 -0.47949,0 -0.54656,0.16236 -0.54656,1.32292 0,1.27252 0.0282,1.32291 0.74083,1.32291 0.40746,0 0.88371,-0.14287 1.05833,-0.3175 z m -4.36969,-2.34791 c -0.0378,-0.53832 0.0514,-0.77602 0.26458,-0.70497 0.38598,0.12866 0.43287,1.30506 0.057,1.42952 -0.14552,0.0482 -0.29023,-0.27786 -0.32157,-0.72455 z m -12.98405,-9.43927 0.0764,-2.31511 3.40359,-1.1171 c 1.87197,-0.61441 3.57463,-1.25906 3.78369,-1.43256 0.20905,-0.1735 0.34432,-0.62331 0.30058,-0.99957 l -0.0795,-0.6841 -3.72964,0.0988 -3.72965,0.0988 -0.15648,-2.069 c -0.0861,-1.13795 -0.0973,-2.16469 -0.0251,-2.28166 0.0723,-0.11696 2.17823,-0.21479 4.67988,-0.21741 2.50164,-0.003 6.92148,-0.11997 9.82185,-0.2608 2.90037,-0.14082 5.34115,-0.18828 5.42396,-0.10547 0.0828,0.0828 0.14473,1.9062 0.13762,4.05196 -0.0122,3.67805 -0.0534,3.98411 -0.71996,5.34648 -0.38886,0.7948 -1.03788,1.68935 -1.44227,1.98789 -2.32375,1.71551 -6.35209,1.41966 -8.38776,-0.61601 l -0.66363,-0.66363 -3.25027,1.09585 c -3.37153,1.13673 -4.97005,1.84215 -4.97005,2.19323 0,0.11243 -0.1237,0.20442 -0.27489,0.20442 -0.175,0 -0.2471,-0.8412 -0.19844,-2.3151 z m 15.78978,-3.87133 c 0.46394,-0.49385 0.5741,-0.88024 0.50914,-1.78594 -0.072,-1.00443 -0.16083,-1.15328 -0.6782,-1.13686 -0.32742,0.0104 -1.48828,0.0402 -2.57969,0.0662 l -1.98437,0.0472 0.008,0.85989 c 0.005,0.47295 0.15346,1.04396 0.33073,1.26892 1.12723,1.43044 3.36404,1.77691 4.39398,0.68059 z m -133.07896,4.12555 c -0.12121,-0.99487 0.11454,-7.05926 0.30861,-7.93828 0.53526,-2.42452 2.29386,-4.14432 4.55468,-4.4542 1.73767,-0.23817 2.97494,0.0747 4.05898,1.02654 l 0.95053,0.83458 0.54488,-0.748 c 1.55354,-2.13267 5.77533,-1.98921 7.85496,0.26693 1.59984,1.73561 1.95366,3.31494 1.72002,7.67735 l -0.19022,3.55148 -9.88976,-0.0142 c -5.43937,-0.008 -9.90007,-0.0988 -9.91268,-0.20224 z m 16.42709,-5.46499 c 0,-2.15613 -0.90695,-2.99639 -3.05897,-2.83403 -0.85487,0.0645 -1.63582,0.974 -1.83166,2.13318 -0.33632,1.99064 -0.1585,2.1413 2.52721,2.1413 h 2.36342 z m -8.07258,0.91579 c 0.30728,-0.49719 -0.18937,-2.10887 -0.85496,-2.77446 -1.51154,-1.51155 -4.03705,-0.288 -4.03705,1.95585 v 1.07869 h 2.36564 c 1.3011,0 2.43797,-0.11704 2.52637,-0.26008 z M 189.83255,103.585 c -0.0606,-0.1819 -0.66042,-2.05713 -1.33292,-4.16718 -0.6725,-2.11005 -1.33355,-4.18165 -1.469,-4.60355 -0.13545,-0.42189 -0.24628,-0.92164 -0.24628,-1.11054 0,-0.21082 1.50706,-0.81511 3.90261,-1.56482 2.14643,-0.67176 6.39203,-2.048213 9.43467,-3.058787 3.04264,-1.010574 5.56432,-1.805156 5.60374,-1.765739 0.14299,0.14299 3.31152,10.311566 3.23271,10.374546 -0.23692,0.18932 -2.75678,0.93514 -3.1595,0.93514 -0.36655,0 -0.65434,-0.59991 -1.30099,-2.71198 -0.45668,-1.49159 -0.91441,-2.80145 -1.01717,-2.91081 -0.14207,-0.15117 -3.29256,0.69881 -3.66886,0.98984 -0.0383,0.0296 0.24066,0.97783 0.61995,2.10711 0.39432,1.17404 0.59043,2.15241 0.45799,2.28486 -0.31285,0.31284 -2.76961,1.04028 -3.01051,0.89139 -0.10566,-0.0653 -0.51801,-1.01226 -0.91632,-2.10436 -0.39831,-1.0921 -0.75524,-1.98564 -0.79318,-1.98564 -0.31676,0 -3.74705,1.1557 -3.92147,1.32119 -0.12368,0.11734 0.20374,1.52655 0.72761,3.13158 0.52386,1.60503 0.95247,2.98138 0.95247,3.05856 0,0.14389 -3.29917,1.21992 -3.74034,1.21992 -0.13476,0 -0.2946,-0.14882 -0.35521,-0.33073 z m -98.8937,-2.11794 c -1.41893,-0.9088 -4.27643,-2.70466 -6.35,-3.99079 -2.07357,-1.28613 -4.73192,-2.95488 -5.90745,-3.70834 l -2.13732,-1.36992 0.77031,-2.310931 c 0.71181,-2.135434 0.82389,-2.310833 1.47586,-2.309649 0.64432,0.0012 14.17812,1.380955 16.97743,1.730866 2.72371,0.34046 2.69997,0.30658 1.83488,2.618724 l -0.54637,1.46031 -1.92583,-0.1628 -1.92584,-0.16279 -0.67626,2.02786 -0.67627,2.02786 1.58043,1.07325 c 1.05306,0.71512 1.5313,1.20125 1.43321,1.45686 -0.081,0.21099 -0.33629,1.03405 -0.56739,1.82902 -0.2311,0.79497 -0.50104,1.44482 -0.59985,1.44411 -0.0988,-7e-4 -1.34061,-0.74484 -2.75954,-1.65364 z M 89.3889,94.85375 c 0.62914,-1.68175 0.62384,-1.7155 -0.29394,-1.8725 -0.47735,-0.0816 -1.8204,-0.22498 -2.98457,-0.31851 l -2.11667,-0.17006 2.38125,1.47658 c 1.30969,0.81212 2.4735,1.47731 2.58624,1.47819 0.11274,8.9e-4 0.3052,-0.26627 0.42769,-0.5937 z m 93.69129,-7.515225 c -1.38245,-2.131342 -2.73005,-4.208867 -2.99466,-4.616724 l -0.48111,-0.741557 6.96341,-4.607215 c 3.82987,-2.533968 7.54386,-5.050488 8.25331,-5.592266 1.07105,-0.817909 1.34783,-0.924937 1.63123,-0.63077 0.53865,0.55912 5.67782,8.407815 5.67782,8.671344 0,0.271451 -2.46715,2.137184 -2.81358,2.127716 -0.12602,-0.0034 -0.97384,-1.134538 -1.88405,-2.513541 -0.9102,-1.379004 -1.74364,-2.506901 -1.85208,-2.506438 -0.10844,4.63e-4 -0.87816,0.453617 -1.71048,1.007008 l -1.5133,1.006166 1.18258,1.762809 c 0.65041,0.969546 1.18257,1.888233 1.18257,2.041528 0,0.266164 -2.28556,1.854564 -2.66855,1.854564 -0.10103,0 -0.7028,-0.770135 -1.33726,-1.711412 -0.63446,-0.941276 -1.26432,-1.715183 -1.3997,-1.719792 -0.36303,-0.01236 -3.59032,2.133712 -3.59032,2.387475 0,0.119368 0.77391,1.358488 1.71979,2.753599 0.94589,1.395111 1.71979,2.58949 1.71979,2.654176 0,0.129213 -2.82844,1.973485 -3.28642,2.142905 -0.157,0.0581 -1.41655,-1.638234 -2.79899,-3.769575 z M 95.37081,83.784601 c -2.61938,-2.005383 -6.15845,-4.636341 -7.86461,-5.846572 -2.03779,-1.445471 -3.07219,-2.341471 -3.01491,-2.611532 0.0927,-0.43725 5.8224,-8.056296 6.26348,-8.328895 0.32116,-0.198488 2.89741,1.655254 2.89321,2.08181 -0.002,0.169507 -0.77557,1.306595 -1.71979,2.526862 -0.94422,1.220267 -1.71676,2.307291 -1.71676,2.415608 0,0.177481 2.75782,2.377183 2.98033,2.377183 0.0509,0 0.66086,-0.773906 1.35537,-1.719791 0.69452,-0.945886 1.40209,-1.71947 1.57239,-1.719076 0.17029,3.93e-4 0.83417,0.45305 1.47528,1.005904 l 1.16567,1.005189 -1.23181,1.692867 c -0.6775,0.931078 -1.22834,1.817874 -1.2241,1.970659 0.009,0.318759 2.9655,2.526748 3.38349,2.526748 0.15231,0 0.54485,-0.386953 0.87231,-0.859895 0.32746,-0.472943 1.17918,-1.603942 1.89271,-2.513331 l 1.29734,-1.653435 1.56489,1.229444 c 0.86068,0.676195 1.56488,1.292041 1.56488,1.368547 0,0.194416 -6.098,8.199192 -6.45527,8.473758 -0.18417,0.141535 -2.04625,-1.119254 -5.0541,-3.422052 z m 80.77501,-6.059552 c -0.39417,-0.118818 -1.10854,-0.491556 -1.5875,-0.828306 -1.08048,-0.759664 -5.34254,-4.447914 -5.44093,-4.708408 -0.0397,-0.10509 0.49608,-0.851553 1.19062,-1.658806 0.69454,-0.807253 2.17693,-2.585051 3.29421,-3.950661 4.14011,-5.060336 7.68729,-9.368888 7.89907,-9.594537 0.25268,-0.269231 4.52155,3.27194 5.93514,4.923402 1.27649,1.491296 1.86206,3.490248 1.45991,4.983718 -0.61215,2.273342 -2.62552,4.215948 -4.36953,4.215948 h -0.8287 l 0.11709,1.41193 c 0.079,0.952937 -0.0152,1.667759 -0.28987,2.198896 -0.5609,1.084667 -1.99476,2.464653 -3.01633,2.903007 -0.92272,0.395937 -3.21331,0.450439 -4.36318,0.103817 z m 2.77121,-4.234807 c 1.48995,-1.172003 1.35121,-2.907964 -0.34659,-4.336574 l -0.87573,-0.736873 -1.53081,1.676031 c -0.84195,0.921817 -1.53522,1.824112 -1.5406,2.005101 -0.0154,0.516524 2.10784,1.919888 2.90465,1.919888 0.39511,0 1.02019,-0.237408 1.38908,-0.527573 z m 5.02576,-6.759176 c 1.0641,-0.986692 1.02212,-2.542049 -0.0968,-3.587305 -0.45196,-0.422187 -0.90446,-0.767612 -1.00557,-0.767612 -0.10111,0 -0.85776,0.819201 -1.68146,1.820446 -1.3868,1.685734 -1.46412,1.849415 -1.04495,2.211921 1.37999,1.193441 2.76386,1.310023 3.82881,0.32255 z m -75.81266,7.74977 c -0.63692,-0.909505 -2.16098,-3.064347 -3.38681,-4.788538 -1.22582,-1.724191 -2.5742,-3.629191 -2.99639,-4.233334 -0.4222,-0.604142 -1.464,-2.011357 -2.31511,-3.127144 -0.85111,-1.115787 -1.54747,-2.089942 -1.54747,-2.164789 0,-0.255148 4.45352,-3.352042 5.96013,-4.144568 1.12262,-0.590531 1.85832,-0.790064 2.91305,-0.790064 1.77654,0 2.47811,0.26821 3.78136,1.445612 1.45986,1.318898 2.21283,3.18893 2.13611,5.305143 -0.0689,1.901375 -0.37488,1.516378 3.65966,4.605314 1.19814,0.917323 2.60093,1.813106 3.1173,1.990627 l 0.93887,0.322767 -1.85736,1.23506 c -1.02155,0.679283 -1.94809,1.229905 -2.05897,1.223603 -0.22406,-0.01273 -2.42272,-1.637138 -4.5505,-3.36198 -1.47873,-1.198706 -2.00119,-1.34067 -2.79574,-0.759681 -0.4685,0.342579 -0.47233,0.403012 -0.0629,0.992188 1.38929,1.999111 3.90023,5.656646 3.90023,5.681223 0,0.137473 -3.19166,2.222207 -3.40213,2.222207 -0.15142,0 -0.79642,-0.74414 -1.43334,-1.653646 z m -0.0621,-11.041058 c 0.47571,-0.919931 0.50722,-1.683228 0.10197,-2.470086 -0.5958,-1.156814 -1.36588,-1.768543 -2.22634,-1.768543 -0.84383,0 -2.23852,0.853805 -2.23852,1.370388 0,0.150506 0.44649,0.851748 0.99219,1.558314 0.5457,0.706567 1.20676,1.58768 1.46901,1.95803 0.39043,0.551361 0.5697,0.623655 0.98945,0.399013 0.28194,-0.150892 0.69245,-0.622094 0.91224,-1.047116 z m 14.68711,4.154615 c 0,-0.373355 -1.11074,-3.96527 -3.94224,-12.748365 -1.03023,-3.195681 -1.78507,-5.89325 -1.67743,-5.994598 0.20778,-0.195625 3.781,-1.291948 4.21082,-1.291948 0.13963,0 0.44248,0.625078 0.673,1.389063 2.29718,7.613494 4.01603,13.068732 4.17295,13.244018 0.10502,0.117309 1.46034,-0.198335 3.01183,-0.701431 2.59699,-0.842117 2.84022,-0.878607 3.06439,-0.459736 0.3681,0.68781 1.02569,3.722168 0.83252,3.841556 -0.3337,0.206239 -9.65782,3.059447 -9.9981,3.059447 -0.19125,0 -0.34774,-0.152103 -0.34774,-0.338006 z m 26.9111,-2.498262 c -1.97069,-0.656937 -3.53797,-2.19738 -4.05894,-3.989449 -0.82407,-2.834695 -0.0909,-7.756152 1.6832,-11.298242 2.35284,-4.697659 5.88958,-5.882434 9.92342,-3.324252 1.25523,0.796045 2.48613,2.637571 2.22239,3.324871 -0.13893,0.362059 -2.52792,2.10252 -2.66715,1.943114 -0.044,-0.05041 -0.26854,-0.462547 -0.49892,-0.915867 -0.42134,-0.829094 -1.81578,-1.689324 -2.7384,-1.689324 -1.43035,0 -2.44035,1.80918 -3.27311,5.863074 -0.62667,3.050596 -0.57779,4.979505 0.14646,5.779788 0.74309,0.821112 2.14834,1.105828 3.22911,0.654251 0.95157,-0.39759 1.90534,-1.347311 1.92038,-1.912217 0.0227,-0.853387 1.01332,-0.204317 1.98162,1.298411 l 1.04678,1.624512 -1.38456,1.2731 c -0.7615,0.700204 -1.82786,1.396218 -2.36969,1.546698 -1.40892,0.391294 -3.68995,0.31244 -5.16259,-0.178468 z m -13.50319,-2.486597 c -0.0931,-1.219768 -0.40795,-5.432448 -0.69966,-9.36151 -0.2917,-3.929063 -0.56172,-7.500938 -0.60003,-7.9375 l -0.0697,-0.79375 2.07723,-0.132292 c 1.14248,-0.07276 2.16456,-0.07276 2.27129,0 0.26666,0.181789 1.70748,19.829064 1.47147,20.065081 -0.0498,0.04977 -1.03343,0.155114 -2.18592,0.234107 l -2.09542,0.143624 z"
     id="logo-face"
     transform="translate(-63.983642,-35.428986)" /></svg>
