<?xml version="1.0" encoding="UTF-8" standalone="no"?>
<!-- Created with Inkscape (http://www.inkscape.org/) -->

<svg
   width="126.72405mm"
   height="126.69259mm"
   viewBox="0 0 126.72405 126.69259"
   version="1.1"
   id="svg1"
   xml:space="preserve"
   xmlns="http://www.w3.org/2000/svg"
   xmlns:svg="http://www.w3.org/2000/svg"><defs
     id="defs1" /><g
     id="logo-face"
     transform="translate(-43.369678,-87.650858)"><path
       class="logo-face"
       d="M 99.31769,214.16317 C 79.3422,211.75309 61.55711,199.89733 51.49507,182.28401 42.1036,165.84451 40.74897,144.67341 47.97528,127.2742 51.4757,118.84605 56.08905,112.03367 62.59236,105.68968 72.74663,95.784178 85.05301,89.911218 99.44998,88.100178 l 3.57188,-0.44932 5.29166,0.14867 c 9.00502,0.253 15.78022,1.71429 23.62171,5.09479 16.33221,7.04088 28.94756,20.661342 34.79716,37.569612 2.36745,6.84309 3.36134,12.8998 3.36134,20.48371 0,8.66584 -1.34711,16.04406 -4.26865,23.37962 -7.72316,19.39172 -23.77381,33.33042 -44.41468,38.57057 -0.50933,0.1293 -2.29526,0.48359 -3.96875,0.7873 l -3.04271,0.5522 -6.48229,0.0906 c -3.56526,0.0498 -7.43479,-0.0243 -8.59896,-0.16477 z m 15.875,-7.25536 c 9.19243,-1.41699 17.82344,-5.03281 25.4,-10.64092 3.09209,-2.28874 9.09215,-8.28387 11.32283,-11.31353 6.38491,-8.67181 9.8877,-17.80523 11.03098,-28.763 0.55277,-5.29802 0.11756,-11.74419 -1.18205,-17.50817 -2.73271,-12.11994 -9.79448,-23.52519 -19.31968,-31.20261 -9.47349,-7.635742 -19.88164,-11.717072 -32.25697,-12.648872 l -3.68197,-0.27723 -3.51531,0.29277 c -12.27628,1.0224 -22.14104,4.89797 -31.72797,12.464972 -6.08547,4.80329 -12.16057,12.55745 -15.59303,19.90272 -3.57582,7.65204 -5.16746,15.03349 -5.16746,23.96485 v 5.05126 l 0.42226,2.85228 c 3.88734,26.25833 25.10666,46.14399 51.56837,48.32725 2.48844,0.20531 10.05141,-0.0935 12.7,-0.50177 z m -8.30161,-5.13365 0.28358,-0.81351 -0.2767,-0.79374 c -0.40384,-1.15847 0.36695,-0.98112 1.00607,0.23147 l 0.33119,0.62836 -0.50612,0.67788 c -0.27836,0.37283 -0.6446,0.72404 -0.81386,0.78046 l -0.30775,0.10259 z m -1.63345,-0.0444 c -0.37256,-0.69613 -0.12671,-1.73395 0.48878,-2.06335 l 0.46935,-0.25119 v 1.43418 1.43417 h -0.33087 c -0.18198,0 -0.46425,-0.24921 -0.62726,-0.55381 z m 4.46944,-0.87861 -0.0906,-1.43242 1.03838,-0.16559 1.03837,-0.16559 0.39411,0.39411 0.3941,0.3941 -0.34039,0.41016 -0.3404,0.41015 h 0.29698 c 0.16334,0 0.29698,0.16867 0.29698,0.37483 0,0.20615 0.14851,0.42433 0.33002,0.48483 0.20708,0.069 0.11887,0.22302 -0.2368,0.41337 l -0.56682,0.30335 -0.32324,-0.38947 c -0.17778,-0.21421 -0.34082,-0.73929 -0.36233,-1.16684 -0.0215,-0.42754 -0.12667,-0.86494 -0.23371,-0.97198 -0.29907,-0.29907 -0.23076,1.44835 0.0793,2.02764 l 0.27389,0.51177 h -0.77857 -0.77857 z m -10.69093,0.71978 c 0.0958,-0.24973 0.24479,-0.96884 0.33103,-1.59803 l 0.1568,-1.14397 0.49217,0.44541 c 0.86095,0.77915 0.50379,2.17069 -0.66176,2.57839 l -0.49248,0.17226 z m -1.55384,-0.27955 c 0.11309,-0.25466 0.2554,-0.95051 0.31626,-1.54634 l 0.11066,-1.08332 0.65343,0.12491 0.65344,0.12491 -0.17371,0.42925 c -0.0955,0.23608 -0.23718,0.87572 -0.31476,1.42143 l -0.14106,0.99218 H 97.93163 97.2767 Z m 17.04893,-0.37584 c 0,-0.49251 -0.17597,-1.14671 -0.39105,-1.45378 l -0.39105,-0.55831 0.62399,-0.11928 0.62399,-0.11929 0.39314,1.41247 c 0.21622,0.77686 0.29973,1.41247 0.18557,1.41247 -0.11416,0 -0.39589,0.0723 -0.62608,0.1606 l -0.41851,0.1606 z m 1.5875,0.2098 c 0,-0.0549 0.17859,-0.24811 0.39687,-0.42927 l 0.39688,-0.32938 v 0.42928 c 0,0.2361 -0.17859,0.42927 -0.39688,0.42927 -0.21828,0 -0.39687,-0.045 -0.39687,-0.0999 z M 94.2726,200.03169 c -0.23752,-1.26608 -0.58127,-1.39135 -0.78839,-0.2873 l -0.17167,0.91511 -0.39305,-0.15083 c -0.21617,-0.0829 -0.28125,-0.22355 -0.14462,-0.31244 0.34822,-0.22654 0.92412,-2.08352 0.73903,-2.38299 -0.0903,-0.14618 0.13053,-0.17156 0.54001,-0.062 0.41191,0.11016 0.83307,0.50341 1.03861,0.96977 l 0.34573,0.78448 0.0215,-0.7193 0.0215,-0.7193 0.40363,0.15488 0.40363,0.15489 -0.23686,0.29983 c -0.13027,0.16491 -0.38066,0.74631 -0.55643,1.29202 -0.40355,1.25284 -0.9937,1.28336 -1.2226,0.0632 z m 21.58376,0.14218 -0.39467,-0.24951 0.29309,-0.29309 0.29309,-0.29309 0.14295,0.54666 c 0.0786,0.30065 0.12433,0.54483 0.10158,0.5426 -0.0228,-0.002 -0.21898,-0.11634 -0.43604,-0.25357 z m 2.81214,-0.14082 c -0.60879,-0.6088 -0.76093,-1.37026 -0.4062,-2.03308 l 0.3208,-0.59942 0.36215,1.04606 c 0.19918,0.57533 0.47814,1.16204 0.6199,1.3038 0.14176,0.14176 0.25775,0.353 0.25775,0.46941 0,0.3546 -0.73135,0.23628 -1.1544,-0.18677 z m 1.25293,-0.51379 -0.29834,-0.64351 0.38612,-0.14817 c 0.6297,-0.24164 0.80311,-0.17567 0.94285,0.35868 0.1199,0.45849 -0.22027,1.08378 -0.58677,1.07858 -0.08,-0.001 -0.27977,-0.29165 -0.44386,-0.64558 z m -29.86416,-0.1461 c 0.0899,-0.14553 0.40165,-0.26459 0.69269,-0.26459 0.29104,0 0.45558,0.11906 0.36565,0.26459 -0.0899,0.14552 -0.40165,0.26458 -0.69269,0.26458 -0.29104,0 -0.45558,-0.11906 -0.36565,-0.26458 z m -0.98689,-0.21865 -0.45773,-0.18144 0.52213,-0.79215 c 0.28717,-0.43568 0.52292,-1.0005 0.52388,-1.25516 0.002,-0.52875 0.31026,-0.55159 1.51414,-0.11216 l 0.85095,0.3106 -0.21881,0.35291 -0.21882,0.35291 -0.16081,-0.41906 c -0.27912,-0.72737 -0.71875,-0.4588 -1.263,0.77157 -0.28967,0.65484 -0.55087,1.18226 -0.58044,1.17203 -0.0296,-0.0102 -0.25974,-0.10025 -0.51149,-0.20005 z m 26.56314,-0.27775 -0.35291,-0.22371 0.39319,-0.15089 c 0.40894,-0.15692 0.70951,0.007 0.70951,0.38593 0,0.27995 -0.29736,0.27546 -0.74979,-0.0113 z m 6.85441,-0.72991 c -0.6047,-0.76876 -0.66192,-1.09487 -0.29412,-1.67645 0.2871,-0.45396 0.23924,-0.49984 1.16503,1.11682 l 0.7197,1.25677 h -0.52112 c -0.28661,0 -0.76788,-0.31371 -1.06949,-0.69714 z m -31.97315,0.11836 c 0.0576,-0.1728 0.2462,-0.36135 0.41911,-0.41898 0.19334,-0.0645 0.25247,0.0565 0.15359,0.31419 -0.18455,0.48094 -0.73144,0.58101 -0.5727,0.10479 z m 33.80603,-0.19467 c 0,-0.27988 -0.30824,-0.87519 -0.68498,-1.32292 l -0.68497,-0.81405 h 0.67888 0.67887 l 0.43215,0.65953 c 0.27078,0.41328 0.36997,0.90723 0.26564,1.32292 -0.19576,0.77997 -0.68559,0.89037 -0.68559,0.15452 z m -38.94776,-0.55598 -0.98007,-0.52285 0.58319,-0.59522 c 0.32075,-0.32736 0.767,-0.87885 0.99166,-1.22553 l 0.40847,-0.63031 0.86191,0.44571 c 1.02776,0.53148 1.34187,1.1738 0.77625,1.58738 -0.22494,0.16449 -0.45386,0.53422 -0.50871,0.82164 -0.13466,0.7057 -0.94809,0.75116 -2.1327,0.11918 z m 1.10273,-0.37877 c 0.17587,-0.21191 0.24295,-0.50957 0.14907,-0.66146 -0.0939,-0.1519 0.002,-0.27617 0.2135,-0.27617 0.2113,0 0.45272,-0.1786 0.53648,-0.39688 0.38495,-1.00318 -0.77922,-0.064 -1.39391,1.12448 -0.34324,0.66366 -0.002,0.80855 0.49486,0.21003 z m 33.19925,0.52599 -0.51359,-0.38846 0.59531,-0.008 c 0.35652,-0.005 0.59531,0.15079 0.59531,0.38846 0,0.49033 -0.0392,0.49082 -0.67703,0.008 z m 7.29162,-0.7432 c 0,-0.18585 -0.3458,-0.71651 -0.76844,-1.17924 l -0.76843,-0.84133 0.37015,-0.30719 c 0.35343,-0.29333 0.63703,-0.27095 1.82817,0.14426 l 0.52917,0.18445 -0.601,-0.53218 -0.601,-0.53219 0.28788,-0.17791 c 0.26859,-0.166 1.01923,0.55684 1.038,0.99955 0.005,0.10914 0.26059,0.45062 0.56881,0.75884 l 0.5604,0.56039 -0.34537,0.21345 c -0.20445,0.12635 -0.76745,-0.002 -1.37979,-0.31427 -1.26493,-0.64532 -1.52663,-0.48107 -0.64239,0.40317 0.61634,0.61633 0.66782,0.95811 0.14432,0.95811 -0.12126,0 -0.22048,-0.15206 -0.22048,-0.33791 z m -24.29007,-0.2686 c -1.54528,-0.25567 -1.70641,-0.69478 -0.38098,-1.03823 0.45389,-0.11762 1.05824,-0.51004 1.343,-0.87205 0.28476,-0.36202 0.65085,-0.65821 0.81353,-0.65821 h 0.29577 l -0.17081,1.12448 c -0.094,0.61846 -0.24418,1.24863 -0.33386,1.40036 l -0.16304,0.27589 z m 6.49241,0.18315 c -0.10418,-0.10418 -0.054,-0.3526 0.11155,-0.55205 l 0.30096,-0.36263 -0.15722,-2.30755 c -0.1813,-2.66101 -0.79911,-4.96022 -1.39419,-5.18858 -0.74935,-0.28755 -0.10127,-0.69083 1.11019,-0.69083 0.65583,0 1.40548,-0.11404 1.66591,-0.25341 l 0.47351,-0.25342 0.17322,2.46426 c 0.0953,1.35534 0.40734,3.34461 0.6935,4.4206 0.28615,1.07599 0.52308,2.03365 0.5265,2.12814 0.003,0.0945 -0.49979,0.22884 -1.11825,0.29856 -0.61846,0.0697 -1.36563,0.20767 -1.66037,0.30655 -0.29475,0.0989 -0.62113,0.0945 -0.72531,-0.01 z m -10.31432,-0.56592 -1.52135,-0.0955 v -0.38367 c 0,-0.21102 0.11061,-0.38367 0.2458,-0.38367 0.40854,0 1.09651,-2.82022 1.2628,-5.17665 l 0.15641,-2.21636 -0.34104,-0.41093 c -0.51203,-0.61695 -0.12563,-0.78382 1.02012,-0.44054 0.56353,0.16884 1.35094,0.30698 1.74981,0.30698 h 0.72521 l -0.18322,0.46302 c -0.40676,1.02796 -0.94009,4.03463 -1.10289,6.2177 -0.095,1.27331 -0.24413,2.2926 -0.33148,2.26508 -0.0873,-0.0275 -0.84343,-0.093 -1.68017,-0.1455 z m 14.35365,-0.12802 c 0,-0.21189 0.30384,-0.5237 0.6752,-0.69291 0.37137,-0.1692 0.84921,-0.72409 1.06188,-1.23309 0.21268,-0.509 0.49026,-0.92545 0.61685,-0.92545 0.29352,0 0.54822,0.94466 0.55287,2.05052 l 0.004,0.8599 -0.8599,0.004 c -0.47294,0.002 -1.12778,0.0754 -1.4552,0.16315 l -0.59531,0.15954 z m -23.07871,-2.66392 c -1.31302,-0.61359 -1.51771,-1.11357 -0.45589,-1.11357 h 0.62805 l 0.601,-1.05834 c 0.6405,-1.12788 0.78116,-2.11176 0.34081,-2.38391 -0.3347,-0.20686 -0.0663,-0.68648 0.355,-0.63446 0.74979,0.0926 0.99454,-0.0891 1.5276,-1.13402 l 0.56612,-1.10968 -0.29616,-0.47423 c -0.36916,-0.59113 -0.37992,-1.01057 -0.0259,-1.01057 0.59928,0 2.34745,1.40999 2.6481,2.13584 l 0.32084,0.77458 -0.33297,0.80386 c -0.3933,0.94952 -0.97837,1.3128 -2.11429,1.3128 h -0.83034 l 0.54837,0.69714 c 0.3016,0.38343 0.54837,0.92512 0.54837,1.20377 0,0.9216 -0.76115,2.00471 -1.61895,2.30374 -1.05029,0.36614 -0.92051,0.38299 -2.40975,-0.31295 z m 12.66457,0.42264 c -0.0931,-0.0931 -0.1692,-0.38073 -0.1692,-0.63927 0,-0.25853 -0.26789,-0.66776 -0.59531,-0.90938 l -0.59531,-0.43932 0.37858,-0.14285 c 0.20821,-0.0786 0.63859,-0.42341 0.95638,-0.76631 0.31779,-0.3429 0.72571,-0.62346 0.9065,-0.62346 h 0.32869 l -0.19263,0.46302 c -0.10595,0.25466 -0.25314,1.03105 -0.32709,1.72531 -0.13193,1.23872 -0.3546,1.66827 -0.69061,1.33226 z m 17.94788,-0.3239 c 0.34521,-1.08766 -2.51913,-6.55069 -3.58008,-6.82814 -0.84095,-0.21991 -0.58643,-0.76103 0.51286,-1.09038 0.56482,-0.16923 1.17471,-0.48573 1.35532,-0.70334 0.53512,-0.64478 0.76493,-0.47363 1.45294,1.08209 0.35944,0.81277 1.21409,2.42011 1.89921,3.57188 l 1.24567,2.09412 h 0.47871 c 0.8416,0 0.51527,0.75878 -0.43974,1.02247 -0.50515,0.13948 -1.26767,0.50226 -1.69449,0.80619 -0.97676,0.69551 -1.44225,0.71258 -1.2304,0.0451 z m -7.34766,-0.95604 c -0.26145,-0.35923 -0.64841,-0.65315 -0.85989,-0.65315 -0.5071,0 -0.48863,-0.37797 0.0399,-0.81662 0.23344,-0.19374 0.53552,-0.64443 0.67129,-1.00153 0.31859,-0.83797 0.66554,-0.46574 0.83151,0.89211 0.0711,0.58208 0.21629,1.32622 0.32254,1.65365 l 0.19319,0.59531 -0.36159,-0.008 c -0.19888,-0.005 -0.57551,-0.30223 -0.83696,-0.66145 z M 86.67642,191.647 c -1.39585,-0.70035 -1.7768,-1.26968 -0.84958,-1.26968 0.5009,0 1.83965,-1.99976 2.95535,-4.41455 l 0.92102,-1.99343 -0.15874,-0.63247 c -0.20401,-0.81284 0.15419,-0.80533 1.38201,0.029 0.53538,0.36381 1.11735,0.66146 1.29326,0.66146 0.68473,0 0.55983,0.53628 -0.59266,2.54488 -0.65809,1.14693 -1.60955,2.94853 -2.11434,4.00356 -0.5048,1.05503 -1.00551,1.90024 -1.11268,1.87826 -0.10718,-0.022 -0.88282,-0.38515 -1.72364,-0.80702 z m 37.99433,-0.84675 c -0.26523,-0.34947 -0.69204,-1.01649 -0.94848,-1.48227 l -0.46625,-0.84688 -0.38517,0.14781 c -0.51735,0.19852 -0.78674,-0.29169 -0.40985,-0.74582 l 0.30241,-0.36438 -0.67129,-1.32473 -0.6713,-1.32474 -0.5798,-0.0852 c -0.91982,-0.13521 -0.84378,-0.60565 0.17655,-1.09221 1.33909,-0.63857 2.41096,-0.57081 3.18298,0.2012 l 0.64943,0.64944 v 0.87919 c 0,0.48356 -0.18425,1.14225 -0.40944,1.46375 l -0.40944,0.58456 0.41003,-0.15734 c 0.78507,-0.30126 1.75623,0.17552 2.3266,1.14223 0.3118,0.52845 0.61309,0.82226 0.66954,0.65291 0.0565,-0.16936 0.27131,-0.30792 0.47747,-0.30792 0.61252,0 0.4356,1.28619 -0.27461,1.9964 l -0.64943,0.64944 h -0.91887 -0.91886 z m -20.42054,-0.9576 c -0.15324,-0.4396 -0.64039,-1.00514 -1.08255,-1.25677 -0.44215,-0.25164 -0.80467,-0.61925 -0.80559,-0.81693 l -0.002,-0.35941 0.69233,0.17376 c 0.38078,0.0956 1.04215,0.24373 1.46971,0.32924 l 0.77738,0.15548 -0.14679,0.38254 c -0.0807,0.2104 -0.14679,0.78952 -0.14679,1.28694 0,1.11879 -0.38405,1.1722 -0.75603,0.10515 z m 9.67843,-1.03587 c -0.40325,-0.42724 -1.03164,-0.81419 -1.39643,-0.8599 -1.00492,-0.12591 -0.79663,-0.59389 0.33551,-0.75383 0.55113,-0.0779 1.13797,-0.22574 1.30408,-0.32861 l 0.30203,-0.18704 0.1334,0.85777 c 0.0734,0.47178 0.21924,1.12567 0.32415,1.45309 0.26161,0.81651 -0.12722,0.74614 -1.00274,-0.18148 z m 20.51473,-2.84922 c -0.89847,-0.17326 -2.14308,-1.56973 -2.34145,-2.62714 -0.0971,-0.51749 -0.1197,-2.12084 -0.0503,-3.563 l 0.12626,-2.62211 -1.08429,-0.29431 c -2.15197,-0.58411 -2.40659,-0.67574 -2.36764,-0.85204 0.0218,-0.0985 0.12314,-1.0113 0.22529,-2.02847 l 0.18573,-1.84942 h 0.52925 c 0.29108,0 1.91611,0.63579 3.61117,1.41285 1.69505,0.77707 3.4391,1.52144 3.87567,1.65415 l 0.79375,0.2413 0.72172,1.51382 0.72173,1.51382 1.06421,0.67181 1.06426,0.67181 v 1.86139 1.8614 l -0.7276,0.6848 c -0.40019,0.37664 -1.32292,0.9651 -2.05052,1.3077 l -1.32292,0.6229 -1.19063,-0.0334 c -0.65484,-0.0184 -1.4575,-0.0849 -1.78369,-0.14781 z m -55.06502,-1.10025 c -0.78018,-0.27721 -1.72683,-0.81235 -2.10368,-1.1892 l -0.68518,-0.68518 -0.10831,-1.70101 -0.10832,-1.70102 1.04505,-1.15022 c 1.384,-1.52331 2.4529,-3.14663 2.4529,-3.72519 v -0.46775 h 0.95947 c 0.58295,0 2.30147,-0.583 4.37928,-1.48565 1.8809,-0.81711 3.46314,-1.44218 3.51608,-1.38906 0.0529,0.0531 0.18041,0.95128 0.28325,1.99591 l 0.18699,1.89933 -1.1568,0.29923 c -0.63625,0.16458 -1.37855,0.36395 -1.64957,0.44305 l -0.49277,0.14381 0.18575,2.72524 0.18575,2.72523 -0.51694,1.1501 c -0.28432,0.63256 -0.8324,1.44028 -1.21796,1.79494 l -0.70102,0.64484 -1.51773,0.0883 -1.51773,0.0883 z m 60.73622,-7.65274 c -0.26222,-0.28975 -0.69496,-1.10165 -0.96165,-1.80421 l -0.48489,-1.2774 -3.79669,-1.25509 c -2.08818,-0.6903 -3.83788,-1.37865 -3.88822,-1.52966 -0.0503,-0.15101 -0.36823,-0.20511 -0.70644,-0.12023 -0.3382,0.0849 -0.86413,0.021 -1.16872,-0.14205 l -0.55381,-0.29639 v -1.4459 -1.4459 h 0.50382 c 0.2771,0 1.37455,0.29459 2.43878,0.65464 1.06423,0.36006 2.56539,0.78552 3.33591,0.94548 l 1.40095,0.29084 0.92321,-0.30469 0.9232,-0.30468 1.2043,-1.56508 c 1.32944,-1.7277 1.8458,-2.09776 2.92712,-2.09776 h 0.72749 l 1.22437,1.27026 c 0.6734,0.69865 1.54449,1.91265 1.93573,2.69779 l 0.71137,1.42751 v 1.95857 1.95856 l -0.79939,0.74674 c -1.06095,0.99108 -2.95852,1.88806 -4.31848,2.04134 l -1.10119,0.12412 z m -64.60938,-0.16194 c -1.53023,-0.48395 -2.54756,-1.06628 -3.35661,-1.92137 -0.93914,-0.9926 -1.2736,-1.94542 -1.2736,-3.62829 v -1.3874 l 0.9325,-1.57194 c 2.18707,-3.68677 4.44142,-4.51304 6.33239,-2.32096 0.44269,0.5132 1.19671,1.35492 1.67559,1.8705 l 0.87069,0.93741 1.67035,-0.15598 c 0.91869,-0.0858 2.71883,-0.51927 4.0003,-0.9633 1.28147,-0.44402 2.56193,-0.80731 2.84546,-0.80731 h 0.5155 l -0.14198,0.59531 c -0.0781,0.32742 -0.22253,1.15385 -0.32098,1.83651 l -0.17898,1.24119 -1.49365,0.18229 c -0.8215,0.10026 -2.04714,0.46036 -2.72364,0.80021 -0.67649,0.33986 -2.09511,0.79831 -3.15247,1.01878 -2.35803,0.49166 -3.01601,1.06039 -3.58889,3.10212 l -0.43275,1.54234 -0.56045,-0.0177 c -0.30825,-0.01 -1.0367,-0.16832 -1.61878,-0.35241 z m 49.53924,-2.8952 c -2.58539,-1.3476 -5.20172,-3.13462 -5.37123,-3.6687 -0.16148,-0.50878 2.07351,-5.50141 2.46275,-5.50141 0.21362,0 4.87978,1.82553 5.03128,1.96837 0.0376,0.0354 -0.12573,0.92352 -0.36285,1.97356 l -0.43115,1.90916 0.78423,0.97706 0.78423,0.97706 -0.29161,1.03713 c -0.16039,0.57042 -0.42242,1.08073 -0.58229,1.13402 -0.15987,0.0533 -1.07038,-0.30952 -2.02336,-0.80625 z m -33.62067,-1.77461 c -0.80569,-1.55294 -0.8632,-2.05815 -0.31657,-2.78087 0.50538,-0.66816 0.50186,-1.27917 -0.0131,-2.27501 -0.79988,-1.5468 0.10698,-2.6042 2.23344,-2.6042 h 0.99638 l 0.6926,0.7276 c 0.84313,0.88575 2.86968,4.31168 2.70659,4.57556 -0.1549,0.25064 -4.73911,3.38768 -5.2203,3.57233 l -0.37399,0.14352 z m 13.05331,0.83379 -3.3073,-0.42408 0.0921,-0.79375 c 0.17788,-1.53269 0.75614,-2.44565 2.01714,-3.18464 l 1.23131,-0.7216 0.68699,0.31301 0.68698,0.31302 0.20679,-0.33459 0.20678,-0.33458 0.88725,0.4231 0.88725,0.4231 0.70508,-0.36943 0.70509,-0.36943 0.28469,0.53196 0.2847,0.53196 0.63026,-0.41297 0.63027,-0.41297 1.03332,0.27825 c 0.56833,0.15304 1.49742,0.67942 2.06463,1.16974 l 1.03131,0.89149 -0.78597,0.40309 c -1.82795,0.93745 -5.95519,2.57827 -6.39489,2.54234 -0.26208,-0.0214 -1.96479,-0.22978 -3.7838,-0.46302 z m 8.33437,-5.47669 c -2.91042,-1.2212 -7.04784,-2.96077 -9.19427,-3.86571 l -3.9026,-1.64534 v -0.9057 c 0,-0.49813 0.26789,-1.5995 0.59531,-2.44748 l 0.59531,-1.54179 0.72383,-0.16223 0.72382,-0.16223 7.74284,3.03013 c 4.25857,1.66657 8.21909,3.17832 8.80117,3.35945 0.58209,0.18112 1.14921,0.41175 1.26028,0.51252 0.18282,0.16586 -1.5311,5.46967 -1.89926,5.87737 -0.0851,0.0943 -2.53602,-0.82778 -5.44643,-2.04899 z m -14.12459,0.6589 c -0.30721,-0.32975 -1.0043,-1.46543 -1.54909,-2.52373 l -0.99053,-1.92418 0.31951,-0.31952 0.31952,-0.31951 1.8348,0.3279 c 2.64184,0.47212 6.38517,2.36028 6.38517,3.22072 0,0.18302 -3.77256,1.63886 -5.12903,1.97931 l -0.63178,0.15856 z m -4.79312,-7.3824 c -0.94588,-0.27156 -2.96995,-1.04856 -4.49791,-1.72667 -3.92715,-1.74288 -6.07224,-2.49248 -7.15103,-2.49893 -0.51332,-0.003 -1.21251,-0.20113 -1.55374,-0.44015 l -0.62043,-0.43456 0.14857,-1.21908 c 0.21956,-1.80156 0.97674,-3.92231 1.6659,-4.66593 l 0.60629,-0.65419 h 0.92502 c 0.50876,0 1.8539,0.28731 2.98919,0.63846 1.1353,0.35116 3.08768,0.95134 4.33862,1.33374 l 2.27443,0.69528 1.42973,1.27242 c 1.55377,1.3828 2.69806,2.05683 4.34015,2.55648 l 1.05834,0.32202 -0.0511,0.70138 c -0.0606,0.832 -1.24956,3.51258 -1.85433,4.18085 -0.54334,0.60038 -1.81014,0.58125 -4.04768,-0.0611 z m 19.05,-0.76137 c -1.97859,-0.63969 -3.8174,-1.61392 -3.53721,-1.87407 0.12646,-0.11741 1.6148,-0.80594 3.30743,-1.53007 l 3.0775,-1.3166 1.09147,2.4114 c 0.6003,1.32627 1.09066,2.5007 1.08968,2.60984 -0.003,0.38046 -3.5845,0.16648 -5.02887,-0.3005 z m 5.6832,-2.39166 c -0.6519,-1.00775 -1.18528,-2.05134 -1.18528,-2.31908 v -0.48682 l 2.18281,-1.37431 c 4.00912,-2.52417 11.1634,-5.89377 12.51355,-5.89377 0.27279,0 3.03072,5.5268 3.03072,6.07347 0,0.29648 -0.51998,0.47697 -2.65892,0.92295 -1.1306,0.23574 -2.35926,0.72846 -3.27124,1.31185 -0.80331,0.51387 -2.03007,1.22209 -2.72614,1.57384 -1.44075,0.72805 -5.39749,2.02414 -6.17936,2.02414 h -0.52085 z m -54.50712,-0.48284 c -1.54742,-1.629 -5.44952,-8.05798 -5.10185,-8.40565 0.14114,-0.14115 3.2103,0.67479 6.07276,1.61444 l 2.02095,0.66341 0.9505,1.43156 0.95051,1.43156 1.37315,0.40779 c 1.4775,0.43876 2.60582,1.06882 2.60582,1.45509 0,0.13181 -0.40101,0.66484 -0.89114,1.18453 l -0.89114,0.94488 h -3.19919 -3.1992 z m 78.07721,-2.05133 c -0.51858,-0.51858 -0.94287,-1.15359 -0.94287,-1.41114 v -0.46827 l 1.78593,-0.57894 c 0.98227,-0.31842 2.16684,-0.81267 2.63239,-1.09834 l 0.84645,-0.51941 0.28603,-1.06224 0.28603,-1.06224 1.64565,-0.50592 c 2.71882,-0.83585 6.30906,-1.68205 6.4669,-1.52421 0.23032,0.23032 -3.06256,5.82813 -4.4202,7.51424 l -1.21667,1.51103 -3.21339,0.0742 -3.21338,0.0742 z m -38.65714,0.11507 c -0.0961,-0.15545 -0.35711,-0.21262 -0.58009,-0.12705 -0.34835,0.13367 -3.58163,-0.71527 -5.49547,-1.44291 l -0.6107,-0.23218 1.0336,-2.8117 c 0.56848,-1.54644 1.0336,-2.8633 1.0336,-2.92637 0,-0.34648 -1.35522,-0.0331 -1.97906,0.45758 l -0.72751,0.57226 -3.01789,-1.01864 c -1.65984,-0.56024 -2.98563,-1.08967 -2.9462,-1.17649 0.43097,-0.94894 3.04818,-4.24105 3.37161,-4.24105 0.23356,0 0.89632,0.24422 1.47279,0.5427 0.57647,0.29848 1.66993,0.70783 2.4299,0.90966 l 1.38177,0.36697 0.82102,-0.23547 c 0.45156,-0.1295 1.28862,-0.65791 1.86014,-1.17424 l 1.03912,-0.93878 h 0.80501 c 0.50733,0 1.05125,0.24623 1.47088,0.66586 l 0.66586,0.66586 -0.16237,0.59091 c -0.0893,0.325 -0.40848,1.14317 -0.70929,1.81815 l -0.54692,1.22725 -0.96078,0.1589 c -0.52844,0.0874 -1.42712,0.16022 -1.99708,0.16182 -1.56124,0.004 -1.07178,0.19064 1.65405,0.62941 1.35288,0.21777 2.63053,0.53766 2.83924,0.71087 l 0.37946,0.31492 -0.003,2.415 c -0.002,1.32825 -0.0767,2.86149 -0.16691,3.40719 l -0.164,0.99219 h -1.0081 c -0.55446,0 -1.0867,-0.12718 -1.18277,-0.28262 z M 77.2779,154.87024 c -0.4682,-0.4682 -0.38721,-1.2302 0.21166,-1.99155 0.52271,-0.66452 0.68226,-1.41842 0.36692,-1.73375 -0.0892,-0.0892 -0.60775,0.39693 -1.15224,1.08038 -0.5445,0.68344 -1.22943,1.45499 -1.52207,1.71455 l -0.53208,0.47193 -1.29224,-0.4369 c -1.61723,-0.54678 -3.47778,-1.47944 -4.33335,-2.17224 l -0.65481,-0.53024 0.34296,-1.28348 c 0.50763,-1.89974 1.90532,-4.58355 2.63659,-5.06269 l 0.64048,-0.41966 1.65952,0.28426 c 0.91273,0.15635 2.39037,0.61225 3.28363,1.01312 l 1.62411,0.72886 0.16133,0.6428 c 0.0887,0.35354 0.0272,0.93728 -0.13683,1.2972 -0.47896,1.0512 -0.35063,1.21329 0.47649,0.60178 0.90649,-0.6702 1.5237,-0.52697 1.75838,0.40805 l 0.16755,0.66758 -0.77889,1.65885 c -0.74787,1.59281 -2.02778,3.37865 -2.42147,3.37865 -0.10348,0 -0.33102,-0.14288 -0.50564,-0.3175 z m 30.79116,0.0227 c -0.0677,-0.20167 -0.19128,-1.02151 -0.27454,-1.82188 -0.0833,-0.80036 -0.21961,-2.00918 -0.30301,-2.68626 l -0.15163,-1.23106 1.01126,-0.68717 1.01126,-0.68717 h 1.29695 c 2.96,0 4.52898,1.07239 5.41724,3.70267 l 0.53962,1.5979 -0.55655,0.51851 c -0.76683,0.71441 -2.81549,1.25894 -5.55784,1.47726 l -2.30961,0.18387 z m 27.42312,-2.23375 -0.58803,-0.41188 v -0.83042 c 0,-0.51782 -0.24217,-1.08485 -0.64335,-1.50635 -0.6197,-0.6511 -0.80814,-1.32939 -0.72072,-2.59416 l 0.0412,-0.59532 h 0.657 0.657 l 0.62206,1.25677 c 1.09186,2.20595 1.83181,4.281 1.6736,4.69329 -0.198,0.51599 -0.95256,0.51069 -1.69871,-0.0119 z m 2.69882,-1.24177 c -1.05471,-1.2442 -2.52176,-4.56218 -2.5775,-5.82945 l -0.0479,-1.08876 1.98437,-0.77071 c 1.09141,-0.42389 2.66559,-0.83317 3.49818,-0.90951 l 1.5138,-0.1388 0.77778,0.83261 c 0.81557,0.87307 2.41232,4.37664 2.41232,5.29307 0,0.29375 -0.38695,0.82899 -0.85989,1.18941 -1.31058,0.99877 -4.19792,2.28159 -5.13586,2.28182 l -0.83637,2.1e-4 z m -20.22019,-4.10997 c -0.63053,-0.21697 -0.74161,-0.57252 -0.50155,-1.60544 0.12339,-0.53093 0.22719,-1.41833 0.23066,-1.972 l 0.006,-1.00669 1.23609,0.0806 1.2361,0.0806 0.71858,1.19063 c 0.39522,0.65484 0.80026,1.46092 0.9001,1.79128 l 0.18151,0.60066 -0.87942,0.35609 c -1.07192,0.43405 -2.59088,0.66914 -3.12838,0.48419 z m -6.23456,-0.69554 c -0.90818,-0.39551 -2.41506,-2.04395 -3.1811,-3.47993 l -0.50621,-0.94893 0.62462,-0.50912 c 0.78454,-0.63945 1.19698,-0.63231 2.68267,0.0465 l 1.19063,0.54399 1.90529,-0.0163 c 1.0479,-0.009 1.96836,0.0858 2.04545,0.21049 0.0771,0.12473 -8.7e-4,1.19434 -0.17323,2.37691 l -0.31338,2.15014 -1.73207,-0.0104 c -0.95263,-0.006 -2.09684,-0.16922 -2.54267,-0.36338 z m -23.62213,-1.26597 -1.09955,-1.11054 v -2.55414 c 0,-2.81777 0.34077,-4.22676 1.01807,-4.20939 0.24042,0.006 1.09179,0.16395 1.89192,0.35063 l 1.45479,0.33943 0.17918,1.17072 c 0.0986,0.64389 0.41883,1.62799 0.71173,2.18688 l 0.53254,1.01617 -1.60899,1.96039 c -0.88495,1.07822 -1.6925,1.9604 -1.79456,1.9604 -0.10207,0 -0.68037,-0.49975 -1.28513,-1.11055 z m 34.63478,-1.9205 c -1.06788,-0.79893 -2.00361,-1.51461 -2.0794,-1.5904 -0.0758,-0.0758 0.0584,-0.35462 0.29824,-0.61963 0.23982,-0.265 0.56895,-0.86308 0.7314,-1.32907 l 0.29535,-0.84724 -0.4171,-0.63657 -0.41709,-0.63656 1.78431,-0.68182 c 2.14598,-0.82003 2.16995,-0.82166 2.16995,-0.14708 0,0.29411 0.25527,1.4024 0.56727,2.46288 l 0.56726,1.92812 -0.50248,1.68272 c -0.27636,0.9255 -0.62705,1.72424 -0.77929,1.77499 -0.15225,0.0507 -1.15054,-0.5614 -2.21842,-1.36034 z m -45.7885,0.61213 c -1.90377,-0.31449 -4.72256,-1.63243 -5.55625,-2.59784 l -0.66146,-0.76598 -3.70417,-1.31996 -3.70416,-1.31996 0.66145,-0.24671 c 0.36381,-0.13568 2.48967,-0.87553 4.72413,-1.64411 l 4.06268,-1.39741 3.4118,3.40423 c 1.8765,1.87233 3.41181,3.55952 3.41181,3.74932 0,0.33098 -1.00457,2.47351 -1.12986,2.40974 -0.0334,-0.017 -0.71561,-0.1391 -1.51597,-0.27132 z m 58.34175,-1.88056 c -0.063,-0.1819 -0.27982,-0.82616 -0.48181,-1.4317 l -0.36727,-1.10097 3.48918,-3.482 3.48918,-3.482 4.60771,1.54026 4.60772,1.54027 0.0758,0.41237 0.0758,0.41237 -1.9712,0.46471 c -2.16581,0.51059 -5.37258,1.93833 -5.96789,2.65706 -0.60198,0.72678 -2.20447,1.43556 -4.84525,2.14305 -2.88207,0.77214 -2.57061,0.73463 -2.71195,0.32658 z m -29.42153,-0.73049 -0.58083,-0.23392 0.24526,-0.85518 c 0.36196,-1.26208 0.92618,-1.52393 2.22208,-1.03123 l 0.67869,0.25804 v 0.653 c 0,0.68365 -0.87208,1.48938 -1.58023,1.45999 -0.22228,-0.009 -0.66552,-0.12204 -0.98497,-0.2507 z m -16.35251,-4.32874 -1.85209,-0.29858 0.01,-2.84174 0.01,-2.84175 0.98221,-1.00587 0.98221,-1.00587 v -1.32988 c 0,-2.7559 1.64859,-5.92806 3.29569,-6.34145 0.66734,-0.16749 4.04515,0.64801 7.17285,1.73174 2.55288,0.88456 3.54348,1.37437 4.10994,2.03221 l 0.42203,0.49011 0.0219,5.6224 0.0219,5.62239 H 103.952 c -0.41401,0 -1.65164,-0.47625 -2.75028,-1.05833 -1.09865,-0.58208 -2.34931,-1.05833 -2.77925,-1.05833 -1.50972,0 -4.1171,0.8442 -5.00085,1.61915 -0.47801,0.41915 -0.97429,0.7621 -1.10284,0.7621 -0.12856,0 -0.39231,0.0451 -0.58611,0.10013 -0.1938,0.0551 -1.18581,-0.0342 -2.20445,-0.19843 z m 16.78622,-0.0545 -0.38206,-0.46297 0.0157,-5.38691 0.0157,-5.38692 0.38119,-0.37708 c 0.20965,-0.20739 2.38062,-1.39521 4.82438,-2.63959 l 4.44319,-2.26252 h 0.8625 c 1.20941,0 2.76367,1.22494 4.52692,3.56775 1.55967,2.07233 2.14608,3.25969 2.87676,5.82496 0.89806,3.1529 1.16366,4.50744 0.98571,5.02708 -0.23282,0.6799 -2.79312,1.96485 -3.93702,1.97589 l -0.87999,0.008 -1.50126,-1.15006 c -1.99991,-1.53206 -2.47562,-1.76036 -3.6681,-1.76036 h -1.01101 l -2.79471,1.58449 c -1.5371,0.87147 -3.15047,1.65564 -3.58527,1.7426 l -0.79056,0.1581 z M 69.0229,131.92484 c 0,-0.65412 -2.22885,-2.53539 -4.68842,-3.95727 l -1.91029,-1.10434 -0.66939,0.16801 -0.6694,0.16801 v -0.39317 c 0,-0.21623 0.18545,-0.54707 0.41212,-0.73519 0.22667,-0.18812 0.71504,-0.85892 1.08528,-1.49068 l 0.67315,-1.14865 1.09754,0.82668 c 1.03935,0.78285 5.87344,4.00745 6.93741,4.62764 l 0.49545,0.28879 -0.65412,0.80234 c -0.35977,0.44129 -0.85695,1.17454 -1.10484,1.62944 -0.50627,0.92904 -1.00449,1.08696 -1.00449,0.31839 z m 74.19178,-1.3523 c -1.00298,-0.3053 -2.31766,-1.47938 -2.08253,-1.85982 0.0969,-0.15676 0.49919,-0.20712 0.91863,-0.115 l 0.74626,0.16391 3.06501,-2.04133 3.06501,-2.04133 v -0.75292 -0.75292 h 0.38757 c 0.99584,0 1.36411,2.64603 0.57879,4.15872 -1.23043,2.37007 -4.43328,3.92417 -6.67874,3.24069 z m -71.57524,-2.0416 c -0.0161,-0.10914 -0.009,-0.4557 0.0158,-0.77014 l 0.0451,-0.5717 -1.22557,-0.84322 -1.22558,-0.84322 -0.90693,0.17014 -0.90693,0.17014 v -0.76975 -0.76976 l -1.06398,-0.73734 -1.06398,-0.73734 -0.69606,0.31715 -0.69606,0.31715 -0.26013,-0.26013 -0.26013,-0.26013 0.8248,-1.04139 c 1.39979,-1.76738 3.07111,-2.06984 4.28575,-0.77559 l 0.55568,0.59211 -0.0853,1.06654 -0.0853,1.06655 0.93731,-0.51369 0.9373,-0.51369 0.73889,0.18545 c 0.4064,0.102 1.02641,0.49568 1.3778,0.87484 l 0.63891,0.6894 v 0.87105 c 0,1.18112 -1.74103,4.03745 -1.88137,3.08657 z m 68.82096,-0.72684 c 0,-0.21786 -0.42979,-0.87184 -0.95509,-1.45328 l -0.95509,-1.05717 0.16447,-0.4286 0.16447,-0.4286 0.3352,0.27819 0.3352,0.27819 1.11594,-0.49962 c 2.17472,-0.97365 5.88031,-3.90107 5.88031,-4.64545 0,-0.8187 0.55137,-0.57742 1.07805,0.47175 0.31304,0.62361 0.79902,1.38512 1.07994,1.69225 l 0.51077,0.55842 -2.38087,1.3975 c -1.30948,0.76863 -3.18135,2.03539 -4.15972,2.81502 -1.88734,1.50398 -2.21358,1.65452 -2.21358,1.0214 z m -37.70313,-5.57992 c -1.30968,-0.51227 -3.42252,-1.31199 -4.69519,-1.77716 -1.27267,-0.46517 -2.31447,-0.97459 -2.31511,-1.13203 -6.3e-4,-0.15745 1.27877,-0.80832 2.84312,-1.44639 l 2.84427,-1.16012 3.30729,0.0162 3.30729,0.0162 1.32292,0.41052 c 3.00115,0.93128 5.03187,1.78476 5.10775,2.1467 l 0.0807,0.38478 -1.00671,0.32961 c -0.55369,0.18129 -2.40163,0.96658 -4.10653,1.7451 -1.7049,0.77853 -3.37178,1.41155 -3.70417,1.40672 -0.33239,-0.005 -1.67591,-0.42791 -2.9856,-0.94018 z m 32.12652,-0.88278 c -1.095,-1.09501 -0.97791,-1.94206 0.48547,-3.5119 l 0.66504,-0.71342 -0.16159,-0.80793 -0.16158,-0.80794 h 0.87514 0.87515 l 0.85606,-1.06525 0.85606,-1.06525 -0.0842,-0.6976 c -0.12881,-1.06757 0.39939,-1.00482 1.46436,0.17397 l 0.96503,1.06816 v 0.91052 0.91053 l -0.63869,0.74236 -0.63868,0.74235 -1.20073,-0.0251 -1.20072,-0.0251 0.25191,0.4707 c 0.41389,0.77336 0.27151,1.64885 -0.40218,2.47304 l -0.63507,0.77692 0.44614,0.34253 0.44615,0.34253 -0.39688,0.26556 c -0.21828,0.14605 -0.73346,0.26738 -1.14483,0.26961 l -0.74796,0.004 z M 74.5648,120.30916 c -2.1452,-1.36287 -3.2668,-3.67072 -2.8832,-5.93256 0.17657,-1.04108 0.95487,-2.13861 1.34541,-1.89724 0.12607,0.0779 0.22922,0.47873 0.22922,0.89069 0,1.41683 4.38061,6.3635 5.63531,6.3635 0.23038,0 0.48933,0.11399 0.57544,0.25331 0.25429,0.41145 -1.32952,1.0696 -2.57393,1.0696 h -1.15197 z m 5.04143,-1.31756 c 0,-1.58727 -3.71223,-5.99331 -5.32057,-6.31498 -1.53618,-0.30724 -1.13478,-1.18218 0.7003,-1.52644 2.0104,-0.37715 4.56985,1.11835 5.69777,3.32926 0.6463,1.26686 0.67348,3.44051 0.0561,4.48568 -0.57959,0.98116 -1.13358,0.9941 -1.13358,0.0265 z m 52.54457,-0.39267 c -0.37673,-0.49392 -1.10197,-1.12261 -1.61164,-1.39709 -1.03102,-0.55524 -1.22588,-1.17246 -0.37014,-1.17246 0.65898,0 3.78765,-3.04188 4.82494,-4.6911 0.38716,-0.61557 0.70394,-1.41924 0.70394,-1.78593 0,-0.9604 0.64753,-0.83347 1.32291,0.25932 0.31478,0.50932 0.65191,0.92983 0.74919,0.93446 0.0973,0.005 0.40304,0.17961 0.67949,0.38886 l 0.50262,0.38044 -1.73522,1.83943 c -2.54087,2.69346 -3.95426,4.65409 -3.85351,5.34551 0.13534,0.92876 -0.46512,0.87853 -1.21258,-0.10144 z m -46.78316,-3.24634 c -0.0812,-0.0812 -0.0196,-0.48673 0.13683,-0.90121 l 0.28445,-0.75359 -1.20818,-2.73681 c -0.6645,-1.50524 -1.09269,-2.77997 -0.95153,-2.83272 0.42042,-0.15711 0.76611,0.35174 1.7036,2.50769 0.9964,2.29143 1.53524,3.01218 2.25193,3.01218 0.80885,0 0.56278,0.79205 -0.29966,0.96454 -0.4333,0.0867 -0.92413,0.32181 -1.09073,0.52255 -0.32223,0.38826 -0.58637,0.45772 -0.82671,0.21737 z m 40.81681,-0.49991 c -0.26895,-0.32407 -1.60853,-0.90553 -3.18483,-1.38242 l -0.39515,-0.11955 0.55846,-0.4466 c 0.30715,-0.24563 0.62337,-0.71725 0.70271,-1.04805 l 0.14425,-0.60144 -0.90287,-0.37724 c -0.89222,-0.3728 -1.13379,-0.75948 -0.65812,-1.05345 0.13462,-0.0832 0.55184,-0.0113 0.92716,0.15965 0.37532,0.17101 0.75084,0.24249 0.83447,0.15886 0.18663,-0.18663 0.81066,-3.05565 1.03456,-4.75637 0.0905,-0.68783 0.26022,-1.30968 0.37704,-1.38189 0.11683,-0.0722 0.83127,0.13018 1.58764,0.44974 l 1.37522,0.58101 -0.17588,0.53629 c -0.0967,0.29496 -0.41618,1.36972 -0.70988,2.38837 l -0.534,1.85208 -0.0332,2.71159 -0.0331,2.71159 -0.29833,3.9e-4 c -0.16409,2.1e-4 -0.44136,-0.17194 -0.61616,-0.38256 z m -36.92093,-3.35583 c -2.17096,-1.8381 -6.16949,-4.46689 -7.06758,-4.64651 -1.04156,-0.20831 -0.9153,-0.77783 0.25456,-1.14825 0.54571,-0.17278 1.38334,-0.53767 1.86142,-0.81085 l 0.86923,-0.4967 3.26797,2.39055 3.26796,2.39055 0.55916,1.34548 c 0.69757,1.67854 0.69887,1.6555 -0.11475,2.02621 -1.01543,0.46266 -1.1822,0.40221 -2.89797,-1.05048 z m 31.10158,0.71178 c -0.17399,-0.20965 -0.62587,-0.41801 -1.00418,-0.46302 -1.01316,-0.12057 -1.06107,-0.71652 -0.0735,-0.91403 l 0.83293,-0.16659 2.10094,-2.5943 c 1.15551,-1.42686 2.23826,-2.67917 2.4061,-2.7829 l 0.30517,-0.18861 -0.16931,0.84658 c -0.10362,0.51806 -0.89716,1.67256 -2.04495,2.97511 -1.13394,1.28683 -1.8157,2.27615 -1.72407,2.50185 0.0834,0.20533 0.22383,0.55192 0.31216,0.7702 0.20893,0.5163 -0.51582,0.52839 -0.94131,0.0157 z m -23.82553,-1.40849 c 0,-0.14422 0.19263,-0.42209 0.42808,-0.6175 l 0.42809,-0.35528 -0.17068,-1.85993 c -0.0939,-1.02296 -0.3443,-2.69336 -0.5565,-3.71201 l -0.38581,-1.85208 -0.57053,-0.46964 c -0.74284,-0.61147 -0.50934,-0.80278 1.06622,-0.87357 0.70995,-0.0319 1.52544,-0.13246 1.81219,-0.22347 l 0.52136,-0.16547 0.18103,2.46623 c 0.16015,2.18175 0.52525,4.40775 1.07782,6.5715 l 0.17647,0.691 -1.14398,0.16681 c -0.62918,0.0918 -1.53093,0.2408 -2.00387,0.33122 -0.50229,0.096 -0.85989,0.0554 -0.85989,-0.0978 z m 15.7427,-0.47714 -0.79375,-0.37173 -1.25677,0.15347 -1.25677,0.15346 v -0.35806 c 0,-0.19693 0.23813,-0.50677 0.52917,-0.68852 l 0.52917,-0.33047 -9e-4,-1.7837 c -7.6e-4,-1.51532 -0.59583,-4.30639 -1.49439,-7.00922 -0.19373,-0.582712 0.25449,-0.594772 1.1164,-0.03 l 0.66084,0.433 1.44652,-0.1493 1.44653,-0.14929 v 0.37776 c 0,0.20776 -0.11907,0.37776 -0.26459,0.37776 -0.40232,0 -0.32085,0.84731 0.29856,3.10509 l 0.56314,2.05266 -0.26929,1.7206 -0.2693,1.7206 0.36762,0.29376 c 1.00685,0.80456 0.0584,1.14276 -1.35219,0.48216 z m -11.2346,-0.14974 c 0.006,-0.19887 0.38828,-0.59971 0.85038,-0.89076 0.50072,-0.31536 0.93967,-0.87659 1.08642,-1.38906 0.44976,-1.57068 1.21564,-0.84709 1.2244,1.15681 l 0.004,0.82608 -0.99219,0.16597 c -0.5457,0.0913 -1.26008,0.23944 -1.5875,0.32926 l -0.59531,0.16329 z m -10.92033,-2.67669 c -0.21322,-0.32742 -0.63497,-1.15642 -0.93723,-1.84222 l -0.54956,-1.2469 -0.6807,-0.17084 c -0.76775,-0.19269 -0.93346,-0.90723 -0.21041,-0.90723 0.25867,0 0.74044,-0.18921 1.07061,-0.42047 0.33017,-0.23126 0.79329,-0.34642 1.02915,-0.25591 l 0.42885,0.16456 -0.30883,0.30883 c -0.47584,0.47584 -0.37092,1.3704 0.35264,3.00649 0.3638,0.82262 0.66146,1.59993 0.66146,1.72734 0,0.43243 -0.46668,0.23417 -0.85598,-0.36365 z m 11.57256,-0.8213 c -0.24484,-0.37368 -0.67265,-0.75162 -0.95067,-0.83986 -0.52682,-0.16721 -0.71284,-0.91853 -0.22741,-0.91853 0.15294,0 0.4542,-0.42152 0.66946,-0.93671 0.5024,-1.20242 0.90454,-0.94775 0.90454,0.57284 0,0.65583 0.13009,1.43549 0.28909,1.73259 l 0.28909,0.54017 -0.26446,0.26447 -0.26446,0.26446 z m 12.03894,-1.82454 c 7.4e-4,-0.1819 0.29468,-0.80698 0.6532,-1.38906 0.77604,-1.25998 0.83208,-1.8657 0.20534,-2.21933 l -0.46302,-0.26125 0.32538,-0.32864 0.32538,-0.32863 0.64642,0.34596 c 0.36729,0.19656 0.94084,0.27205 1.32826,0.17482 l 0.68185,-0.17113 v 0.3926 c 0,0.21594 -0.23563,0.51871 -0.52361,0.67284 -0.28799,0.15412 -1.0068,0.99175 -1.59736,1.86139 -1.03015,1.51696 -1.58473,1.95535 -1.58184,1.25043 z m -11.59156,-2.44009 c -0.17306,-0.37984 -0.60694,-0.72197 -1.03465,-0.81585 -1.25078,-0.27455 -1.39806,-0.35316 -1.39806,-0.74616 v -0.38069 l 1.52135,-0.10375 c 0.83674,-0.0571 1.53444,-0.0978 1.55043,-0.0906 0.016,0.007 0.0997,0.63819 0.18597,1.40218 l 0.1569,1.38906 h -0.34194 c -0.18807,0 -0.47607,-0.29437 -0.64,-0.65416 z"
       id="path1" /></g></svg>
