<?xml version="1.0" encoding="UTF-8" standalone="no"?>
<!-- Created with Inkscape (http://www.inkscape.org/) -->

<svg
   width="244.75354mm"
   height="244.83324mm"
   viewBox="0 0 244.75355 244.83324"
   version="1.1"
   id="svg1"
   xml:space="preserve"
   xmlns="http://www.w3.org/2000/svg"
   xmlns:svg="http://www.w3.org/2000/svg"><defs
     id="defs1" /><g
     id="logo-face"
     transform="translate(-75.011403,-50.583874)"><path
       class="logo-face"
       d="m 192.07622,295.35972 c -4.30955,-0.25717 -10.94997,-0.97211 -14.6276,-1.57489 -44.65974,-7.31992 -81.7282,-38.8381 -96.113247,-81.72216 -4.383609,-13.06822 -6.32397,-25.04673 -6.32397,-39.04002 0,-8.29045 0.375254,-12.86219 1.704812,-20.76979 3.22849,-19.20157 10.942426,-37.03326 22.891598,-52.91667 29.583447,-39.323745 79.586837,-57.002264 127.525697,-45.086252 26.91887,6.691137 50.74183,22.476335 67.84434,44.95396 13.19536,17.342492 21.38329,37.758652 23.9612,59.745922 1.9197,16.37334 0.48689,32.89828 -4.23694,48.86554 -10.07268,34.04723 -34.65141,62.18706 -67.08431,76.80388 -12.30614,5.54611 -25.18399,8.95518 -38.66753,10.2362 -4.25143,0.40392 -13.78263,0.68875 -16.87405,0.50428 z m 10.45104,-4.33963 c 26.61714,-1.24403 50.49866,-10.57539 71.17292,-27.8098 3.32236,-2.76957 10.43938,-9.84264 13.409,-13.32618 19.55325,-22.9371 29.56563,-51.96603 28.25689,-81.9253 -0.9471,-21.68074 -7.32537,-41.54099 -19.21261,-59.82302 -4.33262,-6.66337 -8.97738,-12.30563 -15.41917,-18.73056 -9.31079,-9.286415 -19.16992,-16.438579 -30.43565,-22.079101 -36.19047,-18.119836 -79.1577,-16.475625 -113.78492,4.354166 -21.63991,13.01736 -38.382174,32.384155 -48.292596,55.862995 -11.311559,26.79827 -12.036942,58.41122 -1.969398,85.82832 6.129553,16.69271 14.961804,30.48246 27.627244,43.13426 5.51688,5.51094 9.41334,8.82504 15.38985,13.0897 17.82743,12.72111 40.09272,20.40973 62.01365,21.41447 2.40109,0.11006 4.66328,0.21577 5.02708,0.23492 0.36381,0.0191 3.16178,-0.082 6.21771,-0.22487 z m -13.62604,-4.13063 C 160.31831,284.33329 135.83754,273.03551 116.36926,253.41625 85.950681,222.76177 75.416737,177.98856 88.988866,137.03932 97.019597,112.80934 112.87014,92.089037 134.26476,77.853284 c 10.52784,-7.005105 22.94208,-12.525208 34.92501,-15.529716 26.64432,-6.680596 54.82089,-3.655967 79.08545,8.489471 11.09775,5.554889 20.60311,12.403156 29.57003,21.304116 19.47065,19.327425 31.03269,44.327325 33.31823,72.041955 0.44968,5.45287 0.16228,17.94957 -0.53031,23.05923 -3.05367,22.52848 -11.44352,41.7783 -25.72663,59.02758 -2.75458,3.32663 -9.905,10.53038 -13.45532,13.55566 -17.3923,14.82031 -37.64418,23.67844 -60.85417,26.6175 -3.1641,0.40067 -18.70719,0.73766 -21.69583,0.47038 z m 5.53977,-11.80378 c 0.12708,-0.32742 0.80235,-2.53008 1.5006,-4.89479 0.69826,-2.36472 1.34551,-4.29948 1.43834,-4.29948 0.0928,0 0.31614,0.50601 0.49624,1.12448 0.1801,0.61846 0.86179,2.82659 1.51487,4.90695 l 1.18742,3.78248 1.63096,-0.0783 1.63096,-0.0783 0.83946,-3.04271 c 0.46171,-1.67349 1.40304,-5.18583 2.09186,-7.80521 0.68882,-2.61937 1.31038,-4.91684 1.38126,-5.10549 0.0998,-0.26561 -0.30693,-0.32529 -1.80292,-0.26458 l -1.93179,0.0784 -1.01454,4.49792 c -0.558,2.47386 -1.08662,4.67651 -1.17471,4.89479 -0.0896,0.22202 -0.88435,-1.75966 -1.80389,-4.49791 l -1.64373,-4.8948 -1.35413,-0.0795 -1.35413,-0.0795 -1.51089,4.70969 c -0.83098,2.59033 -1.59804,4.80961 -1.70455,4.93174 -0.10652,0.12212 -0.71825,-1.96147 -1.3594,-4.63021 l -1.16573,-4.85226 -1.68098,-0.0798 c -0.92454,-0.0439 -1.77591,0.0156 -1.89194,0.1323 -0.15569,0.15652 3.28291,13.38613 4.12973,15.88864 0.0731,0.21592 0.66886,0.33073 1.71625,0.33073 1.4189,0 1.63103,-0.0688 1.83538,-0.59531 z m -19.1051,-3.22396 c 0.20485,-0.70255 0.275,-1.36065 0.15588,-1.46246 -0.11912,-0.10181 -1.82393,-0.64346 -3.78846,-1.20367 -1.96453,-0.5602 -3.61754,-1.05262 -3.67335,-1.09426 -0.2188,-0.16326 0.90625,-3.53284 1.17957,-3.53284 0.16003,0 1.4712,0.35583 2.91372,0.79073 1.44252,0.43491 2.81925,0.79209 3.0594,0.79375 0.30673,0.002 0.53207,-0.39481 0.75742,-1.33418 0.17643,-0.73546 0.2776,-1.37892 0.22482,-1.42992 -0.0528,-0.051 -1.40564,-0.47128 -3.00637,-0.93395 -1.60073,-0.46266 -3.00022,-0.92698 -3.10998,-1.03181 -0.26541,-0.25351 0.54222,-2.94004 0.88383,-2.94004 0.1468,0 1.70087,0.41672 3.45349,0.92604 1.75262,0.50933 3.28521,0.92605 3.40575,0.92605 0.2519,0 1.17241,-2.61707 0.98606,-2.80342 -0.13849,-0.13849 -10.91933,-3.282 -11.2558,-3.282 -0.11851,0 -0.40232,0.58427 -0.63068,1.29839 -0.35168,1.09972 -0.35972,1.35388 -0.0525,1.66107 0.30718,0.30718 0.16056,1.06998 -0.95821,4.98513 -0.72649,2.54235 -1.32089,4.65237 -1.32089,4.68893 0,0.0366 -0.21928,0.0665 -0.48729,0.0665 -0.33645,0 -0.58215,0.31663 -0.79375,1.02288 -0.51956,1.73415 -0.46278,1.82622 1.47947,2.39888 0.98227,0.28962 3.57188,1.05589 5.75469,1.70282 2.18281,0.64694 4.0772,1.15117 4.20975,1.1205 0.13255,-0.0307 0.4086,-0.63056 0.61346,-1.3331 z m 52.29333,-0.83154 c 3.07434,-0.95721 5.68817,-1.83554 5.80852,-1.95183 0.30555,-0.29526 -0.37004,-2.41707 -0.82521,-2.59173 -0.20562,-0.0789 -1.98118,0.35787 -3.94568,0.97061 -1.96451,0.61275 -3.60812,1.07665 -3.65248,1.0309 -0.25434,-0.26234 -1.09957,-3.28739 -0.95942,-3.43369 0.0925,-0.0965 1.4183,-0.55706 2.94627,-1.02341 1.52797,-0.46635 2.88472,-0.94641 3.015,-1.06679 0.2439,-0.22536 -0.28409,-2.54528 -0.62759,-2.75757 -0.10221,-0.0632 -1.48486,0.29512 -3.07256,0.79619 -1.5877,0.50108 -3.01283,0.91302 -3.16695,0.91542 -0.34698,0.005 -1.23678,-2.68953 -0.97093,-2.94067 0.10605,-0.10019 1.62157,-0.62201 3.36782,-1.15961 1.74625,-0.5376 3.27742,-1.07344 3.4026,-1.19076 0.18372,-0.1722 -0.50387,-2.90667 -0.73089,-2.90667 -0.0351,0 -0.59112,0.17142 -1.23551,0.38093 -0.64439,0.20951 -3.13614,0.99917 -5.53724,1.75479 -2.40109,0.75562 -4.40881,1.41121 -4.46158,1.45687 -0.0528,0.0457 0.0467,0.67781 0.22112,1.40479 0.237,0.9879 0.45166,1.34237 0.84984,1.40334 0.76257,0.11676 3.54005,8.77608 3.09357,9.64476 -0.26353,0.51272 -0.0218,1.92666 0.4797,2.80609 0.1642,0.28793 -0.0631,0.34632 6.0016,-1.54196 z m -76.2643,-7.70818 0.57009,-0.92243 -0.65396,-0.56918 c -0.58642,-0.51041 -0.64233,-0.7281 -0.5414,-2.10783 0.12281,-1.6789 0.19089,-1.74618 2.31053,-2.28341 0.9476,-0.24017 1.20664,-0.50529 2.47574,-2.53388 1.34444,-2.14899 1.40808,-2.32977 1.23616,-3.51111 -0.0997,-0.685 -0.3342,-1.48418 -0.52113,-1.77594 -0.35335,-0.55151 -8.838,-5.95181 -9.35114,-5.95181 -0.16056,0 -0.58639,0.49379 -0.94628,1.09731 -0.48422,0.812 -0.5855,1.20756 -0.38953,1.52136 0.20628,0.33031 -0.26294,1.26184 -2.12255,4.21385 -2.81282,4.46516 -2.88087,4.55409 -3.34814,4.37478 -0.4217,-0.16182 -1.82202,1.89703 -1.63022,2.39686 0.10292,0.2682 3.1746,2.27084 3.48305,2.27084 0.0511,0 0.7214,-1.02499 1.48965,-2.27776 0.76826,-1.25277 1.54019,-2.33277 1.7154,-2.4 0.17521,-0.0672 0.75456,0.15408 1.28744,0.49182 l 0.96887,0.61406 -0.15869,1.85208 c -0.0873,1.01865 -0.22844,2.52488 -0.31371,3.34719 l -0.15504,1.49509 1.67862,1.06727 c 1.84509,1.17312 1.94719,1.15879 2.91624,-0.40916 z m -2.50071,-9.99079 c -0.99259,-0.63113 -1.87209,-1.21488 -1.95444,-1.29723 -0.0824,-0.0823 0.35846,-0.92971 0.97957,-1.88303 l 1.1293,-1.73331 0.82514,0.49406 c 2.83504,1.69749 3.33869,2.07074 3.33869,2.47426 0,0.71348 -1.62383,3.13016 -2.09007,3.11056 -0.23291,-0.01 -1.23559,-0.53418 -2.22819,-1.16531 z m 99.10477,9.2386 c 0.69096,-0.4287 1.25651,-0.86459 1.25677,-0.96867 2.6e-4,-0.10407 -0.65437,-1.20431 -1.45474,-2.44498 -0.80036,-1.24066 -1.4552,-2.35936 -1.4552,-2.48599 0,-0.12662 0.50677,-0.49908 1.12617,-0.82766 l 1.12618,-0.59744 2.68001,1.619 c 1.474,0.89045 2.81038,1.619 2.96973,1.619 0.21856,0 2.85335,-1.53577 3.42794,-1.99808 0.0711,-0.0572 -1.1332,-2.12383 -1.44416,-2.47818 -0.0534,-0.0609 -0.38859,0.0454 -0.74487,0.23603 -0.74725,0.39992 -1.62976,0.1339 -2.89033,-0.87124 -0.75009,-0.5981 -0.75257,-0.60999 -0.4406,-2.11276 l 0.31374,-1.51127 -1.38683,-2.26145 c -0.76275,-1.2438 -1.58424,-2.36711 -1.82551,-2.49623 -0.24128,-0.12913 -1.02483,-0.31171 -1.74123,-0.40573 -1.30107,-0.17075 -1.30767,-0.16771 -5.86465,2.6968 -2.50916,1.57726 -4.56299,2.95959 -4.56406,3.07185 -0.005,0.52059 1.43037,2.28802 1.91695,2.36047 0.8051,0.11988 5.63939,7.85017 5.27457,8.43433 -0.19658,0.31478 -0.0652,0.73988 0.51876,1.67804 0.7371,1.18427 0.81544,1.2354 1.36355,0.89003 0.31983,-0.20154 1.14685,-0.71718 1.83781,-1.14587 z m -4.53242,-10.34871 -1.07361,-1.79267 1.98191,-1.26435 c 1.09006,-0.69539 2.14887,-1.26434 2.35291,-1.26434 0.44881,0 2.27666,2.84088 2.10316,3.26878 -0.10121,0.24963 -3.41617,2.48861 -4.09346,2.7648 -0.10851,0.0442 -0.68042,-0.72625 -1.27091,-1.71222 z m -34.60637,-4.82364 c 16.01685,-2.59955 29.65303,-9.4791 41.15369,-20.76232 12.9492,-12.70438 20.54602,-28.67675 22.29034,-46.86561 0.38625,-4.02767 0.16151,-13.55448 -0.41195,-17.4625 -2.79997,-19.08123 -12.46098,-35.94221 -27.53084,-48.04848 -14.53091,-11.6733 -32.30183,-17.357546 -51.13518,-16.356215 -18.80977,1.000077 -35.57599,8.505445 -49.00961,21.939065 -11.6653,11.6653 -18.8788,25.91158 -21.30122,42.06875 -0.94554,6.30662 -0.95701,15.43369 -0.0276,21.96042 3.08599,21.67097 15.813,41.12069 34.73118,53.07701 2.93252,1.85336 10.00364,5.33724 13.32054,6.56292 5.24402,1.9378 11.42086,3.44622 16.80105,4.10292 1.30968,0.15986 2.73843,0.33865 3.175,0.39732 0.43656,0.0587 3.88937,0.0686 7.67291,0.022 5.39145,-0.0663 7.61285,-0.20374 10.27168,-0.63527 z m -15.56334,-3.2093 c -4.55131,-0.23921 -11.6595,-1.48154 -14.4913,-2.53271 -0.54864,-0.20366 -1.27727,-0.37029 -1.61917,-0.37029 -0.79303,0 -3.64814,-0.9077 -4.44626,-1.41356 -0.33546,-0.21262 -1.02666,-0.46927 -1.53598,-0.57034 -1.19612,-0.23734 -7.90215,-3.45591 -10.82802,-5.19691 -1.24787,-0.74253 -2.7451,-1.80143 -3.32719,-2.3531 -0.58208,-0.55167 -1.47505,-1.1746 -1.98437,-1.38428 -0.50933,-0.20968 -1.86108,-1.23215 -3.00391,-2.27215 -1.14282,-1.04 -2.19054,-1.89091 -2.32826,-1.89091 -0.34639,0 -5.50252,-5.18466 -6.44663,-6.4823 -0.66728,-0.91714 -1.23716,-1.61866 -3.15882,-3.88853 -0.20904,-0.24692 -0.55281,-0.78298 -0.76393,-1.19125 -0.21112,-0.40826 -0.63311,-0.96787 -0.93775,-1.24356 -0.30464,-0.2757 -0.86819,-1.04933 -1.25232,-1.71917 -0.38413,-0.66985 -1.08439,-1.81322 -1.55612,-2.54082 -1.20013,-1.85107 -2.51268,-4.52081 -2.51268,-5.11082 0,-0.27264 -0.22184,-0.69647 -0.49299,-0.94185 -0.76789,-0.69494 -2.95497,-6.477 -2.94927,-7.79711 0.001,-0.34134 -0.21869,-0.93665 -0.48926,-1.32292 -0.79451,-1.13427 -1.88931,-5.0488 -1.88931,-6.75536 0,-0.50818 -0.12887,-1.25912 -0.28638,-1.66878 -0.54462,-1.41652 -1.26553,-8.82156 -1.28315,-13.18025 -0.0117,-2.89616 0.57999,-9.65562 0.88898,-10.15557 0.0891,-0.14422 0.28408,-1.25196 0.43323,-2.46165 0.14915,-1.20969 0.37798,-2.55663 0.50852,-2.99319 0.13053,-0.43656 0.49615,-1.74625 0.81247,-2.91042 0.31632,-1.16417 0.72809,-2.47385 0.91505,-2.91042 0.18696,-0.43656 0.40197,-1.03187 0.4778,-1.32291 0.29904,-1.14769 1.71093,-4.59327 2.12359,-5.18243 0.24033,-0.34312 0.43697,-0.83442 0.43697,-1.09177 0,-0.82903 2.58559,-5.47181 5.44435,-9.77607 1.53071,-2.3047 2.87641,-4.19036 2.99044,-4.19036 0.11404,0 0.57469,-0.56555 1.02366,-1.25677 1.0548,-1.62392 5.48326,-6.3304 6.4049,-6.807 0.39087,-0.20212 1.11894,-0.77813 1.61793,-1.28 2.05223,-2.06409 5.68249,-5.00509 7.45823,-6.04217 1.04176,-0.60842 2.3844,-1.47338 2.98366,-1.92212 0.59925,-0.44874 2.15192,-1.34156 3.45038,-1.98402 1.29845,-0.64247 3.02437,-1.50215 3.83537,-1.91041 2.32378,-1.16978 6.0708,-2.54723 8.48356,-3.11865 2.79343,-0.66158 6.03543,-1.50577 7.85169,-2.04451 0.7731,-0.22932 2.85669,-0.52076 4.63021,-0.64766 1.77352,-0.12689 3.93895,-0.3497 4.81208,-0.49513 1.96933,-0.32801 9.18922,-0.10329 12.5677,0.39118 1.38245,0.20233 3.18346,0.44009 4.00223,0.52836 1.99457,0.21501 9.41495,2.1362 10.17542,2.63448 0.33304,0.21821 1.17861,0.52466 1.87905,0.68099 0.70043,0.15633 1.86883,0.56656 2.59643,0.91163 0.7276,0.34506 2.14303,0.95857 3.14538,1.36335 1.00236,0.40478 2.27291,1.06227 2.82346,1.46108 0.55054,0.39881 1.93973,1.19711 3.08708,1.77398 1.14735,0.57688 2.25057,1.24705 2.45159,1.48927 0.20103,0.24222 0.96249,0.74291 1.69214,1.11266 2.31056,1.17084 6.12539,4.25368 9.75779,7.88542 3.42054,3.41993 4.90846,5.06138 5.31518,5.86361 0.23325,0.4601 0.70263,1.05563 1.04306,1.32341 2.03275,1.59897 7.51855,10.70985 8.94506,14.85607 0.27777,0.80737 0.67195,1.65483 0.87595,1.88326 0.49989,0.55973 2.15233,5.35725 2.96816,8.6174 1.25453,5.01327 1.65928,7.12051 1.92811,10.03824 0.44092,4.78537 0.44815,13.76914 0.0134,16.68468 -0.15188,1.01864 -0.39069,2.71815 -0.53069,3.77667 -0.14,1.05852 -0.43354,2.35299 -0.65231,2.87658 -0.21878,0.5236 -0.39777,1.29024 -0.39777,1.70364 0,0.4134 -0.23813,1.35577 -0.52917,2.09415 -0.29104,0.73838 -0.52917,1.58562 -0.52917,1.88275 0,0.87969 -2.51074,7.3159 -3.91135,10.02662 -2.20228,4.26225 -3.8645,7.22069 -4.75534,8.46355 -0.46937,0.65484 -1.391,1.98163 -2.04808,2.94842 -0.65708,0.96678 -1.86373,2.45507 -2.68143,3.30729 -0.81771,0.85222 -2.11266,2.32924 -2.87766,3.28227 -1.40999,1.75653 -4.34903,4.48494 -4.83118,4.48494 -0.14487,0 -0.56184,0.39127 -0.92661,0.8695 -0.36476,0.47823 -1.18256,1.21801 -1.81734,1.64396 -0.63477,0.42595 -1.83713,1.3146 -2.67191,1.97477 -2.01871,1.59647 -7.1022,4.76919 -7.6441,4.77086 -0.23684,7.3e-4 -0.56915,0.16823 -0.73845,0.37224 -0.16931,0.204 -0.62311,0.45004 -1.00845,0.54676 -0.38534,0.0967 -1.02953,0.41005 -1.43154,0.69631 -1.60548,1.1432 -9.71325,4.20685 -11.13319,4.20685 -0.4335,0 -1.16337,0.16463 -1.62192,0.36585 -3.36526,1.47672 -6.8295,1.99138 -17.76707,2.63953 -0.72761,0.0431 -2.87073,-0.003 -4.7625,-0.10238 z m 6.69977,-4.38079 c 1.70271,-0.15421 1.96556,-0.24985 2.17086,-0.78984 0.12848,-0.33791 0.59616,-1.11489 1.03929,-1.72662 0.44314,-0.61173 0.8057,-1.26384 0.8057,-1.44914 0,-0.18531 0.39708,-0.85712 0.8824,-1.49292 0.48532,-0.6358 1.32929,-1.95513 1.8755,-2.93183 0.5462,-0.9767 1.08625,-1.71825 1.20011,-1.64788 0.25299,0.15636 -0.3542,2.8755 -1.0226,4.57948 -0.26924,0.6864 -0.57812,1.78378 -0.6864,2.43862 -0.10828,0.65484 -0.42047,1.50666 -0.69377,1.89293 -0.2733,0.38626 -0.49691,0.78368 -0.49691,0.88315 0,0.19947 1.79861,-0.0361 3.04271,-0.39844 0.43657,-0.12717 1.29977,-0.36156 1.91823,-0.52087 0.69958,-0.18021 1.12448,-0.44088 1.12448,-0.68983 0,-0.2201 0.48947,-1.55019 1.08771,-2.95576 0.63804,-1.49906 1.19383,-3.32132 1.34439,-4.40781 0.14384,-1.03791 0.52725,-2.3221 0.87212,-2.92102 0.81495,-1.41531 1.46715,-4.64044 1.6504,-8.16116 0.0818,-1.57246 0.24144,-2.76309 0.35467,-2.64584 0.47739,0.49438 1.01131,4.43305 1.05108,7.75382 0.0498,4.16059 -0.30184,8.12146 -0.94637,10.65901 -0.25082,0.98751 -0.40619,1.84532 -0.34526,1.90625 0.2194,0.2194 4.66526,-1.11204 5.41202,-1.62078 0.42022,-0.28628 1.80005,-0.97372 3.06629,-1.52764 l 2.30226,-1.00714 0.30364,-1.46263 c 0.5675,-2.73364 0.30244,-12.55842 -0.43012,-15.94291 -0.23623,-1.0914 -0.99383,-3.175 -1.68355,-4.63021 -0.68971,-1.45521 -1.40819,-3.14231 -1.5966,-3.74913 -0.18841,-0.60681 -0.86243,-1.69759 -1.49783,-2.42394 -0.63539,-0.72635 -1.15526,-1.40216 -1.15526,-1.50179 0,-0.57828 -2.10193,-4.46106 -3.10926,-5.74357 -0.84082,-1.0705 -1.13339,-1.6501 -1.00168,-1.98438 0.15784,-0.4006 0.36915,-0.27163 1.39386,0.85073 1.64191,1.79838 3.77541,4.63833 3.77541,5.02553 0,0.17403 0.25331,0.54323 0.56291,0.82044 0.64499,0.57751 3.36239,4.54707 4.05806,5.92799 0.25659,0.50932 0.73959,1.2237 1.07334,1.5875 0.33375,0.3638 0.96411,1.58893 1.40079,2.72251 0.43669,1.13359 1.31089,2.85455 1.94267,3.82436 1.07308,1.64724 1.1496,1.88599 1.16262,3.62748 0.0156,2.08299 0.24326,3.49836 0.80087,4.9784 0.2067,0.54865 0.37582,1.68966 0.37582,2.53559 0,0.84593 0.0698,1.60786 0.15515,1.69319 0.0853,0.0853 2.06213,-1.29381 4.39289,-3.06476 2.33077,-1.77094 4.50627,-3.36713 4.83444,-3.54709 0.80747,-0.44278 2.12369,-2.45784 2.03298,-3.11239 -0.0667,-0.48147 -1.84777,-4.40841 -2.88002,-6.35 -0.56087,-1.05495 -1.98322,-3.17747 -3.04604,-4.5455 -0.47255,-0.60826 -1.56843,-2.20048 -2.43527,-3.53827 -0.86685,-1.3378 -1.92025,-2.6856 -2.34089,-2.99513 -0.42065,-0.30952 -0.93144,-0.88357 -1.13509,-1.27566 -0.66699,-1.28417 -2.98783,-3.87132 -4.25478,-4.74301 -0.68278,-0.46976 -1.60485,-1.27983 -2.04906,-1.80015 -0.4442,-0.52032 -1.34506,-1.42228 -2.00191,-2.00436 -0.65685,-0.58209 -1.84912,-1.7277 -2.64948,-2.54581 -0.80037,-0.8181 -1.65181,-1.554 -1.89211,-1.63531 -0.69117,-0.2339 -3.13497,-2.05925 -3.13497,-2.34161 0,-0.14046 0.0893,-0.20591 0.19843,-0.14544 2.58655,1.43295 4.36983,2.56566 5.18927,3.29614 0.56215,0.50112 1.46588,1.10982 2.00829,1.35266 1.14561,0.51291 3.98109,2.42176 3.98109,2.68009 0,0.0967 1.13087,0.91803 2.51304,1.8251 1.38217,0.90706 2.83511,2.08804 3.22874,2.6244 0.39364,0.53636 1.47885,1.7491 2.41157,2.69498 0.93272,0.94589 1.79854,1.98763 1.92403,2.31499 0.1255,0.32735 0.57503,0.80612 0.99896,1.06393 1.70194,1.03501 4.00311,4.69875 5.85452,9.32108 0.32058,0.80037 0.74978,1.87193 0.95379,2.38125 0.20401,0.50933 0.46139,1.38156 0.57197,1.93831 l 0.20105,1.01226 0.59135,-0.61539 c 3.77893,-3.93251 4.85167,-5.64885 4.47316,-7.15693 -0.14546,-0.57958 -2.38273,-3.75217 -3.31344,-4.69867 -0.21217,-0.21577 -0.77853,-1.00631 -1.25859,-1.75676 -0.55539,-0.86821 -1.3647,-1.66711 -2.22524,-2.19661 -0.99804,-0.6141 -1.48709,-1.13662 -1.86642,-1.99416 -0.65242,-1.47489 -4.44426,-5.0626 -5.62466,-5.32186 -0.5526,-0.12137 -1.53559,-0.89927 -2.94858,-2.3334 -2.3854,-2.42108 -5.82625,-4.7059 -8.07275,-5.36052 -2.04085,-0.5947 -4.2275,-1.74782 -5.14252,-2.71187 -1.04146,-1.09729 -3.84156,-2.14258 -9.6747,-3.61165 -4.11938,-1.03745 -4.98768,-1.17682 -6.36265,-1.02126 -1.19969,0.13573 -2.12822,0.0463 -3.76609,-0.36265 -3.28765,-0.82091 -5.39462,-1.12966 -7.73008,-1.13273 -10.16107,-0.0133 -16.88667,-0.16686 -19.44688,-0.44387 -5.51291,-0.59651 -12.28728,-1.07191 -13.21672,-0.92752 -0.56207,0.0873 -1.58012,-0.0707 -2.64583,-0.41073 -1.88395,-0.60107 -5.56526,-1.56523 -7.35398,-1.92606 -0.61811,-0.12468 -1.91856,-0.64844 -2.88989,-1.1639 -0.97132,-0.51546 -2.23104,-1.07651 -2.79936,-1.24679 -0.70482,-0.21117 -1.40389,-0.74335 -2.19901,-1.67404 -1.42926,-1.67298 -1.96812,-2.90795 -1.96812,-4.51061 0,-2.10115 2.86334,-6.65611 7.39002,-11.75592 2.50553,-2.82276 3.72248,-4.33647 3.72248,-4.63021 0,-0.173 0.59531,-0.99484 1.32291,-1.82631 0.72761,-0.83148 1.32292,-1.70139 1.32292,-1.93314 0,-0.23175 0.8632,-1.26684 1.91823,-2.30019 1.76395,-1.72773 3.78563,-4.00197 4.65294,-5.2342 0.1944,-0.27619 0.8295,-0.80269 1.41134,-1.16999 0.58184,-0.3673 1.25622,-1.04695 1.49863,-1.51033 0.2424,-0.46338 1.15511,-1.56448 2.02824,-2.44689 0.87312,-0.88241 2.00421,-2.18599 2.51354,-2.89686 0.50932,-0.71086 1.67148,-1.92366 2.58257,-2.6951 1.41074,-1.19449 1.81691,-1.40262 2.73731,-1.40262 1.39274,0 2.21941,0.52006 3.62231,2.2788 0.96974,1.21571 1.26775,1.42537 2.026,1.42537 0.73435,0 1.10042,-0.23513 2.10416,-1.35153 0.66833,-0.74335 1.21514,-1.4497 1.21514,-1.56967 0,-0.11998 0.22874,-0.29074 0.50831,-0.37947 0.27957,-0.0887 1.44042,-1.09218 2.57969,-2.22988 3.96713,-3.96171 7.92413,-4.80497 10.06788,-2.14553 0.64143,0.79572 3.30396,2.01163 3.84054,1.75386 0.9869,-0.47409 2.99634,-2.14143 3.6243,-3.00729 0.66808,-0.92115 2.16643,-2.37401 2.97901,-2.88855 0.19151,-0.12126 0.67168,-0.65478 1.06704,-1.18559 0.39537,-0.5308 1.2318,-1.21341 1.85873,-1.51691 0.98699,-0.47779 1.34307,-0.51874 2.65461,-0.30528 1.37914,0.22446 1.73363,0.43881 3.96054,2.39488 1.64629,1.44607 2.60592,2.51003 2.93559,3.25476 0.26938,0.60852 1.24309,1.88031 2.16379,2.8262 1.82794,1.87793 5.15164,6.26451 5.15164,6.79907 0,0.18386 0.80367,1.21818 1.78594,2.29849 0.98227,1.08031 2.19926,2.66023 2.70443,3.51093 0.50517,0.8507 1.54956,2.17686 2.32086,2.94704 1.54878,1.54651 4.14327,4.73263 5.05468,6.20731 0.32262,0.52203 0.98095,1.18182 1.46294,1.4662 0.48199,0.28438 1.26615,1.09754 1.74258,1.80703 0.47644,0.70948 1.0605,1.40169 1.29793,1.53823 0.23743,0.13654 0.78887,0.65308 1.22543,1.14786 0.91233,1.034 3.9568,3.23409 4.47532,3.23409 0.19191,0 0.59589,-0.59427 0.89774,-1.32061 0.64913,-1.56197 1.0653,-1.54451 1.73379,0.0727 0.25362,0.61357 0.68398,1.41017 0.95637,1.77023 0.47517,0.62811 0.51602,0.63584 1.00801,0.19059 0.54509,-0.49329 1.2393,-1.95792 1.49796,-3.16034 0.23867,-1.10947 0.77381,-0.87283 1.40506,0.62129 0.6748,1.59721 1.082,1.58846 1.68288,-0.0361 0.48006,-1.29794 0.90089,-1.59852 1.14799,-0.81996 0.21416,0.67475 1.16918,1.88846 1.48596,1.88846 0.13496,0 0.24538,-0.30408 0.24538,-0.67574 0,-0.81813 -2.11813,-6.56242 -3.16548,-8.58467 l -0.75367,-1.45521 -3.53053,-0.30912 c -4.07519,-0.3568 -3.66282,-0.29117 -3.66282,-0.58294 0,-0.12683 1.2857,-0.28357 2.85711,-0.34831 3.22044,-0.13269 3.62771,-0.2623 3.21972,-1.02465 -0.21954,-0.4102 -0.56026,-0.51311 -1.69887,-0.51311 -0.78334,0 -1.61259,-0.0723 -1.84278,-0.1606 -0.66756,-0.25617 -0.48473,-0.63282 0.30909,-0.63676 0.98713,-0.005 1.91823,-0.27289 1.91823,-0.5521 0,-0.37175 -3.77681,-5.85092 -5.29452,-7.68097 -0.76867,-0.92686 -1.64803,-1.76262 -1.95413,-1.85726 -0.30611,-0.0946 -1.47226,-0.18393 -2.59146,-0.19844 -1.1192,-0.0145 -2.10901,-0.14627 -2.19958,-0.29282 -0.18375,-0.29731 -0.0979,-0.331 2.05167,-0.8053 1.65582,-0.36535 1.8372,-0.66001 0.92604,-1.50431 -0.83161,-0.77058 -2.27268,-1.06591 -5.43988,-1.11482 -2.86059,-0.0442 -4.37791,-0.32396 -3.35317,-0.61832 0.28865,-0.0829 1.39873,-0.23199 2.46683,-0.33127 1.0681,-0.0993 2.23876,-0.25988 2.60146,-0.35688 0.64274,-0.17189 0.62263,-0.20972 -0.79336,-1.49211 -2.22376,-2.01396 -5.13935,-4.22078 -7.18969,-5.44193 -1.01865,-0.60668 -2.09021,-1.30108 -2.38125,-1.5431 -0.29104,-0.24202 -1.8888,-1.0854 -3.55058,-1.87418 -2.9964,-1.42228 -3.04351,-1.4345 -5.68855,-1.4758 -1.46691,-0.0229 -2.93501,-0.0568 -3.26243,-0.0752 -1.13671,-0.0642 -0.5862,-0.49578 1.05833,-0.82975 l 1.65365,-0.33582 -1.11165,-0.49677 c -1.67071,-0.7466 -3.63075,-1.06229 -6.49512,-1.04614 -2.63637,0.0149 -3.47509,-0.3507 -1.52136,-0.66311 2.11195,-0.33772 1.16466,-0.69034 -3.83646,-1.42812 -1.16416,-0.17174 -2.65244,-0.47641 -3.30729,-0.67704 -0.7089,-0.2172 -2.58228,-0.382 -4.63021,-0.40731 -1.89177,-0.0234 -3.79677,-0.0506 -4.23333,-0.0606 -2.05007,-0.0467 -9.93423,0.68955 -11.1125,1.0377 -0.72761,0.21499 -2.03729,0.55282 -2.91042,0.75072 l -1.5875,0.35983 1.37345,0.0293 c 0.7554,0.0161 1.43867,0.13484 1.51838,0.26381 0.19665,0.31819 -0.88172,0.57579 -1.62715,0.3887 -0.33185,-0.0833 -1.08199,0.0401 -1.66698,0.27414 -0.58499,0.23407 -1.59528,0.42558 -2.24509,0.42558 -1.28037,0 -2.83914,0.32713 -5.22501,1.09654 -0.83733,0.27003 -1.76109,0.49096 -2.05281,0.49096 -0.29173,0 -1.02398,0.35754 -1.62723,0.79453 -0.60325,0.43699 -1.58448,0.92097 -2.18052,1.0755 -1.20635,0.31278 -3.80411,1.79846 -5.11044,2.92271 -1.03402,0.88989 -0.9751,0.91591 2.63731,1.1645 1.41862,0.0976 2.63681,0.27053 2.70708,0.38423 0.24272,0.39273 -2.73799,0.6549 -5.95211,0.52352 -1.08984,-0.0446 -3.16677,0.48204 -4.2084,1.06701 -0.49059,0.27551 -0.35276,0.33882 1.56682,0.71978 1.18722,0.23561 1.18348,0.23723 -1.31157,0.56796 l -2.5022,0.33168 -2.52489,2.44783 c -1.38869,1.34631 -2.91184,2.67572 -3.38478,2.95425 -0.47294,0.27853 -0.8599,0.59252 -0.8599,0.69775 0,0.10523 0.53578,0.27167 1.19063,0.36987 0.65484,0.0982 1.19062,0.26871 1.19062,0.37891 0,0.1102 -0.71145,0.28086 -1.581,0.37924 -0.86955,0.0984 -1.7633,0.36116 -1.98611,0.58397 -0.4668,0.4668 -1.01514,1.42737 -0.88609,1.55225 0.0482,0.0466 1.37706,0.2139 2.95309,0.37173 4.48055,0.44871 4.43515,1.01511 -0.0874,1.09028 -3.48275,0.0579 -5.0479,0.3027 -5.387,0.84262 -0.15555,0.24768 -0.2177,0.51545 -0.13811,0.59505 0.0796,0.0796 1.24337,0.2227 2.58617,0.31802 1.3428,0.0953 2.29977,0.26086 2.12661,0.36788 -0.17316,0.10702 -1.54413,0.27837 -3.04661,0.38078 -1.52357,0.10384 -2.84182,0.32156 -2.98061,0.49227 -0.13687,0.16835 -0.57398,0.9014 -0.97134,1.629 -0.39737,0.72761 -0.94639,1.56956 -1.22006,1.87102 -0.27367,0.30145 -0.95174,1.43254 -1.50682,2.51354 -0.55509,1.08099 -1.34521,2.54322 -1.75584,3.24938 -0.56862,0.97789 -0.66643,1.33347 -0.41034,1.49175 0.18493,0.11429 1.69023,0.29241 3.3451,0.39581 1.65487,0.1034 3.00885,0.29531 3.00885,0.42648 0,0.13117 -0.29595,0.23848 -0.65766,0.23848 -0.36171,0 -1.17556,0.13852 -1.80855,0.30782 -0.82613,0.22095 -1.4564,0.23027 -2.23353,0.033 -0.59545,-0.15114 -1.37685,-0.21856 -1.73644,-0.14982 -0.7149,0.13667 -1.04057,0.82483 -2.72008,5.74772 l -0.89775,2.63144 0.63118,0.67585 c 0.34714,0.37172 0.82641,1.06281 1.06504,1.53575 0.52378,1.03807 1.09397,1.10973 1.33053,0.16722 0.0956,-0.38097 0.238,-0.62852 0.31642,-0.55011 0.26753,0.26753 1.67667,4.5484 1.68022,5.10439 0.002,0.30486 -0.22205,0.75846 -0.49777,1.00798 -0.27572,0.24953 -0.93531,1.15681 -1.46575,2.01619 -1.45059,2.35014 -1.76782,5.89909 -0.8922,9.98142 0.16387,0.76398 0.37953,1.38906 0.47926,1.38906 0.0997,0 0.39682,-0.23812 0.66021,-0.52917 0.26338,-0.29104 0.56993,-0.52916 0.6812,-0.52916 0.11127,0 0.3984,0.59038 0.63808,1.31197 0.23967,0.72158 0.72549,1.7389 1.07959,2.26071 0.35411,0.5218 0.64383,1.06251 0.64383,1.20157 0,0.50499 0.83383,0.23575 1.43525,-0.46344 l 0.61611,-0.71627 0.56182,1.16284 c 0.309,0.63956 0.56182,1.29923 0.56182,1.46592 0,0.47165 1.80185,2.15836 2.70558,2.53269 0.76333,0.31619 0.85054,0.28958 1.44037,-0.4394 0.34531,-0.42678 0.69904,-1.04904 0.78606,-1.3828 0.21898,-0.83984 0.68945,-0.59543 0.94812,0.49254 0.32587,1.37057 1.58476,3.95075 1.92761,3.95075 0.54288,0 2.51101,-2.59037 2.51101,-3.30488 0,-0.52485 0.73769,-0.82577 1.11047,-0.45299 0.15463,0.15463 0.31271,0.56875 0.3513,0.92027 0.0386,0.35152 0.19319,0.86589 0.34357,1.14305 0.15038,0.27716 0.53805,1.09924 0.86148,1.82684 0.63508,1.42869 1.47964,2.51354 1.95679,2.51354 0.16392,0 0.55927,-0.50601 0.87855,-1.12448 0.31928,-0.61846 0.69311,-1.30307 0.83071,-1.52135 0.13761,-0.21828 0.32037,-0.72939 0.40613,-1.13581 0.14699,-0.69653 0.78419,-1.21878 1.10078,-0.90219 0.0792,0.0792 0.46846,1.07619 0.86498,2.2155 0.80657,2.31748 1.9674,4.32042 2.50396,4.32042 0.19479,0 0.72697,-0.84406 1.18264,-1.87569 0.45566,-1.03163 0.95671,-1.83294 1.11345,-1.7807 0.28569,0.0952 1.15593,2.00096 2.14849,4.70498 0.29182,0.79501 0.77299,1.7859 1.06926,2.20198 0.82256,1.15517 1.27243,2.94583 1.53648,6.11582 0.23829,2.8607 0.23379,2.89926 -0.55471,4.75222 -0.77828,1.82892 -2.01417,3.75319 -2.97098,4.62576 -0.2641,0.24086 -1.03569,1.0126 -1.71464,1.715 -1.56782,1.62194 -4.36343,3.62404 -5.44164,3.89705 -1.19518,0.30264 -7.27741,2.94923 -8.37082,3.64244 -0.50932,0.32291 -1.19393,0.65708 -1.52135,0.7426 -0.32742,0.0855 -0.59627,0.23188 -0.59745,0.32524 -10e-4,0.0934 0.62391,0.78346 1.38906,1.53354 0.76516,0.75007 1.85983,1.91093 2.43259,2.57968 0.57277,0.66875 1.18327,1.21591 1.35667,1.21591 0.1734,0 0.46349,0.1786 0.64465,0.39688 0.18116,0.21828 0.51201,0.39687 0.73522,0.39687 0.69663,0 5.92645,-2.69108 6.91908,-3.56032 0.51956,-0.45498 1.29937,-0.98101 1.73289,-1.16895 1.61801,-0.70144 5.92723,-4.24988 9.43866,-7.77229 1.99468,-2.00091 3.70427,-3.63802 3.79908,-3.63802 0.27789,0 -0.90573,1.8223 -2.6637,4.10104 -0.89812,1.16417 -1.84566,2.53339 -2.10565,3.04271 -0.53624,1.05052 -3.99912,4.55952 -7.10263,7.19722 -1.14753,0.9753 -2.26044,2.02172 -2.47312,2.32537 -0.21269,0.30365 -1.03324,0.91698 -1.82344,1.36294 l -1.43674,0.81084 1.0367,0.96484 c 2.41002,2.24295 5.05354,3.66921 6.24603,3.36991 0.38142,-0.0957 1.19759,-0.63872 1.81372,-1.20665 0.61612,-0.56793 1.81649,-1.2931 2.66747,-1.61149 0.85098,-0.31839 2.44718,-1.15548 3.5471,-1.86019 1.09992,-0.70472 2.05962,-1.22153 2.13268,-1.14847 0.073,0.073 -1.46296,1.73189 -3.41335,3.6863 -1.95039,1.95442 -3.49242,3.58739 -3.42673,3.62883 0.9132,0.57604 3.2622,1.6656 4.19825,1.94731 l 1.20174,0.36167 1.13711,-1.29988 c 0.62541,-0.71494 1.81853,-1.68341 2.65139,-2.15215 1.7777,-1.00052 4.22527,-3.21027 5.82793,-5.26165 0.62626,-0.8016 1.63829,-1.94031 2.24896,-2.53046 1.7264,-1.6684 4.25734,-5.30844 5.57884,-8.02361 0.66077,-1.35763 1.32231,-2.61411 1.4701,-2.79217 0.45594,-0.54938 1.52421,-3.65312 1.71896,-4.99426 0.1167,-0.80368 0.29982,-1.23248 0.49694,-1.16369 0.52824,0.18434 0.2767,5.21666 -0.34986,6.99934 -0.29075,0.82723 -0.52863,1.65511 -0.52863,1.83973 0,0.18463 -0.36488,1.08173 -0.81084,1.99355 -0.44596,0.91182 -1.1009,2.33912 -1.45543,3.17177 -0.35452,0.83265 -1.49649,2.85672 -2.5377,4.49792 -1.0412,1.6412 -2.17454,3.50074 -2.51853,4.1323 -0.34399,0.63156 -1.09618,1.64359 -1.67153,2.24896 -2.17589,2.2894 -3.98311,4.50258 -3.89428,4.76906 0.0507,0.15208 0.97701,0.4982 2.05847,0.76913 1.08146,0.27094 2.05996,0.58428 2.17443,0.6963 0.26774,0.26201 9.2459,0.36507 11.78331,0.13526 z m 10.89502,-30.83539 c 0,-2.22207 -0.0833,-2.61024 -1.04155,-4.85306 -0.57285,-1.3408 -1.40586,-3.02214 -1.85114,-3.73631 -0.44528,-0.71417 -1.17486,-2.0708 -1.6213,-3.01473 -0.50653,-1.07097 -1.45191,-2.37937 -2.51449,-3.48 -0.93652,-0.97008 -1.70277,-1.90896 -1.70277,-2.08641 0,-0.46229 -4.21364,-4.72534 -5.15938,-5.21988 -0.44737,-0.23394 -0.64896,-0.46396 -0.46195,-0.52712 0.47109,-0.15908 4.11067,1.85665 6.00558,3.32612 0.88007,0.68247 2.10614,1.56906 2.7246,1.97021 0.61847,0.40115 1.12448,0.88853 1.12448,1.08308 0,0.54314 1.24375,2.75928 2.23028,3.97395 1.68002,2.06854 2.02739,3.31865 2.82676,10.17306 0.29184,2.50243 0.14288,4.80635 -0.31075,4.80635 -0.13663,0 -0.24837,-1.08657 -0.24837,-2.41526 z m -28.89661,-7.55656 c -0.0718,-0.99118 -0.37013,-2.33792 -0.66308,-2.99277 -0.29294,-0.65484 -0.60715,-1.50582 -0.69823,-1.89107 -0.0911,-0.38524 -0.58313,-1.20018 -1.09343,-1.81097 -0.5103,-0.61079 -0.92782,-1.31871 -0.92782,-1.57316 0,-0.25445 -0.59531,-1.31033 -1.32291,-2.34641 -1.32694,-1.88949 -1.56065,-2.43255 -1.04685,-2.43255 0.62426,0 4.1604,4.01114 5.01652,5.69036 1.18325,2.32088 1.45428,3.43987 1.45428,6.00429 0,3.14866 -0.51789,4.12341 -0.71848,1.35228 z m 9.44973,-8.06738 c -0.7276,-1.03217 -1.90234,-2.36647 -2.61054,-2.9651 -1.30957,-1.10697 -2.6115,-2.3575 -3.81883,-3.6681 -0.36866,-0.40018 -0.78761,-0.7276 -0.93102,-0.7276 -0.14341,0 -0.74864,-0.36129 -1.34497,-0.80287 -0.59632,-0.44157 -1.62,-1.18571 -2.27485,-1.65364 -1.16758,-0.83432 -1.17681,-0.85238 -0.47697,-0.93316 0.39546,-0.0456 1.92808,0.40725 3.43734,1.01575 2.62858,1.05979 2.97727,1.29565 6.09767,4.12459 1.04086,0.94364 2.33293,2.90344 3.02805,4.59293 0.59163,1.43796 0.80469,2.92783 0.41548,2.90535 -0.10914,-0.006 -0.79375,-0.85597 -1.52136,-1.88815 z m -39.45023,-15.48469 c -0.56706,-0.21064 -1.50726,-0.48821 -2.08935,-0.61682 -1.92788,-0.42596 -2.77637,-0.74301 -3.50878,-1.31111 -0.3985,-0.30911 -1.258,-0.93296 -1.91,-1.38634 -0.65199,-0.45338 -1.05213,-0.86876 -0.88919,-0.92308 0.16294,-0.0543 1.35124,0.31452 2.64066,0.81963 1.28942,0.50511 2.88018,1.05824 3.53502,1.22919 0.65484,0.17095 1.48828,0.47056 1.85208,0.66581 0.99332,0.53309 3.13402,1.11465 4.6979,1.27625 0.76484,0.079 1.59827,0.26561 1.85209,0.4146 0.75642,0.44404 -4.95037,0.28879 -6.18043,-0.16813 z m -7.91018,-0.16509 c -3.00159,-1.17686 -5.71519,-4.2808 -6.34288,-7.25529 -0.23976,-1.13616 0.0201,-1.09433 0.51178,0.0824 0.21654,0.51826 0.81345,1.43266 1.32647,2.032 0.51301,0.59935 0.93275,1.21975 0.93275,1.37869 0,0.45922 1.58821,2.26161 1.99286,2.26161 0.4573,0 2.76964,1.37901 2.76964,1.65172 0,0.25796 -0.21782,0.23031 -1.19062,-0.15111 z m 33.65456,-21.07054 c 0.81326,-0.21002 1.59364,-0.76398 2.91341,-2.06813 2.11193,-2.08694 4.50885,-4.91536 4.90815,-5.79173 0.18367,-0.40311 0.50671,-0.61604 0.93458,-0.61604 0.39448,0 0.98119,-0.34383 1.47889,-0.86666 0.45374,-0.47667 1.21374,-1.1409 1.68888,-1.47607 0.47514,-0.33517 1.05078,-0.97082 1.27921,-1.41255 0.60531,-1.17054 2.37981,-3.01953 4.28434,-4.46417 0.91572,-0.69461 1.90663,-1.57017 2.20202,-1.94569 0.29539,-0.37553 0.76655,-0.68278 1.04703,-0.68278 0.65199,0 0.65047,0.80314 -0.006,3.30729 -0.26714,1.01865 -0.43707,1.9035 -0.37761,1.96634 0.0594,0.0628 0.64555,-0.26458 1.30245,-0.7276 0.65689,-0.46303 1.30993,-0.84186 1.4512,-0.84186 0.14184,0 0.25684,0.83708 0.25684,1.86948 0,2.3215 0.27425,2.89302 1.38824,2.89302 0.68053,0 1.11324,-0.28947 2.27418,-1.52136 1.50146,-1.59321 3.54515,-4.53071 4.01874,-5.77635 0.15268,-0.40157 0.68953,-1.29131 1.19301,-1.97718 0.50348,-0.68588 0.91542,-1.43243 0.91542,-1.65901 0,-1.21751 -1.63714,-0.58117 -2.40604,0.93522 -0.31658,0.62432 -0.91676,1.52623 -1.33374,2.00424 -0.41697,0.47801 -0.75871,1.01379 -0.7594,1.19062 -0.002,0.46067 -1.80713,2.36413 -2.08144,2.1946 -0.38439,-0.23756 0.0964,-2.04911 0.98105,-3.69626 1.02441,-1.90741 1.03993,-2.34396 0.10946,-3.07817 -0.86352,-0.68138 -2.28199,-0.59002 -4.23205,0.27258 -2.28792,1.01206 -1.92576,0.53243 2.57962,-3.41627 0.73163,-0.64123 1.67822,-1.77232 2.10353,-2.51354 0.42531,-0.74122 1.22903,-1.79117 1.78605,-2.33324 0.90594,-0.88162 1.11696,-0.96867 2.00057,-0.82528 0.54329,0.0882 0.9878,0.28715 0.9878,0.44219 0,0.3963 -1.25441,2.22168 -2.42985,3.53584 -1.57807,1.7643 -1.69964,3.25678 -0.26529,3.25678 0.41858,0 0.96052,-0.22041 1.20432,-0.48981 0.35216,-0.38914 0.72766,-0.46831 1.82694,-0.38519 1.56221,0.11811 3.10347,0.77568 3.10347,1.32408 0,0.20117 -0.23813,0.83252 -0.52917,1.40301 -0.29104,0.57049 -0.52917,1.35529 -0.52917,1.744 0,0.38871 -0.59531,1.74703 -1.32291,3.0185 -0.72761,1.27146 -1.32292,2.50841 -1.32292,2.74875 0,0.39325 0.0993,0.38591 0.99219,-0.0733 1.55053,-0.79749 2.83464,-2.47269 4.58303,-5.97891 0.54562,-1.09417 1.39132,-1.47995 2.40538,-1.09723 0.73344,0.2768 0.8529,0.23375 1.56608,-0.56441 0.42464,-0.47524 0.77207,-1.04079 0.77207,-1.25678 0,-1.14602 1.89328,0.19961 2.32954,1.6557 0.16907,0.5643 0.57729,1.26817 0.90716,1.56416 0.75692,0.67916 4.7268,2.79964 4.90597,2.62047 0.0735,-0.0735 -0.37598,-1.2573 -0.99883,-2.63067 -1.01205,-2.23153 -1.24272,-2.54676 -2.16938,-2.96463 -0.57031,-0.25717 -1.26127,-0.78266 -1.53548,-1.16774 -0.27511,-0.38637 -0.96952,-0.84126 -1.54943,-1.015 -0.76405,-0.22892 -1.79908,-1.054 -3.79215,-3.02294 -2.74825,-2.71498 -4.4474,-4.61279 -4.4474,-4.96737 0,-0.1043 0.16507,-0.59113 0.36682,-1.08185 0.38355,-0.9329 0.17614,-2.08283 -0.37569,-2.08283 -0.41798,0 -1.33075,0.51164 -2.19424,1.22994 -0.41135,0.34218 -0.98492,0.62215 -1.2746,0.62215 -0.64698,0 -0.55438,-0.43848 0.62763,-2.97184 1.58391,-3.39476 0.63315,-2.79064 -5.58861,3.55103 -3.11701,3.17707 -5.35951,5.24233 -6.11339,5.6302 -0.65485,0.33692 -1.38858,0.83381 -1.63052,1.1042 -0.48212,0.53881 -2.07365,3.51561 -2.07365,3.87856 0,0.40431 -3.17513,4.12497 -4.27665,5.01144 -0.58914,0.47412 -1.79943,1.61551 -2.68953,2.53641 -0.89011,0.92091 -2.17697,2.08443 -2.8597,2.5856 -1.29524,0.95079 -2.12438,2.10123 -2.4503,3.39977 -0.33766,1.34536 -2.3784,4.18052 -4.73959,6.58462 -1.26135,1.28428 -2.55057,2.69627 -2.86494,3.13775 -0.53345,0.74917 -0.53804,0.79289 -0.0689,0.65572 0.27649,-0.0808 1.00257,-0.27605 1.61351,-0.43381 z m 39.37044,-25.93891 c -0.29104,-0.1261 -0.96397,-0.29983 -1.49538,-0.38608 -0.68253,-0.11077 -1.168,-0.42137 -1.65347,-1.05785 -0.37799,-0.49557 -0.93795,-0.98061 -1.24435,-1.07786 -0.4609,-0.14628 -0.52891,-0.31768 -0.39391,-0.99271 0.16349,-0.81744 0.83982,-1.77666 1.25269,-1.77666 0.12101,0 0.3863,0.38695 0.58953,0.85989 0.58253,1.35566 2.2253,3.06915 3.49857,3.64919 0.64136,0.29218 1.16611,0.64731 1.16611,0.7892 0,0.3126 -0.99134,0.3085 -1.71979,-0.007 z m -51.11759,22.85177 c 0.98847,-0.50438 2.32744,-1.60721 5.17732,-4.26428 1.13159,-1.05503 2.13289,-1.91823 2.22512,-1.91823 0.41861,0 2.28838,-1.48586 3.43665,-2.73102 2.02579,-2.19673 2.83868,-3.56293 2.84933,-4.78882 0.005,-0.59352 0.17953,-1.37678 0.3875,-1.74058 0.52545,-0.91918 0.4866,-1.32291 -0.12732,-1.32291 -0.49946,0 -3.76474,3.1927 -6.76494,6.61458 -0.70173,0.80036 -1.43235,1.61254 -1.62358,1.80484 -0.19123,0.19229 -0.3477,0.52616 -0.3477,0.74192 0,0.21577 -1.10605,1.54671 -2.45789,2.95767 -1.35184,1.41095 -2.78059,3.06882 -3.175,3.68417 -1.01183,1.57861 -0.97078,1.67259 0.42051,0.96266 z m -11.0646,-2.66148 c 0.51638,-0.24625 1.17125,-0.84156 1.45526,-1.32292 0.37174,-0.63006 0.7071,-0.87519 1.1973,-0.87519 0.85961,0 2.7055,-0.92618 3.57025,-1.79138 0.36381,-0.36399 1.28654,-1.12562 2.05053,-1.69252 1.4559,-1.08031 1.75002,-1.76292 0.85989,-1.99569 -0.29104,-0.0761 -0.52917,-0.18603 -0.52917,-0.24427 0,-0.0582 0.54425,-0.62736 1.20943,-1.26472 1.02385,-0.98102 1.19639,-1.29088 1.12448,-2.01938 -0.15956,-1.61637 -0.79843,-1.59409 -2.56338,0.0894 -0.87083,0.83063 -1.70006,1.51024 -1.84273,1.51024 -0.27839,0 -2.03687,2.25494 -2.6903,3.44984 -0.21828,0.39916 -0.99923,1.26512 -1.73544,1.92436 -0.73621,0.65925 -1.77801,1.91058 -2.3151,2.78074 -1.31071,2.12351 -1.30361,2.17281 0.20898,1.45151 z m 29.0943,-10.54428 c 1.06373,-1.56599 1.47098,-2.41214 1.47309,-3.06065 0.002,-0.49297 0.0782,-1.35221 0.1703,-1.90942 0.14419,-0.87263 0.24467,-0.99136 0.7247,-0.85631 0.30651,0.0862 1.06331,0.2309 1.68177,0.32147 0.98851,0.14476 1.12448,0.10345 1.12448,-0.34159 0,-0.27844 0.18922,-0.7764 0.42048,-1.10657 0.23126,-0.33017 0.35406,-0.77338 0.27288,-0.98491 -0.19293,-0.50279 -1.33085,-0.49481 -1.75169,0.0123 -0.18116,0.21828 -0.43386,0.39687 -0.56156,0.39687 -0.51791,0 -0.17849,-1.08486 0.67649,-2.16224 0.49977,-0.62978 1.26011,-1.7443 1.68965,-2.47671 0.42954,-0.7324 0.96998,-1.48851 1.20099,-1.68023 0.23101,-0.19172 0.50025,-0.77628 0.59832,-1.29903 0.0981,-0.52275 0.40445,-1.33375 0.68086,-1.80222 0.2764,-0.46847 0.40767,-0.90933 0.29171,-0.9797 -0.4084,-0.24782 -3.39542,1.73614 -4.17958,2.77606 -0.43657,0.57894 -1.24449,1.56686 -1.79539,2.19537 -1.02636,1.17096 -1.49242,1.75622 -3.71921,4.67042 -1.10641,1.44796 -1.26142,1.79914 -1.13579,2.57327 0.08,0.49307 0.3428,1.11453 0.58398,1.38103 0.29925,0.33066 0.39475,0.76138 0.30073,1.35624 -0.15137,0.9576 -1.27513,4.30341 -1.73232,5.15768 -0.15873,0.29658 -0.21655,0.61129 -0.12849,0.69935 0.3858,0.3858 1.75591,-0.88171 3.1136,-2.88045 z m -12.25675,-0.61786 c 2.88499,-3.07982 3.14595,-3.49772 3.10985,-4.98011 -0.017,-0.69818 0.0564,-1.81523 0.16318,-2.48233 0.20883,-1.30505 -0.34584,-2.88812 -1.01194,-2.88812 -0.31445,0 -1.41715,0.84711 -4.38875,3.37151 -1.37267,1.1661 -2.66624,3.08833 -2.66624,3.96201 0,0.40198 0.23273,0.72136 0.67123,0.92116 0.77345,0.35241 1.0799,0.13325 1.89845,-1.35773 1.05613,-1.9237 1.55322,-0.8069 0.69869,1.56972 -0.23546,0.65484 -0.51646,1.60734 -0.62446,2.11667 -0.108,0.50932 -0.28355,1.1344 -0.39011,1.38906 -0.45207,1.08035 0.69479,0.34809 2.5401,-1.62184 z m 20.53564,-9.23196 c 0.67388,-0.52125 2.4517,-3.18522 2.4517,-3.67375 0,-1.13719 -1.56188,-0.401 -2.62278,1.23624 -1.45208,2.24095 -1.35542,3.61824 0.17108,2.43751 z M 131.2417,246.40426 c 1.37181,-1.30849 1.56786,-1.62008 1.56786,-2.49191 0,-1.58554 0.19044,-1.83271 1.41737,-1.83958 0.93863,-0.005 1.28094,-0.18237 2.38182,-1.23246 1.18536,-1.13067 1.29644,-1.34523 1.42386,-2.75044 l 0.1382,-1.5241 -3.67281,-4.09752 c -2.02005,-2.25364 -3.85782,-4.10881 -4.08394,-4.1226 -0.61178,-0.0373 -2.15183,1.65495 -1.96031,2.15407 0.21034,0.54813 -6.57022,6.68439 -7.38625,6.68439 -0.59297,0 -2.54544,1.34927 -2.54544,1.75904 0,0.23878 7.24152,8.38022 7.78646,8.7541 0.15583,0.10691 0.97678,0.19621 1.82432,0.19844 1.51356,0.004 1.56891,-0.0226 3.10886,-1.49143 z m -5.78655,-4.04203 c -0.90278,-1.00833 -1.64143,-1.94975 -1.64143,-2.09202 0,-0.14228 0.61318,-0.77208 1.36262,-1.39955 l 1.36262,-1.14084 1.55795,1.71152 c 2.29149,2.51737 2.28213,2.4845 1.05652,3.71011 -0.57426,0.57427 -1.27198,1.04412 -1.55048,1.04412 -0.29213,0 -1.20086,-0.77568 -2.1478,-1.83334 z m 5.00349,-4.65863 c -0.88981,-0.95121 -1.61783,-1.8349 -1.61783,-1.96376 0,-0.26558 2.10719,-2.1276 2.40774,-2.1276 0.37067,0 3.14613,3.30785 3.14732,3.75105 0.001,0.40211 -1.72754,2.06978 -2.14543,2.06978 -0.0957,0 -0.90199,-0.77826 -1.7918,-1.72947 z m 140.46783,6.88436 1.17292,-1.19512 -2.56743,-2.5752 c -1.41209,-1.41635 -2.62686,-2.64201 -2.69949,-2.72368 -0.0726,-0.0817 -0.61786,-2.28134 -1.21164,-4.88816 -0.59378,-2.60681 -1.13493,-4.795 -1.20257,-4.86264 -0.21722,-0.21721 -2.75662,2.45515 -2.75662,2.90095 0,0.23644 0.35271,1.60469 0.78381,3.04055 0.43109,1.43586 0.75245,2.64201 0.71413,2.68034 -0.0383,0.0383 -1.40675,-0.30572 -3.04094,-0.76454 l -2.97125,-0.83422 -1.44704,1.42906 c -0.79587,0.78599 -1.44702,1.49267 -1.447,1.5704 3e-5,0.0777 2.17292,0.61336 4.82865,1.19029 l 4.8286,1.04896 2.64583,2.58574 c 1.45521,1.42217 2.76987,2.58724 2.92148,2.58907 0.1516,0.002 0.80345,-0.53449 1.44856,-1.1918 z m 5.31564,-5.36776 c 1.62463,-1.4516 0.90623,-4.0361 -1.23347,-4.4375 -2.9019,-0.54441 -4.18667,3.43512 -1.57304,4.87244 0.91732,0.50447 1.93094,0.34738 2.80651,-0.43494 z m -3.08312,-0.43656 c -0.40937,-0.40937 -0.64943,-0.95173 -0.64943,-1.46723 0,-1.00442 1.02866,-2.11667 1.95759,-2.11667 0.83738,0 1.94094,0.97641 2.1605,1.91157 0.13549,0.5771 0.01,0.88064 -0.63115,1.52135 -0.98184,0.98185 -1.95487,1.03362 -2.83751,0.15098 z m 1.71227,-0.82933 c -0.25332,-0.30523 -0.18328,-0.37332 0.38403,-0.37332 0.38162,0 0.69385,-0.11906 0.69385,-0.26458 0,-0.14553 -0.12974,-0.26459 -0.28832,-0.26459 -0.15857,0 -0.50851,-0.26789 -0.77763,-0.59531 l -0.48931,-0.59531 -0.59934,0.59056 -0.59933,0.59057 0.75599,0.78909 c 0.73364,0.76574 1.54334,0.8739 0.92006,0.12289 z m -0.7742,-1.03478 c 0,-0.21828 0.11906,-0.39687 0.26458,-0.39687 0.14552,0 0.26458,0.17859 0.26458,0.39687 0,0.21828 -0.11906,0.39688 -0.26458,0.39688 -0.14552,0 -0.26458,-0.1786 -0.26458,-0.39688 z m 10.82871,-19.08568 c 0.65647,-0.83457 0.705,-1.75427 0.12326,-2.33601 -0.35429,-0.35429 -0.37264,-0.55178 -0.11013,-1.18551 0.23293,-0.56234 0.2387,-0.90293 0.0222,-1.30752 -0.44484,-0.83119 -1.14393,-1.08841 -2.95821,-1.08841 -1.33404,0 -1.77244,0.11129 -2.26635,0.57529 -0.67699,0.636 -0.77339,1.29072 -0.30134,2.04659 0.25048,0.40109 0.22472,0.58434 -0.13229,0.94135 -0.61354,0.61354 -0.55429,1.70851 0.13196,2.43899 0.51122,0.54417 0.8185,0.61237 2.75893,0.61237 2.04387,0 2.21873,-0.0446 2.732,-0.69714 z m -4.38303,-1.02265 c -0.32261,-0.84071 0.11065,-1.19063 1.4742,-1.19063 1.34355,0 1.96382,0.46412 1.67961,1.25677 -0.17993,0.50182 -2.95823,0.44355 -3.15381,-0.0661 z m 0.26336,-2.64901 c -0.25671,-0.66897 0.25819,-0.9643 1.52324,-0.87369 0.95633,0.0685 1.16043,0.17618 1.16043,0.61228 0,0.44375 -0.20331,0.5422 -1.25947,0.60992 -0.96837,0.0621 -1.29755,-0.0185 -1.4242,-0.34851 z m -169.95696,-2.89275 v -3.02821 l 1.2548,-0.0806 c 1.13993,-0.0733 1.25497,-0.1412 1.25677,-0.7421 l 0.002,-0.66146 h -3.30729 -3.3073 v 0.66146 c 0,0.6014 0.11411,0.66878 1.25677,0.7421 l 1.25678,0.0806 v 2.85182 c 0,1.56851 0.0794,2.9312 0.17638,3.02822 0.097,0.097 0.45421,0.17638 0.79375,0.17638 0.6108,0 0.61737,-0.0322 0.61737,-3.02821 z m 179.6974,-7.993 c 0.61416,-0.55581 0.63691,-2.12945 0.0403,-2.78868 -0.34002,-0.37573 -0.3709,-0.56275 -0.13229,-0.80136 0.47372,-0.47372 0.37267,-1.36262 -0.22823,-2.00761 -0.45187,-0.48502 -0.82899,-0.57905 -2.32237,-0.57905 -2.10002,0 -2.95899,0.44983 -2.95899,1.54958 0,0.39921 0.14007,0.8659 0.31125,1.03708 0.23861,0.23861 0.20774,0.42563 -0.13229,0.80136 -0.56808,0.62772 -0.57116,2.11784 -0.006,2.74271 0.61013,0.67418 4.69587,0.70878 5.42827,0.046 z m -4.23008,-1.61264 c 0.08,-0.69541 0.14812,-0.7276 1.53893,-0.7276 1.39082,0 1.45891,0.0322 1.53893,0.7276 0.0833,0.72376 0.0751,0.7276 -1.53893,0.7276 -1.61407,0 -1.6222,-0.004 -1.53893,-0.7276 z m 0.21601,-2.57969 c 0,-0.61736 0.0882,-0.66146 1.32292,-0.66146 1.23472,0 1.32292,0.0441 1.32292,0.66146 0,0.61736 -0.0882,0.66146 -1.32292,0.66146 -1.23472,0 -1.32292,-0.0441 -1.32292,-0.66146 z M 107.59094,197.3182 c 0.84613,-0.7949 0.85332,-2.54569 0.0137,-3.33448 -0.47941,-0.45039 -0.99333,-0.57817 -2.57969,-0.64144 -1.91562,-0.0764 -1.98101,-0.10083 -1.98101,-0.74046 0,-0.64933 0.0424,-0.66286 2.31511,-0.7379 2.26258,-0.0747 2.3151,-0.0912 2.3151,-0.72761 0,-0.65025 -0.004,-0.65116 -2.76312,-0.65116 -2.5554,0 -2.79409,0.0442 -3.175,0.58804 -0.54448,0.77736 -0.52993,2.54715 0.026,3.16144 0.35333,0.39042 0.83869,0.48386 2.51354,0.48386 h 2.07566 v 0.91611 0.91611 l -2.44739,0.0761 c -2.30986,0.0718 -2.45215,0.10953 -2.53195,0.67139 -0.0832,0.5857 -0.0386,0.59531 2.76107,0.59531 2.55752,0 2.90762,-0.0582 3.45799,-0.57529 z m 185.96396,-9.75559 c 0.411,-0.45414 0.47883,-0.91206 0.42132,-2.84427 -0.0874,-2.93576 -0.22079,-3.08091 -2.88843,-3.14232 -2.53329,-0.0583 -3.2324,0.41044 -3.2324,2.16737 0,1.67796 0.58343,2.06581 2.90977,1.93436 1.76299,-0.0996 1.87004,-0.0739 1.79753,0.43251 -0.0688,0.48065 -0.29716,0.54673 -2.12761,0.61571 -1.98052,0.0746 -2.05052,0.0995 -2.05052,0.72761 0,0.64169 0.031,0.65032 2.34024,0.65032 2.0217,0 2.40692,-0.0737 2.8301,-0.54129 z m -4.06477,-3.87671 c 0.0817,-0.71193 0.14283,-0.74137 1.54026,-0.74137 1.37583,0 1.45521,0.0361 1.45521,0.66146 0,0.62065 -0.095,0.66639 -1.54026,0.74137 l -1.54025,0.0799 z m -183.60307,-3.05648 c 0.30375,-0.82596 -0.10976,-0.99218 -2.4683,-0.99218 h -2.3592 v -0.92604 -0.92605 h 1.32291 c 1.23472,0 1.32292,-0.0441 1.32292,-0.66145 0,-0.61737 -0.0882,-0.66146 -1.32292,-0.66146 -1.29352,0 -1.32291,-0.0176 -1.32291,-0.79375 v -0.79375 h 2.24895 c 2.2225,0 2.24896,-0.008 2.24896,-0.66146 v -0.66146 h -3.04271 -3.042705 v 3.70417 3.70416 h 3.146695 c 2.2761,0 3.18034,-0.0915 3.26831,-0.33073 z m 186.73083,-11.70781 v -3.30729 h -1.32292 c -1.22462,0 -1.32291,0.0478 -1.32291,0.64306 0,0.46543 0.16443,0.66641 0.59531,0.7276 0.67589,0.096 0.65028,-0.0144 0.69453,2.99496 0.0326,2.21369 0.0435,2.24896 0.69453,2.24896 h 0.66146 z m -2.37287,-19.99335 0.89735,-1.85492 -1.27475,-3.85494 c -1.44753,-4.37743 -1.47239,-4.23299 0.85864,-4.98738 1.19347,-0.38624 1.46912,-0.40151 1.75626,-0.0973 0.18732,0.19845 0.97624,2.29559 1.75315,4.66031 1.04119,3.16915 1.52351,4.29948 1.83463,4.29948 0.53291,0 2.95376,-0.79529 3.25805,-1.07031 0.2977,-0.26908 -3.20081,-10.84288 -3.76483,-11.37874 -0.23765,-0.22577 -1.14646,-0.73613 -2.01959,-1.13411 l -1.5875,-0.72362 -3.04271,1.01303 -3.0427,1.01303 -0.97392,1.90637 -0.97392,1.90636 1.17236,3.49537 c 1.39058,4.14603 1.42693,4.54797 0.44475,4.91781 -1.50325,0.56604 -2.54511,0.84856 -3.12933,0.84856 -0.68154,0 -0.78291,-0.23085 -2.87556,-6.54844 -0.95554,-2.8847 -1.3525,-3.7655 -1.68997,-3.74981 -1.00784,0.0469 -3.09099,0.97187 -3.17614,1.41035 -0.0717,0.36917 2.47764,8.32072 3.7293,11.63196 0.21552,0.57016 0.74045,0.97692 2.10411,1.63044 l 1.81696,0.87075 3.514,-1.17466 3.51401,-1.17466 z m -172.71244,-2.77766 2.31782,-6.75715 -1.39178,-2.69842 -1.39177,-2.69842 -5.92855,-2.0588 -5.92855,-2.05879 -2.7893,1.39733 -2.789313,1.39734 -2.170956,6.21771 c -1.194025,3.41974 -2.212085,6.45238 -2.262354,6.7392 -0.07423,0.42352 0.206853,0.63183 1.496102,1.10875 1.910357,0.7067 2.248959,0.7401 2.248959,0.22184 0,-0.21828 0.208359,-0.39087 0.463021,-0.38352 0.254661,0.007 3.080041,0.93289 6.278621,2.05678 5.37313,1.88797 5.816,2.09147 5.82084,2.67464 0.004,0.5172 0.24415,0.71545 1.32814,1.09771 2.43232,0.85773 2.11307,1.28277 4.69907,-6.2562 z m -8.27094,-1.2021 c -5.50798,-1.92643 -8.33287,-2.94335 -8.43563,-3.03671 -0.0557,-0.0506 0.36103,-1.42143 0.92604,-3.04629 1.00403,-2.88741 1.0533,-2.96695 2.17563,-3.51289 l 1.14833,-0.55858 3.74646,1.29162 c 5.43221,1.87279 5.36778,1.84006 5.97793,3.03606 l 0.54286,1.06409 -1.00013,2.85853 c -0.78648,2.24789 -1.11107,2.87026 -1.51946,2.91345 -0.28563,0.0302 -1.88854,-0.42397 -3.56203,-1.00928 z m 162.0659,-17.19931 c 0.85496,-0.64551 1.36618,-1.20928 1.2569,-1.3861 -0.10131,-0.16392 -1.46929,-2.05004 -3.03996,-4.19136 -1.57067,-2.14133 -2.85032,-3.98814 -2.84368,-4.10402 0.0166,-0.29026 3.27984,-2.72423 3.65235,-2.72423 0.16557,0 1.44285,1.54815 2.8384,3.44032 1.70468,2.31133 2.64442,3.37496 2.86362,3.24115 0.87026,-0.53127 2.80439,-2.0273 2.80439,-2.16917 0,-0.0883 -1.1311,-1.69897 -2.51354,-3.57932 -1.38245,-1.88034 -2.51008,-3.48458 -2.50583,-3.56496 0.009,-0.16774 3.03228,-2.3951 3.25113,-2.3951 0.0795,0 1.41708,1.7264 2.97238,3.83646 1.5553,2.11005 2.93575,3.83646 3.06767,3.83646 0.42704,0 2.87194,-1.95467 2.87194,-2.29609 0,-0.30745 -7.74007,-11.02088 -8.71456,-12.06227 -0.41587,-0.44442 -0.50957,-0.41402 -1.88083,0.61021 -1.1114,0.83013 -1.44315,1.23855 -1.44315,1.77667 0,0.60079 -0.70195,1.21554 -5.00742,4.38535 -4.41071,3.24729 -5.068,3.64878 -5.51572,3.36917 -0.42554,-0.26575 -0.66566,-0.20589 -1.47487,0.36772 -1.85666,1.31607 -1.96386,1.42986 -1.78533,1.8951 0.27112,0.70654 9.22837,12.80205 9.48047,12.80205 0.12349,0 0.87303,-0.48962 1.66564,-1.08804 z m -139.99789,-6.98928 c 2.70572,-3.42388 4.91442,-6.37068 4.90822,-6.54844 -0.0117,-0.33517 -2.41394,-2.30757 -2.81047,-2.30757 -0.1237,0 -1.63218,1.78594 -3.35217,3.96875 -1.71999,2.18281 -3.25169,3.96875 -3.40379,3.96875 -0.30675,0 -3.65212,-2.64897 -3.65036,-2.89047 6.1e-4,-0.0837 1.19074,-1.64052 2.64473,-3.45953 1.45398,-1.81901 2.64411,-3.38229 2.64472,-3.47394 0.001,-0.18001 -2.7945,-2.3469 -3.02794,-2.3469 -0.0777,0 -1.27406,1.4221 -2.65851,3.16021 -1.38444,1.73811 -2.641,3.23673 -2.79235,3.33027 -0.33562,0.20743 -3.16176,-1.92515 -3.16176,-2.38584 0,-0.18091 1.30923,-1.97326 2.9094,-3.98301 3.2568,-4.09039 3.20074,-3.79702 1.01495,-5.31177 -0.7437,-0.51539 -1.16722,-0.65879 -1.42739,-0.48332 -0.54664,0.36869 -9.37686,11.58164 -9.36431,11.89117 0.006,0.14552 0.60933,0.72637 1.34097,1.29077 1.12764,0.8699 1.4211,0.98479 1.92686,0.75435 0.53231,-0.24254 1.12927,0.14591 5.53853,3.60402 4.51412,3.54035 4.93137,3.93676 4.82018,4.57938 -0.10319,0.59631 0.0882,0.86611 1.25589,1.77058 0.7577,0.58688 1.45581,1.07397 1.55137,1.08242 0.0956,0.008 2.38751,-2.786 5.09323,-6.20988 z m 17.84915,-16.57763 c 5.46228,-3.81853 5.41942,-3.76929 5.71547,-6.565882 l 0.15406,-1.455208 -2.10232,-2.936837 -2.10232,-2.936837 -2.02775,-0.327111 -2.02775,-0.327112 -1.63151,1.135446 c -0.89732,0.624494 -2.33993,1.646787 -3.20579,2.27176 -0.86586,0.624974 -1.76568,1.136316 -1.99959,1.136316 -0.51897,0 -2.11466,-2.197538 -2.11466,-2.912253 0,-0.362168 1.12162,-1.308481 3.77031,-3.181019 2.07367,-1.466018 3.80809,-2.772608 3.85425,-2.903535 0.0966,-0.273914 -1.98852,-3.177183 -2.27509,-3.167809 -0.10455,0.0034 -2.3303,1.525764 -4.9461,3.382987 l -4.75601,3.37677 -0.326,1.947044 c -0.23544,1.406163 -0.24695,2.094752 -0.0414,2.478757 0.4215,0.787572 3.36829,4.898734 3.62505,5.057421 0.12169,0.07521 1.06416,0.275945 2.09439,0.446083 l 1.87314,0.309342 3.12781,-2.191393 c 1.7203,-1.205266 3.32781,-2.245036 3.57224,-2.3106 0.30767,-0.08252 0.81654,0.386269 1.65365,1.523398 0.66507,0.903432 1.20921,1.748568 1.20921,1.87808 0,0.419713 -0.86087,1.114043 -4.82993,3.895542 -2.14572,1.50371 -3.90132,2.87452 -3.90132,3.04624 0,0.61123 1.88939,3.12558 2.24589,2.98878 0.19378,-0.0744 2.62023,-1.72063 5.39211,-3.65837 z m 101.26957,2.23151 c 1.55412,-2.0302 1.72739,-2.39193 1.39823,-2.919 -0.2916,-0.46693 0.0663,-1.05665 3.34741,-5.515713 2.02066,-2.746088 3.7861,-5.071421 3.92321,-5.167408 0.13711,-0.09599 0.58152,0.0711 0.98757,0.371311 0.58689,0.433901 0.6857,0.644077 0.48188,1.024923 -0.21216,0.396423 -0.0233,0.663344 1.0945,1.546918 0.743,0.587305 1.50925,1.067827 1.70279,1.067827 0.44506,0 3.11222,-3.638129 2.90865,-3.96752 -0.28308,-0.458031 -13.10728,-9.790875 -13.43389,-9.776549 -0.3454,0.01515 -2.58128,2.998072 -2.75983,3.681915 -0.0653,0.249992 0.4218,0.79855 1.27328,1.434042 1.16128,0.866695 1.45676,0.980613 1.87157,0.721557 0.33182,-0.207225 0.64882,-0.224013 0.97127,-0.05144 1.31045,0.701331 1.27831,0.775725 -2.65194,6.138382 -2.06661,2.819797 -3.80043,5.181925 -3.85294,5.249175 -0.0525,0.0673 -0.32316,-0.0199 -0.60144,-0.1937 -0.44995,-0.280999 -0.62435,-0.150641 -1.57546,1.17757 -0.58823,0.82145 -1.06951,1.58535 -1.06951,1.69757 0,0.25362 5.03254,3.94316 5.37848,3.94316 0.13845,0 0.41123,-0.20836 0.60617,-0.46302 z m -18.81694,-12.319902 1.5875,-0.843115 1.885,-5.423958 c 1.03675,-2.983177 2.08345,-5.989506 2.32599,-6.68073 0.34701,-0.988968 0.56602,-1.256771 1.02778,-1.256771 0.4833,0 0.69693,-0.307096 1.21126,-1.741194 0.34615,-0.965188 0.52197,-1.834343 0.39451,-1.950202 -0.12648,-0.114954 -1.33971,-0.575956 -2.69607,-1.024448 l -2.46611,-0.815442 -0.353,0.847414 c -0.19414,0.466078 -1.43632,3.995818 -2.76039,7.843866 -2.12743,6.18281 -2.67744,7.455317 -3.19918,7.401622 -0.0728,-0.0075 -1.38245,-0.452149 -2.91041,-0.988136 l -2.77813,-0.974521 0.0241,-0.926042 c 0.0133,-0.509323 1.11855,-4.076281 2.45616,-7.926573 1.33762,-3.850292 2.39831,-7.170622 2.35711,-7.378511 -0.0862,-0.435209 -4.98222,-2.262144 -5.25143,-1.959579 -0.26179,0.29421 -1.04119,2.734985 -1.04119,3.260571 0,0.24955 0.17659,0.52149 0.39242,0.60431 0.21582,0.08282 0.34014,0.303919 0.27624,0.491329 -0.0639,0.187409 -1.07391,3.142594 -2.24449,6.567078 -1.17059,3.424483 -2.12833,6.362973 -2.12833,6.529977 0,0.167005 0.35755,1.076153 0.79457,2.020329 0.89445,1.932454 0.34085,1.616081 6.48147,3.704078 1.89177,0.64326 3.61817,1.23346 3.83646,1.311556 0.73834,0.264164 1.18653,0.15238 2.77812,-0.692908 z M 173.7788,92.308971 c 2.8603,-0.881793 5.4089,-1.663723 5.66357,-1.737621 0.25466,-0.0739 0.46302,-0.321861 0.46302,-0.551027 0,-0.578639 -1.06167,-4.129321 -1.31445,-4.396092 -0.11372,-0.120016 -0.96581,0.01402 -1.89355,0.297857 -1.45055,0.443789 -1.69833,0.611343 -1.76915,1.196337 -0.0688,0.568034 -0.30887,0.747582 -1.45521,1.088255 -0.75507,0.224391 -1.94277,0.583528 -2.63935,0.798082 -1.15962,0.357179 -1.30475,0.351649 -1.71979,-0.06553 -0.52029,-0.52297 -3.87346,-11.284548 -3.67625,-11.798463 0.0717,-0.186916 1.35515,-0.728096 2.85205,-1.202623 2.45277,-0.777542 2.75217,-0.821026 3.03065,-0.440177 0.38819,0.530879 0.66257,0.528306 2.41023,-0.0226 0.95264,-0.300292 1.41232,-0.586616 1.41232,-0.879699 0,-0.437079 -1.22362,-4.22026 -1.43257,-4.429211 -0.0616,-0.06158 -2.47313,0.618517 -5.35897,1.51134 -2.88585,0.892822 -5.45839,1.685893 -5.71675,1.762379 -0.25836,0.07649 -0.88462,0.962883 -1.39168,1.969772 l -0.92193,1.830707 1.57171,5.094641 c 0.86444,2.802052 1.89575,6.130591 2.2918,7.396753 l 0.7201,2.302113 1.74571,0.931362 c 0.96014,0.512249 1.78671,0.934814 1.83682,0.939033 0.0501,0.0042 2.43136,-0.713796 5.29167,-1.595588 z m 20.61877,-8.120177 c 0.0536,-3.377334 0.15677,-4.568411 0.39688,-4.580786 0.2986,-0.01539 5.71833,-0.0076 6.47604,0.0093 0.2517,0.0056 0.33073,1.11375 0.33073,4.637591 v 4.630208 h 2.91042 2.91041 v -1.984375 c 0,-1.751001 -0.0573,-1.984375 -0.48719,-1.984375 -0.45475,0 -0.4981,-0.414391 -0.65094,-6.223489 -0.0901,-3.422919 -0.10071,-6.387749 -0.0237,-6.588511 0.077,-0.200762 0.37538,-0.426555 0.66297,-0.501762 0.47032,-0.122991 0.51503,-0.331774 0.44472,-2.076593 l -0.0782,-1.939854 -2.49998,-0.03766 c -1.37499,-0.02071 -2.65492,0.02179 -2.84427,0.09445 -0.2606,0.1 -0.34429,1.057849 -0.34429,3.940266 v 3.808151 h -3.57187 -3.57188 v -3.836459 -3.836458 h -2.91042 -2.91041 v 1.984375 c 0,1.807986 0.047,1.984375 0.52916,1.984375 0.51483,0 0.52917,0.176389 0.52917,6.507062 0,6.284546 -0.0181,6.511794 -0.52917,6.645442 -0.46916,0.12269 -0.52916,0.360896 -0.52916,2.100848 v 1.962468 l 2.84427,-0.0751 2.84427,-0.0751 z"
       id="path1" /></g></svg>
