<?xml version="1.0" encoding="UTF-8" standalone="no"?>
<!-- Created with Inkscape (http://www.inkscape.org/) -->

<svg
   width="145.87299mm"
   height="154.97751mm"
   viewBox="0 0 145.87299 154.97751"
   version="1.1"
   id="svg1"
   xml:space="preserve"
   xmlns="http://www.w3.org/2000/svg"
   xmlns:svg="http://www.w3.org/2000/svg"><defs
     id="defs1" /><g
     id="logo-face"
     transform="translate(-41.32845,-77.073475)"><path
       class="logo-face"
       d="m 111.83991,231.07769 c -1.16417,-0.56788 -2.59292,-1.25284 -3.175,-1.52213 -0.58209,-0.26929 -1.81465,-0.94333 -2.73902,-1.49786 -0.92438,-0.55455 -1.72805,-1.00826 -1.78594,-1.00826 -0.0579,0 -0.10525,0.52875 -0.10525,1.175 0,0.64626 -0.11992,1.24913 -0.26649,1.33971 -0.28906,0.17865 -9.350966,-4.42614 -11.507469,-5.84751 -0.727605,-0.47957 -2.029555,-1.4715 -2.893224,-2.2043 -0.863668,-0.7328 -1.637574,-1.26651 -1.719791,-1.18602 -0.08222,0.0805 -0.328079,0.88197 -0.54636,1.78108 -0.218282,0.89911 -0.495077,1.61515 -0.6151,1.5912 -0.543906,-0.10854 -7.515778,-6.48402 -8.776066,-8.02534 -0.773826,-0.94639 -2.296939,-3.11317 -3.384696,-4.81508 l -1.97774,-3.09438 -0.891428,1.30793 c -0.490286,0.71936 -0.968029,1.30816 -1.061652,1.30844 -0.09362,2.8e-4 -1.346066,-1.29973 -2.783208,-2.88892 -4.308917,-4.7648 -5.399794,-7.14174 -6.456158,-14.06749 -0.498177,-3.26615 -0.560368,-4.49576 -0.433728,-8.57537 0.08131,-2.61937 0.2287,-4.97086 0.327531,-5.22552 0.155719,-0.40125 0.0082,-0.46457 -1.105385,-0.47463 -2.458304,-0.0222 -4.693662,-1.28743 -5.675747,-3.21248 -0.846867,-1.66 -0.925314,-3.46581 -0.256469,-5.90378 0.835731,-3.04626 1.057507,-5.59928 0.856471,-9.85945 l -0.178083,-3.7738 -1.4142,0.95348 -1.4142,0.95347 0.114762,-9.6151 c 0.105455,-8.83534 0.161334,-9.7856 0.689036,-11.71749 0.732846,-2.6829 2.246303,-5.79139 4.129194,-8.48095 l 1.481828,-2.11666 -7.217168,-3.52437 c -3.969443,-1.93841 -7.782715,-3.76877 -8.473939,-4.06748 -0.691224,-0.29871 -1.256771,-0.62409 -1.256771,-0.72306 0,-0.099 2.530078,-1.17488 5.622396,-2.39091 12.859415,-5.05686 20.780291,-10.07397 28.376562,-17.973799 6.664318,-6.93064 7.966852,-8.17376 9.795562,-9.34877 3.544723,-2.27759 7.452479,-3.3789 11.989308,-3.3789 h 2.624889 l 0.326633,-0.78857 c 0.47965,-1.15797 3.85679,-4.23841 5.74165,-5.2372 3.35,-1.77519 7.32495,-2.3166 10.95177,-1.49169 1.83189,0.41665 7.2959,2.98345 7.69763,3.61607 0.11509,0.18123 0.21107,0.78988 0.2133,1.35254 0.004,0.98216 0.0331,1.01593 0.73165,0.84516 0.40019,-0.0978 2.41485,-0.24548 4.47703,-0.32812 7.05095,-0.28256 13.40478,1.39204 20.45995,5.39236 4.10884,2.32973 7.00528,4.67163 12.03854,9.73373 2.61938,2.634369 6.18043,5.967909 7.91344,7.407859 3.03253,2.51971 12,9.34783 15.44461,11.76003 0.91422,0.64021 1.56906,1.24616 1.45521,1.34655 -0.11385,0.10039 -2.45986,0.979 -5.21335,1.95248 -2.75349,0.97347 -5.10846,1.83305 -5.23327,1.91019 -0.1248,0.0771 0.12115,0.75614 0.54656,1.5089 2.52733,4.47205 3.362,9.61383 3.89443,23.99054 l 0.17147,4.63021 -1.11097,-1.05834 c -0.62123,-0.59179 -1.44737,-1.79498 -1.87408,-2.72938 -0.7315,-1.60186 -0.79908,-1.6676 -1.6317,-1.58751 -0.71986,0.0693 -0.88264,0.2051 -0.95059,0.79332 -0.0451,0.39037 0.64686,3.06927 1.53769,5.95313 2.21068,7.15653 2.30179,8.56263 0.82595,12.74646 -0.58304,1.65285 -1.1258,3.07092 -1.20613,3.15125 -0.12947,0.12946 -1.59115,-0.22548 -2.73309,-0.66368 -0.32815,-0.12592 -0.37586,-0.028 -0.23474,0.4819 0.0974,0.35197 0.43727,2.12822 0.75524,3.94723 0.46969,2.68704 0.58051,4.37413 0.59087,8.99583 0.007,3.1287 -0.0778,6.01597 -0.18858,6.41615 l -0.20134,0.7276 h -2.97904 -2.97904 l -0.31274,2.29343 c -0.3208,2.35263 -2.08035,9.80789 -2.45964,10.42161 -0.17196,0.27824 -0.65011,0.26353 -2.54859,-0.0784 -1.2853,-0.23147 -2.41454,-0.34168 -2.50943,-0.24491 -0.0949,0.0968 -1.11728,2.20754 -2.27199,4.69061 -2.36737,5.09071 -2.76467,5.73888 -5.10296,8.3252 l -1.66722,1.84407 -1.15703,-0.67807 -1.15703,-0.67807 -2.19171,2.20657 c -2.51655,2.5336 -5.12292,4.55251 -8.45647,6.55041 -2.34187,1.40357 -7.28246,3.71211 -7.94442,3.71211 -0.19466,0 -0.67793,-0.59532 -1.07395,-1.32292 -0.39601,-0.7276 -0.7791,-1.32293 -0.85131,-1.32293 -0.0722,0 -0.5708,0.35204 -1.10797,0.78231 -0.53717,0.43026 -1.92917,1.21913 -3.09334,1.75305 -1.16416,0.53391 -3.24324,1.64039 -4.62017,2.45884 -2.36704,1.40699 -2.61223,1.49262 -4.49792,1.57108 -1.86263,0.0775 -2.13426,0.0148 -4.11107,-0.94953 z m 5.15937,-5.29721 c 0.80037,-0.51193 2.64584,-1.49101 4.10104,-2.17572 2.76979,-1.30327 3.88886,-2.2107 5.72425,-4.64165 0.59741,-0.79127 1.17917,-1.43867 1.29278,-1.43867 0.28092,0 3.43178,2.38146 3.44282,2.60212 0.005,0.0968 0.24132,0.45506 0.52552,0.79613 l 0.51672,0.62012 1.66534,-0.93131 c 5.55726,-3.10779 10.91995,-8.09033 11.86572,-11.02456 0.16417,-0.50932 0.37538,-1.01137 0.46937,-1.11566 0.094,-0.10428 0.91334,0.27983 1.82078,0.85359 l 1.6499,1.04321 0.70841,-1.11817 c 1.10479,-1.74384 3.40582,-6.71784 4.82792,-10.43624 0.71139,-1.86006 1.39354,-3.37873 1.51591,-3.37481 0.12236,0.004 1.08297,0.29437 2.13467,0.64544 1.05171,0.35108 1.97774,0.57278 2.05785,0.49267 0.48418,-0.48418 1.7185,-9.41634 1.7185,-12.43598 0,-0.70233 0.0893,-1.27544 0.19844,-1.27359 0.10914,0.002 1.12571,0.29952 2.25904,0.66146 1.13333,0.36195 2.41325,0.65808 2.84427,0.65808 h 0.78367 l -0.002,-2.3151 c -0.004,-4.7426 -0.79701,-9.4537 -2.93415,-17.44093 -0.71336,-2.66608 -1.29701,-4.91559 -1.29701,-4.99893 0,-0.3164 1.25675,0.27413 4.32763,2.03348 1.74663,1.00067 3.29065,1.8194 3.43115,1.8194 0.57,0 -0.12179,-3.76768 -1.50599,-8.20208 -1.61263,-5.1662 -1.85535,-6.2687 -2.30088,-10.45105 -0.4668,-4.38213 -1.40434,-7.03868 -3.71168,-10.51719 -0.7466,-1.12557 -0.90154,-1.52135 -0.59557,-1.52135 0.98974,0 3.68738,1.83195 6.6668,4.52738 l 3.21353,2.90724 v -1.27686 c 0,-1.9482 -0.49647,-5.5223 -1.09362,-7.87287 -1.07034,-4.21325 -2.59949,-6.50273 -6.00081,-8.98457 -1.18458,-0.86435 -2.1257,-1.59963 -2.09137,-1.63396 0.0343,-0.0343 2.14494,-0.79589 4.69025,-1.69237 2.54532,-0.89647 4.70959,-1.709 4.8095,-1.80562 0.0999,-0.0966 -2.06369,-1.93998 -4.80798,-4.09636 -5.95317,-4.67783 -9.88725,-8.18856 -13.05644,-11.65145 -3.75986,-4.108279 -7.45038,-6.895419 -12.32262,-9.306229 -5.11566,-2.53126 -9.28456,-3.56433 -14.38363,-3.56433 -3.68371,0 -5.84538,0.44691 -9.38755,1.9408 l -2.11551,0.89221 -0.16594,-1.58761 c -0.0913,-0.87319 -0.16594,-2.44845 -0.16594,-3.50059 v -1.91298 l -1.25677,-0.53562 c -2.85887,-1.21841 -5.25311,-1.43391 -7.73668,-0.69637 -1.50307,0.44636 -2.17869,0.811 -3.7727,2.03618 l -0.99218,0.76261 v 3.65011 3.65011 l -2.39869,-1.22134 c -2.347605,-1.19541 -2.459705,-1.22343 -5.28111,-1.32 -3.410995,-0.11675 -6.007582,0.37111 -8.515029,1.59984 -1.412034,0.69194 -2.68882,1.84924 -8.411595,7.62442 -9.143478,9.227219 -14.225522,12.998949 -23.680208,17.574709 l -2.645833,1.2805 3.714908,1.81811 c 2.043199,0.99996 4.572437,2.025 5.620528,2.27786 1.311186,0.31634 1.906139,0.58355 1.907279,0.85663 0.0034,0.81247 -1.659065,3.86279 -3.801821,6.97566 -3.961711,5.75535 -4.66277,7.81413 -4.66277,13.693 v 3.65068 l 2.050521,-1.0586 c 1.925415,-0.99401 4.749046,-1.73265 5.133045,-1.34277 0.09466,0.0961 -0.654199,1.60349 -1.664129,3.34973 -2.689491,4.65035 -2.729939,4.83861 -2.757033,12.8323 -0.02062,6.0832 -0.07908,6.94207 -0.594351,8.73125 -0.796509,2.76573 -0.768134,3.35633 0.171169,3.56264 1.121824,0.24639 4.202451,-0.32617 5.934505,-1.10298 0.839769,-0.37663 1.592281,-0.61935 1.672251,-0.53938 0.07997,0.08 -0.220615,3.10367 -0.667966,6.71933 -0.447351,3.61566 -0.812465,7.22877 -0.811365,8.02915 0.0028,2.01137 1.19305,9.92859 1.708747,11.36577 0.477715,1.33135 1.935597,3.71548 2.27199,3.71548 0.121762,0 0.296973,-0.12231 0.389358,-0.27179 0.19858,-0.32132 3.835718,-2.90321 4.089767,-2.90321 0.09612,0 0.388098,0.67674 0.648832,1.50389 0.75014,2.37971 2.121663,5.2005 3.743238,7.69863 1.609496,2.47952 4.250204,5.88306 4.555846,5.8719 0.102868,-0.004 0.413793,-0.49799 0.690943,-1.09831 0.52834,-1.1444 2.378179,-3.1282 2.916962,-3.1282 0.172895,0 0.690061,0.80368 1.149257,1.78594 1.553146,3.32233 4.522154,6.37779 8.57943,8.82923 2.324316,1.40437 2.577434,1.41291 2.977287,0.10046 0.48831,-1.6028 1.391279,-3.22359 2.054867,-3.68838 0.58073,-0.40676 0.6111,-0.38203 1.35934,1.10699 0.48254,0.96029 1.55974,2.30859 2.91527,3.64898 2.09474,2.07135 3.85561,3.1297 8.8968,5.34731 0.84231,0.37054 1.37797,0.21246 3.175,-0.93699 z m -4.38864,-4.24066 c -2.8332,-0.9794 -6.44091,-4.07458 -7.5196,-6.45132 -1.07269,-2.3635 -0.58629,-3.64824 2.13848,-5.64841 l 1.31889,-0.96815 2.33038,1.34495 c 4.79312,2.76628 5.4622,2.88729 8.23716,1.48984 1.01138,-0.50933 2.10186,-0.92605 2.42328,-0.92605 0.69835,0 3.13574,2.42245 3.12716,3.10798 -0.0116,0.92193 -1.0023,2.62603 -2.30334,3.96175 -1.03227,1.05979 -2.07139,1.7205 -4.66732,2.96764 -1.83667,0.88236 -3.42935,1.60041 -3.53928,1.59566 -0.10993,-0.005 -0.80554,-0.21801 -1.54581,-0.47389 z m 21.14722,-6.67976 c -1.05964,-0.39199 -7.45182,-4.73387 -8.00545,-5.43769 -0.66646,-0.84727 -0.70788,-1.99594 -0.10512,-2.91587 0.24526,-0.3743 1.37517,-1.3317 2.51092,-2.12754 1.13574,-0.79584 2.4127,-1.86881 2.83767,-2.38437 l 0.77268,-0.93739 0.88359,0.67004 c 1.11373,0.84455 3.22553,1.77674 5.77838,2.55072 4.62764,1.403 5.25879,2.53487 3.07081,5.50704 -2.29108,3.11221 -6.17262,5.65616 -7.74348,5.07506 z m -40.132721,-0.48092 c -1.585354,-1.04523 -4.015553,-4.51132 -4.419822,-6.30379 -0.431222,-1.91197 0.448202,-2.97458 4.113757,-4.97058 1.018646,-0.55468 2.371442,-1.37694 3.006213,-1.82723 1.682958,-1.19386 2.95085,-1.13267 4.965243,0.23961 2.44292,1.66421 4.86084,4.12733 4.86084,4.9517 0,0.92428 -1.39046,2.09134 -4.47928,3.75964 -1.74279,0.94129 -2.845259,1.76757 -3.971489,2.97656 -1.313934,1.41048 -1.697665,1.67329 -2.441098,1.67182 -0.485153,-9.6e-4 -1.220617,-0.22493 -1.634364,-0.49773 z m 22.051231,-7.0913 c -0.21829,-0.093 -1.82563,-1.0519 -3.57188,-2.13088 -3.29454,-2.03563 -5.42396,-3.83334 -5.42396,-4.57906 0,-0.28046 0.39478,-0.54772 1.12448,-0.76125 1.58956,-0.46516 2.49233,-1.03692 5.14458,-3.25828 1.28144,-1.07326 2.77083,-2.28172 3.30975,-2.68549 l 0.97985,-0.7341 1.62531,1.31511 c 0.89392,0.7233 2.33254,1.71546 3.19692,2.20479 3.18539,1.80329 3.95102,2.35604 4.21118,3.0403 0.5485,1.44268 -0.96068,3.14952 -5.56739,6.29656 -1.58009,1.07943 -2.14195,1.31696 -3.26995,1.38241 -0.74911,0.0435 -1.54061,0.003 -1.75889,-0.0901 z m -35.98886,-3.05871 c -1.585765,-2.49645 -2.709533,-5.37897 -2.734439,-7.01393 -0.03012,-1.97707 0.482327,-2.37937 5.479033,-4.30134 4.786538,-1.84112 5.106628,-1.85175 6.677558,-0.22182 0.568927,0.59029 1.895801,1.65897 2.948609,2.37484 1.768577,1.20257 2.716011,2.32324 2.716011,3.21263 0,0.63428 -1.403242,1.733 -3.575972,2.79994 -1.161913,0.57056 -2.410226,1.12624 -2.774028,1.23483 -0.998487,0.29804 -2.964414,1.32725 -4.794114,2.50986 -2.285136,1.47694 -2.662733,1.41996 -3.942658,-0.59501 z m 66.41594,-1.13859 c -1.09141,-0.3479 -3.54633,-1.00272 -5.45538,-1.45515 -3.44381,-0.81616 -5.00548,-1.47561 -5.29767,-2.23701 -0.39624,-1.03258 0.22204,-1.74965 3.79923,-4.40633 5.13839,-3.81612 4.60118,-3.59335 7.39048,-3.06471 1.2878,0.24407 2.90701,0.51462 3.59823,0.60123 l 1.25677,0.15746 -0.005,1.63743 c -0.0114,3.57184 -0.94599,7.64142 -2.02126,8.80165 -0.7115,0.76772 -0.74955,0.76731 -3.26516,-0.0346 z m -44.31771,-5.23961 c -3.230316,-1.50989 -8.365923,-6.21595 -10.353063,-9.48714 -1.128666,-1.85798 -1.45068,-3.71493 -0.793134,-4.57372 0.464959,-0.60728 -0.135664,-0.85636 5.319277,2.20599 1.931965,1.08458 3.197656,1.63047 3.780461,1.63047 0.630009,0 1.525339,-0.43653 3.187099,-1.55389 1.27104,-0.85465 3.20123,-2.00171 4.28933,-2.54903 1.0881,-0.54732 2.6205,-1.40531 3.40533,-1.90665 2.09605,-1.33892 2.5717,-1.47217 3.56778,-0.9995 1.38157,0.65559 1.85284,1.73704 1.65713,3.80263 -0.55219,5.82781 -0.71701,6.19027 -4.28958,9.4337 -1.73958,1.57932 -2.77804,2.26589 -5.00175,3.30689 -1.5435,0.72256 -2.95028,1.31259 -3.12616,1.31117 -0.17589,-9.9e-4 -0.91511,-0.28084 -1.64272,-0.62092 z m 25.5105,-3.47238 c -1.50688,-0.78508 -6.42284,-5.41697 -7.43171,-7.00226 -0.70696,-1.11088 -0.74858,-1.34078 -0.74858,-4.13488 0,-2.09215 -0.12187,-3.25026 -0.41613,-3.95452 -0.51306,-1.22794 -0.35896,-1.90788 0.67842,-2.9934 0.44247,-0.46301 1.08558,-1.4774 1.42912,-2.2542 0.34353,-0.7768 0.81502,-1.48544 1.04775,-1.57474 0.48578,-0.18641 1.84132,0.20428 4.66917,1.34576 1.26766,0.51171 3.49444,1.05592 6.1653,1.50676 5.61742,0.94821 7.79709,1.70954 9.22985,3.22386 1.32993,1.40562 1.63974,3.52897 0.88433,6.06101 -0.54399,1.82337 -1.61971,3.00398 -4.72665,5.18748 -1.47911,1.03949 -3.46319,2.49903 -4.40908,3.24343 -0.94588,0.74439 -2.05281,1.49937 -2.45984,1.67771 -1.12242,0.49184 -2.56579,0.36933 -3.91195,-0.33201 z m -57.457727,-0.0713 c -1.24186,-1.39724 -1.922464,-5.28442 -1.719546,-9.82097 0.145554,-3.25408 0.757327,-6.43691 1.403031,-7.29946 0.372658,-0.49781 0.446317,-0.46067 1.9059,0.96088 1.874797,1.82595 3.684767,3.12882 4.346623,3.12882 0.789478,0 2.223948,-0.84008 5.608584,-3.2846 1.729904,-1.24942 3.291189,-2.27165 3.469523,-2.27165 0.566132,0 2.708776,2.52252 2.90622,3.42148 0.154305,0.70254 0.01171,1.20392 -0.763023,2.68284 -0.524036,1.00035 -0.953457,2.14947 -0.954268,2.5536 -0.003,1.47629 -0.523736,2.65333 -1.505122,3.40188 -0.53234,0.40603 -2.464959,1.32167 -4.294709,2.03477 -5.310142,2.06946 -6.940809,2.83098 -8.408695,3.92687 -0.757741,0.5657 -1.423897,1.02856 -1.480347,1.02856 -0.05645,0 -0.287827,-0.20836 -0.514171,-0.46302 z m 84.493357,-4.43694 c -1.06871,-0.51216 -2.72179,-1.1268 -3.67351,-1.36588 -2.42487,-0.6091 -2.82631,-1.07346 -2.56063,-2.96199 0.11512,-0.81829 0.17786,-3.0573 0.13941,-4.9756 -0.0424,-2.11383 0.0501,-3.85131 0.23463,-4.41052 0.32623,-0.98848 2.21257,-2.90461 3.15342,-3.20322 2.01851,-0.64065 6.68383,5.46215 7.47531,9.77862 0.578,3.15224 -0.22547,7.0589 -1.60344,7.79638 -0.77012,0.41214 -1.05702,0.35253 -3.16519,-0.65779 z M 97.625217,181.5889 c -4.681396,-2.62997 -9.02692,-7.09052 -8.584256,-8.81149 0.154406,-0.60029 8.097801,-8.21262 9.274406,-8.88786 1.224101,-0.7025 2.297083,-0.41832 4.368313,1.15698 1.76256,1.34052 2.89103,1.2449 6.50702,-0.55137 2.00243,-0.99472 3.01799,-1.36693 3.30723,-1.21214 1.53817,0.82321 5.03174,6.32894 5.02878,7.92518 -0.003,1.75408 -1.40833,3.12957 -4.29183,4.20147 -2.60308,0.96765 -5.54397,2.56748 -9.04612,4.92104 -2.1639,1.45421 -3.62874,2.26677 -4.0801,2.26324 -0.387292,-0.003 -1.504842,-0.45529 -2.483443,-1.00505 z m 65.284243,-4.58805 c -0.38694,-0.45985 -0.93704,-1.32306 -1.22244,-1.91823 -1.39387,-2.90673 -5.9057,-6.14957 -8.94082,-6.42613 -2.68574,-0.24473 -2.50326,0.005 -2.33957,-3.20213 0.16869,-3.30524 -0.10593,-5.34671 -1.00733,-7.48834 -1.39894,-3.32375 -0.37069,-7.38116 1.87058,-7.38116 0.83742,0 3.65463,1.63853 6.01571,3.49884 1.77102,1.39538 2.89948,3.86395 3.9204,8.57605 0.30972,1.42955 1.03308,3.64287 1.60746,4.91849 1.04563,2.3222 1.64532,4.57683 1.9681,7.39935 0.32475,2.8398 -0.46595,3.69436 -1.87209,2.02326 z m -88.005376,-1.57702 c -2.894835,-2.05293 -5.076019,-4.69014 -5.520864,-6.67514 -0.232189,-1.03607 -0.177136,-1.50711 0.382289,-3.27096 0.813707,-2.56558 2.474993,-5.50218 4.521289,-7.99212 2.54233,-3.0935 3.62419,-3.50241 5.644487,-2.13344 0.640361,0.43392 1.360871,0.78894 1.601132,0.78894 0.240261,0 1.600788,-0.7674 3.023394,-1.70535 2.759756,-1.81952 4.82698,-2.67682 5.841019,-2.4223 0.667104,0.16742 3.618656,4.63522 4.273902,6.46945 0.458277,1.28285 0.455999,3.0725 -0.005,3.95518 -0.875329,1.6759 -6.567413,6.71484 -12.062249,10.67813 -4.736176,3.41611 -5.720354,3.71107 -7.699365,2.30761 z m 63.526446,-2.51666 c -12.08989,-3.57754 -13.28375,-4.10316 -16.45283,-7.24383 -2.86537,-2.83965 -2.99783,-3.75797 -0.72104,-4.99847 1.52576,-0.8313 6.14414,-5.50683 6.87483,-6.9599 0.80427,-1.5994 1.2775,-2.06178 2.11019,-2.06178 0.62478,0 2.82516,1.00783 5.67531,2.59945 0.63681,0.35562 1.37924,0.42889 3.75493,0.37056 l 2.96119,-0.0727 0.91632,0.91632 c 1.08574,1.08575 1.98033,3.30481 2.32955,5.77856 0.2934,2.07831 -0.14939,5.18953 -1.09332,7.68218 -0.60641,1.60135 -2.59159,4.75386 -3.04784,4.84003 -0.14552,0.0275 -1.6338,-0.3552 -3.30729,-0.8504 z m -77.109308,-5.32283 c 0.124669,-1.1278 0.237807,-4.37225 0.251419,-7.20991 0.0268,-5.5879 0.129103,-6.11617 1.845659,-9.53093 1.356734,-2.69897 4.357812,-5.8149 5.600565,-5.8149 0.70741,0 3.443352,1.67229 4.646201,2.8399 1.221617,1.18583 1.887707,2.53057 1.643749,3.3185 -0.100211,0.32367 -0.970461,1.45955 -1.933888,2.52421 -3.950377,4.36543 -4.829252,5.77796 -6.222176,10.00027 -0.460904,1.3971 -1.047568,2.543 -1.68054,3.28248 -1.096668,1.28121 -3.084772,2.64089 -3.861469,2.64089 -0.48696,0 -0.503355,-0.11612 -0.28952,-2.05051 z m 43.555128,-5.60078 c -2.26979,-1.27269 -5.585341,-3.7613 -6.779766,-5.08882 -1.28547,-1.42868 -2.569276,-3.91095 -3.199608,-6.18651 -0.612392,-2.21078 -0.2101,-3.16291 1.90758,-4.51479 4.741464,-3.02685 5.272504,-3.52858 7.869554,-7.43527 2.40844,-3.62296 3.69507,-4.0017 6.92782,-2.03929 2.62323,1.59241 3.67611,2.03728 6.85256,2.89537 3.34338,0.90318 5.42675,1.94968 6.90075,3.46631 2.0581,2.11763 2.02999,4.09863 -0.10489,7.3916 -2.05231,3.16562 -7.02216,6.89649 -13.76059,10.33009 -4.15799,2.11872 -4.75226,2.22487 -6.61341,1.18131 z m 63.0385,-4.8917 c -0.29224,-0.20469 -1.53912,-0.88293 -2.77085,-1.50719 -1.79622,-0.91034 -2.74982,-1.64373 -4.81761,-3.70514 -2.27513,-2.26809 -2.8037,-2.65595 -4.49791,-3.30055 -2.16407,-0.82335 -3.63962,-2.08044 -3.63962,-3.10077 0,-0.36391 0.29525,-1.29855 0.65611,-2.07698 0.87943,-1.89706 1.15128,-3.33938 1.54095,-8.1756 l 0.32936,-4.08765 0.84735,0.0384 c 1.18415,0.0536 4.029,1.43875 5.28453,2.57305 2.17433,1.96438 3.65256,5.78585 4.97219,12.85396 0.91127,4.88089 1.35935,6.52388 2.48086,9.09668 0.80041,1.83618 0.71085,2.15965 -0.38536,1.39184 z m -87.122102,-5.24767 c -0.341041,-0.16718 -1.261586,-1.27809 -2.045654,-2.46869 -0.992408,-1.50695 -2.107933,-2.74402 -3.671224,-4.07124 -3.255143,-2.76357 -3.859585,-4.02914 -2.956561,-6.19038 0.781518,-1.87043 1.968193,-2.8099 5.934036,-4.69787 6.045171,-2.87784 7.38551,-4.10788 8.665997,-7.95283 0.663851,-1.99337 0.775731,-2.15619 1.801685,-2.62207 1.277072,-0.5799 2.281431,-0.6423 2.859067,-0.17761 0.226115,0.1819 0.904254,1.23933 1.506977,2.34985 0.602722,1.11051 1.291848,2.18207 1.531391,2.38125 0.239543,0.19917 1.635582,0.95744 3.10231,1.68504 3.016708,1.49651 3.619988,2.14116 3.804928,4.06587 0.10522,1.09512 -0.015,1.63172 -0.68763,3.0691 -1.032117,2.20557 -2.461113,3.59806 -6.76749,6.59459 -1.859435,1.29386 -4.649202,3.40755 -6.199482,4.69708 -3.724012,3.09765 -5.555436,3.9864 -6.87835,3.33791 z m 56.374742,-1.51096 c -0.71906,-0.52088 -1.93477,-2.08418 -3.65215,-4.69635 -1.41587,-2.15356 -3.31419,-4.68947 -4.2185,-5.63536 -2.83937,-2.96992 -2.81943,-3.39717 0.22796,-4.88278 2.55318,-1.24468 3.69199,-2.25782 6.22247,-5.53576 2.48946,-3.22482 3.07386,-3.57343 5.19464,-3.09882 0.7864,0.17599 2.16862,0.80518 3.09318,1.40802 0.91932,0.59942 2.80258,1.53814 4.18502,2.08603 l 2.51355,0.99617 0.19755,1.14013 c 0.22667,1.30817 -0.37075,6.43648 -0.94347,8.09881 -0.48406,1.40497 -2.47653,4.58464 -3.93199,6.27483 -3.83299,4.45117 -6.47425,5.59378 -8.88826,3.84508 z m -77.256916,-9.54627 c 0.182303,-2.60471 0.722822,-3.76839 4.088951,-8.80311 1.58032,-2.36368 3.114427,-5.00094 3.529201,-6.067 l 0.733712,-1.8858 5.649151,-0.043 c 4.923448,-0.0375 7.339793,-0.25085 9.287173,-0.82019 0.726431,-0.21238 0.576519,0.66066 -0.474027,2.76058 -0.678695,1.35663 -1.438214,2.33705 -2.754779,3.55598 -1.718918,1.59146 -2.78002,2.22663 -6.924041,4.1447 -2.073173,0.95957 -6.572627,3.93579 -9.848557,6.51444 -3.827241,3.01262 -3.447403,2.93827 -3.286784,0.64337 z m 58.014746,-4.33635 c -0.7276,-0.34943 -2.27541,-1.36611 -3.43958,-2.2593 -2.50229,-1.91983 -5.09824,-3.21467 -9.78958,-4.88296 -1.89177,-0.67274 -4.22203,-1.52073 -5.178341,-1.88444 -1.784573,-0.67872 -3.213191,-1.87666 -3.542873,-2.97081 -0.482846,-1.60248 1.485787,-3.95276 4.856204,-5.79765 3.88932,-2.12893 8.03251,-5.92185 10.42542,-9.54403 1.46146,-2.21224 1.79228,-2.18398 3.85505,0.3293 3.33073,4.05816 7.48118,6.61345 14.2221,8.75604 2.68057,0.85201 3.9219,1.3768 4.20173,1.77631 0.53598,0.76522 0.51392,3.44788 -0.0419,5.0985 -0.65436,1.94317 -1.41371,2.90849 -3.7265,4.7373 -1.15065,0.90987 -3.27372,2.69754 -4.71794,3.97262 -4.12516,3.64203 -4.67159,3.84676 -7.12376,2.66912 z m 49.47709,-5.46084 c -1.70177,-1.16117 -4.93053,-2.63024 -7.17429,-3.26427 -3.08177,-0.87082 -4.80084,-1.14818 -9.01589,-1.45463 -4.05713,-0.29496 -4.91378,-0.59855 -7.88105,-2.79295 -1.8717,-1.38419 -3.04524,-2.73911 -3.04758,-3.51859 -0.001,-0.4121 1.42317,-0.42813 5.68756,-0.064 1.74625,0.1491 4.78234,0.37106 6.74687,0.49325 2.8088,0.17469 3.9115,0.35952 5.16159,0.86514 3.48335,1.40892 7.09696,4.50582 9.61942,8.24393 1.38709,2.05558 1.35924,2.48553 -0.0966,1.49214 z M 70.564908,119.73802 c -0.436563,-0.0616 -2.572753,-0.3017 -4.74709,-0.53346 -2.174337,-0.23176 -4.251564,-0.53477 -4.616061,-0.67335 -0.616888,-0.23454 -0.522349,-0.31299 1.366967,-1.13431 2.047583,-0.89012 8.171074,-4.78715 11.829651,-7.52847 1.089762,-0.81654 4.307643,-3.80634 7.150847,-6.64399 5.773358,-5.762099 7.278938,-6.844329 10.526978,-7.566949 2.639756,-0.58729 6.462106,-0.40162 8.60892,0.41817 4.97528,1.89989 7.8384,5.956609 7.53764,10.679989 -0.0942,1.47886 -0.25794,1.94425 -1.1295,3.20972 -1.80646,2.62289 -6.777,5.87317 -11.307313,7.39395 -4.618009,1.55021 -10.179587,2.27789 -18.341873,2.39986 -3.346979,0.05 -6.442604,0.0405 -6.879166,-0.0212 z m 77.919792,-2.78971 c -13.80117,-0.58627 -20.66958,-2.21855 -27.38438,-6.50792 -4.72488,-3.01822 -6.03965,-5.82625 -4.7711,-10.1899 1.2273,-4.221789 4.93396,-6.800639 10.98881,-7.645319 5.46856,-0.76288 12.6781,1.24314 18.91015,5.26168 2.53966,1.63761 7.92262,6.036759 11.11217,9.081259 4.0776,3.89217 6.96332,6.28248 9.08638,7.52647 1.0641,0.6235 1.83801,1.19197 1.71979,1.26326 -0.4802,0.28959 -4.62846,0.98902 -7.3587,1.24074 -3.21016,0.29597 -4.71002,0.29228 -12.30312,-0.0303 z M 110.9238,98.605531 c -0.50385,-0.8669 -1.36998,-2.01667 -1.92473,-2.55504 l -1.00864,-0.97885 0.0727,-4.44622 0.0726,-4.44622 0.92604,-0.62704 c 0.69083,-0.46778 1.15278,-0.59085 1.81872,-0.48453 0.49098,0.0784 0.93937,0.1892 0.99645,0.24627 0.0571,0.0571 0.0721,3.42568 0.0334,7.4858 l -0.0704,7.382029 z"
       id="path1" /></g></svg>
