<?xml version="1.0" encoding="UTF-8" standalone="no"?>
<!-- Created with Inkscape (http://www.inkscape.org/) -->

<svg
   width="108.12082mm"
   height="58.64468mm"
   viewBox="0 0 108.12082 58.64468"
   version="1.1"
   id="svg1"
   xml:space="preserve"
   xmlns="http://www.w3.org/2000/svg"
   xmlns:svg="http://www.w3.org/2000/svg"><defs
     id="defs1" /><path
     d="m 135.18448,209.96509 c -2.19442,-0.55719 -3.58854,-2.40407 -3.58854,-4.75397 0,-3.13528 2.04899,-5.1442 5.41798,-5.31203 1.57617,-0.0785 3.10201,0.3898 4.11066,1.26166 0.39536,0.34174 1.31928,1.67243 1.31928,1.9001 0,0.0645 -0.70419,0.35512 -1.56486,0.64577 l -1.56486,0.52847 -0.55423,-0.58995 c -0.30482,-0.32447 -0.47885,-0.66532 -0.38673,-0.75744 0.44959,-0.44959 -1.96233,0.21696 -2.47776,0.68475 -0.87303,0.79233 -0.8215,2.34838 0.10183,3.07467 0.38342,0.30161 0.92703,0.54837 1.20802,0.54837 0.64005,0 1.59962,-0.49282 1.8783,-0.96466 0.14023,-0.23744 0.74252,-0.35825 1.78593,-0.35825 h 1.57436 v 2.25826 c 0,2.25675 -4e-4,2.25806 -0.59531,1.95038 -0.32743,-0.16934 -0.79285,-0.47984 -1.03428,-0.69 -0.38438,-0.3346 -0.54888,-0.32452 -1.32292,0.0811 -1.2732,0.66716 -2.8911,0.85228 -4.30687,0.4928 z m 9.77927,0.2081 c -0.86963,-0.0535 -1.64608,-0.20231 -1.72543,-0.33072 -0.11539,-0.1867 -0.13675,-7.46111 -0.0274,-9.31671 0.024,-0.40726 0.41971,-0.44738 3.9954,-0.40513 l 3.96875,0.0469 v 1.09864 1.09865 l -1.26938,0.16839 c -0.69816,0.0926 -1.82925,0.0638 -2.51354,-0.064 -0.70494,-0.13169 -1.24417,-0.13257 -1.24417,-0.002 0,0.12674 0.11079,0.23043 0.24619,0.23043 0.1354,0 0.28422,0.26789 0.33073,0.59531 0.0791,0.55684 0.21279,0.59537 2.06892,0.59618 l 1.98437,8.6e-4 0.0806,1.25591 0.0806,1.2559 h -2.13117 c -2.07614,0 -2.13116,0.0165 -2.13116,0.63821 0,0.53739 0.16564,0.66618 1.04862,0.81536 0.57675,0.0974 1.17004,0.10213 1.31842,0.0104 0.14839,-0.0917 0.68854,-0.0882 1.20034,0.008 0.89646,0.16818 0.93054,0.2171 0.93054,1.33575 v 1.16118 l -2.31511,-0.05 c -1.2733,-0.0275 -3.02662,-0.0938 -3.89625,-0.14727 z m 10.83969,-0.0643 c 0.0925,-0.14967 -0.013,-0.19452 -0.24673,-0.10484 -0.49074,0.18831 -2.22427,-0.78719 -2.78758,-1.56865 -1.99665,-2.76986 -1.01333,-6.42019 2.11014,-7.83339 1.48365,-0.67127 4.61971,-0.77489 4.8555,-0.16044 0.0825,0.21505 -0.0531,0.50806 -0.30242,0.65341 -0.24862,0.14495 -0.34235,0.26716 -0.20828,0.27158 0.13406,0.004 0.45008,-0.17868 0.70226,-0.4069 0.59386,-0.53743 1.29152,-0.1381 2.30327,1.31837 0.60717,0.87405 0.71947,1.3107 0.71947,2.79745 0,2.32297 -0.85854,3.71851 -2.8613,4.65098 -1.41018,0.65658 -4.63147,0.94411 -4.28433,0.38243 z m 2.76108,-3.30054 c 1.33403,-0.68985 1.44495,-1.93175 0.27685,-3.09985 -0.64071,-0.64071 -0.94426,-0.76664 -1.52136,-0.63115 -1.65927,0.38957 -2.47194,2.49938 -1.3824,3.58893 0.62583,0.62583 1.59054,0.678 2.62691,0.14207 z m 1.78978,-0.86464 c -0.0671,-0.25743 -0.12639,-0.11087 -0.13178,0.32569 -0.005,0.43656 0.0495,0.64719 0.12197,0.46806 0.0725,-0.17913 0.0769,-0.53632 0.01,-0.79375 z m 10.77932,4.25196 c -0.31354,-0.0653 -0.92474,-0.73763 -1.43309,-1.5764 -0.72285,-1.1927 -0.98809,-1.43521 -1.43767,-1.3145 -0.30321,0.0814 -0.64059,0.14966 -0.74973,0.15164 -0.10914,0.002 -0.19844,0.59893 -0.19844,1.32653 v 1.32292 h -1.6857 -1.68571 l -0.12447,-1.25677 c -0.0685,-0.69122 -0.10175,-1.97115 -0.074,-2.84427 0.0278,-0.87313 0.0682,-2.54 0.0899,-3.70417 l 0.0394,-2.11667 3.92942,0.1323 c 3.9644,0.13347 4.37724,0.23494 5.26588,1.29435 0.53134,0.63345 0.4119,2.76443 -0.19844,3.54034 -0.29104,0.37 -0.52916,0.75789 -0.52916,0.86198 0,0.10409 0.53686,0.9416 1.19303,1.86114 1.72377,2.41565 1.72783,2.36596 -0.19657,2.40329 -0.91186,0.0177 -1.90394,-0.0191 -2.20462,-0.0817 z m 0.85422,-5.71221 c -0.0734,-0.1819 -0.13345,-0.0331 -0.13345,0.33073 0,0.36381 0.0601,0.51263 0.13345,0.33073 0.0734,-0.1819 0.0734,-0.47956 0,-0.66146 z m -2.49034,-0.13844 c 1.00629,-0.88364 0.17881,-2.03706 -1.336,-1.86224 -0.62244,0.0718 -0.7254,0.21537 -0.79897,1.11386 -0.12362,1.50972 0.87094,1.85834 2.13497,0.74838 z m 7.7877,5.6564 c -2.10884,-0.78199 -2.91821,-2.11157 -2.94229,-4.83336 -0.015,-1.69822 0.0669,-2.01432 0.78874,-3.04271 0.44302,-0.63119 1.27646,-1.40726 1.85208,-1.72461 1.10172,-0.60739 3.19885,-0.98414 3.42663,-0.61559 0.0737,0.11928 0.35813,0.15826 0.63202,0.0866 1.05038,-0.27468 3.60292,1.80906 3.4145,2.7874 -0.0445,0.23115 -0.66293,0.63636 -1.37427,0.90047 -1.27269,0.47254 -1.3025,0.47161 -1.86695,-0.0587 -1.24367,-1.16837 -3.22806,-0.28124 -3.36408,1.50393 -0.0679,0.89051 0.54458,1.79645 1.39742,2.06714 0.58176,0.18464 2.25229,-0.55496 2.45671,-1.08768 0.17912,-0.46677 2.68419,-0.52446 2.96611,-0.0683 0.10474,0.16947 0.24649,1.1815 0.31499,2.24896 0.13982,2.1787 0.0242,2.292 -1.4251,1.39629 l -0.88106,-0.54452 -0.79562,0.58822 c -0.9916,0.73313 -3.18258,0.92194 -4.59983,0.39639 z m 1.27299,-0.9518 c 0.0892,-0.14437 0.0277,-0.47179 -0.13666,-0.7276 -0.24114,-0.37526 -0.27345,-0.3819 -0.16728,-0.0343 0.0724,0.23693 -0.002,0.56435 -0.16523,0.72761 -0.21938,0.21937 -0.21806,0.29682 0.005,0.29682 0.16603,0 0.37488,-0.11812 0.46411,-0.26249 z m -80.409859,0.75567 c -1.122619,-0.30023 -2.785514,-1.54919 -3.244572,-2.43691 -0.224094,-0.43335 -0.462575,-1.45321 -0.529958,-2.26636 -0.09861,-1.18993 -0.0026,-1.7102 0.492001,-2.666 1.99109,-3.84777 8.839088,-3.83726 10.380838,0.0159 1.02141,2.55275 -0.0156,5.34515 -2.49028,6.70533 -0.90651,0.49827 -3.699377,0.89101 -4.608029,0.648 z m 3.001609,-3.5261 c 1.87443,-0.96931 1.05851,-3.58166 -1.11867,-3.58166 -1.086979,0 -1.738801,0.64363 -1.946214,1.92177 -0.275234,1.69607 1.322058,2.56114 3.064884,1.65989 z m 85.36013,3.5798 -0.78066,-0.15067 -0.1045,-4.94196 -0.1045,-4.94196 3.96457,-0.0216 c 4.35192,-0.0237 4.42926,0.006 4.11549,1.57471 l -0.15817,0.79086 h -2.06798 c -2.10789,0 -2.4902,0.15649 -2.20405,0.90216 0.12872,0.33544 0.5849,0.42076 2.24981,0.42076 h 2.08836 v 1.32291 1.32292 h -2.11666 c -2.08139,0 -2.11667,0.011 -2.11667,0.66146 0,0.61847 0.0903,0.66304 1.38906,0.68577 3.13386,0.0549 2.96792,-0.0103 3.05635,1.20017 l 0.0798,1.0922 -1.66728,0.17293 c -1.81826,0.18859 -4.39106,0.14711 -5.62295,-0.0907 z m 6.58592,-0.93534 c -0.28247,-0.21365 -0.63265,-0.38846 -0.77817,-0.38846 -0.14552,0 -0.0335,0.17481 0.24901,0.38846 0.28247,0.21365 0.63265,0.38846 0.77817,0.38846 0.14552,0 0.0335,-0.17481 -0.24901,-0.38846 z m -5.93755,-0.37698 c 0,-0.12995 -0.17859,-0.30481 -0.39687,-0.38857 -0.4033,-0.15476 -0.54187,0.12708 -0.22049,0.44845 0.25286,0.25287 0.61736,0.21751 0.61736,-0.0599 z m -101.367992,0.30242 c -0.101587,-3.09396 -0.08051,-8.80036 0.03258,-8.82067 0.07276,-0.0131 1.888464,-0.0657 4.034896,-0.1169 l 3.902605,-0.0931 v 1.17499 c 0,1.32739 0.01577,1.32109 -2.976563,1.18883 l -1.521354,-0.0672 v 0.95274 0.95274 l 1.389062,0.0305 c 0.763985,0.0168 1.508125,0.0582 1.653646,0.092 0.145521,0.0338 0.419935,0.0796 0.60981,0.10178 0.242751,0.0283 0.321288,0.41335 0.264583,1.29707 l -0.08064,1.25677 H 91.24699 89.394906 l -0.07935,1.52135 -0.07935,1.52136 h -1.70659 -1.706588 z m 20.490112,0.55881 c -0.18832,-0.47857 0.0898,-9.35428 0.29971,-9.56391 0.10416,-0.10405 1.75695,-0.18668 3.67285,-0.18363 2.78661,0.004 3.65225,0.0968 4.32728,0.46151 1.09157,0.58983 1.66995,1.43419 1.66872,2.43609 -0.001,0.86149 -0.87314,2.52082 -1.32484,2.52082 -0.36981,0 0.23544,1.11701 1.56154,2.88185 0.58959,0.78465 1.00327,1.53782 0.91929,1.67369 -0.17773,0.28759 -3.46226,0.20586 -4.10374,-0.10211 -0.23935,-0.11491 -0.77514,-0.74701 -1.19062,-1.40467 -0.59673,-0.94453 -0.90829,-1.19583 -1.48304,-1.19621 -0.70455,-4.6e-4 -0.7276,0.0451 -0.7276,1.43747 v 1.43794 l -1.75054,-0.0489 c -1.01962,-0.0285 -1.80001,-0.17459 -1.86901,-0.34996 z m 5.78153,-5.56076 c 0.26612,-0.24083 0.48385,-0.59527 0.48385,-0.78765 0,-0.58465 -1.19273,-1.19847 -1.95636,-1.00681 -0.59515,0.14937 -0.68947,0.3139 -0.68947,1.2027 0,0.98002 0.0404,1.02965 0.83906,1.02965 0.46148,0 1.0568,-0.19705 1.32292,-0.43789 z m 2.8651,-1.94336 c 0,-0.14552 -0.0525,-0.26459 -0.11668,-0.26459 -0.0642,0 -0.19026,0.11907 -0.28019,0.26459 -0.0899,0.14552 -0.0374,0.26458 0.11667,0.26458 0.15411,0 0.2802,-0.11906 0.2802,-0.26458 z m 4.93889,7.76111 c -0.097,-0.097 -0.17639,-1.76389 -0.17639,-3.70417 v -3.52778 h -1.45521 -1.45521 v -0.9044 c 0,-1.796 -0.15427,-1.74143 4.9231,-1.74143 h 4.6019 v 1.43876 c 0,1.27567 -0.06,1.43425 -0.52916,1.39891 -0.29104,-0.0219 -0.52917,-0.10968 -0.52917,-0.19501 0,-0.0853 -0.41672,-0.1065 -0.92604,-0.047 l -0.92604,0.10811 v 3.67522 3.67522 h -1.6757 c -0.92163,0 -1.75507,-0.0794 -1.85208,-0.17639 z m 17.02153,-13.0646 c -6.76672,-0.10464 -21.05422,-0.20135 -31.75,-0.21491 l -19.446876,-0.0247 v -6.68732 c 0,-3.67803 0.08773,-10.67592 0.194953,-15.55087 0.107224,-4.87495 0.196521,-9.46243 0.198437,-10.1944 l 0.0035,-1.33085 2.711979,-0.8824 c 1.491589,-0.48532 3.545417,-1.16204 4.564063,-1.50382 3.057334,-1.02583 8.041914,-2.51251 10.715624,-3.19599 3.1406,-0.80284 9.0184,-2.70441 9.45542,-3.05899 0.18001,-0.14606 0.62732,-0.19026 0.99402,-0.0982 0.45503,0.1142 0.64515,0.0644 0.59875,-0.15687 -0.0374,-0.17831 0.0511,-0.33634 0.19661,-0.35117 0.71547,-0.0729 2.15991,-0.50208 3.63346,-1.07956 1.62914,-0.63845 1.63851,-0.63895 3.69626,-0.19676 1.13464,0.24382 2.06298,0.54912 2.06298,0.67845 0,0.12933 0.11605,0.16342 0.25788,0.0758 0.14183,-0.0877 1.18362,0.0202 2.3151,0.23971 2.63213,0.5106 9.40946,1.92344 10.78848,2.24903 0.58209,0.13743 1.78263,0.38895 2.66788,0.55894 1.05523,0.20262 1.60955,0.43651 1.60955,0.67913 0,0.46329 0.12043,0.46976 -2.77567,-0.14913 -3.58634,-0.76641 -4.54447,-1.0564 -4.54447,-1.37546 0,-0.19233 -0.10893,-0.20077 -0.33072,-0.0256 -0.47503,0.37511 -6.81303,-0.85776 -6.81303,-1.32528 0,-0.13784 -0.18499,-0.17964 -0.41109,-0.0929 -0.22611,0.0868 -1.66541,-0.13862 -3.19846,-0.50085 -1.53305,-0.36224 -2.92564,-0.65864 -3.09463,-0.65866 -0.23134,-3e-5 -0.29075,5.30763 -0.24039,21.47608 0.0368,11.81187 0.11308,21.52233 0.16956,21.57881 0.10491,0.10491 52.3514,0.10342 64.91736,-0.002 l 6.94548,-0.0582 0.0277,-0.66145 c 0.0153,-0.36381 0.007,-2.09021 -0.0194,-3.83646 -0.0367,-2.47534 0.0232,-3.106 0.27199,-2.86189 0.28492,0.27959 0.73559,7.96799 0.47183,8.04935 -0.0501,0.0155 -4.02012,0.13461 -8.82231,0.26481 -12.68661,0.34397 -33.88579,0.44305 -48.02187,0.22445 z m 52.71823,-2.79741 c -0.24331,-0.10688 -0.33073,-1.1885 -0.33073,-4.09199 v -3.9467 h 1.14005 c 1.83674,0 1.98678,0.25254 2.08306,3.50596 0.0463,1.56448 -0.005,2.8444 -0.11426,2.84427 -0.10914,-1.2e-4 -0.19843,0.12586 -0.19843,0.27997 0,0.15411 0.0893,0.22501 0.19843,0.15756 0.10914,-0.0675 0.19844,0.16364 0.19844,0.51355 v 0.64262 c 0,0.10781 -2.74772,0.19529 -2.97656,0.0948 z m -39.6875,-0.29625 -1.38907,-0.0972 v -5.43611 -5.43611 l 1.65365,0.19624 c 0.90951,0.10793 3.49912,0.32798 5.75469,0.48899 l 4.10104,0.29277 0.0719,5.09323 0.0719,5.09322 -4.43749,-0.0489 c -2.44061,-0.0269 -5.06256,-0.0927 -5.82654,-0.14612 z m 11.31094,-4.83202 c 0,-4.61066 0.0383,-5.02722 0.46302,-5.02879 0.25466,-9.4e-4 2.30849,0.13325 4.56406,0.29821 3.21046,0.23479 4.17568,0.39317 4.44474,0.72931 0.25782,0.3221 0.32444,1.50376 0.26662,4.72887 l -0.0771,4.29948 h -4.83067 -4.83067 z m 10.54167,3.61049 c -0.0498,-0.77913 -0.0537,-2.87655 -0.008,-4.66093 l 0.0822,-3.24433 3.09281,0.1842 c 2.73185,0.1627 4.87007,0.3763 4.98294,0.49776 0.086,0.0925 0.16744,3.91029 0.13212,6.1925 l -0.0379,2.44739 h -4.07655 -4.07656 z m 8.92502,1.18408 c -0.14335,-0.23195 0.0755,-8.2854 0.22936,-8.43923 0.0446,-0.0446 0.86996,-2.4e-4 1.83417,0.0985 l 1.75311,0.17961 v 4.1968 4.19679 h -1.83647 c -1.01006,0 -1.90113,-0.10463 -1.98017,-0.23251 z m 4.40523,-3.92008 0.0729,-4.1526 1.58222,0.0736 c 0.87022,0.0405 1.67389,0.13022 1.78593,0.19946 0.11205,0.0692 0.20372,1.90482 0.20372,4.07905 v 3.95313 h -1.8588 -1.8588 z m -41.97026,3.69602 -2.6202,-0.0927 0.15422,-5.4394 c 0.0848,-2.99167 0.20799,-5.49316 0.2737,-5.55887 0.15956,-0.15956 6.00482,0.34859 6.19476,0.53853 0.0818,0.0818 0.16145,2.50301 0.17698,5.38045 l 0.0282,5.23172 -0.79375,0.0165 c -0.43656,0.009 -1.97284,-0.0252 -3.41396,-0.0762 z m -10.47667,-0.30908 -0.66145,-0.18373 -0.0742,-5.52333 c -0.0408,-3.03784 0.0187,-5.61044 0.13229,-5.71689 0.11355,-0.10646 1.78403,-0.0634 3.71218,0.0957 l 3.50573,0.28923 v 5.63776 5.63777 l -2.97656,-0.0264 c -1.63711,-0.0145 -3.27422,-0.10905 -3.63803,-0.21011 z m -8.40052,-0.22455 -1.91823,-0.0913 v -6.08345 -6.08345 l 2.71198,0.18069 c 1.49159,0.0994 3.3056,0.25254 4.03113,0.34035 l 1.31915,0.15967 0.008,5.88698 0.008,5.88697 -2.12061,-0.0526 c -1.16633,-0.0289 -2.98381,-0.0937 -4.03884,-0.14388 z m 68.90163,-5.28891 c -0.10982,-0.17769 -0.18,-4.36813 -0.15597,-9.31208 0.0393,-8.07689 -0.001,-9.0338 -0.39769,-9.43041 -0.56074,-0.56074 -0.40389,-0.71638 0.49466,-0.49086 l 0.70872,0.17788 -0.0538,8.85182 c -0.0525,8.64675 -0.18251,10.87265 -0.59597,10.20365 z m -2.55735,-5.88705 -1.19063,-0.13696 -0.0732,-4.06567 -0.0732,-4.06566 0.99924,0.17381 c 0.54958,0.0956 1.32667,0.30248 1.72685,0.45974 l 0.7276,0.28594 v 3.64121 c 0,4.10167 0.0807,3.96035 -2.11666,3.70759 z m -4.40062,-0.59663 -1.09332,-0.26383 0.13566,-4.00387 c 0.0746,-2.20214 0.17263,-4.04645 0.21779,-4.09849 0.0668,-0.0769 1.26713,0.16 3.15611,0.62295 0.16628,0.0408 0.23508,1.55211 0.18518,4.06773 l -0.0794,4.00289 -0.71435,-0.0318 c -0.39289,-0.0175 -1.20634,-0.1505 -1.80767,-0.29561 z m -3.53688,-0.37259 c -1.88708,-0.31278 -1.75795,-0.10772 -1.95131,-3.09853 -0.0978,-1.51238 -0.0975,-3.43251 5.4e-4,-4.26695 l 0.17831,-1.51716 1.29346,0.17158 c 0.71141,0.0944 1.57779,0.27969 1.9253,0.41181 l 0.63184,0.24022 -0.0851,4.04877 c -0.0849,4.0403 -0.0864,4.04884 -0.70834,4.08433 -0.34278,0.0196 -0.92089,-0.0138 -1.28469,-0.0741 z m -7.07761,-0.84564 -3.77031,-0.40941 v -4.72886 c 0,-4.37832 0.0343,-4.71894 0.46302,-4.59492 0.25466,0.0737 1.53458,0.32224 2.84427,0.55237 4.30331,0.75615 4.88612,0.93692 5.02613,1.55895 0.0704,0.31269 0.0881,1.34243 0.0393,2.28831 -0.0488,0.94589 -0.10711,2.64253 -0.12965,3.77031 -0.0293,1.46592 -0.13528,2.03943 -0.37172,2.01159 -0.1819,-0.0214 -2.02737,-0.22316 -4.10104,-0.44834 z m -10.35553,-1.12155 c -2.0939,-0.27126 -3.87984,-0.56649 -3.96875,-0.65606 -0.18904,-0.19043 -0.13523,-9.6237 0.056,-9.81491 0.12513,-0.12514 4.74936,0.63741 7.98444,1.31666 l 1.5875,0.33331 0.0722,4.68575 0.0722,4.68574 -0.99829,-0.0286 c -0.54906,-0.0157 -2.71149,-0.25058 -4.80539,-0.52185 z m -9.81895,-1.18145 c -1.52797,-0.19231 -3.25437,-0.35821 -3.83646,-0.36867 -0.58208,-0.0105 -1.50481,-0.143 -2.05052,-0.29455 l -0.99219,-0.27555 v -5.4415 -5.44155 l 0.8599,0.15901 c 0.47294,0.0875 1.51474,0.2801 2.3151,0.42809 0.80037,0.148 2.05053,0.38705 2.77813,0.53123 0.7276,0.14418 2.09682,0.3844 3.04271,0.53381 2.9223,0.4616 2.64583,-0.12037 2.64583,5.5695 v 5.00925 l -0.99219,-0.0297 c -0.5457,-0.0163 -2.24234,-0.18703 -3.77031,-0.37934 z m -11.989,-1.38129 -2.86087,-0.3957 0.0571,-5.18479 c 0.0314,-2.85164 0.10664,-5.37431 0.16721,-5.60594 0.0997,-0.38138 0.40457,-0.37251 3.22832,0.0939 l 3.11818,0.51502 0.16958,2.94278 c 0.0933,1.61853 0.17013,4.10364 0.17079,5.52247 0.001,2.99483 0.48963,2.74021 -4.0503,2.11228 z m -8.6485,-0.99445 c -1.38245,-0.18653 -2.54331,-0.35063 -2.57969,-0.36468 -0.0364,-0.014 -0.0661,-2.71249 -0.0661,-5.99651 0,-5.55953 0.0319,-5.96204 0.46302,-5.84156 0.25466,0.0712 1.862,0.39294 3.57187,0.71503 l 3.10886,0.58563 v 5.6528 5.6528 l -0.99219,-0.0322 c -0.5457,-0.0177 -2.12328,-0.1848 -3.50573,-0.37132 z m -6.21771,-0.69605 c -0.87312,-0.11519 -2.00422,-0.27762 -2.51354,-0.36094 -0.50932,-0.0833 -1.10463,-0.15337 -1.32292,-0.15565 -0.21828,-0.002 -0.84336,-0.0668 -1.38906,-0.1433 l -0.99219,-0.13914 v -6.06216 -6.06216 h 0.61287 c 0.33707,0 1.25981,0.10833 2.05052,0.24074 0.79071,0.13241 2.36039,0.38738 3.48818,0.5666 l 2.05052,0.32585 v 5.90008 c 0,3.24504 -0.0893,5.94496 -0.19844,5.9998 -0.10914,0.0548 -0.91281,0.005 -1.78594,-0.10972 z m 59.39896,-6.59265 c -1.52797,-0.42637 -4.56406,-1.1976 -6.74687,-1.71386 -7.91662,-1.87236 -8.33299,-2.00045 -8.46839,-2.60519 -0.0685,-0.30605 -0.1557,-1.14483 -0.19372,-1.86396 l -0.0691,-1.30753 -2.24896,-0.58239 c -1.23693,-0.32032 -4.15396,-1.07313 -6.48229,-1.67292 -2.32834,-0.59978 -4.47162,-1.19179 -4.76285,-1.31557 -0.508,-0.21592 -0.52567,-0.14055 -0.435,1.85595 0.10723,2.36136 0.10206,2.36581 -1.94323,1.67142 -0.66355,-0.22528 -2.60247,-0.70448 -4.30873,-1.06489 -1.70625,-0.36041 -3.99525,-0.8837 -5.08665,-1.16288 -1.09141,-0.27917 -2.54992,-0.58117 -3.24115,-0.67111 -0.84118,-0.10945 -1.25677,-0.28941 -1.25677,-0.54419 0,-0.44654 0.0975,-0.45643 1.32292,-0.13427 0.50932,0.13389 1.40229,0.30538 1.98437,0.38108 0.58209,0.0757 1.78865,0.32602 2.68125,0.55626 2.74271,0.70745 7.62634,1.67244 7.83594,1.54835 0.10914,-0.0646 0.20218,-0.61647 0.20675,-1.22635 0.007,-0.871 0.14952,-1.21166 0.66657,-1.58809 0.38088,-0.27729 0.87018,-0.41197 1.16118,-0.31961 0.56571,0.17955 0.77705,0.23008 3.19102,0.76291 0.94589,0.20878 2.43417,0.57932 3.30729,0.82342 0.87313,0.24411 2.00422,0.54031 2.51355,0.65824 1.97686,0.45772 4.39582,1.10874 5.03548,1.35522 0.60567,0.23338 0.67574,0.41452 0.73124,1.89022 0.0338,0.89765 0.19546,1.71496 0.35933,1.81624 0.29477,0.18217 1.8455,0.58951 7.49999,1.97005 3.58208,0.87457 4.70577,1.23167 4.95688,1.57529 0.12735,0.17426 0.19579,0.1681 0.19844,-0.0179 0.005,-0.34948 5.20015,0.9575 5.33516,1.34221 0.17144,0.48853 -0.94703,0.36419 -3.74361,-0.41617 z"
     id="logo-face"
     transform="translate(-85.690734,-151.76323)" /></svg>
