<?xml version="1.0" encoding="UTF-8" standalone="no"?>
<!-- Created with Inkscape (http://www.inkscape.org/) -->

<svg
   width="514.08734mm"
   height="202.93289mm"
   viewBox="0 0 514.08734 202.93289"
   version="1.1"
   id="svg1"
   xml:space="preserve"
   xmlns="http://www.w3.org/2000/svg"
   xmlns:svg="http://www.w3.org/2000/svg"><defs
     id="defs1" /><g
     id="layer1"
     transform="translate(-272.68651,-254.29235)"><path
       class="logo-face"
       d="m 516.78349,456.97395 c -0.46101,-0.10981 -1.37491,-0.51418 -2.03089,-0.89861 l -1.19268,-0.69896 -0.74724,-1.52171 -0.74724,-1.5217 -0.0837,-9.26042 c -0.0461,-5.09323 -0.009,-9.87264 0.0816,-10.62093 l 0.16536,-1.36051 0.84442,-1.4047 0.84443,-1.40471 1.31585,-0.67437 1.31585,-0.67436 2.38832,10e-4 2.38831,0.001 0.92604,0.49297 c 1.3068,0.69565 2.08159,1.4574 2.72588,2.68002 l 0.55772,1.05833 0.10655,2.97656 0.10655,2.97657 h -2.1189 -2.1189 l -0.0925,-2.36028 -0.0925,-2.36029 -0.64143,-0.68242 -0.64144,-0.68243 h -0.95334 -0.95334 l -0.57775,0.40468 -0.57776,0.40467 -0.27339,0.98439 -0.27339,0.98439 0.0135,8.33437 0.0135,8.33437 0.31579,0.91915 0.3158,0.91914 0.66145,0.33373 c 0.36381,0.18355 0.98225,0.33548 1.37431,0.33763 l 0.71285,0.004 0.74236,-0.63791 0.74236,-0.63791 0.0866,-3.59543 0.0866,-3.59542 h -1.07883 -1.07884 v -2.11667 -2.11666 h 3.175 3.175 v 5.7737 5.7737 l -0.4346,1.27548 -0.4346,1.27548 -1.00602,1.00603 -1.00603,1.00603 -1.38552,0.41145 c -1.4561,0.43242 -3.23407,0.49281 -4.64122,0.15765 z m 22.58888,-0.15563 -1.26807,-0.40691 -1.00931,-1.00931 -1.0093,-1.00931 -0.43461,-1.27548 -0.4346,-1.27548 v -9.86482 -9.86482 l 0.52993,-1.41636 0.52993,-1.41636 0.75133,-0.71982 c 0.41323,-0.3959 1.36667,-0.95363 2.11874,-1.2394 l 1.36742,-0.51957 h 1.41032 c 1.66697,0 3.53865,0.51774 4.59761,1.27178 l 0.76026,0.54136 0.76292,1.40172 0.76291,1.40173 0.11747,2.85108 0.11747,2.85108 h -2.15065 -2.15066 l -10e-4,-1.65365 c -8.1e-4,-0.9095 -0.1245,-2.09662 -0.27487,-2.63803 l -0.27339,-0.98439 -0.57775,-0.40467 -0.57776,-0.40468 h -0.95334 -0.95334 l -0.64144,0.68246 -0.64143,0.68247 -0.0675,9.30555 -0.0675,9.30556 0.3359,0.65346 c 0.18474,0.35941 0.63871,0.82343 1.00883,1.03117 l 0.67294,0.37771 0.97888,-0.18364 0.97888,-0.18364 0.45608,-0.69605 0.45607,-0.69606 0.1011,-2.73116 0.1011,-2.73116 h 2.11794 2.11795 l -0.10537,3.38175 -0.10536,3.38175 -0.80603,1.42668 -0.80602,1.42669 -1.35836,0.76742 -1.35836,0.76743 -1.92873,0.11142 -1.92872,0.11142 z m 17.14307,0.16204 c -1.82144,-0.44343 -3.30343,-1.64338 -4.26927,-3.45677 l -0.49323,-0.92604 -0.0781,-10.01135 -0.0781,-10.01135 0.40653,-1.39841 0.40652,-1.39842 1.09414,-1.09413 1.09414,-1.09414 1.46805,-0.42677 1.46806,-0.42678 1.78593,0.12778 1.78593,0.12779 1.38869,0.78456 1.38869,0.78456 0.81396,1.435 0.81396,1.435 v 10.58333 10.58333 l -0.57972,1.08339 c -0.31885,0.59586 -1.00178,1.45395 -1.51763,1.90687 l -0.9379,0.82348 -1.37466,0.40824 c -1.43598,0.42644 -3.23563,0.48955 -4.58592,0.16083 z m 3.69866,-4.61783 0.6319,-0.6319 0.16517,-0.88945 c 0.0908,-0.48921 0.12851,-4.85874 0.0837,-9.71008 l -0.0815,-8.82062 -0.74236,-0.63823 -0.74236,-0.63824 h -0.89653 -0.89654 l -0.74235,0.63855 -0.74236,0.63855 v 9.70311 9.70311 l 0.74236,0.63855 0.74235,0.63855 h 0.92332 0.92331 z m -148.09501,4.45245 -0.19843,-0.20458 v -14.77257 -14.77257 h 4.04545 4.04545 l 1.54325,0.40197 c 0.84879,0.22108 1.87561,0.63863 2.28184,0.92788 l 0.73859,0.52593 0.60815,1.25492 0.60816,1.25493 0.1059,2.40916 0.1059,2.40917 -0.42465,1.46074 -0.42465,1.46074 -1.0323,0.93262 -1.0323,0.93263 0.95159,0.62142 0.95158,0.62143 0.67392,1.31544 0.67391,1.31543 v 3.44707 3.44706 l -0.35874,1.01488 c -0.19731,0.55819 -0.73309,1.44125 -1.19062,1.96236 l -0.83189,0.94748 -1.19063,0.53355 -1.19062,0.53355 -4.63021,0.11197 -4.63021,0.11196 z m 8.20377,-4.36689 0.80824,-0.28176 0.3135,-0.75686 0.31351,-0.75686 -0.0901,-2.92345 -0.0901,-2.92344 -0.59394,-0.59327 -0.59393,-0.59328 -1.85346,-0.10473 -1.85346,-0.10473 v 4.66007 4.66006 h 1.41572 c 0.77865,0 1.77944,-0.12679 2.22398,-0.28175 z m -0.38116,-13.5198 c 0.31785,-0.16929 0.71496,-0.49372 0.88245,-0.72095 0.44242,-0.6002 0.66783,-2.7282 0.45719,-4.31608 l -0.18254,-1.37608 -0.6083,-0.60829 -0.60829,-0.6083 h -1.59953 -1.59952 v 3.96875 3.96875 h 1.34031 c 0.73717,0 1.60037,-0.13851 1.91823,-0.3078 z m 9.44146,3.05642 v -14.97846 l 4.69635,0.10784 4.69635,0.10784 1.21933,0.55168 1.21932,0.55168 0.67311,0.89134 c 0.37022,0.49024 0.81629,1.37618 0.99127,1.96876 l 0.31816,1.07742 -0.0939,3.4205 -0.0939,3.42049 -0.70568,1.20033 -0.70568,1.20033 -0.68055,0.36422 -0.68055,0.36421 1.03469,0.88566 1.03468,0.88565 0.39966,1.12167 0.39965,1.12168 0.14426,4.7625 c 0.0793,2.61938 0.22167,5.03525 0.31629,5.36861 l 0.17205,0.6061 -2.33752,-0.0769 -2.33751,-0.0769 -0.18334,-0.66145 c -0.10083,-0.36381 -0.1952,-2.54847 -0.2097,-4.85481 l -0.0264,-4.19335 -0.40962,-0.86322 -0.40963,-0.86322 -0.66116,-0.30124 c -0.36363,-0.16569 -1.25086,-0.30125 -1.97162,-0.30125 h -1.31047 v 6.08542 6.08542 h -2.24896 -2.24895 z m 7.9286,-1.81797 0.75857,-0.39228 0.31628,-0.95834 0.31628,-0.95834 -0.10644,-2.6502 -0.10645,-2.65019 -0.73172,-0.6294 -0.73172,-0.6294 h -1.57274 -1.57275 v 4.63021 4.63021 h 1.33606 1.33605 z m 9.18112,16.62005 c -0.097,-0.097 -0.17639,-6.82405 -0.17639,-14.94896 v -14.77257 h 6.35 6.35 v 2.11667 2.11666 h -3.96875 -3.96875 v 4.23334 4.23333 h 3.175 3.175 v 2.11667 2.11666 h -3.175 -3.175 v 4.36563 4.36562 h 3.96875 3.96875 v 2.11667 2.11667 h -6.17361 c -3.39549,0 -6.25299,-0.0794 -6.35,-0.17639 z m 17.81527,0.0875 c 0,-0.0489 -0.71437,-6.4978 -1.5875,-14.33091 -0.87312,-7.83312 -1.5875,-14.52016 -1.5875,-14.86008 v -0.61805 h 2.12498 2.12497 l 0.10897,0.33073 c 0.0599,0.1819 0.59888,5.09323 1.19766,10.91406 0.59878,5.82083 1.17246,10.79756 1.27485,11.05938 l 0.18616,0.47605 1.01384,-10.7948 c 0.55761,-5.93714 1.07516,-11.06269 1.1501,-11.39011 l 0.13626,-0.59531 h 2.16064 2.16065 l 1.01096,10.2526 c 1.17252,11.89108 1.27221,12.8071 1.38182,12.69749 0.0449,-0.0449 0.56464,-4.84006 1.15502,-10.65595 0.59038,-5.81589 1.13743,-10.9613 1.21567,-11.43424 l 0.14227,-0.8599 h 1.98552 1.98552 l -0.18782,1.65365 c -0.1033,0.9095 -0.85335,7.60677 -1.66678,14.88281 l -1.47896,13.22916 -3.10886,0.0745 -3.10885,0.0745 v -0.35003 c 0,-0.69806 -1.58719,-14.8359 -1.67547,-14.92418 -0.0499,-0.0499 -0.41506,2.97567 -0.8115,6.72346 -0.39644,3.74779 -0.7862,7.20112 -0.86615,7.67406 l -0.14536,0.8599 h -3.14555 c -1.73006,0 -3.14556,-0.04 -3.14556,-0.0889 z m 21.69584,-14.84978 v -14.95926 h 2.38345 2.38345 l -0.0684,14.88281 -0.0683,14.88281 -2.3151,0.0764 -2.3151,0.0764 z m 8.20208,-0.0103 v -14.94896 l 2.84427,5.4e-4 2.84427,5.3e-4 2.09996,7.87082 c 1.15497,4.32895 2.24791,8.28754 2.42875,8.79686 l 0.3288,0.92604 0.0186,-8.79739 0.0186,-8.7974 h 1.98438 1.98437 v 14.95926 14.95926 l -2.3151,-0.0764 -2.31511,-0.0764 -2.78453,-10.18645 c -1.53149,-5.60256 -2.86154,-10.36506 -2.95567,-10.58334 -0.0941,-0.21828 -0.18054,4.39539 -0.19203,10.25261 l -0.0209,10.64948 h -1.98438 -1.98437 z m 74.6125,0 v -14.94896 h 3.14631 3.14632 l 0.14046,0.59531 c 0.0772,0.32742 0.81091,4.7625 1.63035,9.85573 0.81945,5.09323 1.57371,9.53097 1.67614,9.86164 l 0.18623,0.60123 1.56763,-10.45696 1.56763,-10.45695 h 3.25904 3.25905 v 14.94896 14.94896 h -2.24585 -2.24585 l -0.0693,-10.25261 -0.0693,-10.2526 -1.15599,7.67291 c -0.6358,4.22011 -1.33545,8.83378 -1.55478,10.25261 l -0.39878,2.57969 h -2.18106 -2.18106 l -1.68812,-10.25261 -1.68812,-10.2526 -0.0693,10.2526 -0.0693,10.25261 h -1.98127 -1.98126 z m 23.01874,-0.03 v -14.97897 l 4.56407,0.11319 4.56406,0.11319 1.27042,0.61383 1.27043,0.61384 0.67011,0.87856 c 0.36856,0.4832 0.83866,1.43862 1.04468,2.12316 l 0.37457,1.2446 v 3.6141 3.61409 l -0.40824,1.37467 -0.40823,1.37466 -0.8444,0.96173 c -0.46443,0.52895 -1.26299,1.14497 -1.77458,1.36894 l -0.93018,0.40721 -2.38125,0.14869 -2.38125,0.14868 -0.0714,5.6224 -0.0714,5.6224 h -2.2437 -2.2437 z m 8.4476,-1.14154 0.51009,-0.5101 0.18544,-1.23661 c 0.102,-0.68014 0.12768,-2.43633 0.0571,-3.90266 l -0.12838,-2.66604 -0.71421,-0.61433 -0.7142,-0.61434 h -1.57274 -1.57275 v 5.02709 5.02708 h 1.71979 1.71979 z m 5.8399,15.88328 c 0,-0.33252 4.46626,-28.3354 4.63697,-29.07323 l 0.13956,-0.60316 3.36642,0.074 3.36643,0.074 2.30264,14.2875 c 1.26645,7.85813 2.30825,14.55539 2.3151,14.88281 l 0.0125,0.59532 h -2.22028 -2.22027 l -0.143,-0.59532 c -0.0786,-0.32742 -0.28384,-1.57757 -0.456,-2.77812 l -0.313,-2.18281 h -2.85129 -2.8513 l -0.14299,0.59531 c -0.0786,0.32742 -0.28385,1.57758 -0.456,2.77812 l -0.313,2.18282 h -2.08623 -2.08623 z m 10.05417,-9.67374 c 0,-0.50828 -1.82289,-12.78285 -2.02522,-13.63695 -0.21747,-0.91804 -0.22257,-0.89317 -1.27437,6.21771 -0.51659,3.4925 -1.00701,6.67742 -1.08981,7.0776 l -0.15056,0.72761 h 2.26998 2.26998 z m 8.46667,-5.03799 v -14.94896 h 2.87249 2.8725 l 2.04322,7.60677 c 1.12377,4.18372 2.2041,8.14255 2.40074,8.7974 l 0.35752,1.19062 0.0184,-8.79739 0.0184,-8.7974 h 2.11887 2.11887 l -0.0683,14.88281 -0.0684,14.88281 h -2.35715 -2.35715 l -2.80709,-10.36771 c -1.5439,-5.70224 -2.8942,-10.45482 -3.00066,-10.56128 l -0.19357,-0.19357 v 10.62743 10.62743 h -1.98438 -1.98437 z m 22.48958,9.89736 v -5.07219 l -2.79389,-9.42405 c -1.53663,-5.18322 -2.85434,-9.6324 -2.92824,-9.88706 l -0.13436,-0.46302 h 2.38882 2.38883 l 0.36281,1.25677 c 0.19954,0.69123 1.00532,3.72334 1.79061,6.73804 l 1.42781,5.48127 0.16759,-0.32189 c 0.0922,-0.17704 0.91894,-3.20916 1.83725,-6.73804 l 1.66966,-6.41615 h 2.22105 2.22105 l -0.1587,0.50002 c -0.0873,0.27501 -1.3727,4.53149 -2.85647,9.45885 l -2.69777,8.95884 -0.13792,5.42396 -0.13792,5.42395 -2.31511,0.0764 -2.3151,0.0764 z m 44.96884,-24.70404 c -6.81243,-0.99176 -11.86469,-2.82566 -16.65843,-6.0468 l -1.98437,-1.3334 -2.26344,-2.26802 c -1.2449,-1.24741 -2.67365,-2.78244 -3.175,-3.41118 l -0.91156,-1.14316 -6.21771,2.88686 -6.21771,2.88686 -1.19062,-0.34229 c -0.65485,-0.18825 -4.98503,-1.35419 -9.62263,-2.59097 -4.63759,-1.23678 -8.47028,-2.28698 -8.51708,-2.33378 -0.0468,-0.0468 0.26588,-3.28614 0.69485,-7.19855 0.42896,-3.91241 0.73639,-7.15701 0.68318,-7.21023 -0.0532,-0.0532 -2.70322,2.11794 -5.88889,4.82478 -3.18568,2.70684 -6.03657,5.03998 -6.33531,5.18474 l -0.54318,0.26321 -8.32037,-1.75573 c -4.5762,-0.96564 -8.89006,-1.87779 -9.58635,-2.02699 l -1.26598,-0.27126 0.17484,-12.74225 0.17484,-12.74225 -0.26507,0.26459 c -0.14578,0.14552 -2.05648,2.94349 -4.24599,6.21771 -3.99982,5.98137 -12.14358,17.99908 -12.30937,18.16487 -0.0488,0.0488 -1.8654,-0.15809 -4.03679,-0.45986 -2.1714,-0.30176 -6.86502,-0.87142 -10.43028,-1.2659 l -6.48229,-0.71724 -0.43977,-0.91562 c -0.24187,-0.5036 -1.481,-3.39124 -2.75364,-6.41699 l -2.31388,-5.50135 -0.17976,0.20969 c -0.0989,0.11533 -0.49321,1.7575 -0.87631,3.64927 -0.3831,1.89177 -0.89185,4.30353 -1.13057,5.35947 l -0.43403,1.91989 -20.00162,-0.0678 -20.00162,-0.0678 -0.72395,-3.96875 c -0.39817,-2.18281 -1.16481,-6.60915 -1.70365,-9.8363 -0.53884,-3.22716 -1.06578,-6.00682 -1.17097,-6.17703 l -0.19126,-0.30947 -3.06357,1.67911 -3.06357,1.67911 -0.5181,2.24896 c -0.28495,1.23693 -1.07901,4.92786 -1.76456,8.20208 -0.68556,3.27422 -1.38142,6.08266 -1.54636,6.24099 l -0.29989,0.28786 -9.65729,0.86739 c -5.31151,0.47707 -10.02145,0.92496 -10.46653,0.99531 l -0.80924,0.12791 -1.1807,-1.71004 -1.1807,-1.71005 -2.11111,1.70273 c -4.47147,3.60651 -10.35588,6.29499 -16.67088,7.61664 l -2.10897,0.44138 -3.30729,0.037 -3.30729,0.037 -2.11186,-0.60388 c -4.33503,-1.23958 -7.17012,-2.86277 -12.69978,-7.27107 -1.74348,-1.38993 -3.20309,-2.49402 -3.24356,-2.45355 -0.0405,0.0405 0.34375,3.03915 0.85383,6.66371 0.51009,3.62456 0.9279,6.78801 0.92846,7.02989 l 0.001,0.43978 -9.8101,2.40443 -9.81009,2.40443 -3.48522,-1.9961 -3.48522,-1.99609 -0.0817,1.0766 -0.0817,1.0766 -0.99853,0.63035 c -0.54919,0.34668 -2.23884,1.2528 -3.75478,2.01359 -7.67596,3.85226 -16.0481,6.05055 -23.12917,6.07306 l -2.64583,0.008 -8.20209,-2.76945 c -18.75052,-6.33117 -53.35131,-17.02581 -70.64374,-21.83504 -7.14705,-1.98768 -8.43591,-2.4263 -10.98021,-3.73676 -3.19131,-1.64369 -5.4182,-3.32547 -8.08472,-6.10566 l -2.11475,-2.20468 -1.64972,-2.46865 c -2.86612,-4.28891 -4.84975,-9.19865 -5.76289,-14.26391 l -0.41777,-2.31744 -0.14481,-3.83646 -0.14482,-3.83646 0.42792,-3.66955 c 1.45095,-12.44246 5.89994,-23.15591 13.7388,-33.08391 2.70076,-3.42053 9.118,-9.82035 12.35494,-12.32138 9.769,-7.54807 20.8739,-12.83867 31.0839,-14.80899 1.57426,-0.30381 4.6207,-0.69086 6.76986,-0.86013 l 3.90757,-0.30776 4.05631,0.31056 4.05631,0.31055 2.11457,0.51033 2.11457,0.51032 0.48771,0.61644 c 0.26825,0.33905 1.84677,2.81504 3.50783,5.50221 1.66106,2.68717 3.02066,4.83029 3.02132,4.7625 6.7e-4,-0.0678 0.89969,-4.52858 1.99782,-9.91285 1.09813,-5.38427 2.06535,-10.17463 2.14938,-10.64524 0.084,-0.47062 0.28635,-0.96549 0.44959,-1.09972 0.61145,-0.50279 23.65663,-8.41965 23.82256,-8.18392 0.55779,0.79242 7.55855,9.66323 8.28711,10.50078 l 1.00491,1.15523 2.49079,-3.13961 2.49079,-3.1396 4.78053,-4.77449 4.78052,-4.77448 3.0641,-2.29054 c 7.39698,-5.52954 14.76745,-9.18617 22.2036,-11.01564 5.80841,-1.429 10.94217,-1.71984 16.80098,-0.95182 5.2521,0.68849 10.83423,2.28651 12.2796,3.51533 l 0.52681,0.44789 3.20436,10.45104 c 1.7624,5.74807 4.22816,13.52156 5.47948,17.27442 l 2.27513,6.82339 0.18896,-0.2088 c 0.10392,-0.11484 3.25481,-9.43615 7.00197,-20.71401 3.74716,-11.27787 6.89493,-20.59605 6.99505,-20.70708 0.29351,-0.32551 12.65752,-1.37133 22.77057,-1.92606 l 3.04271,-0.16691 1.82306,7.49742 c 3.36232,13.82769 12.17047,47.16795 12.58932,47.65263 0.0965,0.11172 0.38279,-2.09093 0.63608,-4.89479 1.04835,-11.60479 2.8095,-33.15616 3.33549,-40.81667 0.30974,-4.51114 0.62148,-8.58904 0.69274,-9.06198 l 0.12958,-0.85989 4.55208,0.003 c 5.10993,0.004 18.26818,0.42172 21.45089,0.68122 l 2.08216,0.16977 1.50983,3.21081 c 0.83041,1.76594 2.86276,6.09807 4.51633,9.62695 1.65357,3.52888 3.08001,6.41615 3.16987,6.41615 0.178,0 0.29256,-0.4494 2.79164,-10.95099 0.93117,-3.91299 1.75174,-7.17323 1.82348,-7.24496 0.23443,-0.23443 20.01263,1.91907 22.66427,2.46774 l 0.68766,0.14229 0.71186,4.27564 c 0.39153,2.35161 0.75076,4.31453 0.79829,4.36206 0.0475,0.0475 0.30267,-1.5232 0.56699,-3.4905 0.26431,-1.96731 0.55213,-3.69271 0.63959,-3.83423 l 0.15903,-0.25731 7.66405,1.30135 c 13.74028,2.33311 27.24708,5.26117 40.20779,8.71642 7.24094,1.93039 18.22814,5.12189 19.58749,5.68966 l 0.80208,0.33501 0.75303,3.27881 0.75303,3.2788 0.20466,-0.54763 c 0.11257,-0.30119 0.41947,-1.58112 0.68201,-2.84427 0.26254,-1.26315 0.55652,-2.29664 0.6533,-2.29664 0.82665,0 24.70897,8.52989 25.21763,9.00682 0.45238,0.42415 3.90429,14.41165 6.2545,25.3439 0.69856,3.24941 1.32676,5.96467 1.396,6.03391 0.0692,0.0692 1.57071,-1.16061 3.3366,-2.73301 1.76588,-1.5724 4.17776,-3.71479 5.35972,-4.76085 1.18196,-1.04607 2.83712,-2.2687 3.67815,-2.71696 l 1.52913,-0.81502 2.99633,-0.75852 c 1.64798,-0.41719 3.83051,-0.84084 4.85007,-0.94144 l 1.85373,-0.18292 2.74874,0.30247 c 5.47223,0.60215 10.84538,2.43358 18.01775,6.14132 7.63694,3.94789 14.72751,9.11871 23.36561,17.03943 l 1.76055,1.61434 0.41362,1.95753 c 0.54676,2.58768 3.07178,17.49068 2.97691,17.57018 -0.0407,0.0341 -1.62179,0.78248 -3.51356,1.66307 -1.89178,0.88059 -8.85693,4.23888 -15.47813,7.46288 -6.6212,3.22399 -13.431,6.52202 -15.1329,7.32896 l -3.09436,1.46716 0.61026,1.62119 c 0.91787,2.43832 2.42253,5.33185 4.06133,7.81008 l 1.46812,2.22015 2.00888,2.02823 c 3.60541,3.64014 7.11089,5.6093 12.71919,7.14482 l 1.97905,0.54186 2.65115,-8.4e-4 2.65116,-8.5e-4 2.38125,-0.40795 c 3.0224,-0.51779 6.67334,-1.49754 8.79213,-2.35942 0.90662,-0.36879 1.71568,-0.67052 1.79793,-0.67052 0.0823,0 0.086,0.38695 0.008,0.85989 -2.07999,12.67256 -3.16102,18.39912 -3.54594,18.78404 -0.39619,0.39619 -5.27645,2.02763 -10.81991,3.61704 -7.67359,2.20016 -17.24614,4.75357 -39.75657,10.60479 -10.69578,2.7802 -22.74726,5.94181 -26.78106,7.02582 l -7.33418,1.97092 -2.05852,-0.029 c -1.13219,-0.016 -3.07521,-0.177 -4.31781,-0.3579 z m 80.31136,-22.37557 c 3.22882,-0.3641 7.14571,-1.43126 8.53607,-2.32566 l 0.33399,-0.21485 0.52901,-2.76049 c 0.85732,-4.47366 1.87466,-10.62496 1.77389,-10.72573 -0.0513,-0.0513 -1.45515,0.24978 -3.1196,0.66912 -1.66445,0.41935 -4.19705,0.90902 -5.628,1.08816 l -2.60173,0.32571 -2.29306,-0.14343 -2.29307,-0.14344 -2.36647,-0.69948 c -3.54308,-1.04727 -5.924,-2.11753 -8.53009,-3.8344 l -2.34644,-1.54581 -2.15384,-2.15385 -2.15384,-2.15384 -1.57585,-2.30509 c -1.84942,-2.70526 -3.40773,-5.72965 -4.82194,-9.35852 -1.93235,-4.95842 -2.75562,-8.45366 -4.11499,-17.4705 l -0.69051,-4.58024 -0.14107,-6.34999 -0.14107,-6.35 0.29513,-1.89263 c 0.3711,-2.37984 1.05606,-3.99089 2.26635,-5.33053 l 0.94676,-1.04796 1.38685,-0.61588 1.38685,-0.61588 2.24896,0.0107 2.24896,0.0107 2.77813,0.94229 c 8.85507,3.00348 11.6568,4.97168 26.25989,18.44736 0.98227,0.90643 1.78594,1.56561 1.78594,1.46485 0,-0.10077 -0.65383,-3.47483 -1.45295,-7.49792 l -1.45294,-7.31471 -1.65591,-1.54312 c -2.68657,-2.50358 -7.74958,-6.70119 -11.06823,-9.17639 -4.20578,-3.13686 -7.25222,-4.98136 -12.45006,-7.53807 l -4.39988,-2.1642 -3.2761,-1.08944 -3.27609,-1.08943 -2.64278,-0.43379 -2.64277,-0.43378 -2.64583,0.14595 -2.64584,0.14594 -1.5875,0.43412 c -3.75439,1.02668 -5.8693,2.62005 -7.73292,5.82596 -1.36596,2.34981 -2.34771,5.10011 -2.90895,8.14919 l -0.4449,2.41706 0.008,5.82083 0.008,5.82084 0.32778,3.57187 c 2.01075,21.91117 6.09253,35.29619 13.97576,45.82942 l 2.03691,2.72163 3.97938,3.97615 3.97939,3.97615 2.51354,1.76405 c 5.96827,4.18865 12.99842,6.71838 20.37292,7.331 3.68293,0.30595 4.63982,0.30727 7.27604,0.01 z m -457.06768,-8.33186 c 8.43131,-1.73357 17.14481,-5.5972 27.79645,-12.32514 l 4.11625,-2.59996 0.32623,-6.95436 c 0.37128,-7.91455 1.14205,-18.16461 1.9057,-25.34289 0.6057,-5.69348 1.7752,-15.20944 1.97541,-16.07344 0.0759,-0.32742 0.0747,-0.59531 -0.002,-0.59531 -0.15268,0 -11.42873,2.95766 -21.70661,5.69356 -3.54302,0.94313 -6.50849,1.71477 -6.58993,1.71477 -0.28673,0 -0.13588,1.50339 0.63718,6.35 1.13388,7.10885 2.48807,14.35406 4.00053,21.40381 l 1.32806,6.19026 -0.22119,0.22118 c -0.32587,0.32588 -5.97815,2.31096 -8.27391,2.9058 l -1.98438,0.51416 -2.77812,0.15393 -2.77813,0.15392 -1.7883,-0.42244 c -4.81092,-1.13644 -7.79665,-3.85003 -10.56293,-9.60015 l -1.29358,-2.6889 -0.69829,-2.60276 -0.69829,-2.60277 -0.0199,-5.02708 -0.0199,-5.02708 0.49259,-2.64584 c 0.27092,-1.4552 0.99882,-4.19364 1.61755,-6.08541 l 1.12498,-3.43958 1.3793,-2.74763 c 3.90768,-7.78424 8.57624,-13.31981 14.54624,-17.24766 5.59433,-3.68069 13.44231,-5.23937 20.56429,-4.08426 2.01567,0.32692 9.41616,2.28798 10.99782,2.91431 l 0.45195,0.17897 0.12747,-0.61937 c 0.0701,-0.34065 0.37629,-2.76249 0.68038,-5.38186 0.3041,-2.61938 0.76582,-6.28692 1.02606,-8.1501 0.26023,-1.86318 0.40288,-3.43102 0.31699,-3.4841 -0.0859,-0.0531 -1.16554,-0.28804 -2.39922,-0.52213 l -2.24307,-0.42561 -3.96875,-0.16148 -3.96875,-0.16148 -3.175,0.31194 c -18.64748,1.83209 -37.99831,14.16657 -49.52111,31.56544 -2.36272,3.56759 -5.8039,10.41289 -7.15489,14.23272 -1.2914,3.65136 -2.27002,7.56743 -2.87616,11.50938 l -0.44753,2.91041 -0.009,4.63021 -0.009,4.63021 0.47079,2.64583 c 0.6838,3.84291 1.59421,6.7847 3.03727,9.81422 3.19781,6.71339 7.63888,11.36459 13.62465,14.2693 l 2.40391,1.16654 2.51354,0.66533 c 1.38245,0.36593 3.34698,0.78023 4.36562,0.92066 l 1.85209,0.25533 4.10104,-0.11169 4.10104,-0.11169 z m 400.18761,-11.17287 c -0.0803,-1.27331 -0.26796,-4.57729 -0.41706,-7.34219 -1.42537,-26.4309 -5.76379,-54.53574 -12.97015,-84.0223 l -1.58842,-6.49939 -5.61173,-2.06189 c -3.08645,-1.13403 -7.85653,-2.82086 -10.60017,-3.7485 l -4.98844,-1.68662 0.18212,0.72289 c 1.3023,5.16935 4.33982,20.57093 5.9397,30.11687 3.73322,22.27488 5.65387,40.93185 6.78643,65.92275 l 0.17089,3.77089 2.28533,0.68253 c 4.05419,1.21083 18.12701,5.62708 19.21866,6.03109 0.58208,0.21543 1.21143,0.40008 1.39856,0.41033 l 0.34024,0.0186 z m -351.41752,-6.53869 c 4.09962,-1.08605 8.82308,-2.31365 10.49657,-2.72801 l 3.04271,-0.75338 0.17824,-7.26001 c 0.68989,-28.10057 3.1328,-53.51911 7.77712,-80.92102 0.50325,-2.96917 0.87049,-5.443 0.81611,-5.49738 -0.0544,-0.0544 -4.44524,1.33537 -9.75746,3.08835 l -9.65857,3.18723 -0.30898,1.5164 c -5.35572,26.28474 -8.69099,52.19121 -9.80105,76.1289 -0.45274,9.76306 -0.60249,15.21355 -0.418,15.21355 0.0987,0 3.53368,-0.88859 7.63331,-1.97463 z m 298.74484,-7.61652 c -0.0702,-0.90951 -0.30899,-4.39208 -0.53064,-7.73906 -1.38855,-20.96799 -4.33443,-44.79286 -8.34085,-67.45703 -0.71914,-4.06813 -1.276,-7.46982 -1.23747,-7.5593 0.0385,-0.0895 4.3563,3.15296 9.59505,7.20541 5.23875,4.05245 10.94035,8.45542 12.67023,9.78438 l 3.14524,2.41628 -0.18894,-1.29904 c -0.51898,-3.56832 -5.19452,-26.2838 -5.86137,-28.47674 l -0.1383,-0.45478 -0.84468,-0.24276 c -0.46458,-0.13352 -2.86874,-0.84267 -5.3426,-1.57588 -14.85457,-4.40268 -32.38913,-8.53536 -47.75729,-11.25581 -8.23114,-1.45707 -9.89801,-1.72829 -10.00422,-1.62781 -0.0453,0.0429 0.45594,3.27538 1.11384,7.18341 0.65789,3.90803 1.74501,10.67572 2.41581,15.03932 0.67079,4.36359 1.25185,7.96603 1.29122,8.0054 0.0394,0.0394 4.75969,-1.70937 10.48958,-3.88611 5.7299,-2.17674 10.4637,-3.912 10.51956,-3.85614 0.16081,0.16081 1.53444,12.78291 2.27529,20.9072 1.58113,17.33919 2.47444,33.71402 2.95203,54.11199 l 0.17047,7.28074 6.2554,1.26954 c 3.44047,0.69825 8.69618,1.84292 11.67935,2.54372 2.98318,0.7008 5.50878,1.28825 5.61244,1.30545 0.10367,0.0172 0.13105,-0.71287 0.0608,-1.62238 z m -238.18769,-3.5249 c 5.4096,-0.75451 11.96409,-2.68533 18.33421,-5.40089 3.53923,-1.50876 11.76623,-5.63882 12.46352,-6.25685 l 0.55727,-0.49392 1.10534,-7.80521 c 1.31819,-9.30812 3.47176,-22.95737 5.41575,-34.32477 l 1.41314,-8.26331 -0.55564,0.12192 c -0.3056,0.0671 -1.92485,0.3706 -3.59834,0.67453 -5.28882,0.96052 -23.65869,4.49775 -24.17496,4.65504 l -0.49475,0.15073 0.17914,2.15491 c 0.43386,5.21912 1.8161,18.40567 2.68036,25.57053 0.51782,4.29287 0.96375,8.03559 0.99095,8.31717 l 0.0495,0.51195 -3.04271,0.88254 c -3.95484,1.14711 -6.96309,1.66636 -9.6258,1.66152 l -2.14816,-0.004 -1.67316,-0.39445 c -4.55192,-1.07311 -7.61592,-3.77763 -10.00836,-8.83413 -1.70294,-3.59925 -2.60615,-7.1206 -3.02612,-11.79798 l -0.26131,-2.91041 0.28519,-3.43959 c 1.17093,-14.12235 8.14516,-28.43857 17.52847,-35.98127 l 2.18237,-1.75428 2.64584,-1.30602 c 1.45521,-0.71831 3.36021,-1.49895 4.23333,-1.73477 l 1.5875,-0.42875 4.10104,-0.12884 4.10104,-0.12885 2.39671,0.41586 c 4.19808,0.7284 8.81988,2.52173 12.8643,4.99154 0.53542,0.32697 1.021,0.53647 1.07906,0.46556 0.0581,-0.0709 0.69378,-4.86992 1.41273,-10.66448 l 1.30717,-10.53555 -0.26957,-0.21552 c -1.1471,-0.91715 -7.34503,-2.4475 -11.91123,-2.94104 l -2.91042,-0.31458 -3.70416,0.16321 -3.70417,0.16322 -2.9395,0.64002 c -4.24015,0.92322 -7.3669,2.04217 -11.91455,4.26376 l -4.00613,1.95706 -3.53449,2.36774 c -10.40319,6.96904 -18.69154,16.41644 -24.71908,28.17582 -4.39418,8.5728 -6.73795,15.95466 -7.91905,24.94163 l -0.4133,3.14478 -0.005,4.37377 c -0.005,5.22962 0.34046,8.3779 1.35383,12.32393 2.21753,8.63501 6.99688,15.48178 13.47787,19.30807 4.59887,2.71511 9.79185,4.00345 16.3343,4.05243 l 3.49664,0.0262 z m 188.15063,-5.86781 c -0.0554,-0.69122 -0.39589,-5.00724 -0.7567,-9.59114 -1.58592,-20.14838 -4.14576,-43.2974 -7.15356,-64.69063 -1.0894,-7.74847 -3.78447,-25.47609 -3.96554,-26.08449 l -0.12496,-0.4199 -3.76617,-0.46838 c -5.5616,-0.69166 -15.13034,-1.70333 -15.22409,-1.60958 -0.0448,0.0448 0.99401,5.60117 2.30845,12.34752 4.11138,21.10162 8.64094,45.93572 8.41886,46.15781 -0.0588,0.0588 -0.53419,-0.87529 -1.05643,-2.07575 -0.52224,-1.20045 -4.06625,-8.73108 -7.87558,-16.73473 -6.34679,-13.33502 -15.5146,-32.76828 -18.23641,-38.65626 l -1.1133,-2.40834 -3.4855,-0.17047 c -1.91702,-0.0938 -7.3848,-0.24936 -12.1506,-0.34579 l -8.66511,-0.17532 10e-4,1.82809 c 5.7e-4,1.00545 0.12011,6.17388 0.26564,11.48539 0.47341,17.27873 1.03197,43.91312 1.32336,63.10312 0.15688,10.33198 0.34928,19.86825 0.42755,21.19172 l 0.1423,2.4063 5.86537,0.16145 c 3.22595,0.0888 8.39618,0.30499 11.48939,0.48044 3.09321,0.17544 5.67886,0.26415 5.74588,0.19713 0.26409,-0.2641 -5.23446,-61.88874 -5.81433,-65.16358 -0.0754,-0.42595 -0.0806,-0.71796 -0.0116,-0.64892 0.41633,0.41634 11.53019,29.29844 21.32688,55.42317 2.5051,6.68032 4.57161,12.16931 4.59225,12.19775 0.0206,0.0284 3.60598,0.47714 7.96741,0.99709 4.36144,0.51995 10.2516,1.28614 13.08926,1.70264 2.83765,0.4165 5.46932,0.77148 5.84814,0.78885 l 0.68876,0.0316 z m -145.64513,-0.71238 c 2.81672,-0.35138 8.43442,-0.96878 12.48378,-1.37201 l 7.36247,-0.73314 0.43914,-2.39462 c 1.04135,-5.67847 4.32601,-22.16134 4.43871,-22.27404 0.21402,-0.21402 17.24721,-9.04989 17.3156,-8.98237 0.0358,0.0354 0.65838,4.34112 1.38342,9.56828 1.89006,13.62636 3.12414,22.10235 3.23404,22.21225 0.0524,0.0524 3.42554,-0.0131 7.4959,-0.14557 4.07035,-0.13244 9.21635,-0.24504 11.43554,-0.25022 2.21919,-0.005 4.03489,-0.0774 4.03489,-0.16048 0,-0.0831 -1.18466,-5.58973 -2.63258,-12.23698 -7.84075,-35.99606 -13.54859,-63.91226 -16.69879,-81.67132 -0.46464,-2.61937 -0.93296,-4.85997 -1.04071,-4.97911 l -0.19592,-0.21661 -4.8634,0.30068 c -5.84594,0.36142 -16.94254,1.27558 -17.07351,1.40655 -0.12348,0.12349 -19.81581,59.56626 -23.72599,71.6187 -4.52579,13.94994 -9.70451,30.3792 -9.70451,30.78714 0,0.26793 0.86136,0.20281 6.31192,-0.47713 z m 27.63828,-41.84763 c 0.0788,-0.27551 1.72704,-8.08121 3.66277,-17.34601 1.93573,-9.26479 3.59008,-16.80146 3.67633,-16.74816 0.19011,0.1175 0.53234,2.02646 2.99909,16.72884 l 1.92039,11.44601 -3.19449,1.61901 c -1.75698,0.89046 -4.54739,2.33502 -6.20092,3.21013 l -3.00642,1.5911 z"
       id="logo-face" /></g></svg>
