<?xml version="1.0" encoding="UTF-8" standalone="no"?>
<!-- Created with Inkscape (http://www.inkscape.org/) -->

<svg
   width="78.843758mm"
   height="78.583344mm"
   viewBox="0 0 78.843758 78.583344"
   version="1.1"
   id="svg1"
   xml:space="preserve"
   xmlns="http://www.w3.org/2000/svg"
   xmlns:svg="http://www.w3.org/2000/svg"><defs
     id="defs1" /><path
     d="m 86.64621,134.30703 c -0.23871,-0.28763 -0.36156,-1.16042 -0.36312,-2.57969 l -0.002,-2.14499 -0.69159,0.0705 c -0.38037,0.0388 -0.84143,-0.11005 -1.02458,-0.33073 -0.22563,-0.27187 -0.81448,-0.40124 -1.82629,-0.40124 h -1.49329 l -0.89433,-1.52136 c -0.49188,-0.83674 -1.23407,-1.84206 -1.64931,-2.23404 -0.41525,-0.39198 -0.75499,-0.94899 -0.75499,-1.23781 0,-0.48777 -1.76767,-3.73804 -2.03295,-3.73804 -0.0655,0 -0.50927,0.29765 -0.98624,0.66145 -1.76723,1.34794 -2.10933,0.81181 -2.08756,-3.27152 l 0.0146,-2.74236 -5.9206,-9.92442 c -3.25633,-5.458427 -5.9206,-10.028103 -5.9206,-10.154833 0,-0.12673 1.18285,-2.225275 2.62857,-4.663434 l 2.62861,-4.433006 -0.63736,-1.852083 c -1.11787,-3.248352 -0.76651,-5.030878 1.30272,-6.609159 0.97629,-0.744652 3.7105,-1.725216 4.8106,-1.725216 0.54603,0 1.2292,-1.004506 5.03304,-7.400427 l 4.40125,-7.400427 3.14149,-0.07405 3.14148,-0.07405 -1.09607,-1.281499 c -0.95867,-1.120852 -1.19213,-1.262286 -1.8624,-1.128234 -0.42148,0.0843 -2.57896,1.166987 -4.79441,2.405979 -4.30705,2.408723 -5.38241,2.710261 -6.08552,1.706429 -0.21045,-0.300456 -0.3255,-0.764735 -0.25568,-1.031732 0.53496,-2.045695 7.59878,-5.036568 11.89533,-5.036568 1.80581,0 2.023,0.05976 2.64417,0.727604 0.37222,0.400182 1.02309,1.412213 1.44638,2.248958 l 0.76963,1.521354 h 9.88609 9.88609 l 1.51254,-0.692465 1.51255,-0.692465 0.83453,0.62632 c 0.70803,0.531378 1.23283,0.646372 3.46205,0.75861 l 2.62751,0.132292 10.00423,16.801042 c 5.50232,9.240574 10.00517,16.961986 10.00634,17.158695 0.001,0.196709 -0.89531,1.881155 -1.99216,3.743213 l -1.99429,3.385562 1.31934,1.74308 c 2.36416,3.12349 2.48441,5.46667 0.41044,7.99768 -1.02613,1.25226 -2.23248,2.0228 -2.97317,1.89908 -0.25685,-0.0429 -0.4268,0.0709 -0.3885,0.26027 0.11428,0.56491 -1.27263,0.9189 -3.73567,0.95347 l -2.34467,0.0329 -4.21214,7.0776 -4.21214,7.07761 h -14.01494 c -12.28099,0 -14.01455,0.0491 -14.01455,0.39687 0,0.21828 -0.2464,0.64327 -0.54755,0.94443 -0.52079,0.52078 -0.58061,0.52589 -1.22391,0.10438 -0.5582,-0.36575 -0.71571,-0.38051 -0.90162,-0.0845 -0.12389,0.19725 -0.17884,0.53723 -0.12211,0.75551 0.40959,1.57596 0.41748,2.46874 0.0271,3.06459 -0.496,0.75699 -1.73979,0.86825 -2.29035,0.20488 z m 1.88504,-0.22864 c 0.23016,-0.27732 0.2778,-0.86851 0.15644,-1.94123 -0.096,-0.84835 -0.0985,-1.74047 -0.006,-1.98248 0.19393,-0.50538 0.92428,-0.58049 1.36445,-0.14032 0.4663,0.4663 1.06115,0.0825 1.25746,-0.81125 0.12396,-0.56442 0.37632,-0.86157 0.82793,-0.97492 0.35729,-0.0897 0.82711,-0.50628 1.04405,-0.9258 l 0.39444,-0.76274 h -4.87565 -4.87565 l 0.448,1.25677 c 0.40438,1.13441 0.53687,1.2653 1.36081,1.34444 0.50205,0.0482 1.00779,0.22681 1.12388,0.39687 0.11608,0.17007 0.13833,1.15535 0.0494,2.18952 -0.13239,1.54017 -0.083,1.95896 0.27317,2.3151 0.54138,0.54138 1.02751,0.55341 1.45689,0.036 z m -4.49948,-6.02467 c 0,-0.50144 -0.77376,-1.51408 -1.1569,-1.51408 -0.18324,0 -0.59066,-0.44649 -0.90538,-0.99219 -1.04355,-1.80943 -0.97212,-1.75797 -1.74089,-1.25425 -0.38211,0.25037 -0.69474,0.57477 -0.69474,0.7209 0,0.14613 0.42534,0.96587 0.94519,1.82165 l 0.9452,1.55597 h 1.30376 c 0.88159,0 1.30376,-0.10945 1.30376,-0.338 z m 39.47886,-6.25139 c 2.14081,-3.61818 3.92675,-6.74113 3.96875,-6.93988 0.0512,-0.24239 -0.23881,-0.38771 -0.88097,-0.4414 l -0.95732,-0.08 -3.34216,5.59849 c -1.83819,3.07917 -3.34216,5.74975 -3.34216,5.93462 0,0.62103 -0.74753,0.96491 -2.92321,1.34474 -2.21592,0.38685 -5.41946,0.21461 -8.03701,-0.43212 -0.62245,-0.15378 -3.8126,-0.23437 -7.54595,-0.19062 l -6.46764,0.0758 -0.50203,0.85989 -0.50204,0.8599 13.31967,-0.005 13.31967,-0.005 z m -7.46428,5.01298 c 1.19664,-0.16542 0.86755,-0.20812 -1.85208,-0.24027 -3.64862,-0.0431 -6.63988,-0.60861 -9.46891,-1.78999 -1.80674,-0.75448 -2.09968,-1.12046 -0.42809,-0.53483 1.8941,0.66358 6.07777,1.10215 6.34768,0.66542 0.20022,-0.32396 0.90349,-0.2834 0.90349,0.0521 0,0.15411 -0.13746,0.19524 -0.30547,0.0914 -0.19365,-0.11968 -0.23345,-0.0723 -0.10873,0.12953 0.14737,0.23845 0.2874,0.24305 0.55817,0.0183 0.26451,-0.21953 0.84015,-0.22545 2.14644,-0.0221 0.98174,0.15284 1.82195,0.24093 1.86714,0.19575 0.21023,-0.21023 -8.16491,-2.11868 -11.76432,-2.68074 -0.93226,-0.14557 -1.12448,-0.10235 -1.12448,0.25285 0,0.23564 -0.1786,0.49697 -0.39688,0.58073 -0.69503,0.26671 -0.43707,0.56346 1.2017,1.38236 3.09515,1.54667 8.73685,2.40916 12.42434,1.89941 z m 2.33451,-0.71677 c -0.047,-0.2426 -0.26414,-0.50009 -0.48242,-0.57219 -0.33118,-0.1094 -0.3403,-0.0625 -0.0551,0.28307 0.27931,0.33848 0.27931,0.43924 0,0.55131 -0.21004,0.0843 -0.15583,0.14518 0.14065,0.15802 0.31372,0.0136 0.4525,-0.13336 0.39687,-0.42021 z m -27.20534,-0.22697 c 0,-0.39433 -1.91007,-3.86005 -2.05018,-3.71995 -0.2016,0.20161 1.53915,3.85885 1.83671,3.85885 0.11741,0 0.21347,-0.0625 0.21347,-0.1389 z m 1.32292,0.0313 c 0,-0.51486 -1.62994,-3.55621 -1.97731,-3.6895 -0.91312,-0.3504 -0.90656,-0.12673 0.0531,1.81275 0.67242,1.35893 1.1304,1.98438 1.45305,1.98438 0.25913,0 0.47114,-0.0484 0.47114,-0.10763 z m 11.02466,-0.58224 c -0.70315,-0.36588 -1.53658,-0.63653 -1.85208,-0.60146 -0.55439,0.0617 -5.17849,-0.25558 -6.52675,-0.44775 -0.70193,-0.10005 -1.34577,-0.24751 -2.3151,-0.53025 -0.70547,-0.20577 -0.74838,0.0679 -0.21194,1.35179 l 0.38337,0.91754 5.90048,-0.0123 5.90048,-0.0123 z m -19.75591,-1.87876 v -2.30405 l -1.18718,1.16513 c -1.07839,1.05836 -1.1549,1.21494 -0.83492,1.70873 0.19374,0.29899 0.49403,0.8115 0.66732,1.13892 0.17329,0.32743 0.549,0.59532 0.83492,0.59532 0.47696,0 0.51986,-0.19015 0.51986,-2.30405 z m 34.78452,0.6504 c -0.37363,-3.61632 -0.72569,-6.10435 -1.20743,-8.53281 -0.69688,-3.51297 -3.20626,-11.44183 -3.42439,-10.81998 -0.0908,0.25901 0.0638,1.07305 0.34373,1.80899 0.90351,2.37553 2.83254,10.50909 3.25546,13.72638 0.52124,3.96518 0.38527,5.00901 -0.24739,1.89919 -0.26644,-1.30969 -0.61715,-2.61937 -0.77936,-2.91042 -0.16221,-0.29104 -0.30337,-0.58869 -0.31368,-0.66145 -0.0103,-0.0728 -0.16755,-0.40019 -0.34942,-0.72761 -0.18186,-0.32742 -0.26275,-0.59531 -0.17975,-0.59531 0.083,0 0.003,-0.26789 -0.17713,-0.59531 -0.18043,-0.32743 -0.36848,-0.87218 -0.41791,-1.21057 -0.0494,-0.3384 -0.33271,-1.23136 -0.62952,-1.98438 -0.29681,-0.75301 -0.54482,-1.42865 -0.55113,-1.50141 -0.0259,-0.29878 -0.26349,-0.95602 -0.51212,-1.41675 -0.20602,-0.38178 -0.18705,-0.44392 0.0855,-0.27994 0.27477,0.16534 0.272,0.11428 -0.0129,-0.23689 -0.47691,-0.58794 -0.735,-0.56534 -0.90354,0.0791 -0.15969,0.61066 0.74308,3.79667 2.92202,10.31224 1.58616,4.74302 1.63533,4.82398 3.04252,5.00959 0.10998,0.0145 0.13537,-0.59871 0.0564,-1.36269 z m -28.6991,0.98339 c 0,-0.35988 -1.35301,-2.75967 -1.52517,-2.70515 -0.19777,0.0626 -1.3507,-0.33714 -2.90661,-1.00785 l -0.85989,-0.37068 v 1.18634 c 0,0.76496 0.11747,1.19149 0.33073,1.20084 0.1819,0.008 1.16416,0.4163 2.18281,0.90739 1.71668,0.82762 2.77813,1.12911 2.77813,0.78911 z m 26.72291,-0.2163 c 0,-0.0511 -0.13071,-0.46777 -0.29047,-0.92605 -0.32927,-0.94455 -0.57272,-0.99831 -1.93782,-0.42794 -0.5335,0.22292 -1.08382,0.33495 -1.22294,0.24897 -0.13911,-0.086 -0.25294,-0.0475 -0.25294,0.0856 0,0.13306 0.62508,0.42388 1.38907,0.64628 1.37665,0.40074 2.3151,0.55199 2.3151,0.37314 z m -36.98133,-1.63894 c 0.8125,-2.05644 1.54214,-6.31847 1.65124,-9.64537 0.10228,-3.11905 0.0713,-3.01503 -0.39398,1.32292 -0.31032,2.89315 -1.24845,7.61869 -1.6283,8.20208 -0.21367,0.32816 -0.23372,0.31732 -0.1158,-0.0626 0.35702,-1.1503 0.98946,-6.42195 0.88203,-7.35202 -0.0658,-0.56935 -0.0504,-1.10432 0.0341,-1.18881 0.0845,-0.0845 0.17495,-0.68287 0.20102,-1.32971 0.0331,-0.82201 -0.0438,-1.12146 -0.25546,-0.99463 -0.22261,0.13339 -0.22635,0.0804 -0.0141,-0.20005 0.15978,-0.21114 0.20772,-0.67693 0.10737,-1.04298 -0.16698,-0.60902 -0.2056,-0.57232 -0.48716,0.46302 -0.97762,3.59489 -1.46296,7.00795 -1.46012,10.26804 0.003,3.42502 0.52493,3.97552 1.47924,1.56014 z m 3.18081,-2.11799 c 1.74344,-2.14745 1.57128,-2.3127 -0.3381,-0.32452 l -1.59487,1.66068 1.14215,-1.71979 c 0.62818,-0.94588 1.48734,-2.3151 1.90925,-3.04271 l 0.7671,-1.32291 -1.30657,1.09502 c -1.94599,1.63092 -2.16603,1.941 -2.77382,3.90879 -0.30667,0.99288 -0.63057,1.9996 -0.71977,2.23717 -0.28274,0.75298 1.55786,-0.82055 2.91463,-2.49173 z m 17.99167,2.59764 c -0.61847,-0.0557 -1.12448,-0.18485 -1.12448,-0.287 0,-0.43448 1.14506,-0.86518 1.87433,-0.70501 1.09104,0.23964 0.94307,-0.12796 -0.47042,-1.16864 -1.09858,-0.80883 -1.25314,-0.85559 -1.5384,-0.46548 -0.28921,0.39551 -0.36129,0.38481 -0.81892,-0.12157 -0.27599,-0.3054 -0.82225,-0.78368 -1.2139,-1.06285 l -0.7121,-0.50759 0.13481,0.86687 c 0.0741,0.47678 -0.0466,1.37289 -0.26835,1.99136 l -0.40316,1.12448 h 1.31118 c 0.72115,0 1.31118,-0.11907 1.31118,-0.26459 0,-0.14552 -0.41672,-0.26458 -0.92604,-0.26458 -0.64676,0 -0.92604,-0.11969 -0.92604,-0.39688 0,-0.41808 0.38876,-0.51009 1.76305,-0.41725 0.50082,0.0338 0.88287,-0.0836 0.95118,-0.29227 0.0628,-0.19184 0.0598,0.008 -0.007,0.44494 -0.0664,0.43656 -0.30453,1.00211 -0.52917,1.25677 -0.38396,0.43528 -0.31481,0.46025 1.15393,0.4168 1.31573,-0.0389 1.38485,-0.0622 0.43788,-0.14751 z m 19.14671,-0.55433 c 0.11207,-0.24341 0.21372,-0.56163 0.22589,-0.70715 0.0122,-0.14552 0.1102,-0.40518 0.21787,-0.57703 0.30677,-0.48963 -0.23244,-0.65218 -1.00132,-0.30186 -0.52348,0.23852 -0.6622,0.45522 -0.5526,0.86326 0.0805,0.29964 0.14795,0.74942 0.14994,0.99952 0.004,0.55371 0.66559,0.36315 0.96022,-0.27674 z m -23.84307,-0.31027 c 0.0899,-0.14552 0.0374,-0.26458 -0.11667,-0.26458 -0.15411,0 -0.2802,0.11906 -0.2802,0.26458 0,0.14552 0.0525,0.26458 0.11668,0.26458 0.0642,0 0.19026,-0.11906 0.28019,-0.26458 z m -0.20395,-0.68902 c -0.0879,-0.0879 -0.31612,-0.0973 -0.50711,-0.0209 -0.21107,0.0845 -0.14838,0.14716 0.15985,0.15985 0.27891,0.0115 0.43518,-0.051 0.34726,-0.13896 z m -18.12945,-2.02296 c 0.0899,-1.39502 0.005,-1.47213 -0.85517,-0.77572 l -0.59407,0.48105 0.63091,1.10345 c 0.66949,1.17095 0.69225,1.14846 0.81833,-0.80878 z m 14.23236,1.529 c -0.65484,-0.18805 -1.7264,-0.60261 -2.38125,-0.92125 -1.17367,-0.5711 -1.17744,-0.5771 -0.26458,-0.42094 1.97118,0.33719 4.43053,0.64891 5.8997,0.74778 1.41875,0.0955 1.52815,0.0629 1.45521,-0.43372 -0.10827,-0.73711 -2.51753,-2.14463 -5.05347,-2.9523 -2.33839,-0.74476 -2.56602,-0.77643 -2.56602,-0.35704 0,0.6994 1.43049,1.62253 2.63139,1.69809 1.08082,0.068 4.85787,1.40272 4.04649,1.42993 -0.18347,0.006 -1.43363,-0.15699 -2.77813,-0.36253 -3.51296,-0.53704 -6.54559,-0.75086 -6.54559,-0.4615 0,0.68114 4.31535,2.4116 5.95313,2.38721 0.69019,-0.0103 0.63841,-0.0564 -0.39688,-0.35373 z m -17.59864,-1.13213 c 0.37345,-0.40018 0.8571,-1.32291 1.07476,-2.05052 0.58429,-1.9532 1.24943,-8.43451 1.09969,-10.71562 -0.0716,-1.09141 -0.0734,-2.13321 -0.004,-2.31511 0.22432,-0.58711 0.65273,-0.35079 0.47964,0.26459 -0.13109,0.46602 -0.10711,0.50912 0.11041,0.19843 0.39996,-0.57126 0.34891,-1.05833 -0.11091,-1.05833 -0.52568,0 -0.51185,-0.9576 0.0168,-1.16045 0.2275,-0.0873 0.33954,-0.27863 0.24897,-0.42518 -0.0906,-0.14655 -0.009,-0.27585 0.18166,-0.28734 0.26637,-0.0161 0.26997,-0.0517 0.0156,-0.15434 -0.1819,-0.0734 -0.33073,-0.24962 -0.33073,-0.3916 0,-0.14199 0.10166,-0.19533 0.2259,-0.11854 0.12424,0.0768 0.36236,-0.15992 0.52916,-0.52601 0.42585,-0.93462 0.36085,-1.16715 -0.10512,-0.37612 l -0.38966,0.66145 0.17573,-0.79375 c 0.31271,-1.412546 1.31035,-3.853986 1.49812,-3.666215 0.1004,0.100397 0.18072,-0.462383 0.17849,-1.250621 -0.004,-1.571021 -0.0819,-1.534353 -1.16429,0.551216 -0.6977,1.344334 -1.21291,3.48523 -1.21291,5.04011 0,0.78851 -0.10562,1.04531 -0.42995,1.04531 -0.33661,0 -0.39548,0.17231 -0.27119,0.79375 0.0994,0.49709 0.05,0.79375 -0.1323,0.79375 -0.18124,0 -0.23208,0.29478 -0.13476,0.78138 0.10632,0.53163 -0.0564,1.26229 -0.50915,2.28602 -1.43734,3.25009 -2.52551,9.62892 -2.11247,12.38327 0.10046,0.66995 0.23008,1.21808 0.28803,1.21808 0.058,0 0.41093,-0.32742 0.78439,-0.72761 z m -0.37073,-0.33247 c -0.0123,-0.0737 0.0983,-0.54997 0.24568,-1.05833 0.14739,-0.50837 0.33939,-1.69821 0.42668,-2.64409 0.0873,-0.94589 0.21186,-1.80909 0.27681,-1.91823 0.0649,-0.10914 -0.0226,-0.19844 -0.1945,-0.19844 -0.23294,0 -0.22867,-0.10112 0.0168,-0.39687 0.26278,-0.31663 0.26278,-0.39688 0,-0.39688 -0.24948,0 -0.24129,-0.10858 0.0337,-0.44766 0.24674,-0.30418 0.25713,-0.38398 0.0324,-0.24897 -0.43598,0.26193 -0.42128,-0.34144 0.0578,-2.3729 0.43446,-1.84216 0.9176,-3.01589 1.24143,-3.01589 0.69803,0 -0.62293,9.59466 -1.61845,11.7555 -0.27285,0.59224 -0.50613,1.01648 -0.51839,0.94276 z m 35.82875,0.1431 c 2.09617,-0.4155 4.3931,-1.03009 4.50075,-1.20428 0.16005,-0.25896 -0.66042,-2.64124 -0.90965,-2.64124 -0.10759,0 -0.27806,0.0824 -0.37883,0.18321 -0.10076,0.10076 -0.44802,0.21909 -0.7717,0.26295 -0.32367,0.0439 -0.88615,0.15954 -1.24995,0.25707 -0.3638,0.0975 -0.7472,0.15898 -0.85199,0.13655 -0.1048,-0.0224 -0.31217,0.1865 -0.46083,0.46426 -0.41428,0.77411 -1.61345,0.89171 -4.16497,0.40844 -1.28008,-0.24245 -3.87523,-0.47263 -5.767,-0.51152 -1.89177,-0.0389 -3.97536,-0.15175 -4.63021,-0.2508 -1.59222,-0.24083 -5.57265,-1.22743 -6.15156,-1.52474 -0.33185,-0.17043 -0.46302,-0.13465 -0.46302,0.12629 0,0.22788 0.56916,0.48982 1.52135,0.70017 1.72256,0.38053 4.37045,1.43137 5.35782,2.12629 0.50933,0.35848 0.76609,0.39863 1.11642,0.1746 0.37048,-0.23692 0.62015,-0.13084 1.34456,0.57129 0.56879,0.55129 1.04297,0.80338 1.3149,0.69903 0.23392,-0.0898 0.6409,-0.0289 0.9044,0.13536 0.48856,0.30447 8.07769,0.21648 9.73951,-0.11293 z m 13.25339,-2.85333 c 0.97778,-1.63711 1.82163,-3.05905 1.87522,-3.15986 0.0536,-0.10081 -0.44116,-0.42153 -1.09944,-0.71272 -0.65829,-0.29119 -1.19688,-0.64405 -1.19688,-0.78413 0,-0.14008 -0.21183,-0.1993 -0.47072,-0.13159 -0.47608,0.12449 -2.31618,-1.10459 -3.96105,-2.64576 -1.0281,-0.96328 -1.06462,-0.82371 -0.22044,0.84221 0.80767,1.59385 2.36397,6.05172 2.80934,8.04705 0.18677,0.83675 0.37256,1.52136 0.41288,1.52136 0.0403,0 0.87331,-1.33945 1.85109,-2.97656 z m -45.99558,0.91338 c 0.47294,-0.355 0.8599,-0.76884 0.8599,-0.91965 0,-0.1508 -0.23886,-0.058 -0.53079,0.20617 -0.29194,0.2642 -0.59586,0.41529 -0.67539,0.33576 -0.0795,-0.0795 0.15985,-0.3841 0.53197,-0.6768 0.38788,-0.30511 0.74009,-0.9107 0.82542,-1.41923 l 0.14884,-0.88703 -0.97048,1.05833 c -0.93691,1.02174 -1.15047,1.39477 -1.57155,2.74512 -0.21953,0.70401 -0.0905,0.66267 1.38208,-0.44267 z m 10.39027,-0.30753 c -0.294,-0.57629 -0.529,-1.14183 -0.52222,-1.25677 0.007,-0.11494 0.30671,0.35657 0.66653,1.04779 0.44566,0.85615 0.82127,1.25677 1.1783,1.25677 0.28826,0 0.5241,-0.0421 0.5241,-0.0936 0,-0.0515 -0.65912,-1.48022 -1.4647,-3.175 -1.13563,-2.38911 -1.58145,-3.0814 -1.98437,-3.0814 -0.65685,0 -0.65545,0.0142 0.15957,1.62261 0.37358,0.73723 0.63294,1.38673 0.57634,1.44333 -0.0566,0.0566 -0.44368,-0.61009 -0.86019,-1.48152 -0.4165,-0.87143 -0.85445,-1.58442 -0.97322,-1.58442 -0.32175,0 -0.32734,-0.015 1.22374,3.28605 0.79182,1.68517 1.56814,3.06395 1.72517,3.06395 0.16235,0 0.0549,-0.45195 -0.24905,-1.04779 z m -2.94222,-3.79934 c -0.1777,-0.39002 -0.39592,-0.70912 -0.48492,-0.70912 -0.089,0 -0.59522,0.35724 -1.12492,0.79386 -0.73417,0.60517 -1.00465,1.06111 -1.13795,1.91823 -0.0962,0.6184 -0.23735,1.3625 -0.31373,1.65354 -0.0847,0.32293 0.54773,-0.1483 1.62287,-1.20912 1.68214,-1.65974 1.74715,-1.77032 1.43865,-2.44739 z m 24.67494,3.12734 c -0.0495,-0.29104 -0.28764,-0.76262 -0.52916,-1.04795 -0.43232,-0.51072 -0.42779,-0.51162 0.29185,-0.0578 0.85757,0.54078 0.57551,1.04894 2.39682,-4.31818 1.43448,-4.22719 2.09284,-7.31302 1.98072,-9.28385 -0.0772,-1.35692 -0.10677,-1.28026 -0.56572,1.46614 -0.45394,2.71638 -2.71428,10.44029 -3.35325,11.45855 -0.26008,0.41446 -0.27557,0.40761 -0.15583,-0.069 0.62052,-2.46956 0.72658,-3.08465 0.59225,-3.4347 -0.0848,-0.22097 -0.0388,-0.40176 0.10211,-0.40176 0.14096,0 0.25628,-0.41672 0.25628,-0.92604 0,-0.50933 0.10248,-0.92604 0.22773,-0.92604 0.19503,0 0.39007,-0.93653 0.68875,-3.3073 0.2411,-1.91365 0.47626,-3.27169 0.67478,-3.89675 0.1326,-0.41755 0.12926,-0.78354 -0.008,-0.86833 -0.84583,-0.52275 -3.08974,6.52171 -3.69527,11.60079 -0.27667,2.32067 -0.26315,2.65442 0.12483,3.08314 0.26776,0.29587 -0.46208,0.0439 -1.89776,-0.65526 -3.9836,-1.9399 -8.85775,-3.30271 -11.83286,-3.30846 -0.6919,-0.001 -1.31947,-0.22023 -1.89924,-0.66244 -0.51703,-0.39436 -1.04023,-0.59354 -1.29862,-0.49439 -0.27565,0.10578 -0.57791,-0.0412 -0.83266,-0.40491 -0.21996,-0.31404 -0.54682,-0.53805 -0.72635,-0.49781 -0.17954,0.0403 -0.91471,-0.41419 -1.63372,-1.00985 -1.78855,-1.48171 -3.82095,-2.64317 -3.82045,-2.18326 4.3e-4,0.39663 2.28932,2.71226 2.91003,2.94403 0.34841,0.13009 0.34758,0.15074 -0.007,0.16907 -0.22201,0.0115 -2.00299,-0.45039 -3.95774,-1.02641 -1.95475,-0.57601 -3.60233,-0.99905 -3.6613,-0.94008 -0.24439,0.24439 2.05061,2.05956 3.52477,2.78783 1.42425,0.70361 4.29649,1.47355 4.55028,1.21976 0.0545,-0.0545 -0.69225,-0.29776 -1.65934,-0.54068 -2.07788,-0.52195 -3.98278,-1.44385 -4.80432,-2.32513 -0.54825,-0.58811 -0.46227,-0.57155 1.20262,0.23167 1.69967,0.82 4.8053,1.51968 6.46545,1.45662 0.84729,-0.0322 0.97044,0.54496 0.31573,1.47969 -0.39975,0.57072 -0.38711,0.58804 0.42927,0.58804 0.6941,0 0.78698,-0.0653 0.53132,-0.37332 -0.36386,-0.43843 0.0457,-0.81813 0.63748,-0.59103 0.20192,0.0775 0.42494,-10e-4 0.49561,-0.17499 0.0707,-0.17373 0.1379,-0.0718 0.14939,0.22653 0.0115,0.29831 -0.12199,0.68527 -0.29661,0.85989 -0.24695,0.24695 -0.21755,0.3175 0.13229,0.3175 0.24738,0 0.44979,-0.17859 0.44979,-0.39687 0,-0.26459 0.26458,-0.39688 0.79375,-0.39688 0.52681,0 0.79375,0.13259 0.79375,0.39424 0,0.2297 0.73307,0.72663 1.75639,1.19063 2.21323,1.00352 2.44585,1.00433 0.75715,0.003 -1.56912,-0.93077 -1.50309,-0.96378 0.52917,-0.26458 1.78921,0.61558 2.39734,0.67086 1.45521,0.13229 -1.00211,-0.57286 -0.54993,-0.48041 2.43878,0.49862 1.50354,0.49252 3.68326,1.15655 4.84382,1.47561 2.51175,0.69052 3.56531,1.11363 3.56531,1.43183 0,0.58996 -6.17548,-0.59801 -9.38127,-1.80467 -0.99689,-0.37523 -1.85818,-0.63659 -1.91398,-0.58079 -0.19933,0.19933 3.80152,1.55354 6.40046,2.16643 1.45521,0.34317 3.30068,0.59992 4.10104,0.57054 1.29506,-0.0475 1.4453,-0.11164 1.36518,-0.58257 z m -23.245,-0.52584 c -0.24201,-0.5075 -0.46146,-0.89445 -0.48767,-0.8599 -0.0262,0.0346 -0.124,0.3815 -0.21733,0.771 -0.16366,0.68308 -0.0244,0.82676 0.95085,0.98092 0.10679,0.0169 -0.004,-0.38453 -0.24585,-0.89202 z m 33.22304,0.0849 c 0.16661,-0.26679 0.19609,-0.48507 0.0655,-0.48507 -0.13058,0 -0.2319,-0.14883 -0.22514,-0.33073 0.0376,-1.01249 -0.1137,-1.52135 -0.45234,-1.52135 -0.59128,0 -0.74642,0.46741 -0.56241,1.69448 0.18089,1.20624 0.65902,1.4679 1.17439,0.64267 z m -40.21133,-5.45474 0.58129,-2.19155 -0.55898,-0.78501 -0.55898,-0.78502 h 0.67947 c 0.65938,0 0.67948,-0.0505 0.67948,-1.70735 0,-1.6107 -0.38077,-3.05515 -0.80536,-3.05515 -0.20305,0 -0.59955,1.03926 -0.53861,1.41174 0.0199,0.12162 -0.20439,0.61036 -0.49841,1.0861 -0.4132,0.66857 -0.59415,1.63968 -0.79693,4.2768 -0.14428,1.8765 -0.33755,3.9476 -0.42947,4.60244 l -0.16713,1.19063 0.91617,-0.92604 c 0.71404,-0.72174 1.04441,-1.40954 1.49746,-3.11759 z m 54.20197,2.55664 c 0.34041,-0.12563 0.59531,-0.44197 0.59531,-0.73879 0,-0.44392 0.13202,-0.49766 0.91176,-0.37112 0.82677,0.13417 1.03146,0.0251 2.1961,-1.17063 2.29972,-2.36104 2.39395,-4.66628 0.30971,-7.57689 -1.94825,-2.7207 -5.85345,-4.682955 -11.74099,-5.899524 -2.91044,-0.601397 -10.65124,-1.308137 -10.95883,-1.000549 -0.37078,0.370777 0.72799,0.605207 4.201,0.896313 2.11005,0.176864 4.68032,0.481948 5.71171,0.677964 4.61103,0.876331 9.45837,3.100476 11.68464,5.361346 1.49598,1.51923 1.95222,2.55562 0.52917,1.20205 -1.94606,-1.85104 -5.82736,-3.7969 -8.31295,-4.16762 -0.58477,-0.0872 -1.46878,-0.2783 -1.96446,-0.42463 -0.49568,-0.14632 -2.09186,-0.31969 -3.54707,-0.38525 -2.5257,-0.1138 -2.59778,-0.10235 -1.5875,0.25232 l 1.05833,0.37154 -1.85208,0.0389 c -1.29415,0.0272 -1.69267,0.10743 -1.32292,0.26632 0.44204,0.18995 0.3767,0.23731 -0.39687,0.28766 -0.50933,0.0332 -1.07359,0.055 -1.25393,0.0485 -0.18033,-0.007 -0.27097,0.0803 -0.20141,0.19283 0.0696,0.11254 -0.10175,0.26431 -0.38068,0.33725 -0.43202,0.11297 -0.52126,0.46425 -0.30089,1.18431 0.0111,0.0364 -0.009,0.10738 -0.0459,0.15777 -0.0364,0.0504 0.11245,0.31138 0.33073,0.57996 0.31017,0.38164 0.31568,0.4394 0.0253,0.26436 -0.27752,-0.16725 -0.31204,-0.12986 -0.13635,0.14765 0.1294,0.20439 0.23709,0.56747 0.23932,0.80686 0.002,0.23938 0.24218,0.71563 0.53322,1.05833 l 0.52917,0.62309 -0.59694,-0.5055 c -0.32831,-0.27802 -0.6568,-0.44563 -0.72996,-0.37246 -0.0732,0.0732 0.61217,0.76725 1.52297,1.54241 0.91081,0.77515 1.8346,1.58206 2.05289,1.79312 0.55793,0.53949 -1.76574,-0.93726 -3.04271,-1.93372 -1.91451,-1.49394 -1.87959,-1.28608 0.13229,0.78743 1.0914,1.12485 2.57957,2.45183 3.30704,2.94885 l 1.32266,0.90366 0.20626,-0.79596 c 0.11344,-0.43777 0.25779,-0.79595 0.32078,-0.79595 0.063,0 0.23611,0.45151 0.38471,1.00337 0.2236,0.8304 0.48764,1.10964 1.53155,1.61973 2.2971,1.12246 6.73945,1.52149 8.73585,0.7847 z m -5.40433,-1.672 c -1.13225,-0.35404 -3.10278,-1.45282 -2.92474,-1.63087 0.0546,-0.0546 1.1622,0.37385 2.46131,0.95213 2.35873,1.04994 2.55094,1.33146 0.46343,0.67874 z m -3.14406,-0.27218 c -0.28248,-0.21365 -0.38752,-0.39225 -0.23343,-0.39688 0.15409,-0.005 0.51127,0.1664 0.79375,0.38005 0.28247,0.21365 0.38752,0.39225 0.23343,0.39687 -0.15409,0.005 -0.51128,-0.16639 -0.79375,-0.38004 z m 6.76245,-0.55541 c 0,-0.30245 -0.15221,-0.3664 -0.5623,-0.23624 -0.37839,0.1201 -0.50309,0.0827 -0.38126,-0.11446 0.31865,-0.5156 1.20814,-0.34167 1.20814,0.23624 0,0.29104 -0.0595,0.52916 -0.13229,0.52916 -0.0728,0 -0.13229,-0.18662 -0.13229,-0.4147 z m 2.77812,-0.11446 c -0.0899,-0.14553 -0.0444,-0.26459 0.10107,-0.26459 0.14552,0 0.33816,0.11906 0.4281,0.26459 0.0899,0.14552 0.0445,0.26458 -0.10106,0.26458 -0.14552,0 -0.33817,-0.11906 -0.42811,-0.26458 z m -8.20158,-1.607 c -0.58181,-0.29017 -1.23665,-0.71508 -1.45521,-0.94426 -0.33875,-0.35522 -0.26582,-0.35046 0.49445,0.0323 1.35404,0.68163 2.58019,1.45986 2.28318,1.44914 -0.14552,-0.005 -0.74061,-0.24696 -1.32242,-0.53713 z m -3.45566,-0.39198 c -0.48427,-0.38797 -0.47583,-0.39348 0.14787,-0.0965 0.8099,0.38571 0.96,0.50793 0.62383,0.50793 -0.14196,0 -0.48923,-0.18517 -0.7717,-0.41148 z m 4.85904,-1.01857 c -0.97411,-0.34383 -2.18171,-0.87891 -2.68354,-1.18906 -0.50184,-0.31015 -1.37171,-0.74036 -1.93305,-0.95603 l -1.02062,-0.39213 0.92604,0.16354 c 0.82094,0.14497 2.52955,0.85566 5.95313,2.47619 1.46514,0.69352 0.87542,0.64484 -1.24196,-0.10251 z m 8.99755,-0.0736 c 0.191,-0.0764 0.4192,-0.067 0.50712,0.0209 0.0879,0.0879 -0.0683,0.15045 -0.34726,0.13896 -0.30823,-0.0127 -0.37092,-0.0754 -0.15986,-0.15985 z m -14.91023,-0.36603 c -0.0959,-0.1552 -0.11765,-0.33893 -0.0483,-0.40829 0.0694,-0.0694 0.19661,0.0576 0.28278,0.28219 0.1789,0.46622 0.0264,0.54823 -0.23448,0.1261 z m 13.32273,0.10144 c 0.191,-0.0764 0.4192,-0.067 0.50712,0.0209 0.0879,0.0879 -0.0684,0.15046 -0.34726,0.13897 -0.30823,-0.0127 -0.37092,-0.0754 -0.15986,-0.15986 z m -14.35317,-0.80007 c -0.14359,-0.37709 -0.11319,-0.40748 0.14811,-0.14812 0.18082,0.17948 0.26212,0.39297 0.18066,0.47444 -0.0815,0.0815 -0.22941,-0.0654 -0.32877,-0.32632 z m 12.02153,-0.37462 c -0.50932,-0.13714 -1.69994,-0.4755 -2.64583,-0.75191 -3.2319,-0.94444 -6.48145,-1.85824 -7.54063,-2.12048 l -1.05833,-0.26203 1.27839,0.12614 c 2.29576,0.22653 11.22788,2.64852 11.79644,3.19867 0.18664,0.18059 -0.85449,0.0723 -1.83004,-0.19039 z m -13.75833,-1.29044 c -0.21828,-0.14106 -0.27782,-0.25648 -0.13229,-0.25648 0.14552,0 0.44317,0.11542 0.66145,0.25648 0.21829,0.14106 0.27782,0.25648 0.1323,0.25648 -0.14553,0 -0.44318,-0.11542 -0.66146,-0.25648 z m 11.1125,-1.63839 c -0.50932,-0.14726 -1.81901,-0.42816 -2.91042,-0.62422 l -1.98437,-0.35647 1.83837,0.14559 c 1.0111,0.0801 2.49938,0.35982 3.30729,0.62166 1.54428,0.5005 1.34079,0.67364 -0.25087,0.21344 z m -61.13122,-0.82934 -5.01503,-8.420853 1.88256,-3.14835 c 1.93908,-3.242873 2.05491,-3.702885 1.21988,-4.844542 -0.32861,-0.449273 -0.57569,-0.127789 -2.78962,3.629586 -1.33599,2.267386 -2.42907,4.249077 -2.42907,4.403757 0,0.15468 2.58961,4.627016 5.75469,9.938522 l 5.75468,9.65729 0.31847,-1.39728 0.31846,-1.39727 z m 14.67467,9.90057 c 0.80844,-0.89332 0.0647,-0.63442 -0.78822,0.27437 -0.55475,0.59111 -0.62485,0.74954 -0.24498,0.55367 0.29267,-0.1509 0.75761,-0.52352 1.0332,-0.82804 z m 22.19427,0.35989 c 1.7432,-0.20912 2.30186,-0.62282 2.30186,-1.70457 0,-0.41427 0.0787,-0.9584 0.17497,-1.20918 0.15115,-0.3939 0.0521,-0.43348 -0.7276,-0.29082 -0.96343,0.17628 -3.16042,0.40651 -5.53279,0.57979 -2.90174,0.21194 -8.46906,0.10957 -9.18683,-0.16892 -1.25321,-0.48626 -1.98919,-0.55764 -1.85737,-0.18014 0.0654,0.18727 0.32926,0.3022 0.58638,0.25541 0.25712,-0.0468 0.78055,0.20573 1.16318,0.56116 0.58069,0.5394 1.13814,0.69476 3.37238,0.93987 1.47218,0.16151 3.55577,0.58306 4.63021,0.93678 1.07443,0.35372 2.3107,0.60298 2.74726,0.55392 0.43657,-0.0491 1.48432,-0.17204 2.32835,-0.2733 z m -22.83355,-1.6601 c 0,-0.14035 -0.1786,-0.32371 -0.39688,-0.40747 -0.29914,-0.1148 -0.39687,0.0458 -0.39687,0.65204 0,0.71498 0.0441,0.76025 0.39687,0.40747 0.21828,-0.21828 0.39688,-0.5117 0.39688,-0.65204 z m 5.95312,0.74654 c 0.0899,-0.14552 0.0374,-0.26458 -0.11668,-0.26458 -0.15411,0 -0.28019,0.11906 -0.28019,0.26458 0,0.14552 0.0525,0.26458 0.11667,0.26458 0.0642,0 0.19026,-0.11906 0.2802,-0.26458 z m 23.67616,-0.74322 c -0.003,-0.38557 -0.0395,-0.39255 -0.26054,-0.0505 -0.33485,0.51815 -0.33485,0.86841 0,0.66146 0.14553,-0.0899 0.26276,-0.36486 0.26054,-0.61093 z m 4.25507,-2.5228 c -0.66053,-1.54096 -0.91919,-1.6107 -0.39842,-0.10742 0.61557,1.77691 0.6981,1.9415 0.8167,1.62878 0.0604,-0.1592 -0.12785,-0.84381 -0.41828,-1.52136 z m -42.61539,0.81862 c 1.1e-4,-0.1819 0.36453,-1.10084 0.80981,-2.0421 0.54754,-1.15741 0.78648,-2.03161 0.73817,-2.70071 -0.0393,-0.54413 0.007,-1.06799 0.10337,-1.16413 0.0961,-0.0961 0.10654,-0.5161 0.0231,-0.93324 -0.11059,-0.55295 -0.0354,-0.80306 0.27744,-0.92311 0.26161,-0.10039 0.42914,-0.46941 0.42914,-0.94525 0,-0.42931 0.12975,-1.29589 0.28835,-1.925721 0.27135,-1.077616 0.22315,-1.285483 -0.81727,-3.524764 l -1.10561,-2.379615 -0.90253,0.276993 c -1.08174,0.331995 -1.09915,0.498239 -0.45353,4.330174 0.50009,2.968133 0.31152,4.060123 -0.70111,4.060123 -0.71915,0 -1.29223,-1.19915 -1.47487,-3.08607 -0.3613,-3.732802 -0.35925,-3.725537 -1.0115,-3.600852 -0.89078,0.170282 -1.24053,-0.447164 -1.78188,-3.145694 -0.26739,-1.332929 -0.58262,-2.519958 -0.70051,-2.637843 -0.11788,-0.117885 -0.9065,0.937652 -1.75247,2.345638 -1.45311,2.41845 -1.51862,2.600549 -1.185,3.293912 0.73859,1.535043 8.82914,15.011929 9.01824,15.022209 0.10914,0.006 0.19853,-0.13805 0.19865,-0.31995 z m 9.69945,-2.75123 c -0.85222,-1.6828 -0.93087,-1.76284 -1.09653,-1.11585 -0.21837,0.85284 0.6889,2.78465 1.37987,2.93812 0.25742,0.0572 0.50555,0.0784 0.55139,0.0473 0.0458,-0.0312 -0.32978,-0.87247 -0.83473,-1.86953 z m -0.70788,1.29602 c -0.002,-0.10914 -0.11947,-0.37703 -0.26053,-0.59531 -0.2074,-0.32093 -0.25726,-0.28296 -0.26054,0.19844 -0.002,0.32742 0.11502,0.59531 0.26054,0.59531 0.14552,0 0.26276,-0.0893 0.26053,-0.19844 z m -0.89224,-3.9026 c 0.0865,-1.32613 0.0414,-2.67434 -0.10159,-3.04271 -0.23244,-0.5986 -0.32295,-0.45272 -0.9524,1.53501 -0.69624,2.19865 -0.91653,4.64719 -0.44434,4.93902 0.25298,0.15635 0.4499,-0.62059 0.83614,-3.29903 0.16171,-1.12143 0.1865,-0.84834 0.10806,1.19063 -0.12752,3.31462 0.32167,2.24222 0.55413,-1.32292 z m 5.12962,2.72646 c 0,-0.17394 0.31874,-0.64895 0.70832,-1.05558 0.38957,-0.40663 0.63828,-0.80935 0.55269,-0.89494 -0.2273,-0.2273 -2.34155,1.7522 -2.16924,2.03099 0.21506,0.34799 0.90823,0.28657 0.90823,-0.0805 z m 14.02292,-0.59822 c 0.94588,-0.0722 2.61276,-0.31836 3.70416,-0.54695 1.09141,-0.22859 2.31258,-0.4673 2.71371,-0.53046 1.81775,-0.28626 2.92773,-2.12052 2.16996,-3.58589 -0.53068,-1.02622 -0.91492,-1.19765 -0.91492,-0.4082 0,0.36292 -0.1252,0.98917 -0.27823,1.39167 l -0.27824,0.73182 -0.71267,-1.17762 c -0.6085,-1.00549 -0.72493,-1.09274 -0.79657,-0.59695 -0.0461,0.31936 0.0393,1.02704 0.18998,1.57262 0.15064,0.54558 0.22538,1.04048 0.16608,1.09978 -0.0593,0.0593 -0.6935,-0.44003 -1.40933,-1.1096 -0.71584,-0.66958 -1.37847,-1.21742 -1.47252,-1.21742 -0.094,0 -0.171,0.47625 -0.171,1.05833 0,0.58209 -0.0962,1.05834 -0.21382,1.05834 -0.11761,0 -0.56409,-0.47344 -0.99219,-1.05208 -0.4281,-0.57865 -0.86766,-1.0549 -0.9768,-1.05834 -0.10914,-0.003 -0.19844,0.58906 -0.19844,1.31667 0,0.7276 -0.10978,1.32291 -0.24396,1.32291 -0.13418,0 -0.65503,-0.48024 -1.15745,-1.06719 -0.87591,-1.02331 -0.92014,-1.04235 -1.07534,-0.46303 -0.089,0.3323 -0.16348,0.99114 -0.16547,1.46408 -0.005,1.20891 -0.34371,1.07042 -1.04529,-0.42748 l -0.60298,-1.28737 -1.15508,1.15508 c -1.24555,1.24554 -1.86233,1.48732 -1.59674,0.62591 0.55792,-1.80958 0.61113,-1.7388 -0.65507,-0.87138 -0.64138,0.43939 -1.44427,0.886 -1.78418,0.99247 -0.56323,0.17641 -0.59172,0.14444 -0.32142,-0.36063 0.3553,-0.66388 0.23757,-0.68372 -0.81807,-0.13782 -1.00127,0.51777 -1.26606,0.30556 -0.60007,-0.48091 0.50182,-0.59258 0.50164,-0.59369 -0.0237,-0.15166 -0.29104,0.24489 -0.73585,0.79621 -0.98846,1.22514 l -0.4593,0.77988 1.54122,0.38823 c 0.84767,0.21353 2.54102,0.41466 3.763,0.44697 1.22199,0.0323 2.26568,0.10262 2.31933,0.15626 0.0536,0.0536 0.7101,0.0477 1.45879,-0.0132 0.74869,-0.0609 2.13516,-0.16979 3.08105,-0.24202 z m -14.8851,-1.10918 c 0.69248,-0.53093 1.22432,-1.08161 1.18187,-1.22374 -0.0425,-0.14214 0.1194,-0.47565 0.35967,-0.74114 0.41824,-0.46215 0.39601,-0.47144 -0.52168,-0.21805 -0.5272,0.14556 -1.06551,0.19855 -1.19625,0.11775 -0.13075,-0.0808 0.0518,-0.71193 0.40562,-1.40248 0.74379,-1.4516 1.54519,-4.003401 1.32609,-4.222501 -0.19548,-0.195482 -1.8265,1.016877 -3.39549,2.523921 -1.05468,1.01304 -1.27429,1.12718 -1.42301,0.73962 -0.50581,-1.318125 0.57423,-4.480684 2.11118,-6.181896 0.52572,-0.581908 0.95585,-1.131851 0.95585,-1.222095 0,-0.09025 -0.40063,-0.688935 -0.89029,-1.330424 -0.48966,-0.641488 -1.27813,-2.097969 -1.75215,-3.236624 -3.41891,-8.212581 -0.97981,-17.935083 5.33286,-21.257383 0.92136,-0.484904 1.71198,-0.910544 1.75692,-0.945867 0.0449,-0.03532 -0.27501,-0.850967 -0.71101,-1.812543 l -0.79273,-1.74832 -3.12545,0.0097 -3.12544,0.0097 -3.90261,6.597342 c -2.14643,3.628539 -3.9026,6.776564 -3.9026,6.995612 0,0.219048 0.29766,0.5933 0.66146,0.831673 0.70606,0.462627 0.86535,1.370677 0.37927,2.162072 -0.22167,0.360916 -0.0451,0.970038 0.82349,2.840681 1.75092,3.770911 2.67076,6.448789 2.39174,6.962974 -0.13292,0.244948 -0.60911,0.795057 -1.05819,1.222465 -0.96745,0.920752 -0.98773,1.231106 -0.18117,2.773139 0.55451,1.060133 0.6381,1.12173 0.89761,0.661458 0.44798,-0.794525 0.80924,-0.168721 0.89991,1.558872 l 0.0807,1.537241 1.13035,-1.121261 c 1.49949,-1.487419 1.8517,-1.174584 1.26332,1.122079 -0.23672,0.923992 -0.61906,1.967923 -0.84965,2.319845 -0.3909,0.5966 -0.38768,0.62775 0.0476,0.4607 0.31844,-0.12219 0.60231,0.0105 0.89283,0.41749 0.56833,0.79611 0.83337,1.7587 0.535,1.9431 -0.13275,0.082 -0.2386,0.29097 -0.23522,0.46428 0.003,0.17332 0.4084,-0.13137 0.90004,-0.67707 0.49165,-0.5457 1.02467,-0.99219 1.18449,-0.99219 0.41306,0 0.34439,2.29724 -0.10652,3.5633 -0.2888,0.81089 -0.30121,1.09594 -0.0545,1.25272 0.4264,0.27101 0.29053,0.33108 1.70612,-0.75425 z m -2.69161,-0.77665 c -0.11126,-0.44329 -0.0748,-0.62383 0.1036,-0.51355 0.16621,0.10272 0.27171,-0.12427 0.26639,-0.57314 l -0.009,-0.74322 -0.52036,0.62462 c -0.57028,0.68454 -0.66619,1.09517 -0.25579,1.09517 0.14553,0 0.26459,0.17859 0.26459,0.39688 0,0.21828 0.0724,0.39687 0.16097,0.39687 0.0885,0 0.0838,-0.30763 -0.0106,-0.68363 z m 33.18712,0.56695 c 0,-0.0642 -0.11906,-0.19026 -0.26458,-0.28019 -0.14552,-0.0899 -0.26458,-0.0374 -0.26458,0.11667 0,0.15411 0.11906,0.2802 0.26458,0.2802 0.14552,0 0.26458,-0.0525 0.26458,-0.11668 z m -21.72817,-2.83707 0.62913,-0.88271 -0.15364,1.38906 c -0.0845,0.76399 -0.0479,1.38907 0.0813,1.38907 0.12923,0 0.5701,-0.47371 0.97972,-1.05269 0.40962,-0.57897 0.81522,-1.05522 0.90132,-1.05833 0.0861,-0.003 0.30028,0.47404 0.47593,1.06032 0.32904,1.09823 0.81552,1.20065 0.8321,0.17519 0.005,-0.31884 0.16445,-0.85932 0.35398,-1.20107 l 0.34461,-0.62137 0.33165,0.80068 c 0.18241,0.44037 0.54303,0.99197 0.80138,1.22577 0.44064,0.39878 0.48008,0.36311 0.63711,-0.57619 0.0921,-0.5507 0.28871,-1.17987 0.43699,-1.39815 0.23792,-0.35026 0.29886,-0.34746 0.51879,0.0238 0.13706,0.23138 0.47998,0.7057 0.76205,1.05404 l 0.51286,0.63335 0.29614,-1.0998 0.29615,-1.0998 1.20165,1.23639 1.20165,1.23638 -0.17401,-1.65364 c -0.0957,-0.90951 -0.073,-1.65083 0.0504,-1.64739 0.12343,0.003 0.57756,0.48352 1.00918,1.06684 0.76119,1.02873 0.79149,1.04245 1.0087,0.45677 0.12317,-0.33211 0.1473,-1.02055 0.0536,-1.52987 l -0.17032,-0.92604 0.81527,0.90755 c 0.44839,0.49915 0.81526,1.00517 0.81526,1.12448 0,0.11931 0.11906,0.21693 0.26459,0.21693 0.14552,0 0.26458,-0.41672 0.26458,-0.92604 0,-0.99183 0.26381,-1.167705 0.79375,-0.52917 0.18116,0.21828 0.44188,0.39688 0.57939,0.39688 0.39524,0 -0.0415,-1.143341 -0.63169,-1.653651 -0.8875,-0.767397 0.0705,-0.553584 1.45571,0.324902 1.35962,0.862249 1.41802,0.848289 0.87163,-0.208309 -0.38955,-0.753315 -2.5223,-2.431697 -3.09,-2.431697 -0.18236,0 -0.26537,-0.0662 -0.18445,-0.14712 0.0809,-0.08092 0.88784,0.04482 1.79316,0.279411 0.90532,0.234592 1.69925,0.373316 1.76429,0.308275 0.21872,-0.218721 -1.53711,-1.301188 -2.63776,-1.626171 l -1.09056,-0.322003 1.04816,-0.207131 1.04816,-0.20713 -1.05833,-0.487336 c -0.58208,-0.268029 -1.53458,-0.485686 -2.11666,-0.483676 l -1.05834,0.0037 0.72761,0.394732 c 1.05969,0.574893 0.89544,0.641138 -0.52772,0.212832 -1.4933,-0.449417 -2.37179,-0.296285 -4.19226,0.730762 -2.4353,1.373914 -8.34951,3.11752 -10.62586,3.132678 -0.47294,0.0032 -0.85989,0.112834 -0.85989,0.243743 0,0.130909 -0.44649,0.839088 -0.99219,1.573729 -0.88369,1.18966 -1.8547,2.68841 -2.13897,3.30152 -0.21069,0.4544 2.05658,-0.89958 2.45222,-1.46443 0.38877,-0.55505 0.41429,-0.55935 0.41337,-0.0697 -5.5e-4,0.28704 -0.24233,0.91774 -0.5373,1.40155 l -0.5363,0.87966 0.78154,-0.46167 c 0.42984,-0.25392 0.91223,-0.70929 1.07196,-1.01195 0.26548,-0.50303 0.27868,-0.48992 0.15375,0.15275 -0.0752,0.38666 -0.21945,0.91877 -0.32064,1.18247 -0.16617,0.43302 -0.0958,0.4248 0.72647,-0.0849 0.50076,-0.31039 1.19357,-0.96157 1.53958,-1.44706 z m 2.99434,-2.20562 c 0.005,-0.43657 0.0647,-0.58313 0.13177,-0.3257 0.0671,0.25743 0.0627,0.61462 -0.01,0.79375 -0.0725,0.17913 -0.12736,-0.0315 -0.12197,-0.46805 z m 2.28843,0.26458 c -0.0886,-0.14552 -0.23853,-0.6813 -0.33316,-1.190627 l -0.17203,-0.926042 0.42196,0.742887 c 0.38249,0.673382 0.46267,1.996892 0.0832,1.373782 z m 2.68707,-1.124119 c -1.10756,-1.649775 -1.14222,-1.830435 -0.15309,-0.797998 0.52076,0.543566 0.94684,1.168645 0.94684,1.389067 0,0.55692 -0.0461,0.5226 -0.79375,-0.591069 z m -6.04364,-0.06651 c 0,-0.363802 0.06,-0.51263 0.13345,-0.330729 0.0734,0.181901 0.0734,0.479557 0,0.661458 -0.0734,0.1819 -0.13345,0.03307 -0.13345,-0.330729 z m 8.4198,-0.836399 c -1.51894,-2.006285 -1.50771,-1.980678 -0.57864,-1.319124 0.89418,0.636718 1.47193,1.4753 1.3234,1.920886 -0.0486,0.145857 -0.38376,-0.124936 -0.74476,-0.601762 z m 1.48236,-0.894406 c -1.02613,-0.906078 -1.09092,-1.151683 -0.17443,-0.661189 0.38648,0.206837 1.53306,1.62536 1.28295,1.58723 -0.0397,-0.0061 -0.53857,-0.422776 -1.10852,-0.926041 z m 2.68493,-0.308583 c -0.54845,-0.376564 -0.94647,-0.735374 -0.88448,-0.797355 0.20109,-0.201095 1.68066,0.688565 1.84129,1.107166 0.19149,0.499004 0.2477,0.517206 -0.95681,-0.309811 z m -2.22265,-0.548056 c -0.46122,-0.395916 -1.11606,-0.922904 -1.45521,-1.171085 -0.92355,-0.67583 -0.16903,-0.567391 0.83849,0.120508 0.73341,0.500749 1.87147,1.803222 1.55371,1.778182 -0.0541,-0.0043 -0.47577,-0.331688 -0.93699,-0.727605 z m -0.23533,-1.505181 c -0.28248,-0.213653 -0.37934,-0.392247 -0.21526,-0.396875 0.16408,-0.0046 0.44655,0.170179 0.62771,0.38846 0.41825,0.503962 0.24733,0.507449 -0.41245,0.0084 z m -29.27198,8.186664 c -0.0815,-0.0815 -0.22941,0.0654 -0.32877,0.32632 -0.14358,0.37709 -0.11319,0.40748 0.14811,0.14812 0.18083,-0.17948 0.26212,-0.39297 0.18066,-0.47444 z m 2.3335,-0.7206 c -0.10459,-0.54505 -0.0787,-0.72571 0.0708,-0.49342 0.18982,0.29506 0.29214,0.26115 0.52503,-0.17402 0.23015,-0.43003 0.15428,-0.84573 -0.37124,-2.034 -0.64764,-1.464438 -1.19325,-1.738589 -1.17468,-0.590236 0.005,0.318833 0.17953,0.877356 0.3875,1.241156 0.20797,0.3638 0.37757,0.78052 0.3769,0.92604 -6.7e-4,0.14552 -0.18436,-0.0734 -0.4082,-0.48641 -0.64801,-1.19574 -0.69933,-0.64436 -0.0913,0.98079 0.61914,1.6548 0.93809,1.94811 0.68519,0.6301 z m -1.53409,-0.99621 c -0.0588,-0.17632 -0.25965,0.0203 -0.4464,0.43704 -0.31785,0.70921 -0.31102,0.72969 0.10686,0.32057 0.24552,-0.24037 0.39831,-0.58129 0.33954,-0.75761 z m 10.6507,-0.42504 c 0.9532,-0.58328 2.35932,-2.062974 2.35932,-2.482755 0,-0.541471 0.90485,-1.056932 1.85537,-1.056932 0.5631,0 1.09244,-0.111032 1.17631,-0.246738 0.22542,-0.364747 -2.61398,-2.303788 -4.29393,-2.932335 -2.00668,-0.750795 -3.76483,-0.979297 -3.76483,-0.489302 0,0.244998 0.54115,0.475145 1.58261,0.673066 1.93758,0.368221 5.93103,2.202076 5.57362,2.559488 -0.15681,0.156811 -0.49622,0.08851 -0.91114,-0.183365 -0.73002,-0.478326 -0.74793,-0.464264 -1.20175,0.943753 -0.1748,0.542314 -0.39879,0.959033 -0.49777,0.926042 -0.099,-0.03299 -0.23926,0.05908 -0.31174,0.204599 -0.17588,0.353099 -2.61637,2.513539 -2.83936,2.513539 -0.0965,0 0.19437,-0.38695 0.64626,-0.85989 0.82969,-0.86834 1.91541,-3.031233 1.34448,-2.678381 -0.1948,0.120392 -0.24337,0.03756 -0.1384,-0.235992 0.089,-0.231819 0.2384,-0.830123 0.3321,-1.329564 0.14957,-0.797312 0.095,-0.928254 -0.44751,-1.07351 -0.33982,-0.09099 -0.69206,-0.16706 -0.78274,-0.169047 -0.0907,-0.002 -0.17598,0.548905 -0.18953,1.224205 -0.0263,1.312163 -0.59717,3.311069 -1.40489,4.919549 l -0.49613,0.98799 0.73084,-0.31716 c 0.40196,-0.17444 1.15743,-0.5782 1.67881,-0.89726 z m -16.27742,-0.46807 c 0.0873,-0.3479 -0.0295,-1.637105 -0.25954,-2.864891 -0.23007,-1.227787 -0.4183,-2.655659 -0.4183,-3.173049 0,-0.704137 -0.12737,-0.974017 -0.50647,-1.073153 -0.27855,-0.07284 -0.79814,-0.594493 -1.15464,-1.159222 -0.35649,-0.564728 -0.84296,-1.188438 -1.08103,-1.386021 -0.23808,-0.197583 -0.43104,-0.493491 -0.42881,-0.657574 0.002,-0.169701 0.10487,-0.139109 0.23788,0.07095 0.13627,0.215219 0.42205,0.297057 0.68498,0.196161 0.5736,-0.22011 0.44052,-1.485011 -0.3997,-3.799236 -0.56425,-1.554144 -0.57318,-1.683728 -0.15949,-2.315105 0.2677,-0.408556 0.68589,-0.668812 1.07469,-0.668812 1.00135,0 1.468,-0.672751 1.468,-2.116362 0,-1.072868 0.115,-1.375275 0.69714,-1.833185 0.42794,-0.336612 1.08602,-0.54837 1.70418,-0.54837 1.35626,0 1.5224,-0.412732 0.54916,-1.364256 -0.44605,-0.436096 -0.87962,-1.009111 -0.9635,-1.273368 -0.42592,-1.341963 -3.14188,-1.348078 -5.85344,-0.01318 -3.11802,1.534996 -3.46778,3.200684 -1.65743,7.893371 1.22893,3.185583 1.95456,5.569125 2.36036,7.753367 0.1519,0.817608 0.44959,1.710577 0.66153,1.984375 0.35809,0.462618 0.40977,0.466469 0.73085,0.05447 0.61099,-0.783999 1.05842,0.434477 1.25323,3.412911 0.16345,2.498939 0.47354,3.512729 1.07445,3.512729 0.12493,0 0.29858,-0.28465 0.3859,-0.63255 z m -0.92154,-0.58012 c 0.0127,-0.30823 0.0754,-0.37092 0.15985,-0.15986 0.0764,0.191 0.067,0.4192 -0.0209,0.50712 -0.0879,0.0879 -0.15045,-0.0683 -0.13896,-0.34726 z M 66.75679,83.743278 c -0.83701,-1.824743 -0.80287,-4.023302 0.0771,-4.963916 1.12547,-1.203081 1.79973,-1.361745 0.7276,-0.171219 -0.86657,0.962276 -0.99218,1.268795 -0.99218,2.42108 0,0.725624 0.22668,1.915906 0.50374,2.645071 0.63817,1.679509 0.44213,1.722272 -0.31623,0.06898 z m 4.04582,-0.859896 c 0.29104,-0.291041 0.52916,-0.867901 0.52916,-1.281909 0,-0.454892 0.23556,-0.952181 0.59532,-1.256771 0.59471,-0.503519 0.59484,-0.503473 0.13229,0.04597 -0.25466,0.3025 -0.46302,0.963297 -0.46302,1.468438 0,0.949371 -0.38068,1.553437 -0.97896,1.553437 -0.22049,0 -0.154,-0.189957 0.18521,-0.529167 z m 40.31234,18.388548 c 0.0838,-0.21829 0.037,-0.39688 -0.10398,-0.39688 -0.14096,0 -0.25628,0.17859 -0.25628,0.39688 0,0.21828 0.0468,0.39687 0.10398,0.39687 0.0572,0 0.17252,-0.17859 0.25628,-0.39687 z m 26.42459,-3.064738 2.04632,-3.44647 -9.98382,-16.780925 -9.98381,-16.780925 -2.07658,-0.0057 -2.07658,-0.0057 0.75366,0.898623 c 0.45805,0.546152 1.04982,0.935322 1.5087,0.992187 0.81438,0.100918 -0.0108,-1.221385 14.79601,23.710704 l 4.75507,8.006721 -1.76128,2.942692 c -0.96871,1.618481 -1.72758,2.966261 -1.68639,2.995081 0.81691,0.57139 1.41167,0.9337 1.52283,0.92767 0.0768,-0.004 1.0604,-1.55848 2.18587,-3.454034 z M 86.94219,97.632874 c 0.3638,-0.238829 0.54239,-0.439968 0.39687,-0.446975 -0.14552,-0.007 -0.90074,0.469556 -1.67826,1.059028 -1.44136,1.092751 -1.49872,1.026529 -0.39937,-0.461078 0.34233,-0.463233 0.62243,-0.973264 0.62243,-1.133402 0,-0.160138 0.44648,-0.555036 0.99218,-0.87755 l 0.99219,-0.586389 -0.90947,-0.08661 c -0.69927,-0.06659 -1.02249,0.05571 -1.39848,0.529167 -0.85472,1.076296 -1.77385,3.048087 -1.95819,4.200868 l -0.17834,1.115287 1.42849,-1.439058 c 0.78567,-0.791481 1.72615,-1.634462 2.08995,-1.873291 z m 48.15377,-0.32904 1.52203,-2.553637 -4.66342,-7.84398 -4.66342,-7.84398 -0.087,1.182969 c -0.0479,0.650632 0.0373,2.492655 0.18922,4.093385 0.34525,3.637322 0.1463,4.990805 -0.75238,5.118356 -1.21576,0.172557 -1.3306,-0.384753 -1.37865,-6.69028 -0.0245,-3.210026 -0.0906,-5.398988 -0.14707,-4.86436 -0.11769,1.115197 -0.56936,1.62425 -1.13241,1.27627 -0.28264,-0.174686 -0.42014,-1.079817 -0.53601,-3.528687 l -0.15586,-3.293735 -2.62554,-4.393678 c -1.44404,-2.416523 -2.71286,-4.393679 -2.81959,-4.393679 -0.10674,0 0.17974,0.55387 0.63661,1.230823 0.90807,1.345506 2.04561,3.922195 2.05556,4.656157 0.009,0.656014 -0.93951,1.521354 -1.66739,1.521354 -0.92857,0 -1.64387,-0.968679 -2.40823,-3.261249 -0.3797,-1.138843 -0.92871,-2.537827 -1.22002,-3.108854 l -0.52967,-1.038231 -2.17743,0.0017 c -1.67624,0.0013 -2.34912,0.114942 -2.92332,0.493528 -0.72299,0.476691 -0.72826,0.496393 -0.17181,0.641906 0.31573,0.08257 0.49984,0.27022 0.40912,0.417006 -0.0979,0.158481 0.26927,0.30005 0.90409,0.348538 1.33724,0.102139 1.47297,0.520001 0.2928,0.901451 l -0.89918,0.290632 1.03147,0.164928 c 0.56731,0.09071 1.29937,0.09487 1.62679,0.0092 0.83633,-0.218723 0.74288,0.278527 -0.13229,0.703914 -0.71445,0.347264 -0.69691,0.358794 0.97057,0.637782 1.86188,0.311514 2.35652,0.797491 1.09396,1.074796 -1.06187,0.233227 -1.02573,0.564753 0.0843,0.77299 0.81073,0.152094 2.0184,0.925877 2.0184,1.293241 0,0.08195 -0.23277,0.187048 -0.51725,0.233549 -0.43351,0.07086 -0.26404,0.356619 1.04668,1.764993 0.90007,0.967121 1.75966,2.202549 2.02502,2.910416 0.2536,0.676485 0.5653,1.301975 0.69268,1.389977 0.35035,0.24205 0.29627,3.483139 -0.0774,4.641248 -0.67352,2.087167 -2.47882,5.212257 -3.62991,6.283582 -0.64177,0.5973 -1.34045,1.415074 -1.55263,1.817276 -0.21218,0.402202 -1.21905,1.285359 -2.23748,1.962571 l -1.8517,1.231296 1.20789,0.705441 c 1.6917,0.98801 1.98891,1.322291 1.17675,1.32353 -0.61539,9.39e-4 -0.60434,0.02775 0.21806,0.529167 0.59928,0.365381 1.33324,0.528245 2.38125,0.528398 5.2973,7.74e-4 13.83306,1.683902 16.7285,3.298619 0.36722,0.204787 0.76421,0.268357 0.89244,0.142897 0.12703,-0.124289 0.91589,-1.375118 1.753,-2.779619 z m -56.4397,1.934106 c -0.0845,-0.211067 -0.14715,-0.148372 -0.15985,0.159853 -0.0115,0.278915 0.0511,0.435184 0.13897,0.347265 0.0879,-0.08792 0.0973,-0.316122 0.0209,-0.507118 z m 3.25885,-2.277415 c 0,-0.318256 -0.269,-0.173281 -0.95928,0.516992 -0.57981,0.579813 -0.88151,1.085089 -0.7627,1.277333 0.24577,0.397662 1.72198,-1.140568 1.72198,-1.794325 z m -0.27269,1.1364 c 0,-0.145521 -0.11542,-0.08599 -0.25648,0.132291 -0.14106,0.218281 -0.25648,0.515938 -0.25648,0.661459 0,0.14552 0.11542,0.08599 0.25648,-0.132292 0.14106,-0.218281 0.25648,-0.515938 0.25648,-0.661458 z M 76.6024,95.012371 c -0.57051,-1.134692 -1.03134,-2.155015 -1.02407,-2.267386 0.007,-0.112371 0.50061,0.748189 1.0963,1.912356 1.00309,1.96036 1.10328,2.071602 1.35679,1.506408 0.22738,-0.50694 0.0773,-1.010886 -0.88614,-2.976563 -0.63792,-1.301467 -1.1893,-2.366303 -1.22528,-2.366303 -0.3018,0 -1.41323,0.663425 -1.41323,0.843574 0,0.126207 0.61505,1.540708 1.36677,3.143335 0.84312,1.797483 1.44328,2.790076 1.56646,2.590761 0.11427,-0.184894 -0.24402,-1.205611 -0.8376,-2.386182 z m -1.40148,-3.011092 c -0.25532,-0.665346 -0.18,-0.837024 0.1319,-0.300656 0.15444,0.265576 0.22506,0.538601 0.15693,0.606723 -0.0681,0.06812 -0.19809,-0.06961 -0.28883,-0.306067 z m 26.92756,1.774118 c 0.075,-0.121268 -0.0318,-0.220487 -0.23733,-0.220487 -0.20548,0 -0.31228,0.09922 -0.23733,0.220487 0.075,0.121267 0.18174,0.220486 0.23733,0.220486 0.0556,0 0.16238,-0.09922 0.23733,-0.220486 z m 3.43958,0 c 0.075,-0.121268 -0.0319,-0.220487 -0.23733,-0.220487 -0.20548,0 -0.31228,0.09922 -0.23733,0.220487 0.075,0.121267 0.18175,0.220486 0.23733,0.220486 0.0556,0 0.16238,-0.09922 0.23733,-0.220486 z M 86.78842,92.739112 c -0.0925,-0.761927 -0.0623,-0.869382 0.13033,-0.463021 0.19497,0.411329 0.25497,0.219842 0.26943,-0.859896 0.0102,-0.763984 0.13392,-1.389062 0.27487,-1.389062 0.14096,0 0.19364,-0.163242 0.11708,-0.36276 -0.0766,-0.199518 0.0462,-0.548201 0.27288,-0.774852 0.22665,-0.22665 0.4121,-0.532631 0.4121,-0.679958 0,-0.147327 0.1187,-0.34123 0.26378,-0.430895 0.17532,-0.108355 0.17532,0.06964 0,0.530777 -0.37131,0.976616 -0.33232,1.156904 0.219,1.012729 0.26554,-0.06944 0.64426,-0.564308 0.84161,-1.099709 0.34512,-0.936304 0.36503,-0.948212 0.52158,-0.311999 0.13685,0.55613 0.1911,0.587729 0.34072,0.198437 0.0979,-0.254661 0.11219,-0.634383 0.0318,-0.843825 -0.0804,-0.209443 -0.0207,-0.596396 0.13255,-0.859896 0.16614,-0.285626 0.28192,-0.339232 0.28672,-0.132747 0.004,0.190489 0.12711,0.272759 0.27263,0.182822 0.14552,-0.08994 0.26458,-0.01467 0.26458,0.167247 0,0.184203 0.17766,0.103193 0.40093,-0.182823 0.37856,-0.48493 0.39213,-0.469296 0.24319,0.28016 -0.12038,0.605708 -0.091,0.699729 0.12418,0.396875 0.2487,-0.350099 0.28241,-0.348263 0.28598,0.01558 0.002,0.226848 -0.16604,0.643567 -0.37392,0.926042 -0.31188,0.423771 -0.40076,0.444183 -0.50821,0.116715 -0.0716,-0.218281 -0.18979,-0.575469 -0.26259,-0.79375 -0.0728,-0.218281 -0.14177,-0.06945 -0.15325,0.330729 -0.0115,0.400183 0.0982,0.727605 0.24369,0.727605 0.14552,0 0.26537,0.208359 0.26633,0.46302 10e-4,0.331041 0.15158,0.23677 0.52742,-0.330729 l 0.52568,-0.79375 0.002,0.888203 c 0.001,0.707727 0.0884,0.854961 0.42808,0.724604 0.27753,-0.106499 0.38255,-0.04712 0.30089,0.17013 -0.45597,1.213075 -0.41075,1.530896 0.088,0.618492 0.4765,-0.871695 0.60692,-0.967711 0.81336,-0.598819 0.15831,0.282889 0.13893,0.639138 -0.0544,1.000415 -0.21716,0.405766 -0.22026,0.641102 -0.0112,0.850172 0.20907,0.209071 0.28909,0.17594 0.28909,-0.11969 0,-0.506498 0.89937,-1.355324 1.15994,-1.094753 0.10502,0.105023 0.11265,-0.0131 0.0169,-0.262486 -0.0957,-0.24939 -0.30082,-0.375058 -0.45582,-0.279261 -0.17845,0.110283 -0.21792,0.0076 -0.1076,-0.279845 0.0958,-0.249711 0.0738,-0.391975 -0.0489,-0.316142 -0.1227,0.07583 -0.49928,-0.156107 -0.83684,-0.515424 -0.33756,-0.359317 -0.51071,-0.653304 -0.38477,-0.653304 0.12594,0 0.0472,-0.148828 -0.17508,-0.330729 -0.22223,-0.181901 -0.54845,-0.840182 -0.72493,-1.462846 -0.17649,-0.622663 -0.43413,-1.062121 -0.57255,-0.976572 -0.13843,0.08555 -0.25168,0.02243 -0.25168,-0.14027 0,-0.162697 -0.10796,-0.229091 -0.23991,-0.147541 -0.13195,0.08155 -0.19016,-0.119784 -0.12936,-0.447406 0.0608,-0.327623 0.0353,-0.433378 -0.0567,-0.235011 -0.1412,0.304502 -0.20283,0.304502 -0.39575,0 -0.18122,-0.286033 -0.22935,-0.288997 -0.23256,-0.01432 -0.002,0.190489 -0.12311,0.27276 -0.26863,0.182823 -0.14552,-0.08994 -0.26459,-0.03041 -0.26459,0.132291 0,0.162698 -0.11906,0.222229 -0.26458,0.132292 -0.14552,-0.08994 -0.26458,-0.03041 -0.26458,0.132292 0,0.162697 -0.10969,0.22802 -0.24376,0.145161 -0.13407,-0.08286 -0.69503,0.594725 -1.24657,1.50574 -0.55155,0.911015 -1.21576,1.8872 -1.47604,2.169302 -0.26027,0.282101 -0.47322,0.629366 -0.47322,0.771701 0,0.142335 -0.0675,0.191254 -0.15008,0.10871 -0.34392,-0.343925 2.99737,-5.933198 4.86625,-8.140198 l 0.78417,-0.926041 0.4064,1.322916 c 0.22352,0.727604 0.41839,1.144323 0.43305,0.926042 0.0147,-0.218281 0.48082,0.79375 1.03593,2.248958 1.1208,2.938154 1.76501,4.286819 3.13912,6.571791 0.82892,1.378402 0.972,1.501645 1.32891,1.144728 0.35692,-0.356916 0.33961,-0.508979 -0.16074,-1.412415 -2.38909,-4.31383 -4.13255,-8.627 -4.81402,-11.909624 l -0.31826,-1.533082 -1.20187,1.320339 c -1.5934,1.750457 -4.04646,5.502576 -5.27981,8.07581 -0.54727,1.141817 -1.10187,2.08324 -1.23244,2.092051 -0.31677,0.02138 0.0141,-5.047805 0.52318,-8.01652 0.36524,-2.129725 1.62666,-6.494124 1.69313,-5.858085 0.0152,0.145521 0.24337,-0.140337 0.50702,-0.63524 l 0.47937,-0.899823 0.19485,0.767532 0.19484,0.767531 0.51164,-0.992188 c 0.2814,-0.545703 0.57535,-0.992187 0.65323,-0.992187 0.0779,0 0.068,0.119062 -0.0219,0.264583 -0.0899,0.145521 -0.08,0.399731 0.0221,0.564912 0.12033,0.194697 0.31544,0.07837 0.55474,-0.330729 0.35605,-0.608689 0.36352,-0.598233 0.21082,0.294984 -0.10655,0.62331 -0.0762,0.806842 0.0927,0.561415 0.13808,-0.200544 0.38343,-0.282814 0.54522,-0.182822 0.16179,0.09999 0.29417,0.07847 0.29417,-0.04783 0,-0.126296 0.18831,-0.460744 0.41847,-0.743219 0.35732,-0.438528 0.3972,-0.445919 0.27289,-0.05057 -0.19027,0.605128 0.58734,0.624629 1.02528,0.02571 0.27277,-0.373035 0.31246,-0.314461 0.27004,0.398536 -0.0567,0.95344 -0.0199,0.935262 0.85334,-0.421798 0.35203,-0.547051 0.5579,-0.756513 0.4575,-0.465472 -0.44471,1.28906 -0.47295,1.600438 -0.11481,1.265978 0.27224,-0.254231 0.42231,-0.226544 0.71708,0.132292 0.20503,0.249597 0.30966,0.324829 0.23251,0.167182 -0.0771,-0.157648 0.0267,-0.286632 0.23067,-0.286632 0.29109,0 0.30933,0.118668 0.0847,0.551215 -0.26092,0.502521 -0.22608,0.49595 0.39432,-0.07439 l 0.68052,-0.625605 -0.15464,0.625605 -0.15465,0.625604 0.6867,-0.628321 c 0.66124,-0.605021 0.68518,-0.608153 0.64574,-0.08447 -0.0225,0.299115 -0.13395,0.486378 -0.2476,0.416141 -0.11364,-0.07024 -0.13324,0.06353 -0.0436,0.297266 0.14152,0.368789 0.2468,0.346313 0.79641,-0.170016 0.34834,-0.327242 0.81965,-0.622332 1.04738,-0.655754 0.35012,-0.05139 0.34132,0.01959 -0.057,0.459727 -0.45376,0.501397 -0.45217,0.513717 0.0433,0.335746 0.28288,-0.101613 0.68601,-0.315096 0.89585,-0.474407 0.30296,-0.230015 0.33503,-0.207938 0.15577,0.107218 -0.13154,0.231259 0.0405,0.170814 0.41223,-0.144847 1.48732,-1.262917 1.70766,-1.353986 1.02452,-0.42343 -0.35812,0.487812 -0.93876,1.321249 -1.29032,1.852083 -0.66748,1.007871 -0.48678,0.94954 0.95034,-0.306783 0.31665,-0.276813 0.70604,-0.422758 0.86531,-0.324322 0.15927,0.09844 0.65929,-0.132109 1.11114,-0.512321 0.45186,-0.380212 0.89491,-0.61794 0.98457,-0.528284 0.0897,0.08965 -0.0284,0.270111 -0.26228,0.401012 -0.7535,0.421683 -3.32791,3.775213 -4.16232,5.422017 -0.82284,1.623963 -1.6376,4.28902 -1.61112,5.269944 0.008,0.296848 0.24575,-0.353245 0.5283,-1.444652 1.09493,-4.229375 3.82641,-8.160331 7.17567,-10.326741 2.10663,-1.362638 4.85916,-2.206286 6.70022,-2.053611 0.80093,0.06642 1.45624,0.0848 1.45624,0.04086 0,-0.04395 -0.5596,-0.243078 -1.24355,-0.442509 l -1.24355,-0.362603 1.1774,-0.198771 c 1.02941,-0.173787 1.10289,-0.227801 0.58457,-0.429713 -0.32606,-0.127018 -1.18927,-0.31006 -1.91823,-0.406761 -0.72897,-0.0967 -1.32539,-0.264069 -1.32539,-0.37193 0,-0.107862 0.53919,-0.347077 1.19821,-0.531591 0.65902,-0.184513 1.1328,-0.400891 1.05285,-0.48084 -0.0799,-0.07995 -1.0061,-0.213986 -2.05811,-0.297861 l -1.91274,-0.152498 0.77624,-0.426113 c 0.75832,-0.416273 0.76265,-0.430428 0.18728,-0.613042 -0.32393,-0.102812 -1.07526,-0.104771 -1.66962,-0.0044 -1.25133,0.21141 -1.20479,-0.116242 0.13965,-0.98318 0.45707,-0.294729 0.61293,-0.463673 0.34637,-0.37543 -0.26656,0.08824 -0.82837,0.160443 -1.24847,0.160443 -0.55284,0 -0.72379,0.104274 -0.61893,0.377531 0.10737,0.279793 -0.17125,0.424937 -1.0762,0.560642 -0.67158,0.100711 -1.48465,0.417037 -1.80682,0.702948 -0.5228,0.463968 -0.53047,0.502016 -0.0714,0.354014 0.50553,-0.162987 0.50575,-0.15634 0.0127,0.388514 -0.50055,0.553098 -0.50003,0.553716 0.2305,0.27597 1.0548,-0.401037 1.12394,-0.352239 0.47683,0.336572 -0.31774,0.338218 -0.48732,0.714494 -0.37685,0.836169 0.11047,0.121676 0.0679,0.145416 -0.0945,0.05276 -0.16245,-0.09266 -0.50833,0.06685 -0.76861,0.354455 -0.55599,0.614358 -0.37342,0.661796 0.6141,0.159572 0.39295,-0.199846 1.01212,-0.45276 1.37592,-0.562031 l 0.66146,-0.198675 -0.59105,0.640697 -0.59106,0.640697 0.89053,-0.103965 c 1.21795,-0.142188 1.42332,0.358022 0.36638,0.892356 -0.4777,0.2415 -1.13644,0.684044 -1.46386,0.98343 -0.61914,0.566121 -0.84467,0.292484 -0.26459,-0.32102 0.18191,-0.192381 -0.34744,0.02193 -1.17632,0.47625 -1.8189,0.99696 -2.087,1.033092 -1.27831,0.172279 0.60939,-0.64866 0.60974,-0.652901 0.0451,-0.544167 -0.31297,0.06027 -0.68766,0.182896 -0.83263,0.272495 -0.14498,0.0896 -0.26359,0.04384 -0.26359,-0.101677 0,-0.145521 0.11906,-0.338168 0.26458,-0.428105 0.44673,-0.276091 0.29393,-0.884836 -0.19843,-0.790582 -0.25467,0.04875 -0.54261,0.09775 -0.63988,0.10888 -0.0973,0.01113 -0.43828,0.443225 -0.75779,0.960202 -0.31951,0.516978 -0.64384,0.877042 -0.72074,0.800144 -0.0769,-0.0769 0.0108,-0.321285 0.19487,-0.543083 0.18408,-0.221798 0.23081,-0.405092 0.10385,-0.407321 -0.12696,-0.0022 -0.0915,-0.09265 0.0787,-0.200941 0.17023,-0.10829 0.34883,-0.363643 0.39687,-0.567452 0.0481,-0.203808 0.55481,-0.820073 1.12612,-1.369476 0.89583,-0.861466 0.99046,-1.057125 0.68767,-1.421964 -0.3097,-0.373157 -0.47111,-0.242553 -1.36865,1.107396 -0.55965,0.841746 -1.01793,1.416987 -1.01839,1.278313 -4.7e-4,-0.138674 -0.47491,0.210778 -1.05432,0.776558 -1.35496,1.323084 -1.62494,1.071957 -0.41041,-0.381746 1.07383,-1.285292 1.25474,-1.990769 0.2743,-1.0697 -0.36322,0.341236 -0.73922,0.541617 -0.83555,0.445292 -0.0963,-0.09633 -0.36448,-0.02734 -0.59591,0.153297 -0.23143,0.180638 -0.0748,-0.147817 0.34801,-0.7299 l 0.76878,-1.058334 -1.09995,1.045885 c -1.71172,1.627566 -1.29322,0.602579 0.47656,-1.167198 1.46996,-1.469956 3.26519,-2.656812 4.01869,-2.656812 0.17854,0 -0.0251,0.371624 -0.45248,0.82583 l -0.77711,0.825829 0.81302,-0.411508 c 0.86386,-0.43724 1.63634,-1.217053 1.46534,-1.479253 -0.0566,-0.08677 0.19604,-0.305786 0.56141,-0.486692 0.36537,-0.180905 0.82839,-0.528076 1.02894,-0.771491 0.33078,-0.401487 0.29094,-0.424675 -0.42912,-0.249782 -0.43657,0.106034 -1.4486,0.489854 -2.24896,0.852931 l -1.45521,0.660141 0.9118,-0.941336 c 0.50149,-0.517734 0.79914,-0.939661 0.66146,-0.937614 -0.13769,0.002 -1.12735,0.481767 -2.19926,1.066044 l -1.94891,1.062322 0.55093,-0.933752 c 0.30301,-0.513564 0.50222,-0.933752 0.44268,-0.933752 -0.24497,0 -2.16516,1.185335 -2.71714,1.677296 -0.74793,0.666612 -1.04708,0.400518 -0.62022,-0.551699 0.26835,-0.598624 0.0885,-0.495697 -1.00752,0.576529 -1.02485,1.002619 -1.26715,1.386028 -1.04504,1.653645 0.15902,0.191618 0.19519,0.348396 0.0804,0.348396 -0.11484,0 -0.13974,0.06904 -0.0554,0.153432 0.0844,0.08439 0.49118,-0.0584 0.90399,-0.317307 l 0.75056,-0.47074 -0.55595,0.648036 c -1.1027,1.285349 -0.97736,1.400302 0.19394,0.177866 1.23334,-1.287188 1.72902,-1.534993 1.72902,-0.864384 0,0.21188 -0.11761,0.312546 -0.26136,0.223703 -0.15008,-0.09275 -0.1775,-0.02582 -0.0644,0.157185 0.12024,0.194551 -0.27615,0.824528 -1.01746,1.617046 -0.99779,1.066721 -1.21515,1.477342 -1.21848,2.301849 -0.003,0.713301 -0.0744,0.892398 -0.24713,0.61928 -0.13369,-0.211333 -0.18495,-0.478281 -0.11392,-0.593217 0.071,-0.114936 0.007,-0.418277 -0.1417,-0.674091 -0.22972,-0.394475 -0.27525,-0.344562 -0.29979,0.328634 -0.0159,0.436562 -0.0885,0.615156 -0.1613,0.396875 -0.0728,-0.218282 -0.18887,-0.572132 -0.25793,-0.786335 -0.11055,-0.342892 -0.15501,-0.342892 -0.37186,0 -0.33634,0.531834 -0.32049,0.08127 0.0195,-0.553976 0.15064,-0.281475 0.17772,-0.511773 0.0602,-0.511773 -0.11755,0 -0.44,0.420169 -0.71656,0.933708 -0.3011,0.5591 -0.57584,0.81558 -0.68481,0.639275 -0.11883,-0.192273 -0.2428,-0.135891 -0.35731,0.162494 -0.0964,0.251311 -0.24007,0.392195 -0.31919,0.313076 -0.13872,-0.138726 0.87977,-2.229994 1.54179,-3.16575 0.24043,-0.339847 0.24609,-0.53207 0.0222,-0.75591 -0.22384,-0.223841 -0.57467,0.194818 -1.37962,1.646363 -0.6341,1.143458 -1.08409,1.728219 -1.09069,1.417369 -0.016,-0.754255 -1.76162,3.267442 -2.36804,5.455782 -1.23934,4.472313 -1.69712,11.711127 -0.86806,13.726511 0.97698,2.374945 1.21239,2.910416 1.27952,2.910416 0.0415,0 0.0213,-0.446484 -0.045,-0.992187 z m -0.89646,-2.050521 c 0,-0.145521 0.11541,-0.443177 0.25648,-0.661458 0.14106,-0.218282 0.25648,-0.277813 0.25648,-0.132292 0,0.145521 -0.11542,0.443177 -0.25648,0.661458 -0.14107,0.218282 -0.25648,0.277813 -0.25648,0.132292 z m 3.33083,-3.307292 c 0.19275,-1.093321 0.67797,-2.104484 0.81402,-1.69634 0.0525,0.157644 -0.14584,0.81217 -0.44087,1.454504 -0.5251,1.143257 -0.53297,1.148355 -0.37315,0.241836 z m -0.42852,-0.645843 c 0,-0.209693 0.10796,-0.447983 0.23991,-0.529532 0.13195,-0.08155 0.1776,0.09002 0.10143,0.38126 -0.16155,0.617799 -0.34134,0.695893 -0.34134,0.148272 z m 14.55208,-12.031025 c 0,-0.379183 2.60218,-2.302591 3.78223,-2.795647 1.20967,-0.505434 1.26196,-0.361221 0.12038,0.331989 -0.47294,0.287188 -1.54451,1.019877 -2.38125,1.628196 -0.83675,0.60832 -1.52136,0.984278 -1.52136,0.835462 z m -5.27934,-0.917944 c -0.0132,-0.534044 1.02637,-2.388024 1.22671,-2.187689 0.0662,0.06618 -0.17998,0.697524 -0.54703,1.402979 -0.39462,0.758441 -0.6724,1.079145 -0.67968,0.78471 z m 7.79289,-0.312036 c 0.96391,-0.819772 2.58612,-1.589891 3.83645,-1.821308 0.70719,-0.130888 0.56129,-0.01703 -0.61733,0.481753 -0.84886,0.359231 -2.00716,0.960067 -2.57401,1.335192 -1.32015,0.873633 -1.67001,0.875999 -0.64511,0.0044 z m -5.42396,-1.009714 c 0,-0.05494 0.20836,-0.263301 0.46302,-0.463021 0.41964,-0.329107 0.429,-0.319749 0.0999,0.0999 -0.34564,0.440729 -0.56292,0.580887 -0.56292,0.363126 z m -5.95052,-1.531496 c 0.0393,-0.661453 0.36603,-1.146222 1.43443,-2.128621 0.76091,-0.699658 1.48964,-1.206494 1.61939,-1.126301 0.12976,0.08019 0.54065,-0.05387 0.91311,-0.297906 1.24768,-0.817515 0.81411,-0.256222 -1.61042,2.084802 -2.37433,2.292553 -2.40676,2.312754 -2.35651,1.468026 z m 2.80927,-2.80038 c 0.3291,-0.419644 0.31975,-0.429002 -0.0999,-0.09989 -0.44073,0.345644 -0.58089,0.562916 -0.36313,0.562916 0.0549,0 0.2633,-0.20836 0.46302,-0.463021 z m 11.8725,2.714116 c 0.3638,-0.209143 1.13771,-0.380859 1.71979,-0.381591 1.39568,-0.0018 0.71362,0.385582 -1.05833,0.601013 -1.24569,0.151449 -1.28431,0.13864 -0.66146,-0.219422 z m -1.5875,-0.146699 c 0,-0.254814 1.74725,-0.86052 2.12198,-0.73561 0.14591,0.04864 -0.27185,0.281581 -0.92835,0.517657 -0.6565,0.236076 -1.19363,0.334155 -1.19363,0.217953 z m -2.4907,-1.083018 c 0.26379,-0.42683 2.26885,-1.274102 3.01986,-1.276099 0.52333,-0.0014 0.57858,0.0518 0.26459,0.254721 -0.33024,0.213413 -0.30802,0.26054 0.13229,0.280661 0.36171,0.01653 0.23611,0.137035 -0.39688,0.380797 -1.14456,0.440771 -1.67263,0.484098 -1.44681,0.118709 0.0945,-0.152991 -0.26002,-0.09769 -0.78794,0.122887 -0.52792,0.220579 -0.88122,0.273824 -0.78511,0.118324 z M 73.58923,93.083342 c 1.22825,-0.513197 1.17321,-0.703842 -0.0746,-0.25852 -1.34772,0.480963 -1.65365,0.461027 -1.65365,-0.107759 0,-1.1996 3.15429,-3.389304 5.29617,-3.67659 1.23849,-0.166116 1.37866,0.201952 0.45852,1.203953 l -0.59531,0.648274 0.60842,-0.316818 c 1.13156,-0.589225 1.25677,-1.384129 0.51092,-3.243826 l -0.66998,-1.670549 -1.4153,0.0019 c -0.77842,10e-4 -1.71297,0.08923 -2.07677,0.195995 -0.3638,0.106765 -0.49916,0.121274 -0.30079,0.03224 0.3045,-0.136668 0.3045,-0.199344 0,-0.402469 -0.23535,-0.156994 -0.0849,-0.184397 0.43308,-0.07886 0.61508,0.125325 0.70442,0.09651 0.39688,-0.128009 -0.30152,-0.220126 -0.11082,-0.258061 0.79375,-0.15789 0.8948,0.09909 1.02628,0.07371 0.52916,-0.102163 -0.63713,-0.225407 -0.62983,-0.234982 0.19844,-0.260386 0.98481,-0.0302 1.02835,-0.184327 0.4153,-1.469923 -0.52066,-1.091829 -1.037,-1.311389 -2.50196,-1.063886 -0.89291,0.150855 -1.13426,0.329771 -1.44361,1.070162 -0.35895,0.859087 -1.2063,1.573445 -1.50823,1.271515 -0.36018,-0.360175 -1.17921,0.21612 -1.17921,0.829725 0,0.410207 0.10961,0.583661 0.29766,0.471044 0.16371,-0.09804 0.13425,0.02319 -0.0655,0.269409 -0.22539,0.27786 -0.25363,0.447664 -0.0745,0.447664 0.16165,0 0.21362,0.195601 0.1181,0.444508 -0.15786,0.411393 -0.12542,0.41288 0.43556,0.01996 0.33337,-0.233502 0.77592,-0.359392 0.98344,-0.279757 0.22885,0.08782 0.34704,0.0019 0.30036,-0.218397 -0.0478,-0.225558 0.10856,-0.331417 0.4126,-0.279347 0.2908,0.0498 0.4195,-0.02954 0.31699,-0.195407 -0.10597,-0.171465 -0.01,-0.216665 0.24996,-0.117104 0.35551,0.136422 0.32621,0.226323 -0.1847,0.566712 -0.33398,0.222513 -0.93132,0.703045 -1.32743,1.067849 -0.67091,0.617896 -0.68901,0.688878 -0.26458,1.037378 0.25059,0.205753 0.30814,0.299552 0.12791,0.208442 -0.21539,-0.108879 -0.27389,-0.02544 -0.17071,0.243443 0.0863,0.225004 0.29333,0.327395 0.45999,0.227537 0.16665,-0.09986 0.1396,0.01989 -0.0601,0.266103 -0.19972,0.246215 -0.27533,0.447664 -0.16801,0.447664 0.10731,0 0.003,0.293467 -0.23219,0.652149 -0.53883,0.822362 -0.53552,0.886915 0.099,1.927538 0.58536,0.960062 1.12426,1.061766 2.52494,0.476522 z m -2.37116,-1.647976 c -0.0981,-0.255522 0.002,-0.592714 0.23533,-0.794695 0.22311,-0.192965 0.28701,-0.207545 0.14201,-0.0324 -0.33999,0.410675 -0.34139,0.821064 -0.002,0.61136 0.14998,-0.09269 0.19434,0.01351 0.10399,0.248968 -0.19955,0.520006 -0.26879,0.515205 -0.47925,-0.03323 z m 32.39287,0.262242 c 0,-0.244438 -0.40979,-0.335605 -1.40536,-0.312653 -0.77294,0.01782 -1.66591,-0.0503 -1.98437,-0.151375 -0.64266,-0.203973 -0.74471,0.106252 -0.30513,0.927613 0.34563,0.645819 1.30681,0.680993 1.3322,0.04875 0.0152,-0.378984 0.0512,-0.39099 0.19844,-0.06615 0.22579,0.498275 0.83857,0.641442 0.84935,0.198438 0.004,-0.181901 0.14043,-0.102657 0.30224,0.176099 0.28597,0.492643 0.30426,0.493079 0.65342,0.01558 0.19756,-0.270189 0.35921,-0.646525 0.35921,-0.836304 z m -0.78565,0.843066 c 0,-0.14552 0.11542,-0.443177 0.25648,-0.661458 0.14107,-0.218281 0.25648,-0.277813 0.25648,-0.132292 0,0.145521 -0.11541,0.443177 -0.25648,0.661459 -0.14106,0.218281 -0.25648,0.277812 -0.25648,0.132291 z m 1.98303,-0.330729 c 0.33729,-0.583574 0.3977,-0.615329 0.30516,-0.160418 -0.079,0.38825 0.006,0.549318 0.27053,0.510547 0.40907,-0.06004 0.86823,-0.635888 0.85933,-1.077733 -0.003,-0.145521 -0.18466,0.03307 -0.40386,0.396875 -0.31019,0.514828 -0.36677,0.541972 -0.25524,0.122447 0.10724,-0.403401 0.0102,-0.549039 -0.38584,-0.578869 -0.3297,-0.02484 -0.53614,0.12846 -0.54772,0.40672 -0.0153,0.367177 -0.0544,0.355012 -0.22014,-0.06842 -0.18818,-0.480885 -0.21239,-0.473462 -0.36551,0.112062 -0.15043,0.575224 -0.0518,1.064394 0.21453,1.064394 0.0595,0 0.29747,-0.327422 0.52876,-0.727605 z m 2.40881,-0.407633 0.0419,-0.834193 -0.3806,0.726406 c -0.20933,0.399523 -0.30387,0.850566 -0.21008,1.002318 0.26137,0.422911 0.50222,0.03029 0.54873,-0.894531 z m -10.22077,0.417164 c 0,-0.07276 -0.20836,-0.05973 -0.46303,0.02896 -0.41377,0.144098 -0.41843,0.126002 -0.0439,-0.17013 0.38249,-0.302387 0.38249,-0.389772 0,-0.998834 -0.23053,-0.3671 -0.59774,-0.664756 -0.81603,-0.661458 -0.50021,0.0076 -0.6833,1.156905 -0.24816,1.557867 0.20721,0.190942 0.26775,0.195886 0.16633,0.01358 -0.0877,-0.157648 0.009,-0.286632 0.21413,-0.286632 0.20547,0 0.31227,0.09922 0.23733,0.220486 -0.22286,0.360588 0.1464,0.738088 0.56489,0.577498 0.21362,-0.08197 0.3884,-0.208574 0.3884,-0.281335 z m 11.79685,-0.360511 c 0.19538,-0.352664 0.35446,-0.76027 0.35351,-0.905791 -9.4e-4,-0.145521 -0.24215,0.152136 -0.53602,0.661459 -0.50807,0.880555 -0.52303,0.825954 -0.10875,-0.396875 0.17675,-0.521736 0.17339,-0.521955 -0.2392,-0.01558 -0.30599,0.375533 -0.42064,0.411094 -0.42652,0.132291 -0.006,-0.293758 -0.067,-0.280216 -0.26501,0.05898 -0.33311,0.570762 -0.07,1.244207 0.45591,1.167017 0.22597,-0.03317 0.57071,-0.348844 0.76608,-0.701508 z m 1.91901,-0.389073 c 0.39506,-0.867065 0.39242,-0.880491 -0.15597,-0.792348 -0.30301,0.0487 -0.4403,0.274511 -0.39727,0.653417 0.0432,0.380378 -0.0389,0.514318 -0.23932,0.390453 -0.18887,-0.116728 -0.23316,-0.07219 -0.11628,0.116922 0.29497,0.477263 0.57529,0.36362 0.90884,-0.368444 z M 87.64656,91.01932 c -0.0734,-0.181901 -0.13345,-0.03307 -0.13345,0.330729 0,0.363802 0.0601,0.512631 0.13345,0.330729 0.0734,-0.181901 0.0734,-0.479557 0,-0.661458 z m 23.88061,-0.198437 c 0.29704,-0.623694 0.29153,-0.632136 -0.0965,-0.147868 -0.2263,0.282475 -0.41147,0.62974 -0.41147,0.771701 0,0.336165 0.12221,0.186065 0.50793,-0.623833 z m -7.36849,-0.190407 c 0.0156,-0.395928 0.0473,-0.405437 0.19844,-0.05962 0.12107,0.276979 0.52229,0.406416 1.22778,0.396091 l 1.04794,-0.01534 0.58868,-1.719008 c 0.32377,-0.945455 0.59634,-1.519379 0.60571,-1.275388 0.009,0.243992 0.22538,0.498071 0.48004,0.564621 0.34843,0.09105 0.3157,0.128595 -0.13229,0.151692 -0.37734,0.01945 -0.59663,0.200227 -0.59892,0.493713 -0.002,0.254661 -0.0731,0.722075 -0.15802,1.038697 -0.1171,0.436587 -0.0472,0.559941 0.28935,0.510547 0.24407,-0.03582 0.55148,-0.235344 0.68313,-0.443385 0.20466,-0.323394 0.24133,-0.320693 0.25281,0.01862 0.008,0.245652 0.16528,0.144837 0.41196,-0.264583 l 0.39854,-0.661459 -0.1762,0.661459 c -0.24067,0.90347 0.0492,0.580215 0.54609,-0.608903 0.23751,-0.568447 0.2965,-0.978597 0.14075,-0.978597 -0.14748,0 -0.28195,0.208359 -0.29883,0.46302 -0.029,0.437475 -0.0374,0.437296 -0.15231,-0.0032 -0.0669,-0.256443 -0.26144,-0.396442 -0.43233,-0.311108 -0.17089,0.08533 -0.0848,-0.02846 0.19129,-0.252869 0.2761,-0.224411 0.59829,-0.348509 0.71598,-0.275773 0.34448,0.212897 1.0061,-1.007626 1.08791,-2.006927 0.0414,-0.506218 0.14635,-0.979928 0.23311,-1.052688 0.0868,-0.07276 0.23332,-0.697839 0.32567,-1.389062 0.15596,-1.167295 0.12589,-1.259337 -0.42233,-1.292803 l -0.59025,-0.03603 0.59531,-0.114663 c 0.38673,-0.07449 0.60606,-0.316793 0.626,-0.691572 0.0238,-0.447545 0.0578,-0.473084 0.1517,-0.11389 0.0666,0.254662 0.26109,0.464844 0.43232,0.467072 0.22817,0.003 0.22476,0.05905 -0.0127,0.209935 -0.45998,0.292234 -1.30403,5.606847 -0.89045,5.606847 0.10248,0 0.3203,-0.327421 0.48405,-0.727604 l 0.29772,-0.727604 -0.1384,0.709122 c -0.12031,0.616468 -0.0661,0.690219 0.41481,0.564454 0.30427,-0.07957 0.55321,-0.316402 0.55321,-0.526299 0,-0.211666 0.13047,-0.301003 0.29293,-0.200592 0.19956,0.12333 0.23269,-0.0088 0.10395,-0.414393 -0.12874,-0.405626 -0.0956,-0.537724 0.10395,-0.414394 0.32397,0.200225 0.37878,-0.112343 0.13233,-0.754592 -0.0883,-0.230183 -0.35622,-0.423175 -0.59532,-0.428871 -0.23909,-0.0057 -0.0478,-0.178542 0.42519,-0.384102 0.65535,-0.284846 0.86932,-0.549855 0.89953,-1.114123 l 0.0396,-0.740377 0.1099,0.724184 0.10989,0.724185 1.10723,-0.55827 c 0.60898,-0.307048 1.13687,-0.583184 1.17308,-0.613637 0.0362,-0.03045 0.17105,-0.618498 0.29963,-1.306767 0.1692,-0.905662 0.15101,-1.220657 -0.0658,-1.140127 -0.1648,0.0612 -0.74611,0.27108 -1.29182,0.4664 -0.77425,0.277123 -1.0001,0.503272 -1.02821,1.02958 -0.0341,0.638309 -0.0423,0.641934 -0.15221,0.06763 -0.0904,-0.472366 -0.24366,-0.574378 -0.69157,-0.460396 -0.31647,0.08053 -0.15868,-0.04488 0.35064,-0.27869 3.19602,-1.467191 3.17249,-1.449196 3.21734,-2.46117 l 0.0423,-0.955421 0.10672,0.859896 c 0.11824,0.952822 0.24367,1.014582 0.95934,0.472382 0.39745,-0.301116 0.45516,-0.572643 0.30747,-1.446794 -0.19063,-1.128291 -0.3579,-1.27684 -0.86583,-0.768908 -0.16896,0.16896 -0.87738,0.503528 -1.57427,0.743485 -1.24357,0.428193 -1.26998,0.460528 -1.42394,1.743321 l -0.15687,1.307035 -0.0416,-1.155338 c -0.0383,-1.064527 -0.0884,-1.142014 -0.63688,-0.985818 -0.32742,0.09324 -0.92274,0.241067 -1.32292,0.328515 -0.61953,0.135378 -0.73389,0.30146 -0.76995,1.11811 l -0.0423,0.959114 -0.10677,-0.860714 c -0.0959,-0.773359 -0.17891,-0.847044 -0.81755,-0.726021 l -0.71078,0.134692 0.73655,-0.291195 c 0.71394,-0.28226 0.73512,-0.347469 0.69026,-2.12501 -0.0254,-1.008598 0.0301,-1.910147 0.12335,-2.003443 0.0933,-0.0933 0.16963,0.683653 0.16963,1.726552 0,2.069063 0.005,2.074348 1.62295,1.589717 0.75168,-0.225209 1.02781,-0.453199 1.04148,-0.859896 0.0161,-0.478845 0.0433,-0.491003 0.20197,-0.09021 0.16733,0.422695 0.32796,0.392677 1.83616,-0.343125 1.54261,-0.75259 1.63221,-0.844809 1.34398,-1.38336 -0.30127,-0.562923 -0.3138,-0.564235 -0.51324,-0.05375 -0.16799,0.429971 -0.20776,0.379386 -0.22304,-0.283714 -0.0322,-1.394951 -0.38468,-1.454195 -2.69908,-0.453582 -1.16498,0.503666 -2.16777,0.866125 -2.22843,0.805463 -0.0607,-0.06066 0.74284,-0.4642 1.78556,-0.896752 1.04272,-0.432552 1.93947,-0.91733 1.99279,-1.077285 0.0533,-0.159955 -0.46561,-0.482508 -1.15317,-0.716784 -1.50798,-0.513821 -3.26376,-0.564589 -3.2934,-0.09523 -0.0153,0.242276 -0.055,0.246965 -0.1485,0.01753 -0.0972,-0.238656 -0.39138,-0.231404 -1.23588,0.03047 -1.53347,0.475515 -2.56348,0.984541 -2.56348,1.266854 0,0.130751 -0.10419,0.173337 -0.23153,0.09464 -0.26176,-0.161777 -2.01185,1.05315 -2.80767,1.949109 -0.51832,0.583538 -0.51853,0.597004 -0.0156,0.964776 0.28054,0.205138 0.36826,0.372978 0.19493,0.372978 -0.17334,0 -0.33421,0.386954 -0.3575,0.859896 l -0.0423,0.859896 -0.10671,-0.859896 c -0.15249,-1.228804 -0.93076,-1.132458 -1.92361,0.238135 -1.06705,1.473021 -1.04901,2.065278 0.0645,2.116613 0.80035,0.0369 0.80951,0.04728 0.13229,0.149866 -0.65175,0.09873 -0.7276,0.218718 -0.7276,1.150982 v 1.040759 h 1.32291 1.32292 v -1.190625 c 0,-1.047658 -0.0715,-1.194952 -0.59531,-1.226657 l -0.59531,-0.03603 0.59531,-0.114663 c 0.32742,-0.06306 0.59531,-0.304818 0.59531,-0.537232 0,-0.232414 0.0689,-0.353699 0.15305,-0.269523 0.14314,0.143143 0.17419,1.345585 0.12985,5.028377 -0.0101,0.836744 -0.10761,1.521516 -0.21675,1.521714 -0.10914,1.99e-4 -0.15766,-0.654645 -0.10781,-1.455208 l 0.0906,-1.455569 h -1.2151 -1.21512 v 1.322917 c 0,1.180448 0.0617,1.322916 0.57327,1.322916 0.72378,0 0.55444,0.183574 -0.28124,0.304859 -0.6006,0.08717 -0.63545,0.01535 -0.66145,-1.363192 -0.0272,-1.441902 -0.0353,-1.455967 -0.88752,-1.53813 -0.72177,-0.06959 -0.90258,0.0289 -1.12448,0.612536 -0.45524,1.197385 -0.33223,1.673921 0.4632,1.794418 0.70187,0.106325 0.69828,0.111625 -0.10144,0.149866 -0.61809,0.02956 -0.86963,0.191118 -0.98857,0.634956 -0.34762,1.297127 -0.2021,1.712724 0.66006,1.885156 1.45598,0.291196 1.81645,0.207649 1.85504,-0.429948 l 0.036,-0.595312 0.11466,0.595312 c 0.10689,0.554932 0.26148,0.59833 2.27907,0.63979 1.19043,0.02446 1.71793,0.09118 1.17223,0.148263 -0.6975,0.07296 -1.00131,0.236565 -1.02288,0.550836 -0.0276,0.401607 -0.043,0.399896 -0.15186,-0.01683 -0.0988,-0.378128 -0.39878,-0.458394 -1.62295,-0.434203 -0.82599,0.01632 -1.94828,-0.05607 -2.49398,-0.160879 l -0.99219,-0.190556 v 1.071016 c 0,1.198071 -0.0823,1.164673 3.24115,1.315941 1.30267,0.05929 1.52403,0.0015 1.53995,-0.401805 z m 0.55235,-2.72001 c 0,-0.363802 0.06,-0.51263 0.13345,-0.330729 0.0734,0.181901 0.0734,0.479557 0,0.661458 -0.0734,0.181901 -0.13345,0.03307 -0.13345,-0.330729 z m 3.29201,-1.713258 c 0.0752,-0.724011 0.18937,-1.368932 0.2536,-1.43316 0.20023,-0.200233 0.0757,1.392498 -0.16319,2.088084 -0.15977,0.465094 -0.18661,0.27067 -0.0904,-0.654924 z m -1.28327,-0.314054 c 0.1819,-0.0734 0.47956,-0.0734 0.66146,0 0.1819,0.0734 0.0331,0.133452 -0.33073,0.133452 -0.3638,0 -0.51263,-0.06005 -0.33073,-0.133452 z m 2.13321,-0.270096 c 0.19099,-0.07643 0.41919,-0.06703 0.50711,0.02089 0.0879,0.08792 -0.0684,0.150452 -0.34726,0.138964 -0.30823,-0.0127 -0.37092,-0.07539 -0.15985,-0.159854 z m 1.32291,-0.264583 c 0.191,-0.07643 0.4192,-0.06703 0.50712,0.02089 0.0879,0.08792 -0.0684,0.150453 -0.34727,0.138965 -0.30822,-0.0127 -0.37092,-0.07539 -0.15985,-0.159853 z m -1.82104,-1.717051 c -0.0742,-0.534463 -0.0493,-1.189306 0.0555,-1.455208 0.17462,-0.443224 0.19202,-0.444925 0.20907,-0.02044 0.0102,0.254662 0.16742,0.464844 0.34932,0.467072 0.24317,0.003 0.24949,0.05575 0.0239,0.199298 -0.16877,0.107385 -0.35093,0.552046 -0.40481,0.988136 -0.0954,0.772379 -0.10145,0.767752 -0.23294,-0.17886 z m -1.76233,-0.666812 c 0.25743,-0.06708 0.61461,-0.06267 0.79375,0.0098 0.17913,0.07247 -0.0315,0.127362 -0.46806,0.121969 -0.43656,-0.0054 -0.58313,-0.06469 -0.32569,-0.131773 z m 3.03767,-0.521041 c 0.1819,-0.0734 0.47956,-0.0734 0.66146,0 0.1819,0.0734 0.0331,0.133452 -0.33073,0.133452 -0.3638,0 -0.51263,-0.06005 -0.33073,-0.133452 z m -3.43958,-2.116667 c 0.1819,-0.0734 0.47955,-0.0734 0.66145,0 0.1819,0.0734 0.0331,0.133452 -0.33073,0.133452 -0.3638,0 -0.51263,-0.06005 -0.33072,-0.133452 z m 1.78593,-0.353938 c 0.29104,-0.125065 0.76729,-0.227391 1.05834,-0.227391 h 0.52916 l -0.52916,0.227391 c -0.29105,0.125064 -0.7673,0.22739 -1.05834,0.22739 h -0.52916 z m 1.93477,-0.445324 c 0.19099,-0.07643 0.4192,-0.06703 0.50712,0.02089 0.0879,0.08792 -0.0684,0.150453 -0.34727,0.138964 -0.30822,-0.0127 -0.37092,-0.07539 -0.15985,-0.159852 z m -1.72454,-2.319081 c -0.25162,-0.286398 -0.23766,-0.394219 0.0661,-0.510799 0.25669,-0.0985 0.38509,0.02589 0.38509,0.373091 0,0.609549 -0.0289,0.618379 -0.45124,0.137708 z m -2.12846,-0.06381 c 0.25467,-0.06655 0.67138,-0.06655 0.92605,0 0.25466,0.06655 0.0463,0.121 -0.46303,0.121 -0.50932,0 -0.71768,-0.05445 -0.46302,-0.121 z m 8.95058,-3.41154 c 0.0127,-0.308224 0.0754,-0.370919 0.15985,-0.159852 0.0764,0.190996 0.067,0.419199 -0.0209,0.507118 -0.0879,0.08792 -0.15045,-0.06835 -0.13896,-0.347266 z M 84.74166,89.712943 c -0.0845,-0.211067 -0.14716,-0.148372 -0.15985,0.159852 -0.0115,0.278915 0.051,0.435185 0.13896,0.347266 0.0879,-0.08792 0.0973,-0.316122 0.0209,-0.507118 z m 27.04751,-0.299978 c 0.26449,-0.500255 0.28613,-0.506506 0.16366,-0.04729 -0.13082,0.490521 -0.11502,0.495652 0.21641,0.07026 0.19665,-0.2524 0.44986,-0.371462 0.56269,-0.264584 0.11283,0.106879 0.11806,-0.08848 0.0116,-0.434121 -0.13175,-0.427882 -0.10099,-0.571266 0.0964,-0.449279 0.1769,0.10933 0.23285,0.03051 0.14355,-0.202211 -0.20041,-0.522245 -1.04179,-0.258469 -1.41309,0.443006 -0.17232,0.325553 -0.24596,0.372694 -0.17078,0.109326 0.24606,-0.862008 -0.28956,-0.469671 -0.55949,0.409812 -0.23008,0.749695 -0.20354,0.877679 0.18818,0.907186 0.25083,0.0189 0.5932,-0.225052 0.76084,-0.542103 z m 2.61857,-1.112625 c -0.0815,-0.08146 -0.22941,0.06538 -0.32877,0.326319 -0.14359,0.377084 -0.11319,0.407475 0.14811,0.148112 0.18082,-0.179475 0.26212,-0.39297 0.18066,-0.474431 z m 12.54811,-0.488575 c 0.0717,-0.636369 0.0352,-2.154416 -0.0812,-3.373438 -0.1164,-1.219022 -0.21914,-3.251032 -0.22829,-4.515578 -0.0165,-2.277518 -0.0291,-2.319885 -1.33906,-4.497917 l -1.32241,-2.198742 -5.1e-4,2.564073 c -5e-4,2.57402 0.42646,3.857531 0.5793,1.741437 0.056,-0.775524 0.20253,-1.13051 0.4666,-1.13051 0.62672,0 0.75153,1.045298 0.77931,6.526799 0.0145,2.862134 0.0986,5.392213 0.18697,5.622396 0.31473,0.820186 0.82819,0.42491 0.95933,-0.73852 z M 84.3261,86.511481 c -0.21607,-0.216076 -0.28879,-0.01644 -0.27346,0.750756 0.0207,1.033499 0.0239,1.036768 0.29435,0.294349 0.19406,-0.532766 0.18799,-0.836223 -0.0209,-1.045105 z m 10.32128,0.955808 c -0.3119,-0.536367 -0.38722,-0.36469 -0.1319,0.300657 0.0907,0.236459 0.22071,0.374189 0.28884,0.306067 0.0681,-0.06812 -0.002,-0.341148 -0.15694,-0.606724 z m 20.86168,-0.482865 c 0,-0.145521 -0.11541,-0.08599 -0.25648,0.132292 -0.14106,0.218281 -0.25648,0.515937 -0.25648,0.661458 0,0.145521 0.11542,0.08599 0.25648,-0.132292 0.14107,-0.218281 0.25648,-0.515937 0.25648,-0.661458 z m -44.40814,0.198438 c 0.32911,-0.419644 0.31975,-0.429003 -0.0999,-0.09989 -0.25466,0.199719 -0.46302,0.408078 -0.46302,0.463021 0,0.217761 0.21727,0.0776 0.56291,-0.363126 z m 43.45406,-1.207713 c -0.10376,-0.545594 -0.0916,-0.542872 0.21585,0.04823 l 0.32582,0.626452 0.34494,-0.891035 c 0.34327,-0.886729 0.34437,-0.887199 0.22819,-0.09728 l -0.11674,0.79375 0.29772,-0.727604 c 0.16375,-0.400182 0.38266,-0.727604 0.48646,-0.727604 0.10381,0 0.1216,-0.256743 0.0395,-0.57054 -0.10222,-0.390909 -0.0528,-0.510946 0.15706,-0.38126 0.16845,0.104104 0.30627,0.06319 0.30627,-0.09092 0,-0.316594 -0.29083,-0.355052 -0.90441,-0.1196 -0.23018,0.08833 -0.42033,0.356221 -0.42256,0.595313 -0.003,0.349984 -0.0491,0.363645 -0.235,0.07009 -0.31709,-0.500611 -0.72124,-0.19044 -0.89887,0.68985 -0.0814,0.40321 -0.22906,0.942819 -0.32822,1.199131 -0.13333,0.344658 -0.0769,0.426338 0.21682,0.313642 0.24011,-0.09214 0.35362,-0.380967 0.28713,-0.730605 z m 0.34483,-0.622322 c -0.097,-0.09701 -0.17277,-0.364905 -0.16835,-0.595313 0.007,-0.344039 0.0582,-0.332609 0.28884,0.06394 0.2849,0.489926 0.2023,0.854166 -0.12049,0.531371 z m -31.51062,0.0252 c -0.0973,-0.38775 -0.23647,-0.645469 -0.30923,-0.572709 -0.0728,0.07276 -0.0527,0.449542 0.0446,0.837293 0.0973,0.38775 0.23647,0.645469 0.30923,0.572709 0.0728,-0.07276 0.0527,-0.449542 -0.0446,-0.837293 z m 0.14569,-1.085736 c -0.3119,-0.536367 -0.38722,-0.36469 -0.1319,0.300656 0.0907,0.236459 0.22071,0.37419 0.28884,0.306068 0.0681,-0.06812 -0.002,-0.341148 -0.15694,-0.606724 z m 1.29387,-0.632938 c 0.13915,-0.76095 0.0888,-1.311363 -0.16427,-1.796426 -0.47258,-0.905735 -0.47339,-1.341277 -10e-4,-0.695648 0.33447,0.457413 0.39308,0.36261 0.66389,-1.073909 0.16336,-0.866586 0.47104,-2.164487 0.68373,-2.884225 0.42524,-1.439031 0.36301,-1.721364 -0.26463,-1.200472 -0.28338,0.235186 -0.36955,0.603836 -0.27165,1.162183 0.112,0.638731 0.0897,0.7019 -0.10193,0.28857 -0.42376,-0.91408 -0.30727,-1.32649 0.51124,-1.809996 0.52529,-0.310296 0.79375,-0.680081 0.79375,-1.093331 0,-0.343448 0.10332,-0.664139 0.22961,-0.712646 0.12629,-0.04851 0.3129,-0.356085 0.4147,-0.683507 0.22074,-0.70994 -0.23083,-0.80581 -0.62312,-0.132291 -0.23669,0.406383 -0.27067,0.410309 -0.27773,0.0321 -0.004,-0.237007 0.32693,-0.56967 0.73633,-0.739251 0.49351,-0.204419 0.99071,-0.794829 1.47532,-1.751891 0.40201,-0.793959 0.89629,-1.443562 1.0984,-1.443562 0.32489,0 0.91524,-0.76022 0.91524,-1.178608 0,-0.08528 -0.48276,0.09122 -1.0728,0.39224 -0.67539,0.344558 -1.05616,0.714101 -1.02787,0.997565 0.0796,0.797506 -0.0102,1.146568 -0.25574,0.99478 -0.13186,-0.08149 -0.17064,-0.412415 -0.0862,-0.735381 0.15272,-0.583993 0.14903,-0.583629 -0.67218,0.06641 -0.45416,0.359491 -0.77964,0.793744 -0.7233,0.965005 0.0564,0.171262 -0.0919,0.468918 -0.32948,0.661459 -0.36705,0.29748 -0.39919,0.290449 -0.21398,-0.0468 0.11988,-0.218281 -0.15008,0.01984 -0.59991,0.529167 -0.44984,0.509323 -0.82272,1.07487 -0.82863,1.256771 -0.006,0.181901 -0.12676,0.330729 -0.26855,0.330729 -0.30852,0 -1.10276,1.46436 -1.0439,1.924662 0.0993,0.776879 -0.0403,1.534353 -0.25808,1.399764 -0.29945,-0.18507 -0.55953,0.476203 -0.54809,1.393568 l 0.009,0.705964 0.52036,-0.624624 c 0.2862,-0.343543 0.52037,-0.492371 0.52037,-0.330729 0,0.161642 -0.24422,0.53811 -0.5427,0.836596 -0.47296,0.472956 -0.52573,1.315528 -0.11212,1.790274 0.0403,0.04621 0.53148,-0.37619 1.09161,-0.938665 0.56013,-0.562476 0.74886,-0.711091 0.4194,-0.330256 -0.32946,0.380834 -0.53782,0.773468 -0.46302,0.87252 0.0748,0.09905 0.0607,0.124599 -0.0314,0.05677 -0.0921,-0.06783 -0.37406,0.140534 -0.62662,0.463021 -0.60011,0.766274 -0.42399,2.423294 0.23108,2.174053 0.33061,-0.125789 0.35847,-0.0911 0.11992,0.149335 -0.23806,0.239931 -0.21149,0.521325 0.11356,1.202978 0.5022,1.053113 0.59701,1.00424 0.86189,-0.444266 z m -1.93917,-0.560997 c -0.0845,-0.211067 -0.14716,-0.148372 -0.15986,0.159853 -0.0115,0.278915 0.051,0.435184 0.13897,0.347265 0.0879,-0.08792 0.0973,-0.316122 0.0209,-0.507118 z m 19.13384,-1.008724 c 0,-0.764352 -0.11024,-1.058333 -0.39688,-1.058333 -0.21828,0 -0.39687,0.04499 -0.39687,0.09998 0,0.05499 -0.18019,0.531238 -0.40043,1.058333 l -0.40042,0.958354 h 0.7973 c 0.75379,0 0.7973,-0.05775 0.7973,-1.058334 z m -19.13384,-0.04961 c -0.0845,-0.211067 -0.14716,-0.148372 -0.15986,0.159852 -0.0115,0.278915 0.051,0.435185 0.13897,0.347266 0.0879,-0.08792 0.0973,-0.316122 0.0209,-0.507118 z m -10.10917,0.039 c -0.11063,-0.179003 0.092,-0.217762 0.57969,-0.110891 0.574,0.12578 0.65674,0.0982 0.3529,-0.117635 -0.30648,-0.217718 -0.14075,-0.282855 0.72761,-0.285984 1.21694,-0.0044 1.26161,-0.04719 0.85058,-0.815196 -0.42137,-0.787335 -1.97403,-0.696627 -2.52722,0.147644 -0.38853,0.592969 -0.37056,1.457251 0.0303,1.457251 0.0859,0 0.0797,-0.123835 -0.0139,-0.275189 z m 45.5346,-0.584707 c -0.14299,-0.795228 -0.13333,-0.810151 0.12845,-0.198438 0.2572,0.601007 0.30717,0.618621 0.54681,0.192736 0.14506,-0.257798 0.21591,-0.853111 0.15745,-1.322917 -0.10098,-0.811586 -0.11013,-0.801404 -0.18346,0.20414 l -0.0772,1.058333 -0.1636,-0.852782 c -0.22336,-1.164193 -0.81839,-0.763085 -1.01226,0.682359 -0.12282,0.915672 -0.0724,1.096465 0.30567,1.096465 0.3661,0 0.42315,-0.164539 0.29811,-0.859896 z m -15.63013,-4.960934 c 0.26339,-0.291042 0.41935,-0.529167 0.34659,-0.529167 -0.0728,0 -0.34779,0.238125 -0.61118,0.529167 -0.26339,0.291042 -0.41935,0.529167 -0.34659,0.529167 0.0728,0 0.34779,-0.238125 0.61118,-0.529167 z m -24.06902,-6.866115 3.93729,-6.627635 h 3.12055 c 1.7163,0 3.12055,-0.07093 3.12055,-0.157615 0,-0.08669 -0.20624,-0.506757 -0.45832,-0.933488 l -0.45832,-0.775873 -3.30046,0.07359 -3.30047,0.07359 -4.1747,7.011458 c -2.29608,3.856303 -4.17629,7.07099 -4.17824,7.143751 -0.005,0.191225 1.42219,0.990984 1.60277,0.898079 0.0836,-0.04302 1.92384,-3.060661 4.08935,-6.705861 z m 10.09455,5.229006 c -0.0845,-0.211067 -0.14716,-0.148372 -0.15985,0.159852 -0.0115,0.278915 0.0511,0.435185 0.13896,0.347266 0.0879,-0.08792 0.0973,-0.316122 0.0209,-0.507118 z M 92.763,70.580256 c 0,-0.218281 -0.11906,-0.396875 -0.26458,-0.396875 -0.14552,0 -0.26458,0.178594 -0.26458,0.396875 0,0.218281 0.11906,0.396875 0.26458,0.396875 0.14552,0 0.26458,-0.178594 0.26458,-0.396875 z m 26.93838,-1.113979 c 0.12727,-0.894873 -0.89174,-2.986319 -1.45736,-2.991114 -0.36868,-0.0031 -0.39594,-0.05598 -0.11926,-0.231301 0.29545,-0.187208 0.27843,-0.34966 -0.0966,-0.92199 -0.46394,-0.70807 -1.28192,-0.920504 -1.59484,-0.414189 -0.24278,0.39282 0.41874,1.887924 0.77528,1.75222 0.18871,-0.07182 0.29338,0.337484 0.29421,1.150476 8.9e-4,0.876292 0.15815,1.435296 0.51457,1.829129 0.64488,0.712586 1.57155,0.617259 1.68398,-0.173231 z m -1.74683,-0.614256 c -0.17639,-0.282449 -0.31998,-0.663987 -0.31909,-0.847863 9e-4,-0.183875 0.18162,0.01082 0.40161,0.43265 0.45849,0.879164 0.39783,1.184376 -0.0825,0.415213 z m -25.45613,0.669901 c 0,-0.218281 -0.11906,-0.396875 -0.26458,-0.396875 -0.14553,0 -0.26459,0.178594 -0.26459,0.396875 0,0.218282 0.11906,0.396875 0.26459,0.396875 0.14552,0 0.26458,-0.178593 0.26458,-0.396875 z m -0.26458,-1.190625 c 0,-0.291041 -0.10256,-0.529166 -0.2279,-0.529166 -0.12534,0 -0.17127,-0.296176 -0.10207,-0.658168 0.0871,-0.45544 -0.0126,-0.71127 -0.32346,-0.83057 -0.29775,-0.114258 -0.3491,-0.234314 -0.15225,-0.355972 0.47661,-0.294566 -0.13215,-1.62451 -0.65225,-1.42493 -0.22909,0.08791 -0.36048,0.293995 -0.29199,0.457967 0.0685,0.163972 0.39462,1.101803 0.72472,2.084069 0.59151,1.760114 1.0252,2.291764 1.0252,1.25677 z m 10.82169,-0.104379 c 0.38081,-0.405351 0.49272,-0.696873 0.3107,-0.809365 -0.15646,-0.0967 -0.27508,-0.31762 -0.26359,-0.490933 0.0151,-0.227212 0.0581,-0.222856 0.15434,0.01562 0.20281,0.502608 1.00705,0.395512 1.55202,-0.206674 0.4638,-0.512501 0.4648,-0.558475 0.0215,-0.992187 -0.44084,-0.43134 -0.53199,-0.382226 -1.76826,0.952732 -1.29104,1.394117 -1.63008,2.164358 -0.9527,2.164358 0.19292,0 0.61859,-0.285095 0.94594,-0.633546 z m -7.18367,-4.09713 c 0.73062,-0.386628 0.78375,-0.03622 0.14283,0.941947 l -0.45248,0.690569 1.04779,-0.66 c 1.36005,-0.856686 2.96377,-1.429319 3.22396,-1.151156 0.11279,0.120594 0.0563,0.272414 -0.12565,0.337379 -0.1819,0.06497 -0.33072,0.230316 -0.33072,0.367447 0,0.137131 0.38695,0.04776 0.85989,-0.198603 0.47294,-0.246363 1.21708,-0.53489 1.65365,-0.64117 0.43656,-0.106281 -1.61727,-0.205425 -4.56407,-0.220321 -3.77677,-0.01909 -5.35781,0.05988 -5.35781,0.267622 0,0.162088 0.25866,0.75492 0.57479,1.317405 l 0.57479,1.022699 1.07886,-0.879396 c 0.59337,-0.483667 1.34674,-1.021157 1.67417,-1.194422 z m 10.6498,1.249017 c 0.42495,-0.314184 0.71076,-0.671371 0.63513,-0.79375 -0.0756,-0.122379 0.0413,-0.222508 0.25985,-0.222508 0.21855,0 0.82012,-0.24943 1.33682,-0.55429 l 0.93945,-0.554289 -0.59308,-0.48024 c -0.55756,-0.451492 -0.63842,-0.453948 -1.3507,-0.04102 -0.4167,0.241569 -0.81663,0.588045 -0.88873,0.769946 -0.0721,0.181901 -0.27468,0.33073 -0.45016,0.33073 -0.17549,0 -0.63873,0.333649 -1.02942,0.741444 -0.55173,0.575885 -0.63959,0.812203 -0.39346,1.058333 0.4373,0.437301 0.64546,0.402793 1.5343,-0.254353 z m 1.46188,-0.171409 c -0.0815,-0.08146 -0.29495,-1.68e-4 -0.47443,0.180653 -0.25936,0.261307 -0.22897,0.291698 0.14811,0.148112 0.26094,-0.09936 0.40779,-0.247303 0.32632,-0.328765 z m -3.64805,-0.977744 c 1.39985,-0.281649 1.27138,-0.660855 -0.22389,-0.660855 -0.76044,0 -1.30428,0.07834 -1.20853,0.174094 0.0958,0.09575 0.0272,0.35105 -0.15227,0.567331 -0.27373,0.329831 -0.24137,0.368938 0.20073,0.242535 0.28991,-0.08289 0.91268,-0.228284 1.38396,-0.323105 z m 12.76918,-0.12154 c 0,-0.105994 -0.24094,-0.410763 -0.53542,-0.677264 -0.37999,-0.343885 -0.61753,-0.402439 -0.81826,-0.201704 -0.45641,0.456405 0.17053,1.381085 0.82105,1.210972 0.29294,-0.07661 0.53263,-0.226009 0.53263,-0.332004 z m -26.10072,0.05338 c 0.0683,-0.110583 -0.0472,-0.60884 -0.25676,-1.107239 -0.34123,-0.81155 -0.4231,-0.864103 -0.78395,-0.503247 -0.33263,0.33263 -0.34695,0.525823 -0.082,1.107239 0.30819,0.676409 0.86224,0.92475 1.12274,0.503247 z m 16.72206,-1.981754 1.22015,-0.859896 -9.19054,-0.06962 c -5.05479,-0.03829 -9.22971,-0.03044 -9.2776,0.01745 -0.0479,0.04789 0.056,0.46617 0.23092,0.929517 l 0.31799,0.842449 h 7.73947 7.73946 z m 6.73282,0.645882 c 0,-0.117708 -0.15694,-0.428648 -0.34876,-0.690979 -0.33216,-0.454257 -0.4109,-0.444654 -1.65365,0.201694 l -1.30488,0.67866 1.65365,0.01232 c 0.9095,0.0068 1.65364,-0.08399 1.65364,-0.201694 z m 1.07006,-0.697901 c -0.18494,-0.222847 -0.4283,-0.348295 -0.54079,-0.278773 -0.11249,0.06952 -0.2856,-0.140149 -0.3847,-0.465934 -0.10743,-0.35317 -0.23479,-0.460356 -0.31543,-0.265465 -0.20663,0.499399 0.96928,2.023252 1.30343,1.689101 0.18862,-0.188617 0.16918,-0.399763 -0.0625,-0.678929 z m -4.48888,0.371639 c 0.43175,-0.231069 0.46676,-0.370252 0.21628,-0.859896 -0.2833,-0.553791 -0.27441,-0.560873 0.17078,-0.136029 0.41743,0.398359 0.55069,0.406254 1.19894,0.07103 0.64863,-0.335419 0.69641,-0.446868 0.43188,-1.007403 -0.32908,-0.697309 -0.27323,-0.709238 -2.89853,0.619172 -1.18187,0.598027 -1.49085,1.001966 -1.08039,1.412428 0.26745,0.267446 1.38114,0.211051 1.96104,-0.0993 z m 1.03757,-1.840975 c 0,-0.14552 0.12609,-0.264583 0.2802,-0.264583 0.15411,0 0.20662,0.119063 0.11668,0.264583 -0.0899,0.145521 -0.21603,0.264584 -0.2802,0.264584 -0.0642,0 -0.11668,-0.119063 -0.11668,-0.264584 z m -21.96041,1.149179 c 0,-0.209939 -0.18479,-0.73904 -0.41063,-1.175781 -0.32992,-0.637993 -0.52494,-0.758965 -0.99219,-0.615451 -0.82281,0.252724 -0.82101,0.218228 -0.073,1.403096 0.66839,1.058801 1.47585,1.271156 1.47585,0.388136 z m -14.05665,0.05889 c 1.07302,-0.554879 1.44024,-1.103594 1.24886,-1.866093 -0.20523,-0.817701 -0.70328,-0.837722 -2.04737,-0.0823 -2.16333,1.21586 -1.39768,3.084089 0.79851,1.948397 z m -0.20996,-0.833245 c 0.0127,-0.308225 0.0754,-0.370919 0.15985,-0.159853 0.0764,0.190997 0.067,0.4192 -0.0209,0.507118 -0.0879,0.08792 -0.15045,-0.06835 -0.13896,-0.347265 z m 0.51233,-0.143992 c 0.002,-0.19972 0.10472,-0.521937 0.22776,-0.71604 0.18176,-0.286732 0.25248,-0.277955 0.3771,0.0468 0.0844,0.219843 -0.0181,0.542061 -0.22777,0.716039 -0.30036,0.24928 -0.38029,0.239361 -0.37709,-0.0468 z m 2.17876,-0.334563 c 0.55076,-0.418091 0.59772,-1.198424 0.11207,-1.862588 -0.31694,-0.433444 -0.42139,-0.44305 -1.0778,-0.09912 -0.64467,0.337774 -0.67978,0.419901 -0.31051,0.726366 0.22899,0.190043 0.41634,0.62861 0.41634,0.974594 0,0.710346 0.19124,0.768335 0.8599,0.26075 z m 35.38802,0.268417 c 0,-0.05494 -0.20836,-0.263302 -0.46302,-0.463021 -0.41965,-0.329107 -0.42901,-0.319749 -0.0999,0.0999 0.34564,0.440729 0.56291,0.580887 0.56291,0.363126 z m -33.655,-1.275939 c 0.17462,-0.174625 0.33131,-0.561578 0.34819,-0.859895 0.0253,-0.44631 0.0521,-0.460371 0.15169,-0.07937 0.14113,0.540045 0.21029,0.554687 0.89335,0.189128 0.54995,-0.294329 0.69001,-1.17222 0.23215,-1.455193 -0.37059,-0.229034 -1.632,0.09579 -1.459,0.375705 0.0743,0.120233 -0.12918,0.173455 -0.4522,0.118271 -0.83715,-0.143016 -1.48017,0.315788 -1.04811,0.747842 0.18068,0.180685 0.32851,0.54283 0.32851,0.804767 0,0.543978 0.53562,0.628549 1.00542,0.15875 z m 8.51958,-0.08868 c 0,-0.223401 -0.18591,-0.689915 -0.41313,-1.036698 -0.40034,-0.610997 -0.43678,-0.616939 -1.17726,-0.191961 l -0.76414,0.438554 0.56193,0.598145 c 0.64647,0.688141 1.7926,0.810874 1.7926,0.19196 z m -5.02708,-1.931458 c 0,-0.412851 -0.58918,-0.772124 -1.06301,-0.648213 -0.41073,0.107406 -0.44358,0.228128 -0.20472,0.752356 0.22985,0.50446 0.37895,0.573875 0.77612,0.361318 0.27038,-0.144707 0.49161,-0.354164 0.49161,-0.465461 z m 3.43679,0.356637 c 0.5069,-0.610782 0.13628,-1.120517 -0.90293,-1.241838 -1.10135,-0.128577 -1.29854,0.222807 -0.21876,0.389814 0.70165,0.108522 0.70637,0.119687 0.13229,0.313016 -0.6582,0.22166 -0.77358,0.551899 -0.26458,0.757285 0.59295,0.23926 0.92175,0.182026 1.25398,-0.218277 z m -2.1799,-0.863266 c 0.0728,-0.218705 -0.17717,-0.330729 -0.73807,-0.330729 -0.73443,0 -0.80276,0.05475 -0.5094,0.408223 0.38377,0.462421 1.08215,0.419038 1.24747,-0.07749 z"
     id="logo-face"
     transform="translate(-61.013361,-56.160469)" /></svg>
