<?xml version="1.0" encoding="UTF-8" standalone="no"?>
<!-- Created with Inkscape (http://www.inkscape.org/) -->

<svg
   width="105.36396mm"
   height="121.81171mm"
   viewBox="0 0 105.36396 121.8117"
   version="1.1"
   id="svg1"
   xml:space="preserve"
   xmlns="http://www.w3.org/2000/svg"
   xmlns:svg="http://www.w3.org/2000/svg"><defs
     id="defs1"><pattern
       id="EMFhbasepattern"
       patternUnits="userSpaceOnUse"
       width="6"
       height="6"
       x="0"
       y="0" /><pattern
       id="EMFhbasepattern-2"
       patternUnits="userSpaceOnUse"
       width="6"
       height="6"
       x="0"
       y="0" /></defs><g
     id="layer1"
     transform="translate(83.7538,95.982373)"><path
       class="logo-face"
       d="m -20.31215,24.248825 c -0.35308,-1.840861 -0.84447,-2.900401 -1.23359,-2.659911 -0.15088,0.09325 -0.48772,-0.853067 -0.74854,-2.102925 -0.52129,-2.498025 -0.85503,-2.404408 -1.26826,0.355756 -0.14598,0.975101 -0.29471,1.891448 -0.33051,2.036328 -0.0358,0.144879 -0.0848,0.579517 -0.10899,0.965862 -0.0606,0.969658 -0.90023,0.880325 -1.58773,-0.168928 -0.66823,-1.019849 -1.96238,-6.168543 -1.96594,-7.821388 -0.003,-1.416763 -0.61239,-1.475288 -1.82838,-0.175611 -1.26743,1.354657 -1.96994,2.872165 -2.76039,5.962794 -0.70187,2.744271 -0.88715,3.168759 -1.23241,2.823494 -0.49803,-0.498028 -1.21945,-4.66031 -1.43156,-8.259454 -0.20594,-3.49465 -0.30639,-3.951255 -0.86921,-3.951255 -0.83076,0 -1.34416,0.996612 -1.11932,2.172796 0.11579,0.605723 -0.29595,2.114953 -1.16678,4.276796 -0.74015,1.837415 -1.39151,3.294969 -1.44747,3.239008 -0.056,-0.05596 0.37538,-1.561816 0.95854,-3.346344 0.58316,-1.784528 1.06028,-3.458092 1.06028,-3.71903 0,-0.871771 -0.71531,-0.931069 -2.20807,-0.183045 l -1.47976,0.741509 1.05366,-0.913293 c 0.57952,-0.502311 1.53265,-1.364525 2.11807,-1.91603 0.58541,-0.551506 1.49558,-1.110959 2.02258,-1.243229 0.65508,-0.164413 1.0225,-0.5337507 1.16147,-1.1675107 0.1118,-0.509861 0.24786,-1.08507 0.30234,-1.278242 0.0545,-0.193173 -0.0901,-0.588298 -0.32119,-0.878057 -0.23114,-0.289758 -0.70969,-1.514647 -1.06345,-2.721975 -0.35376,-1.207328 -0.71101,-2.195142 -0.79391,-2.195142 -0.0829,0 -1.75257,1.501477 -3.71041,3.336615 -1.95783,1.835139 -3.74086,3.336616 -3.96229,3.336616 -0.5838,0 -4.08059,4.3048097 -4.6137,5.6798097 -0.30883,0.796534 -0.40183,0.88925 -0.29187,0.290975 0.35244,-1.917641 1.22675,-8.3917707 1.44665,-10.7122907 l 0.23299,-2.458559 -1.35637,1.250598 c -1.68968,1.557925 -5.99212,4.96579 -7.10682,5.629154 -1.10454,0.657323 -4.31063,4.0152867 -4.91104,5.1436877 -0.29749,0.559088 -0.40166,1.436084 -0.27771,2.338122 0.16799,1.222649 0.13858,1.322572 -0.19227,0.653207 -0.21483,-0.434638 -0.51691,-0.790251 -0.67128,-0.790251 -0.15437,0 -0.77766,0.722333 -1.38507,1.605184 -0.60742,0.882851 -1.18343,1.526159 -1.28001,1.429573 -0.0966,-0.09659 0.29276,-0.858432 0.86522,-1.69299 2.51537,-3.667057 3.27551,-5.759013 3.79234,-10.4368197 0.83289,-7.53852602 1.56789,-13.850936 1.77281,-15.225323 l 0.19609,-1.315293 -2.17164,1.227487 c -1.19441,0.675117 -2.23202,1.227486 -2.30581,1.227486 -0.0738,0 -1.31571,0.553176 -2.7598,1.22928 -1.4441,0.676103 -2.73904,1.229279 -2.87764,1.229279 -0.1386,0 -0.50152,0.21277 -0.80649,0.472822 -0.70562,0.601696 -5.32414,2.425891 -5.55568,2.194351 -0.0957,-0.09568 0.33773,-1.2486 0.96313,-2.562043 1.14259,-2.399638 3.86245,-9.0946553 3.86245,-9.5075413 0,-0.121599 -0.18966,-0.03143 -0.42147,0.200377 -0.98611,0.986115 -1.02393,0.318684 -0.0408,-0.720006 0.59424,-0.627811 1.27101,-1.512043 1.50394,-1.96496 0.39609,-0.77018 0.3704,-0.806879 -0.39689,-0.56693 -0.8127,0.25415 -8.17943,3.401295 -11.13612,4.757465 -0.84434,0.387282 -1.60369,0.635624 -1.68744,0.551872 -0.0838,-0.08375 0.57147,-1.460729 1.45606,-3.059949 l 1.60835,-2.907672 -1.38395,-2.663488 c -1.74625,-3.360756 -3.55059,-7.886428 -3.55059,-8.905635 0,-1.040258 1.7673,-6.341006 2.21032,-6.629516 0.19226,-0.12521 2.18386,-0.33962 4.42577,-0.47646 4.14705,-0.25313 6.38043,-0.74035 6.60904,-1.44179 0.12106,-0.37144 -1.9183,-1.06509 -3.7346,-1.27025 -1.75716,-0.19849 -0.97464,-0.84013 2.43021,-1.9927 1.93218,-0.65406 3.51168,-1.28514 3.50999,-1.4024 -0.004,-0.25659 -3.78086,-2.66424 -4.65063,-2.96442 -0.33805,-0.11667 -0.61464,-0.35366 -0.61464,-0.52664 0,-0.32606 2.46868,-0.76121 4.31846,-0.76121 0.92087,0 0.62737,-0.26683 -2.24416,-2.0403 -1.81697,-1.12217 -5.02906,-3.05828 -7.13799,-4.30248 -2.10893,-1.24419 -3.90842,-2.4845 -3.99887,-2.75624 -0.13917,-0.4181 0.55842,-0.44757 4.53686,-0.19169 2.58572,0.16631 6.77236,0.30961 9.30365,0.31846 l 4.60234,0.0161 -1.15928,-0.79025 c -0.63761,-0.43464 -1.30122,-0.79026 -1.47469,-0.79026 -0.17348,0 -1.29355,-0.6322 -2.48905,-1.40489 -1.1955,-0.77269 -2.307,-1.40489 -2.47,-1.40489 -0.163,0 -0.48533,-0.22768 -0.71628,-0.50595 -0.23094,-0.27828 -0.60591,-0.43629 -0.83325,-0.35114 -0.22734,0.0851 -1.12458,0.007 -1.99385,-0.1747 l -1.58051,-0.32952 1.54805,0.0568 c 1.14723,0.0421 1.64739,-0.10483 1.93173,-0.56738 0.30698,-0.4994 0.2462,-0.7023 -0.30407,-1.015 -0.93706,-0.53251 -2.67631,-2.4713 -2.43361,-2.71281 0.10804,-0.1075 0.46888,0.14056 0.80187,0.55124 0.33299,0.41069 1.10964,1.00744 1.72588,1.32611 0.6302,0.32589 1.12044,0.85601 1.12044,1.2116 0,1.21261 1.45446,2.04111 4.39028,2.5008 1.54538,0.24198 3.73606,0.66817 4.86817,0.94709 1.13211,0.27892 2.10574,0.45876 2.16364,0.39964 0.14736,-0.15049 -9.00052,-7.9605 -10.80256,-9.2227 -1.04732,-0.73357 -0.48911,-1.26628 0.8779,-0.83779 0.62521,0.19597 2.55919,0.73196 4.29774,1.19109 1.73855,0.45914 3.55233,0.94713 4.03061,1.08442 0.75841,0.21772 0.62945,-0.0522 -1.00865,-2.11079 -1.03303,-1.29823 -1.79528,-2.44337 -1.69388,-2.54477 0.10139,-0.1014 0.84579,0.15309 1.65422,0.56552 l 1.46987,0.74987 -0.23022,-0.72537 c -0.28378,-0.89411 0.44144,-0.96543 1.93951,-0.19075 0.56861,0.29404 1.46199,0.6974 1.98528,0.89636 0.89352,0.33971 0.91893,0.32321 0.4174,-0.27121 -1.75187,-2.07634 -4.5634,-6.15564 -4.37348,-6.34556 0.12339,-0.12339 1.42265,0.36858 2.88724,1.09328 1.46459,0.7247 2.7346,1.24593 2.82224,1.15828 0.17563,-0.17563 -5.975,-9.55898 -7.45816,-11.37809 -0.51186,-0.62782 -0.8451,-1.14148 -0.74053,-1.14148 0.50394,0 3.10995,1.76976 5.28933,3.59202 1.33369,1.11515 2.69161,2.02754 3.01761,2.02754 0.38418,0 0.73641,-0.47961 1.00115,-1.36322 0.22463,-0.74978 0.6692,-1.57954 0.98792,-1.84392 0.51705,-0.4289 0.5134,-0.35284 -0.0339,0.70585 -0.33739,0.6526 -0.54178,1.56139 -0.4542,2.01953 0.1071,0.56026 -0.004,0.83299 -0.33963,0.83299 -0.84622,0 -0.19252,0.59873 2.45609,2.24953 l 2.54499,1.58622 1.8951,-0.93787 c 1.80182,-0.89171 1.91384,-0.90627 2.27569,-0.29574 1.40559,2.37161 1.48705,1.9156 0.33681,-1.88553 -1.92185,-6.35102 -1.57044,-6.49113 2.28104,-0.90944 1.81001,2.62314 3.41029,4.8431 3.55617,4.93326 0.27045,0.16715 0.16673,-1.50021 -0.32766,-5.26727 -0.35386,-2.69622 -1.98804,-9.33085 -2.83999,-11.53015 -0.47112,-1.21617 -0.51996,-1.58221 -0.17266,-1.29398 0.39212,0.32543 0.5116,0.18027 0.62769,-0.76264 0.13037,-1.05892 0.14848,-1.0318 0.19959,0.29901 0.0452,1.17742 0.58844,2.28886 2.77818,5.68422 1.49709,2.32134 3.82833,5.74254 5.18053,7.60266 l 2.45856,3.38205 0.30535,-2.9002 c 0.21302,-2.02326 0.18647,-3.09056 -0.0878,-3.52974 -0.94441,-1.51224 0.26579,-3.35093 1.82573,-2.77387 1.25069,0.46266 1.52987,1.28212 0.87506,2.56858 -0.68063,1.33721 -1.4793,8.50759 -1.03587,9.29996 0.20893,0.37332 0.84817,-1.09169 2.13145,-4.88481 1.00817,-2.97993 1.97084,-5.64104 2.13927,-5.91357 0.55211,-0.89333 0.8532,0.006 1.03929,3.10584 l 0.18321,3.05153 1.72529,-2.98539 c 2.7467,-4.75281 6.25722,-10.18546 6.58174,-10.18546 0.41415,0 0.38721,0.21534 -0.37431,2.99246 -1.00626,3.66965 -2.20049,9.6168 -1.99717,9.94577 0.0983,0.15902 -0.0448,1.13625 -0.31791,2.17162 -0.27313,1.03538 -0.48326,2.54686 -0.46696,3.35885 0.0163,0.81199 -0.0765,1.6481 -0.20625,1.85802 -0.12973,0.20991 0.22185,0.11896 0.7813,-0.20212 0.55945,-0.32108 1.44526,-1.34531 1.96846,-2.27607 1.04875,-1.86568 1.30372,-1.95096 3.36582,-1.12587 l 1.41561,0.56641 1.89633,-1.62008 c 1.0429795,-0.89104 1.9896495,-1.62008 2.1037195,-1.62008 0.11407,0 0.2074,0.3161 0.2074,0.70245 0,0.38634 0.091,0.70244 0.20222,0.70244 0.58398,0 7.28228005,-5.51365 7.71509005,-6.35061 0.68461,-1.3239 1.32123,-1.70277 0.87089,-0.5183 -0.5184,1.3635 0.17149,1.12569 1.97954995,-0.68238 0.86928,-0.86927 1.7477,-1.5805 1.95206,-1.5805 0.58278,0 -2.95159,3.64148 -3.96403995,4.08417 -0.69716,0.30483 -1.23744,1.19682 -2.34012005,3.86345 -0.78853,1.90692 -1.61508,4.14872 -1.83678,4.98178 -0.22171,0.83307 -0.48319,1.72339 -0.58109,1.9785 -0.14636,0.38142 0.18472,0.37849 1.86337,-0.0165 2.33913005,-0.55038 4.67553,-0.6386 4.67553,-0.17655 0,0.1731 -1.27751,1.51653 -2.83891995,2.98539 -1.56141005,1.46886 -2.62825005,2.66974 -2.37075005,2.66862 0.74792,-0.003 4.26484,-0.6216 5.03406,-0.8851 0.409,-0.1401 0.26227,0.0673 -0.35122,0.49655 -0.57952,0.40545 -1.47012995,0.73822 -1.97913995,0.73949 -0.88637005,0.002 -1.63170005,0.75101 -2.14771005,2.15771 -0.15042,0.41007 -0.0422,0.53807 0.37748,0.44648 0.3236,-0.0706 3.17063,-0.69384 6.32673,-1.38492 3.1561,-0.69109 5.9721805,-1.2081 6.2579505,-1.14893 0.36809,0.0762 -0.0378,0.82445 -1.3920705,2.56615 -2.11225,2.71653 -7.99597,11.15469 -7.86748,11.28318 0.0447,0.0447 1.80711,-0.24665 3.91645,-0.64746 3.55933,-0.67635 3.94844,-0.83242 5.4101505,-2.17001 1.360268,-1.24477 1.484175,-1.30111 0.908876,-0.41322 -0.658286,1.01598 -0.657946,1.02576 0.02967,0.83344 0.382677,-0.10704 1.52554,-0.52784 2.539695,-0.93512 1.014156,-0.40727 1.843919,-0.67368 1.843919,-0.59202 0,0.18095 -4.113616,2.16739 -5.092727,2.45926 -0.7373,0.21978 -7.4038305,6.42711 -7.1621405,6.6688 0.2871,0.2871 5.85723,1.28173 8.5385915,1.5247 1.529739,0.13861 2.839033,0.42622 2.909544,0.63912 0.07051,0.2129 -0.772931,1.08217 -1.874314,1.93172 -1.568942,1.2102 -1.856698,1.56983 -1.329041,1.661 0.962298,0.16627 4.751239,1.54251 4.616804,1.67694 -0.0619,0.0619 -0.974474,-0.11683 -2.02794,-0.39718 -2.655934,-0.70681 -2.907282,-0.68459 -2.426127,0.21446 0.609251,1.13839 0.219256,1.10434 -0.552987,-0.0483 -0.380815,-0.56839 -0.77142,-1.0338 -0.868,-1.03423 -0.52236,-0.002 -4.2404005,3.27214 -3.9877405,3.51201 0.16495,0.15659 1.48528,0.62841 2.93407,1.04851 3.9514815,1.14576 5.7301065,1.76599 6.2125375,2.16637 0.326308,0.27081 -0.284109,1.044046 -2.449947,3.103426 -1.586494,1.508511 -2.80551,2.80002 -2.70892,2.870019 0.0966,0.07 1.914161,1.021398 4.039058,2.114222 5.391779,2.772964 6.842602,3.588658 6.845945,3.848985 0.003,0.235993 -3.250931,1.052362 -6.845945,1.717544 -1.159035,0.214455 -3.345291,0.715586 -4.8583485,1.113626 l -2.75101,0.723707 2.71117,1.446385 c 1.4911515,0.795512 2.7072615,1.604435 2.7024715,1.797608 -0.0048,0.193172 -0.77365,0.479466 -1.708581,0.636208 -0.9349205,0.156742 -1.7617605,0.346877 -1.8374005,0.422522 -0.17331,0.173309 1.9020605,3.043754 4.7653045,6.5908933 1.21312,1.502879 2.205673,3.016773 2.205673,3.364209 0,0.577275 -0.340445,0.532424 -3.951254,-0.520551 -2.1731935,-0.63374 -4.3149235,-1.159821 -4.7594135,-1.169068 -0.44448,-0.0092 -2.7255,-0.883628 -5.06893,-1.943068 -2.34341995,-1.059441 -4.29351,-1.8892043 -4.33352,-1.8439193 -0.04,0.04529 1.10928,1.8999143 2.55399005,4.1213973 1.44470995,2.221483 3.00412995,4.865201 3.46537995,5.87492798 0.89425,1.95759302 2.32495,2.90563802 4.38491,2.90563802 0.84885,0 5.2502795,2.511901 5.2502795,2.99634 0,0.09014 -1.060604,-0.389116 -2.356898,-1.065005 -1.4947015,-0.779336 -2.8483015,-1.228889 -3.7001915,-1.228889 -1.24654,0 -1.31547,0.052 -0.95694,0.721916 0.21249,0.397055 0.33199,0.885011 0.26554,1.084349 -0.0664,0.199338 -0.47456,-0.345894 -0.90693,-1.211626 -0.77968,-1.561165 -1.21537,-1.876361 -4.41685,-3.19534402 -1.71594995,-0.706956 -1.74498995,-0.704254 -1.52373995,0.14179602 0.32751,1.252391 -0.41943,1.131708 -2.65292005,-0.42863602 -3.27426,-2.28743398 -3.28599,-2.29193998 -2.47403,-0.950283 1.51947,2.51073102 3.62038,6.37096202 3.62038,6.65210702 0,0.161056 0.39706,0.764701 0.88235005,1.341433 0.48528,0.576733 1.12283,1.730223 1.41676,2.5633117 0.29392995,0.83309 0.83080995,1.835309 1.19306995,2.227153 0.64009,0.692361 2.59338,5.105031 2.36214,5.336276 -0.25886,0.258856 -5.43594,-3.957882 -7.22876,-5.887824 -1.05894,-1.139942 -2.03423,-2.0726207 -2.1673,-2.0726207 -0.13307,0 -0.34805,0.7075407 -0.47773,1.5723147 -0.12968,0.864774 -0.3847,1.664352 -0.56671,1.776841 -0.18201,0.11249 -0.33093,0.588789 -0.33093,1.058442 0,0.603907 0.45599,1.189116 1.55746,1.998802 0.8566,0.629688 2.13971,2.014163 2.85136,3.076611 0.71164,1.062449 1.54023005,2.127655 1.84132005,2.367124 0.30108,0.23947 0.45475,0.528071 0.34148,0.641336 -0.22818,0.22818 -3.03888005,-2.691828 -3.62991005,-3.771077 -0.36658,-0.669385 -2.17552,-2.040257 -2.6983,-2.04485 -0.14487,-0.0013 -0.26583,0.274274 -0.26879,0.612326 -0.003,0.338051 -0.17379,0.851715 -0.37963,1.141473 -0.28536,0.401698 -0.32118,0.285353 -0.1508,-0.48982 0.3914,-1.780698 -0.51351,-4.364822 -1.91799,-5.477196 l -1.2524995,-0.991994 -1.21397,0.990793 c -1.19518,0.975458 -1.20384,1.001984 -0.5596,1.71386 0.4848,0.5357 0.59593,1.015241 0.42886,1.850591 -0.17818,0.890913 -0.0525,1.316711 0.59889,2.029062 0.88086,0.963288 2.2033995,4.145387 1.8639695,4.484814 -0.11219,0.112191 -0.53311,-0.563843 -0.9353795,-1.502296 -0.96381,-2.248494 -1.41105,-2.792629 -1.79624,-2.18541 -0.2696,0.425004 -0.33152,0.05287 -0.45016,-2.705351 -0.0166,-0.386345 -0.2137,-1.015256 -0.43796,-1.39758 -0.39374,-0.671248 -0.4318,-0.673374 -1.10752,-0.06185 -0.69389,0.627959 -2.15672,5.27788 -2.17929,6.927303 -0.0132,0.963114 -1.20823,2.590416 -1.68566,2.29535 -0.459,-0.283681 -1.37116,-3.847267 -1.8012,-7.036856 -0.20658,-1.532226 -0.4342,-2.844463 -0.50583,-2.916083 -0.0716,-0.07162 -0.46018,0.289263 -0.86347,0.801964 -1.46986,1.868622 -1.32148,4.560557 0.3781,6.859518 0.49474,0.669228 0.6408,1.35735 0.55913,2.63417 l -0.11056,1.728302 z m 3.28528,-5.356145 c 0.005,-2.326767 -0.0118,-2.370753 -0.91757,-2.370753 -0.88849,0 -0.91418,0.05572 -0.6882,1.492696 0.1291,0.820983 0.39978,2.112538 0.6015,2.870121 0.51823,1.946226 0.99749,0.995557 1.00427,-1.992064 z m -7.72152,0.06708 c 0,-1.710419 0.131,-2.441017 0.43903,-2.44851 0.24146,-0.0059 0.15841,-0.174034 -0.18457,-0.373688 -0.34298,-0.199654 -0.99128,-0.313385 -1.44067,-0.252736 l -0.81707,0.11027 0.67864,2.900874 c 0.37325,1.595481 0.82398,2.811043 1.00164,2.701248 0.17765,-0.109795 0.323,-1.296651 0.323,-2.637458 z m -7.58935,-3.781851 c 0.21883,-0.353524 0.0463,-0.438276 -0.71481,-0.351222 -1.11379,0.127385 -1.12107,0.179219 -0.60782,4.329413 l 0.26062,2.107336 0.38679,-2.809781 c 0.21274,-1.54538 0.51659,-3.019465 0.67522,-3.275746 z m 14.94656,0.641576 c 0.15142,0 0.3588,-1.066839 0.46086,-2.370753 0.23037,-2.943418 0.98761,-5.2223787 1.68383,-5.0676407 0.37404,0.08313 0.40512,0.0081 0.11792,-0.284663 -0.21836,-0.222566 -1.14592,-0.349555 -2.10734,-0.288504 l -1.71731,0.109051 -0.10297,3.3366147 c -0.12152,3.937762 0.0796,5.068635 0.84885,4.77344 0.29747,-0.11415 0.66474,-0.207545 0.81616,-0.207545 z m -7.00599,-1.13312 c 0,-0.391409 0.33182,-2.125032 0.73738,-3.852497 0.60981,-2.5974527 0.83768,-3.1061317 1.31709,-2.9402007 0.42851,0.148314 0.40189,0.06302 -0.10207,-0.327053 -0.38782,-0.30018 -1.40311,-0.527696 -2.35483,-0.527696 -1.6179,0 -1.67879,0.03765 -1.84625,1.141474 -0.49918,3.2902017 -0.56776,4.3694927 -0.36399,5.7283017 0.21233,1.415944 0.2822,1.489323 1.418,1.489323 0.96568,0 1.19467,-0.136411 1.19467,-0.711652 z m -8.67149,-0.597696 c 0.66423,-0.252538 0.90859,-0.668267 1.08525,-1.846327 0.34475,-2.2989587 1.84497,-5.3252837 2.51282,-5.0690047 0.29921,0.114817 0.45852,0.07044 0.35404,-0.09863 -0.27938,-0.45205 -2.47978,-0.795922 -3.48255,-0.544244 -0.74902,0.187992 -0.9208,0.519311 -1.25031,2.411493 -0.38114,2.1886637 -0.5187,5.4726337 -0.22925,5.4726337 0.084,0 0.53851,-0.146666 1.01,-0.325925 z M -0.31484045,9.5430693 C -1.0949505,8.0344983 -1.5677005,7.8680143 -1.5677005,9.1018583 c 0,0.742264 0.20622,1.1161787 0.70245005,1.2736757 0.45078,0.143072 0.7213,0.560504 0.75507,1.165141 l 0.0526,0.942194 0.14407,-0.942542 c 0.0792,-0.518398 -0.10137,-1.417164 -0.40135,-1.9972577 z M -59.16821,10.42218 c 0,-0.241303 0.64763,-0.9036887 1.43917,-1.4719687 1.45028,-1.041216 6.46859,-5.130528 8.74629,-7.127162 1.97001,-1.72692302 2.24718,-1.52438302 1.9709,1.440226 -0.13052,1.4005 -0.32754,3.73174 -0.43782,5.180534 l -0.20051,2.6341697 1.35324,-1.3171277 c 0.74429,-0.72442 2.24487,-2.033564 3.33464,-2.909208 1.76668,-1.419552 2.00744,-1.771609 2.22171,-3.248767 0.13218,-0.911177 0.48609,-2.65019602 0.78646,-3.86448602 0.30038,-1.21428998 0.47393,-2.28001198 0.38567,-2.36827198 -0.43544,-0.435447 -4.39238,-0.897039 -7.93248,-0.925356 -3.40997,-0.02728 -4.06388,0.06018 -4.69213,0.627532 -1.15268,1.040937 -5.04419,7.073641 -6.42276,9.956716 -1.20235,2.514521 -1.64738,4.5086457 -0.9036,4.0489687 0.19317,-0.119387 0.35122,-0.414497 0.35122,-0.655799 z m 3.22832,-6.2193847 c 0.0692,-0.20766 0.276,-0.377564 0.45952,-0.377564 0.18351,0 0.39029,0.169904 0.45951,0.377564 0.0692,0.207661 -0.13756,0.377565 -0.45951,0.377565 -0.32196,0 -0.52874,-0.169904 -0.45952,-0.377565 z m 4.49858,-6.646888 c 0,-0.193173 0.23707,-0.351223 0.52683,-0.351223 0.28976,0 0.52684,0.15805 0.52684,0.351223 0,0.193172 -0.23708,0.351222 -0.52684,0.351222 -0.28976,0 -0.52683,-0.15805 -0.52683,-0.351222 z m 5.68688,-0.02634 c 0.0692,-0.207661 0.276,-0.377564 0.45951,-0.377564 0.18352,0 0.3903,0.169903 0.45952,0.377564 0.0692,0.20766 -0.13756,0.377564 -0.45952,0.377564 -0.32195,0 -0.52873,-0.169904 -0.45951,-0.377564 z m 39.7596695,11.770776 c -0.13102,-0.522022 -0.0629,-0.856532 0.17432,-0.856532 0.22952,0 0.3915,-0.684706 0.39467,-1.668308 0.01,-3.075681 1.02304,-3.347921 1.8963,-0.509561 0.39384,1.280116 0.52465,1.453772 0.58226,0.772978 0.0535,-0.631761 0.14486,-0.483983 0.32585,0.526834 l 0.25154,1.404891 0.0251,-1.229279 c 0.0253,-1.234273 -0.53966,-3.162819 -0.61729,-2.107336 -0.0382,0.519576 -1.0844,-1.13282 -1.20078,-1.896574 -0.14151,-0.928659 -0.70639,-1.26443 -2.12717,-1.26443 -1.38319,0 -1.57069,0.107343 -2.08661,1.194553 -0.8082,1.703158 -0.73004,2.317673 0.29477,2.317673 0.68346,0 1.00619,-0.326812 1.56075,-1.580502 0.94464,-2.135513 1.12584,-1.997123 0.3449,0.263417 -0.35035,1.014156 -0.64216,2.258801 -0.64847,2.765879 -0.0183,1.472841 0.3978,3.1226817 0.73503,2.9142637 0.17036,-0.10529 0.21301,-0.5768747 0.0948,-1.0479667 z m 3.606,0.10933 c -0.0974,-0.241465 -0.17715,-0.0439 -0.17715,0.439029 0,0.4829307 0.0797,0.6804927 0.17715,0.4390277 0.0974,-0.241466 0.0974,-0.6365907 0,-0.8780567 z m -0.69165,-0.520149 c -0.0891,-0.341729 -0.16777,-0.147174 -0.17493,0.432344 -0.007,0.579517 0.0657,0.8591127 0.16191,0.621324 0.0962,-0.23779 0.10207,-0.71194 0.013,-1.053668 z m -4.54588,0.01462 c -0.33805,-0.08834 -0.89122,-0.08834 -1.22928,0 -0.33805,0.08834 -0.0615,0.160623 0.61464,0.160623 0.67611,0 0.9527,-0.07228 0.61464,-0.160623 z m 0,-0.702445 c -0.33805,-0.08834 -0.89122,-0.08834 -1.22928,0 -0.33805,0.08834 -0.0615,0.160622 0.61464,0.160622 0.67611,0 0.9527,-0.07228 0.61464,-0.160622 z m 2.79477,-1.94894 c -0.084,-0.43689 -0.15593,-0.162145 -0.15983,0.610545 -0.004,0.77269 0.0648,1.130145 0.15275,0.794346 0.0879,-0.3358 0.0911,-0.968 0.007,-1.404891 z m -2.35574,1.352854 c 0,-0.07466 -0.47415,-0.205339 -1.05367,-0.290394 -0.57951,-0.08506 -1.05366,-0.02397 -1.05366,0.135748 0,0.159717 0.47415,0.290394 1.05366,0.290394 0.57952,0 1.05367,-0.06109 1.05367,-0.135748 z M -13.96092,5.9663563 c 0.71806,-0.630467 2.01365,-1.59536 2.8791,-2.144208 l 1.5735295,-0.997905 -1.3858495,-0.0054 c -1.84846,-0.0072 -0.89819,-0.664064 1.0727095,-0.741529 l 1.40489,-0.05522 -1.40489,-0.22549 c -0.7726895,-0.12402 -1.8187295,-0.09338 -2.3245395,0.06809 -1.09708,0.350222 -5.39806,3.830557 -5.90549,4.778702 -0.32886,0.614464 -0.23322,0.659219 1.214,0.568125 1.18769,-0.07476 1.8895,-0.378554 2.87654,-1.245186 z m -6.24235,-0.965625 c 1.10603,-0.907309 2.47196,-2.009682 3.0354,-2.449717 l 1.02443,-0.800064 -1.31676,0.114861 c -0.91893,0.08016 -1.20544,0.0035 -0.9483,-0.253604 0.20265,-0.202656 1.39879,-0.368466 2.65807,-0.368466 2.09965,0 2.20747,-0.03511 1.29953,-0.42318602 -1.38905,-0.593713 -2.30689,-0.552204 -4.26817,0.19302302 -2.47298,0.939656 -7.43615,4.480946 -7.43361,5.303985 3.3e-4,0.106985 0.88661,0.225637 1.96952,0.26367 1.86841,0.06562 2.07159,-0.01507 3.97989,-1.580502 z m 12.5769795,1.444855 c -0.33805,-0.08834 -0.89122,-0.08834 -1.22928,0 -0.33805,0.08834 -0.0615,0.160622 0.61464,0.160622 0.67611,0 0.9527,-0.07228 0.61464,-0.160622 z m -20.9464595,-3.95086 2.92655,-1.55879702 -1.2194,-0.506395 c -0.67067,-0.278518 -3.43211,-1.054857 -6.13652,-1.72519798 -2.70442,-0.670342 -4.98005,-1.279066 -5.05696,-1.352721 -0.0769,-0.07366 0.17814,-0.96661 0.56677,-1.984345 1.223,-3.202758 1.22171,-3.314007 -0.0112,-0.97237 -1.16984,2.221812 -2.06427,5.21480998 -2.51904,8.429343 l -0.2236,1.580502 1.80301,-1.843919 c 0.99166,-1.014155 1.92868,-1.84391902 2.08227,-1.84391902 0.24628,0 1.28338,2.57577902 1.9467,4.83490302 0.23264,0.792341 0.23957,0.790797 1.57428,-0.351223 0.73734,-0.630885 2.65756,-1.848523 4.26716,-2.705861 z m -0.55092,-1.402327 c -0.25975,-0.42027402 0.40096,-0.83669202 0.86878,-0.54756202 0.39279,0.242759 0.13493,0.87451602 -0.35695,0.87451602 -0.17037,0 -0.4007,-0.147129 -0.51183,-0.326954 z m -6.51262,-1.98526202 c 0,-0.62023398 0.75609,-0.51221998 0.97318,0.139026 0.0765,0.229392 -0.11122,0.417076 -0.41708,0.417076 -0.30586,0 -0.5561,-0.250246 -0.5561,-0.556102 z m 8.23271,5.39603902 c 2.05733,-1.591847 2.23559,-1.902617 0.77218,-1.34623 -0.50973,0.193796 -0.92677,0.281302 -0.92677,0.194458 0,-0.328866 2.13259,-1.240009 4.44612,-1.899592 2.16087,-0.61606202 2.2696,-0.68752302 1.08023,-0.70995802 -0.94639,-0.01785 -2.49967,0.56516102 -5.46196,2.05010902 -2.27671,1.141281 -4.34828,2.326657 -4.6035,2.63417 -0.41297,0.497603 -0.28567,0.559114 1.15711,0.559114 1.36862,0 1.91948,-0.230848 3.53659,-1.482071 z m 14.56311,-6.753738 c 1.25482,-2.767453 4.7109495,-8.7850723 7.6252095,-13.2765783 1.22203,-1.883432 2.15783,-3.424421 2.07955,-3.424421 -0.0783,0 -1.30217,1.540989 -2.71975,3.424421 C -10.03442,-9.9748797 -16.03335,1.3159063 -14.20351,0.18500628 c 0.19768,-0.122175 0.81105,-1.21817998 1.36304,-2.43556798 z m -59.73256,-1.203703 c 0.38186,-0.24206 0.37197,-0.334 -0.0535,-0.497256 -0.54285,-0.208312 -0.94184,0.0087 -0.94184,0.512294 0,0.371628 0.39474,0.365664 0.99531,-0.01504 z m 65.6467195,-7.9236283 c 0.14624,-0.223726 -0.0752,-0.01977 -0.49215,0.453235 -0.83644,0.9489533 -3.4638395,5.4407933 -3.8305995,6.5488373 -0.12787,0.386345 0.7326,-0.939547 1.9121795,-2.946426 1.17957,-2.006879 2.26433,-3.8319203 2.41057,-4.0556463 z M -71.54251,-4.9026547 c 0.62064,-0.993815 1.26576,-0.920908 0.77693,0.08781 -0.32485,0.670344 -0.3134,0.705636 0.0754,0.232589 0.25212,-0.306713 0.65597,-0.491105 0.89743,-0.409759 0.76379,0.257308 0.47905,-0.147962 -0.77715,-1.106114 l -1.21618,-0.927627 -0.55429,1.071867 c -0.80192,1.550741 -0.0955,2.481601 0.79781,1.051238 z m 57.68202,-0.702445 c 0,-0.193173 -0.15805,-0.351223 -0.35122,-0.351223 -0.19317,0 -0.35122,0.15805 -0.35122,0.351223 0,0.193172 0.15805,0.351222 0.35122,0.351222 0.19317,0 0.35122,-0.15805 0.35122,-0.351222 z m -52.82638,-0.566408 c 1.15495,-0.289872 1.06258,-0.604829 -0.37897,-1.292258 l -1.2244,-0.583876 -0.5265,1.01813 c -0.55015,1.063868 -0.22707,1.548598 0.81279,1.219476 0.25941,-0.08211 0.8521,-0.244768 1.31708,-0.361472 z m 12.96861,-1.920395 c -0.28533,-0.853742 -1.00285,-3.7649613 -1.59448,-6.4693753 -1.23597,-5.649733 -1.47939,-6.395593 -1.20357,-3.687838 0.30998,3.043131 2.77908,12.2472233 3.17835,11.8479563 0.0762,-0.07617 -0.095,-0.837002 -0.3803,-1.690743 z m -16.10267,0.402063 c 0.3814,-1.010434 0.11104,-1.427487 -0.92539,-1.427487 -0.47624,0 -0.70795,1.51664 -0.30576,2.001254 0.56299,0.678364 0.80026,0.567787 1.23115,-0.573767 z m 0.60127,0.485996 c 0.11994,-0.312562 0.0611,-0.453542 -0.13803,-0.330495 -0.19096,0.11802 -0.3472,0.363304 -0.3472,0.545076 0,0.50521 0.25174,0.393883 0.48523,-0.214581 z M 1.8076395,-10.434412 c -0.25132,-0.724397 -0.55424,-1.819635 -0.67314,-2.433863 -0.20442995,-1.055997 -0.13569995,-1.146935 1.26278,-1.670855 l 1.47898,-0.554078 -1.47649,0.179718 -1.47648995,0.179718 -0.20829,-1.318643 c -0.11456,-0.725255 -0.28749,-1.834566 -0.38429,-2.465136 -0.19158,-1.248007 0.55225,-4.999905 0.99124995,-4.999905 0.14925,0 0.27136,0.18966 0.27136,0.421467 0,0.322833 0.10077,0.320692 0.43061,-0.0091 0.34001,-0.340006 0.5627,-0.262408 1.05829,0.368784 0.37116,0.4727 0.54364,0.561176 0.42204,0.216491 -0.13781,-0.39066 0.0344,-0.6591 0.52222,-0.81392 0.40031,-0.127055 0.72784,-0.457434 0.72784,-0.734175 0,-0.276741 0.14407,-0.503166 0.32015,-0.503166 0.76971,0 -0.13401,-1.795175 -1.1982,-2.380132 -0.64343,-0.353674 -0.56966,-0.444927 0.87805,-1.086091 0.86928,-0.384987 2.60783,-0.981289 3.86345,-1.325116 1.8800905,-0.514824 3.3960475,-1.412701 3.0200345,-1.788714 -0.236535,-0.236535 -5.4498845,1.464406 -7.2070445,2.351417 -1.82095,0.919216 -2.13057,1.244867 -3.08037,3.239924 -1.87111995,3.930303 -1.93157995,4.310877 -1.36730995,8.605593 0.54892,4.177896 1.46907995,7.8369163 1.97079995,7.8369163 0.1709,0 0.1051,-0.592688 -0.14623,-1.3170853 z M -68.49629,-9.9842127 c -0.37497,-0.2836163 -0.91884,-0.5150903 -1.2086,-0.5143893 -0.30554,7.4e-4 -0.15802,0.212111 0.35122,0.5032183 1.15433,0.659872 1.72487,0.667305 0.85738,0.011171 z m 41.2205,-0.1339863 0.80921,-0.228407 -1.02678,-1.376898 -1.02679,-1.376899 -4.17271,0.08145 c -5.33338,0.104108 -10.87747,-0.7092 -15.41184,-2.260885 -1.93172,-0.661047 -3.67027,-1.243951 -3.86345,-1.295341 -0.19317,-0.05139 -0.35122,0.299804 -0.35122,0.780432 0,0.763133 0.37831,1.034371 2.98539,2.140449 1.64197,0.696619 4.32882,1.597453 5.97079,2.001853 5.29565,1.30427 13.97095,2.1316273 16.0874,1.534244 z m -34.8135,-0.821095 c -0.11212,-0.280182 -0.19534,-0.196958 -0.2122,0.212197 -0.0153,0.370247 0.0678,0.577688 0.18447,0.460979 0.11671,-0.116708 0.12919,-0.419638 0.0277,-0.673176 z m 37.33769,-0.10589 c 0.23871,-0.287632 0.59859,-0.421262 0.79972,-0.296956 0.20113,0.124306 0.26742,0.06701 0.14732,-0.12732 -0.1201,-0.194332 0.8767,-1.206566 2.21511,-2.249408 1.33842,-1.042843 2.62523,-2.351012 2.85957,-2.907042 0.41118,-0.975601 0.35073,-1.083796 -1.72827,-3.093196 -1.92587,-1.861401 -2.2345,-2.039339 -2.91005,-1.677794 -0.65965,0.353035 -0.92113,0.242904 -2.05726,-0.866501 l -1.30156,-1.27094 -1.55705,1.115437 c -0.85638,0.613491 -2.13396,1.629951 -2.83907,2.258802 l -1.28203,1.143364 3.38936,4.244059 c 1.86415,2.334233 3.48855,4.2455 3.60977,4.247261 0.12123,0.0018 0.41573,-0.232135 0.65444,-0.519766 z m -34.97538,-6.592596 c 1.08001,-3.237456 1.9563,-6.003334 1.94731,-6.146397 -0.088,-1.39937 -4.19832,10.297926 -4.19832,11.947668 0,0.799187 0.35011,-0.103128 2.25101,-5.801271 z m 40.86844,3.508129 c 1.59745,-0.970331 2.83986,-1.828838 2.7609,-1.907794 -0.24989,-0.249897 -3.65902,1.535134 -5.21923,2.732807 -3.03811,2.332169 -2.37043,2.108097 2.45833,-0.825013 z m -19.43607,0.07564 c -3.51281,-0.34097 -8.33635,-1.468016 -11.15446,-2.6063 -2.24375,-0.906292 -3.11078,-0.949818 -1.41024,-0.0708 2.76683,1.430201 9.77487,2.995299 13.29129,2.968332 2.00683,-0.01539 1.97218,-0.02928 -0.72659,-0.291235 z m 8.54539,0.129473 c -0.3358,-0.08791 -0.968,-0.0911 -1.40489,-0.0071 -0.43689,0.08401 -0.16214,0.155935 0.61055,0.159833 0.77269,0.0039 1.13014,-0.06484 0.79434,-0.152746 z m 28.76535955,-1.251378 c -0.0974,-0.241465 -0.17716005,-0.0439 -0.17716005,0.439029 0,0.482931 0.0797,0.680493 0.17716005,0.439028 0.0974,-0.241466 0.0974,-0.636591 0,-0.878057 z M -30.82392,-14.684092 c 0.76422,-0.225723 0.76556,-0.238618 0.11468,-1.097422 -0.62786,-0.82843 -0.68987,-0.840732 -1.32779,-0.263417 -0.83283,0.753694 -1.28504,0.762308 -2.00908,0.03827 -0.52229,-0.522288 -0.61709,-0.522288 -1.19422,0 -0.78878,0.713838 -1.06026,0.710723 -1.8693,-0.02145 -0.49876,-0.45137 -0.74702,-0.492354 -1.06377,-0.175612 -0.56495,0.564956 -1.50374,0.518977 -2.01642,-0.09876 -0.28687,-0.345665 -0.77151,-0.442597 -1.49221,-0.298457 -0.79048,0.158096 -1.15314,0.06016 -1.39811,-0.37757 -0.25086,-0.448267 -0.61223,-0.538236 -1.49596,-0.372446 -0.69695,0.130747 -1.26059,0.06425 -1.40256,-0.165461 -0.13055,-0.211229 -0.59502,-0.294288 -1.03215,-0.184574 -0.49383,0.123943 -0.96638,-0.0073 -1.24794,-0.346539 -0.28512,-0.343543 -0.75315,-0.470723 -1.26217,-0.342969 -0.60157,0.150985 -0.91614,0.0029 -1.22684,-0.577679 -0.33222,-0.620752 -0.48096,-0.681045 -0.72593,-0.294249 -0.49781,0.786052 -0.41516,0.874416 1.70069,1.818295 2.50548,1.117698 7.02878,2.28295 10.37355,2.672343 3.05916,0.356144 7.51247,0.401685 8.57553,0.0877 z m -44.85176,-0.545889 c 0,-0.07803 -0.5165,-1.065842 -1.14777,-2.195141 -1.35651,-2.42668 -5.17423,-10.541166 -5.17423,-10.997723 0,-0.174483 1.17726,0.226688 2.61614,0.89149 2.79713,1.292357 11.11462,4.475951 11.22638,4.296998 0.0369,-0.05912 0.35561,-1.055787 0.7082,-2.214821 0.3526,-1.159035 1.25222,-3.431205 1.99916,-5.049267 1.32861,-2.878126 1.38096,-2.937351 2.41393,-2.730756 1.27388,0.254774 1.42728,-0.304342 0.17008,-0.619879 -0.77137,-0.193606 -0.83539,-0.316496 -0.49559,-0.951406 0.29393,-0.54923 0.64243,-0.69208 1.41263,-0.57903 0.81073,0.11899 1.02243,0.0172 1.02243,-0.49156 0,-0.58656 -0.37068,-0.64162 -4.32008,-0.64162 -4.08169,0 -12.51935,0.5021 -14.82156,0.88198 -0.96881,0.15986 -1.14125,0.42126 -2.14127,3.245976 l -1.0876,3.072112 1.79005,3.900619 c 2.85906,6.230061 5.8291,11.418013 5.8291,10.182028 z m 2.10734,-10.355818 c -3.79001,-1.460722 -8.79448,-3.739565 -8.77391,-3.995302 0.004,-0.04551 0.37159,-1.268126 0.81763,-2.716919 l 0.81098,-2.634166 1.55312,-0.23739 c 0.85422,-0.13056 3.52875,-0.23944 5.9434,-0.24196 l 4.39029,-0.005 -1.93173,0.64495 c -2.29609,0.76661 -2.21711,0.79851 2.19793,0.88759 1.88496,0.03803 3.49885,0.140797 3.58642,0.228367 0.0876,0.08757 -0.47192,1.732673 -1.24332,3.655785 -0.77139,1.923112 -1.58054,4.089256 -1.7981,4.813653 -0.21756,0.724396 -0.5681,1.311449 -0.77899,1.304561 -0.21089,-0.0069 -2.35906,-0.773957 -4.77372,-1.704599 z m 4.39028,-0.390213 c -0.11938,-0.193173 -0.48432,-0.348803 -0.81098,-0.345845 -0.51182,0.0046 -0.52109,0.05243 -0.0671,0.345845 0.68782,0.444506 1.15277,0.444506 0.87805,0 z m 0.17561,-1.404891 c -0.68782,-0.444507 -1.15277,-0.444507 -0.87805,0 0.11939,0.193172 0.48433,0.348802 0.81098,0.345844 0.51182,-0.0046 0.5211,-0.05243 0.0671,-0.345844 z m 0.60733,-1.265865 c -0.11671,-0.116708 -0.41964,-0.129186 -0.67318,-0.02773 -0.28018,0.112119 -0.19696,0.195344 0.2122,0.212197 0.37024,0.01525 0.57769,-0.06776 0.46098,-0.184469 z m 1.50001,-6.077078 c -1.16814,-0.21478 -1.18561,-0.23844 -0.35122,-0.4758 0.48293,-0.13738 1.46578,-0.25194 2.18412,-0.25458 1.01775,-0.004 1.26143,0.1115 1.10389,0.52204 -0.20984,0.54683 -0.84913,0.59218 -2.93679,0.20834 z m 34.44306,16.708551 c -0.26059,-0.260684 -1.96605,-0.428433 -4.69435,-0.461736 -4.44156,-0.05421 -8.52228,-0.721313 -11.62569,-1.900516 -0.96211,-0.365574 -1.80918,-0.604796 -1.88237,-0.531604 -0.40848,0.408473 0.90115,1.606369 1.75619,1.606369 0.53305,0 0.96918,0.170608 0.96918,0.379129 0,0.233808 0.38243,0.295135 0.99771,0.159997 0.67968,-0.149283 1.13925,-0.04858 1.44177,0.315936 0.29472,0.355121 0.63837,0.435392 1.02183,0.238686 0.68808,-0.35298 1.48886,-0.11956 2.00843,0.585441 0.31733,0.430579 0.49492,0.437927 1.12183,0.04642 0.63204,-0.394715 0.84086,-0.380451 1.3791,0.0942 0.41876,0.369278 1.02326,0.499459 1.77898,0.383102 0.66278,-0.102047 1.3714,0.01191 1.68319,0.270672 0.40788,0.338513 0.63713,0.348296 0.94509,0.04034 0.5662,-0.566208 1.50144,-0.507234 2.02857,0.127919 0.39114,0.471299 0.50485,0.447035 0.9617,-0.20521 0.39442,-0.563105 0.4204,-0.83746 0.10884,-1.14914 z m 18.82591,0.122001 c 2.04227,-0.963333 4.9512895,-2.642933 6.4644795,-3.732444 2.64512,-1.904495 2.79804,-2.092653 3.96335,-4.876425 1.05415,-2.518221 3.73795005,-10.571103 3.73795005,-11.215903 0,-0.12602 -0.71836,0.19186 -1.59637005,0.70641 -0.878,0.51454 -1.67996,0.85194 -1.78213,0.74977 -0.10217,-0.10217 -2.15685,0.76707 -4.56596,1.93165 -2.40911,1.164582 -4.4682595,2.029367 -4.5758695,1.921748 -0.10762,-0.107619 0.96639,-0.777999 2.3866795,-1.489738 3.58436,-1.79617 9.63424005,-5.34933 10.13447005,-5.95207 0.3309,-0.39871 0.0765,-1.13355 -1.25549,-3.62631 -2.25083005,-4.21239 -2.46222005,-4.48285 -3.09395005,-3.95857 -0.75405,0.62581 -2.57552,-0.2547 -4.16055,-2.01124 -1.39015,-1.54058 -2.1604295,-3.0719 -2.5231595,-5.01606 -0.17911,-0.96002 -0.0865,-0.85597 0.47613,0.53497 0.6404595,1.58332 1.7950495,3.35252 1.2456595,1.90874 -0.34192,-0.89857 1.32509,-1.69999 1.83524,-0.8823 0.13992,0.22426 0.25908,1.19193 0.26482,2.15037 0.009,1.52618 0.12924,1.80932 0.96708,2.27961 0.87284,0.48993 1.01032,0.48331 1.56914,-0.0755 0.58251,-0.5825 0.57401,-0.63944 -0.17352,-1.16304 -1.17612,-0.82378 -2.84225,-3.96783 -3.09394,-5.83838 -0.19773,-1.46952 -0.33519,-1.67466 -1.25798,-1.87734 -0.56979,-0.12515 -1.13464,-0.12889 -1.25521,-0.008 -0.1205695,0.12057 -1.2853195,-0.83871 -2.5883395,-2.13175 l -2.36913,-2.35097 -2.04024,1.53783 c -1.12213,0.84581 -3.30464,2.65819 -4.85002,4.02751 -3.97878,3.5255 -4.44009,3.57234 -0.76774,0.078 2.42745,-2.30981 2.99608,-3.02812 2.63417,-3.32757 -2.40182,-1.98732 -15.33176,-6.68597 -15.87434,-5.76863 -0.46747,0.79034 -2.3741,7.4844 -3.00641,10.55527 -0.723,3.51136 -1.71831,12.85845 -1.40247,13.17076 0.0843,0.0833 0.97517,0.3005 1.97979,0.48261 l 1.82657,0.3311 2.18521,-2.96949 c 2.37909,-3.23296 7.01913,-8.32623 8.12399,-8.91754 0.57965,-0.31022 0.91472,-0.15188 2.07391,0.98003 2.72536,2.66125 8.2123,11.74241 10.33461,17.10431 l 0.95282,2.407266 -0.60597,2.819921 c -0.65367,3.041895 -2.87336,9.524838 -4.05271,11.836558 -0.40369,0.791298 -0.56083,1.426733 -0.35282,1.426733 0.20627,0 2.04599,-0.788182 4.08825,-1.751516 z m -2.46181,0.10943 c -0.1271,-0.127106 -0.2311,-0.3459 -0.2311,-0.48621 0,-0.393838 1.00799,-0.688322 1.21417,-0.354719 0.23248,0.376159 -0.67315,1.150846 -0.98307,0.840929 z m 2.57868,-5.879933 c 0,-0.305856 0.25025,-0.556102 0.55611,-0.556102 0.62023,0 0.51222,0.756098 -0.13903,0.973179 -0.22939,0.07646 -0.41708,-0.11122 -0.41708,-0.417077 z m 5.9876295,-2.116308 c -0.23896,-0.287932 -0.36699,-0.725968 -0.28451,-0.973414 0.0949,-0.284674 0.31102,-0.148976 0.5885,0.369495 0.51632,0.964763 0.31969,1.355406 -0.30399,0.603919 z m 0.071,-1.939198 c -0.43464,-0.551088 -0.78674,-1.214057 -0.78245,-1.473263 0.008,-0.462213 1.06382,0.670783 1.77066,1.899469 0.55795,0.96989 -0.11657,0.678976 -0.98821,-0.426206 z m -4.5732195,-3.239681 c 0.21709,-0.651245 0.97318,-0.759259 0.97318,-0.139025 0,0.305856 -0.25024,0.556102 -0.5561,0.556102 -0.30586,0 -0.49354,-0.187685 -0.41708,-0.417077 z m 5.6195695,-2.458558 c 0.21708,-0.651244 0.97318,-0.759264 0.97318,-0.139026 0,0.305856 -0.25025,0.556102 -0.55611,0.556102 -0.30585,0 -0.49354,-0.187684 -0.41707,-0.417076 z m -6.0512795,-0.812204 c 0,-0.28976 0.15805,-0.52683 0.35122,-0.52683 0.19318,0 0.35123,0.23707 0.35123,0.52683 0,0.28976 -0.15805,0.526835 -0.35123,0.526835 -0.19317,0 -0.35122,-0.237075 -0.35122,-0.526835 z m 10.5893695,-1.21172 c 0.15092,-0.45277 0.63266,-0.5341 0.6761,-0.11414 0.0145,0.14005 -0.16332,0.31785 -0.39513,0.39512 -0.2318,0.0773 -0.35824,-0.0492 -0.28097,-0.28098 z m -6.55024,-7.78735 c 0.31569,-2.34806 0.8519,-3.45389 0.86731,-1.78867 0.006,0.63461 0.26916,1.54833 0.58509,2.03049 0.31592,0.48217 0.4777,0.97338 0.35949,1.09158 -0.11821,0.11821 -0.31458,-0.0448 -0.43638,-0.36218 -0.27313,-0.71178 -0.84874,-0.75993 -0.84874,-0.071 0,0.27836 -0.17566,0.61467 -0.39036,0.74736 -0.27929,0.17261 -0.3181,-0.2962 -0.13641,-1.64758 z m -8.9562395,-0.10345 c 0,-0.30586 0.25024,-0.5561 0.5561,-0.5561 0.62023,0 0.51222,0.7561 -0.13903,0.97318 -0.22939,0.0765 -0.41707,-0.11122 -0.41707,-0.41708 z m 8.1378095,-0.5561 c 0.006,-0.67611 0.13687,-1.62441 0.29153,-2.10734 0.2416,-0.7544 0.28266,-0.68021 0.29153,0.52684 0.006,0.77269 -0.12551,1.72099 -0.29153,2.10733 -0.24348,0.56662 -0.29986,0.46474 -0.29153,-0.52683 z m -5.6792595,-7.37568 c 0.41266,-0.57952 0.9069,-1.05367 1.09832,-1.05367 0.38252,0 0.13444,0.54512 -0.67934,1.4927 -0.88613,1.03183 -1.2184,0.68366 -0.41898,-0.43903 z m -8.18564,-1.62949 c -0.28061,-0.2806 0.0366,-0.82907 0.47947,-0.82907 0.18178,0 0.3305,0.23708 0.3305,0.52684 0,0.54313 -0.41443,0.69777 -0.80997,0.30223 z m -8.32182,-1.55006 c 0,-0.42731 0.8732,-0.80259 1.43314,-0.61594 0.22145,0.0738 -0.0104,0.32241 -0.51525,0.55243 -0.57603,0.26246 -0.91789,0.28611 -0.91789,0.0635 z m -2.80978,-0.33267 c 0,-0.19318 0.0405,-0.35123 0.0901,-0.35123 0.0496,0 0.60275,-0.14701 1.22928,-0.3267 1.35194,-0.38773 1.52035,0.0403 0.24457,0.62155 -1.09774,0.50017 -1.56397,0.51697 -1.56397,0.0564 z m 15.10257,-2.10734 c 0,-0.19317 0.15805,-0.35122 0.35122,-0.35122 0.19318,0 0.35123,0.15805 0.35123,0.35122 0,0.19317 -0.15805,0.35122 -0.35123,0.35122 -0.19317,0 -0.35122,-0.15805 -0.35122,-0.35122 z m -4.67342,-1.98071 c -0.2806,-0.28061 0.0366,-0.82907 0.47948,-0.82907 0.18177,0 0.33049,0.23707 0.33049,0.52683 0,0.54314 -0.41443,0.69778 -0.80997,0.30224 z m 8.42935,-0.35123 c -0.28061,-0.2806 0.0366,-0.82906 0.47947,-0.82906 0.18177,0 0.3305,0.23707 0.3305,0.52683 0,0.54313 -0.41443,0.69778 -0.80997,0.30223 z m -16.91178,-2.20969 c -0.25974,-0.42027 0.40097,-0.83669 0.86879,-0.54756 0.39279,0.24276 0.13493,0.87452 -0.35695,0.87452 -0.17038,0 -0.4007,-0.14713 -0.51184,-0.32696 z m -20.21568,43.416844 c 0.003,-0.350535 0.32812,-1.387567 0.72258,-2.304517 l 0.7172,-1.667181 -1.38902,-2.763855 -1.38903,-2.763855 -0.37466,1.391385 c -0.20606,0.765262 -0.62787,1.702603 -0.93735,2.082979 -0.55857,0.68653 -0.5609,0.68645 -0.31856,-0.01085 0.13427,-0.386345 0.32927,-1.018546 0.43332,-1.40489 0.10405,-0.386345 0.50254,-1.151874 0.88553,-1.701176 l 0.69634,-0.99873 1.05356,2.523575 c 0.72716,1.741769 1.14456,2.377603 1.34732,2.052398 0.54258,-0.870256 0.7454,-3.424453 0.35976,-4.530687 -0.30267,-0.868246 -0.26871,-1.315654 0.16329,-2.151048 0.82164,-1.588866 0.29853,-1.62704 -1.12602,-0.08217 -1.26465,1.371467 -0.97212,0.685601 0.35152,-0.82418 0.41669,-0.47529 0.56461,-0.910363 0.36789,-1.082062 -0.18096,-0.157937 -1.51439,-1.24513 -2.96318,-2.415986 -1.44879,-1.17085 -3.69928,-3.18433 -5.00108,-4.47439 -2.34497,-2.32382 -2.36504,-2.33475 -2.16444,-1.17939 0.77868,4.48497 4.01379,14.406172 7.05594,21.638678 0.88982,2.115491 1.49461,2.38238 1.50909,0.665956 z m -3.96726,-13.36521 c -0.15192,-0.554018 -0.1895,-1.094023 -0.0835,-1.200011 0.36637,-0.366372 0.59633,0.215124 0.47826,1.209345 l -0.11853,0.997972 z m 1.56954,-0.924418 c 0,-0.482931 0.0797,-0.680494 0.17715,-0.439029 0.0974,0.241466 0.0974,0.636592 0,0.878057 -0.0974,0.241466 -0.17715,0.0439 -0.17715,-0.439028 z m 40.02038,6.912902 c 0.56143,-1.718063 1.11921,-3.739235 1.2395,-4.491493 0.24449,-1.528935 0.082,-1.61176 -1.98072,-1.009493 -1.67185,0.488147 -11.55471,1.749088 -13.7088,1.749088 -0.95847,0 -1.74268,0.09574 -1.74268,0.212761 0,0.296812 4.56859,5.158883 5.90081,6.279874 0.83438,0.702087 1.24633,0.842521 1.72458,0.587919 0.50828,-0.270587 1.09812,0.09269 3.0869,1.901199 l 2.45856,2.235701 1.00053,-2.170902 c 0.55029,-1.193996 1.45988,-3.57659 2.02132,-5.294654 z m -18.67914,5.863229 c 0.0813,-0.07419 -0.1751,-0.489875 -0.56966,-0.923751 -0.39457,-0.433877 -1.14896,-1.453325 -1.67643,-2.265442 -0.8382,-1.290523 -1.16471,-1.505448 -2.59134,-1.705728 -0.89777,-0.126034 -1.80738,-0.448842 -2.02136,-0.717352 -0.21398,-0.26851 -0.87363,-0.585114 -1.46588,-0.703564 -0.99871,-0.199741 -1.13071,-0.104281 -1.81963,1.315871 -0.73641,1.518054 -0.75214,3.321123 -0.039,4.474952 0.45363,0.733996 9.44666,1.197643 10.18333,0.525014 z m 3.67662,-2.138031 c 1.37371,-1.103253 2.568,-2.056038 2.65396,-2.117299 0.38816,-0.276597 -4.76263,-5.008575 -5.45186,-5.008575 -0.63228,0 -0.8698,-0.422664 -1.52963,-2.721975 -0.42962,-1.497087 -0.90076,-3.117097 -1.04699,-3.600037 -0.3474,-1.14733 -1.084,4.381933 -1.084,8.137021 0,2.400724 0.10173,2.788476 1.09955,4.190885 1.20219,1.689667 2.44192,3.125895 2.69822,3.125895 0.0897,0 1.28704,-0.902662 2.66075,-2.005915 z m -14.69846,0.0437 c -0.24974,-1.66537 -1.64547,-4.654109 -2.39624,-5.131167 -0.68978,-0.438303 -1.30539,-0.322981 -1.30539,0.244539 0,0.294832 -0.31316,0.526834 -0.71114,0.526834 -0.87568,0 -1.47167,1.406816 -1.32554,3.128907 0.10185,1.200295 0.17762,1.26005 2.56352,2.021665 3.47591,1.109569 3.46034,1.113447 3.17479,-0.790778 z m 41.4304795,0.362498 1.05367,-0.514365 -1.2183,0.185569 c -0.67007,0.102063 -1.37339,0.340656 -1.56294,0.530206 -0.51918,0.519178 0.49325,0.401143 1.72757,-0.20141 z m -33.0899795,-13.854086 0.20734,-2.63417 -1.21905,4.74151 c -1.19508,4.648301 -1.20715,4.765671 -0.61391,5.970786 l 0.60514,1.229279 0.40657,-3.336615 c 0.22362,-1.835139 0.49988,-4.521992 0.61391,-5.97079 z m -2.22736,5.180539 c 0.21018,-1.014156 0.69642,-3.452999 1.08056,-5.419649 0.38413,-1.96666 0.79105,-3.81713 0.90426,-4.11216 0.14053,-0.3662 -0.0551,-0.59044 -0.61634,-0.70663 -6.43339,-1.33174 -6.12537,-1.33627 -7.07579,0.10414 -2.00505,3.03875 -5.58651,9.93544 -5.29839,10.20294 0.17208,0.159771 2.13045,0.544692 4.35194,0.85538 4.39364,0.614478 5.66745,0.798594 6.0334,0.872067 0.13102,0.02631 0.41019,-0.781933 0.62036,-1.796088 z m 8.09759,-7.547459 c 0.0966,-0.0873 -0.37026,-0.10409 -1.03743,-0.0374 -1.04287,0.10432 -1.24735,-0.002 -1.45768,-0.75672 -0.13456,-0.48293 -0.26041,-1.46773 -0.27966,-2.18845 -0.0393,-1.46878 -0.38486,-1.28998 4.70649,-2.43495 1.54538,-0.34754 2.09856,-0.54815 1.22928,-0.4458 -0.86928,0.10234 -2.64734,0.42817 -3.95125,0.72406 l -2.37076,0.538 0.002,1.28893 c 10e-4,0.70891 0.16514,1.87647 0.36457,2.59457 0.34213,1.23188 0.42634,1.29351 1.49074,1.09102 0.62047,-0.11804 1.20715,-0.28602 1.30374,-0.3733 z m 1.66099,-0.30383 c -0.11671,-0.11671 -0.41964,-0.12919 -0.67318,-0.0277 -0.28018,0.11212 -0.19696,0.19534 0.2122,0.2122 0.37024,0.0153 0.57769,-0.0678 0.46098,-0.18447 z m 1.58782,-0.37163 c -0.24147,-0.0974 -0.63659,-0.0974 -0.87806,0 -0.24147,0.0974 -0.0439,0.17715 0.43903,0.17715 0.48293,0 0.68049,-0.0797 0.43903,-0.17715 z m 0.3461,-1.01822 c 3.02004,-0.59 3.0649,-0.61377 2.86494,-1.5182 -0.40651,-1.83869 -0.54393,-2.14798 -0.95176,-2.14206 -0.63394,0.009 -6.56387,1.28389 -6.72573,1.44575 -0.0782,0.0782 -0.0509,0.82237 0.0606,1.65374 0.17666,1.31705 0.29805,1.48897 0.94332,1.33587 0.40731,-0.0967 2.12121,-0.44544 3.80865,-0.7751 z m 1.5783,0.6874 c -0.1167,-0.1167 -0.41963,-0.12918 -0.67317,-0.0277 -0.28018,0.11212 -0.19696,0.19534 0.21219,0.21219 0.37025,0.0153 0.57769,-0.0678 0.46098,-0.18447 z m 1.75612,-0.35122 c -0.11671,-0.11671 -0.41964,-0.12919 -0.67318,-0.0277 -0.28018,0.11212 -0.19696,0.19535 0.2122,0.2122 0.37024,0.0152 0.57769,-0.0678 0.46098,-0.18447 z m 0.68974,-1.44943 c -0.089,-0.34172 -0.16777,-0.14717 -0.17493,0.43235 -0.007,0.57952 0.0657,0.85911 0.16191,0.62132 0.0962,-0.23779 0.10207,-0.71194 0.013,-1.05367 z m -23.09035,-0.6495 c 0.9199,-1.28093 1.06465,-1.69239 0.71046,-2.01953 -0.34345,-0.31723 -0.38619,-0.30735 -0.18756,0.0434 0.15118,0.26693 -0.14207,0.991 -0.71123,1.75611 -0.53265,0.71605 -1.00383,1.35124 -1.04705,1.41153 -0.13557,0.18911 -6.82526,-4.20338 -6.82526,-4.4815 0,-0.42185 2.08211,-3.17941 2.40064,-3.17941 0.15889,0 1.43072,0.8872 2.82628,1.97156 1.39556,1.08435 2.59072,1.91412 2.6559,1.84392 0.0652,-0.0702 -1.14589,-1.14769 -2.69126,-2.39443 l -2.80976,-2.26678 -0.99084,1.21312 c -0.54496,0.66721 -1.23926,1.63321 -1.54289,2.14666 l -0.55205,0.93355 3.59544,2.31526 c 1.9775,1.2734 3.6896,2.31526 3.80468,2.31526 0.11508,0 0.7291,-0.72391 1.3645,-1.60868 z m -0.67984,-0.68384 c 0.42303,-0.79044 0.40069,-0.93975 -0.20407,-1.3636 -0.37351,-0.26178 -1.45779,-1.11958 -2.40951,-1.90622 l -1.7304,-1.43026 -0.81597,1.10598 c -0.44878,0.60829 -0.81596,1.15542 -0.81596,1.21586 0,0.213 4.74649,3.21725 5.12118,3.2414 0.20883,0.0135 0.59345,-0.37496 0.85473,-0.86316 z m 23.40818,-0.60506 c -0.0974,-0.24147 -0.17715,-0.0439 -0.17715,0.43902 0,0.48294 0.0797,0.6805 0.17715,0.43903 0.0974,-0.24146 0.0974,-0.63659 0,-0.87805 z m -17.4409,-1.93173 c 0.003,-4.64937 1.93562,-15.20769 3.67945,-20.1034 0.30883,-0.86702 1.26858,-2.4764 2.13278,-3.57638 0.89993,-1.14546 1.41919,-2.09397 1.21533,-2.21997 -0.19577,-0.12099 -0.35595,-0.37235 -0.35595,-0.55858 0,-0.18622 0.38912,-0.0836 0.8647,0.22799 1.52082,0.99647 4.50242,-0.50186 3.18101,-1.59854 -0.35844,-0.29748 -0.66152,-0.28273 -1.20841,0.0588 -0.57233,0.35742 -0.87519,0.36518 -1.40246,0.0359 -0.53032,-0.33119 -0.75371,-0.32212 -1.05667,0.0429 -0.2113,0.2546 -1.44967,0.57009 -2.75193,0.70109 -1.30226,0.13099 -2.99995,0.31452 -3.77264,0.40783 -1.22032,0.14737 -1.29232,0.12067 -0.54807,-0.20328 0.85346,-0.37149 0.84945,-0.37942 -1.0256,-2.02795 -1.03532,-0.91025 -2.18374,-1.87001 -2.55204,-2.1328 -0.62706,-0.44743 -0.62242,-0.38527 0.073,0.97782 0.88759,1.73983 1.58367,3.63224 1.04337,2.83659 -0.19677,-0.28976 -1.1594,-1.91968 -2.13917,-3.62205 -1.98156,-3.44297 -1.75916,-3.37099 -4.78434,-1.54846 -1.71985,1.03612 -1.90685,1.28396 -2.57087,3.40737 -0.39386,1.25949 -0.9646,4.03165 -1.26832,6.16036 -0.53943,3.78079 -0.53546,3.90275 0.17151,5.26834 0.57695,1.11445 0.77179,1.27583 0.96073,0.79578 0.14231,-0.36157 -0.0424,-0.99452 -0.46221,-1.58413 -0.65665,-0.92218 -0.67134,-1.14212 -0.24129,-3.6125 0.53166,-3.05405 1.44583,-6.70182 1.96019,-7.82169 0.50763,-1.1052 3.77004,-3.19989 4.29944,-2.76052 0.22745,0.18876 1.121,1.78652 1.98566,3.55056 1.46597,2.99081 1.63185,3.19261 2.45701,2.98912 0.53637,-0.13227 0.74657,-0.0935 0.53369,0.0984 -0.19317,0.17413 -1.68631,1.4763 -3.31809,2.89372 -1.85566,1.61189 -2.64493,2.48255 -2.10733,2.32463 2.11739,-0.62199 6.30876,-1.244 8.2352,-1.22212 1.98324,0.0225 1.90775,0.0512 -1.28181,0.48634 -3.87673,0.52891 -8.78056,1.81547 -9.16169,2.40363 -0.14192,0.21901 -0.26046,1.62121 -0.26341,3.11598 -0.008,4.07827 2.3108,10.92377 5.45199,16.09473 1.2011,1.97722 1.33818,2.08524 2.64618,2.08524 h 1.37946 z m -1.75773,0.43903 c 0,-0.28976 0.15805,-0.52683 0.35122,-0.52683 0.19317,0 0.35122,0.23707 0.35122,0.52683 0,0.28976 -0.15805,0.52683 -0.35122,0.52683 -0.19317,0 -0.35122,-0.23707 -0.35122,-0.52683 z m 0.17561,-6.1464 c -0.14019,-0.22683 -0.0968,-0.57048 0.0963,-0.76365 0.23414,-0.23415 0.43618,-0.21374 0.60611,0.0612 0.1402,0.22683 0.0969,0.57048 -0.0963,0.76365 -0.23415,0.23415 -0.43619,0.21375 -0.60612,-0.0612 z m 0.70244,-5.97078 c -0.14019,-0.22684 -0.0968,-0.57048 0.0963,-0.76365 0.23415,-0.23415 0.43619,-0.21375 0.60612,0.0612 0.14019,0.22684 0.0968,0.57048 -0.0963,0.76365 -0.23415,0.23415 -0.43619,0.21375 -0.60612,-0.0612 z m -7.20006,-5.79518 c 0,-0.32195 0.1699,-0.52873 0.37756,-0.45951 0.20766,0.0692 0.37757,0.276 0.37757,0.45951 0,0.18352 -0.16991,0.3903 -0.37757,0.45952 -0.20766,0.0692 -0.37756,-0.13756 -0.37756,-0.45952 z m 8.42934,-0.35122 c 0,-0.32195 0.16991,-0.52874 0.37757,-0.45951 0.20766,0.0692 0.37756,0.276 0.37756,0.45951 0,0.18352 -0.1699,0.3903 -0.37756,0.45952 -0.20766,0.0692 -0.37757,-0.13756 -0.37757,-0.45952 z m 3.24149,-6.21225 c 0.21709,-0.65124 0.97318,-0.75926 0.97318,-0.13903 0,0.30586 -0.25024,0.55611 -0.5561,0.55611 -0.30585,0 -0.49354,-0.18769 -0.41708,-0.41708 z m 13.6172,24.82705 c 0,-0.37102 -0.33759,-0.51127 -1.14147,-0.47421 -1.06243,0.049 -1.07459,0.0628 -0.17562,0.19894 0.53123,0.0805 0.96587,0.29387 0.96587,0.47421 0,0.18034 0.079,0.3279 0.17561,0.3279 0.0966,0 0.17561,-0.23708 0.17561,-0.52684 z m -32.82433,-6.14639 c 1.4466,-1.64197 3.40494,-3.6176 4.35187,-4.39029 1.46649,-1.19664 1.68757,-1.53504 1.49146,-2.28294 -0.12663,-0.48294 -0.22794,-2.09164 -0.22513,-3.5749 l 0.005,-2.69683 -0.97373,1.46755 c -0.53555,0.80716 -0.9744,1.6793 -0.97523,1.9381 -8.2e-4,0.25879 -0.31234,0.73294 -0.69225,1.05366 -0.37991,0.32073 -2.03944,3.20603 -3.68784,6.41178 -2.86022,5.56247 -3.59801,7.29782 -2.44959,5.7617 0.28883,-0.38634 1.70873,-2.04587 3.15533,-3.68783 z m -0.31722,-0.94615 c -0.39554,-0.39554 -0.2409,-0.80997 0.30223,-0.80997 0.28976,0 0.52684,0.14872 0.52684,0.3305 0,0.44288 -0.54847,0.76008 -0.82907,0.47947 z m 3.99007,-4.81976 c 0,-0.30586 0.25025,-0.5561 0.5561,-0.5561 0.62024,0 0.51222,0.7561 -0.13902,0.97318 -0.2294,0.0765 -0.41708,-0.11122 -0.41708,-0.41708 z m 48.9955595,4.00979 c 0.27472,-0.4445 -0.19023,-0.4445 -0.87806,0 -0.45402,0.29341 -0.44475,0.34121 0.0671,0.34585 0.32665,0.003 0.69159,-0.15268 0.81098,-0.34585 z m -0.29467,-1.2898 c -0.30635,-0.30635 -1.65888,0.26789 -1.44523,0.61359 0.12152,0.19662 0.48545,0.17521 0.91324,-0.0537 0.39117,-0.20935 0.63056,-0.46128 0.53199,-0.55985 z m -1.0901,-0.61321 c 0.37467,-0.27396 0.60244,-0.57164 0.50616,-0.6615 -0.28449,-0.26553 -1.75556,0.40239 -1.75556,0.79708 0,0.50144 0.44415,0.45324 1.2494,-0.13558 z m -0.55713,-1.24427 c 0.28417,-0.17971 0.40952,-0.43389 0.27857,-0.56485 -0.3214,-0.3214 -1.32206,0.0874 -1.32206,0.54011 0,0.44609 0.36361,0.45471 1.04349,0.0247 z m -0.34105,-1.40759 c 0,-0.18711 -0.23707,-0.24922 -0.52683,-0.13803 -0.28976,0.11119 -0.52684,0.26428 -0.52684,0.3402 0,0.0759 0.23708,0.13803 0.52684,0.13803 0.28976,0 0.52683,-0.15309 0.52683,-0.3402 z m -0.67603,-3.92624 c 0.89306,-1.75054 0.86658,-1.92842 -1.30912,-8.7936 l -1.63451,-5.15753 -2.4791895,-1.10853 c -4.01444,-1.795 -3.77416,-1.91836 -6.70688,3.44326 -1.40302,2.56502 -2.66593,4.77773 -2.80644,4.91711 -0.14052,0.13939 -0.15097,-0.3063 -0.0232,-0.99043 l 0.23229,-1.24386 -3.3312,-1.12689 c -3.5384,-1.19698 -4.4464,-1.35172 -4.4464,-0.75774 0,0.47968 -2.40247,1.48364 -3.00086,1.25402 -0.25316,-0.0971 -1.13434,0.55462 -1.95817,1.44837 l -1.49787,1.62501 0.85769,0.25319 c 6.17747,1.82361 10.8245,3.45208 13.06381,4.57799 l 2.74007,1.37768 1.57667,-1.20388 1.57667,-1.20388 -1.67408,-1.21537 c -0.92075,-0.66846 -2.01249,-1.39141 -2.4261,-1.60655 -0.73879,-0.3843 -0.71255,-0.46976 1.49217,-4.85928 1.2343,-2.45746 2.37212,-4.59605 2.52849,-4.75242 0.28203,-0.28203 4.40465,1.21611 5.2499,1.90779 0.4521395,0.36999 3.5986295,9.89766 3.5986295,10.89677 0,0.3059 -0.31048,1.28052 -0.68996,2.16581 -0.56528,1.31874 -0.5983,1.60962 -0.18275,1.60962 0.27897,0 0.84163,-0.6555 1.25035,-1.45666 z m -45.4845895,-3.17991 c -0.38612,-0.55125 -0.49748,-1.33237 -0.38807,-2.72197 l 0.15345,-1.94886 -0.38605,1.8581 c -0.30264,1.45661 -0.28616,2.04477 0.0763,2.72198 0.25428,0.47513 0.60264,0.86387 0.77412,0.86387 0.17148,0 0.0681,-0.3479 -0.22972,-0.77312 z m 34.3442,-5.10986 c 1.80435,-3.60182 1.86781,-4.54313 0.077,-1.14147 -0.86444,1.64196 -1.57965,3.10393 -1.58935,3.24881 -0.048,0.71682 0.4342,0.0449 1.5124,-2.10734 z m -13.66946,-8.37438 c 0.13708,-2.04638 0.18073,-3.78919 0.097,-3.87292 -0.0837,-0.0837 -0.26258,1.23496 -0.39745,2.93043 -0.13487,1.69547 -0.33213,3.43828 -0.43836,3.87292 -0.10624,0.43464 -0.0395,0.79025 0.14821,0.79025 0.18775,0 0.45352,-1.67431 0.5906,-3.72068 z m 0.6287,-6.20136 c 0.0718,-0.7244 0.004,-1.31708 -0.15015,-1.31708 -0.15438,0 -0.26822,0.75073 -0.25297,1.6683 0.0305,1.83635 0.20103,1.68779 0.40312,-0.35122 z m -2.14013,-5.62542 c -0.23825,-0.23824 -0.61398,-0.43317 -0.83496,-0.43317 -0.22098,0 -0.71693,-0.55318 -1.10212,-1.22928 l -0.70034,-1.22928 0.70916,0.61541 c 0.39003,0.33847 0.79762,0.52693 0.90575,0.4188 0.10813,-0.10813 0.54719,0.29575 0.97568,0.89752 0.79647,1.11853 0.82678,1.73996 0.0468,0.96 z m 4.16784,0.15454 c 0,-0.17935 0.23534,-0.5214 0.52297,-0.76011 0.28763,-0.23872 0.44382,-0.56208 0.34709,-0.7186 -0.0967,-0.15651 0.33965,-0.63833 0.96973,-1.07071 0.63008,-0.43238 0.96039,-0.58325 0.73402,-0.33528 -0.22637,0.24797 -0.33739,0.64419 -0.24672,0.88048 0.0907,0.23629 -0.39583,0.85727 -1.08112,1.37996 -0.68528,0.5227 -1.24597,0.80361 -1.24597,0.62426 z m -2.23426,-1.73616 c -0.11911,-0.72056 -0.21733,-1.70523 -0.21827,-2.18817 l -0.002,-0.87805 0.52467,1.00601 c 0.57723,1.10679 0.69916,2.88375 0.21827,3.18096 -0.16852,0.10415 -0.40386,-0.40019 -0.52297,-1.12075 z"
       id="logo-face" /></g></svg>
