<?xml version="1.0" encoding="UTF-8" standalone="no"?>
<!-- Created with Inkscape (http://www.inkscape.org/) -->

<svg
   width="942.58386mm"
   height="942.48315mm"
   viewBox="0 0 942.58384 942.48318"
   version="1.1"
   id="svg1"
   xml:space="preserve"
   xmlns="http://www.w3.org/2000/svg"
   xmlns:svg="http://www.w3.org/2000/svg"><defs
     id="defs1" /><g
     id="logo-face"
     transform="translate(-172.43713,327.53682)"><path
       class="logo-face"
       d="m 626.6639,614.77069 c -36.44369,-1.44045 -70.79657,-6.56401 -104.64271,-15.60693 -67.14675,-17.94008 -129.6802,-50.6781 -182.68081,-95.63855 -17.53512,-14.87505 -35.59907,-32.68505 -50.82023,-50.1058 -37.28865,-42.67718 -66.64495,-91.94762 -86.4677,-145.12396 -15.65606,-41.9988 -25.20126,-86.1461 -28.34569,-131.10104 -0.69092,-9.87792 -0.93605,-15.97661 -1.10599,-27.51667 l -0.16364,-11.1125 0.30706,-8.86354 c 1.04524,-30.171565 4.24558,-56.901635 10.10528,-84.402075 23.6272,-110.886027 86.96515,-209.917455 178.04047,-278.373435 24.0398,-18.06932 47.6924,-32.57564 75.27395,-46.1661 51.00164,-25.13042 105.56368,-40.58779 162.32188,-45.98564 12.86693,-1.22367 23.66102,-1.81997 38.89375,-2.14859 l 7.54063,-0.16268 10.10753,0.28483 c 5.55915,0.15666 12.22665,0.40507 14.81667,0.55203 36.67732,2.08113 72.31883,8.18671 106.66769,18.27275 92.83539,27.25975 174.82754,82.388 235.68366,158.46433 59.306,74.138416 94.85,164.9768 101.5614,259.55625 0.777,10.94944 0.9551,15.58109 1.1089,28.83958 l 0.155,13.36146 -0.3093,8.20208 c -0.8485,22.50343 -2.836,42.13585 -6.4016,63.23542 -10.2872,60.87478 -32.9356,119.92261 -66.0659,172.24375 -30.4135,48.03048 -69.66258,90.60032 -115.21209,124.95983 -39.71726,29.96005 -84.9011,53.86529 -131.69634,69.6761 -43.4757,14.68922 -86.11038,22.59176 -132.55625,24.56992 l -6.21771,0.26482 -14.02291,-0.0512 c -7.71261,-0.0282 -14.85636,-0.0842 -15.875,-0.12442 z m 38.62916,-55.89651 c 23.99942,-1.40027 44.50903,-4.11389 66.14836,-8.75209 65.01914,-13.93626 125.85102,-43.50149 177.4006,-86.21942 11.04028,-9.14881 17.26981,-14.86766 29.11692,-26.72998 16.78681,-16.80833 29.60863,-31.82083 42.79673,-50.10875 44.23253,-61.33727 70.59443,-132.29242 77.03853,-207.35599 0.2936,-3.41974 0.5346,-6.60466 0.5356,-7.07761 v -0.85989 H 976.22555 894.1193 l -0.44561,3.63802 c -5.22021,42.61878 -22.16156,84.59889 -48.02175,118.99635 -37.80207,50.28173 -91.59333,84.23205 -152.79957,96.43933 -2.30498,0.45972 -4.24917,0.77757 -4.32041,0.70633 -0.0712,-0.0712 10.95379,-16.65988 24.50008,-36.86364 l 24.62961,-36.7341 3.90017,-2.24964 c 35.19949,-20.30325 62.86857,-49.89417 80.23173,-85.80444 11.30494,-23.38073 17.61671,-47.61489 19.33274,-74.22843 l 0.31308,-4.85544 -0.14583,-10.09352 -0.14583,-10.09353 -0.41502,-4.36562 C 836.64857,83.302975 820.23592,45.250145 791.77643,12.757169 788.13233,8.5966038 779.26922,-0.27649622 775.09515,-3.9429132 748.22043,-27.549076 717.25816,-42.993316 682.88785,-49.936676 l -4.89479,-0.988827 -7.5957,-27.75671 c -4.17763,-15.26619 -7.60068,-27.953737 -7.60677,-28.194557 l -0.0111,-0.43784 0.99219,0.10512 c 0.5457,0.0578 2.95672,0.28995 5.35781,0.51585 18.43787,1.73474 40.01757,6.51288 57.98699,12.83938 30.71869,10.815143 57.86855,26.740834 83.27253,48.846383 4.97941,4.332889 18.00467,17.358149 22.33756,22.33756 18.99585,21.83026678 33.17661,44.534212 43.82304,70.162352 8.40012,20.22082 14.48533,43.17874 17.10922,64.548725 l 0.47918,3.90261 h 82.09678 82.09681 v -0.8599 c -10e-4,-0.47294 -0.242,-3.65787 -0.5356,-7.0776 -5.2673,-61.357275 -23.809,-120.025944 -54.6868,-173.0375 -26.85537,-46.10564 -62.13725,-86.44246 -104.38169,-119.33672 -64.09763,-49.91054 -141.74828,-79.96644 -222.45227,-86.10363 -10.74035,-0.81676 -14.35828,-0.96336 -27.51667,-1.11497 l -13.36145,-0.15395 -7.54063,0.30881 c -11.96301,0.48992 -22.09045,1.27461 -33.07292,2.56253 -87.70611,10.28538 -169.2983,48.12962 -234.42083,108.72951 -6.06226,5.64125 -18.65728,18.36999 -23.89806,24.15178 -33.91277,37.413612 -60.24577,79.447027 -78.76419,125.72539 -13.63846,34.083155 -22.6738,70.066495 -26.84026,106.891665 -0.59188,5.231295 -1.72405,17.575435 -1.72902,18.851555 l -0.002,0.46303 h 82.12045 82.12046 l 0.31377,-2.57969 c 5.75313,-47.299785 24.91261,-92.111075 55.17676,-129.050518 9.8791,-12.058102 23.06125,-25.242007 35.1946,-35.19928 29.31091,-24.054094 63.40312,-41.053859 100.27708,-50.002242 6.75145,-1.6384 14.36131,-3.1837 14.5836,-2.96141 0.0845,0.0845 -10.95237,16.712196 -24.52637,36.950444 l -24.68,36.796813 -2.0032,1.093881 c -6.49344,3.545859 -15.6624,9.497255 -22.48602,14.595236 -24.60381,18.3817128 -45.11431,43.057331 -58.76056,70.693221 -11.04112,22.36007 -17.3804,45.153225 -19.75799,71.040625 l -0.47385,5.15937 v 11.37709 11.37708 l 0.47385,5.15938 c 1.7503,19.05744 5.63301,36.28051 11.9637,53.06907 24.12253,63.97131 80.1883,111.39454 147.00328,124.34273 l 3.87395,0.75074 7.65645,28.063 7.65646,28.063 -0.54432,0.0924 c -0.76105,0.12926 -6.48663,-0.40646 -12.5946,-1.17843 -79.05102,-9.99104 -149.10441,-57.42017 -188.12584,-127.36922 -15.85312,-28.418 -26.42235,-61.13645 -30.0213,-92.9349 l -0.17219,-1.52135 h -82.13409 -82.13408 l 0.002,0.46302 c 0.004,1.02558 1.10348,13.20848 1.60582,17.79323 7.16835,65.42494 30.18063,128.73495 66.74354,183.62083 21.92662,32.91483 47.83744,62.02414 77.80042,87.40431 66.87545,56.64689 149.42686,90.53857 236.56821,97.12363 4.61764,0.34895 11.78985,0.74955 18.78542,1.04925 4.22698,0.18109 30.01952,-0.0798 34.66041,-0.35054 z m 13.89063,-23.72259 c -10.69578,-0.19148 -21.53047,-0.38346 -24.07709,-0.42662 l -4.6302,-0.0785 -2.47857,-4.7625 c -1.36321,-2.61937 -3.39169,-6.51369 -4.50773,-8.65403 l -2.02916,-3.89153 -4.6204,8.44837 -4.62039,8.44836 -6.4823,-0.0173 c -9.82205,-0.0262 -42.80172,-0.61139 -42.94358,-0.76201 -0.0685,-0.0728 -4.2862,-11.08604 -9.3726,-24.47396 l -9.24801,-24.34167 0.52513,-32.80833 c 0.28882,-18.04458 0.55826,-32.84857 0.59876,-32.89774 0.0805,-0.0977 32.99876,0.45706 33.05692,0.5571 0.0197,0.0338 -0.19441,14.28944 -0.47569,31.67918 l -0.51142,31.61771 5.16896,12.03854 5.16895,12.03854 2.33556,0.14234 c 1.28456,0.0783 2.41737,0.0783 2.51736,0 0.1,-0.0783 3.03376,-5.51917 6.5195,-12.09085 l 6.33771,-11.94851 0.55759,-29.30393 c 0.30667,-16.11716 0.58758,-29.31919 0.62425,-29.33784 0.25443,-0.12944 32.65033,0.48199 32.80062,0.61907 l 0.19022,0.17349 -0.49641,29.18152 -0.49642,29.18152 5.99474,12.28456 5.99474,12.28455 2.49332,-0.0638 2.49332,-0.0638 5.55025,-11.89984 5.55025,-11.89983 0.51565,-31.49184 c 0.28361,-17.3205 0.59307,-31.56078 0.68768,-31.64505 0.18862,-0.168 32.64312,0.28409 32.83317,0.45736 0.0646,0.0589 -0.15939,15.04917 -0.49768,33.3118 l -0.61506,33.20477 -10.11049,23.73965 -10.11049,23.73964 -0.37204,0.0297 c -0.20463,0.0164 -9.12314,-0.12692 -19.81892,-0.31839 z m 73.03386,-72.61055 c -13.43415,-27.07045 -24.37904,-49.26286 -24.32198,-49.31646 0.0571,-0.0536 17.54542,-8.74366 38.86302,-19.31125 l 38.75929,-19.2138 5.7749,11.54742 5.7749,11.54742 -0.21647,0.20508 c -0.11907,0.11279 -11.1107,5.59381 -24.42586,12.18004 -13.31515,6.58624 -24.26442,12.02011 -24.33171,12.07527 -0.16519,0.13543 6.94458,14.36361 7.17744,14.36361 0.10108,0 10.25634,-4.99327 22.56724,-11.09615 l 22.38347,-11.09615 5.81106,11.61978 5.81106,11.61978 -13.95459,6.91703 c -7.67503,3.80437 -17.79436,8.811 -22.4874,11.12585 -4.69305,2.31485 -8.53282,4.30863 -8.53282,4.43063 0,0.27371 6.88612,14.31464 7.02036,14.31464 0.0531,0 11.50288,-5.65957 25.44386,-12.57682 l 25.34724,-12.57682 5.76498,11.56112 5.76497,11.56112 -0.20872,0.19315 c -0.33943,0.3141 -78.79332,39.1445 -79.08851,39.1445 -0.14851,0 -11.26158,-22.14854 -24.69573,-49.21899 z m -284.5095,27.29039 c -21.50478,-11.03672 -39.15357,-20.12074 -39.21952,-20.18669 -0.066,-0.066 11.18422,-22.13879 25.00039,-49.05075 l 25.1203,-48.93083 0.26932,0.0643 c 0.41849,0.1 76.56425,39.20309 76.77414,39.42581 l 0.18598,0.19735 -5.79154,11.24479 c -3.18534,6.18464 -5.82898,11.35077 -5.87474,11.4803 -0.0458,0.12952 -11.01732,-5.37712 -24.38125,-12.23698 -13.36393,-6.85987 -24.37448,-12.47249 -24.46787,-12.47249 -0.0934,0 -1.80754,3.20304 -3.8092,7.11786 l -3.63939,7.11787 5.10086,2.63688 c 2.80548,1.45029 12.83993,6.60038 22.29878,11.44465 9.45886,4.84426 17.24128,8.84229 17.29429,8.8845 0.0781,0.0622 -11.491,22.82016 -11.72379,23.06218 -0.0377,0.0392 -10.05756,-5.05803 -22.26638,-11.32714 -12.20883,-6.2691 -22.29027,-11.42084 -22.40321,-11.44831 -0.11294,-0.0275 -1.86223,3.16584 -3.8873,7.09625 l -3.68194,7.14619 25.25219,12.96214 c 13.8887,7.12918 25.22251,13.0268 25.18625,13.10583 -1.36307,2.97034 -11.75717,22.74129 -11.95392,22.7379 -0.15557,-0.003 -17.87767,-9.03492 -39.38245,-20.07165 z m -88.95874,-61.18741 -10.58333,-11.66904 0.0201,-0.43091 c 0.0111,-0.237 3.49346,-6.25866 7.73863,-13.38147 l 7.71851,-12.95056 -0.61813,-0.67548 c -0.33997,-0.37152 -3.56118,-3.91742 -7.15825,-7.87978 l -6.54012,-7.20429 -10.61389,9.665 -10.61389,9.66499 -0.46156,-0.47633 c -1.7057,-1.76027 -20.87756,-22.99804 -20.87807,-23.12784 -6.2e-4,-0.15653 79.20039,-72.24495 80.7171,-73.46835 l 0.7504,-0.60528 30.47779,33.5459 c 16.76279,18.45025 30.76415,33.85658 31.11414,34.23628 l 0.63633,0.69037 -24.41751,22.19609 c -13.42963,12.20785 -26.99643,24.54135 -30.14845,27.40779 l -5.73094,5.2117 -2.34298,-2.6273 c -1.28864,-1.44502 -2.40251,-2.62811 -2.47527,-2.6291 -0.0728,-9.9e-4 -3.63519,5.89049 -7.9165,13.09217 -4.28131,7.20167 -7.85318,13.09182 -7.9375,13.08922 -0.0843,-0.003 -4.9158,-5.2558 -10.73663,-11.67378 z m 40.18673,-60.39864 c 5.91006,-5.37228 10.74556,-9.81612 10.74556,-9.8752 0,-0.0826 -16.59156,-18.44623 -18.78827,-20.79498 l -0.45442,-0.48587 -10.81772,9.83684 c -5.94974,5.41027 -10.81771,9.94562 -10.81771,10.07856 0,0.34645 18.95904,21.17305 19.19263,21.0832 0.10691,-0.0411 5.02988,-4.47027 10.93993,-9.84255 z m 438.96848,34.74637 -40.65756,-37.07345 0.78207,-0.83174 c 0.43014,-0.45745 14.32902,-15.71455 30.8864,-33.90465 16.55738,-18.19011 30.23902,-33.22038 30.40364,-33.40061 l 0.29931,-0.32768 29.62692,27.00485 c 16.29481,14.85267 29.83714,27.2092 30.09407,27.45895 l 0.46715,0.4541 -2.37279,2.63372 c -1.30503,1.44855 -2.28915,2.71 -2.18693,2.80324 0.10221,0.0932 6.2921,3.06231 13.75529,6.59796 l 13.56945,6.42844 -0.13064,0.34044 c -0.21106,0.55001 -21.11346,23.3743 -21.4061,23.3743 -0.14663,0 -6.45293,-2.94045 -14.014,-6.53433 l -13.74739,-6.53432 -0.82663,0.91351 c -0.45465,0.50243 -3.6246,3.98775 -7.04434,7.74517 -3.41974,3.75741 -6.248,6.91344 -6.28503,7.01339 -0.037,0.1 4.69652,4.51273 10.51899,9.80615 l 10.58631,9.62441 -1.13067,1.21999 c -0.62187,0.67099 -5.3825,5.88451 -10.57918,11.58559 -5.19669,5.70108 -9.56153,10.43544 -9.69965,10.52081 l -0.25113,0.1552 z m 31.71256,-34.02672 c 5.18944,-5.70408 9.43536,-10.41622 9.43536,-10.47143 0,-0.13987 -21.41718,-19.62152 -21.6719,-19.71336 -0.21815,-0.0786 -19.35324,20.80114 -19.31809,21.07948 0.0112,0.089 4.9075,4.60596 10.88059,10.03775 l 10.86015,9.87598 0.18926,-0.21869 c 0.1041,-0.12028 4.43518,-4.88566 9.62463,-10.58973 z m -234.24589,25.77541 c 0,-0.15533 -27.02998,-99.29537 -27.40919,-100.53093 l -0.14116,-0.4599 10.16679,-0.0693 10.1668,-0.0693 -9.49412,-34.7927 c -5.22177,-19.13599 -9.56403,-35.0606 -9.64947,-35.38803 l -0.15535,-0.59531 h 16.13958 16.13958 l 0.14285,-0.59531 c 0.21071,-0.87819 9.96869,-50.12608 9.96869,-50.31136 0,-0.0868 -14.87479,-0.15791 -33.05509,-0.15791 h -33.05509 l -0.13225,0.46302 c -0.0727,0.25466 -2.35017,11.6549 -5.06096,25.33385 l -4.9287,24.87084 4.99963,18.25625 4.99964,18.25625 -18.60964,0.0679 c -10.23529,0.0374 -26.97742,0.0374 -37.20473,0 l -18.5951,-0.0679 19.2453,-96.70521 c 10.58492,-53.18787 19.25037,-96.912645 19.25656,-97.166175 l 0.0113,-0.46097 -16.00497,-0.0682 -16.00499,-0.0682 23.54561,-35.10106 c 12.95008,-19.305586 23.5456,-35.1706642 23.5456,-35.2557332 0,-0.08507 -4.47758,-0.154669 -9.95018,-0.154669 h -9.95018 l 0.16168,-0.42134 C 564.65,-6.9469882 631.20167,-106.26569 631.70702,-106.80785 l 0.34388,-0.36893 0.40832,1.42726 c 0.50851,1.77744 26.77143,97.9923218 27.02107,98.9923688 l 0.18164,0.727604 h -10.08285 -10.08285 v 0.288906 c 0,0.158898 4.28625,16.0030482 9.525,35.2092262 5.23875,19.20617 9.525,34.97009 9.525,35.03092 0,0.0608 -7.23305,0.14129 -16.07344,0.17879 l -16.07344,0.0682 -4.93599,24.73854 c -2.7148,13.606195 -5.01223,25.125955 -5.10541,25.599465 l -0.16942,0.86092 33.13085,-0.0672 33.13086,-0.0672 5.02686,-25.276495 5.02687,-25.27651 -4.94033,-18.11752 c -2.71718,-9.96464 -4.94033,-18.26529 -4.94033,-18.44589 v -0.32837 h 37.02605 37.02605 l 0.11827,0.19844 c 0.065,0.10914 -8.4923,43.47766 -19.01631,96.374475 -10.52402,52.89682 -19.20764,96.56299 -19.29693,97.03594 l -0.16236,0.85989 h 16.04759 16.04759 l -0.15321,0.39925 c -0.0843,0.21958 -10.69356,16.11108 -23.57622,35.31444 -12.88266,19.20336 -23.42302,34.97666 -23.42302,35.05178 0,0.0751 4.51734,0.16776 10.03853,0.20587 l 10.03852,0.0693 -33.68738,50.22625 c -18.52805,27.62443 -33.82055,50.35942 -33.98331,50.52218 -0.16277,0.16277 -0.29594,0.21513 -0.29594,0.11635 z m -373.64741,-113.35745 -16.3008,-43.33276 0.83608,-0.32813 c 0.45985,-0.18047 23.63142,-8.90135 51.49238,-19.37974 l 50.6563,-19.05161 0.19264,0.19662 c 0.19759,0.20167 32.50622,85.97775 32.50622,86.30067 0,0.19869 -43.0726,16.43688 -43.57539,16.42774 -0.17382,-0.003 -2.643,-1.36581 -5.48707,-3.0281 -2.84408,-1.6623 -5.21589,-2.94222 -5.2707,-2.84427 -0.0548,0.0979 -0.95161,2.73792 -1.99289,5.86662 l -1.89323,5.68854 -22.15338,8.30831 c -12.18436,4.56956 -22.27847,8.35343 -22.43136,8.40859 l -0.27799,0.10028 z m 37.39996,1.31402 c 4.19499,-1.56435 7.62898,-2.96027 7.6311,-3.10204 0.004,-0.26722 -9.77305,-26.38036 -9.95007,-26.57527 -0.13436,-0.14794 -15.44196,5.57793 -15.60129,5.83574 -0.17892,0.2895 9.7633,26.67876 10.05276,26.68263 0.13214,0.002 3.67252,-1.27671 7.8675,-2.84106 z m 39.79708,-14.99544 6.59932,-2.50935 -0.0711,-0.34266 c -0.0391,-0.18846 -2.28415,-6.24526 -4.98895,-13.45957 l -4.91782,-13.11691 -7.18189,2.72072 -7.18188,2.72072 0.0641,0.2699 c 0.0353,0.14845 2.28789,6.17403 5.00579,13.39018 l 4.94164,13.12028 0.56572,-0.14198 c 0.31114,-0.0781 3.53541,-1.27119 7.16504,-2.65133 z m 566.19308,32.7705 c -20.51844,-7.76527 -37.50608,-14.21211 -37.75031,-14.3263 l -0.44405,-0.20761 5.55277,-14.68438 c 3.05402,-8.0764 5.6367,-14.76933 5.7393,-14.87317 l 0.18654,-0.18879 25.79329,9.75174 c 14.18631,5.36346 25.86618,9.67514 25.95526,9.58151 0.30333,-0.31881 10.09485,-26.51412 9.96079,-26.64818 -0.0734,-0.0734 -11.70936,-4.50432 -25.85772,-9.8465 -14.14835,-5.34219 -25.74235,-9.77498 -25.76445,-9.85065 -0.0221,-0.0757 2.46014,-6.77172 5.51608,-14.88011 l 5.55625,-14.74253 0.29532,-0.003 c 0.29251,-0.003 75.08027,28.18871 75.68117,28.52816 l 0.31233,0.17643 -5.14555,13.61148 c -2.83005,7.48632 -5.20783,13.85966 -5.28396,14.16299 l -0.13842,0.5515 13.64007,5.14623 13.64009,5.14622 v 0.29749 c 0,0.44781 -10.8431,29.04463 -11.1187,29.32343 l -0.2385,0.24142 -13.43757,-5.07309 c -7.39064,-2.79021 -13.56039,-5.07174 -13.71055,-5.07007 l -0.27302,0.003 -5.28323,14.02026 -5.28323,14.02026 -0.39688,-0.0247 c -0.21828,-0.0136 -17.18469,-6.3781 -37.70312,-14.14338 z M 320.40869,70.158505 C 292.54145,60.415895 269.2283,52.253395 268.6017,52.019615 l -1.13927,-0.42506 0.0809,-0.47687 c 0.0445,-0.26227 2.16453,-6.43985 4.71115,-13.72794 l 4.63021,-13.25108 0.26458,-0.002 c 0.14552,-0.001 8.94673,3.03325 19.55825,6.74289 10.61152,3.70965 19.32048,6.71556 19.35326,6.6798 0.14062,-0.15342 8.5612,-24.382581 8.49641,-24.447368 -0.0394,-0.03938 -8.28149,-2.93846 -18.3158,-6.4423952 -21.49653,-7.50648902 -20.49316,-7.13937002 -20.49316,-7.49817902 0,-0.15583 2.11336,-6.33063398 4.69635,-13.72178578 l 4.69636,-13.438459 0.29872,-6.01e-4 c 0.41468,-8.34e-4 103.37848,35.9850638 103.58537,36.2031348 0.12191,0.128501 -9.10782,27.0529932 -9.42547,27.4954932 -0.0264,0.0368 -9.12017,-3.10454 -20.20832,-6.98078 -11.08815,-3.87624 -20.19606,-7.00199 -20.23981,-6.9461 -0.17675,0.22582 -8.37914,23.93556 -8.37468,24.20778 l 0.005,0.29366 19.9099,6.94827 c 10.95044,3.82155 19.98821,7.02315 20.08394,7.11467 0.18466,0.17654 -9.32057,27.55964 -9.55906,27.53817 -0.077,-0.007 -22.94045,-7.98382 -50.80769,-17.72643 z m 595.62498,14.08406 c -2.62254,-7.75454 -10.13727,-30.02991 -16.54184,-49.03374 l -7.01206,-20.806414 13.88748,-4.6860172 c 7.63811,-2.57731 13.92279,-4.644422 13.96597,-4.593583 0.0768,0.09048 9.42386,27.7047242 13.29706,39.2839542 l 1.95814,5.85403 7.46274,-2.52627 c 4.10451,-1.38945 7.49429,-2.54719 7.53285,-2.57275 0.0386,-0.0256 -3.32495,-10.09525 -7.47448,-22.37708 C 938.96001,10.50287 935.56494,0.31980078 935.56494,0.15565378 v -0.298449 l 16.6026,-5.60178898 c 9.13143,-3.080983 23.03198,-7.7815248 30.89011,-10.4456468 7.85812,-2.664122 14.37079,-4.77182 14.47259,-4.683774 0.2004,0.173311 24.59296,72.30933 24.48596,72.41231 -0.146,0.14056 -24.09602,7.51965 -24.40624,7.51965 h -0.33657 l -1.83988,-5.35781 c -1.01193,-2.9468 -4.3702,-12.87556 -7.46282,-22.0639 l -5.62293,-16.706091 -6.39193,2.124511 c -3.51556,1.16848 -6.43826,2.16427 -6.49489,2.21286 -0.0566,0.0486 3.31771,10.22097 7.49852,22.60528 4.18082,12.3843 7.54339,22.57501 7.47239,22.64601 -0.12958,0.12958 -10.51582,3.65502 -47.46024,16.10962 l -19.89228,6.70603 z M 878.74395,-4.5853052 c -4.83951,-6.1842608 -8.8281,-11.3697668 -8.86354,-11.5233478 -0.0354,-0.153581 6.72213,-5.608821 15.01682,-12.122754 8.29469,-6.513934 15.08125,-11.983557 15.08125,-12.154718 0,-0.417124 -15.46115,-20.147589 -15.78802,-20.147589 -0.14098,0 -7.02683,5.308133 -15.30189,11.795852 -8.27505,6.487718 -15.13704,11.804989 -15.24886,11.816158 -0.11181,0.01117 -4.21496,-5.088604 -9.1181,-11.33283 l -8.9148,-11.353138 0.56813,-0.566692 c 0.8895,-0.887255 86.41153,-67.828096 86.65556,-67.828096 0.1196,0 4.24288,5.13745 9.16285,11.41656 l 8.9454,11.41656 -0.63639,0.47044 c -4.32662,3.19839 -35.2968,27.73707 -35.2968,27.966794 0,0.170966 2.13482,3.041002 4.74405,6.377856 l 4.74405,6.067007 0.54762,-0.215351 c 0.30119,-0.118443 10.17985,-4.218936 21.95257,-9.112208 11.77273,-4.893271 21.49829,-8.863148 21.61235,-8.821947 0.26296,0.09498 17.97095,22.690172 17.96402,22.921886 -0.003,0.09448 -9.88005,4.269068 -21.94938,9.276871 -12.06934,5.007803 -21.89849,9.17499 -21.84256,9.260417 0.0559,0.08543 1.4089,1.822049 3.00661,3.859162 1.5977,2.037114 2.85769,3.780253 2.79997,3.873644 -0.14001,0.226546 -50.6007,39.7659348 -50.84848,39.8432518 -0.10633,0.03318 -4.15292,-4.999528 -8.99243,-11.183788 z M 362.31912,-34.237958 c -23.26902,-19.312237 -42.30731,-35.207404 -42.30731,-35.322593 0,-0.369546 53.63314,-64.817689 53.87365,-64.737149 0.12736,0.0426 19.2237,15.83965 42.43633,35.104468 l 42.20478,35.026941 -0.3323,0.427226 c -0.29801,0.383153 -52.94182,63.89245778 -53.38464,64.40303778 l -0.18319,0.211229 z m 49.26936,-13.918959 c 4.49419,-5.416511 8.17125,-9.925771 8.17125,-10.020577 0,-0.17864 -44.64771,-37.307943 -44.7403,-37.206304 -0.0288,0.03156 -3.75428,4.519111 -8.27896,9.972343 l -8.2267,9.914968 0.37583,0.375827 c 0.71653,0.716537 44.20217,36.786944 44.36451,36.799415 0.0897,0.0069 3.84019,-4.41916 8.33437,-9.835672 z m 406.76604,-23.908034 c -6.6212,-4.273779 -12.14228,-7.92866 -12.26907,-8.121959 l -0.23053,-0.351452 4.16244,-13.347155 c 2.28934,-7.340933 4.31421,-13.846593 4.49972,-14.457013 l 0.33727,-1.10986 -8.05469,-5.2029 c -4.43007,-2.8616 -8.09363,-5.16013 -8.14124,-5.10785 -0.0476,0.0523 -3.45023,5.3338 -7.56138,11.73672 -4.11115,6.40291 -7.60747,11.782924 -7.7696,11.955574 l -0.29479,0.313909 -12.146,-7.856783 c -6.68029,-4.32123 -12.13821,-7.95204 -12.1287,-8.06847 0.0208,-0.25485 58.99696,-91.72475 59.42773,-92.17028 l 0.30113,-0.31146 35.13434,22.69289 c 19.32389,12.48108 35.24777,22.80631 35.38641,22.94495 l 0.25206,0.25206 -21.82774,33.82943 c -12.00526,18.60619 -21.95425,33.981862 -22.10886,34.168157 l -0.28111,0.338719 -2.64277,-1.731562 c -1.45352,-0.95236 -2.70768,-1.666646 -2.78702,-1.587304 -0.0793,0.07934 -2.15861,6.603609 -4.62059,14.498371 -2.46199,7.894761 -4.50382,14.378786 -4.5374,14.408943 -0.0336,0.03016 -5.47841,-3.441897 -12.09961,-7.715675 z m 24.3888,-68.088799 c 4.3506,-6.74232 7.87596,-12.28961 7.83413,-12.32731 -0.27399,-0.24697 -21.21344,-13.67754 -21.48987,-13.78362 l -0.34512,-0.13243 -7.96517,12.33457 -7.96517,12.33458 3.6311,2.35328 c 1.9971,1.29431 6.84578,4.43578 10.77484,6.98105 3.92906,2.54528 7.2498,4.59872 7.37942,4.56321 0.12961,-0.0355 3.79524,-5.58101 8.14584,-12.32333 z m -407.60268,24.55263 c -15.82569,-25.75904 -28.73711,-46.94408 -28.69203,-47.07785 0.10732,-0.31853 71.44287,-44.19514 71.70785,-44.10562 0.24035,0.0812 42.54522,68.89715 42.53438,69.18928 -0.004,0.11007 -10.37847,6.56998 -23.05419,14.35535 -12.67571,7.78536 -23.22257,14.2823 -23.43745,14.43763 l -0.39071,0.28244 7.4376,12.087577 c 4.09068,6.64817 7.43394,12.176544 7.42946,12.285278 -0.006,0.15001 -15.10014,9.535622 -23.80233,14.800579 l -0.9586,0.579966 z m 38.06492,-23.1168 c 4.94771,-3.03418 9.02847,-5.53841 9.06836,-5.56497 0.0538,-0.0358 -15.14762,-24.91549 -15.38059,-25.17291 -0.0229,-0.0253 -4.86282,2.92712 -10.75534,6.56099 -5.89253,3.63388 -10.86994,6.69958 -11.06093,6.81269 l -0.34724,0.20564 7.73365,12.58819 7.73366,12.58819 2.0063,-1.25057 c 1.10346,-0.68782 6.05442,-3.73308 11.00213,-6.76725 z m 234.42084,14.34093 c -22.26469,-5.24883 -40.5225,-9.57267 -40.57291,-9.60853 -0.11128,-0.0791 25.02468,-107.01212 25.19447,-107.18191 0.13659,-0.13659 81.69142,18.98306 81.97159,19.21735 0.13641,0.11407 -13.22346,57.45797 -24.67703,105.92001 l -0.29703,1.25677 -0.56892,-0.0302 c -0.31291,-0.0166 -18.78549,-4.32468 -41.05017,-9.57351 z m 25.73241,-50.65181 c 3.6529,-15.53252 6.60844,-28.27413 6.56786,-28.31471 -0.17493,-0.17494 -25.05706,-5.94141 -25.16617,-5.8323 -0.23498,0.23498 -13.35274,56.38978 -13.20675,56.53577 0.19184,0.19184 23.88921,5.80758 24.61387,5.83293 l 0.54956,0.0192 z m -197.03685,33.73492 -12.21464,-21.75383 -5.14576,-31.20316 c -2.83016,-17.16174 -5.10611,-31.24281 -5.05765,-31.29126 0.12331,-0.12332 28.60524,-4.81678 28.69861,-4.72917 0.0419,0.0393 2.2986,13.57061 5.01496,30.06961 l 4.93883,29.99818 6.50702,10.58334 6.50701,10.58333 1.49456,-0.0673 c 0.82201,-0.037 1.76991,-0.17198 2.10645,-0.29993 l 0.61187,-0.23264 3.37107,-12.15736 c 1.85408,-6.68654 3.36777,-12.44517 3.36374,-12.79694 -0.004,-0.35177 -2.18806,-13.91505 -4.8534,-30.14063 l -4.84608,-29.50104 0.21601,-0.0858 c 0.42417,-0.16848 28.41041,-4.74012 28.5054,-4.65645 0.0533,0.0469 2.3313,13.53816 5.06224,29.98048 l 4.96534,29.89514 5.36737,7.88748 c 2.95206,4.33812 6.2372,9.15011 7.30032,10.69332 l 1.93295,2.80583 1.86423,-0.31978 c 1.02533,-0.17587 1.92059,-0.37612 1.98947,-0.445 0.0689,-0.0689 1.37127,-5.58478 2.89419,-12.25754 l 2.76895,-12.13231 -4.93919,-29.97107 c -2.71656,-16.48409 -4.87511,-30.03515 -4.79678,-30.11348 0.23956,-0.23956 28.3988,-4.83987 28.5822,-4.66941 0.22215,0.20647 10.29278,62.08324 10.27464,63.13026 -0.0152,0.87639 -9.11147,47.966 -9.30248,48.15701 -0.10948,0.10949 -41.66907,7.00862 -42.21912,7.00862 -0.13302,0 -2.53585,-3.2148 -5.33962,-7.14401 -2.80376,-3.9292 -5.1997,-7.20701 -5.32431,-7.28402 l -0.22656,-0.14002 -0.27293,1.00017 c -0.15011,0.55009 -1.27232,4.39339 -2.49381,8.54066 l -2.22087,7.54049 -0.75969,0.20381 c -0.41783,0.1121 -9.80844,1.68832 -20.86802,3.50272 -11.05958,1.81441 -20.36338,3.3589 -20.6751,3.43222 l -0.56677,0.13331 z"
       id="path1" /></g></svg>
