<?xml version="1.0" encoding="UTF-8" standalone="no"?>
<!-- Created with Inkscape (http://www.inkscape.org/) -->

<svg
   width="800px"
   height="427.2149px"
   viewBox="0 0 211.66666 113.03395"
   version="1.1"
   id="svg1"
   xml:space="preserve"
   xmlns="http://www.w3.org/2000/svg"
   xmlns:svg="http://www.w3.org/2000/svg"><defs
     id="defs1" /><path
     class="logo-face"
     d="m -31.372444,336.94636 -0.411878,-0.58803 V 314.1922 292.02607 l 0.529167,-0.52917 0.529166,-0.52916 h 8.863542 8.863542 l 0.0041,0.33073 0.0041,0.33073 0.23382,-0.36927 0.233821,-0.36927 3.5324403,0.1509 c 1.942842,0.083 4.246816,0.34223 5.119941,0.57606 2.586343,0.69268 5.310063,2.12286 6.891763,3.61876 l 1.45957,1.3804 0.98371,1.9904 0.98371,1.9904 v 3.33474 3.33474 l -0.99379,2.01079 c -0.89715,1.81527 -1.94527,3.06041 -3.28979,3.9082 l -0.47892,0.30198 0.33788,0.14137 c 0.71437,0.29889 2.8707,2.16139 3.58112,3.09314 0.4092,0.53669 1.05904,1.65868 1.44409,2.49331 l 0.70008,1.51751 0.10665,2.54494 c 0.0587,1.39971 -0.0262,3.16451 -0.18864,3.92177 -1.04389,4.86752 -4.91985,8.42695 -10.680094,9.80793 l -2.180256,0.52269 -12.8834353,0.002 -12.883434,0.002 z m 14.272497,-7.34946 c 0.08994,-0.14552 -0.01507,-0.26458 -0.233354,-0.26458 -0.218281,0 -0.470459,0.11906 -0.560396,0.26458 -0.08994,0.14552 0.01507,0.26459 0.233354,0.26459 0.218281,0 0.470459,-0.11907 0.560396,-0.26459 z m 10.5700763,-2.40551 c 0.700938,-0.1765 1.489379,-0.64198 2.027089,-1.19675 l 0.87998,-0.90791 0.08854,-1.77981 0.08854,-1.77981 -0.512016,-0.81492 c -0.28161,-0.44821 -0.972558,-1.03462 -1.535441,-1.30314 l -1.023425,-0.48821 -2.702797,-0.15207 -2.7027973,-0.15208 -0.472203,-0.47247 -0.472203,-0.47247 v -3.84833 -3.84834 l 0.459507,-0.336 c 0.252729,-0.1848 1.472516,-0.40749 2.7106383,-0.49486 1.342557,-0.0947 2.724637,-0.36832 3.424313,-0.67782 l 1.17318,-0.51896 0.465434,-0.88308 c 0.597829,-1.13428 0.621746,-3.3636 0.04552,-4.24303 -0.238567,-0.3641 -0.889158,-0.88728 -1.445759,-1.16263 l -1.012002,-0.50063 -6.6807303,-0.0914 -6.680729,-0.0914 v 13.25252 13.25253 h 6.365129 c 3.722961,0 6.8412953,-0.1199 7.5122393,-0.28885 z M -21.738258,298.64065 v -0.39687 l -0.256481,0.39687 c -0.141064,0.21828 -0.25648,0.57547 -0.25648,0.79375 v 0.39688 l 0.25648,-0.39688 c 0.141065,-0.21828 0.256481,-0.57547 0.256481,-0.79375 z m 60.215818,38.30571 -0.41188,-0.58803 v -22.11556 -22.11556 l 0.37545,-0.51359 0.37546,-0.51359 16.16724,-0.0721 c 10.07542,-0.0449 16.3478,0.0245 16.64642,0.18433 l 0.47917,0.25645 -0.11907,0.81127 -0.11907,0.81127 0.42741,-0.16401 0.42741,-0.16401 v 3.54131 3.54131 l -0.41188,0.58804 -0.41188,0.58803 H 60.67255 49.44276 v 3.83646 3.83646 h 9.92188 9.92187 l 0.52917,0.52917 0.52917,0.52916 v 3.7162 3.71619 l -0.64944,0.64943 -0.64943,0.64943 h -9.80161 -9.80161 v 4.48753 4.48752 l 11.76475,0.0765 11.76475,0.0765 0.47223,0.47244 0.47223,0.47243 0.0942,3.17285 c 0.1046,3.52191 -0.0494,4.79546 -0.65269,5.39877 l -0.40538,0.40538 H 55.92113 38.8894 Z m 29.70369,-40.24493 0.0854,-0.44017 -0.41609,0.15967 c -0.48912,0.18769 -0.57185,0.99276 -0.0854,0.83078 0.1819,-0.0606 0.36914,-0.30819 0.41609,-0.55028 z m -17.92489,-1.04395 c -0.0327,-0.31637 -0.39563,-0.2551 -0.50933,0.086 -0.0582,0.17462 0.037,0.26987 0.21167,0.21166 0.17462,-0.0582 0.30857,-0.19215 0.29766,-0.29765 z m 54.10245,41.28888 -0.41188,-0.58803 V 314.31246 292.2666 l 0.64943,-0.64943 0.64943,-0.64943 h 16.15161 16.15161 l 0.52917,0.52916 0.52916,0.52917 v 4.06003 4.06004 l -0.48385,0.43788 -0.48385,0.43788 h -11.15782 -11.15781 v 3.83646 3.83646 h 9.92188 9.92187 l 0.52917,0.52917 0.52916,0.52916 -0.004,3.77032 c -0.002,2.07367 -0.0915,3.90131 -0.19844,4.06143 -0.10691,0.16011 -0.45444,0.428 -0.7723,0.59531 l -0.57792,0.30419 h -9.67468 -9.67469 v 4.48753 4.48752 l 11.79754,0.0765 11.79753,0.0765 0.52385,0.64717 0.52385,0.64718 -0.0844,3.87715 -0.0844,3.87715 -0.36313,0.43661 -0.36312,0.43661 H 121.9212 104.77068 Z m 24.19437,-6.55571 c 0,-0.14552 -0.11907,-0.26458 -0.26459,-0.26458 -0.14552,0 -0.26458,0.11906 -0.26458,0.26458 0,0.14552 0.11906,0.26459 0.26458,0.26459 0.14552,0 0.26459,-0.11907 0.26459,-0.26459 z M 109.6336,297.32077 c 0.0927,-0.14998 -0.0135,-0.19434 -0.24897,-0.10399 -0.45837,0.1759 -0.54223,0.36554 -0.16165,0.36554 0.13693,0 0.32171,-0.1177 0.41062,-0.26155 z m -3.04084,-2.1197 c 0,-0.14552 -0.12609,-0.26458 -0.2802,-0.26458 -0.15411,0 -0.20661,0.11906 -0.11667,0.26458 0.0899,0.14552 0.21602,0.26458 0.2802,0.26458 0.0642,0 0.11667,-0.11906 0.11667,-0.26458 z m 3.175,-1.32292 c 0,-0.14552 -0.11906,-0.26458 -0.26458,-0.26458 -0.14552,0 -0.26458,0.11906 -0.26458,0.26458 0,0.14552 0.11906,0.26459 0.26458,0.26459 0.14552,0 0.26458,-0.11907 0.26458,-0.26459 z m 60.7063,43.28071 -0.51359,-0.37555 v -22.402 -22.40199 l 0.62462,-0.50579 0.62463,-0.50579 h 6.96009 6.9601 l 0.11977,0.33073 0.11978,0.33073 0.56014,-0.33073 0.56015,-0.33073 2.71557,0.0287 c 1.49356,0.0158 3.42994,0.10509 4.30307,0.19844 l 1.5875,0.16972 0.0837,0.72761 c 0.0947,0.82336 0.57773,1.00232 0.57773,0.21405 0,-0.83883 0.40591,-0.86383 2.51727,-0.15507 4.34631,1.45901 7.11524,4.1914 8.72123,8.60612 l 0.72188,1.98437 0.13866,2.77813 c 0.0849,1.702 0.015,3.37196 -0.18054,4.31117 -0.46759,2.24571 -2.14091,5.37741 -3.80337,7.11815 -1.43953,1.50732 -4.44241,3.65193 -5.11344,3.65193 -0.19572,0 -0.35585,0.10914 -0.35585,0.24254 0,0.1334 2.15813,3.37785 4.79584,7.2099 2.63772,3.83204 4.91902,7.23524 5.06956,7.56266 l 0.2737,0.59532 -0.30138,0.66145 -0.30138,0.66146 -5.23119,-9.9e-4 -5.23119,-9.9e-4 -0.85932,-0.52393 -0.85932,-0.52394 -4.4985,-6.76219 -4.49849,-6.76219 v -4.71903 -4.71903 l 0.43532,-0.36128 c 0.25136,-0.20861 1.40918,-0.43015 2.73977,-0.52425 l 2.30444,-0.16295 1.4185,-0.76493 c 2.53952,-1.36942 3.61469,-3.76795 2.89203,-6.45168 l -0.31863,-1.18331 -1.09974,-1.09974 -1.09974,-1.09975 -1.43504,-0.42616 -1.43504,-0.42616 h -4.97906 -4.97906 v 4.21772 c 0,2.65662 -0.10268,4.28118 -0.27743,4.38918 l -0.27743,0.17146 0.28475,0.34311 0.28475,0.34311 -0.0735,12.96721 -0.0735,12.96721 -0.50403,0.55675 -0.50403,0.55675 h -4.53863 -4.53863 z m 23.02303,-10.98326 c 0.19567,-0.3166 -0.30206,-0.6303 -0.65448,-0.41249 -0.2959,0.18288 -0.10164,0.65879 0.2689,0.65879 0.12834,0 0.30185,-0.11083 0.38558,-0.2463 z m -19.70016,-11.24746 c 0,-0.0642 -0.11907,-0.19026 -0.26459,-0.2802 -0.14552,-0.0899 -0.26458,-0.0374 -0.26458,0.11668 0,0.15411 0.11906,0.2802 0.26458,0.2802 0.14552,0 0.26459,-0.0525 0.26459,-0.11668 z m -1.22724,-19.33019 c 0.0838,-0.21829 0.037,-0.39688 -0.10398,-0.39688 -0.14096,0 -0.25628,0.17859 -0.25628,0.39688 0,0.21828 0.0468,0.39687 0.10398,0.39687 0.0572,0 0.17252,-0.17859 0.25628,-0.39687 z m 8.37099,-0.14791 c 0,-0.13693 -0.11907,-0.24897 -0.26459,-0.24897 -0.14552,0 -0.26458,0.18562 -0.26458,0.41249 0,0.22687 0.11906,0.33891 0.26458,0.24897 0.14552,-0.0899 0.26459,-0.27556 0.26459,-0.41249 z m -252.485889,26.99568 c -2.590688,-0.44139 -5.321713,-2.80759 -6.162646,-5.3394 l -0.443754,-1.33603 0.12205,-1.90186 0.12205,-1.90186 0.756269,-1.38951 c 0.844271,-1.5512 1.970131,-2.6449 3.636254,-3.53236 l 1.117122,-0.59504 2.38125,-0.002 2.38125,-0.002 1.416952,0.78483 c 1.810462,1.0028 3.328337,2.72956 3.892541,4.42822 l 0.44326,1.33453 -0.120564,2.01788 -0.120564,2.01787 -0.551166,1.05834 c -1.652042,3.1722 -5.302965,4.96599 -8.870304,4.35819 z m -2.889893,-7.18221 c -1.120179,-0.22953 -1.231151,-0.0918 -0.447639,0.55539 l 0.632794,0.52274 0.342219,-0.44997 0.342218,-0.44998 z m 319.495892,7.18631 c -1.60121,-0.32789 -2.98504,-1.12044 -4.22936,-2.42223 -1.56654,-1.63889 -2.01801,-2.68927 -2.15607,-5.01627 l -0.11973,-2.01788 0.44326,-1.33453 c 0.56421,-1.69866 2.08208,-3.42542 3.89254,-4.42822 l 1.41696,-0.78483 2.38125,0.002 2.38125,0.002 1.11712,0.59504 c 1.66612,0.88746 2.79198,1.98116 3.63625,3.53236 l 0.75627,1.38951 0.12205,1.90186 0.12205,1.90186 -0.44812,1.34918 c -1.20643,3.63222 -5.52932,6.10573 -9.31572,5.33035 z m -353.70478,-39.20086 c -0.40005,-0.31468 -0.89154,-0.96506 -1.09219,-1.44527 l -0.36481,-0.87312 V 270.8594 260.78824 l 0.36481,-0.87312 c 0.20065,-0.48021 0.6932,-1.13142 1.09455,-1.44713 l 0.72974,-0.57401 196.25037,0.002 196.25037,0.002 0.66214,0.52084 c 0.36418,0.28646 0.85584,0.92903 1.09258,1.42792 l 0.43044,0.90708 v 10.22576 10.22575 l -0.39159,0.75725 c -0.21537,0.41649 -0.70759,1.00582 -1.09381,1.30962 l -0.70223,0.55237 -196.25149,-10e-4 -196.2515,-0.001 z m 338.95702,-0.67623 c -0.26895,-0.26895 -0.49087,0.13597 -0.2702,0.49302 l 0.20723,0.3353 0.11141,-0.33424 c 0.0613,-0.18382 0.0395,-0.40616 -0.0484,-0.49408 z m -311.430389,-0.61985 c 0.27705,-0.44827 -0.0514,-0.57836 -0.65055,-0.25769 -0.30351,0.16243 -0.55183,0.47393 -0.55183,0.69221 v 0.39687 l 0.51443,-0.27531 c 0.28294,-0.15143 0.59252,-0.40166 0.68795,-0.55608 z m 355.323659,0.28361 c 0,-0.19403 -0.14883,-0.40239 -0.33073,-0.46302 -0.19674,-0.0656 -0.33073,0.122 -0.33073,0.46302 0,0.34102 0.13399,0.5286 0.33073,0.46302 0.1819,-0.0606 0.33073,-0.26899 0.33073,-0.46302 z m -352.028119,-0.29582 c 0,-0.14552 -0.11907,-0.19099 -0.26459,-0.10106 -0.14552,0.0899 -0.26458,0.28259 -0.26458,0.42811 0,0.14552 0.11906,0.191 0.26458,0.10106 0.14552,-0.0899 0.26459,-0.28259 0.26459,-0.42811 z m 356.520139,0.31877 0.52326,-0.20443 -0.61781,-0.33065 -0.61782,-0.33065 -0.26604,0.26605 c -0.14632,0.14632 -0.18605,0.39547 -0.0883,0.55367 0.202,0.32684 0.33337,0.33251 1.06668,0.046 z M 69.5511,280.63337 c 0,-0.13693 -0.11907,-0.24897 -0.26459,-0.24897 -0.14552,0 -0.26458,0.18562 -0.26458,0.41249 0,0.22687 0.11906,0.33891 0.26458,0.24897 0.14552,-0.0899 0.26459,-0.27555 0.26459,-0.41249 z m 177.79999,0.0156 c 0,-0.14552 -0.0525,-0.26459 -0.11667,-0.26459 -0.0642,0 -0.19026,0.11907 -0.2802,0.26459 -0.0899,0.14552 -0.0374,0.26458 0.11668,0.26458 0.1541,0 0.28019,-0.11906 0.28019,-0.26458 z M 78.75094,280.16925 c 0.0644,-0.19334 -0.0565,-0.25248 -0.31419,-0.15359 -0.23045,0.0884 -0.41899,0.27702 -0.41899,0.4191 0,0.34777 0.60134,0.13 0.73318,-0.26551 z m -44.80483,-0.28403 c 0.0797,-0.12904 -0.0323,-0.38174 -0.24897,-0.56157 l -0.39396,-0.32696 v 0.56157 c 0,0.56763 0.37601,0.75884 0.64293,0.32696 z m 177.95082,-0.16227 c 0,-0.21829 -0.11907,-0.39688 -0.26459,-0.39688 -0.14552,0 -0.26458,0.17859 -0.26458,0.39688 0,0.21828 0.11906,0.39687 0.26458,0.39687 0.14552,0 0.26459,-0.17859 0.26459,-0.39687 z m -164.0142,-1.79817 c -0.33959,-0.33958 -0.68397,-0.0771 -0.43256,0.32967 0.0974,0.15758 0.29828,0.21159 0.44643,0.12003 l 0.26935,-0.16647 z m -130.550899,-1.02957 c -0.0845,-0.21107 -0.14715,-0.14837 -0.15985,0.15985 -0.0115,0.27892 0.0511,0.43519 0.13897,0.34727 0.0879,-0.0879 0.0973,-0.31612 0.0209,-0.50712 z m 0.74531,-0.74414 c 0.0899,-0.14552 0.0374,-0.26458 -0.11668,-0.26458 -0.15411,0 -0.2802,0.11906 -0.2802,0.26458 0,0.14552 0.0525,0.26458 0.11668,0.26458 0.0642,0 0.19026,-0.11906 0.2802,-0.26458 z m 317.778829,-0.50611 c -0.0978,-0.1582 -0.35035,-0.28764 -0.56127,-0.28764 h -0.38351 l 0.32635,0.52256 c 0.1901,0.3044 0.42442,0.42449 0.56127,0.28764 0.12921,-0.12921 0.15493,-0.36436 0.0572,-0.52256 z M 92.3789,275.35654 c 0.79502,-0.29745 1.8717,-0.95475 2.39261,-1.46065 l 0.94711,-0.91982 h 77.13915 77.13916 l 0.0209,0.33073 0.0209,0.33073 0.1305,-0.32186 0.13049,-0.32185 11.6532,-0.0122 c 6.40925,-0.007 11.75848,-0.0773 11.88716,-0.15678 0.12868,-0.0795 0.23396,-0.73289 0.23396,-1.4519 0,-0.72905 0.12177,-1.30731 0.27529,-1.30731 0.15141,0 -6.8e-4,-0.29762 -0.33798,-0.66138 l -0.61327,-0.66138 -88.91358,-9.3e-4 -88.91358,-9.3e-4 -0.64062,-0.6868 c -0.94125,-1.00907 -2.84274,-1.8876 -4.83728,-2.23494 l -1.75648,-0.30587 -1.75648,0.30587 c -1.99511,0.34744 -3.89606,1.22592 -4.83808,2.2358 l -0.64143,0.68765 H -8.0972877 -97.295128 l -0.3175,0.3175 c -0.38932,0.38932 -0.41895,2.70271 -0.0436,3.40406 l 0.27389,0.51177 h 44.95424 44.9542433 l 0.177769,0.28764 0.17777,0.28763 0.287637,-0.28763 0.287637,-0.28764 H 37.21294 80.96891 l 0.83658,0.83657 c 0.93124,0.93125 2.52863,1.71694 4.22116,2.07624 1.63076,0.34618 4.6893,0.0899 6.35228,-0.53234 z m 182.62203,-6.4e-4 c 0.20908,-0.3383 -0.0348,-0.33445 -0.67973,0.0107 -0.28148,0.15064 -0.51177,0.39295 -0.51177,0.53848 v 0.26458 l 0.51443,-0.27532 c 0.28294,-0.15142 0.58762,-0.39373 0.67707,-0.53847 z M 62.01047,275.09274 c 0.0899,-0.14552 0.0374,-0.26459 -0.11668,-0.26459 -0.15411,0 -0.28019,0.11907 -0.28019,0.26459 0,0.14552 0.0525,0.26458 0.11667,0.26458 0.0642,0 0.19026,-0.11906 0.2802,-0.26458 z m 169.98948,-0.40327 c -0.18407,-0.2218 -0.38917,-0.34878 -0.45576,-0.28219 -0.18349,0.18349 0.18932,0.68546 0.50908,0.68546 0.17545,0 0.15537,-0.15182 -0.0533,-0.40327 z m 45.77823,-3.94674 c 0,-0.0642 -0.11907,-0.19026 -0.26459,-0.2802 -0.14552,-0.0899 -0.26458,-0.0374 -0.26458,0.11668 0,0.15411 0.11906,0.28019 0.26458,0.28019 0.14552,0 0.26459,-0.0525 0.26459,-0.11667 z m -378.98807,-4.045 c -0.26895,-0.26895 -0.49086,0.13597 -0.27019,0.49302 l 0.20722,0.3353 0.11141,-0.33423 c 0.0613,-0.18383 0.0395,-0.40617 -0.0484,-0.49409 z m 65.853693,-0.60083 c -0.08994,-0.14552 -0.364854,-0.26276 -0.610927,-0.26053 l -0.447406,0.004 0.396875,0.25648 c 0.518152,0.33486 0.86841,0.33486 0.661458,0 z m 301.081867,-1.34551 c -0.0852,-0.13784 -0.26767,-0.18092 -0.40551,-0.0957 -0.13784,0.0852 -0.18091,0.26767 -0.0957,0.40551 0.0852,0.13784 0.26766,0.18092 0.4055,0.0957 0.13784,-0.0852 0.18092,-0.26767 0.0957,-0.40551 z m -103.65976,-1.36646 c -0.0734,-0.18191 -0.13346,-0.0331 -0.13346,0.33072 0,0.36381 0.0601,0.51263 0.13346,0.33073 0.0734,-0.1819 0.0734,-0.47955 0,-0.66145 z m 22.84352,-3.10886 c 0,-0.14552 -0.12609,-0.26458 -0.2802,-0.26458 -0.15411,0 -0.20661,0.11906 -0.11668,0.26458 0.0899,0.14552 0.21603,0.26458 0.2802,0.26458 0.0642,0 0.11668,-0.11906 0.11668,-0.26458 z m 79.90416,-0.87672 c 0,-0.13552 -0.17859,-0.0982 -0.39687,0.083 -0.21828,0.18116 -0.39309,0.52316 -0.38846,0.76 l 0.008,0.43063 0.38846,-0.51359 c 0.21366,-0.28248 0.38846,-0.62448 0.38846,-0.76001 z m -366.18333,0.47985 c 0,-0.21829 -0.17859,-0.39688 -0.39687,-0.39688 -0.21829,0 -0.39688,0.17859 -0.39688,0.39688 0,0.21828 0.17859,0.39687 0.39688,0.39687 0.21828,0 0.39687,-0.17859 0.39687,-0.39687 z m 355.86458,-0.10399 c 0,-0.12995 -0.17859,-0.30481 -0.39687,-0.38857 -0.4033,-0.15476 -0.54187,0.12708 -0.22049,0.44846 0.25286,0.25286 0.61736,0.2175 0.61736,-0.0599 z m -362.68002,-9.55188 c -0.47427,-0.28916 -1.0989,-0.9138 -1.38807,-1.38807 l -0.52576,-0.86231 v -59.79584 -59.79583 l 0.52576,-0.86231 c 0.28917,-0.47428 0.9138,-1.10093 1.38807,-1.39258 l 0.86232,-0.53026 11.641662,0.0697 11.641669,0.0697 0.72376,0.52917 c 0.39806,0.29104 0.96361,1.01324 1.25677,1.60489 l 0.53301,1.07572 v 36.10558 36.10558 l -0.52917,0.45308 c -0.67232,0.57566 -0.67666,0.98744 -0.0104,0.98744 h 0.51876 l 0.0765,8.58002 0.0765,8.58002 0.53768,0.7197 c 0.29573,0.39583 0.94871,0.94014 1.45108,1.20956 l 0.9134,0.48986 h 19.874899 19.874896 l 0.874696,0.59531 c 0.481082,0.32743 1.123768,0.93134 1.42819,1.34203 l 0.553494,0.7467 0.0663,11.42413 0.0663,11.42412 -0.59547,1.03079 c -0.327508,0.56694 -1.01033,1.25155 -1.517383,1.52136 l -0.921913,0.49056 -34.26767,-9.9e-4 -34.26766,-9.9e-4 z m 8.716032,-5.08583 c -0.18985,-0.18986 -0.31309,-0.20548 -0.31309,-0.0397 0,0.35316 0.3129,0.66606 0.48948,0.48948 0.0752,-0.0752 -0.004,-0.2776 -0.17639,-0.44979 z m 50.963159,-6.87476 c 0.174625,-0.17463 0.3175,-1.00387 0.3175,-1.84278 v -1.52527 l -0.511772,-0.27389 -0.511773,-0.27389 h -21.962808 -21.962806 l -0.41188,-0.58804 -0.41188,-0.58804 v -47.38092 -47.38092 l -0.3175,-0.3175 c -0.46947,-0.46948 -2.73658,-0.40062 -3.23547,0.0983 l -0.41578,0.41577 v 49.04886 49.04886 l 0.29477,0.64694 c 0.16212,0.35582 0.54908,0.77008 0.8599,0.92058 l 0.56513,0.27364 23.693432,0.0179 23.693437,0.0179 z m -33.09166,-7.25069 c -0.0879,-0.0879 -0.31612,-0.0973 -0.50712,-0.0209 -0.21106,0.0845 -0.14837,0.14716 0.15986,0.15986 0.27891,0.0115 0.43518,-0.0511 0.34726,-0.13897 z m -1.39485,-10.70634 c -0.0837,-0.13547 -0.33837,-0.2463 -0.56588,-0.2463 h -0.41365 l 0.32696,0.39396 c 0.34161,0.41162 0.91767,0.28127 0.65257,-0.14766 z m -21.683381,-11.88984 c 0.0906,-0.14655 -0.0266,-0.33985 -0.26038,-0.42956 -0.50658,-0.1944 -0.78891,0.0198 -0.5454,0.41383 0.2197,0.35549 0.59132,0.36274 0.80578,0.0157 z m 2.77697,-2.37938 c 0,-0.14552 -0.23109,-0.26458 -0.51355,-0.26458 -0.28245,0 -0.58713,0.11906 -0.67707,0.26458 -0.0927,0.15006 0.12954,0.26458 0.51355,0.26458 0.37239,0 0.67707,-0.11906 0.67707,-0.26458 z m 11.929981,-6.51088 0.30565,-0.36829 h -0.66146 c -0.65103,0 -1.38952,0.57146 -1.10551,0.85547 0.2234,0.2234 1.11954,-0.0754 1.46132,-0.48718 z m -8.595119,-45.54038 c -0.26896,-0.26895 -0.49087,0.13597 -0.2702,0.49302 l 0.20723,0.3353 0.11141,-0.33423 c 0.0613,-0.18383 0.0395,-0.40617 -0.0484,-0.49409 z m 8.835979,-13.6977 c 0,-0.21828 -0.11204,-0.39687 -0.24897,-0.39687 -0.33364,0 -0.57258,0.41317 -0.3612,0.62455 0.29797,0.29797 0.61017,0.18148 0.61017,-0.22768 z m 4.23333,-4.23333 c 0,-0.21828 -0.0468,-0.39688 -0.10398,-0.39688 -0.0572,0 -0.17252,0.1786 -0.25628,0.39688 -0.0838,0.21828 -0.037,0.39687 0.10398,0.39687 0.14095,0 0.25628,-0.17859 0.25628,-0.39687 z m 56.343674,114.10075 c -0.48667,-0.32796 -1.129418,-1.01262 -1.428327,-1.52144 l -0.543472,-0.92515 v -59.53125 -59.53124 l 0.543472,-0.92515 c 0.298909,-0.50883 0.941595,-1.19344 1.42819,-1.52135 l 0.884718,-0.59621 H -1.5738997 25.11869 l 1.28189,0.64958 c 1.42373,0.72146 2.75358,1.93852 3.32447,3.04249 0.20634,0.39903 1.9888,5.21555 3.96102,10.7034 l 3.58586,9.97789 v 1.1706 1.17061 l -0.77188,0.86407 -0.77189,0.86407 -17.82703,0.13229 -17.82703974,0.13229 -0.7283,0.4774 c -0.40055996,0.26256 -0.96318996,0.85788 -1.25027996,1.32291 l -0.52199,0.84552 0.0716,7.58587 0.0716,7.58588 0.66146,0.70749 c 0.3638,0.38913 0.98296996,0.87478 1.37591996,1.07923 l 0.71447,0.37174 H 14.05169 27.63481 l 1.1784,0.59531 c 0.64813,0.32742 1.44726,0.99988 1.77586,1.49434 l 0.59744,0.89902 v 11.43112 11.43112 l -0.59621,0.88472 c -0.32791,0.48659 -1.01252,1.12928 -1.52135,1.42819 l -0.92514,0.54347 -14.03502,0.13229 -14.03500974,0.13229 -0.72814,0.4774 c -0.40047996,0.26257 -0.96012996,0.85788 -1.24367996,1.32292 l -0.51555,0.84552 -9.9e-4,6.77389 -9.9e-4,6.77389 0.59531,0.87214 c 0.32743,0.47968 1.01017996,1.0926 1.51722996,1.36205 l 0.92191,0.4899 H 30.02464 59.4304 l 1.13957,0.40207 c 1.47005,0.51866 2.75548,1.50822 3.54392,2.72819 0.90033,1.3931 8.08304,21.42961 8.08304,22.54801 0,1.10205 -0.54454,1.96052 -1.58482,2.49847 l -0.75894,0.39246 -49.05969,0.003 -49.05969,0.003 z m 88.136225,-11.8486 0.51177,-0.2739 v -1.56888 -1.56888 l -0.51177,-0.27389 -0.51178,-0.27389 H 22.22697 -14.019441 l -0.415774,-0.41578 -0.415774,-0.41577 v -20.88319 -20.88318 l 0.529167,-0.52917 0.529167,-0.52916 H 2.1617203 18.1161 l 0.3175,-0.3175 c 0.41196,-0.41197 0.41196,-2.92179 0,-3.33375 l -0.3175,-0.3175 H 2.1617203 -13.792655 l -0.529167,-0.52917 -0.529167,-0.52917 v -21.38068 -21.38068 l 0.332341,-0.4545 0.332341,-0.4545 17.8577673,0.005 17.8577597,0.005 0.66146,-0.33509 0.66146,-0.33508 0.0789,-1.35101 0.0789,-1.351 -0.42851,-0.4285 -0.4285,-0.42851 H 2.3160003 -17.520875 l -0.649432,0.64943 -0.649432,0.64944 v 48.97733 48.97734 l 0.28188,0.52669 c 0.155034,0.28969 0.541987,0.6315 0.859896,0.75959 0.322817,0.13006 17.26112326,0.24029 38.364683,0.24966 l 37.78666,0.0168 z M 2.6115103,232.26264 c 0,-0.39046 -0.75266,-0.88277 -1.05959,-0.69308 l -0.28902,0.17862 0.30983,0.37332 c 0.34201,0.4121 1.03878,0.50677 1.03878,0.14114 z M 41.24068,228.93856 c 0,-0.0642 -0.11906,-0.19026 -0.26458,-0.2802 -0.14553,-0.0899 -0.26459,-0.0374 -0.26459,0.11668 0,0.15411 0.11906,0.2802 0.26459,0.2802 0.14552,0 0.26458,-0.0525 0.26458,-0.11668 z m -8.33438,-4.11665 c 0.0899,-0.14553 -0.0221,-0.26459 -0.24896,-0.26459 -0.22687,0 -0.41249,0.11906 -0.41249,0.26459 0,0.14552 0.11203,0.26458 0.24896,0.26458 0.13694,0 0.32256,-0.11906 0.41249,-0.26458 z M -4.2676547,195.98232 c 0,-0.14552 -0.178594,-0.26458 -0.396875,-0.26458 -0.218282,0 -0.396875,0.11906 -0.396875,0.26458 0,0.14552 0.178593,0.26459 0.396875,0.26459 0.218281,0 0.396875,-0.11907 0.396875,-0.26459 z M -27.969503,147.93214 c 0.230183,-0.0883 0.418514,-0.33436 0.418514,-0.54674 v -0.38614 l -0.725341,0.0837 c -0.437476,0.0505 -0.760191,0.26748 -0.813151,0.54674 -0.09047,0.47704 0.352926,0.59677 1.119978,0.30242 z M 21.39693,126.66149 c 0,-0.14552 -0.11906,-0.26458 -0.26458,-0.26458 -0.14553,0 -0.26459,0.11906 -0.26459,0.26458 0,0.14552 0.11906,0.26458 0.26459,0.26458 0.14552,0 0.26458,-0.11906 0.26458,-0.26458 z m 63.38564,123.69835 c -3.50623,-1.00027 -7.14674,-3.79108 -8.80841,-6.75252 C 74.91455,241.71889 34.36151,129.00935 34.36151,127.95281 v -0.80286 l 0.7734,-0.7734 0.7734,-0.77339 h 12.35381 12.35382 l 1.29372,0.70413 c 0.71155,0.38727 1.58266,1.08294 1.93579,1.54592 0.37421,0.49061 3.69504,9.2757 7.96004,21.05785 4.02488,11.11883 9.10675,25.15715 11.29304,31.19626 2.18628,6.03912 4.14321,11.30763 4.34873,11.70782 0.21415,0.41698 0.59378,0.7276 0.88925,0.7276 0.29491,0 0.67651,-0.31142 0.89158,-0.7276 0.20679,-0.40019 3.73633,-10.01448 7.84342,-21.36511 4.10709,-11.35062 9.16878,-25.34047 11.2482,-31.08854 l 3.78078,-10.45104 0.97508,-1.13174 c 0.5363,-0.62246 1.43544,-1.3666 1.9981,-1.65365 l 1.02301,-0.5219 h 12.33402 12.33402 l 0.77339,0.77339 0.7734,0.7734 v 0.80681 c 0,0.67878 -9.67614,27.64949 -36.97081,103.05034 l -4.39401,12.13832 -1.34415,1.87335 -1.34415,1.87335 -1.98438,1.34266 c -1.0914,0.73847 -2.63922,1.56428 -3.43958,1.83515 l -1.45521,0.49248 -2.64583,0.0849 -2.64584,0.0849 z m 4.71081,-12.11907 c 0.28687,-0.20977 5.15978,-13.32683 12.75328,-34.32969 6.75896,-18.69462 14.86152,-41.10123 18.00569,-49.79248 3.14417,-8.69124 5.647,-15.98382 5.56184,-16.20572 l -0.15482,-0.40347 h -1.5548 -1.5548 l -0.4277,0.47261 c -0.23524,0.25993 -3.63717,9.31872 -7.55984,20.13064 -3.92268,10.81192 -7.20271,19.7286 -7.28896,19.81485 -0.0863,0.0862 -0.33446,-0.0726 -0.5516,-0.35304 l -0.39479,-0.50985 0.17401,0.52916 c 0.0957,0.29104 0.27091,0.65599 0.38934,0.811 0.1238,0.16203 -3.69963,11.07097 -8.99506,25.66458 l -9.21039,25.38275 h -0.35755 c -0.21077,0 -0.70729,-0.9776 -1.20944,-2.38125 -0.46853,-1.30968 -5.19108,-14.34703 -10.49456,-28.97187 -5.30348,-14.62484 -9.94397,-27.42406 -10.3122,-28.44271 -7.62197,-21.0849 -11.40911,-31.28645 -11.75739,-31.6713 l -0.43039,-0.47557 h -1.5548 -1.5548 l -0.15231,0.39693 c -0.11351,0.29579 33.02865,93.16813 35.29141,98.89507 0.63827,1.61546 2.18714,2.28281 3.34063,1.43936 z M 73.25526,208.30106 c 0,-0.20969 -0.11083,-0.44976 -0.2463,-0.53348 -0.31456,-0.19441 -0.63093,0.30104 -0.41516,0.65016 0.2433,0.39367 0.66146,0.3199 0.66146,-0.11668 z m 35.05729,-4.11665 c 0.0899,-0.14552 0.0374,-0.26459 -0.11667,-0.26459 -0.15411,0 -0.2802,0.11907 -0.2802,0.26459 0,0.14552 0.0525,0.26458 0.11668,0.26458 0.0642,0 0.19026,-0.11906 0.28019,-0.26458 z M 91.7761,203.39066 c 0,-0.14552 -0.0525,-0.26459 -0.11668,-0.26459 -0.0642,0 -0.19026,0.11907 -0.2802,0.26459 -0.0899,0.14552 -0.0374,0.26458 0.11668,0.26458 0.15411,0 0.2802,-0.11906 0.2802,-0.26458 z m 5.55625,-1.34853 c 0,-0.0958 -0.17708,-0.32114 -0.39351,-0.50076 -0.56048,-0.46516 -1.19399,-0.13229 -1.19399,0.62737 v 0.64678 l 0.79375,-0.2996 c 0.43656,-0.16479 0.79375,-0.37799 0.79375,-0.47379 z m -9.50389,-2.51228 c 0.13138,-0.15891 0.17026,-0.35754 0.0864,-0.44141 -0.16543,-0.16543 -1.695,0.30106 -1.695,0.51694 0,0.0724 0.26789,0.50728 0.59531,0.96631 l 0.59531,0.83459 0.0896,-0.79375 c 0.0493,-0.43656 0.19706,-0.92377 0.32844,-1.08268 z m 14.0018,-23.25898 c 0,-0.41158 -0.14993,-0.66146 -0.39687,-0.66146 -0.42703,0 -0.49034,0.24233 -0.23628,0.9044 0.24718,0.64412 0.63315,0.49602 0.63315,-0.24294 z M 53.6761,160.79274 c 0,-0.14552 -0.0525,-0.26458 -0.11668,-0.26458 -0.0642,0 -0.19026,0.11906 -0.2802,0.26458 -0.0899,0.14552 -0.0374,0.26458 0.11668,0.26458 0.15411,0 0.2802,-0.11906 0.2802,-0.26458 z m 51.06458,-2.1479 c 0,-0.14552 -0.11906,-0.19099 -0.26458,-0.10106 -0.14553,0.0899 -0.26459,0.28259 -0.26459,0.42811 0,0.14552 0.11906,0.191 0.26459,0.10106 0.14552,-0.0899 0.26458,-0.28258 0.26458,-0.42811 z m 1.45521,0.0312 c -0.0899,-0.14552 -0.28259,-0.26458 -0.42811,-0.26458 -0.14552,0 -0.191,0.11906 -0.10106,0.26458 0.0899,0.14552 0.28258,0.26459 0.4281,0.26459 0.14553,0 0.191,-0.11907 0.10107,-0.26459 z m 20.39189,-22.16192 c -0.0881,-0.0881 -0.30594,-0.0142 -0.4842,0.16402 l -0.3241,0.32411 0.39466,0.2466 0.39466,0.24659 0.0895,-0.41061 c 0.0492,-0.22584 0.0175,-0.48266 -0.0706,-0.57071 z m -5.70752,-2.44433 c 0,-0.14552 -0.12609,-0.26458 -0.2802,-0.26458 -0.15411,0 -0.20661,0.11906 -0.11667,0.26458 0.0899,0.14553 0.21602,0.26459 0.2802,0.26459 0.0642,0 0.11667,-0.11906 0.11667,-0.26459 z m -69.58541,-0.11667 c 0,-0.0642 -0.11907,-0.19026 -0.26459,-0.2802 -0.14552,-0.0899 -0.26458,-0.0374 -0.26458,0.11668 0,0.15411 0.11906,0.28019 0.26458,0.28019 0.14552,0 0.26459,-0.0525 0.26459,-0.11667 z m 80.85776,-6.16167 c -0.26895,-0.26895 -0.49086,0.13597 -0.27019,0.49302 l 0.20722,0.3353 0.11141,-0.33423 c 0.0613,-0.18383 0.0395,-0.40617 -0.0484,-0.49409 z m -26.27057,122.44481 c -1.02427,-0.62599 -1.40594,-1.28782 -1.40594,-2.43795 0,-1.07292 7.21446,-21.14802 8.08303,-22.49198 0.78844,-1.21997 2.07387,-2.20953 3.54392,-2.72819 l 1.13958,-0.40207 h 29.40575 29.40576 l 0.92191,-0.4899 c 0.50706,-0.26945 1.18981,-0.88237 1.51723,-1.36205 l 0.59531,-0.87214 -9.9e-4,-6.77389 -9.8e-4,-6.77389 -0.51555,-0.84552 c -0.28355,-0.46504 -0.84321,-1.06035 -1.24369,-1.32292 l -0.72813,-0.4774 -14.03502,-0.13229 -14.03501,-0.13229 -0.92514,-0.54347 c -0.50883,-0.29891 -1.19344,-0.9416 -1.52136,-1.42819 l -0.59621,-0.88472 v -11.43112 -11.43112 l 0.59745,-0.89902 c 0.32859,-0.49446 1.12773,-1.16692 1.77585,-1.49434 l 1.17841,-0.59531 h 13.58312 13.58312 l 0.71446,-0.37174 c 0.39296,-0.20445 1.01212,-0.6901 1.37592,-1.07923 l 0.66146,-0.70749 0.0716,-7.58588 0.0716,-7.58587 -0.52199,-0.84552 c -0.28709,-0.46503 -0.84972,-1.06035 -1.25028,-1.32291 l -0.7283,-0.4774 -17.82703,-0.13229 -17.82704,-0.13229 -0.77188,-0.86407 -0.77189,-0.86407 v -1.17061 -1.1706 l 3.58586,-9.97789 c 1.97222,-5.48785 3.75468,-10.30437 3.96102,-10.7034 0.56981,-1.10188 1.89992,-2.32062 3.31569,-3.03804 l 1.27312,-0.64514 26.69854,-0.006 26.69853,-0.006 0.88755,0.59812 c 0.48815,0.32896 1.1321,1.01443 1.43101,1.52326 l 0.54348,0.92514 v 59.53124 59.53125 l -0.52917,0.89839 c -0.29104,0.49411 -0.86531,1.14895 -1.27615,1.45521 l -0.74699,0.55682 -49.25926,0.0663 -49.25927,0.0663 z m 90.665,-5.10758 -0.004,-0.59532 -0.24307,0.38425 c -0.13369,0.21133 -0.18438,0.47922 -0.11263,0.59531 0.22949,0.37132 0.36392,0.22775 0.35975,-0.38424 z m -1.56005,-7.30536 0.50577,-0.62462 v -49.06292 -49.06292 l -0.64943,-0.64944 -0.64943,-0.64943 h -19.83688 -19.83688 l -0.4285,0.42851 -0.42851,0.4285 0.0789,1.351 0.0789,1.35101 0.66145,0.33508 0.66146,0.33509 17.85777,-0.005 17.85776,-0.005 0.33234,0.4545 0.33234,0.4545 v 21.38068 21.38068 l -0.52917,0.52917 -0.52916,0.52917 h -15.95438 -15.95437 l -0.3175,0.3175 c -0.17463,0.17462 -0.3175,0.92472 -0.3175,1.66687 0,0.74216 0.14287,1.49225 0.3175,1.66688 l 0.3175,0.3175 h 15.95437 15.95438 l 0.52916,0.52916 0.52917,0.52917 v 20.88318 20.88319 l -0.41577,0.41577 -0.41578,0.41578 h -36.24645 -36.24641 l -0.51177,0.27389 -0.51177,0.27389 v 1.56504 1.56505 l 0.46302,0.27118 0.46302,0.27117 38.18954,-0.0596 38.18954,-0.0596 z m -14.94067,-5.80708 c -0.22878,-0.22878 -0.49529,-0.33663 -0.59226,-0.23967 -0.25371,0.25372 0.43782,1.00817 0.74824,0.81632 0.15465,-0.0956 0.0915,-0.32921 -0.15598,-0.57665 z m -59.65039,-4.08033 -0.33145,-0.33146 -0.24952,0.39467 c -0.13723,0.21706 -0.25134,0.62948 -0.25356,0.91648 l -0.004,0.52181 0.58502,-0.58502 0.58502,-0.58502 z m 22.4526,-2.59951 c 0.16008,-0.29911 0.24299,-0.68606 0.18425,-0.85989 -0.0587,-0.17384 -0.30765,0.0709 -0.55312,0.54383 -0.24548,0.47295 -0.32839,0.8599 -0.18425,0.8599 0.14413,0 0.39304,-0.24473 0.55312,-0.54384 z m 24.06923,-48.0072 c 0,-0.21828 -0.11204,-0.39688 -0.24897,-0.39688 -0.33363,0 -0.57258,0.41317 -0.3612,0.62456 0.29797,0.29797 0.61017,0.18147 0.61017,-0.22768 z m 39.42292,-14.94896 c 0,-0.14552 -0.1786,-0.26458 -0.39688,-0.26458 -0.21828,0 -0.39687,0.11906 -0.39687,0.26458 0,0.14552 0.17859,0.26458 0.39687,0.26458 0.21828,0 0.39688,-0.11906 0.39688,-0.26458 z m -56.3284,-31.94083 c 0.82469,-0.48716 0.87876,-0.94376 0.12897,-1.08913 -0.52923,-0.10261 -1.47974,0.66094 -1.47974,1.18868 0,0.47914 0.42403,0.44789 1.35077,-0.0996 z m 46.33156,-2.23893 c -0.40416,-0.40415 -0.70238,-0.10593 -0.47822,0.47822 l 0.17365,0.45253 0.30883,-0.30883 0.30883,-0.30882 z m -10.90525,-0.10583 c 0,-0.46724 -0.56958,-0.38587 -0.73311,0.10473 -0.0576,0.17281 0.0838,0.3142 0.31419,0.3142 0.23041,0 0.41892,-0.18852 0.41892,-0.41893 z m 29.10004,122.16586 c -0.50705,-0.26981 -1.18987,-0.95442 -1.51738,-1.52136 l -0.59547,-1.03079 0.0663,-11.42412 0.0663,-11.42413 0.54551,-0.73036 c 0.30003,-0.40169 0.87423,-0.97584 1.27599,-1.27587 l 0.73048,-0.54552 20.28755,-0.13229 20.28755,-0.13229 0.88983,-0.63464 c 0.48941,-0.34906 1.05495,-1.02984 1.25677,-1.51286 l 0.36694,-0.87821 v -44.99616 -44.99616 l 0.36429,-0.8514 c 0.20036,-0.46827 0.74386,-1.20859 1.20778,-1.64515 l 0.8435,-0.79375 11.69065,-0.0697 11.69066,-0.0697 0.86231,0.53026 c 0.47427,0.29164 1.09891,0.9183 1.38807,1.39257 l 0.52576,0.86231 v 59.79583 59.79584 l -0.52576,0.86231 c -0.28916,0.47427 -0.9138,1.09891 -1.38807,1.38807 l -0.86231,0.52576 -22.53369,9.9e-4 -22.53368,9.9e-4 -0.13345,-0.33073 -0.13345,-0.33073 -0.0209,0.33073 -0.0209,0.33073 h -11.57965 -11.57964 z m 51.20101,-0.56777 c 0.0899,-0.14552 0.0374,-0.26459 -0.11668,-0.26459 -0.15411,0 -0.2802,0.11907 -0.2802,0.26459 0,0.14552 0.0525,0.26458 0.11668,0.26458 0.0642,0 0.19026,-0.11906 0.2802,-0.26458 z m 6.71297,-7.43488 c -0.66022,-0.41823 -0.84984,-0.24685 -0.3446,0.31143 l 0.49726,0.54947 0.10516,-0.31549 c 0.0578,-0.17351 -0.0582,-0.41895 -0.25782,-0.54541 z m -6.84527,-0.23804 c 0,-0.14552 -0.11906,-0.26458 -0.26458,-0.26458 -0.14552,0 -0.26458,0.11906 -0.26458,0.26458 0,0.14552 0.11906,0.26459 0.26458,0.26459 0.14552,0 0.26458,-0.11907 0.26458,-0.26459 z m 7.76359,-3.73334 c 0.3546,-0.16157 0.77692,-0.58389 0.93849,-0.93849 l 0.29376,-0.64473 V 219.5461 202.38894 l 0.43289,-0.16612 0.43289,-0.16611 -0.43289,-0.47834 -0.43289,-0.47834 v -31.24725 -31.24724 l -0.41578,-0.41577 c -0.49889,-0.4989 -2.76599,-0.56776 -3.23547,-0.0983 l -0.3175,0.3175 v 15.43835 15.43835 l -0.40509,0.78334 -0.40508,0.78335 0.33894,-0.0689 0.33894,-0.0689 0.0672,31.19946 0.0672,31.19945 -0.40406,0.61669 -0.40407,0.61669 h -21.97164 -21.97171 l -0.51178,0.27389 -0.51177,0.27389 v 1.52527 c 0,0.83891 0.14288,1.66815 0.3175,1.84278 l 0.3175,0.3175 h 23.61484 23.61484 z m -39.51359,-5.48298 c 0,-0.3445 -0.31453,-0.57362 -0.57038,-0.41549 -0.27364,0.16911 -0.0377,0.63598 0.32142,0.63598 0.13693,0 0.24896,-0.0992 0.24896,-0.22049 z m -13.49375,-8.36285 c 0,-0.0642 -0.11906,-0.19027 -0.26458,-0.2802 -0.14552,-0.0899 -0.26458,-0.0374 -0.26458,0.11667 0,0.15411 0.11906,0.2802 0.26458,0.2802 0.14552,0 0.26458,-0.0525 0.26458,-0.11667 z m 61.9125,-17.34583 c 0,-0.14552 -0.20836,-0.26276 -0.46302,-0.26053 l -0.46302,0.004 0.39688,0.25648 c 0.49932,0.32269 0.52916,0.32269 0.52916,0 z m -2.64583,-1.05833 c 0,-0.14552 -0.12609,-0.26458 -0.2802,-0.26458 -0.15411,0 -0.20661,0.11906 -0.11667,0.26458 0.0899,0.14552 0.21602,0.26458 0.28019,0.26458 0.0642,0 0.11668,-0.11906 0.11668,-0.26458 z m 6.13392,-6.14274 c -0.18985,-0.18986 -0.31309,-0.20548 -0.31309,-0.0397 0,0.35316 0.3129,0.66606 0.48948,0.48948 0.0752,-0.0752 -0.004,-0.27759 -0.17639,-0.44979 z m -19.89225,-0.33955 0.32937,-0.39688 h -0.82614 -0.82615 v 0.39688 c 0,0.21828 0.22355,0.39687 0.49677,0.39687 0.27322,0 0.64499,-0.17859 0.82615,-0.39687 z m 15.875,-1.59381 c 0,-0.20457 -0.23813,-0.49939 -0.52917,-0.65515 -0.51333,-0.27473 -0.73222,-0.0267 -0.33073,0.37483 0.10914,0.10914 0.21332,0.30757 0.23151,0.44097 0.0676,0.49601 0.10517,0.53467 0.3638,0.37482 0.14552,-0.0899 0.26459,-0.33089 0.26459,-0.53547 z m 4.63021,-14.1489 c 0.0899,-0.14552 -0.0887,-0.26458 -0.39688,-0.26458 -0.30822,0 -0.48681,0.11906 -0.39687,0.26458 0.0899,0.14552 0.26853,0.26458 0.39687,0.26458 0.12834,0 0.30694,-0.11906 0.39688,-0.26458 z m -1.51585,-6.82956 c 0.0576,-0.1728 -0.0838,-0.31419 -0.31419,-0.31419 -0.23041,0 -0.41892,0.18852 -0.41892,0.41892 0,0.46724 0.56958,0.38587 0.73311,-0.10473 z m -4.96645,-1.10794 c 0,-0.29104 -0.11203,-0.52917 -0.24896,-0.52917 -0.35517,0 -0.60543,0.48158 -0.41249,0.79375 0.27652,0.44742 0.66145,0.29345 0.66145,-0.26458 z m -9.78958,-1.5434 c 0,-0.34451 -0.31453,-0.57363 -0.57039,-0.4155 -0.27363,0.16912 -0.0377,0.63598 0.32142,0.63598 0.13693,0 0.24897,-0.0992 0.24897,-0.22048 z m 13.62604,-7.18785 c 0.0899,-0.14552 0.0374,-0.26458 -0.11667,-0.26458 -0.15411,0 -0.2802,0.11906 -0.2802,0.26458 0,0.14552 0.0525,0.26458 0.11667,0.26458 0.0642,0 0.19027,-0.11906 0.2802,-0.26458 z m -16.80104,-40.11561 c 0,-0.21828 -0.11906,-0.32329 -0.26458,-0.23335 -0.14552,0.0899 -0.26459,0.34212 -0.26459,0.5604 0,0.21828 0.11907,0.32329 0.26459,0.23335 0.14552,-0.0899 0.26458,-0.34211 0.26458,-0.5604 z"
     id="logo-face"
     style="fill:#ffffff"
     transform="matrix(0.53333333,0,0,0.53333333,58.720528,-66.984561)" /></svg>
