<?xml version="1.0" encoding="UTF-8" standalone="no"?>
<!-- Created with Inkscape (http://www.inkscape.org/) -->

<svg
   width="800"
   height="786.72"
   version="1.1"
   viewBox="0 0 211.67 208.15"
   id="svg1"
   xmlns="http://www.w3.org/2000/svg"
   xmlns:svg="http://www.w3.org/2000/svg">
  <defs
     id="defs1" />
  <path
     d="m 120.8068,207.985 c -3.6098,-0.80544 -8.704,-3.3718 -13.93,-7.0176 l -1.4619,-1.0199 -2.0678,0.96494 c -6.3927,2.9833 -11.642,4.7864 -16.186,5.5596 l -1.4802,0.25185 -4.2128,0.016 -0.96781,-0.20785 -0.96782,-0.20787 -0.91088,-0.43287 c -3.427,-1.6284 -7.6371,-6.3741 -11.639,-13.12 l -0.78911,-1.33 -11.254,-0.104 -1.7079,-0.18638 c -5.3242,-0.58098 -9.0085,-1.5835 -11.72,-3.189 -1.2476,-0.73881 -1.8826,-1.2984 -2.6921,-2.3727 l -0.69425,-0.92136 -0.66629,-1.3749 c -1.586,-3.2727 -2.835,-8.395 -3.4327,-14.079 l -0.14238,-1.3537 -1.5985,-0.63924 c -9.5852,-3.8331 -16.201,-7.955 -19.265,-12.004 -1.2529,-1.6552 -1.7242,-2.886 -1.9839,-5.1807 l -0.12887,-1.1386 0.07497,-1.4233 c 0.1894,-3.5943 0.97082,-7.3876 2.5868,-12.557 l 0.45513,-1.456 -0.89153,-0.95542 c -4.1652,-4.4637 -5.3426,-5.8139 -7.202,-8.2586 -3.1732,-4.1722 -5.0987,-7.8595 -5.7564,-11.023 l -0.17313,-0.83293 7.969e-4,-1.1596 7.97e-4,-1.1596 0.22083,-0.92104 c 0.79685,-3.3236 3.5164,-7.7355 7.8894001,-12.799 0.7842,-0.90804 1.5783,-1.7945 1.7646,-1.97 l 0.3388,-0.31902 -0.55057,-1.4818 c -0.7905,-2.1275 -1.8204,-5.327 -2.4147,-7.5014 -1.8494,-6.7667 -2.249,-11.692 -1.264,-15.584 l 0.26988,-1.0664 0.41084,-0.74742 c 1.9025,-3.4611 7.1829,-7.1752 15.337,-10.788 l 0.99628,-0.44137 V 55.9297 c 0,-1.6478 0.72656,-7.8462 1.2611,-10.759 1.1137,-6.0679 3.1612,-11.036 5.5466,-13.459 l 0.66201,-0.67237 0.84803,-0.52821 c 2.2514,-1.4023 6.0012,-2.3904 10.925,-2.8786 l 1.7648,-0.17501 6.0462,-0.13914 0.90506,-1.6559 c 5.9642,-10.912 11.956,-17.527 16.868,-18.623 l 0.8195,-0.18282 3.257,5.4e-5 1.4233,0.23087 c 3.3963,0.55092 8.8698,2.3058 13.102,4.2006 l 0.47674,0.21344 1.8392,-1.3831 c 7.075796,-5.3213 12.769996,-8.4583 17.514996,-9.6497 l 1.3962,-0.35054 3.42,-0.12212 1.9314,0.49534 1.3663,0.66142 c 3.228,1.5626 7.0427,4.6391 11.166,9.0057 0.85756,0.90803 1.6164,1.6448 1.6864,1.6372 0.07,-0.0081 1.2544,-0.27428 2.6321,-0.59273 3.9163,-0.90518 6.8786,-1.4227 10.304,-1.8001 l 1.7648,-0.19442 5.5792,0.0011 1.2519,0.19096 c 0.68853,0.10509 1.7389,0.32181 2.3341,0.48173 l 1.0823,0.29076 1.0247,0.50034 1.0248,0.50036 0.71372,0.61316 c 1.0211,0.87722 1.9574,1.9846 3.0019,3.5504 l 0.91016,1.3644 1.0541,2.1084 c 1.1205,2.2412 2.3289,5.1748 3.2216,7.8211 l 0.5444,1.6138 1.084,0.19087 c 9.3376,1.6443 16.133,3.87 20.383,6.6766 l 1.0817,0.71421 2.2908,2.2847 0.52971,1.0817 c 0.93369,1.9066 1.4507,4.2757 1.6897,7.7425 l 0.12951,1.8787 -0.0729,2.2772 c -0.0683,2.1322 -0.34297,5.9643 -0.46616,6.5026 l -0.055,0.2403 0.99446,0.65917 c 0.54696,0.36255 1.6862,1.1477 2.5316,1.7449 8.429,5.9536 13.144,10.92 14.772,15.561 l 0.27967,0.79702 0.0607,1.3825 0.0607,1.3825 -0.13662,0.95165 c -0.5051,3.5183 -2.4502,8.367099 -5.5151,13.747999 -0.47744,0.83823 -0.86808,1.5393 -0.86808,1.5581 0,0.0188 0.44422,0.74191 0.98716,1.6071 4.5066,7.181597 7.3179,13.507997 8.0611,18.139997 l 0.17354,1.0817 9.2e-4,3.2086 -0.4475,1.7497 -0.53543,1.0367 c -1.6551,3.2046 -5.1564,6.7908 -10.667,10.926 -0.99055,0.74325 -1.88,1.3956 -1.9766,1.4497 l -0.17564,0.0983 0.24,1.7533 c 0.132,0.96429 0.34688,2.7524 0.47751,3.9736 l 0.2375,2.2203 0.1244,7.5646 -0.13613,1.4553 c -0.34089,3.6442 -1.1053,6.4633 -2.3088,8.5146 l -0.46762,0.79703 -0.80721,0.79949 c -2.6381,2.6128 -7.9441,4.8466 -15.647,6.5872 l -2.0875,0.47169 -0.72898,2.4109 c -3.0355,10.039 -6.5781,16.737 -10.51,19.872 -1.3248,1.056 -2.5268,1.5735 -4.625,1.9912 l -1.0248,0.20402 -6.3762,-0.008 -1.7079,-0.20454 c -1.6426,-0.19671 -5.6449,-0.83979 -7.0547,-1.1335 l -0.6785,-0.14136 -0.68131,0.80075 c -4.6479,5.4627 -9.1944,9.7608 -12.989,12.279 l -1.3689,0.90855 -1.4802,0.71877 c -0.8141,0.39531 -1.9413,0.85774 -2.5049,1.0276 l -1.0248,0.30883 -3.1881,0.0624 z m 3.7597,-3.4698 c 2.1943,-0.59707 5.397,-2.6287 8.765,-5.5601 1.1417,-0.99368 4.2334,-4.037 5.3893,-5.3049 l 0.92998,-1.0201 -1.3663,1.2338 c -5.2257,4.7188 -10.246,8.2031 -13.291,9.2255 l -0.86759,0.29125 h -0.79981 c -0.85037,0 -1.9075,-0.18131 -2.0083,-0.34443 l -0.0608,-0.0983 1.7392,-1.1723 c 3.3332,-2.2468 6.5528,-4.7906 9.9656,-7.8736 0.89238,-0.8062 1.6225,-1.4872 1.6225,-1.5134 0,-0.0262 -0.44832,0.30457 -0.99628,0.73497 -4.3667,3.4298 -8.8764,6.4212 -12.806,8.4944 l -1.4486,0.76427 -2.0962,-0.98987 2.0413,-1.41 c 2.8392,-1.9611 6.0012,-4.337 8.5543,-6.4277 2.2724,-1.8608 2.9916,-2.5345 1.7419,-1.6317 -1.5392,1.112 -5.8181,3.9595 -7.5148,5.0009 -1.8822,1.1553 -5.547,3.28 -6.0579,3.5121 l -0.30794,0.1399 -0.97262,-0.55675 c -0.53494,-0.30622 -0.97278,-0.59046 -0.97298,-0.63166 -2.1e-4,-0.0412 1.1638,-0.8866 2.5868,-1.8787 1.423,-0.9921 3.4243,-2.4322 4.4474,-3.2003 1.9477,-1.4622 5.2624,-4.0973 5.2624,-4.1836 0,-0.0275 -1.1561,0.71568 -2.5692,1.6518 -3.6568,2.4225 -11.046,6.8034 -11.299,6.6993 -0.35893,-0.14751 -1.7297,-1.0809 -1.7251,-1.1747 0.003,-0.0639 0.8066,-0.67973 1.7854,-1.3686 3.1729,-2.2329 9.7087,-7.2248 9.7087,-7.4152 0,-0.0259 -0.60203,0.35608 -1.3379,0.84888 -2.6141,1.7507 -7.646,4.8306 -10.969,6.7135 l -0.63586,0.36034 -0.86976,-0.59535 c -0.47837,-0.32743 -0.85831,-0.62968 -0.84433,-0.67168 0.014,-0.042 1.4088,-1.1188 3.0997,-2.393 3.1419,-2.3677 6.5396,-5.0111 7.0924,-5.5178 l 0.30854,-0.28283 -0.68317,0.42707 c -0.37574,0.2349 -1.5798,0.99815 -2.6757,1.6961 -1.7713,1.1281 -7.6354,4.7039 -8.2719,5.0441 l -0.2448,0.13076 -0.86535,-0.63196 c -0.47595,-0.34758 -0.86535,-0.67549 -0.86535,-0.72868 0,-0.0532 0.6789,-0.59615 1.5086,-1.2065 1.685,-1.2396 7.8214,-5.9337 7.9987,-6.1188 0.0627,-0.0654 -0.0142,-0.0405 -0.1708,0.0551 -1.8558,1.1346 -7.2338,4.3536 -8.4257,5.0431 -0.84543,0.48909 -1.6969,0.98496 -1.8921,1.102 l -0.35501,0.21271 -0.89746,-0.69211 c -0.4936,-0.38066 -0.91199,-0.73171 -0.92977,-0.78012 -0.0328,-0.0893 5.702,-4.2024 8.5149,-6.1072 1.7252,-1.1682 3.4608,-2.2074 4.2551,-2.5479 0.29159,-0.12495 0.97779,-0.31165 1.5249,-0.41479 l 0.99473,-0.18753 2.6188,0.113 1.7124,0.3546 c 2.8146,0.58285 9.6903,2.5194 15.415,4.3418 7.5922,2.4168 13.574,3.6335 19.607,3.9881 l 2.1038,0.1236 1.3981,-0.12143 c 2.6877,-0.23337 3.9305,-0.62992 5.154,-1.6444 1.9434,-1.6115 4.5086,-5.7594 6.4154,-10.374 0.81325,-1.968 2.2641,-5.9729 2.1905,-6.0465 -0.0161,-0.0161 -0.27863,0.54368 -0.58351,1.2438 -2.7686,6.3581 -6.3485,12.216 -8.5725,14.028 -0.78336,0.63812 -1.2786,0.89593 -2.0284,1.056 -0.85526,0.18255 -1.3094,0.25085 -1.3094,0.1969 0,-0.0266 0.38412,-0.63749 0.8536,-1.3575 1.3573,-2.0816 2.9552,-4.9338 4.2804,-7.6403 1.2537,-2.5604 2.7535,-5.8706 2.6891,-5.935 -0.0197,-0.0197 -0.49427,0.81968 -1.0545,1.8653 -2.4178,4.5126 -5.2301,8.8724 -7.8207,12.124 l -0.88531,1.1113 -0.59691,-0.009 c -0.32829,-0.005 -0.83517,-0.0439 -1.1264,-0.0854 l -0.52949,-0.0754 1.2477,-2.0495 c 1.8407,-3.0237 3.1605,-5.3757 4.664,-8.3118 1.226,-2.3944 2.0309,-4.0715 1.8852,-3.9282 -0.0318,0.0313 -0.65746,1.056 -1.3903,2.2772 -2.7515,4.5851 -7.8584,11.956 -8.283,11.955 -0.21784,-5e-4 -2.1849,-0.24666 -2.2177,-0.27753 -0.0162,-0.0153 0.76724,-1.3523 1.7409,-2.9713 0.97368,-1.619 2.2224,-3.7663 2.7751,-4.7717 1.2205,-2.2206 3.2756,-6.1983 3.121,-6.0409 -0.0615,0.0627 -0.53906,0.80556 -1.0613,1.651 -1.9777,3.2018 -4.8022,7.3192 -7.381,10.76 -0.46937,0.62623 -0.86118,1.1505 -0.87067,1.165 -0.0247,0.0377 -2.147,-0.31107 -2.1969,-0.36103 -0.0229,-0.0228 0.56988,-1.0841 1.3172,-2.3584 2.2388,-3.8173 6.0215,-10.794 5.6389,-10.401 -0.0609,0.0627 -0.61421,0.90804 -1.2296,1.8787 -1.4148,2.2315 -3.082,4.6827 -5.1113,7.5148 -0.87498,1.2212 -1.723,2.4105 -1.8845,2.643 l -0.29366,0.42264 -0.18708,0.004 c -0.18709,0.004 -1.9491,-0.33805 -2.0069,-0.38995 -0.0168,-0.0151 0.31115,-0.6371 0.72884,-1.3822 2.1701,-3.8712 5.6966,-10.491 5.4832,-10.293 -0.0337,0.0313 -1.0355,1.5172 -2.2261,3.302 -1.6715,2.5055 -5.3453,7.8441 -5.547,8.0605 -0.062,0.0666 -2.2226,-0.47241 -2.2226,-0.55443 0,-0.0463 0.37781,-0.74229 0.83959,-1.5465 0.77304,-1.3462 4.2148,-7.6565 4.6789,-8.5784 0.31971,-0.63515 0.10636,-0.34674 -2.1057,2.8465 -1.8795,2.7132 -4.6551,6.6061 -4.9061,6.881 l -0.0971,0.10631 -1.1404,-0.26922 c -0.62723,-0.14807 -1.1404,-0.31173 -1.1404,-0.36371 0,-0.11563 4.2812,-7.3436 5.5173,-9.3149 2.5354,-4.0434 3.8397,-5.1869 6.9422,-6.0859 2.4712,-0.71613 10.423,-1.8903 18.169,-2.6828 10.081,-1.0314 19.514,-3.6131 23.921,-6.5465 l 1.1082,-0.73779 0.47328,-0.53767 c 1.4442,-1.6407 2.2288,-4.9413 2.4572,-10.337 l 0.0723,-1.7079 -0.12476,-2.2772 c -0.0686,-1.2525 -0.18883,-2.9433 -0.26712,-3.7574 l -0.14235,-1.4802 -0.0254,1.1386 c -0.014,0.62622 -0.0796,2.5105 -0.1459,4.1873 l -0.12048,3.0487 -0.22339,1.9612 c -0.26231,2.3029 -0.46999,3.4967 -0.86606,4.9785 -0.33129,1.2394 -0.9956,2.7301 -1.4616,3.2796 -0.34262,0.40412 -1.6358,1.3316 -1.7281,1.2394 -0.0307,-0.0307 0.0485,-0.76543 0.17603,-1.6327 0.56123,-3.8172 0.80806,-7.6344 0.80815,-12.498 4e-5,-1.8108 -0.0235,-3.2689 -0.0522,-3.2402 -0.0288,0.0288 -0.10747,0.8699 -0.17491,1.8692 -0.39888,5.9107 -0.98956,10.067 -2.0676,14.547 l -0.46039,1.9136 -0.59213,0.26185 c -0.71108,0.31448 -1.4352,0.56011 -1.4894,0.50522 -0.0216,-0.0219 0.0815,-0.9802 0.22912,-2.1296 0.54536,-4.2453 0.97884,-10.185 0.94845,-12.997 l -0.0142,-1.3094 -0.10136,0.91089 c -0.60936,5.476 -1.4498,10.547 -2.5517,15.396 l -0.18682,0.82213 -0.98469,0.29371 c -0.54157,0.16153 -1.0559,0.3179 -1.143,0.34749 l -0.1583,0.0538 0.0709,-0.60032 c 0.039,-0.33018 0.20038,-1.6763 0.35858,-2.9914 0.36393,-3.0253 0.70141,-7.045 0.85455,-10.179 0.11943,-2.4437 0.1,-3.1927 -0.0454,-1.7512 -0.13639,1.3518 -0.7466,5.4391 -1.1577,7.7546 -0.38811,2.186 -1.6238,8.115 -1.7103,8.2062 -0.0853,0.09 -2.0265,0.57405 -2.0815,0.51905 -0.0308,-0.0308 0.0827,-1.4002 0.25226,-3.0431 0.48778,-4.7256 0.98182,-11.625 0.84239,-11.765 -0.0269,-0.0269 -0.1124,0.47679 -0.18994,1.1194 -0.24271,2.0111 -1.1301,7.1745 -1.8444,10.731 -0.37712,1.8781 -0.69473,3.4215 -0.70579,3.4298 -0.0111,0.008 -0.49406,0.11806 -1.0733,0.24399 l -1.0532,0.22883 v -0.0986 c 0,-0.0543 0.0759,-0.93208 0.16859,-1.9508 0.25549,-2.8068 0.61057,-7.9115 0.67928,-9.7654 l 0.0612,-1.651 -0.39594,2.3911 c -0.35496,2.1436 -1.3424,7.6522 -1.8572,10.361 l -0.19476,1.0247 -1.0537,0.21687 c -0.57954,0.11927 -1.0854,0.18521 -1.124,0.14655 -0.0387,-0.0386 0.0388,-1.3659 0.17215,-2.9495 0.23474,-2.7877 0.70641,-9.1442 0.68971,-9.295 -0.004,-0.0408 -0.40667,2.0265 -0.89367,4.594 -0.487,2.5675 -1.0465,5.408 -1.2434,6.312 l -0.35795,1.6437 -0.12573,0.0777 c -0.16099,0.0996 -2.141,0.38539 -2.2076,0.31877 -0.0926,-0.0927 1.0763,-10.151 1.4138,-12.167 0.39318,-2.3474 0.64516,-3.2111 1.228,-4.209 l 0.42999,-0.73622 0.85395,-0.90173 c 0.9775,-1.0322 1.9212,-1.775 4.099,-3.2264 2.6465,-1.7638 8.6278,-5.385 12.752,-7.7207 4.2554,-2.4098 8.6316,-5.4027 12.069,-8.2543 1.7511,-1.4526 4.6657,-4.2987 5.6562,-5.5232 0.83935,-1.0377 1.7471,-2.5106 2.0465,-3.3207 l 0.2035,-0.5506 -0.006,-1.4233 -0.006,-1.4232 -0.31062,-1.3455 c -0.6245,-2.7053 -1.7823,-5.6928 -3.6042,-9.3004 -1.683,-3.3326 -3.1363,-5.8367 -2.2136,-3.8143 2.3476,5.1456 3.9725,9.6922 4.6187,12.923 l 0.26189,1.3094 0.008,1.3094 0.008,1.3094 -0.15644,0.45544 c -0.18288,0.5324 -0.90179,1.7648 -1.0295,1.7648 -0.0483,0 -0.2031,-0.4227 -0.34408,-0.93935 -0.52194,-1.9128 -1.7708,-5.562 -2.6789,-7.8279 -0.9187,-2.2923 -3.018,-6.9866 -3.0916,-6.913 -0.0206,0.0205 0.1949,0.64938 0.47889,1.3973 1.9008,5.0058 3.2787,9.8258 4.1592,14.548 l 0.25114,1.347 -1.6103,1.6103 -0.36107,-1.1843 c -1.298,-4.2576 -2.6512,-8.0519 -4.336,-12.158 -0.9174,-2.2358 -1.2529,-2.8956 -0.78374,-1.5414 0.56866,1.6415 1.7681,5.642 2.3341,7.7852 0.64791,2.4532 1.8792,7.8515 1.866,8.181 l -0.008,0.1922 -0.84963,0.72721 c -0.4673,0.39998 -0.86986,0.707 -0.89456,0.6823 -0.0247,-0.0247 -0.46027,-1.3658 -0.96791,-2.9802 -1.043,-3.3168 -1.8342,-5.5846 -2.9876,-8.5629 -1.2155,-3.1388 -1.2613,-3.2521 -1.2992,-3.2142 -0.0195,0.0195 0.19364,0.79499 0.47354,1.7234 1.1539,3.8278 2.2865,8.3256 3.1916,12.675 l 0.31332,1.5056 -0.2754,0.21828 c -0.15148,0.12009 -0.54435,0.43317 -0.87307,0.6958 l -0.59765,0.47752 -0.0553,-0.15192 c -0.0304,-0.0836 -0.61592,-1.8171 -1.3011,-3.8524 -1.061,-3.1516 -1.9771,-5.6684 -3.2021,-8.798 -0.14145,-0.36135 -0.2769,-0.63728 -0.301,-0.61318 -0.0241,0.024 0.16515,0.75527 0.42055,1.6248 0.64763,2.2049 1.8159,6.7936 2.5042,9.8359 0.3188,1.409 0.60443,2.6462 0.63473,2.7492 l 0.0551,0.1873 -0.77244,0.55926 c -0.42484,0.30759 -0.82987,0.59372 -0.90007,0.63583 l -0.12764,0.0766 -0.42805,-1.2216 c -1.5006,-4.2826 -4.1475,-11.345 -4.2236,-11.268 -0.0193,0.0193 0.22082,0.95557 0.53362,2.0806 0.57003,2.0501 2.8352,11.052 2.8358,11.27 3.8e-4,0.13143 -1.7937,1.373 -1.8715,1.2952 -0.0278,-0.0278 -0.35318,-0.92221 -0.72316,-1.9877 -1.0666,-3.0717 -3.243,-8.9376 -3.2962,-8.8844 -0.0267,0.0266 0.3635,1.7308 0.86701,3.7869 0.84807,3.4632 1.8361,7.763 1.8361,7.9905 0,0.10063 -1.9348,1.4286 -1.9867,1.3636 -0.0161,-0.0201 -0.70115,-2.1116 -1.5224,-4.6478 -1.5708,-4.8506 -2.1542,-6.7927 -2.5485,-8.4826 l -0.23906,-1.0248 -0.004,-1.0817 -0.004,-1.0817 0.14648,-0.68315 c 0.47899,-2.2339 2.0587,-4.9328 7.0642,-12.069 1.2738,-1.8161 2.9804,-4.1986 3.7925,-5.2945 5.3806,-7.2615 9.5684,-15.077 10.921,-20.381 l 0.33389,-1.3094 0.133,-2.4247 -0.13901,-0.55246 c -0.22778,-0.90525 -0.99707,-2.3241 -1.9723,-3.6375 l -0.91636,-1.2342 -1.7192,-1.7542 c -2.3496,-2.3975 -4.8447,-4.5204 -7.9815,-6.7912 -1.087,-0.78687 -0.94939,-0.64063 1.1358,1.2071 2.9824,2.6428 6.2414,6.0596 7.9677,8.3532 0.86206,1.1454 1.6105,2.415 1.9406,3.292 l 0.28514,0.75754 -0.0113,0.99368 c -0.006,0.54653 -0.0457,1.1165 -0.0878,1.2666 l -0.0764,0.27296 -1.2716,-1.4803 c -2.9834,-3.4733 -6.3025,-6.7216 -10.565,-10.34 l -0.79702,-0.6766 2.4489,2.5026 c 2.5764,2.6328 4.621,4.948 6.476,7.3326 1.1182,1.4375 3.0634,4.1519 3.1708,4.4247 0.0507,0.12873 -0.4303,1.6603 -0.64457,2.0523 l -0.0812,0.14863 -2.0977,-2.3689 c -2.1182,-2.3921 -6.9794,-7.3413 -8.7572,-8.9159 l -0.96421,-0.85395 1.299,1.4225 c 3.1082,3.4036 5.8452,6.7563 8.8104,10.793 l 1.1108,1.5121 -0.51918,1.096 c -0.28555,0.6028 -0.53652,1.0752 -0.55771,1.0498 -0.42228,-0.5068 -3.0371,-3.4525 -3.9322,-4.4299 -1.4867,-1.6233 -6.6425,-6.8429 -6.7012,-6.7842 -0.0237,0.02364 0.63346,0.82969 1.4603,1.7911 2.1088,2.452 4.1811,5.0594 6.5291,8.2148 l 2.016,2.7094 -0.47124,0.87725 c -0.25918,0.48249 -0.5099,0.91726 -0.55715,0.96616 l -0.0859,0.0889 -1.8566,-2.0246 c -2.5692,-2.8016 -6.6777,-7.0468 -7.5357,-7.7862 l -0.71297,-0.6145 1.3092,1.5426 c 1.8244,2.1497 4.0721,4.9741 6.2403,7.8412 l 1.844,2.4384 -0.0611,0.15917 c -0.0336,0.0875 -0.27338,0.52268 -0.53286,0.96698 l -0.4718,0.80782 -0.80993,-0.84436 c -3.669,-3.825 -7.3673,-7.5879 -7.9521,-8.0912 l -0.70622,-0.60782 1.1442,1.3663 c 1.3791,1.6468 4.266,5.256 6.1742,7.719 l 1.3932,1.7983 -0.58157,0.96282 c -0.31986,0.52955 -0.61655,0.95852 -0.65932,0.95326 -0.0428,-0.005 -0.63148,-0.60727 -1.3083,-1.3378 -1.9062,-2.0577 -7.2127,-7.4253 -6.7725,-6.8506 0.2158,0.28181 1.4721,1.9004 2.7918,3.5969 1.3197,1.6965 2.8674,3.717 3.4394,4.4901 l 1.04,1.4056 -0.0653,0.17027 c -0.1176,0.30649 -1.1192,1.837 -1.2021,1.837 -0.0829,0 -5.5969,-6.0454 -7.0101,-7.6856 -1.1828,-1.3728 -2.0045,-2.4122 -2.6515,-3.3538 l -0.58329,-0.84888 -0.3638,-1.0868 -0.36379,-1.0867 0.004,-2.1064 0.004,-2.1064 0.31313,-2.0495 c 0.51846,-3.3934 1.4416,-8.2568 2.9608,-15.599 0.81896,-3.9579 1.3541,-8.2098 1.5615,-12.406 l 0.12919,-2.6143 -0.13043,-2.237 c -0.20106,-3.4482 -0.63241,-5.6196 -1.4121,-7.1085 l -0.35777,-0.68316 -0.64353,-0.63814 c -1.6675,-1.6536 -5.1282,-3.3921 -9.6841,-4.865 -1.7899,-0.57866 -6.3121,-1.7541 -7.2695,-1.8895 l -0.51237,-0.0724 2.2203,0.72574 c 5.3086,1.7352 9.844,3.6928 12.354,5.3321 l 0.91089,0.59496 0.8688,0.86265 0.8688,0.86266 0.30141,0.95412 c 0.16578,0.52478 0.27477,0.98078 0.24221,1.0133 -0.0325,0.03255 -0.86658,-0.32868 -1.8534,-0.80275 -3.4648,-1.6646 -7.3809,-3.1818 -11.651,-4.5138 -1.2254,-0.38227 -2.2757,-0.69309 -2.3341,-0.69072 -0.0584,0.0027 1.0723,0.48126 2.5126,1.0642 5.0564,2.0464 8.9739,3.9896 12.923,6.4101 l 0.73967,0.45338 0.0793,0.44612 c 0.0436,0.24536 0.0822,0.76388 0.0858,1.1522 l 0.007,0.7061 -1.224,-0.57269 c -2.424,-1.1341 -5.1389,-2.3068 -7.4863,-3.2337 -2.4982,-0.9864 -6.3227,-2.3655 -6.3856,-2.3026 -0.0201,0.02013 0.92171,0.4666 2.0929,0.99226 2.9349,1.3173 7.2644,3.4959 9.9858,5.0248 1.2525,0.70367 2.4689,1.3862 2.7032,1.5167 l 0.42604,0.23726 9.3e-4,1.1671 9.4e-4,1.1671 h -0.11618 c -0.0639,0 -1.0246,-0.41613 -2.1349,-0.92474 -2.5872,-1.1852 -4.9899,-2.2227 -7.1424,-3.0841 -2.0365,-0.81498 -5.3197,-2.0388 -5.3597,-1.9979 -0.0156,0.01594 0.4666,0.25659 1.0716,0.53468 3.1734,1.4587 7.2558,3.5761 11.544,5.9878 l 2.0187,1.1352 6e-4,0.96781 c 3.4e-4,0.5323 -0.0447,1.0394 -0.10016,1.127 l -0.10077,0.15914 -2.2601,-0.99917 c -3.5922,-1.5881 -10.833,-4.502 -11.18,-4.4991 -0.0414,3.38e-4 1.4619,0.76581 3.3406,1.701 3.1334,1.5598 5.6139,2.8746 8.8676,4.7001 l 1.2389,0.69512 -0.0778,1.0309 c -0.0428,0.56699 -0.0981,1.0511 -0.1228,1.0759 -0.0247,0.02472 -1.5464,-0.57213 -3.3814,-1.3264 -1.835,-0.75423 -3.9512,-1.6098 -4.7027,-1.9013 -1.5464,-0.59986 -3.8708,-1.4776 -4.2128,-1.591 -0.12525,-0.04147 1.1557,0.63376 2.8465,1.5006 1.6908,0.86684 4.4737,2.3181 6.1841,3.2251 l 3.1099,1.6491 -0.0719,0.79702 c -0.0396,0.43837 -0.10684,0.9588 -0.14952,1.1565 l -0.0776,0.35949 -1.4802,-0.62786 c -1.9493,-0.82686 -9.6563,-3.9083 -9.6903,-3.8744 -0.0146,0.01459 1.3656,0.7666 3.0671,1.6712 3.3234,1.767 7.7036,4.1789 7.8537,4.3245 l 0.0919,0.08915 -0.13685,1.0125 c -0.0753,0.55688 -0.16822,1.0735 -0.20656,1.1481 l -0.0697,0.1356 -4.5537,-2.0255 c -8.3154,-3.6988 -9.3601,-4.275 -10.711,-5.9075 l -0.63184,-0.76379 -0.55919,-1.1143 -0.55919,-1.1143 -0.51735,-1.6067 c -0.93434,-2.9017 -2.9669,-11 -3.9813,-15.863 -1.6299,-7.8132 -4.7983,-16.307 -7.7567,-20.793 l -0.73319,-1.112 -1.8465,-1.9507 -1.8517,-0.90396 -2.3911,-0.50666 -6.49,-0.0108 -1.3663,0.15263 c -2.4805,0.27709 -8.1121,1.2237 -7.9923,1.3434 0.0248,0.02485 1.0391,-0.05633 2.2539,-0.18025 1.2148,-0.124 3.336,-0.28487 4.7137,-0.3576 l 2.5049,-0.13224 2.1583,0.07484 c 3.401,0.11779 5.4991,0.46709 6.9614,1.1588 l 0.59897,0.28336 0.63443,0.68526 c 0.34894,0.3769 0.63443,0.72407 0.63443,0.77149 v 0.08618 l -6.376,-0.10104 -2.3627,0.134 c -2.6714,0.15156 -8.9852,0.7697 -8.8838,0.86975 0.0171,0.01689 1.5682,-0.02553 3.4469,-0.09429 l 3.4158,-0.12495 3.1312,0.13585 c 3.3796,0.14663 7.1055,0.48146 8.5486,0.76822 l 0.29374,0.05836 0.47482,0.89114 c 0.26115,0.49013 0.47481,0.92349 0.47481,0.96303 0,0.03958 -2.0283,0.07186 -4.5072,0.07186 h -4.5073 l -2.182,0.12184 c -1.2001,0.067 -2.9762,0.18836 -3.9469,0.2697 l -1.7648,0.1479 1.7079,0.01715 c 2.4118,0.02418 7.3374,0.2146 9.2227,0.35644 1.9812,0.14904 6.158,0.5523 6.5648,0.63382 l 0.30249,0.06065 0.40914,0.9524 c 0.22503,0.52381 0.40914,1.0059 0.40914,1.0713 v 0.11887 l -6.6608,-0.1394 -3.5297,0.1427 c -1.9413,0.07848 -4.0164,0.17781 -4.6114,0.2207 l -1.0817,0.07794 0.96782,0.07673 c 0.53229,0.04228 1.9669,0.10658 3.1881,0.14289 1.2212,0.03634 3.2194,0.14013 4.4406,0.23062 1.9937,0.14773 8.0081,0.72624 8.0399,0.77334 0.0415,0.06133 0.72732,1.901 0.72732,1.9509 0,0.03336 -1.0119,0.06241 -2.2488,0.0647 -2.4322,0.0041 -8.2298,0.16176 -10.771,0.29224 l -1.5764,0.08091 0.15318,0.08078 c 0.0842,0.04444 1.2035,0.11401 2.4873,0.1546 2.5772,0.08145 5.8315,0.30445 9.9059,0.67865 l 2.6757,0.24574 0.32757,0.94387 0.32758,0.94386 -0.0808,0.08091 c -0.0444,0.04444 -1.7546,0.11685 -3.8003,0.16076 -2.0458,0.0439 -4.764,0.1336 -6.0405,0.19925 -1.2766,0.06565 -2.5733,0.11941 -2.8817,0.11941 h -0.56069 l 0.1188,0.19208 1.9746,0.07713 c 2.0385,0.07956 4.8825,0.26446 9.2795,0.6033 l 2.5353,0.19537 0.28704,0.91777 c 0.15787,0.50477 0.31419,1.0074 0.34739,1.117 l 0.0603,0.19926 -1.9148,-0.0027 c -2.0008,-0.0027 -10.645,0.24758 -10.587,0.30592 0.0185,0.01851 1.6955,0.16238 3.7267,0.31979 5.651,0.43792 9.0311,0.75958 9.1731,0.87293 0.0707,0.05647 0.15842,0.24239 0.19485,0.4132 0.0364,0.17081 0.16643,0.65409 0.28887,1.074 l 0.22261,0.7634 -5.655,-0.05687 c -6.0045,-0.06038 -8.5744,-0.1765 -9.8679,-0.4459 l -0.79702,-0.16602 -0.91128,-0.44909 c -0.50121,-0.24701 -1.2442,-0.70118 -1.651,-1.0093 -1.9006,-1.4394 -5.5528,-5.815 -11.711,-14.031 -1.4786,-1.9726 -3.1978,-4.2015 -3.8204,-4.9529 -5.6455,-6.8142 -11.489,-11.956 -15.36,-13.515 l -0.93259,-0.37566 -2.7326,0.0082 -1.1158,0.30803 c -2.2952,0.63363 -5.6914,2.1687 -8.6193,3.8959 -1.3598,0.80217 -5.3092,3.4035 -5.8069,3.8247 l -0.28464,0.24095 0.43952,-0.25601 c 5.4832,-3.1938 10.482,-5.5023 13.841,-6.392 l 1.3183,-0.34919 2.6188,-0.02756 0.82549,0.3869 c 0.45402,0.2128 0.82508,0.41774 0.82456,0.45544 -5e-4,0.03769 -0.705,0.3459 -1.5656,0.68491 -2.2474,0.88531 -5.0348,2.1557 -7.2008,3.2818 -1.8715,0.97305 -6.3313,3.4871 -6.546,3.6901 -0.0621,0.05876 0.83456,-0.35042 1.9926,-0.90916 4.8878,-2.3584 9.4901,-4.1454 13.978,-5.4275 l 1.0558,-0.30161 0.90459,0.66356 c 0.49752,0.36495 0.90627,0.6917 0.90833,0.72608 0.003,0.03445 -0.18838,0.1313 -0.42322,0.21539 -0.93182,0.33361 -5.3251,2.2443 -7.3573,3.1998 -2.1493,1.0105 -7.2673,3.6545 -7.2015,3.7203 0.0192,0.01918 0.5679,-0.20276 1.2195,-0.49308 3.6579,-1.6298 10.638,-4.2175 14.248,-5.2817 l 0.88021,-0.25952 0.86278,0.77217 0.86277,0.77218 -0.092,0.08699 c -0.0507,0.04782 -0.68125,0.3282 -1.4014,0.623 -3.044,1.2461 -5.97,2.5707 -9.364,4.239 -1.9877,0.97708 -3.5984,1.7921 -3.5793,1.8112 0.0192,0.01918 0.83455,-0.29324 1.8121,-0.69412 3.0273,-1.2415 5.6836,-2.2095 9.7498,-3.553 2.1522,-0.71112 3.9726,-1.293 4.0453,-1.293 0.0728,0 0.46183,0.3325 0.86461,0.73888 l 0.73232,0.73888 -0.10942,0.1001 c -0.0601,0.05511 -1.4022,0.67055 -2.9823,1.3677 -3.3265,1.4677 -7.9036,3.6394 -9.1394,4.3364 -0.46967,0.26487 -0.77709,0.45521 -0.68316,0.423 0.0939,-0.03229 1.3236,-0.50548 2.7326,-1.0517 2.618,-1.0148 8.4253,-3.0585 10.351,-3.6427 l 1.0715,-0.32505 0.66286,0.73518 c 0.36457,0.40435 0.64852,0.78092 0.631,0.83682 -0.0176,0.05592 -1.131,0.6078 -2.4745,1.2264 -2.6454,1.2182 -9.462,4.5568 -9.41,4.6088 0.0176,0.01756 1.1569,-0.39471 2.5318,-0.91614 2.3276,-0.88272 6.2278,-2.2834 9.2567,-3.3244 l 1.2915,-0.44386 0.72625,0.79702 c 0.39943,0.43837 0.71367,0.83916 0.69831,0.89065 -0.0154,0.05147 -1.0514,0.56576 -2.3024,1.1428 -3.0878,1.4244 -8.3736,3.9745 -8.3296,4.0186 0.0196,0.01972 1.5438,-0.494 3.387,-1.1414 1.8432,-0.64746 4.4775,-1.5493 5.8541,-2.004 l 2.5028,-0.82681 0.43538,0.49722 c 0.81604,0.93194 1.1117,1.3342 1.0217,1.3898 -0.18339,0.11333 -8.0065,3.4922 -9.4847,4.0965 -2.029,0.82948 -3.6086,1.3715 -4.7125,1.6168 l -0.90278,0.20068 -2.1796,-0.13644 -0.87484,-0.22574 c -1.3047,-0.33666 -3.4926,-1.2714 -6.2984,-2.6909 -2.9986,-1.5171 -7.7445,-4.0692 -10.646,-5.7251 -7.7968,-4.4496 -15.645,-7.6125 -21.406,-8.6267 l -1.0817,-0.19042 -2.9604,-0.02728 -1.5627,0.53868 -2.0809,1.3908 -1.3663,1.329 c -2.1707,2.1114 -4.5572,5.1354 -6.6482,8.4241 -1.0798,1.6983 -1.9649,3.1754 -1.9026,3.1754 0.02296,0 0.36515,-0.44832 0.76047,-0.99627 3.2535,-4.5098 7.0772,-8.7999 9.5596,-10.726 l 1.0773,-0.83574 1.8519,-0.89343 0.85483,-0.0647 c 0.47015,-0.03553 0.993,-0.02999 1.1619,0.01216 l 0.30707,0.07713 -1.4682,1.5122 c -3.1406,3.2348 -6.2858,7.0908 -9.1141,11.174 l -0.39434,0.5693 0.44014,-0.50853 c 0.24207,-0.27969 0.94526,-1.0995 1.5626,-1.8218 3.0358,-3.5516 6.4652,-6.9921 9.5427,-9.5737 l 1.3286,-1.1145 0.99974,0.21848 c 0.54986,0.12022 1.0408,0.21847 1.0909,0.21847 0.26003,0 -0.03661,0.38555 -1.3283,1.7263 -2.7488,2.8532 -5.6607,6.2289 -8.1853,9.489 l -1.2344,1.594 1.1102,-1.1955 c 2.0897,-2.2503 7.2797,-7.3524 9.3576,-9.199 1.1421,-1.015 2.1074,-1.8455 2.1451,-1.8455 0.08875,0 2.1403,0.70286 2.1994,0.7535 0.02472,0.02121 -0.61576,0.73803 -1.4233,1.593 -3.0251,3.203 -5.4484,5.9572 -7.8523,8.9248 l -1.2445,1.5363 3.1312,-3.1377 c 2.676,-2.6816 6.8052,-6.5296 8.5225,-7.9423 l 0.49537,-0.40749 0.96648,0.33502 c 0.53156,0.18425 0.99095,0.37462 1.0209,0.42304 0.05903,0.0955 -0.11144,0.29452 -2.5709,3.0023 -1.8733,2.0624 -4.3884,4.9819 -5.8734,6.8179 l -1.0131,1.2525 2.8981,-2.8465 c 3.0433,-2.9891 8.0087,-7.5717 8.2043,-7.5717 0.15783,0 1.7303,0.6736 1.8504,0.79266 l 0.09726,0.09645 -1.6913,1.9251 c -1.9034,2.1664 -4.1204,4.7747 -5.786,6.807 l -1.1198,1.3663 1.0132,-0.97374 c 0.55725,-0.53556 1.8855,-1.8165 2.9517,-2.8465 2.4199,-2.3378 5.9474,-5.617 6.0992,-5.6699 0.15412,-0.05376 2.0388,0.8015 2.0388,0.92516 0,0.0539 -0.57906,0.74779 -1.2868,1.5419 -1.301,1.4598 -2.9013,3.3164 -5.3666,6.226 l -1.3506,1.594 0.61468,-0.57553 c 0.33807,-0.31654 1.4345,-1.3432 2.4364,-2.2815 2.1708,-2.0328 4.3352,-4.021 5.555,-5.1026 l 0.88672,-0.78631 1.0718,0.50171 c 0.58951,0.27593 1.0615,0.54011 1.0489,0.58707 -0.05052,0.18805 -7.0302,7.683 -8.3752,8.9934 -0.79185,0.77151 -1.7762,1.6425 -2.1874,1.9355 l -0.74765,0.53272 -0.8464,0.33739 c -1.1312,0.4509 -2.2626,0.66637 -3.9776,0.75744 l -1.4233,0.07565 -2.5049,-0.12725 c -3.3804,-0.17184 -9.1778,-0.62194 -13.266,-1.0299 -1.8474,-0.18439 -4.5117,-0.39538 -5.9208,-0.46888 l -2.5619,-0.1336 -6.4901,0.1359 -1.7037,0.17147 c -5.4623,0.54981 -8.9084,1.4834 -10.627,2.8791 -1.8409,1.4947 -3.6592,5.8868 -4.7977,11.588 -0.34938,1.7497 -0.85354,5.1119 -0.96466,6.4331 l -0.06227,0.7401 0.23192,-1.0247 c 1.8352,-8.109 3.2895,-12.457 5.0841,-15.2 l 0.5586,-0.85396 1.1755,-1.0558 0.75607,-0.30268 c 0.41584,-0.16646 0.78581,-0.27293 0.82215,-0.23658 0.03634,0.03634 -0.02729,0.30762 -0.1415,0.60284 -1.0191,2.635 -2.2167,6.4513 -2.9556,9.4179 -0.515,2.0677 -1.3424,5.9778 -1.2951,6.1199 0.02026,0.06079 0.25497,-0.66239 0.52156,-1.607 1.3875,-4.9161 3.0309,-9.3384 5.0128,-13.489 l 0.77886,-1.6313 0.95665,-0.1899 c 0.52616,-0.10442 1.0435,-0.18986 1.1498,-0.1898 l 0.19313,8.2e-5 -0.23281,0.6547 c -0.83733,2.3547 -2.137,6.3268 -2.6622,8.1366 -0.66288,2.2841 -1.9087,7.1533 -1.8462,7.2158 0.0208,0.0208 0.25966,-0.63895 0.53075,-1.4661 1.3426,-4.0966 2.8107,-7.9066 4.5061,-11.694 0.54658,-1.2212 1.0724,-2.4113 1.1685,-2.6448 l 0.1747,-0.42447 0.18297,-0.05309 c 0.10064,-0.02918 0.66518,-0.08888 1.2545,-0.13252 l 1.0716,-0.07929 -0.08848,0.21538 c -0.28939,0.7048 -2.211,6.4186 -2.6897,7.9978 -0.71677,2.3644 -1.8473,6.5108 -1.7907,6.5674 0.0235,0.0235 0.34219,-0.78746 0.70825,-1.8021 1.3011,-3.6063 3.3035,-8.4458 4.949,-11.961 l 0.56784,-1.213 h 2.1782 v 0.08848 c 0,0.04863 -0.35984,1.163 -0.79966,2.4765 -1.2983,3.8771 -3.3113,10.689 -3.2951,11.15 0.0027,0.06578 0.40537,-0.93086 0.89569,-2.2146 1.2461,-3.2626 1.864,-4.7798 3.1997,-7.8564 0.6389,-1.4717 1.2656,-2.9191 1.3927,-3.2166 l 0.23108,-0.54084 h 2.2212 l -0.50178,1.6225 c -1.35,4.3654 -3.2728,11.125 -3.1884,11.209 0.02188,0.02188 0.18417,-0.35845 0.36056,-0.84529 0.52336,-1.4444 2.5723,-6.5312 3.7687,-9.3564 l 1.1138,-2.6302 h 2.3685 l -0.07362,0.19186 c -0.36038,0.93916 -3.3991,11.2 -3.3357,11.263 0.01702,0.01702 0.76442,-1.7208 1.6609,-3.8618 0.89651,-2.141 1.9984,-4.7125 2.4486,-5.7144 l 0.8186,-1.8218 1.1925,0.04134 c 0.65588,0.02269 1.2056,0.05295 1.2216,0.06713 0.04593,0.04053 -2.8731,8.6779 -3.5773,10.585 -0.34867,0.9444 -0.89324,2.2523 -1.2102,2.9064 l -0.57622,1.1893 -1.7049,1.7845 -0.77426,0.51472 c -1.8106,1.2037 -5.6314,2.7305 -13.592,5.4316 -1.7534,0.59496 -3.8798,1.2971 -4.7252,1.5604 -2.1623,0.6734 -5.8118,2.027 -8.1182,3.0111 -4.2027,1.7932 -7.1997,3.366 -10.213,5.3598 -1.9739,1.3059 -3.1631,2.2789 -4.1263,3.376 l -0.64977,0.7401 -0.7068,1.5104 -0.31612,1.7733 -0.0041,1.5947 -0.0041,1.5948 0.16666,1.4226 c 0.34166,2.9161 1.02,6.0089 2.1041,9.594 0.85834,2.838398 0.97354,3.045698 0.51016,0.91803 -0.62601,-2.8744 -1.0149,-5.1216 -1.3759,-7.9509 l -0.20341,-1.594 -0.002,-5.5792 0.19621,-0.77099 c 0.10793,-0.42404 0.30481,-0.9839 0.43756,-1.2441 0.23262,-0.45598 1.3035,-1.6854 1.4681,-1.6854 0.04417,0 0.11522,0.62766 0.15799,1.3948 0.16927,3.0378 0.6784,6.7565 1.4458,10.561 0.44554,2.2085 1.105,5.0564 1.1205,4.8391 0.0041,-0.06268 -0.14236,-1.1642 -0.32632,-2.448 -0.37801,-2.6382 -0.6351,-5.0692 -0.80071,-7.5717 -0.12428,-1.8784 -0.15483,-7.4741 -0.04309,-7.8915 l 0.07038,-0.26286 0.84819,-0.57236 c 0.46651,-0.3148 0.87549,-0.54504 0.90887,-0.51166 0.03337,0.03337 0.15792,1.1265 0.27676,2.4293 0.39855,4.3689 1.1434,9.612 1.8086,12.73 l 0.2186,1.0247 -0.05187,-0.74009 c -0.0285,-0.40706 -0.12738,-1.5599 -0.21967,-2.5619 -0.32241,-3.4988 -0.41134,-5.2684 -0.48058,-9.5643 l -0.0697,-4.3267 0.9751,-0.54084 c 0.5363,-0.29745 1.0188,-0.54083 1.0723,-0.54083 h 0.09726 l 0.26092,2.875 c 0.14352,1.5812 0.38374,3.8485 0.53383,5.0383 0.28758,2.2798 1.1981,8.0594 1.2599,7.9976 0.01999,-0.01999 -0.03553,-0.90529 -0.1232,-1.9674 -0.27121,-3.285 -0.39195,-5.9751 -0.46992,-10.471 l -0.07511,-4.3267 0.99671,-0.48965 c 0.54819,-0.2693 1.0169,-0.46942 1.0416,-0.44473 0.02472,0.02472 0.22313,1.6346 0.44095,3.5775 0.21781,1.9429 0.49879,4.2438 0.6244,5.113 0.36342,2.5149 0.94018,6.0884 0.97675,6.0518 0.01837,-0.01837 -0.03728,-1.0064 -0.12387,-2.1955 -0.21932,-3.0133 -0.41797,-9.0654 -0.37478,-11.419 l 0.0362,-1.9695 0.89069,-0.40379 c 0.48988,-0.22207 0.92084,-0.37364 0.95769,-0.33679 0.03688,0.03688 0.23316,1.3354 0.43628,2.8857 0.60794,4.6403 1.5208,10.665 1.6035,10.582 0.01905,-0.01905 -0.01364,-0.74881 -0.0724,-1.6218 -0.138,-2.0492 -0.31504,-6.3093 -0.40901,-9.8422 l -0.07416,-2.7896 0.95249,-0.38338 c 0.52386,-0.21085 1.0068,-0.40473 1.0731,-0.43083 l 0.12063,-0.04741 0.19911,1.7402 c 0.10955,0.95714 0.4748,3.6104 0.81175,5.8961 l 0.61264,4.1559 -0.07848,-4.2698 c -0.04309,-2.3484 -0.07848,-5.1371 -0.07848,-6.1972 v -1.9274 l 1.0726,-0.4348 c 0.5899,-0.23915 1.0907,-0.4167 1.1128,-0.39456 0.02215,0.02215 0.27373,2.2892 0.55908,5.038 l 0.51882,4.9977 0.06268,2.6917 0.06268,2.6917 -0.25258,0.83801 c -0.36342,1.2057 -0.82485,2.1177 -1.6166,3.1949 l -0.69452,0.94501 -3.0313,3.0265 c -3.0836,3.0787 -5.9599,5.7753 -9.6377,9.035598 -8.5251,7.5573 -15.158,16.243 -15.894,20.814 l -0.10536,0.65376 0.12292,0.76947 c 0.52506,3.2868 3.4356,8.1261 8.2635,13.74 1.9126,2.2238 2.106,2.3408 0.67518,0.40832 -4.0824,-5.5138 -6.869,-10.506 -7.5225,-13.478 l -0.1971,-0.89617 0.05903,-0.69788 0.05903,-0.69789 0.24834,-0.6547 c 0.13657,-0.36009 0.28306,-0.65328 0.32553,-0.65154 0.04242,0.001 0.41026,0.62926 0.8173,1.3945 1.0611,1.9949 2.5391,4.4474 3.9262,6.5153 1.1674,1.7402 4.3533,6.0919 4.46,6.0919 0.06416,0 0.06146,-0.004 -0.86055,-1.4233 -0.40699,-0.62622 -1.3217,-2.1121 -2.0327,-3.3019 l -1.2927,-2.1634 -1.5274,-3.0742 c -0.84008,-1.6908 -1.7809,-3.6982 -2.0906,-4.4608 l -0.56318,-1.3866 0.56564,-0.91912 c 0.31109,-0.50553 0.60142,-0.9182 0.64518,-0.91705 0.04377,0.001 0.48569,0.73127 0.98209,1.6225 1.6401,2.9446 3.3871,5.7943 5.3909,8.7936 1.0878,1.6282 2.0591,3.0372 2.1585,3.1312 l 0.18073,0.17079 -0.32776,-0.5693 c -2.6227,-4.5556 -4.6108,-8.3966 -6.4733,-12.507 l -0.97214,-2.1452 0.68551,-0.90054 c 0.37704,-0.49529 0.72296,-0.90052 0.7687,-0.90052 0.04579,0 0.77357,1.2145 1.6174,2.6988 0.84382,1.4844 2.0401,3.521 2.6584,4.526 1.3187,2.1432 3.924,6.0969 4.0177,6.0969 0.03566,0 -0.01081,-0.11523 -0.10266,-0.25618 -0.9515,-1.4547 -4.1502,-7.7744 -5.9909,-11.837 l -1.1716,-2.5854 0.09375,-0.158 c 0.16434,-0.27683 1.2296,-1.5465 1.3031,-1.5533 0.0389,-0.004 0.6481,0.97984 1.3538,2.1853 1.7269,2.9499 3.1711,5.2892 4.8679,7.8848 1.4047,2.1488 1.9233,2.8604 1.3691,1.8787 -1.8602,-3.2953 -6.4756,-12.735 -6.4611,-13.215 0.0054,-0.18278 1.3178,-1.6705 1.3977,-1.5846 0.02796,0.0301 0.73133,1.1563 1.563,2.5027 2.393,3.874 5.3256,8.4319 5.6043,8.7103 0.06268,0.0627 -0.16783,-0.42414 -0.51222,-1.0817 -1.7852,-3.4084 -2.3616,-4.5507 -3.8892,-7.7073 -0.91499,-1.8906 -1.6622,-3.5046 -1.6606,-3.5866 0.0041,-0.17604 1.4298,-1.7694 1.5093,-1.6862 0.02999,0.0313 0.50406,0.79988 1.0536,1.7079 1.1823,1.9536 5.0506,8.0912 5.2028,8.2549 0.15352,0.16516 -0.23868,-0.67849 -2.3291,-5.0099 -1.0276,-2.1292 -2.0909,-4.3686 -2.3629,-4.9766 l -0.49463,-1.1053 0.78327,-0.83031 c 0.43079,-0.45666 0.82193,-0.8303 0.86918,-0.8303 0.04728,0 0.68211,1.0248 1.4108,2.2772 4.1556,7.1426 5.3677,9.403 5.9226,11.044 l 0.30788,0.91088 0.0082,2.9604 -0.18964,0.7679 c -0.67915,2.75 -3.4171,9.658 -6.8257,17.221 -3.5203,7.8115 -5.7687,15.43 -6.2338,21.123 l -0.11455,1.4022 0.11658,1.236 0.11658,1.2359 0.24261,0.65282 c 0.95811,2.5781 4.8607,5.7616 11.041,9.0069 1.6393,0.86074 5.002,2.4353 5.0655,2.3718 0.02134,-0.0213 -0.4088,-0.28716 -0.95587,-0.59069 -5.5831,-3.0977 -10.407,-6.5546 -12.526,-8.9767 l -0.71479,-0.81694 -0.38516,-0.7635 -0.38515,-0.76348 -0.08091,-0.86415 c -0.04458,-0.47527 -0.05417,-0.89101 -0.02121,-0.92385 0.03283,-0.0328 0.79484,0.49898 1.6933,1.1818 3.6028,2.7382 7.4253,5.1792 11.881,7.5871 1.1179,0.60413 0.87865,0.42004 -1.651,-1.2702 -3.9617,-2.6471 -7.1834,-5.157 -10.386,-8.0908 l -1.4521,-1.3305 0.0054,-0.34158 c 0.0027,-0.18787 0.06606,-0.71717 0.1404,-1.1762 l 0.13518,-0.83463 0.96782,0.72986 c 1.907,1.4381 4.3022,3.1416 6.2054,4.4131 1.887,1.2608 5.8715,3.7604 6.3599,3.9899 l 0.24405,0.11468 -0.28206,-0.20254 c -1.6549,-1.1884 -6.4138,-4.8254 -7.5743,-5.7887 -1.9117,-1.5869 -5.6363,-4.8493 -5.6353,-4.9359 0.0011,-0.0936 0.44754,-1.9716 0.50969,-2.144 l 0.05093,-0.1414 2.1388,1.5752 c 3.1539,2.3227 5.6213,4.0314 8.1165,5.6206 1.2212,0.77776 2.2971,1.4566 2.3911,1.5086 l 0.1708,0.0944 -0.11387,-0.12036 c -0.06268,-0.0662 -0.93366,-0.74703 -1.9356,-1.513 -1.002,-0.76599 -2.6159,-2.0437 -3.5866,-2.8393 -1.8029,-1.4778 -6.2744,-5.3693 -6.6303,-5.7702 l -0.19721,-0.22217 0.29852,-1.0458 0.29853,-1.0457 0.52492,0.37673 c 4.4824,3.217 8.916,6.2236 11.256,7.6336 0.45331,0.27308 -0.04849,-0.15749 -1.4802,-1.2699 -2.7129,-2.108 -7.3512,-5.9767 -9.3356,-7.7866 l -0.53994,-0.49244 0.31049,-0.99821 0.31047,-0.9982 0.14089,0.054 c 0.07754,0.0297 1.336,0.87007 2.7966,1.8674 2.7112,1.8513 3.6952,2.5006 6.8011,4.488 1.9831,1.269 1.9879,1.2465 0.057,-0.26214 -1.7,-1.3282 -4.4881,-3.6113 -7.2099,-5.9042 l -2.0812,-1.7532 0.04593,-0.12549 c 0.02526,-0.069 0.18691,-0.55165 0.3592,-1.0725 l 0.31324,-0.94698 0.13049,0.0509 c 0.07173,0.028 0.9246,0.6026 1.8953,1.277 3.1545,2.1916 8.333,5.6108 7.9702,5.2626 -0.09388,-0.0901 -1.4773,-1.2572 -3.0742,-2.5934 -1.5969,-1.3362 -3.6883,-3.117 -4.6475,-3.9575 l -1.7441,-1.528 0.07565,-0.18753 c 0.04161,-0.10307 0.23086,-0.60925 0.4206,-1.1247 l 0.34499,-0.93715 0.11995,0.0742 c 0.06606,0.0408 1.8912,1.3534 4.0561,2.9169 4.5887,3.314 6.5878,4.864 7.7224,5.9874 l 0.81753,0.80947 0.45985,0.82536 c 1.4245,2.5568 1.7224,5.5781 1.9402,19.675 l 0.10806,6.9963 0.17101,1.9926 c 0.70047,8.1608 2.2706,14.549 4.3413,17.664 l 0.53129,0.79917 0.57776,0.4567 c 0.61414,0.48545 1.7193,1.0793 2.7154,1.4591 3.227,1.2305 9.1583,2.0724 14.363,2.0386 l 1.955,-0.0121 -1.4232,-0.15292 c -4.4191,-0.47478 -7.4905,-0.9766 -10.475,-1.7114 -3.2384,-0.79729 -5.2587,-1.6335 -6.3522,-2.6292 -0.46266,-0.42128 -1.2764,-1.6475 -1.2764,-1.9234 v -0.13641 l 1.5086,0.38359 c 4.1664,1.0593 10.445,2.0513 14.318,2.2622 l 1.0817,0.0589 -1.8218,-0.32685 c -5.8815,-1.0552 -10.478,-2.2111 -14.542,-3.6573 l -1.3342,-0.47474 -0.28833,-0.94526 c -0.28442,-0.93244 -0.33695,-1.197 -0.23772,-1.197 0.02783,0 1.2976,0.2802 2.8218,0.62268 4.2415,0.95305 7.6136,1.534 13.296,2.2908 0.81096,0.10793 0.4902,-0.0247 -0.5693,-0.23551 -2.3127,-0.46014 -6.5807,-1.4932 -8.9698,-2.1712 -2.2052,-0.62577 -6.9363,-2.0815 -7.0705,-2.1755 -0.07348,-0.0515 -0.49114,-2.2187 -0.43791,-2.272 0.02769,-0.0277 1.0951,0.18567 2.372,0.47415 3.1023,0.70087 5.7713,1.237 8.1855,1.6442 2.4886,0.41974 5.1473,0.81211 5.193,0.76639 0.01905,-0.019 -0.81429,-0.22887 -1.8518,-0.46632 -3.5872,-0.82099 -7.9026,-2.0344 -12.252,-3.445 -1.0797,-0.3502 -1.979,-0.65117 -1.9983,-0.66883 -0.03256,-0.0297 -0.36201,-1.9574 -0.36298,-2.1235 -2.43e-4,-0.0408 0.44789,0.0243 0.99585,0.14455 3.9912,0.87609 10.92,2.1457 12.61,2.3106 l 0.68316,0.0667 -2.5619,-0.67115 c -3.7426,-0.98046 -11.771,-3.3195 -11.927,-3.4746 -0.06862,-0.0686 -0.28487,-2.012 -0.22996,-2.067 0.03174,-0.0317 1.5888,0.22479 3.4599,0.57019 3.1018,0.57256 8.4303,1.466 9.5506,1.6013 0.2505,0.0303 -0.51807,-0.20266 -1.7079,-0.5176 -1.8166,-0.48084 -9.2736,-2.5918 -10.986,-3.1101 l -0.51131,-0.15473 -0.07186,-0.44319 c -0.03944,-0.24374 -0.09929,-0.76537 -0.13292,-1.1592 l -0.06119,-0.716 0.18886,0.0567 c 0.6324,0.19012 11.639,2.1463 11.705,2.0803 0.02161,-0.0216 -1.6843,-0.53968 -3.7909,-1.1512 -3.2866,-0.95406 -8.1344,-2.4304 -8.202,-2.4978 -0.06497,-0.0647 -0.16972,-2.3506 -0.1078,-2.3506 0.04079,0 2.136,0.43991 4.6561,0.97756 7.5035,1.6009 10.007,2.2974 11.311,3.1466 0.81694,0.53197 2.1985,1.9541 2.8684,2.9525 1.527,2.2759 4.5766,8.3154 8.0692,15.98 4.4613,9.7906 10.151,18.085 14.318,20.872 l 0.88122,0.58939 0.81699,0.25688 0.81699,0.25689 3.1881,-0.01 1.2409,-0.20305 c 2.44,-0.39926 5.7392,-1.3063 8.5789,-2.3585 1.8151,-0.67256 5.1759,-2.0529 5.1242,-2.1046 -0.0193,-0.0195 -0.90473,0.24631 -1.9674,0.59043 -3.9281,1.272 -8.3639,2.3301 -11.44,2.7288 l -1.4233,0.18451 -3.1881,-0.1042 -1.1736,-0.37491 -0.6941,-0.51097 c -0.38177,-0.28104 -0.69412,-0.55049 -0.69412,-0.59878 0,-0.0484 0.70451,-0.20484 1.5656,-0.34787 3.7697,-0.6262 8.9965,-1.9721 13.065,-3.3644 1.002,-0.34286 1.7807,-0.62733 1.7306,-0.63215 -0.0501,-0.005 -0.79309,0.16684 -1.651,0.38146 -5.1583,1.2905 -9.7974,2.0763 -14.54,2.4628 l -1.594,0.12995 -0.76778,-0.82807 c -0.42228,-0.45543 -0.74771,-0.84812 -0.72319,-0.87264 0.02459,-0.0246 1.5485,-0.34471 3.3866,-0.71153 1.8381,-0.3668 4.272,-0.89508 5.4086,-1.1739 2.2636,-0.55538 7.5743,-2.0338 7.5158,-2.0923 -0.02013,-0.0201 -1.0572,0.16897 -2.3046,0.42025 -2.9837,0.60106 -5.0189,0.95609 -7.4486,1.2993 -1.9369,0.27362 -7.046,0.86211 -7.4846,0.86211 h -0.21802 l -0.65758,-0.91847 c -0.36166,-0.50515 -0.63458,-0.94144 -0.60648,-0.96955 0.0281,-0.0281 1.122,-0.25859 2.4309,-0.5122 4.1478,-0.80364 6.7232,-1.4062 12.489,-2.922 0.36226,-0.0952 0.64164,-0.19018 0.62082,-0.211 -0.0208,-0.0208 -1.0089,0.14093 -2.1958,0.35944 -3.6138,0.66533 -9.9663,1.5164 -13.601,1.8221 l -0.85395,0.0719 -0.51238,-0.83655 c -0.28181,-0.46012 -0.51237,-0.88191 -0.51237,-0.93734 v -0.10077 l 3.5866,-0.77015 c 3.0201,-0.64852 6.1502,-1.3998 9.7675,-2.3442 0.39357,-0.1028 0.69578,-0.20666 0.67156,-0.23088 -0.02418,-0.0242 -1.2941,0.16106 -2.822,0.41171 -3.8505,0.63171 -12.117,1.6985 -12.226,1.5778 -0.21854,-0.24258 -1.0508,-1.7613 -0.99206,-1.8103 0.04336,-0.0361 0.82169,-0.23229 1.7297,-0.43598 2.1284,-0.47743 9.1051,-2.2037 10.361,-2.5637 1.1934,-0.34201 1.0361,-0.35853 -0.67052,-0.0704 -3.4359,0.58009 -12.153,1.7523 -12.31,1.6553 -0.09902,-0.0612 -1.158,-1.9029 -1.1114,-1.9327 0.01648,-0.0108 0.54231,-0.12955 1.1686,-0.26439 1.7561,-0.37821 10.76,-2.566 10.721,-2.605 -0.01905,-0.019 -1.7729,0.1923 -3.8975,0.46964 -2.1246,0.27733 -4.8363,0.61058 -6.0262,0.74056 -1.1898,0.12995 -2.2939,0.25788 -2.4535,0.28426 l -0.29014,0.048 -0.54732,-1.0243 c -0.30102,-0.56335 -0.51788,-1.0537 -0.4819,-1.0897 0.1059,-0.10591 10.362,-2.1598 12.152,-2.4336 l 1.6402,-0.25086 2.3911,-0.018 0.79702,0.20517 c 0.43837,0.1128 1.3094,0.45208 1.9356,0.75386 l 1.1386,0.54868 1.2525,0.88814 c 2.347,1.6643 8.2906,6.5738 12.809,10.581 5.5437,4.9157 11.165,8.8423 16.225,11.334 l 2.0495,1.0093 1.2144,0.40334 c 1.5396,0.51137 2.4762,0.71608 3.3423,0.73052 l 0.68545,0.0122 z m -25.792,-16.24 c -0.68885,-0.59905 -2.6102,-2.224 -4.2698,-3.6111 -6.3333,-5.2935 -8.4727,-6.7223 -11.127,-7.4313 l -1.1127,-0.29719 -3.302,0.1294 -1.651,0.28734 c -1.4729,0.25633 -3.095,0.57809 -9.7727,1.9385 l -1.8594,0.37881 -0.37384,-0.81158 c -1.7937,-3.8942 -4.4594,-9.2808 -5.7064,-11.531 -1.6547,-2.9861 -2.846,-4.5012 -4.5162,-5.7436 l -0.87971,-0.65441 -0.92592,-0.35706 c -1.9277,-0.7434 -4.1237,-1.2918 -11.092,-2.7699 l -3.8713,-0.82119 -0.13184,-5.0092 c -0.20315,-7.7216 -0.43753,-10.746 -1.0067,-12.991 l -0.28587,-1.1274 -1.0224,-2.0606 -0.60771,-0.73451 c -1.0856,-1.3121 -3.4846,-3.2052 -9.7322,-7.68 -1.5738,-1.1272 -2.8632,-2.1073 -2.8653,-2.178 -0.0027,-0.0707 0.61691,-1.5822 1.3755,-3.3589 3.6424,-8.5306 4.8085,-11.796 5.1165,-14.329 l 0.12265,-1.0089 -0.1213,-1.0882 -0.1213,-1.0882 -0.335,-0.91794 c -0.51639,-1.4149 -2.2384,-4.659 -4.8841,-9.2012 -1.325,-2.2748 -2.4091,-4.173 -2.4091,-4.2183 0,-0.0452 0.85822,-0.86879 1.9072,-1.83 5.8,-5.3151 9.2677,-8.7927 10.642,-10.672 0.66139,-0.90462 1.2571,-2.0423 1.659,-3.1686 l 0.28447,-0.79702 0.05336,-2.0065 0.05336,-2.0065 -0.12873,-1.5801 c -0.07078,-0.86904 -0.33876,-3.6191 -0.59546,-6.1112 -0.25671,-2.4922 -0.44773,-4.5456 -0.42451,-4.5631 0.02323,-0.01756 1.2207,-0.43203 2.661,-0.921 11.266,-3.8245 14.286,-5.172 16.419,-7.3258 l 0.83413,-0.84229 0.44172,-0.75724 c 0.90799,-1.5566 1.7136,-3.6605 3.9579,-10.336 l 1.4306,-4.2552 h 0.26798 c 0.14739,0 1.7682,0.12617 3.6018,0.28047 1.8336,0.15426 4.5096,0.35921 5.9468,0.45544 l 2.6129,0.17497 5.0216,-9.18e-4 1.0247,-0.1668 c 1.7926,-0.29178 3.2992,-0.90853 4.5544,-1.8645 1.1389,-0.86738 3.3258,-3.0675 7.034,-7.0767 1.9404,-2.0979 3.5689,-3.8302 3.6188,-3.8496 0.04998,-0.01945 0.49156,0.19114 0.98131,0.46787 2.1975,1.2417 7.3797,3.9835 9.7425,5.1546 2.9152,1.4449 4.5271,2.1082 6.1155,2.5166 l 1.0868,0.27939 1.3663,0.01716 1.3663,0.01702 1.1073,-0.31176 c 1.9581,-0.55126 3.8061,-1.2915 10.834,-4.3396 1.6831,-0.73001 3.0996,-1.3124 3.1477,-1.2942 0.0481,0.01824 0.97232,1.186 2.0538,2.595 4.1878,5.4561 6.1709,7.8736 8.0178,9.7739 1.4789,1.5216 2.3989,2.2306 3.7757,2.9095 1.1268,0.55567 1.9765,0.79093 3.5708,0.98866 l 1.0817,0.13414 13.128,0.10752 0.24872,1.0988 c 0.60615,2.6779 2.4225,9.915 2.904,11.571 1.4523,4.9943 2.729,7.1179 5.2659,8.759 1.2034,0.77849 4.4335,2.3383 9.2343,4.4592 l 4.3654,1.9285 -0.0581,0.34158 c -0.0319,0.18787 -0.37108,1.9556 -0.75361,3.9282 -1.2682,6.5397 -1.7771,9.8143 -1.9031,12.246 l -0.0711,1.3721 0.14027,0.96207 c 0.0771,0.52914 0.28854,1.423198 0.46976,1.986798 l 0.32949,1.0247 0.55033,0.85395 c 1.0177,1.5792 2.4241,3.2386 7.1277,8.41 1.4468,1.5907 2.6717,2.9625 2.7219,3.0485 l 0.0913,0.15627 -1.2395,1.7359 c -3.6143,5.0618 -6.3908,9.1995 -7.5133,11.196 -0.86608,1.5409 -1.3363,2.6614 -1.644,3.9181 l -0.23704,0.96781 -0.004,1.0817 -0.004,1.0817 0.20327,0.96782 c 0.3237,1.5412 1.1014,4.1586 2.7013,9.0916 l 1.49,4.5941 -0.15553,0.13984 c -0.0855,0.0769 -1.4877,0.92582 -3.1159,1.8865 -7.7274,4.5592 -11.246,6.986 -12.837,8.8523 -1.9378,2.2743 -2.3356,3.851 -3.3827,13.408 -0.25385,2.3171 -0.49159,4.405 -0.52832,4.6398 l -0.0668,0.42698 H 165.704 c -0.15704,0 -1.933,0.20576 -3.9466,0.45725 -10.761,1.344 -13.624,1.9837 -16.105,3.5979 -1.9694,1.2814 -2.9144,2.5778 -7.4186,10.177 -1.3918,2.3484 -2.5528,4.2921 -2.5799,4.3194 -0.0271,0.0273 -0.49663,-0.0824 -1.0434,-0.2438 -0.54675,-0.16138 -2.3985,-0.71008 -4.1151,-1.2193 -5.8595,-1.7384 -9.2556,-2.5921 -11.653,-2.9293 l -1.2808,-0.18017 -1.0248,0.0717 c -0.56362,0.0394 -1.3834,0.14625 -1.8218,0.23726 l -0.79702,0.16547 -2.5308,1.2516 -2.2073,1.4728 c -1.214,0.81004 -3.7188,2.5521 -5.5662,3.8713 -1.8474,1.3192 -3.4101,2.3976 -3.4728,2.3965 -0.0627,-0.001 -0.67746,-0.49219 -1.3663,-1.0912 z m 4.3061,-5.261 c 1.3891,-0.9938 3.371,-2.3641 4.4043,-3.0451 l 1.8787,-1.2382 1.7257,-0.87296 1.7257,-0.87296 0.89308,-0.20868 0.89309,-0.20867 3.7574,0.018 1.3663,0.19668 c 2.9041,0.41804 7.7074,1.5298 12.245,2.8343 l 2.1113,0.60696 1.3614,-2.3366 c 2.8308,-4.8584 4.6834,-7.6313 6.1743,-9.2416 l 0.72274,-0.78064 0.78351,-0.52087 c 2.7034,-1.7972 7.3683,-3.0371 16.225,-4.3127 l 3.4158,-0.49192 0.0818,-0.27349 c 0.045,-0.15041 0.21595,-1.58 0.37991,-3.1769 0.58931,-5.7394 1.2214,-9.1401 2.045,-11.002 1.3406,-3.0314 5.976,-6.8188 15.17,-12.395 0.70451,-0.42729 1.2809,-0.83197 1.2809,-0.89929 0,-0.0673 -0.43898,-1.4743 -0.9755,-3.1267 -1.2182,-3.7515 -1.8781,-6.0438 -2.2669,-7.8733 l -0.30243,-1.4233 -0.065,-1.1976 -0.065,-1.1976 0.19027,-0.93906 c 0.62173,-3.0683 2.6808,-6.9966 7.1722,-13.683 1.1969,-1.7818 2.1917,-3.2755 2.2105,-3.3193 0.0189,-0.0438 -0.82983,-1.0257 -1.8859,-2.182 -5.4541,-5.9715 -7.2184,-8.4071 -7.813,-10.786 -0.10173,-0.40704 -0.24573,-1.4458 -0.31999,-2.3083 l -0.13503,-1.5682 0.13652,-2.1626 c 0.17447,-2.7638 0.46303,-5.0294 1.1741,-9.2182 0.3136,-1.8474 0.59892,-3.5508 0.63404,-3.7853 l 0.0638,-0.42644 -0.61269,-0.27645 c -0.33698,-0.15205 -1.7399,-0.77145 -3.1176,-1.3765 -3.1523,-1.3843 -6.1421,-2.8716 -7.679,-3.8199 l -1.189,-0.73366 -1.6345,-1.594 -0.59459,-0.91088 c -1.7507,-2.6819 -3.1947,-6.714 -5.287,-14.762 l -0.72065,-2.7721 -4.5416,-0.07416 c -6.3148,-0.1032 -8.6189,-0.32051 -10.604,-1.0003 l -0.93912,-0.32151 -0.97367,-0.61141 c -2.6591,-1.6698 -5.9155,-5.0299 -10.869,-11.215 l -2.0176,-2.5193 -2.3215,1.0212 c -4.8514,2.1341 -8.0005,3.326 -10.235,3.8739 l -0.96781,0.23731 -2.5049,0.0082 -1.0248,-0.20062 c -2.9926,-0.5859 -8.0165,-2.6909 -14.257,-5.9736 -1.3287,-0.69893 -2.438,-1.2708 -2.4651,-1.2708 -0.0272,0 -1.0976,1.14 -2.379,2.5334 -4.2006,4.568 -6.9516,7.0828 -8.6742,7.9297 -0.94551,0.46483 -2.4219,0.87563 -4.0183,1.1181 l -1.3395,0.20342 -9.9059,-0.0054 -2.772,-0.20419 c -1.5246,-0.11225 -2.7848,-0.18771 -2.8004,-0.16758 -0.01567,0.02013 -0.59483,1.7274 -1.287,3.794 -1.4,4.1798 -2.1375,6.1016 -3.0051,7.8308 -0.79964,1.5938 -1.3051,2.3047 -2.282,3.2092 -1.221,1.1306 -2.5877,1.9884 -5.2741,3.3105 l -2.3911,1.1767 -2.448,0.9686 c -2.5719,1.0176 -7.4362,2.8037 -7.6359,2.8037 h -0.11685 l 0.06214,0.37004 c 0.09294,0.55396 0.48967,4.425 0.68547,6.6893 l 0.17231,1.9926 6.48e-4,2.1769 6.48e-4,2.1769 -0.16707,0.95804 -0.16707,0.95804 -0.34176,0.82877 c -1.1364,2.7567 -3.1506,5.2374 -8.9025,10.966 l -3.961,3.9446 1.7245,2.9439 c 0.94849,1.6191 2.2686,4.0199 2.9336,5.335 l 1.2091,2.3911 0.36337,1.102 c 0.19984,0.60609 0.41934,1.5028 0.48777,1.9926 l 0.12441,0.89058 -0.07456,0.96781 c -0.2717,3.5266 -1.718,8.2035 -4.9991,16.166 l -0.63245,1.5348 0.13832,0.0794 c 0.35899,0.20611 5.8563,4.2224 6.9202,5.0559 1.7378,1.3614 3.3283,2.8051 4.0375,3.6649 1.8477,2.24 2.7624,5.6482 3.2939,12.273 0.20124,2.5084 0.404,6.4894 0.404,7.9325 0,0.55084 0.02715,1.0015 0.06038,1.0015 0.03323,0 1.6343,0.3352 3.5581,0.74487 8.7354,1.8602 11.111,2.793 13.284,5.2155 2.1646,2.4131 4.061,5.4916 7.2699,11.802 1.0031,1.9726 1.8397,3.6063 1.8589,3.6303 0.01932,0.024 1.8428,-0.32046 4.0524,-0.76553 2.2095,-0.44506 4.7603,-0.9208 5.6683,-1.0572 l 1.651,-0.248 3.8713,-0.0216 0.71106,0.19676 c 3.437,0.95102 8.0119,3.9673 15.450004,10.186 0.6224,0.52037 1.1511,0.94614 1.1749,0.94614 0.0238,0 1.1798,-0.8131 2.5688,-1.8069 z m 4.1887,-24.848 c -0.40038,-0.0609 -1.0264,-0.21139 -1.3912,-0.33429 l -0.66326,-0.22342 h -3.5089 l -1.6592,0.3747 -1.0915,-0.18178 c -0.60033,-0.1 -1.3168,-0.21567 -1.5921,-0.2571 l -0.50058,-0.0754 -1.1876,0.40368 -0.21501,-0.0931 c -0.11819,-0.0512 -0.50824,-0.0804 -0.86664,-0.0648 l -0.65164,0.0282 -0.71469,-0.22958 c -0.39307,-0.1263 -1.1758,-0.28873 -1.7394,-0.361 -0.56362,-0.0723 -1.3834,-0.17921 -1.8218,-0.23762 l -0.79702,-0.10617 -1.2449,-0.62681 -0.34536,-0.55971 -0.34538,-0.5597 0.0162,-1.7236 0.23326,-0.52032 c 0.12833,-0.28619 0.4297,-0.7111 0.66978,-0.94427 l 0.4365,-0.42394 0.80297,-0.3833 c 0.44164,-0.21083 1.3029,-0.5714 1.914,-0.8013 0.61106,-0.22988 1.3525,-0.58035 1.6477,-0.77884 l 0.53671,-0.36087 0.80295,-0.93416 c 0.98789,-1.1493 1.7938,-2.4634 2.1927,-3.5754 l 0.30202,-0.84191 0.01,-2.5049 -0.21601,-0.65837 -0.21599,-0.65837 0.13076,-0.93568 c 0.17932,-1.2832 0.16234,-3.7959 -0.044,-6.5148 l -0.17282,-2.2772 0.1132,-5.1237 0.23771,-1.1955 c 0.13076,-0.65754 0.2404,-1.5127 0.2437,-1.9003 l 0.005,-0.70479 -0.19466,-0.61886 -0.19466,-0.61887 0.12306,-0.78276 c 0.0677,-0.43053 0.18493,-1.6941 0.26063,-2.808 l 0.13765,-2.0252 -0.13762,-4.1232 c -0.0757,-2.2678 -0.13675,-5.3642 -0.13567,-6.8809 l 10e-4,-2.7577 -0.19658,-1.2274 -0.19655,-1.2274 0.002,-6.7178 0.43526,-5.4653 0.005,-3.302 0.005,-3.302 -0.2562,-0.47937 -0.25618,-0.47938 0.003,-0.83002 0.003,-0.83002 0.22187,-0.96781 c 0.12198,-0.5323 0.2232,-1.226 0.2248,-1.5416 l 0.003,-0.57376 -0.57518,-1.7604 c -0.31634,-0.96821 -0.79931,-2.2215 -1.0733,-2.7851 l -0.49594,-1.0247 -0.55366,-0.68316 -0.55365,-0.68316 -3.6116,-0.72216 -0.8086,-0.40342 c -0.44472,-0.22189 -0.99196,-0.57394 -1.2161,-0.78234 l -0.4075,-0.37892 -0.20705,-0.98669 -0.20707,-0.98671 0.06335,-0.83752 0.06335,-0.83752 0.35537,-0.85053 0.7217,-0.32724 c 0.39694,-0.17998 1.0518,-0.42016 1.4552,-0.53372 l 0.73351,-0.2065 4.4406,0.0108 2.2772,0.36033 c 4.0919,0.64746 3.998,0.6431 13.606,0.63312 l 4.1559,-0.0041 4.042,-0.36102 c 2.2231,-0.19856 5.2883,-0.42131 6.8114,-0.49501 l 2.7694,-0.134 2.3544,0.14185 c 1.2949,0.07794 2.9608,0.23118 3.702,0.34038 l 1.3477,0.19856 0.6449,-0.08078 c 0.3547,-0.04444 1.6696,-0.0851 2.9221,-0.09037 1.2525,-0.0054 2.8408,-0.06254 3.5297,-0.12725 l 1.2525,-0.11752 2.2565,-0.59254 0.52274,0.12954 c 0.28751,0.07119 0.79703,0.20473 1.1323,0.29664 l 0.60952,0.1671 0.37561,-0.15692 c 0.20658,-0.08632 0.4894,-0.31086 0.62849,-0.49899 l 0.25289,-0.34205 0.46989,0.16679 c 0.25843,0.09172 1.136,0.26806 1.9501,0.39182 1.7509,0.26617 2.3858,0.45724 3.0015,0.90321 l 0.45605,0.33036 0.29226,0.49871 0.29227,0.49871 v 0.5461 c 0,0.30034 -0.062,0.75698 -0.13788,1.0147 l -0.13787,0.46865 -0.6342,0.62624 -0.6342,0.62623 -1.0212,0.6173 c -0.56168,0.33952 -1.3821,0.8876 -1.8231,1.218 l -0.80184,0.60064 -0.34713,0.48996 -0.34712,0.48997 -0.1917,3.1881 c -0.10543,1.7534 -0.19044,3.8732 -0.18889,4.7106 l 0.003,1.5225 0.17836,1.2012 c 0.22007,1.4821 0.57487,2.6233 1.1171,3.5928 0.47497,0.84934 1.4287,1.9408 1.916,2.1929 0.18247,0.09429 1.123,0.36991 2.0901,0.61235 3.151,0.78992 4.035,1.4247 4.035,2.8973 v 0.51176 l -0.23415,0.62584 c -0.12879,0.34421 -0.32093,0.73244 -0.42698,0.86274 l -0.19282,0.23692 -1.0248,0.16604 c -1.8806,0.30473 -4.9838,0.61369 -7.5148,0.74817 l -2.5049,0.13305 -4.7252,-0.0666 c -2.5989,-0.0366 -6.3534,-0.15213 -8.3434,-0.25666 l -3.6182,-0.19006 -0.73583,-0.47079 c -0.4047,-0.25892 -0.96308,-0.61319 -1.2408,-0.78725 l -0.50501,-0.31649 -0.4725,-0.97604 v -0.81855 l 0.46222,-0.58474 c 0.78391,-0.99173 2.4144,-2.032 4.4554,-2.8428 l 0.64781,-0.25732 0.0625,-0.58735 c 0.0344,-0.32304 0.14798,-2.314 0.25243,-4.4245 l 0.18991,-3.8371 -0.32928,-0.43263 c -1.0179,-1.3374 -1.5259,-1.6921 -3.0652,-2.1407 -2.2127,-0.64475 -4.2455,-0.74819 -8.7091,-0.44314 l -2.677,0.18294 -4.7821,-0.10968 -0.37281,0.22448 c -0.41247,0.24836 -0.58003,0.52532 -0.88025,1.455 -0.11117,0.34443 -0.29323,0.75624 -0.40445,0.91513 l -0.2022,0.2889 0.23356,0.67892 0.23355,0.67891 0.0874,2.2203 0.0874,2.2203 0.19323,0.62624 c 0.10631,0.34442 0.37498,1.0464 0.59711,1.56 l 0.40386,0.93381 -0.70526,0.80325 -0.0771,0.41108 c -0.0932,0.49668 -0.0165,1.5203 0.2341,3.1235 l 0.18684,1.1955 -0.0766,0.55724 c -0.0421,0.30649 -0.19461,0.79324 -0.33884,1.0817 -0.39057,0.78111 -0.61068,1.768 -0.73031,3.2742 l -0.10712,1.3492 0.0369,4.0227 0.0369,4.0227 0.38352,0.39955 c 0.44106,0.45945 1.2391,0.89656 1.9138,1.0481 l 0.46619,0.10482 1.1917,-0.4643 2.4268,-0.11 1.8608,0.19812 1.8608,0.19813 0.7401,-0.0692 c 1.1396,-0.10658 2.3588,-0.39232 2.948,-0.69089 l 0.53388,-0.27055 0.47125,-0.51124 c 0.75809,-0.82243 1.0725,-1.5489 1.8573,-4.2913 0.25985,-0.90803 0.63997,-2.0096 0.84471,-2.448 l 0.37225,-0.79702 1.5361,-1.7851 1.0453,-0.66293 h 1.2519 l 1.1778,1.216 0.37146,0.95757 c 0.2043,0.52665 0.49905,1.5724 0.655,2.3239 l 0.28354,1.3663 0.015,1.5371 0.015,1.5371 -0.26933,2.2203 -0.26933,2.2203 0.0613,2.5049 0.0613,2.5049 0.23527,1.5371 c 0.12939,0.84541 0.33918,2.0508 0.46618,2.6787 l 0.23092,1.1416 -0.22974,0.47551 c -0.12636,0.26154 -0.28817,0.74694 -0.35959,1.0787 l -0.12984,0.60318 0.10008,1.8787 c 0.055,1.0333 0.094,2.2698 0.0866,2.7478 l -0.0135,0.86907 -0.39474,1.1884 -0.99047,1.0337 -1.09,-0.1448 -0.85011,-0.41741 -0.85011,-0.41742 -0.97733,-0.9779 c -0.53753,-0.53783 -1.4729,-1.6184 -2.0785,-2.4011 l -1.1012,-1.4233 -0.003,-0.51692 c -0.007,-1.1086 -0.4899,-2.3588 -1.3676,-3.5407 l -0.47662,-0.64182 -0.58819,-0.32567 -0.58818,-0.32568 -3.0742,-0.0748 -1.8218,0.42499 -1.8218,0.42498 -2.6188,0.002 -0.48696,-0.18641 -0.48695,-0.18641 -0.31007,0.11752 c -0.68554,0.25971 -1.0838,0.85115 -1.5034,2.2328 l -0.24858,0.81838 0.12293,1.002 c 0.172,1.4024 0.15295,3.989 -0.0507,6.8846 l -0.17348,2.4668 0.0284,1.8029 c 0.0155,0.99161 -0.0143,2.4946 -0.0666,3.34 l -0.095,1.5371 0.24218,2.1752 c 0.1332,1.1963 0.27053,2.7334 0.30518,3.4158 l 0.063,1.2407 -0.0971,0.85396 -0.0971,0.85395 0.2636,0.40939 0.26361,0.40941 0.11685,0.7292 c 0.1454,0.90776 0.30474,1.155 1.0494,1.6282 0.88483,0.56233 1.918,0.93493 4.1536,1.498 2.5928,0.65296 3.596,0.99016 4.4228,1.4866 0.85631,0.51411 1.1983,0.84452 1.5577,1.5048 l 0.28999,0.53281 0.12725,0.73984 0.12725,0.73983 -0.22832,1.59 -0.2041,0.1514 c -0.11225,0.0832 -0.345,0.18026 -0.51721,0.21551 -0.17221,0.0353 -0.31311,0.10361 -0.31311,0.15185 0,0.0482 -0.25708,0.25272 -0.57128,0.45435 l -0.57127,0.36658 -4.3797,-0.0822 -1.3663,0.41623 -5.3514,0.191 -1.0732,0.1743 c -0.59027,0.0959 -1.5382,0.19907 -2.1064,0.22934 l -1.0332,0.055 z m -41.514,-7.9373 c -0.44545,-0.27526 -1.0158,-0.93053 -1.3345,-1.5331 l -0.25424,-0.48075 -3.78e-4,-0.85394 -3.78e-4,-0.85396 0.19203,-0.35481 0.19205,-0.35481 -0.70667,0.2935 -0.70668,0.29349 -2.8936,0.0884 -0.94426,-0.19041 c -1.069,-0.21558 -1.7291,-0.47805 -2.303,-0.91579 l -0.39467,-0.30103 -0.23346,-0.48224 c -0.12846,-0.26525 -0.23345,-0.61978 -0.23345,-0.78789 v -0.30563 h -0.76286 l -0.44406,-0.32581 c -0.67378,-0.49436 -1.9186,-1.8374 -2.1782,-2.3499 -0.12684,-0.25048 -0.26542,-0.61665 -0.30793,-0.81369 l -0.07727,-0.35825 0.17145,-0.4103 c 0.09429,-0.22567 0.23087,-0.41031 0.3035,-0.41031 0.07267,0 0.77948,0.32023 1.5707,0.71163 l 1.4387,0.71162 2.7339,-0.018 0.96782,-0.31704 c 1.4839,-0.4861 3.1894,-1.3817 9.5057,-4.992 5.1485,-2.9428 8.0876,-4.1079 11.136,-4.4148 l 1.1775,-0.11847 1.1714,0.12023 c 2.0273,0.20802 3.3808,0.69452 4.3378,1.5591 l 0.45097,0.40743 0.33695,0.69937 0.33695,0.69938 0.07362,0.63754 0.07362,0.63755 -0.37283,1.4576 -0.30847,0.44696 c -0.16966,0.24584 -0.52998,0.5877 -0.80071,0.75972 l -0.49225,0.31274 -1.6053,0.28688 -0.73992,-0.1267 -0.73992,-0.12671 -0.52351,-0.32366 -0.5235,-0.32367 -0.34511,-0.491 -0.34511,-0.49103 v -1.33 l 0.23843,-0.32147 c 0.13116,-0.17681 0.43856,-0.4389 0.68316,-0.58242 l 0.44473,-0.26095 1.0721,0.0892 0.40437,0.30843 c 0.41984,0.32023 0.72473,0.8245 0.97017,1.6046 0.17184,0.54618 0.53079,0.96781 0.8239,0.96781 0.35328,0 0.8324,-0.30553 0.97709,-0.62306 0.07483,-0.16419 0.13551,-0.56512 0.13495,-0.89096 l -0.0011,-0.5924 -0.26712,-0.57364 -0.26712,-0.57364 -1.081,-0.95154 -1.286,-0.51997 -3.5297,0.002 -0.85395,0.2655 c -0.46968,0.14604 -1.1987,0.44589 -1.62,0.66635 l -0.76604,0.40083 -1.467,1.3442 -0.47457,0.75145 c -0.26102,0.4133 -0.59816,1.0798 -0.7492,1.481 l -0.27462,0.7296 v 1.1559 l 0.19061,0.4017 0.19063,0.4017 0.46407,0.21077 0.46409,0.21079 0.96781,0.006 v 0.25822 c 0,0.14201 -0.12495,0.44212 -0.2777,0.66689 l -0.2777,0.40866 -0.86785,0.42751 -0.68316,10e-4 c -0.37574,9.8e-4 -0.84392,-0.0395 -1.0404,-0.0898 l -0.35724,-0.0916 -0.04714,1.2302 -0.04714,1.2302 -0.2974,0.57449 c -0.61858,1.1949 -1.7266,1.9976 -3.4445,2.4954 -0.56085,0.16253 -1.2302,0.41888 -1.4876,0.56967 l -0.46783,0.27417 -0.63383,0.91462 -0.14724,1.2062 -0.5693,0.0616 z m -11.955,-22.623 -0.45544,-0.16104 -0.36174,-0.39251 -0.36172,-0.39252 -0.12157,-0.43772 c -0.06686,-0.24076 -0.12184,-0.65183 -0.12225,-0.91351 l -6.35e-4,-0.47577 0.18267,-0.18267 c 0.34363,-0.34364 1.049,-0.62457 2.4187,-0.96331 0.75349,-0.18635 1.5716,-0.44166 1.818,-0.56737 0.53496,-0.27292 1.0423,-0.84335 1.0554,-1.1866 0.05295,-1.3882 0.09388,-1.8112 0.22582,-2.33 l 0.15318,-0.60235 -0.19575,-0.36546 -0.19576,-0.36546 0.11496,-4.6114 c 0.20478,-8.21 0.30565,-15.324 0.28492,-20.096 l -0.02026,-4.6683 -0.13908,-1.0248 c -0.07646,-0.56362 -0.15934,-1.6542 -0.1841,-2.4236 -0.02472,-0.76939 -0.07646,-1.4497 -0.11468,-1.5117 -0.03836,-0.062 -0.46294,-0.3095 -0.94353,-0.54988 l -0.8738,-0.43706 -0.51238,-0.07565 c -0.28181,-0.0416 -0.71493,-0.18972 -0.96251,-0.3291 l -0.45015,-0.25341 -0.37535,-0.49212 -0.37534,-0.4921 V 80.9605 c 0,-0.48203 0.28962,-1.0386 0.79639,-1.5304 l 0.43264,-0.41989 5.9259,0.0068 c 3.2592,0.0041 5.9726,0.03553 6.0298,0.07078 0.05714,0.03539 0.66217,-0.0095 1.3445,-0.10091 l 1.2405,-0.16508 1.5371,3.24e-4 c 0.84542,1.75e-4 2.4594,0.06322 3.5866,0.14009 2.1419,0.14609 4.4101,0.16446 6.1485,0.04985 0.56362,-0.03715 1.8156,-0.09712 2.7821,-0.13319 0.96656,-0.03607 1.7843,-0.09253 1.8173,-0.12549 0.09415,-0.09415 3.092,0.07294 3.5985,0.20057 l 0.45544,0.11482 0.42698,0.4484 0.42697,0.44842 v 0.25452 c 0,0.4957 -0.85056,1.4744 -1.8525,2.1316 l -0.65697,0.43091 -1.1617,0.29772 -0.14894,0.23112 -0.14894,0.23112 2.97e-4,1.2525 c 1.62e-4,0.68885 0.02296,2.5846 0.05066,4.212796 l 0.05039,2.9604 -0.1584,1.651 -0.15838,1.651 0.09969,0.038 c 0.12927,0.0493 0.12576,0.71219 -0.0054,0.9186 l -0.10104,0.15952 0.15878,0.45002 c 0.0874,0.24751 0.21332,0.91867 0.28,1.4914 0.06673,0.57279 0.17396,1.2093 0.23841,1.4144 0.16618,0.52889 0.63834,1.0482 1.1746,1.2917 l 0.46016,0.20901 1.5034,0.006 0.37532,0.25618 c 0.20642,0.14091 0.47018,0.43472 0.58613,0.65292 l 0.21082,0.39674 v 1.3749 l -0.7062,0.85674 -1.1725,0.61361 -3.302,-0.0394 c -1.8161,-0.0217 -5.1487,-0.0462 -7.4058,-0.0546 l -4.1039,-0.0151 -0.64793,0.42437 -0.64897,-0.0735 c -0.88899,-0.10064 -4.1762,-0.10321 -4.8386,-0.004 l -0.53998,0.0811 -0.21305,0.46916 -0.21304,0.46915 -0.0027,0.53082 c -0.0014,0.29195 0.07429,0.93241 0.16827,1.4233 0.21908,1.1449 0.21571,1.8275 -0.01351,2.6978 l -0.1841,0.69961 0.13992,1.594 0.1399,1.594 -0.12266,2.2385 -0.12265,2.2385 0.11374,1.0008 0.11374,1.0008 0.30383,0.67702 0.30384,0.67703 0.46091,0.20037 0.46093,0.20035 1.8218,0.12711 c 1.002,0.0698 2.1804,0.18271 2.6188,0.25071 l 0.79702,0.1236 0.50888,0.46747 0.06754,0.35966 0.06741,0.35965 -0.15113,0.61791 -0.15112,0.6179 -0.42029,0.19752 c -0.756,0.35528 -2.0071,0.64171 -3.4248,0.78405 l -1.3925,0.13983 -6.5355,-0.29229 -1.0538,0.51013 -0.84517,-0.0713 c -0.46484,-0.0392 -1.2169,-0.10293 -1.6712,-0.14146 l -0.82605,-0.0701 -0.44031,0.18396 -0.44031,0.18399 -2.8756,-0.01 z m 17.99,-28.006 1.0247,-0.1509 1.3663,0.1688 1.6788,-0.1848 0.2758,-0.18072 c 0.1517,-0.0994 0.32694,-0.31518 0.38943,-0.47955 l 0.1136,-0.29884 -0.07686,-1.2154 -0.07686,-1.2154 0.21316,-0.38104 -0.10388,-0.7674 -0.10388,-0.76739 0.10293,-3.0157 0.10293,-3.0157 -0.15312,-0.38 -0.15313,-0.38 0.21613,-0.26476 -0.14829,-0.78346 -0.14831,-0.78348 -0.15339,-0.09726 c -0.08443,-0.05349 -0.44158,-0.09793 -0.79382,-0.09901 -0.35223,-9.59e-4 -1.2693,-0.10861 -2.038,-0.23911 l -1.3976,-0.23737 -0.85346,0.38485 -0.87745,-0.1467 -1.7012,0.24288 -0.59417,0.27203 -0.59418,0.27202 -0.11644,0.43646 c -0.06403,0.24004 -0.17597,0.82073 -0.24878,1.2904 l -0.13238,0.85395 0.06295,1.0248 0.06295,1.0247 0.20178,0.53621 0.20177,0.53622 -0.20754,2.8227 -0.20755,2.8226 0.08484,2.2389 0.21197,0.15488 0.21196,0.15488 0.56459,-0.004 c 0.31051,-0.003 0.5994,0.0305 0.64198,0.0732 0.09685,0.0971 1.7955,-0.0228 3.1517,-0.22252 z m 58.823,91.625 0.15627,-0.19926 -0.19926,0.15627 c -0.18966,0.14875 -0.24998,0.24224 -0.15627,0.24224 0.0236,0 0.11331,-0.0897 0.19926,-0.19925 z m -4.2128,-1.3663 0.15627,-0.19926 -0.19926,0.15626 c -0.18966,0.14875 -0.24998,0.24224 -0.15626,0.24224 0.0236,0 0.1133,-0.0897 0.19925,-0.19924 z m -40.01,-2.3745 c -0.03782,-0.0378 -0.13604,-0.0419 -0.21824,-0.009 l -0.14944,0.0598 0.21824,0.009 c 0.12009,0.005 0.18728,-0.022 0.14944,-0.0598 z m -26.81,-3.3078 c -0.07713,-0.0312 -0.2308,-0.0331 -0.34158,-0.004 l -0.20143,0.0525 0.34158,0.004 c 0.18787,0.003 0.27851,-0.0214 0.20144,-0.0525 z m -5.7545,-11.836 c -0.03782,-0.0378 -0.13604,-0.0419 -0.21822,-0.009 l -0.14944,0.0598 0.21822,0.009 c 0.12009,0.005 0.18728,-0.022 0.14944,-0.0598 z m 134.01,-28.539 -0.0574,-0.14234 v 0.5693 l 0.0574,-0.14232 c 0.0316,-0.0784 0.0316,-0.20638 0,-0.28464 z m 7.0645,-4.7808 -0.0495,-0.25751 -0.002,0.45544 c -10e-4,0.25048 0.021,0.36637 0.0495,0.25751 0.0285,-0.10888 0.0295,-0.31381 0.002,-0.45544 z m -179.79,-53.509 -0.05984,-0.14944 -0.0095,0.21824 c -0.0054,0.12009 0.02202,0.18726 0.05984,0.14944 0.03782,-0.03782 0.04187,-0.13604 0.0095,-0.21824 z m 2.958,-3.1952 -0.05741,-0.14232 v 0.5693 l 0.05741,-0.14232 c 0.03161,-0.07821 0.03161,-0.20638 0,-0.28466 z m 13.439,-11.213 -0.05241,-0.20142 -0.0041,0.34158 c -0.0027,0.18787 0.02134,0.27851 0.05255,0.20142 0.0312,-0.07713 0.0331,-0.2308 0.0041,-0.34158 z m 45.821,-44.066 0.15626,-0.19926 -0.19924,0.15626 c -0.18967,0.14875 -0.24998,0.24224 -0.15628,0.24224 0.02364,0 0.11333,-0.08969 0.19926,-0.19925 z m 54.608,-12.736 c -0.0378,-0.03782 -0.13604,-0.04188 -0.21824,-0.0095 l -0.14944,0.05984 0.21823,0.0095 c 0.12004,0.0054 0.18728,-0.02202 0.14945,-0.05984 z"
     id="path1"
     style="fill:#000000;stroke:none" />
</svg>
