<?xml version="1.0" encoding="UTF-8"?>
<!-- Created with Inkscape (http://www.inkscape.org/) -->
<svg width="592.23" height="582.4" version="1.1" viewBox="0 0 156.7 154.09" xml:space="preserve" xmlns="http://www.w3.org/2000/svg"><path class="logo-face" transform="translate(115.55 -287.75)" d="m-26.115 441.72c-2.6723-0.59626-6.4435-2.4962-10.312-5.1951l-1.0822-0.75504-1.5308 0.71434c-4.7325 2.2085-8.6188 3.5433-11.983 4.1157l-1.0958 0.18644-3.1187 0.012-0.71646-0.15387-0.71647-0.15388-0.67432-0.32045c-2.537-1.2057-5.6537-4.7188-8.6166-9.7126l-0.58417-0.98459-8.3316-0.077-1.2644-0.13797c-3.9414-0.4301-6.6689-1.1723-8.676-2.3608-0.92361-0.54693-1.3936-0.96121-1.9929-1.7565l-0.51395-0.68207-0.49325-1.0178c-1.1741-2.4227-2.0987-6.2147-2.5412-10.422l-0.1054-1.0022-1.1834-0.47322c-7.0958-2.8376-11.993-5.889-14.262-8.8862-0.92748-1.2254-1.2764-2.1365-1.4687-3.8352l-0.0954-0.84289 0.0555-1.0536c0.14021-2.6608 0.71869-5.4689 1.915-9.2962l0.33693-1.0779-0.65999-0.70729c-3.0834-3.3044-3.9551-4.304-5.3316-6.1138-2.3491-3.0886-3.7746-5.8183-4.2614-8.1606l-0.12817-0.61661 0.00118-1.7169 0.16348-0.68184c0.5899-2.4604 2.6032-5.7266 5.8405-9.4751 0.58054-0.67221 1.1684-1.3285 1.3063-1.4584l0.25081-0.23617-0.40758-1.0969c-0.5852-1.575-1.3476-3.9435-1.7876-5.5532-1.3691-5.0094-1.6649-8.6555-0.93574-11.536l0.19979-0.78941 0.30414-0.55331c1.4084-2.5622 5.3174-5.3118 11.354-7.9859l0.73754-0.32674v-0.38726c0-1.2199 0.53787-5.8085 0.9336-7.9646 0.82447-4.492 2.3402-8.1701 4.1061-9.9636l0.49008-0.49775 0.62779-0.39103c1.6667-1.0381 4.4426-1.7696 8.0874-2.131l1.3065-0.12956 4.476-0.103 0.67001-1.2258c4.4152-8.0779 8.8511-12.975 12.487-13.786l0.60667-0.13534 2.4111 4e-5 1.0536 0.17091c2.5143 0.40784 6.5662 1.7069 9.6994 3.1097l0.35293 0.15801 1.3615-1.0239c5.2381-3.9393 9.4532-6.2616 12.966-7.1436l1.0336-0.2595 2.5318-0.0904 1.4298 0.3667 1.0115 0.48964c2.3897 1.1568 5.2136 3.4343 8.2665 6.6668 0.63484 0.67221 1.1966 1.2176 1.2484 1.212 0.05179-6e-3 0.92863-0.20305 1.9485-0.43879 2.8992-0.6701 5.0922-1.0532 7.6282-1.3326l1.3065-0.14393 4.1302 7.9e-4 0.92675 0.14137c0.50972 0.0778 1.2873 0.23823 1.7279 0.35662l0.80119 0.21525 0.75861 0.3704 0.75861 0.37041 0.52836 0.45392c0.7559 0.6494 1.449 1.4692 2.2223 2.6283l0.67378 1.01 0.78034 1.5608c0.8295 1.6591 1.7241 3.8308 2.3849 5.7899l0.40302 1.1947 0.80243 0.1413c6.9126 1.2172 11.943 2.8649 15.09 4.9426l0.80076 0.52872 1.6958 1.6914 0.39214 0.80076c0.6912 1.4114 1.074 3.1652 1.2509 5.7317l0.09588 1.3908-0.05396 1.6858c-0.05053 1.5785-0.2539 4.4154-0.34509 4.8138l-0.04071 0.17789 0.73619 0.48798c0.40491 0.26839 1.2483 0.84966 1.8741 1.2917 6.2399 4.4074 9.7302 8.084 10.936 11.519l0.20704 0.59003 0.04491 1.0234 0.04491 1.0234-0.10114 0.7045c-0.37392 2.6046-1.8139 6.1941-4.0828 10.177-0.35345 0.62053-0.64264 1.1396-0.64264 1.1534 0 0.0139 0.32885 0.54923 0.73078 1.1897 3.3362 5.3165 5.4174 9.9998 5.9675 13.429l0.12848 0.80075 6.78e-4 2.3753-0.33128 1.2953-0.39637 0.76745c-1.2253 2.3724-3.8172 5.0272-7.8967 8.0881-0.7333 0.55022-1.3918 1.0331-1.4633 1.0732l-0.13003 0.0728 0.17767 1.2979c0.09772 0.71386 0.25679 2.0376 0.3535 2.9416l0.17582 1.6436 0.09206 5.6-0.10078 1.0773c-0.25236 2.6978-0.81827 4.7848-1.7092 6.3033l-0.34618 0.59003-0.59757 0.59186c-1.9529 1.9342-5.881 3.5879-11.583 4.8764l-1.5453 0.34919-0.53965 1.7848c-2.2472 7.4321-4.8697 12.39-7.7808 14.711-0.98073 0.78176-1.8706 1.1649-3.4239 1.4741l-0.75861 0.15103-4.7202-6e-3 -1.2643-0.15142c-1.216-0.14562-4.1788-0.62169-5.2225-0.83915l-0.50229-0.10465-0.50437 0.59279c-3.4408 4.044-6.8065 7.2258-9.6154 9.0901l-1.0134 0.67259-1.0958 0.5321c-0.60267 0.29265-1.4371 0.63498-1.8544 0.76073l-0.75861 0.22863-2.3601 0.0462zm2.7833-2.5687c1.6244-0.44201 3.9954-1.946 6.4886-4.1161 0.84517-0.73561 3.1339-2.9885 3.9896-3.9272l0.68845-0.75517-1.0115 0.91335c-3.8685 3.4933-7.5848 6.0727-9.8394 6.8296l-0.64227 0.21561h-0.59209c-0.62952 0-1.4121-0.13422-1.4867-0.25498l-0.045-0.0728 1.2875-0.86784c2.4676-1.6633 4.851-3.5464 7.3774-5.8288 0.66062-0.59682 1.2011-1.101 1.2011-1.1203 0-0.0194-0.33189 0.22547-0.73754 0.54409-3.2326 2.5391-6.5711 4.7535-9.4803 6.2883l-1.0724 0.56578-1.5518-0.73279 1.5112-1.0438c2.1018-1.4518 4.4426-3.2106 6.3327-4.7584 1.6823-1.3776 2.2146-1.8763 1.2895-1.2079-1.1395 0.82317-4.3071 2.9312-5.5631 3.7021-1.3934 0.85529-4.1064 2.4281-4.4846 2.6l-0.22797 0.10357-0.72002-0.41216c-0.39601-0.22669-0.72014-0.43711-0.72029-0.46761s0.86159-0.65634 1.915-1.3908c1.0534-0.73444 2.535-1.8006 3.2924-2.3691 1.4419-1.0824 3.8957-3.0332 3.8957-3.0971 0-0.0204-0.85588 0.52981-1.902 1.2228-2.7071 1.7934-8.1769 5.0365-8.3644 4.9594-0.26571-0.1092-1.2805-0.80021-1.2771-0.86961 2e-3 -0.0473 0.59712-0.5032 1.3218-1.0132 2.3489-1.653 7.1873-5.3484 7.1873-5.4894 0-0.0192-0.44568 0.2636-0.99041 0.62842-1.9352 1.296-5.6603 3.576-8.12 4.97l-0.47072 0.26676-0.64388-0.44073c-0.35413-0.2424-0.6354-0.46615-0.62505-0.49724 0.0104-0.0311 1.043-0.82828 2.2947-1.7716 2.3259-1.7528 4.8412-3.7097 5.2504-4.0848l0.22841-0.20938-0.50574 0.31616c-0.27816 0.17389-1.1695 0.73892-1.9808 1.2556-1.3113 0.83513-5.6524 3.4823-6.1236 3.7341l-0.18122 0.0968-0.64061-0.46783c-0.35234-0.25731-0.64061-0.50006-0.64061-0.53944 0-0.0394 0.50258-0.44132 1.1168-0.89318 1.2474-0.91763 5.7901-4.3927 5.9214-4.5297 0.0464-0.0484-0.0105-0.03-0.12644 0.0408-1.3738 0.83995-5.3551 3.2229-6.2374 3.7334-0.62586 0.36207-1.2562 0.72916-1.4007 0.81577l-0.26281 0.15747-0.66438-0.51236c-0.36541-0.2818-0.67514-0.54168-0.6883-0.57752-0.0243-0.0661 4.2211-3.111 6.3035-4.5211 1.2771-0.86477 2.562-1.6342 3.15-1.8862 0.21586-0.0925 0.72385-0.23071 1.1289-0.30706l0.73639-0.13883 1.9387 0.0836 1.2677 0.26251c2.0837 0.43148 7.1736 1.8651 11.412 3.2142 5.6205 1.7891 10.049 2.6899 14.515 2.9524l1.5575 0.0915 1.035-0.0899c1.9897-0.17276 2.9097-0.46632 3.8154-1.2174 1.4387-1.193 3.3377-4.2636 4.7493-7.6795 0.60204-1.4569 1.6761-4.4217 1.6216-4.4762-0.01188-0.0119-0.20627 0.40248-0.43197 0.9208-2.0496 4.7069-4.6998 9.0436-6.3461 10.385-0.57991 0.4724-0.94651 0.66325-1.5016 0.78173-0.63314 0.13514-0.96934 0.1857-0.96934 0.14576 0-0.0197 0.28436-0.47193 0.63191-1.005 1.0048-1.541 2.1877-3.6524 3.1688-5.656 0.92812-1.8954 2.0384-4.3459 1.9907-4.3936-0.01461-0.0146-0.3659 0.6068-0.78066 1.3809-1.7899 3.3407-3.8718 6.5682-5.7896 8.9754l-0.65539 0.82267-0.44188-7e-3c-0.24303-4e-3 -0.61827-0.0325-0.83386-0.0632l-0.39198-0.0558 0.92365-1.5172c1.3627-2.2384 2.3397-3.9796 3.4527-6.1532 0.90764-1.7725 1.5035-3.0141 1.3956-2.908-0.02357 0.0232-0.48672 0.78179-1.0292 1.6858-2.0369 3.3943-5.8175 8.8509-6.1318 8.8502-0.16127-3.7e-4 -1.6175-0.1826-1.6418-0.20545-0.01197-0.0113 0.56798-1.0011 1.2888-2.1997 0.7208-1.1986 1.6453-2.7882 2.0544-3.5325 0.90354-1.6439 2.4249-4.5886 2.3104-4.472-0.04552 0.0464-0.39906 0.59635-0.78564 1.2222-1.4641 2.3702-3.555 5.4184-5.4641 7.9654-0.34747 0.46359-0.63752 0.85167-0.64455 0.8624-0.01829 0.0279-1.5894-0.23028-1.6264-0.26727-0.01693-0.0169 0.42188-0.80258 0.97512-1.7459 1.6574-2.8259 4.4576-7.991 4.1744-7.6997-0.04507 0.0464-0.4547 0.67221-0.91028 1.3908-1.0473 1.6519-2.2816 3.4666-3.7838 5.5631-0.64774 0.90401-1.2755 1.7845-1.3951 1.9566l-0.2174 0.31288-0.13849 3e-3c-0.1385 3e-3 -1.4429-0.25025-1.4857-0.28867-0.01246-0.0112 0.23034-0.47164 0.53955-1.0232 1.6065-2.8658 4.2172-7.7663 4.0592-7.6196-0.02496 0.0232-0.76656 1.1232-1.648 2.4444-1.2374 1.8548-3.9571 5.8069-4.1064 5.9671-0.04591 0.0493-1.6454-0.34972-1.6454-0.41044 0-0.0343 0.27969-0.54951 0.62154-1.1448 0.57228-0.9966 3.1202-5.668 3.4637-6.3505 0.23668-0.4702 0.07874-0.25669-1.5588 2.1072-1.3914 2.0086-3.4461 4.8904-3.6319 5.094l-0.07188 0.0787-0.84424-0.1993c-0.46433-0.10961-0.84424-0.23077-0.84424-0.26925 0-0.0856 3.1694-5.4364 4.0844-6.8957 1.8769-2.9933 2.8425-3.8398 5.1393-4.5054 1.8294-0.53014 7.7161-1.3993 13.45-1.986 7.4627-0.76352 14.446-2.6748 17.708-4.8463l0.82042-0.54618 0.35036-0.39803c1.0691-1.2146 1.6499-3.658 1.819-7.6526l0.05352-1.2644-0.09236-1.6858c-0.0508-0.92719-0.13978-2.1789-0.19774-2.7816l-0.10538-1.0958-0.01882 0.8429c-0.01035 0.46359-0.05895 1.8585-0.10801 3.0998l-0.08919 2.2569-0.16537 1.4518c-0.19419 1.7048-0.34793 2.5886-0.64114 3.6855-0.24525 0.91752-0.73703 2.021-1.082 2.4279-0.25364 0.29917-1.211 0.98579-1.2793 0.91751-0.02273-0.0227 0.03592-0.56664 0.13031-1.2087 0.41547-2.8259 0.5982-5.6517 0.59827-9.2522 2.6e-5 -1.3406-0.01737-2.42-0.03867-2.3987-0.02129 0.0213-0.07956 0.64398-0.12948 1.3838-0.29529 4.3756-0.73256 7.4523-1.5306 10.769l-0.34083 1.4166-0.43835 0.19385c-0.5264 0.2328-1.0625 0.41464-1.1026 0.37401-0.01602-0.0162 0.06031-0.72564 0.16962-1.5765 0.40373-3.1428 0.72463-7.5401 0.70213-9.6214l-0.01048-0.96934-0.07504 0.67432c-0.45111 4.0539-1.0733 7.8078-1.889 11.398l-0.1383 0.60862-0.72895 0.21743c-0.40092 0.11958-0.78169 0.23534-0.84614 0.25724l-0.11719 0.0398 0.05252-0.44441c0.02889-0.24443 0.14834-1.241 0.26545-2.2145 0.26942-2.2396 0.51925-5.2154 0.63262-7.5351 0.08841-1.809 0.07402-2.3635-0.03364-1.2964-0.10097 1.0007-0.5527 4.0265-0.85704 5.7406-0.28732 1.6182-1.2021 6.0074-1.2661 6.075-0.06311 0.0666-1.5002 0.42497-1.5409 0.38425-0.02283-0.0228 0.06121-1.0366 0.18674-2.2528 0.3611-3.4983 0.72683-8.6061 0.62362-8.7093-0.01993-0.0199-0.08321 0.35296-0.14061 0.82864-0.17967 1.4888-0.83662 5.3112-1.3654 7.9444-0.27918 1.3903-0.5143 2.5329-0.52249 2.5391-0.0082 6e-3 -0.36575 0.0874-0.79458 0.18062l-0.77968 0.1694v-0.073c0-0.0402 0.05616-0.69001 0.1248-1.4441 0.18914-2.0779 0.452-5.8568 0.50287-7.2292l0.0453-1.2222-0.29311 1.7701c-0.26278 1.5869-0.99373 5.6648-1.3749 7.6704l-0.14418 0.7586-0.78006 0.16054c-0.42903 0.0883-0.80348 0.13711-0.8321 0.10849-0.02862-0.0286 0.02873-1.0112 0.12744-2.1835 0.17378-2.0637 0.52295-6.7694 0.51059-6.881-0.0033-0.0302-0.30106 1.5002-0.66158 3.4009-0.36052 1.9007-0.77474 4.0035-0.92048 4.6727l-0.26498 1.2168-0.09308 0.0575c-0.11918 0.0737-1.585 0.2853-1.6343 0.23598-0.06855-0.0686 0.79677-7.5149 1.0467-9.0068 0.29107-1.7378 0.4776-2.3772 0.90904-3.1159l0.31832-0.54502 0.63217-0.66754c0.72363-0.76413 1.4223-1.314 3.0344-2.3884 1.9592-1.3057 6.3871-3.9865 9.4405-5.7156 3.1503-1.784 6.3899-3.9996 8.9347-6.1106 1.2963-1.0753 3.454-3.1823 4.1872-4.0888 0.62137-0.76821 1.2934-1.8586 1.515-2.4583l0.15065-0.4076-0.0047-1.0536-0.0047-1.0536-0.22994-0.99607c-0.46231-2.0027-1.3194-4.2143-2.6682-6.885-1.2459-2.4671-2.3218-4.3209-1.6387-2.8237 1.7379 3.8092 2.9408 7.1751 3.4192 9.5669l0.19387 0.96933 0.0056 0.96933 0.0056 0.96934-0.11581 0.33716c-0.13538 0.39413-0.66759 1.3065-0.76211 1.3065-0.03573 0-0.15035-0.31292-0.25472-0.69539-0.38639-1.416-1.3109-4.1175-1.9832-5.7949-0.6801-1.697-2.2342-5.1721-2.2887-5.1177-0.01525 0.0152 0.14428 0.48073 0.35452 1.0344 1.4071 3.7058 2.4272 7.274 3.079 10.77l0.18592 0.99716-1.1921 1.1921-0.2673-0.87675c-0.9609-3.1519-1.9627-5.9607-3.2099-9.0003-0.67915-1.6552-0.92749-2.1436-0.5802-1.1411 0.42098 1.2152 1.3089 4.1767 1.7279 5.7633 0.47964 1.816 1.3912 5.8124 1.3814 6.0564l-0.0057 0.14228-0.62898 0.53835c-0.34594 0.2961-0.64394 0.52339-0.66224 0.5051-0.01829-0.0183-0.34073-1.0111-0.71654-2.2062-0.77209-2.4554-1.3578-4.1342-2.2117-6.339-0.89985-2.3236-0.93375-2.4075-0.96175-2.3795-0.0144 0.0144 0.14335 0.58853 0.35055 1.2758 0.85426 2.8337 1.6927 6.1634 2.3627 9.3829l0.23195 1.1146-0.20388 0.16159c-0.11213 0.0889-0.40298 0.32067-0.64632 0.51509l-0.44244 0.35351-0.04093-0.11247c-0.02251-0.0619-0.45596-1.3452-0.96322-2.8519-0.78548-2.3331-1.4636-4.1963-2.3705-6.5131-0.10471-0.2675-0.20498-0.47177-0.22282-0.45393-0.01784 0.0178 0.12226 0.55912 0.31133 1.2028 0.47943 1.6323 1.3443 5.0293 1.8539 7.2814 0.236 1.0431 0.44745 1.9589 0.46988 2.0352l0.04079 0.13866-0.57183 0.41401c-0.3145 0.22771-0.61435 0.43953-0.66632 0.4707l-0.09449 0.0567-0.31688-0.90437c-1.1109-3.1704-3.0704-8.3982-3.1267-8.3419-0.01429 0.0143 0.16347 0.7074 0.39504 1.5402 0.42198 1.5177 2.0988 8.182 2.0993 8.3433 2.86e-4 0.0973-1.3278 1.0164-1.3855 0.9588-0.02055-0.0206-0.26146-0.68271-0.53535-1.4715-0.78961-2.2739-2.4007-6.6165-2.4401-6.577-0.01973 0.0197 0.26909 1.2813 0.64184 2.8034 0.62782 2.5638 1.3593 5.7469 1.3593 5.9153 0 0.0745-1.4323 1.0576-1.4707 1.0095-0.01188-0.0149-0.51905-1.5632-1.1271-3.4408-1.1628-3.5909-1.5948-5.0286-1.8866-6.2796l-0.17698-0.75861-0.0026-0.80075-0.0026-0.80076 0.10844-0.50573c0.35459-1.6537 1.524-3.6517 5.2296-8.9347 0.943-1.3444 2.2064-3.1082 2.8075-3.9195 3.9832-5.3756 7.0834-11.161 8.0846-15.088l0.24718-0.96934 0.0985-1.795-0.10291-0.40898c-0.16862-0.67015-0.73812-1.7205-1.4601-2.6928l-0.67838-0.91366-1.2727-1.2986c-1.7394-1.7748-3.5865-3.3464-5.9086-5.0275-0.80468-0.58251-0.70282-0.47425 0.84079 0.89363 2.2078 1.9565 4.6205 4.4859 5.8984 6.1838 0.63818 0.84794 1.1922 1.7878 1.4366 2.437l0.21108 0.5608-0.0084 0.73561c-0.0046 0.40459-0.03386 0.82654-0.06497 0.93768l-0.05657 0.20207-0.94134-1.0958c-2.2084-2.5708-4.6655-4.9755-7.8213-7.6545l-0.59003-0.50088 1.8129 1.8527c1.9072 1.9491 3.4209 3.663 4.7941 5.4283 0.82782 1.0642 2.2678 3.0736 2.3473 3.2756 0.03755 0.0953-0.31855 1.2291-0.47717 1.5193l-0.06015 0.11003-1.5529-1.7537c-1.5681-1.7708-5.1668-5.4347-6.4829-6.6004l-0.71379-0.63217 0.96166 1.053c2.301 2.5196 4.3272 5.0016 6.5222 7.9896l0.82235 1.1194-0.38434 0.81136c-0.21139 0.44625-0.39718 0.79596-0.41287 0.77713-0.31261-0.37518-2.2483-2.5559-2.911-3.2794-1.1006-1.2017-4.9174-5.0658-4.9609-5.0223-0.01753 0.0175 0.46894 0.61421 1.0811 1.326 1.5611 1.8152 3.0952 3.7454 4.8334 6.0814l1.4925 2.0057-0.34886 0.64942c-0.19187 0.35718-0.37748 0.67904-0.41245 0.71524l-0.0636 0.0658-1.3744-1.4988c-1.9019-2.074-4.9435-5.2167-5.5786-5.7641l-0.52781-0.45491 0.96917 1.142c1.3506 1.5914 3.0145 3.6822 4.6196 5.8048l1.3651 1.8051-0.04521 0.11783c-0.02487 0.0648-0.20238 0.38694-0.39448 0.71585l-0.34926 0.59802-0.59959-0.62507c-2.7161-2.8316-5.4539-5.6172-5.8869-5.9899l-0.52281-0.44996 0.84706 1.0115c1.0209 1.2191 3.1581 3.891 4.5707 5.7143l1.0314 1.3313-0.43053 0.71277c-0.23679 0.39202-0.45643 0.70958-0.48809 0.70569-0.03166-4e-3 -0.46748-0.44956-0.9685-0.9904-1.4112-1.5233-5.3395-5.4969-5.0136-5.0714 0.15975 0.20862 1.0898 1.4069 2.0667 2.6628s2.1227 2.7517 2.5461 3.324l0.76987 1.0406-0.04837 0.12605c-0.08706 0.22689-0.8285 1.3599-0.88991 1.3599-0.06136 0-4.1434-4.4753-5.1895-5.6896-0.87559-1.0163-1.4839-1.7857-1.9629-2.4828l-0.43181-0.62842-0.26932-0.80451-0.26932-0.80451 0.0028-1.5594 0.0028-1.5594 0.23181-1.5172c0.38381-2.5121 1.0672-6.1125 2.1918-11.548 0.60626-2.93 1.0024-6.0776 1.1559-9.1843l0.09564-1.9354-0.09656-1.656c-0.14884-2.5527-0.46816-4.1601-1.0454-5.2624l-0.26485-0.50574-0.4764-0.47241c-1.2345-1.2241-3.7964-2.5111-7.1691-3.6015-1.325-0.42838-4.6728-1.2985-5.3815-1.3988l-0.3793-0.0536 1.6437 0.53726c3.9299 1.2846 7.2874 2.7337 9.1455 3.9473l0.67432 0.44044 0.64317 0.63861 0.64317 0.63862 0.22313 0.70633c0.12272 0.38849 0.20341 0.72606 0.17931 0.75016-0.0241 0.0241-0.64152-0.24332-1.372-0.59427-2.565-1.2323-5.464-2.3554-8.625-3.3415-0.90714-0.28299-1.6847-0.51309-1.7279-0.51133-0.04323 2e-3 0.7938 0.35627 1.8601 0.78781 3.7432 1.515 6.6433 2.9535 9.5666 4.7453l0.54758 0.33563 0.05867 0.33026c0.03227 0.18164 0.06085 0.56549 0.06353 0.85299l0.0049 0.52272-0.90612-0.42396c-1.7944-0.83959-3.8043-1.7077-5.5421-2.3939-1.8494-0.73022-4.6807-1.7511-4.7272-1.7046-0.01487 0.0149 0.68234 0.34542 1.5493 0.73456 2.1727 0.97517 5.3778 2.588 7.3924 3.7198 0.92719 0.52092 1.8277 1.0262 2.0012 1.1228l0.31539 0.17564 0.00139 1.7279h-0.08601c-0.04731 0-0.7585-0.30806-1.5804-0.68458-1.9152-0.87736-3.694-1.6454-5.2875-2.2831-1.5076-0.60332-3.9381-1.5093-3.9677-1.479-0.01157 0.0118 0.34541 0.18995 0.79329 0.39582 2.3493 1.0799 5.3714 2.6474 8.5462 4.4327l1.4944 0.84039 4.49e-4 0.71646c2.46e-4 0.39406-0.03312 0.76948-0.07415 0.83428l-0.0746 0.11781-1.6731-0.73968c-2.6593-1.1756-8.0195-3.3328-8.2763-3.3307-0.03063 2.5e-4 1.0822 0.56692 2.473 1.2593 2.3196 1.1547 4.1559 2.128 6.5646 3.4795l0.91716 0.51459-0.05761 0.76317c-0.03169 0.41974-0.07259 0.77815-0.09091 0.79647-0.01831 0.0183-1.1448-0.42354-2.5032-0.9819-1.3584-0.55835-2.9251-1.1917-3.4814-1.4075-1.1448-0.44407-2.8655-1.0939-3.1187-1.1778-0.09272-0.0307 0.85554 0.46917 2.1072 1.1109s3.3118 1.7161 4.5781 2.3875l2.3022 1.2208-0.05323 0.59003c-0.02928 0.32452-0.07909 0.70979-0.11068 0.85617l-0.05745 0.26613-1.0958-0.4648c-1.4431-0.61212-7.1485-2.8933-7.1736-2.8682-0.01077 0.0108 1.011 0.56751 2.2705 1.2372 2.4603 1.3081 5.7029 3.0936 5.8141 3.2014l0.06806 0.066-0.10131 0.74955c-0.05572 0.41225-0.12453 0.79472-0.15291 0.84993l-0.05161 0.10038-3.371-1.4995c-6.1558-2.7382-6.9292-3.1648-7.929-4.3733l-0.46774-0.56543-0.41397-0.8249-0.41397-0.82491-0.38299-1.1894c-0.69169-2.1481-2.1963-8.1431-2.9473-11.743-1.2066-5.784-3.5521-12.072-5.7422-15.393l-0.54278-0.82318-1.367-1.4441-1.3708-0.66919-1.7701-0.37508-4.8045-8e-3 -1.0115 0.11299c-1.8363 0.20513-6.0053 0.90588-5.9167 0.99451 0.01836 0.0184 0.7692-0.0417 1.6685-0.13344 0.89933-0.0918 2.4696-0.21089 3.4895-0.26473l1.8544-0.0979 1.5978 0.0554c2.5178 0.0872 4.0709 0.34578 5.1534 0.85788l0.44341 0.20977 0.46967 0.50729c0.25832 0.27902 0.46966 0.53602 0.46966 0.57113v0.0638l-4.7201-0.0748-1.7491 0.0992c-1.9776 0.1122-6.6517 0.5698-6.5766 0.64387 0.01265 0.0125 1.1609-0.0189 2.5517-0.0698l2.5287-0.0925 2.318 0.10057c2.5019 0.10855 5.2601 0.35642 6.3285 0.56871l0.21745 0.0432 0.3515 0.6597c0.19333 0.36284 0.3515 0.68365 0.3515 0.71292 0 0.0293-1.5015 0.0532-3.3367 0.0532h-3.3367l-1.6154 0.0902c-0.88844 0.0496-2.2033 0.13944-2.9218 0.19966l-1.3065 0.10949 1.2644 0.0127c1.7855 0.0179 5.4318 0.15887 6.8275 0.26387 1.4666 0.11033 4.5587 0.40886 4.8599 0.46921l0.22393 0.0449 0.30288 0.70505c0.16658 0.38777 0.30288 0.74465 0.30288 0.79307v0.088l-4.931-0.1032-2.613 0.10564c-1.4371 0.0581-2.9733 0.13163-3.4137 0.16338l-0.80075 0.0577 0.71646 0.0568c0.39406 0.0313 1.4561 0.0789 2.3601 0.10578 0.90401 0.0269 2.3833 0.10374 3.2873 0.17073 1.4759 0.10936 5.9283 0.53763 5.9519 0.5725 0.03069 0.0454 0.53843 1.4073 0.53843 1.4442 0 0.0247-0.74913 0.0462-1.6647 0.0479-1.8005 3e-3 -6.0925 0.11975-7.9734 0.21634l-1.167 0.0599 0.1134 0.0598c0.06237 0.0329 0.89097 0.0844 1.8413 0.11445 1.9079 0.0603 4.317 0.22538 7.3332 0.5024l1.9808 0.18192 0.485 1.3975-0.0598 0.0599c-0.03289 0.0329-1.2989 0.0865-2.8133 0.11901-1.5144 0.0325-3.5267 0.0989-4.4718 0.1475s-1.905 0.0884-2.1333 0.0884h-0.41507l0.08792 0.1422 1.4618 0.0571c1.5091 0.0589 3.6145 0.19578 6.8695 0.44662l1.8768 0.14463 0.21249 0.67942c0.11687 0.37368 0.2326 0.74579 0.25717 0.82692l0.04468 0.14751-1.4175-2e-3c-1.4812-2e-3 -7.8807 0.18328-7.8375 0.22647 0.01367 0.0137 1.2551 0.12021 2.7588 0.23674 4.1834 0.32419 6.6856 0.56231 6.7908 0.64622 0.05236 0.0418 0.11727 0.17944 0.14425 0.30589 0.02697 0.12645 0.1232 0.48422 0.21384 0.79505l0.1648 0.56514-4.1864-0.0421c-4.4451-0.0447-6.3476-0.13066-7.3051-0.3301l-0.59003-0.1229-0.67462-0.33246c-0.37104-0.18286-0.92103-0.51908-1.2222-0.74716-1.407-1.0656-4.1107-4.3048-8.6695-10.387-1.0946-1.4603-2.3673-3.1103-2.8282-3.6666-4.1793-5.0445-8.5053-8.851-11.371-10.005l-0.69039-0.2781-2.023 6e-3 -0.826 0.22803c-1.6992 0.46907-4.2133 1.6055-6.3808 2.8841-1.0066 0.59384-3.9304 2.5196-4.2988 2.8314l-0.21072 0.17837 0.32537-0.18952c4.0592-2.3643 7.7598-4.0733 10.246-4.732l0.97594-0.2585 1.9387-0.0204 0.6111 0.28642c0.33611 0.15753 0.6108 0.30925 0.61042 0.33716-3.7e-4 0.0279-0.52191 0.25607-1.159 0.50703-1.6637 0.65539-3.7272 1.5958-5.3307 2.4295-1.3855 0.72034-4.687 2.5815-4.846 2.7318-0.046 0.0435 0.61782-0.25941 1.4751-0.67304 3.6184-1.7459 7.0255-3.0688 10.348-4.0179l0.78157-0.22328 0.66966 0.49123c0.36831 0.27017 0.6709 0.51206 0.67243 0.53751 2e-3 0.0255-0.13946 0.0972-0.31331 0.15945-0.68982 0.24697-3.9421 1.6614-5.4466 2.3688-1.5911 0.74808-5.3799 2.7054-5.3312 2.7541 0.0142 0.0142 0.42041-0.1501 0.90279-0.36502 2.7079-1.2065 7.8756-3.1222 10.548-3.91l0.65161-0.19212 0.63871 0.57163 0.6387 0.57164-0.0681 0.0644c-0.0375 0.0354-0.50432 0.24296-1.0374 0.4612-2.2534 0.92246-4.4195 1.903-6.9321 3.1381-1.4715 0.72332-2.6639 1.3267-2.6497 1.3408 0.0142 0.0142 0.61781-0.21708 1.3415-0.51385 2.2411-0.91905 4.2075-1.6356 7.2177-2.6302 1.5932-0.52644 2.9409-0.95716 2.9947-0.95716 0.0539 0 0.34189 0.24615 0.64006 0.54699l0.54213 0.54699-0.081 0.0741c-0.0445 0.0408-1.038 0.4964-2.2078 1.0125-2.4626 1.0866-5.851 2.6942-6.7658 3.2102-0.34769 0.19608-0.57527 0.33699-0.50574 0.31314 0.0695-0.0239 0.97988-0.3742 2.023-0.77854 1.938-0.75127 6.2372-2.2642 7.6629-2.6967l0.79323-0.24063 0.49071 0.54425c0.26989 0.29934 0.48009 0.57811 0.46712 0.61949-0.013 0.0414-0.8373 0.44995-1.8318 0.90792-1.9584 0.90183-7.0046 3.3733-6.9661 3.4118 0.013 0.013 0.85643-0.2922 1.8743-0.67821 1.7231-0.65347 4.6104-1.6904 6.8527-2.461l0.9561-0.32859 0.53764 0.59003c0.2957 0.32452 0.52833 0.62122 0.51695 0.65934-0.01138 0.0381-0.77838 0.41883-1.7045 0.84603-2.2859 1.0545-6.1989 2.9423-6.1663 2.9749 0.0145 0.0146 1.1429-0.3657 2.5074-0.845 1.3645-0.47931 3.3147-1.1469 4.3337-1.4836l1.8528-0.61208 0.32231 0.36809c0.60411 0.68991 0.82301 0.98766 0.75639 1.0288-0.13576 0.0839-5.9272 2.5853-7.0214 3.0326-1.502 0.61406-2.6714 1.0153-3.4886 1.1969l-0.66832 0.14856-1.6135-0.101-0.64764-0.16711c-0.96584-0.24923-2.5855-0.94122-4.6626-1.9921-2.2199-1.1231-5.7332-3.0124-7.8811-4.2382-5.7719-3.294-11.582-5.6355-15.847-6.3862l-0.80075-0.14097-2.1915-0.0202-1.1568 0.39878-1.5405 1.0296-1.0115 0.98385c-1.6069 1.563-3.3737 3.8017-4.9216 6.2363-0.79938 1.2572-1.4546 2.3507-1.4085 2.3507 0.017 0 0.27032-0.33189 0.56297-0.73753 2.4086-3.3386 5.2392-6.5145 7.0769-7.9401l0.79752-0.61869 1.371-0.6614 0.63282-0.0479c0.34805-0.0263 0.73511-0.0222 0.86013 9e-3l0.22732 0.0571-1.0869 1.1195c-2.325 2.3947-4.6534 5.2493-6.7471 8.2719l-0.29193 0.42145 0.32583-0.37646c0.1792-0.20705 0.69977-0.81394 1.1568-1.3486 2.2474-2.6292 4.7861-5.1762 7.0644-7.0873l0.98357-0.82508 0.7401 0.16174c0.40706 0.089 0.77048 0.16173 0.80759 0.16173 0.1925 0-0.0271 0.28542-0.98332 1.278-2.0349 2.1122-4.1906 4.6112-6.0595 7.0246l-0.91383 1.1801 0.82185-0.88504c1.547-1.6659 5.3891-5.443 6.9273-6.81 0.84551-0.7514 1.5601-1.3662 1.588-1.3662 0.0657 0 1.5844 0.52032 1.6282 0.55781 0.0183 0.0157-0.45584 0.54636-1.0536 1.1793-2.2395 2.3712-4.0334 4.4101-5.813 6.607l-0.9213 1.1373 2.318-2.3228c1.981-1.9852 5.0378-4.8338 6.3092-5.8796l0.36672-0.30166 0.71548 0.24801c0.39351 0.1364 0.73359 0.27733 0.75574 0.31317 0.0437 0.0707-0.0825 0.21803-1.9032 2.2226-1.3868 1.5268-3.2487 3.6881-4.3481 5.0473l-0.74996 0.92719 2.1454-2.1072c2.2529-2.2128 5.9288-5.6053 6.0736-5.6053 0.11684 0 1.2809 0.49866 1.3698 0.5868l0.072 0.0714-1.2521 1.4251c-1.409 1.6038-3.0503 3.5347-4.2833 5.0392l-0.82895 1.0115 0.75004-0.72085c0.41253-0.39647 1.3958-1.3447 2.1852-2.1072 1.7914-1.7306 4.4028-4.1582 4.5152-4.1974 0.11409-0.0398 1.5093 0.59334 1.5093 0.68489 0 0.0399-0.42867 0.55358-0.95261 1.1415-0.96309 1.0807-2.1478 2.4551-3.9728 4.6091l-0.99986 1.1801 0.45504-0.42606c0.25027-0.23433 1.0619-0.99436 1.8037-1.689 1.607-1.5048 3.2093-2.9767 4.1123-3.7774l0.65643-0.5821 0.79347 0.37141c0.43641 0.20427 0.78583 0.39984 0.7765 0.4346-0.0374 0.13921-5.2044 5.6877-6.2001 6.6578-0.5862 0.57114-1.3149 1.2159-1.6193 1.4328l-0.55348 0.39437-0.62658 0.24977c-0.83739 0.3338-1.675 0.49331-2.9446 0.56073l-1.0536 0.056-1.8544-0.0942c-2.5018-0.12714-6.7936-0.46034-9.8198-0.76238-1.3676-0.1365-3.34-0.2927-4.3831-0.34711l-1.8965-0.0989-4.8045 0.1006-1.2612 0.12694c-4.0437 0.40702-6.5948 1.0982-7.8674 2.1314-1.3628 1.1065-2.7089 4.358-3.5517 8.5787-0.25864 1.2953-0.63187 3.7843-0.71413 4.7624l-0.0461 0.54789 0.17169-0.75861c1.3586-6.003 2.4352-9.2217 3.7637-11.253l0.41353-0.63218 0.87018-0.78159 0.55971-0.22407c0.30784-0.12323 0.58173-0.20205 0.60863-0.17514 0.0269 0.0269-0.0202 0.22773-0.10475 0.44628-0.7544 1.9506-1.641 4.7758-2.188 6.972-0.38125 1.5307-0.99378 4.4253-0.95872 4.5305 0.015 0.045 0.18875-0.49036 0.38611-1.1896 1.0272-3.6393 2.2437-6.9131 3.7109-9.9861l0.57658-1.2077 0.7082-0.14058c0.38951-0.0773 0.77253-0.14055 0.85116-0.14051l0.14297 6e-5 -0.17235 0.48467c-0.61987 1.7432-1.582 4.6837-1.9708 6.0235-0.49072 1.6909-1.413 5.2955-1.3667 5.3418 0.0154 0.0154 0.19222-0.47301 0.39291-1.0854 0.99393-3.0327 2.0807-5.8532 3.3358-8.6573 0.40463-0.90401 0.79389-1.7851 0.86502-1.9579l0.12933-0.31423 0.13545-0.0393c0.0745-0.0216 0.49243-0.0658 0.92873-0.0981l0.79328-0.0587-0.0655 0.15944c-0.21423 0.52176-1.6368 4.7517-1.9911 5.9207-0.53062 1.7504-1.3676 4.8199-1.3256 4.8618 0.0174 0.0174 0.25332-0.58295 0.52431-1.3341 0.96316-2.6697 2.4455-6.2524 3.6637-8.8546l0.42037-0.89797h1.6125v0.0655c0 0.036-0.26639 0.86099-0.59198 1.8333-0.9611 2.8702-2.4513 7.9126-2.4393 8.254 2e-3 0.0487 0.30009-0.68911 0.66307-1.6395 0.92249-2.4153 1.3799-3.5384 2.3687-5.816 0.47297-1.0894 0.93693-2.161 1.031-2.3812l0.17107-0.40038h1.6443l-0.37146 1.2011c-0.99942 3.2317-2.4228 8.2357-2.3604 8.2982 0.0162 0.0162 0.13634-0.26536 0.26692-0.62576 0.38744-1.0693 1.9042-4.835 2.7899-6.9264l0.82455-1.9471h1.7534l-0.0545 0.14203c-0.26679 0.69525-2.5163 8.291-2.4694 8.3379 0.0126 0.0126 0.56589-1.2739 1.2296-2.8588 0.66368-1.5849 1.4794-3.4886 1.8127-4.2303l0.606-1.3486 0.88278 0.0306c0.48554 0.0168 0.8925 0.0392 0.90437 0.0497 0.034 0.03-2.127 6.4241-2.6483 7.8362-0.25812 0.69913-0.66126 1.6673-0.89588 2.1516l-0.42657 0.88041-1.2621 1.321-0.57318 0.38104c-1.3403 0.89106-4.1689 2.0214-10.062 4.021-1.2981 0.44044-2.8722 0.96026-3.498 1.1552-1.6008 0.49851-4.3024 1.5006-6.0098 2.2291-3.1112 1.3275-5.3299 2.4918-7.5608 3.9678-1.4612 0.96676-2.3416 1.6871-3.0546 2.4992l-0.48102 0.54789-0.52324 1.1181-0.23402 1.3127-3e-3 1.1806-3e-3 1.1806 0.12338 1.0531c0.25293 2.1588 0.75506 4.4484 1.5576 7.1024 0.63542 2.1012 0.7207 2.2547 0.37767 0.67961-0.46343-2.1279-0.75132-3.7915-1.0186-5.886l-0.15058-1.1801-0.00152-4.1302 0.14525-0.57076c0.0799-0.31391 0.22565-0.72837 0.32392-0.921 0.17221-0.33756 0.965-1.2477 1.0868-1.2477 0.0327 0 0.0853 0.46465 0.11696 1.0326 0.12531 2.2488 0.50221 5.0018 1.0703 7.8179 0.32983 1.6349 0.81801 3.7432 0.82953 3.5823 3e-3 -0.0464-0.10539-0.86186-0.24157-1.8122-0.27984-1.953-0.47016-3.7527-0.59276-5.6053-0.092-1.3905-0.11462-5.533-0.0319-5.842l0.0521-0.19459 0.62791-0.42371c0.34535-0.23304 0.64812-0.40349 0.67283-0.37878 0.0247 0.0247 0.11691 0.83397 0.20488 1.7984 0.29504 3.2342 0.84648 7.1157 1.3389 9.4238l0.16183 0.75861-0.0384-0.54788c-0.0211-0.30134-0.0943-1.1548-0.16262-1.8965-0.23868-2.5901-0.30451-3.9002-0.35577-7.0804l-0.0516-3.203 0.72186-0.40038c0.39702-0.2202 0.75422-0.40037 0.79379-0.40037h0.072l0.19316 2.1283c0.10625 1.1706 0.28408 2.849 0.39519 3.7298 0.21289 1.6877 0.88694 5.9663 0.93272 5.9205 0.0148-0.0148-0.0263-0.67018-0.0912-1.4565-0.20078-2.4318-0.29016-4.4233-0.34788-7.7514l-0.0556-3.203 0.73786-0.36248c0.40582-0.19936 0.75282-0.34751 0.77111-0.32923 0.0183 0.0183 0.16518 1.2101 0.32643 2.6484 0.16124 1.4383 0.36925 3.1416 0.46224 3.7851 0.26904 1.8618 0.69601 4.5072 0.72308 4.4801 0.0136-0.0136-0.0276-0.74503-0.0917-1.6253-0.16236-2.2307-0.30942-6.711-0.27745-8.4531l0.0268-1.458 0.65937-0.29892c0.36265-0.1644 0.68169-0.2766 0.70897-0.24932 0.0273 0.0273 0.17261 0.98859 0.32297 2.1362 0.45005 3.4352 1.1259 7.8951 1.1871 7.8339 0.0141-0.0141-0.0101-0.55434-0.0536-1.2006-0.10216-1.517-0.23322-4.6707-0.30279-7.2861l-0.0549-2.0651 0.70512-0.28381c0.38781-0.15609 0.7453-0.29962 0.79442-0.31894l0.0893-0.0351 0.1474 1.2883c0.0811 0.70856 0.35149 2.6727 0.60093 4.3649l0.45353 3.0766-0.0581-3.1609c-0.0319-1.7385-0.0581-3.803-0.0581-4.5877v-1.4269l0.79401-0.32188c0.4367-0.17704 0.80741-0.30848 0.8238-0.29209 0.0164 0.0164 0.20264 1.6947 0.41388 3.7296l0.38408 3.6998 0.0928 3.9852-0.18698 0.62037c-0.26904 0.89259-0.61063 1.5677-1.1967 2.3652l-0.51415 0.69958-2.244 2.2405c-2.2827 2.2791-4.4121 4.2754-7.1347 6.689-6.311 5.5946-11.221 12.025-11.766 15.409l-0.078 0.48397 0.091 0.56963c0.3887 2.4332 2.5433 6.0157 6.1174 10.171 1.4159 1.6463 1.559 1.7329 0.49983 0.30228-3.0221-4.0818-5.0851-7.7778-5.5688-9.9775l-0.14591-0.66342 0.0874-1.0333 0.18384-0.48467c0.1011-0.26657 0.20955-0.48362 0.24099-0.48233 0.0314 1e-3 0.30371 0.46584 0.60504 1.0323 0.78553 1.4768 1.8796 3.2924 2.9065 4.8232 0.86418 1.2883 3.2227 4.5098 3.3017 4.5098 0.0475 0 0.0455-3e-3 -0.63706-1.0536-0.30129-0.46359-0.97845-1.5636-1.5048-2.4444l-0.95698-1.6015-1.1307-2.2758c-0.6219-1.2517-1.3184-2.7377-1.5477-3.3023l-0.41692-1.0264 0.41874-0.68042c0.2303-0.37424 0.44523-0.67973 0.47762-0.67888 0.0324 8.4e-4 0.35955 0.54135 0.72703 1.2011 1.2141 2.1799 2.5074 4.2895 3.9908 6.5099 0.80527 1.2053 1.5243 2.2484 1.5979 2.318l0.13379 0.12644-0.24264-0.42145c-1.9416-3.3725-3.4133-6.2159-4.7921-9.2585l-0.71967-1.5881 0.50748-0.66666c0.27912-0.36666 0.5352-0.66665 0.56906-0.66665 0.0339 0 0.57267 0.89906 1.1974 1.9979 0.62467 1.0988 1.5103 2.6066 1.968 3.3505 0.97619 1.5866 2.9049 4.5135 2.9743 4.5135 0.0264 0-8e-3 -0.0853-0.076-0.18965-0.70439-1.0769-3.0723-5.7554-4.435-8.7625l-0.86731-1.914 0.0694-0.11697c0.12166-0.20493 0.91025-1.1449 0.96469-1.1499 0.0288-3e-3 0.47978 0.72537 1.0022 1.6178 1.2784 2.1838 2.3476 3.9156 3.6037 5.8371 1.0399 1.5908 1.4238 2.1175 1.0135 1.3908-1.3771-2.4395-4.7938-9.4278-4.7831-9.783 4e-3 -0.13531 0.97557-1.2366 1.0347-1.173 0.0207 0.0223 0.5414 0.856 1.1571 1.8527 1.7715 2.8678 3.9425 6.242 4.1488 6.4482 0.0464 0.0464-0.12424-0.31398-0.37919-0.80076-1.3215-2.5232-1.7483-3.3689-2.8792-5.7056-0.67736-1.3996-1.2305-2.5944-1.2293-2.6551 3e-3 -0.13032 1.0585-1.3099 1.1173-1.2483 0.0222 0.0232 0.37315 0.59214 0.77997 1.2644 0.87526 1.4462 3.7389 5.9898 3.8516 6.111 0.11365 0.12226-0.17669-0.50228-1.7242-3.7088-0.7607-1.5762-1.5479-3.2341-1.7493-3.6841l-0.36617-0.81826 0.57985-0.61467c0.31891-0.33806 0.60847-0.61466 0.64345-0.61466 0.035 0 0.50496 0.75861 1.0444 1.6858 3.0763 5.2876 3.9737 6.961 4.3844 8.1761l0.22792 0.67432 6e-3 2.1915-0.14039 0.56847c-0.50277 2.0358-2.5297 7.1497-5.053 12.749-2.6061 5.7828-4.2705 11.423-4.6149 15.637l-0.0848 1.038 0.0863 0.91496 0.0863 0.91495 0.1796 0.48328c0.70928 1.9085 3.5983 4.2653 8.1737 6.6678 1.2135 0.6372 3.7029 1.8028 3.7499 1.7558 0.0158-0.0158-0.30263-0.21258-0.70762-0.43728-4.1332-2.2932-7.7042-4.8523-9.2731-6.6454l-0.52915-0.60478-0.28513-0.56521-0.28512-0.5652-0.0599-0.63972c-0.033-0.35184-0.0401-0.65961-0.0157-0.68392 0.0243-0.0243 0.58841 0.36939 1.2535 0.87491 2.6671 2.0271 5.4969 3.8342 8.7954 5.6166 0.82759 0.44723 0.65046 0.31095-1.2222-0.94033-2.9328-1.9596-5.3178-3.8177-7.6883-5.9896l-1.075-0.98493 4e-3 -0.25287c2e-3 -0.13908 0.0489-0.53091 0.10394-0.87075l0.10007-0.61787 0.71647 0.54031c1.4117 1.0646 3.1849 2.3257 4.5938 3.267 1.3969 0.93332 4.3466 2.7838 4.7082 2.9537l0.18067 0.0849-0.20881-0.14994c-1.2251-0.87975-4.7481-3.5722-5.6072-4.2853-1.4152-1.1748-4.1725-3.5899-4.1718-3.654 8.3e-4 -0.0693 0.33131-1.4595 0.37732-1.5872l0.0377-0.10468 1.5833 1.1661c2.3348 1.7195 4.1614 2.9844 6.0086 4.1609 0.90401 0.57577 1.7006 1.0783 1.7701 1.1168l0.12644 0.0699-0.0843-0.0891c-0.0464-0.049-0.69118-0.55302-1.4329-1.1201s-1.9366-1.5129-2.6551-2.1019c-1.3347-1.094-4.6449-3.9748-4.9084-4.2717l-0.14599-0.16447 0.22099-0.77416 0.221-0.77415 0.38859 0.27889c3.3183 2.3815 6.6004 4.6073 8.3329 5.651 0.33558 0.20216-0.0359-0.11659-1.0958-0.9401-2.0084-1.5606-5.442-4.4245-6.9111-5.7643l-0.39971-0.36455 0.22985-0.73896 0.22984-0.73896 0.1043 0.04c0.0574 0.022 0.989 0.64411 2.0703 1.3824 2.0071 1.3705 2.7356 1.8512 5.0348 3.3224 1.468 0.93941 1.4717 0.9228 0.0422-0.19406-1.2585-0.98327-3.3225-2.6734-5.3374-4.3708l-1.5407-1.2979 0.034-0.0929c0.0187-0.0511 0.13837-0.40838 0.26591-0.79395l0.23189-0.70104 0.0966 0.0377c0.0531 0.0207 0.68448 0.4461 1.4031 0.94532 2.3353 1.6224 6.1689 4.1536 5.9003 3.8959-0.0695-0.0667-1.0937-0.93068-2.2758-1.9198-1.1822-0.98917-2.7304-2.3075-3.4405-2.9297l-1.2911-1.1312 0.056-0.13883c0.0308-0.0763 0.1709-0.45102 0.31137-0.8326l0.25539-0.69377 0.0888 0.0549c0.0489 0.0302 1.4001 1.0019 3.0027 2.1594 3.397 2.4534 4.8769 3.6008 5.7168 4.4324l0.60521 0.59924 0.34042 0.61101c1.0545 1.8928 1.2751 4.1294 1.4363 14.566l0.08 5.1793 0.1266 1.4751c0.51855 6.0414 1.6809 10.771 3.2139 13.077l0.39331 0.59162 0.42771 0.33809c0.45464 0.35937 1.2728 0.79899 2.0102 1.0802 2.3889 0.91094 6.7798 1.5342 10.633 1.5092l1.4473-9e-3 -1.0536-0.1132c-3.2714-0.35148-5.5452-0.72297-7.7547-1.267-2.3973-0.59023-3.893-1.2093-4.7025-1.9464-0.3425-0.31187-0.94494-1.2196-0.94494-1.4239v-0.10098l1.1168 0.28397c3.0844 0.78422 7.7324 1.5186 10.599 1.6746l0.80075 0.0436-1.3486-0.24196c-4.354-0.78116-7.7565-1.6369-10.765-2.7075l-0.98768-0.35144-0.21345-0.69977c-0.21055-0.69028-0.24944-0.88612-0.17598-0.88612 0.0206 0 0.96062 0.20743 2.0889 0.46096 3.1399 0.70554 5.6363 1.1356 9.8428 1.6958 0.60035 0.0799 0.36289-0.0183-0.42145-0.17434-1.712-0.34064-4.8716-1.1054-6.6403-1.6073-1.6325-0.46325-5.1349-1.5409-5.2342-1.6105-0.0544-0.0381-0.36359-1.6425-0.32418-1.6819 0.0205-0.0205 0.8107 0.13745 1.756 0.35101 2.2966 0.51885 4.2724 0.91571 6.0596 1.2172 1.8423 0.31073 3.8105 0.6012 3.8443 0.56735 0.0141-0.0141-0.60281-0.16943-1.3709-0.34521-2.6556-0.60777-5.8502-1.506-9.0698-2.5503-0.79932-0.25925-1.465-0.48206-1.4793-0.49513-0.0241-0.022-0.26799-1.449-0.26871-1.572-1.8e-4 -0.0302 0.33157 0.018 0.73722 0.10701 2.9547 0.64856 8.0841 1.5884 9.3351 1.7105l0.50574 0.0494-1.8965-0.49684c-2.7706-0.72583-8.7143-2.4574-8.8291-2.5722-0.0508-0.0508-0.21089-1.4895-0.17024-1.5302 0.0235-0.0235 1.1761 0.16641 2.5613 0.42211 2.2962 0.42386 6.2409 1.0853 7.0702 1.1854 0.18544 0.0224-0.38352-0.15003-1.2644-0.38318-1.3448-0.35596-6.8652-1.9187-8.1332-2.3024l-0.37852-0.11454-0.0532-0.32809c-0.0292-0.18044-0.0735-0.5666-0.0984-0.85813l-0.0453-0.53005 0.13981 0.042c0.46816 0.14075 8.6161 1.5889 8.665 1.54 0.016-0.016-1.2468-0.39952-2.8064-0.85222-2.4331-0.70628-6.0218-1.7992-6.0719-1.8491-0.0481-0.0479-0.12564-1.7401-0.0798-1.7401 0.0302 0 1.5813 0.32566 3.4469 0.72368 5.5548 1.1851 7.4083 1.7007 8.3737 2.3294 0.60477 0.39381 1.6276 1.4466 2.1234 2.1857 1.1304 1.6848 3.388 6.1558 5.9736 11.83 3.3027 7.2479 7.5149 13.388 10.599 15.451l0.65236 0.43632 1.2096 0.38034 2.3601-8e-3 0.91865-0.15032c1.8063-0.29557 4.2487-0.96701 6.3509-1.746 1.3437-0.49789 3.8317-1.5197 3.7934-1.558-0.0143-0.0144-0.66976 0.18234-1.4565 0.43709-2.908 0.94161-6.1918 1.725-8.4686 2.0201l-1.0536 0.13659-2.3601-0.0772-0.86883-0.27754-0.51384-0.37827c-0.28262-0.20805-0.51385-0.40752-0.51385-0.44327 0-0.0358 0.52154-0.15164 1.159-0.25752 2.7907-0.46357 6.6601-1.46 9.6723-2.4907 0.74175-0.25381 1.3183-0.4644 1.2811-0.46797-0.0371-4e-3 -0.58712 0.12351-1.2222 0.28239-3.8187 0.95536-7.253 1.5371-10.764 1.8232l-1.1801 0.0962-0.56838-0.61301c-0.31261-0.33715-0.55352-0.62786-0.53537-0.64601 0.0182-0.0182 1.1463-0.25519 2.507-0.52674 1.3607-0.27154 3.1625-0.66262 4.0039-0.86906 1.6758-0.41114 5.6072-1.5056 5.5639-1.5489-0.0149-0.0149-0.78264 0.12509-1.7061 0.31111-2.2088 0.44496-3.7154 0.70778-5.5141 0.96188-1.4338 0.20256-5.2161 0.63821-5.5408 0.63821h-0.1614l-0.4868-0.67993c-0.26773-0.37396-0.46977-0.69694-0.44897-0.71775 0.0208-0.0208 0.83063-0.19143 1.7996-0.37918 3.0706-0.59493 4.9771-1.041 9.2454-2.1631 0.26818-0.0705 0.475-0.14079 0.45959-0.1562-0.0154-0.0154-0.74689 0.10433-1.6255 0.26609-2.6752 0.49254-7.378 1.1226-10.069 1.3489l-0.63217 0.0532-0.37931-0.61929c-0.20862-0.34062-0.3793-0.65287-0.3793-0.6939v-0.0746l2.6551-0.57014c2.2358-0.48009 4.553-1.0362 7.2308-1.7354 0.29136-0.0761 0.51508-0.15299 0.49715-0.17092-0.0179-0.0179-0.95803 0.11923-2.0891 0.30479-2.8505 0.46765-8.9702 1.2574-9.0508 1.168-0.16178-0.17958-0.77792-1.3039-0.73441-1.3401 0.0321-0.0267 0.60829-0.17196 1.2805-0.32275 1.5756-0.35344 6.7404-1.6314 7.6704-1.8979 0.8835-0.25319 0.76705-0.26542-0.49638-0.0521-2.5436 0.42944-8.9967 1.2972-9.1129 1.2254-0.0733-0.0453-0.85724-1.4087-0.82273-1.4308 0.0122-8e-3 0.40147-0.0959 0.86507-0.19572 1.3-0.27999 7.9653-1.8996 7.9364-1.9285-0.0141-0.0141-1.3124 0.14236-2.8852 0.34767-1.5728 0.20531-3.5803 0.45201-4.4611 0.54823-0.88083 0.0962-1.6982 0.19091-1.8163 0.21044l-0.21479 0.0355-0.40518-0.75829c-0.22284-0.41705-0.38338-0.78007-0.35675-0.8067 0.0784-0.0784 7.671-1.5988 8.9963-1.8016l1.2142-0.18571 1.7701-0.014 0.59003 0.15189c0.32452 0.0835 0.96934 0.33467 1.4329 0.55807l0.8429 0.40619 0.92719 0.65748c1.7374 1.232 6.1375 4.8665 9.4826 7.8327 4.104 3.6391 8.2651 6.5459 12.011 8.3907l1.5172 0.74715 0.89899 0.29859c1.1398 0.37856 1.8332 0.53011 2.4743 0.5408l0.50743 9e-3zm-19.093-12.022c-0.50995-0.44347-1.9323-1.6464-3.1609-2.6733-4.6885-3.9187-6.2723-4.9765-8.2375-5.5014l-0.82371-0.22001-2.4444 0.0958-1.2222 0.21271c-1.0904 0.18976-2.2912 0.42796-7.2347 1.435l-1.3765 0.28043-0.27675-0.60081c-1.3279-2.8828-3.3013-6.8705-4.2244-8.5363-1.225-2.2106-2.1069-3.3322-3.3433-4.2519l-0.65124-0.48445-0.68545-0.26433c-1.427-0.55033-3.0527-0.9563-8.2112-2.0505l-2.8659-0.60792-0.0976-3.7083c-0.15039-5.7162-0.3239-7.9552-0.74526-9.6169l-0.21163-0.83458-0.37844-0.76274-0.37845-0.76274-0.44988-0.54375c-0.80366-0.97134-2.5796-2.3728-7.2047-5.6854-1.1651-0.83447-2.1196-1.56-2.1211-1.6123-2e-3 -0.0523 0.45669-1.1713 1.0183-2.4866 2.6964-6.3151 3.5597-8.7328 3.7877-10.608l0.0908-0.74688-0.1796-1.6111-0.248-0.67954c-0.38228-1.0474-1.6571-3.449-3.6157-6.8116-0.9809-1.684-1.7834-3.0892-1.7834-3.1227 0-0.0335 0.63533-0.64316 1.4118-1.3548 4.2937-3.9347 6.8608-6.5091 7.8778-7.9002 0.48962-0.66968 0.93059-1.5119 1.2282-2.3457l0.21059-0.59003 0.0395-1.4854 0.0395-1.4854-0.0953-1.1697c-0.0524-0.64334-0.25078-2.6792-0.44081-4.5241-0.19004-1.8449-0.33145-3.365-0.31426-3.3781 0.0172-0.013 0.90367-0.31983 1.9699-0.68181 8.3401-2.8313 10.576-3.8288 12.155-5.4232l0.6175-0.62354 0.327-0.56058c0.67218-1.1523 1.2686-2.7098 2.93-7.6517l1.059-3.1501h0.19838c0.10911 0 1.309 0.0934 2.6664 0.20763 1.3574 0.1142 3.3384 0.26592 4.4023 0.33716l1.9343 0.12953 3.7174-6.8e-4 0.75861-0.12348c1.3271-0.216 2.4424-0.67258 3.3716-1.3802 0.84314-0.64211 2.462-2.2708 5.2072-5.2388 1.4365-1.553 2.642-2.8355 2.679-2.8498 0.037-0.0144 0.36389 0.1415 0.72645 0.34636 1.6268 0.91919 5.4631 2.9489 7.2123 3.8159 2.1581 1.0697 3.3514 1.5607 4.5272 1.863l0.80456 0.20683 1.0115 0.0127 1.0115 0.0126 0.81975-0.23079c1.4495-0.40809 2.8176-0.95608 8.0203-3.2126 1.246-0.54042 2.2946-0.97154 2.3302-0.95805 0.03561 0.0135 0.7198 0.87797 1.5204 1.921 3.1002 4.0391 4.5682 5.8287 5.9355 7.2355 1.0948 1.1264 1.7759 1.6513 2.7951 2.1539 0.83413 0.41136 1.4632 0.58552 2.6435 0.7319l0.80075 0.0993 9.7186 0.0796 0.18413 0.81343c0.44874 1.9824 1.7934 7.34 2.1498 8.5657 1.0751 3.6972 2.0203 5.2693 3.8983 6.4842 0.89088 0.57631 3.2821 1.731 6.8361 3.3011l3.2317 1.4277-0.04301 0.25287c-0.02365 0.13908-0.2747 1.4477-0.55789 2.908-0.93882 4.8413-1.3156 7.2654-1.4089 9.0654l-0.05265 1.0157 0.10384 0.71221c0.05711 0.39172 0.2136 1.0536 0.34776 1.4708l0.24392 0.75861 0.4074 0.63217c0.75338 1.169 1.7945 2.3975 5.2766 6.2258 1.0711 1.1776 1.9778 2.1931 2.015 2.2568l0.06759 0.11569-0.91759 1.2851c-2.6756 3.7472-4.7311 6.8103-5.562 8.2886-0.64115 1.1407-0.98922 1.9702-1.2171 2.9005l-0.17548 0.71646-0.0031 0.80076-0.0031 0.80075 0.15048 0.71647c0.23964 1.141 0.81534 3.0786 1.9997 6.7304l1.103 3.401-0.11514 0.10352c-0.06333 0.0569-1.1013 0.68538-2.3067 1.3965-5.7205 3.3752-8.3257 5.1717-9.5029 6.5533-1.4346 1.6837-1.729 2.8508-2.5042 9.926-0.18792 1.7153-0.36392 3.261-0.39111 3.4348l-0.04944 0.31609h-0.21138c-0.11626 0-1.431 0.15232-2.9217 0.3385-7.9663 0.99497-10.086 1.4685-11.923 2.6635-1.4579 0.9486-2.1575 1.9083-5.4919 7.5343-1.0304 1.7385-1.8898 3.1774-1.9099 3.1976-0.02007 0.0202-0.36765-0.061-0.7724-0.18048-0.40475-0.11947-1.7756-0.52567-3.0464-0.90266-4.3377-1.2869-6.8518-1.9189-8.6263-2.1685l-0.94815-0.13338-0.75861 0.0531c-0.41724 0.0292-1.0241 0.10827-1.3486 0.17564l-0.59003 0.1225-1.8736 0.92658-1.6341 1.0903c-0.89874 0.59966-2.753 1.8893-4.1206 2.8659-1.3676 0.97659-2.5245 1.7749-2.5708 1.7741-0.0464-8.4e-4 -0.50152-0.36436-1.0115-0.80783zm3.1878-3.8947c1.0283-0.7357 2.4955-1.7501 3.2604-2.2542l1.3908-0.91662 2.555-1.2925 1.3223-0.30896 2.7816 0.014 1.0115 0.1456c2.1499 0.30947 5.7057 1.1325 9.0648 2.0982l1.563 0.44933 1.0079-1.7298c2.0957-3.5967 3.4671-5.6494 4.5708-6.8415l0.53504-0.5779 0.58002-0.3856c2.0013-1.3304 5.4547-2.2484 12.011-3.1926l2.5287-0.36417 0.06055-0.20246c0.0333-0.11135 0.15986-1.1697 0.28124-2.3518 0.43626-4.2489 0.90418-6.7664 1.5139-8.145 0.99246-2.2441 4.424-5.0479 11.23-9.176 0.52154-0.31632 0.94826-0.6159 0.94826-0.66574 0-0.0498-0.32497-1.0914-0.72216-2.3146-0.90179-2.7772-1.3904-4.4741-1.6781-5.8285l-0.22388-1.0536-0.09628-1.7731 0.14086-0.69518c0.46026-2.2715 1.9846-5.1795 5.3095-10.129 0.88608-1.3191 1.6225-2.4248 1.6364-2.4573 0.01395-0.0324-0.61432-0.75934-1.3962-1.6153-4.0376-4.4206-5.3437-6.2237-5.7839-7.9848-0.07531-0.30133-0.18191-1.0703-0.23689-1.7088l-0.09996-1.1609 0.10106-1.601c0.12916-2.046 0.34278-3.7232 0.86918-6.8242 0.23215-1.3676 0.44337-2.6286 0.46937-2.8022l0.04727-0.31569-0.45357-0.20465c-0.24946-0.11256-1.288-0.5711-2.3079-1.019-2.3336-1.0248-4.547-2.1258-5.6847-2.8278l-0.8802-0.54312-1.21-1.1801-0.44017-0.67432c-1.296-1.9854-2.365-4.9703-3.914-10.928l-0.5335-2.0522-3.3621-0.0549c-4.6748-0.0764-6.3805-0.23727-7.8504-0.74048l-0.69522-0.23801-0.7208-0.45262c-1.9685-1.2361-4.3792-3.7236-8.0459-8.3022l-1.4936-1.865-1.7186 0.75597c-3.5915 1.5798-5.9227 2.4622-7.5767 2.8678l-0.71646 0.17568-1.8544 6e-3 -0.75861-0.14852c-2.2154-0.43374-5.9346-1.992-10.555-4.4222-0.98364-0.51741-1.8048-0.94075-1.8249-0.94075-0.0201 0-0.81257 0.84396-1.7611 1.8755-3.1097 3.3816-5.1462 5.2433-6.4214 5.8703-0.69995 0.34411-1.7929 0.64822-2.9747 0.8277l-0.99164 0.15059-7.3332-4e-3 -2.0521-0.15116c-1.1286-0.0831-2.0616-0.13896-2.0731-0.12406-0.0116 0.0149-0.44035 1.2788-0.95278 2.8086-1.0364 3.0943-1.5824 4.517-2.2246 5.797-0.59197 1.1799-0.96619 1.7061-1.6893 2.3757-0.90392 0.83698-1.9156 1.472-3.9044 2.4507l-1.7701 0.87109-1.8122 0.71705c-1.904 0.75335-5.505 2.0755-5.6528 2.0755h-0.0865l0.046 0.27394c0.0688 0.41009 0.3625 3.2758 0.50745 4.952l0.12756 1.4751 9.6e-4 3.2231-0.24736 1.4185-0.253 0.61353c-0.84129 2.0402-2.3323 3.8766-6.5904 8.1171l-2.9323 2.9202 1.2766 2.1794c0.70216 1.1986 1.6794 2.9759 2.1717 3.9494l0.89507 1.7701 0.269 0.81579c0.14794 0.44868 0.31043 1.1125 0.36109 1.4751l0.0921 0.65929-0.0552 0.71646c-0.20114 2.6107-1.2718 6.073-3.7008 11.967l-0.4682 1.1362 0.1024 0.0588c0.26576 0.15258 4.3353 3.1258 5.123 3.7428 1.2865 1.0078 2.4639 2.0766 2.9889 2.7131 1.3678 1.6583 2.045 4.1813 2.4384 9.0853 0.14898 1.8569 0.29908 4.804 0.29908 5.8724 0 0.40778 0.0201 0.74142 0.0447 0.74142s1.2099 0.24814 2.6341 0.55142c6.4667 1.3771 8.2255 2.0676 9.8342 3.861 1.6024 1.7864 3.0063 4.0654 5.3819 8.7368 0.74262 1.4603 1.3619 2.6697 1.3761 2.6875 0.0143 0.0178 1.3642-0.23723 2.9999-0.56671s3.524-0.68166 4.1962-0.78264l1.2222-0.18359 2.8659-0.016 0.52639 0.14566c2.5444 0.70403 5.9312 2.9369 11.438 7.5408 0.46076 0.38523 0.85216 0.70042 0.86977 0.70042 0.0176 0 0.87336-0.60193 1.9017-1.3376zm3.1008-18.395c-0.2964-0.0451-0.75985-0.15649-1.0299-0.24747l-0.491-0.1654h-2.5976l-0.61416 0.1387-0.61416 0.13869-0.80804-0.13457c-0.44442-0.074-0.97479-0.15966-1.1786-0.19033l-0.37058-0.0558-0.87918 0.29884-0.15917-0.0689c-0.0875-0.0379-0.37625-0.0595-0.64157-0.048l-0.4824 0.0209-0.52908-0.16996c-0.29099-0.0935-0.87045-0.21374-1.2877-0.26724-0.41724-0.0535-1.0241-0.13267-1.3486-0.17591l-0.59003-0.0786-0.92158-0.46402-0.25567-0.41435-0.25568-0.41434 0.012-1.276 0.17268-0.38519c0.095-0.21186 0.3181-0.52642 0.49583-0.69903l0.32314-0.31384 0.59443-0.28376c0.32694-0.15607 0.96454-0.423 1.4169-0.59319 0.45236-0.17018 1.0013-0.42963 1.2198-0.57657l0.39732-0.26715 0.59442-0.69155c0.73133-0.85084 1.3279-1.8237 1.6232-2.6468l0.22358-0.62326 8e-3 -1.8544-0.15991-0.48739-0.1599-0.48738 0.0968-0.69268c0.13275-0.94996 0.12018-2.8101-0.0326-4.8229l-0.12794-1.6858 0.0838-3.793 0.17597-0.88505c0.0968-0.48677 0.17797-1.1198 0.18041-1.4068l4e-3 -0.52175-0.14411-0.45814-0.1441-0.45814 0.0911-0.57947c0.0501-0.31872 0.1369-1.2542 0.19294-2.0788l0.1019-1.4993-0.10188-3.0524c-0.056-1.6788-0.10123-3.9711-0.10043-5.0939l1e-3 -2.0415-0.14552-0.90867-0.14551-0.90867 2e-3 -4.9731 0.32222-4.0459 8e-3 -4.8888-0.18966-0.35487-0.18965-0.35488 4e-3 -1.2289 0.16425-0.71646c0.0903-0.39406 0.16523-0.9076 0.16642-1.1412l2e-3 -0.42475-0.4258-1.3032c-0.23418-0.71676-0.59172-1.6446-0.79452-2.0618l-0.36873-0.75861-0.40987-0.50574-0.40986-0.50574-2.6736-0.53461-0.5986-0.29865c-0.32922-0.16426-0.73434-0.42488-0.90026-0.57916l-0.30167-0.28051-0.15328-0.73044-0.15329-0.73045 0.0938-1.24 0.26308-0.62964 0.53427-0.24225c0.29385-0.13324 0.77863-0.31104 1.0773-0.39511l0.54301-0.15287 3.2873 8e-3 1.6858 0.26675c3.0292 0.47931 2.9597 0.47608 10.073 0.46869l3.0766-3e-3 2.9923-0.26726c1.6458-0.14699 3.9148-0.31189 5.0424-0.36645l2.0501-0.0992 1.7429 0.10501c0.9586 0.0577 2.1919 0.17114 2.7406 0.25198l0.99766 0.14699 0.47742-0.0598c0.26258-0.0329 1.236-0.063 2.1632-0.0669 0.92719-4e-3 2.103-0.0463 2.613-0.0942l0.92719-0.087 1.6705-0.43865 0.38698 0.0959c0.21284 0.0527 0.59003 0.15156 0.83821 0.2196l0.45123 0.1237 0.27806-0.11617c0.15293-0.0639 0.3623-0.23013 0.46527-0.3694l0.18721-0.25322 0.34785 0.12347c0.19132 0.0679 0.84095 0.19844 1.4436 0.29006 1.2962 0.19704 1.7662 0.33849 2.222 0.66864l0.33761 0.24456 0.21636 0.36919 0.21636 0.36919v0.40427c0 0.22234-0.04593 0.56039-0.10207 0.7512l-0.10207 0.34694-0.4695 0.4636-0.46949 0.46359-0.75601 0.45698c-0.4158 0.25134-1.0231 0.65708-1.3496 0.90164l-0.5936 0.44465-0.51395 0.72543-0.14191 2.3601c-0.07805 1.2981-0.14098 2.8673-0.13984 3.4872l0.0021 1.1271 0.13204 0.88921c0.16292 1.0972 0.42558 1.942 0.82696 2.6597 0.35162 0.62876 1.0576 1.4368 1.4184 1.6234 0.13508 0.0698 0.83136 0.27384 1.5473 0.45332 2.3327 0.58477 2.9871 1.0547 2.9871 2.1448v0.37885l-0.17334 0.4633c-0.09534 0.25482-0.23758 0.54222-0.31609 0.63868l-0.14274 0.17539-0.75861 0.12292c-1.3922 0.22559-3.6895 0.45431-5.5631 0.55386l-1.8544 0.0985-3.498-0.0493c-1.9239-0.0271-4.7034-0.11262-6.1765-0.19l-2.6785-0.1407-0.54473-0.34852c-0.2996-0.19168-0.71296-0.45394-0.91858-0.5828l-0.37385-0.23429-0.34979-0.72256v-0.60596l0.34218-0.43288c0.58032-0.73417 1.7873-1.5043 3.2983-2.1045l0.47957-0.19049 0.04629-0.43481c0.02546-0.23914 0.10955-1.7131 0.18688-3.2754l0.14059-2.8406-0.24377-0.32027c-0.75356-0.99005-1.1296-1.2526-2.2692-1.5847-1.638-0.4773-3.1429-0.55388-6.4472-0.32805l-1.9818 0.13543-3.5402-0.0812-0.27599 0.16618c-0.30535 0.18386-0.42939 0.38889-0.65164 1.0771-0.0823 0.25498-0.21708 0.55984-0.29941 0.67746l-0.14969 0.21387 0.1729 0.5026 0.1729 0.50259 0.0647 1.6437 0.0647 1.6436 0.14305 0.4636c0.0787 0.25497 0.27759 0.77467 0.44203 1.1549l0.29898 0.69129-0.5221 0.59464-0.0571 0.30432c-0.069 0.36769-0.0122 1.1254 0.1733 2.3123l0.13832 0.88505-0.0567 0.41252c-0.0312 0.22689-0.14407 0.58723-0.25084 0.80076-0.28914 0.57825-0.45208 1.3088-0.54064 2.4239l-0.0793 0.99876 0.0273 2.978 0.0273 2.978 0.28392 0.29578c0.32651 0.34013 0.91732 0.66372 1.4167 0.77593l0.34512 0.0776 0.8822-0.34372 1.7965-0.0814 2.7551 0.29334 0.54789-0.0512c0.84368-0.0789 1.7462-0.29043 2.1824-0.51146l0.39523-0.20028 0.34886-0.37847c0.56121-0.60884 0.79399-1.1467 1.3749-3.1768 0.19236-0.67221 0.47376-1.4877 0.62533-1.8122l0.27558-0.59003 1.1372-1.3215 0.77385-0.49076h0.92679l0.87193 0.90022 0.27498 0.70888c0.15124 0.38988 0.36944 1.164 0.48489 1.7204l0.20991 1.0115 0.0111 1.1379 0.0111 1.1379-0.19938 1.6437-0.19938 1.6436 0.09078 3.7088 0.17416 1.1379c0.09579 0.62585 0.25109 1.5182 0.34511 1.983l0.17095 0.8451-0.17008 0.35202c-0.09354 0.19361-0.21333 0.55295-0.2662 0.79855l-0.09612 0.44653 0.07409 1.3908c0.04075 0.76493 0.06958 1.6803 0.06407 2.0342l-0.01002 0.64336-0.29222 0.87978-0.73324 0.76526-0.80689-0.1072-1.2587-0.61802-0.72351-0.72393c-0.39793-0.39815-1.0904-1.198-1.5387-1.7775l-0.81521-1.0536-0.0024-0.38267c-0.0052-0.82069-0.36267-1.7462-1.0124-2.6212l-0.35284-0.47513-0.43543-0.24109-0.43543-0.2411-2.2758-0.0554-1.3486 0.31462-1.3486 0.31461-1.9387 2e-3 -0.72098-0.276-0.22954 0.087c-0.5075 0.19226-0.80231 0.6301-1.113 1.653l-0.18402 0.60584 0.091 0.74178c0.12733 1.0382 0.11323 2.953-0.0375 5.0966l-0.12843 1.8262 0.021 1.3347c0.0115 0.73408-0.0106 1.8468-0.0493 2.4726l-0.0703 1.1379 0.17929 1.6102c0.0986 0.88563 0.20027 2.0236 0.22592 2.5287l0.0466 0.91845-0.0719 0.63218-0.0719 0.63217 0.39029 0.60615 0.0865 0.53982c0.10764 0.67201 0.2256 0.85504 0.77685 1.2054 0.65503 0.41629 1.4199 0.69212 3.0748 1.1089 1.9194 0.48338 2.6621 0.73301 3.2742 1.1005 0.63392 0.38059 0.8871 0.62519 1.1532 1.114l0.21468 0.39443 0.0942 0.5477 0.0942 0.54769-0.16902 1.1771-0.15109 0.11208c-0.0831 0.0616-0.2554 0.13344-0.38289 0.15954-0.12748 0.0261-0.23179 0.0767-0.23179 0.11241 0 0.0357-0.19031 0.18709-0.42291 0.33635l-0.42291 0.27138-3.2422-0.0608-1.0115 0.30813-3.9616 0.1414-0.7945 0.12903c-0.43697 0.071-1.1387 0.14737-1.5594 0.16978l-0.76487 0.0407zm-30.733-5.8759c-0.32976-0.20377-0.752-0.68886-0.98794-1.135l-0.18821-0.35589-2.8e-4 -0.63217-2.8e-4 -0.63218 0.14216-0.26266 0.14217-0.26266-0.52314 0.21727-0.52315 0.21727-2.1421 0.0654-0.69903-0.14096c-0.79136-0.15959-1.28-0.3539-1.7049-0.67795l-0.29217-0.22285-0.17283-0.357c-0.0951-0.19636-0.17282-0.45882-0.17282-0.58327v-0.22625h-0.56474l-0.32873-0.2412c-0.49879-0.36597-1.4203-1.3602-1.6125-1.7396-0.0939-0.18543-0.19649-0.4565-0.22796-0.60237l-0.0572-0.26521 0.12692-0.30374c0.0698-0.16706 0.17091-0.30375 0.22468-0.30375 0.0538 0 0.57704 0.23706 1.1628 0.52681l1.065 0.52681 2.0239-0.014 0.71647-0.2347c1.0985-0.35986 2.361-1.0229 7.037-3.6956 3.8114-2.1785 5.9872-3.0411 8.2442-3.2682l0.87171-0.0877 0.8672 0.089c1.5008 0.154 2.5028 0.51415 3.2112 1.1542l0.33385 0.30162 0.49888 1.0355 0.109 0.94394-0.276 1.079-0.22836 0.33088c-0.1256 0.18199-0.39234 0.43507-0.59276 0.56241l-0.36441 0.23152-1.1884 0.21238-1.0955-0.1876-0.38755-0.2396-0.38754-0.23961-0.25548-0.36349-0.25548-0.3635v-0.9846l0.17651-0.23798c0.0971-0.13089 0.32466-0.32491 0.50574-0.43116l0.32923-0.19318 0.79365 0.066 0.29935 0.22833c0.3108 0.23706 0.53651 0.61037 0.71821 1.1879 0.12721 0.40433 0.39294 0.71646 0.60993 0.71646 0.26153 0 0.61622-0.22618 0.72333-0.46124 0.0554-0.12155 0.10032-0.41836 0.0999-0.65957l-8.2e-4 -0.43855-0.3955-0.84932-0.80026-0.70442-0.95199-0.38493-2.613 0.00168-0.63217 0.19655c-0.3477 0.10811-0.88737 0.33009-1.1993 0.49329l-0.56709 0.29673-1.086 0.99514-0.35132 0.55629c-0.19323 0.30596-0.44281 0.79934-0.55463 1.0964l-0.2033 0.54012v0.85572l0.14111 0.29737 0.14112 0.29738 0.34355 0.15603 0.34356 0.15604 0.71646 4e-3v0.19116c0 0.10513-0.0925 0.3273-0.20558 0.49369l-0.20558 0.30253-0.64246 0.31648-0.50574 1e-3c-0.27816 7.3e-4 -0.62475-0.0292-0.7702-0.0665l-0.26446-0.0678-0.0349 0.91074-0.0349 0.91073-0.22016 0.42529c-0.45793 0.88458-1.2782 1.4788-2.55 1.8474-0.41519 0.12032-0.91073 0.31009-1.1012 0.42172l-0.34633 0.20297-0.46922 0.67708-0.109 0.89294-0.21072 0.0228-0.21073 0.0228zm-8.8504-16.748-0.33716-0.11922-0.26779-0.29057-0.26778-0.29058-0.09-0.32404c-0.0495-0.17823-0.0902-0.48254-0.0905-0.67626l-4.7e-4 -0.35221 0.13523-0.13523c0.25439-0.25439 0.77658-0.46236 1.7905-0.71313 0.5578-0.13795 1.1634-0.32696 1.3458-0.42002 0.39603-0.20204 0.77161-0.62432 0.78129-0.87845 0.0392-1.0277 0.0695-1.3408 0.16717-1.7249l0.1134-0.44592-0.14491-0.27054-0.14492-0.27055 0.0851-3.4138c0.1516-6.0778 0.22627-11.344 0.21092-14.877l-0.015-3.4559-0.10296-0.75861c-0.0566-0.41724-0.11796-1.2246-0.13629-1.7942-0.0183-0.56957-0.0566-1.0732-0.0849-1.1191-0.0284-0.0459-0.34271-0.22912-0.69849-0.40707l-0.64687-0.32355-0.37931-0.056c-0.20862-0.0308-0.52926-0.14045-0.71254-0.24363l-0.33324-0.1876-0.27787-0.36431-0.27786-0.3643v-0.25465c0-0.35684 0.2144-0.76885 0.58956-1.133l0.32028-0.31084 4.3869 5e-3c2.4128 3e-3 4.4215 0.0263 4.4638 0.0524 0.0423 0.0262 0.4902-7e-3 0.99529-0.0747l0.91833-0.12221 1.1379 2.4e-4c0.62586 1.3e-4 1.8207 0.0468 2.6551 0.10371 1.5856 0.10815 3.2648 0.12175 4.5516 0.0369 0.41724-0.0275 1.344-0.0719 2.0596-0.0986 0.71554-0.0267 1.3209-0.0685 1.3453-0.0929 0.0697-0.0697 2.289 0.054 2.664 0.14848l0.33716 0.085 0.31609 0.33195 0.31608 0.33196v0.18842c0 0.36696-0.62966 1.0915-1.3714 1.578l-0.48635 0.319-0.85996 0.2204-0.22052 0.3422 2.2e-4 0.92719c1.2e-4 0.50995 0.017 1.9134 0.0375 3.1187l0.0373 2.1915-0.11726 1.2222-0.11725 1.2222 0.0738 0.0281c0.0957 0.0365 0.0931 0.52723-4e-3 0.68003l-0.0748 0.11809 0.11754 0.33315c0.0647 0.18323 0.15792 0.68008 0.20728 1.1041 0.0494 0.42403 0.12878 0.8952 0.17649 1.047 0.12302 0.39153 0.47256 0.77595 0.86952 0.95626l0.34065 0.15473 1.113 4e-3 0.27785 0.18965c0.15281 0.10431 0.34807 0.32182 0.43391 0.48335l0.15607 0.2937v1.0178l-0.52279 0.63424-0.86799 0.45425-2.4444-0.0292c-1.3444-0.0161-3.8115-0.0342-5.4824-0.0404l-3.038-0.0112-0.47966 0.31416-0.48043-0.0544c-0.65811-0.0745-3.0916-0.0764-3.5819-3e-3l-0.39974 0.06-0.15772 0.34731-0.15771 0.34731-2e-3 0.39296c-1e-3 0.21613 0.055 0.69026 0.12457 1.0536 0.16218 0.84756 0.15969 1.3529-0.01 1.9971l-0.13629 0.51791 0.10358 1.1801 0.10357 1.1801-0.1816 3.3143 0.1684 1.4817 0.22492 0.50119 0.22493 0.5012 0.68243 0.29665 1.3486 0.0941c0.74175 0.0517 1.6142 0.13526 1.9387 0.1856l0.59003 0.0915 0.37672 0.34606 0.05 0.26625 0.0499 0.26625-0.11188 0.45743-0.11187 0.45743-0.31114 0.14622c-0.55966 0.26301-1.4859 0.47505-2.5354 0.58043l-1.0308 0.10351-4.8382-0.21638-0.78012 0.37765-0.62567-0.0528c-0.34412-0.029-0.90086-0.0762-1.2372-0.10472l-0.61152-0.0519-0.65192 0.27239-2.1288-8e-3zm13.318-20.732 0.75861-0.11171 1.0115 0.125 1.2428-0.1368 0.20417-0.13378c0.1123-0.0736 0.24203-0.23333 0.28829-0.35501l0.0841-0.22123-0.1138-1.7995 0.1578-0.28208-0.0769-0.5681-0.0769-0.56809 0.0762-2.2325 0.0762-2.2325-0.11335-0.28131-0.11336-0.28131 0.16-0.196-0.10978-0.57999-0.10979-0.58-0.11355-0.072c-0.0625-0.0396-0.3269-0.0725-0.58766-0.0733-0.26075-7.1e-4 -0.93967-0.0804-1.5087-0.17701l-1.0346-0.17572-0.63181 0.2849-0.32479-0.0543-0.32478-0.0543-1.2594 0.1798-0.43986 0.20138-0.43987 0.20137-0.0862 0.32311c-0.0474 0.1777-0.13027 0.60758-0.18417 0.95527l-0.098 0.63218 0.0932 1.5172 0.14938 0.39695 0.14937 0.39696-0.15364 2.0896-0.15365 2.0896 0.0628 1.6574 0.31383 0.22931 0.41796-3e-3c0.22987-2e-3 0.44373 0.0226 0.47525 0.0542 0.0717 0.0719 1.3292-0.0169 2.3331-0.16473zm43.547 67.829 0.11568-0.14751-0.14751 0.11568c-0.1404 0.11012-0.18506 0.17933-0.11568 0.17933 0.0175 0 0.08388-0.0664 0.14751-0.1475zm-3.1187-1.0115 0.11568-0.14751-0.14751 0.11568c-0.1404 0.11012-0.18506 0.17933-0.11568 0.17933 0.0175 0 0.08388-0.0664 0.14751-0.1475zm-29.619-1.7578c-0.028-0.028-0.10071-0.031-0.16156-7e-3l-0.11063 0.0443 0.16156 7e-3c0.0889 4e-3 0.13864-0.0163 0.11063-0.0443zm-19.847-2.4488c-0.0571-0.0231-0.17086-0.0245-0.25287-3e-3l-0.14912 0.0389 0.25287 3e-3c0.13908 2e-3 0.20618-0.0158 0.14912-0.0389zm-4.26-8.7618c-0.028-0.028-0.10071-0.031-0.16155-7e-3l-0.11063 0.0443 0.16155 7e-3c0.0889 4e-3 0.13864-0.0163 0.11063-0.0443zm99.204-21.127-0.04252-0.10537v0.42145l0.04252-0.10536c0.02338-0.058 0.02338-0.15278 0-0.21072zm5.2298-3.5392-0.03666-0.19063-0.0017 0.33716c-9.35e-4 0.18543 0.01556 0.27122 0.03666 0.19063 0.0211-0.0806 0.02186-0.23231 0.0017-0.33716zm-133.1-39.612-0.0443-0.11063-7e-3 0.16156c-4e-3 0.0889 0.0163 0.13863 0.0443 0.11063s0.031-0.10071 7e-3 -0.16156zm2.1898-2.3654-0.0425-0.10536v0.42145l0.0425-0.10536c0.0234-0.0579 0.0234-0.15278 0-0.21073zm9.9488-8.301-0.0388-0.14911-3e-3 0.25287c-2e-3 0.13908 0.0158 0.20618 0.0389 0.14911 0.0231-0.0571 0.0245-0.17086 3e-3 -0.25287zm33.921-32.622 0.11568-0.14751-0.1475 0.11568c-0.14041 0.11012-0.18506 0.17933-0.11569 0.17933 0.0175 0 0.0839-0.0664 0.14751-0.1475zm40.426-9.4282c-0.02801-0.028-0.10071-0.031-0.16156-7e-3l-0.11063 0.0443 0.16156 7e-3c0.08886 4e-3 0.13864-0.0163 0.11063-0.0443z" fill="#fff"/></svg>
