<?xml version="1.0" encoding="UTF-8" standalone="no"?>
<!-- Created with Inkscape (http://www.inkscape.org/) -->

<svg
   width="486.36554mm"
   height="478.90936mm"
   viewBox="0 0 486.36554 478.90936"
   version="1.1"
   id="svg1"
   xml:space="preserve"
   xmlns="http://www.w3.org/2000/svg"
   xmlns:svg="http://www.w3.org/2000/svg"><defs
     id="defs1" /><g
     id="layer1"
     transform="translate(-336.56175,345.56702)"><path
       class="logo-face"
       d="m 488.71742,122.02646 c -24.3558,-6.04701 -45.85925,-11.85834 -47.78543,-12.91414 -5.30184,-2.90604 -28.69093,-28.481223 -42.3852,-46.346728 -38.24578,-49.895469 -58.33563,-99.806126 -61.04293,-151.653463 l -0.94211,-18.041369 1.97782,-17.00057 c 7.42422,-63.81619 35.25506,-100.459 91.57028,-120.5641 25.38128,-9.06135 75.26572,-15.78677 117.09532,-15.78677 h 21.05818 l -0.0124,-2.05015 c -0.006,-1.12758 -1.11431,-10.87874 -2.46021,-21.66927 -1.3459,-10.79053 -2.44708,-23.80757 -2.44708,-28.9268 v -9.30769 l 5.33043,-7.88245 5.33036,-7.88244 7.22852,-3.7838 7.22846,-3.78374 h 7.94264 c 4.36848,0 7.94152,0.18472 7.94022,0.40974 -10e-4,0.22564 -2.94689,24.39684 -6.54553,53.71405 -3.5987,29.31714 -6.54981,55.35185 -6.55805,57.8549 l -0.0124,4.55092 -4.23719,1.61096 -4.23713,1.61097 -5.19355,-1.33629 -5.19355,-1.3363 -0.48041,-4.82558 c -0.26408,-2.65412 -0.75559,-5.6462 -1.09169,-6.64918 l -0.61121,-1.82359 -9.5691,1.46096 c -13.10718,2.00106 -23.93143,5.72721 -28.20618,9.70975 l -3.57732,3.33277 1.03708,1.6781 c 1.70866,2.76464 14.0967,7.44517 27.73711,10.4799 l 12.82004,2.85217 16.55202,-0.85396 16.55203,-0.85396 13.121,-4.41292 c 7.2165,-2.42705 19.39446,-8.0024 27.06199,-12.3896 7.66759,-4.3872 18.73843,-9.60672 24.60183,-11.59892 l 10.66079,-3.62214 18.07255,-0.76971 18.07254,-0.76972 10.62961,2.65381 c 13.93442,3.47888 37.75476,15.36376 49.5691,24.73195 25.45338,20.18327 40.64617,51.70139 45.64408,94.69055 l 1.96455,16.8978 -0.89499,19.681471 c -0.49219,10.824808 -2.12052,25.585934 -3.61829,32.802432 -8.46074,40.764755 -30.8399,86.090466 -61.45547,124.468959 -13.39747,16.794585 -34.08812,38.415438 -39.38283,41.153488 -6.421,3.32037 -91.8904,23.81253 -99.28951,23.80559 l -6.55632,-0.006 -4.92037,-3.09343 c -2.70618,-1.70135 -9.71775,-7.22381 -15.58115,-12.27206 -5.86347,-5.04825 -11.03526,-9.18886 -11.49292,-9.20138 -0.45748,-0.0124 -5.62407,4.15827 -11.4809,9.26833 -5.85677,5.11011 -12.86288,10.64274 -15.56907,12.29481 l -4.92036,3.00373 -7.38059,-0.15745 -7.38052,-0.15745 z m 84.39352,-55.885636 c 3.49636,-1.78373 7.93576,-5.460228 9.86528,-8.17001 l 3.50833,-4.926938 -5.30222,-3.224476 -5.30216,-3.224413 -5.5056,4.834016 -5.50561,4.833955 h -5.76478 c -3.17067,0 -8.00047,-1.156092 -10.73294,-2.569129 l -4.96816,-2.569067 -2.46375,-5.89663 -2.46374,-5.89663 0.99269,-5.291495 0.99269,-5.291495 4.24425,-4.244255 4.24432,-4.244316 5.58389,-1.04755 5.58396,-1.04755 4.95837,2.053815 c 2.72707,1.129624 5.94355,3.460405 7.14769,5.179481 l 2.18932,3.125727 5.94597,-2.835433 c 3.27029,-1.559516 5.94598,-3.287022 5.94598,-3.838971 0,-0.551701 -2.80977,-3.747104 -6.24389,-7.100455 L 573.817,8.6520273 568.18078,7.0356052 C 551.86983,2.3577384 535.36914,9.5372905 528.70304,24.212724 l -3.0108,6.628347 v 6.560469 6.560531 l 3.02785,6.560469 c 3.3071,7.165604 8.14974,12.123351 15.76147,16.136139 l 4.92037,2.593925 8.67597,0.06571 8.67602,0.06571 z m 54.35322,-3.401082 c 1.71808,-0.919481 3.12386,-2.629134 3.12386,-3.799174 v -2.127397 l -9.43074,0.630303 c -5.18685,0.346518 -11.07003,0.96963 -13.07364,1.384398 l -3.6429,0.754095 -1.88086,3.514335 -1.88081,3.514398 11.83058,-1.099559 c 6.50685,-0.605011 13.23636,-1.851856 14.95451,-2.771399 z m 1.84057,-21.102502 4.5635,-5.107512 v -6.660767 -6.660767 l -4.79416,-4.79422 -4.79422,-4.794158 -4.63652,-0.189066 c -7.50623,-0.305605 -10.96342,0.212002 -15.02716,2.25125 -4.32726,2.171285 -8.47072,9.185202 -8.47072,14.338834 0,5.357575 4.50796,12.782293 9.45132,15.566523 l 4.48967,2.528775 7.3274,-0.685783 7.32733,-0.685783 z m -19.71029,-5.383734 c -1.08252,-1.082512 -1.96815,-4.008759 -1.96815,-6.50282 v -4.53461 l 3.34219,-1.788689 3.34219,-1.788689 3.22002,1.02201 c 1.77102,0.562239 4.00981,2.497594 4.97504,4.301099 l 1.7549,3.279149 -2.61456,3.990348 -2.61457,3.990349 h -3.73446 c -2.05394,0 -4.62015,-0.885697 -5.7026,-1.968147 z m -163.93022,-54.598504 2.87021,-1.188636 v -10.655207 -10.655206 l -5.77054,5.066537 c -3.17377,2.786648 -7.64664,5.537466 -9.93979,6.113033 -5.90755,1.482712 -16.48062,-0.2213 -21.40836,-3.449867 l -4.19119,-2.746169 -3.28331,-7.422487 -3.2833,-7.422424 0.60811,-14.170844 0.60811,-14.170869 3.00324,-6.124625 3.00318,-6.124625 5.34939,-3.306053 5.34939,-3.306115 h 9.18 9.18005 l 5.79751,5.090279 5.79751,5.090278 v -10.730213 -10.730209 l -7.79057,-1.33059 c -4.28486,-0.73185 -13.05654,-1.20315 -19.49259,-1.04743 l -11.70202,0.28329 -8.46086,3.63974 -8.46086,3.63974 -5.72963,6.693865 -5.72963,6.693808 -2.58835,8.903524 -2.58835,8.90355 0.71505,14.102222 0.71498,14.102222 3.42383,6.560469 c 1.8831,3.608249 5.66572,8.690097 8.40588,11.292886 l 4.9821,4.732417 8.69915,3.109611 8.69909,3.109672 15.58115,-0.678407 c 8.56965,-0.373173 16.87281,-1.213308 18.45142,-1.867105 z m 49.20107,-4.117921 c -0.67512,-3.157218 -1.2275,-22.715701 -1.2275,-43.463255 v -37.722796 l 2.10787,-3.69026 2.10787,-3.69033 h -15.74939 -15.74945 l 1.34063,3.69033 1.34063,3.69026 v 39.36296 c 0,21.649616 -0.52132,41.208037 -1.15845,43.463255 l -1.15838,4.100254 h 14.68678 14.68684 z m 81.68411,3.060887 6.66914,-1.99815 7.09469,-6.244945 7.09469,-6.245008 2.81714,-6.997305 2.81715,-6.997366 0.86375,-12.382527 0.86382,-12.382527 -2.82508,-9.717959 -2.82508,-9.717935 -6.83019,-6.830182 -6.83018,-6.830184 -8.89565,-2.64172 -8.89559,-2.64172 h -25.18193 -25.18193 l 1.99722,3.69033 1.99716,3.69026 -0.0186,39.36296 -0.0186,39.362938 -1.93592,3.611597 -1.93597,3.611596 10.26641,0.693345 c 15.88924,1.07309 41.50658,-0.182247 48.89466,-2.395498 z M 545.30162,-63.12595 v -34.561553 l 3.09163,-0.981222 c 4.02568,-1.277715 15.55846,1.347205 20.68922,4.709047 2.21815,1.453392 5.33997,5.034241 6.93736,7.957451 l 2.90431,5.314926 v 16.401291 16.401204 l -3.28021,5.569019 c -1.80418,3.062932 -5.16882,6.976476 -7.4771,8.696729 l -4.19677,3.127835 -9.33422,0.96337 -9.33422,0.963369 z m 135.20555,45.223119 c 0.35768,-1.154915 1.09708,-6.422544 1.64265,-11.705794 l 0.99194,-9.605859 -5.0811,4.275497 -5.08117,4.275497 h -12.9951 -12.99516 v -13.121 -13.121 h 11.1159 11.11591 l 3.6452,2.553198 3.64519,2.553198 V -63.372976 -74.94682 h -1.31212 c -0.72161,0 -2.02933,0.717211 -2.90597,1.593858 -0.87665,0.876671 -6.92869,2.089732 -13.44899,2.695735 l -11.85512,1.10179 v -14.176571 -14.176547 l 11.07084,0.0124 11.07078,0.0124 4.69783,2.450049 c 2.58382,1.347576 4.98248,2.45011 5.33042,2.45011 0.34776,0 0.6326,-4.059279 0.6326,-9.020684 v -9.02069 H 650.31047 620.8293 l 1.18907,5.33043 c 1.59795,7.163312 1.52257,75.927104 -0.0917,83.519564 l -1.28063,6.02377 29.60514,0.176668 29.60509,0.176668 z m 48.53407,-3.619345 -1.68603,-4.434498 V -41.431082 -56.90549 h 2.37671 c 2.91993,0 8.33434,7.202178 16.22633,21.583846 3.2967,6.007652 8.26591,12.834673 11.04264,15.171096 l 5.04856,4.24816 h 7.94065 c 4.36737,0 9.02813,-0.417185 10.35723,-0.927353 l 2.41657,-0.927354 -3.78993,-4.089406 c -2.0845,-2.249205 -6.81835,-9.910349 -10.5197,-17.024812 l -6.7297,-12.935344 -5.80439,-4.784425 -5.80439,-4.784488 5.1747,-1.034967 5.17471,-1.034904 5.45732,-5.457315 5.45731,-5.45734 1.13192,-6.033811 c 0.62255,-3.318575 0.62652,-8.728034 0.006,-12.021008 l -1.12318,-5.987196 -4.51899,-4.518989 -4.51899,-4.51893 -6.43122,-1.78559 -6.43122,-1.78565 -24.36727,-0.006 -24.36734,-0.006 1.4056,2.87021 1.40554,2.87021 0.46801,39.24655 0.46802,39.246461 -1.59119,4.56449 -1.59119,4.564489 14.24405,0.472355 c 7.83421,0.259733 14.44917,0.38991 14.69998,0.289488 0.25105,-0.100422 -0.30313,-2.178103 -1.23011,-4.617118 z m -1.68603,-62.445328 v -15.581153 h 6.46903 6.46904 l 4.46512,3.840707 4.46512,3.840769 v 7.899677 7.899677 l -4.46512,3.840794 -4.46512,3.840707 h -6.46904 -6.46903 z m -256.61339,-52.914826 -1.04265,-6.1713 4.92477,-1.85892 4.92477,-1.85886 1.10935,-4.41993 1.10929,-4.41994 -3.33345,-3.33345 -3.33351,-3.33351 -8.41704,2.01922 -8.4171,2.01923 0.78168,2.6936 c 0.42959,1.48141 2.0209,7.12184 3.53554,12.53428 3.33853,11.92994 3.54043,12.30089 6.69343,12.30089 h 2.50758 z m -4.16608,-15.03621 v -3.39432 h 4.22057 4.22058 l -0.54736,2.87021 -0.54675,2.87027 -3.67352,0.52381 -3.67352,0.52442 z m 232.10298,12.4726 c 2.89587,-4.13447 3.11047,-9.30875 0.61307,-14.78949 -2.15207,-4.72325 -6.9983,-7.60133 -13.63675,-8.0986 l -4.79726,-0.35954 -3.19478,12.78279 c -1.75714,7.03059 -2.77258,13.20512 -2.25652,13.72118 0.51637,0.51575 3.37443,1.46139 6.35194,2.10068 l 5.41361,1.16235 4.53597,-1.52189 c 2.49481,-0.83703 5.63151,-3.08599 6.97053,-4.99767 z m -17.24692,-0.50521 c 0,-2.24747 3.90139,-14.6207 5.02079,-15.92339 l 1.18752,-1.38204 3.45631,1.84974 3.45638,1.84981 v 4.7455 4.7455 l -2.57738,2.57731 c -2.48656,2.48662 -10.54362,3.66156 -10.54362,1.53757 z m -168.80644,-3.75442 4.79422,-4.79422 v -5.17266 -5.17272 l -4.79422,-4.79422 -4.79422,-4.79416 h -5.17267 -5.17272 l -4.79422,4.79416 -4.79416,4.79422 v 5.17272 5.17266 l 4.79416,4.79422 4.79422,4.79422 h 5.17272 5.17267 z m -16.19937,-3.73446 c -2.53715,-2.53714 -2.53715,-9.92776 0,-12.46491 1.08251,-1.08245 3.88707,-1.96814 6.23248,-1.96814 2.34535,0 5.14998,0.88569 6.23243,1.96814 1.08251,1.08252 1.96814,3.88708 1.96814,6.23249 0,5.42018 -2.78038,8.20057 -8.20057,8.20057 -2.34541,0 -5.14997,-0.88563 -6.23248,-1.96815 z m 170.08211,-4.83066 2.04507,-13.35929 -2.09299,-1.29358 c -3.04396,-1.8813 -4.68735,-0.28391 -4.87332,4.73725 -0.0899,2.42742 -0.69842,6.25864 -1.35228,8.51386 l -1.1887,4.10032 -5.23186,-10.25079 c -2.87753,-5.63795 -5.52991,-10.2508 -5.89422,-10.2508 -0.36449,0 -1.75459,-0.41904 -3.08965,-0.93144 l -2.42736,-0.93144 -1.9289,12.00228 c -1.06094,6.60126 -2.29291,13.29389 -2.73768,14.8725 l -0.80877,2.87021 h 3.19949 3.1995 l 0.98891,-3.69026 c 0.54364,-2.02964 0.99907,-5.71996 1.01135,-8.20064 0.031,-6.25932 2.16768,-5.63212 5.58699,1.64011 1.59051,3.38279 3.95836,7.81109 5.26193,9.84073 l 2.37008,3.69032 h 2.95867 2.95866 z m -134.32742,2.69856 c 0,-3.15728 0.37937,-5.74048 0.84317,-5.74048 0.46368,0 2.89587,2.29737 5.40475,5.10528 l 4.56157,5.10528 3.03808,-0.5951 3.03814,-0.59509 -4.14464,-4.92192 -4.14464,-4.92191 2.26228,-2.11327 c 1.24424,-1.16229 2.26223,-3.81492 2.26223,-5.8947 v -3.78145 l -3.13453,-2.83674 -3.13453,-2.83673 -7.58565,1.13756 -7.58557,1.13756 0.97508,10.05558 c 0.5362,5.53065 1.31516,11.71627 1.73073,13.74591 l 0.75564,3.69033 h 2.42891 2.42898 z m -1.64017,-13.94105 v -3.28027 h 3.82695 c 4.66113,0 6.07051,1.22416 4.90524,4.26068 l -0.88247,2.29979 h -3.92489 -3.92483 z m 98.99587,15.17109 c -0.61245,-2.48067 -2.35093,-8.93867 -3.86265,-14.35104 l -2.74859,-9.84074 -3.5881,-0.52938 -3.58816,-0.52939 -5.70143,12.51097 c -6.63659,14.56311 -6.79888,15.60948 -2.42116,15.60948 h 3.28026 v -2.46015 -2.46022 h 5.89397 5.89396 l 0.85781,3.28027 0.8578,3.28027 h 3.12021 3.12021 z m -15.34962,-7.7134 c 0,-0.4085 0.86611,-2.6437 1.92463,-4.96692 l 1.92457,-4.22398 1.33053,2.09665 c 0.73184,1.15324 1.34187,3.38831 1.35569,4.96692 l 0.0248,2.87021 h -3.28027 c -1.80412,0 -3.28026,-0.33412 -3.28026,-0.74288 z m -47.56351,-1.71728 v -12.30095 h 3.2802 3.28027 v -2.46015 -2.46021 h -9.84074 -9.84073 v 3.28026 3.28027 h 3.28026 3.28021 v 6.35547 c 0,3.49549 0.46119,8.66189 1.02511,11.48084 l 1.02505,5.12536 h 2.25515 2.25522 z m 29.5222,9.02069 v -3.28027 h -4.10031 -4.10032 v -11.48083 -11.4809 h -3.28027 -3.2802 v 14.7611 14.7611 h 7.38052 7.38058 z m 17.34046,-103.13487 -1.17246,-1.89711 1.95761,-6.11842 c 1.07669,-3.36507 4.99699,-12.02281 8.7118,-19.23937 l 6.75418,-13.12094 10.67622,-10.80026 10.67628,-10.80019 9.84074,-4.68252 9.84073,-4.68252 15.94181,-0.69725 15.9418,-0.69719 11.12019,2.77277 c 6.11613,1.52505 15.54854,4.86792 20.96098,7.42856 l 9.84073,4.6558 -4.34362,0.14071 c -2.38899,0.0775 -10.87663,3.4252 -18.86142,7.43947 l -14.51779,7.29864 -14.76111,11.48269 c -22.49613,17.49983 -32.78839,24.21602 -42.91725,28.00571 l -9.24726,3.45985 -12.63488,0.97434 -12.63482,0.97434 z"
       id="logo-face" /></g></svg>
