<?xml version="1.0" encoding="UTF-8" standalone="no"?>
<!-- Created with Inkscape (http://www.inkscape.org/) -->

<svg
   width="157.16251mm"
   height="55.827099mm"
   viewBox="0 0 157.16251 55.827099"
   version="1.1"
   id="svg1"
   xml:space="preserve"
   xmlns="http://www.w3.org/2000/svg"
   xmlns:svg="http://www.w3.org/2000/svg"><defs
     id="defs1" /><g
     id="layer1"
     transform="translate(-32.39791,-179.14607)"><path
       class="logo-face"
       d="m 32.397919,232.20429 v -2.76887 l 2.711979,-0.0754 2.711979,-0.0754 0.06767,-21.89427 0.06767,-21.89428 H 35.177563 32.39791 v -2.91041 -2.91042 h 10.72954 c 12.089013,0 13.510725,0.15344 15.540666,1.6772 2.431124,1.82491 3.624804,5.94734 3.626703,12.52501 0.0018,6.27727 -0.66942,8.98548 -2.720381,10.97587 -0.974954,0.94616 -1.105357,1.54484 -0.336493,1.54484 0.42504,0 2.088796,1.80036 2.613862,2.82847 0.807105,1.58036 0.973186,3.5833 0.973186,11.73664 v 8.18906 h 2.513542 2.513541 v 2.91042 2.91041 H 61.89896 55.945835 l -0.0015,-11.31094 c -8.7e-4,-6.67042 -0.109255,-11.69892 -0.264181,-12.25662 -0.144488,-0.52013 -0.569877,-1.23451 -0.945309,-1.5875 -0.659975,-0.62054 -0.83541,-0.64473 -5.292069,-0.72981 l -4.609466,-0.088 v 12.98644 12.98644 h -6.217683 -6.217708 z m 21.810542,-30.02223 c 1.091346,-1.0264 1.270255,-2.27285 1.159799,-8.08025 -0.147187,-7.73854 -0.208794,-7.81199 -6.553035,-7.81199 h -3.98189 v 8.35219 8.35218 l 4.345069,-0.0839 c 4.183754,-0.0808 4.3705,-0.10787 5.030057,-0.72818 z m 21.906836,32.50928 c -2.997989,-0.52567 -4.944286,-1.97965 -5.936791,-4.4351 -0.598064,-1.4796 -0.607737,-1.6759 -0.68507,-13.90308 -0.06372,-10.07502 -0.01407,-12.37753 0.264584,-12.2703 0.377015,0.14507 4.388976,2.9937 5.606794,3.98101 l 0.765853,0.62089 -0.733902,2.36243 c -0.403647,1.29934 -1.25803,3.95857 -1.89863,5.90941 -0.6406,1.95085 -1.130414,3.64993 -1.088476,3.77574 0.04194,0.12581 0.870169,-0.369 1.840515,-1.09959 0.970345,-0.73058 1.832735,-1.32834 1.916421,-1.32834 0.08369,0 0.152157,1.90975 0.152157,4.24388 0,3.68901 0.06762,4.37642 0.517205,5.25768 0.294681,0.57762 0.778482,1.08379 1.12448,1.17647 0.808146,0.21647 8.635606,0.16575 9.446963,-0.0612 0.350684,-0.0981 0.866331,-0.48471 1.145883,-0.85914 0.440054,-0.58941 0.528367,-1.30259 0.657968,-5.31347 l 0.149694,-4.63269 1.722419,1.28754 c 0.947331,0.70814 1.762099,1.24785 1.810596,1.19936 0.07807,-0.0781 -0.672937,-2.64987 -2.679994,-9.17757 -0.335571,-1.09141 -0.652477,-2.15681 -0.704234,-2.36756 -0.08185,-0.33328 4.434572,-3.99547 5.935018,-4.81246 0.451552,-0.24587 0.469446,0.30684 0.396875,12.25866 l -0.076,12.51615 -0.632183,1.39903 c -0.368619,0.81576 -1.129304,1.83661 -1.82458,2.44862 -1.924544,1.69405 -3.014325,1.91506 -9.846362,1.99683 -3.274219,0.0392 -6.580461,-0.0387 -7.347205,-0.17318 z m 58.220103,-0.25232 c -1.39516,-0.62006 -3.41509,-2.61186 -3.96409,-3.90886 -1.25547,-2.9661 -1.22543,-2.41764 -1.33193,-24.33044 l -0.10059,-20.70365 h -2.36523 -2.36522 v -2.91041 -2.91042 h 5.8088 5.8088 l 0.0782,23.34948 c 0.0761,22.73886 0.092,23.37711 0.60735,24.40573 0.79749,1.59183 1.30865,1.74577 5.51972,1.66229 l 3.66764,-0.0727 0.73247,-0.87813 c 0.40286,-0.48296 0.80494,-1.3164 0.89351,-1.85208 0.0886,-0.53568 0.16235,-11.24534 0.16395,-23.79924 l 0.003,-22.82528 6.01927,0.0711 6.01928,0.0711 0.0751,2.84427 0.0751,2.84427 h -2.6443 -2.64429 l -0.0834,20.96823 c -0.0831,20.88627 -0.0856,20.97382 -0.66436,22.39897 -1.12653,2.77422 -2.60735,4.50303 -4.69719,5.48384 -1.27177,0.59687 -1.55817,0.62025 -7.40833,0.60477 -5.35767,-0.0142 -6.21907,-0.0755 -7.20313,-0.51287 z m 26.12085,-2.37627 v -2.91042 h 2.64583 2.64583 V 207.4565 185.76066 l -2.3151,-0.0314 c -1.27331,-0.0172 -2.46393,-0.012 -2.64583,0.0116 -0.24797,0.0322 -0.33073,-0.7214 -0.33073,-3.01136 v -3.05431 h 14.55208 14.55208 v 6.35 6.35 h -3.175 -3.175 v -3.43958 -3.43959 h -5.42395 -5.42396 v 8.59299 8.593 l 4.82864,0.0721 4.82865,0.0721 v 3.04271 3.0427 l -4.82865,0.0721 -4.82864,0.0721 v 9.91591 9.91591 h 5.41605 5.41605 l 0.074,-3.37344 0.0741,-3.37344 3.10885,-0.0745 3.10885,-0.0745 v 6.49068 6.49069 h -14.55208 -14.55208 z m -57.81146,1.74883 c -2.67304,-1.2674 -4.327108,-3.85475 -5.034698,-7.87546 -0.585835,-3.32887 -0.571216,-35.83628 0.01737,-38.63434 0.840159,-3.99398 2.684558,-6.53303 5.514918,-7.592 1.42878,-0.53458 1.97095,-0.56371 10.49254,-0.56371 h 8.98591 v 6.08542 6.08542 h -3.04271 -3.04271 v -3.175 -3.175 h -4.77099 c -5.40299,0 -6.27013,0.20078 -7.05154,1.6328 -0.44846,0.82185 -0.48596,2.06603 -0.56096,18.60783 -0.0833,18.38105 -0.0166,19.82281 1.01024,21.83562 0.72844,1.42787 1.32794,1.58 6.22633,1.58 h 4.35317 v -7.27604 -7.27604 h -2.51353 -2.51354 v -2.91042 -2.91041 h 5.95313 5.95312 v 13.09687 13.09688 l -9.32657,-0.003 c -9.26169,-0.003 -9.33576,-0.007 -10.64948,-0.62983 z M 76.318752,215.26551 c 0,-0.0707 0.535781,-1.69268 1.190625,-3.60449 0.654844,-1.9118 1.190625,-3.68974 1.190625,-3.95098 0,-0.26123 -0.386953,-0.71499 -0.859896,-1.00834 -0.472943,-0.29336 -1.981859,-1.37463 -3.353149,-2.40283 l -2.493253,-1.86946 h 4.248926 4.248925 l 1.273747,-3.83646 c 0.700561,-2.11005 1.346616,-3.83645 1.435678,-3.83645 0.08906,0 0.706344,1.69664 1.371736,3.77031 l 1.209804,3.77031 4.230593,0.13229 4.230593,0.13229 -3.378815,2.45783 -3.378815,2.45782 0.510073,1.64322 c 0.280541,0.90377 0.673502,2.23853 0.873249,2.96613 0.199746,0.72761 0.49699,1.66685 0.660542,2.08722 0.163552,0.42036 0.242626,0.81904 0.175721,0.88594 -0.123873,0.12388 -3.718325,-2.28306 -5.510861,-3.69021 -0.598226,-0.46961 -1.119718,-0.69549 -1.322917,-0.57301 -0.184483,0.1112 -1.655485,1.19109 -3.268895,2.39977 -2.736158,2.04977 -3.284236,2.39506 -3.284236,2.0691 z m -6.774855,-15.06256 c -0.07901,-0.20591 -0.09761,-3.5099 -0.04133,-7.3422 0.0832,-5.66506 0.187083,-7.22533 0.555625,-8.34519 0.663826,-2.01711 1.921716,-3.51093 3.739359,-4.4407 l 1.55711,-0.79649 h 7.427358 c 8.475667,0 8.537361,0.0131 10.754531,2.27642 0.922504,0.94172 1.347412,1.66951 1.785938,3.05899 0.53101,1.68251 0.575432,2.36906 0.575432,8.8934 v 7.07015 h -3.290781 -3.290781 l -0.08456,-6.68074 c -0.0636,-5.02515 -0.175129,-6.85787 -0.450045,-7.39558 -0.656846,-1.28471 -1.661339,-1.53452 -6.15299,-1.5302 -6.442529,0.006 -6.309022,-0.18548 -6.309603,9.05808 l -4.11e-4,6.54844 h -3.315596 c -2.614588,0 -3.34597,-0.0792 -3.459259,-0.37438 z"
       id="logo-face" /></g></svg>
