<?xml version="1.0" encoding="UTF-8" standalone="no"?>
<!-- Created with Inkscape (http://www.inkscape.org/) -->

<svg
   width="268.388mm"
   height="77.100517mm"
   viewBox="0 0 268.38801 77.100517"
   version="1.1"
   id="svg1"
   xml:space="preserve"
   xmlns="http://www.w3.org/2000/svg"
   xmlns:svg="http://www.w3.org/2000/svg"><defs
     id="defs1"><pattern
       id="EMFhbasepattern"
       patternUnits="userSpaceOnUse"
       width="6"
       height="6"
       x="0"
       y="0" /><pattern
       id="EMFhbasepattern-1"
       patternUnits="userSpaceOnUse"
       width="6"
       height="6"
       x="0"
       y="0" /></defs><g
     id="layer1"
     transform="translate(58.871773,-476.26128)"><path
       class="logo-face"
       d="m 38.749987,553.3506 c -0.029,-0.0291 -4.8112,-0.12776 -10.62719,-0.21925 -5.81598,-0.0915 -12.47952,-0.20764 -14.80785,-0.25812 -2.32833,-0.0505 -8.8767704,-0.0887 -14.5520804,-0.085 -12.4385396,0.008 -11.2945296,0.0369 -11.4954396,-0.28821 l -0.16597,-0.26854 -5.41409,0.15336 c -7.41927,0.21015 -7.42758,0.21012 -10.67253,-0.036 l -2.87719,-0.21819 -0.76995,-0.75266 c -0.42347,-0.41395 -0.87322,-0.75265 -0.99943,-0.75265 -0.12621,0 -0.47297,-0.38457 -0.77057,-0.85459 l -0.54109,-0.8546 0.40601,-0.44863 0.40601,-0.44864 -0.0996,-0.48271 -0.0996,-0.4827 -0.84964,0.0672 -0.84963,0.0671 v -0.48246 -0.48246 l 0.67836,-0.58983 0.67837,-0.58983 -0.0863,-0.44805 c -0.0475,-0.24644 -0.41225,-0.60429 -0.81066,-0.79524 l -0.72436,-0.34718 v -0.41942 c 0,-0.23068 0.19794,-0.56415 0.43986,-0.74105 l 0.43987,-0.32164 -0.15255,-0.39751 -0.15254,-0.39752 -0.84956,-0.16991 c -0.46726,-0.0935 -1.9512,-0.16991 -3.29763,-0.16991 h -2.44808 l -0.32937,-0.39688 c -0.18116,-0.21828 -0.48049,-0.39687 -0.66518,-0.39687 h -0.33579 l -0.1632,-0.65022 c -0.19692,-0.78462 -1.07386,-1.72087 -2.11699,-2.2602 -0.84269,-0.43569 -0.90098,-0.51839 -1.89199,-2.68431 l -0.68344,-1.49369 0.81163,-1.43812 c 0.97743,-1.73191 0.98854,-1.90393 0.17558,-2.71689 l -0.63604,-0.63604 -0.78015,0.29447 -0.78015,0.29448 -0.42129,-0.16167 -0.4213,-0.16167 -0.18065,-0.96296 -0.18065,-0.96297 0.76136,-0.75479 c 0.41876,-0.41513 0.96973,-0.98031 1.22439,-1.25595 l 0.46302,-0.50115 v -1.46706 -1.46706 l -0.7276,-0.29437 c -0.40018,-0.16191 -1.02526,-0.33643 -1.38906,-0.38782 l -0.66146,-0.0934 -0.0805,-1.0828 -0.0805,-1.08279 0.94044,-1.04095 0.94044,-1.04096 v -0.53451 -0.53452 l -1.03583,-0.41446 c -1.30305,-0.52137 -1.6566,-1.09018 -2.4578,-3.95416 l -0.28083,-1.00386 0.55213,-0.58772 0.55214,-0.58773 -0.22532,-0.36458 -0.22533,-0.36458 -0.57077,0.14926 -0.57077,0.14926 -0.25006,-0.65771 c -0.13753,-0.36174 -0.25006,-1.23611 -0.25006,-1.94305 v -1.28534 l 0.79745,-0.79744 c 0.43859,-0.4386 1.01484,-0.86645 1.28055,-0.95078 0.26571,-0.0843 0.63253,-0.43254 0.81517,-0.77379 l 0.33205,-0.62045 -0.35334,-0.56579 c -0.44757,-0.71667 -0.54835,-0.71019 -1.79603,0.11548 l -1.02947,0.68128 -0.72885,-0.086 -0.72885,-0.086 -0.29514,-0.88151 c -0.16232,-0.48482 -0.57241,-1.09065 -0.91131,-1.34628 l -0.61618,-0.46478 0.82323,-0.9376 0.82322,-0.93761 v -1.83038 -1.83038 l -0.28904,-0.28904 -0.28904,-0.28905 -1.02906,0.13803 -1.02906,0.13802 -0.18103,-0.47176 -0.18103,-0.47176 0.96608,-0.88535 0.96608,-0.88534 h 0.63307 0.63307 l 0.363,0.53419 0.363,0.53419 1.66245,0.41782 1.66246,0.41782 0.85109,-0.39997 c 0.46809,-0.21998 1.38687,-0.47906 2.04171,-0.57574 1.37751,-0.20336 2.01382,-0.59576 2.15502,-1.32895 l 0.1001,-0.51975 1.18754,-0.19524 c 0.65315,-0.10739 1.59121,-0.28947 2.08458,-0.40462 l 0.89703,-0.20937 0.35906,-0.54077 0.35905,-0.54076 -0.33004,-0.44197 -0.33005,-0.44198 -2.77812,-0.0611 -2.77813,-0.0611 -1.27635,0.45699 c -1.43137,0.51249 -1.76636,0.42702 -1.76636,-0.45068 v -0.60483 l 0.50187,-0.45419 0.50186,-0.45418 1.47383,-0.15211 1.47383,-0.15211 0.67283,0.44086 0.67284,0.44086 0.52647,-0.28176 c 0.71688,-0.38366 0.66102,-0.91265 -0.165,-1.5624 l -0.69148,-0.54391 0.13858,-0.36113 0.13858,-0.36113 1.84576,-0.17155 1.84577,-0.17154 0.88994,0.36587 0.88995,0.36587 0.55544,-0.21125 c 0.3055,-0.11619 0.797,-0.62066 1.09224,-1.12104 l 0.53678,-0.90979 1.28902,-0.32823 1.28902,-0.32824 11.59418,0.0141 11.59419,0.0141 0.90904,0.56182 0.90905,0.56182 3.5040596,-0.17284 c 1.92723,-0.0951 4.63515,-0.14821 6.01759997,-0.1181 5.31796003,0.11583 6.24033003,0.10364 6.94531003,-0.0918 l 0.72761,-0.20172 v -0.37081 -0.37081 l -0.8599,-0.19444 c -0.47294,-0.10695 -1.15755,-0.21885 -1.52135,-0.24867 -1.80249,-0.14774 -3.92287003,-0.46088 -4.66846003,-0.68943 l -0.83198997,-0.25504 -0.14743,-0.56377 c -0.0811,-0.31008 -0.0844,-0.66583 -0.007,-0.79056 l 0.14016,-0.22679 0.97155997,0.16606 0.97155,0.16605 0.58063003,0.68789 0.58063,0.68788 2.47724,-0.0721 2.47724,-0.0721 0.97703,0.46592 0.97702,0.46591 v 0.71032 0.71032 l 1.6536504,0.30961 c 0.9095,0.17028 2.41066,0.49222 3.3359,0.71541 l 1.68226,0.4058 1.22816,-0.28286 c 1.13152,-0.26059 3.68375,-0.50781 10.83194,-1.04922 l 2.72462,-0.20636 0.44521,-0.44521 0.44521,-0.44521 -0.30631,-0.49048 -0.30631,-0.49048 0.68534,-0.36514 0.68535,-0.36514 3.72718,0.0537 c 3.80108,0.0547 8.06652,0.47019 9.01884,0.87847 0.87251,0.37406 5.59177,0.77289 9.2728,0.78366 1.89858,0.006 3.81754,0.11495 4.26436,0.2431 0.44682,0.12814 1.35221,0.17214 2.01199,0.0978 l 1.1996,-0.13522 0.34404,0.62678 c 0.18922,0.34472 0.3296,1.01373 0.31195,1.48667 l -0.0321,0.8599 0.4418,0.006 c 0.24298,0.003 1.33476,0.0801 2.42617,0.17027 1.0914,0.0902 2.53813,0.14393 3.21494,0.11945 l 1.23056,-0.0445 0.8861,0.52246 c 0.48736,0.28734 1.30282,0.5804 1.81215,0.65122 1.85845,0.25843 4.23333,0.81722 4.23333,0.99608 0,0.3615 1.77001,0.73173 4.7625,0.99616 l 3.04271,0.26887 4.49791,-0.10398 c 15.803903,-0.36537 26.372203,-0.92395 27.346483,-1.44536 0.26351,-0.14103 2.3146,-0.3902 4.55798,-0.55372 2.24338,-0.16352 5.20997,-0.48231 6.59241,-0.70843 1.38245,-0.22612 3.58511,-0.51032 4.8948,-0.63156 1.30968,-0.12124 2.97656,-0.3458 3.70416,-0.49903 2.29858,-0.48407 5.52637,-0.83378 6.35,-0.688 0.43656,0.0773 1.2279,0.20756 1.75852,0.28952 l 0.96476,0.14902 1.52054,-0.53442 c 0.83629,-0.29394 1.71184,-0.70018 1.94565,-0.90276 l 0.42511,-0.36833 2.24896,-0.19013 c 1.23693,-0.10457 3.91584,-0.18418 5.95313,-0.17691 l 3.70416,0.0132 1.19063,-0.54317 1.19062,-0.54317 1.32292,0.17782 c 0.7276,0.0978 4.65667,0.2202 8.73125,0.27201 4.07458,0.0518 7.76552,0.15122 8.20208,0.22093 0.43657,0.0697 1.47836,0.13641 2.31511,0.14823 l 1.52135,0.0215 v 0.21885 c 0,0.12037 -0.80367,0.36084 -1.78594,0.53439 -0.98226,0.17356 -2.59438,0.45898 -3.58249,0.63429 l -1.79656,0.31873 0.0768,0.53593 0.0768,0.53593 1.46174,0.15723 c 0.80396,0.0865 1.73779,0.30496 2.07517,0.48552 l 0.61342,0.32829 0.63681,-0.15983 0.63682,-0.15983 -0.004,0.20348 c -0.002,0.11191 -0.10954,0.37008 -0.23846,0.5737 l -0.23442,0.37023 -1.45321,-0.1708 c -0.79927,-0.0939 -1.81506,-0.0984 -2.25731,-0.01 l -0.80409,0.16082 0.24066,0.63299 0.24066,0.63299 -0.29462,0.64663 -0.29463,0.64663 -1.08828,0.34451 -1.08829,0.34451 -0.0227,0.79375 -0.0227,0.79375 0.49263,0.71195 c 0.27094,0.39158 0.73663,0.7894 1.03485,0.88406 0.68308,0.2168 0.45962,0.4457 -0.77607,0.79499 l -0.97053,0.27434 -0.0112,0.73443 -0.0112,0.73444 -0.37824,0.23376 -0.37824,0.23377 0.52175,0.16584 c 0.28696,0.0912 0.72849,0.27621 0.98118,0.41111 0.25269,0.13489 0.73637,0.24526 1.07485,0.24526 0.33848,0 1.64312,0.34739 2.89921,0.77198 l 2.2838,0.77197 0.10531,-0.30895 0.1053,-0.30895 1.29855,0.49302 c 0.7142,0.27116 1.83433,0.60449 2.48917,0.74074 l 1.19063,0.24772 2.02159,-0.17041 2.02159,-0.1704 0.83866,-0.51002 0.83866,-0.51002 -0.17957,-0.58948 c -0.0988,-0.32422 -0.35183,-0.78603 -0.56238,-1.02624 l -0.38281,-0.43675 0.21567,-0.10958 c 0.46569,-0.2366 0.85433,-0.0425 1.43896,0.7185 0.33537,0.43656 0.76287,0.88896 0.95001,1.00534 0.18714,0.11637 0.5219,0.56286 0.74392,0.99218 0.22201,0.42933 0.56928,0.7806 0.77169,0.7806 0.20242,0 0.40772,0.0937 0.45623,0.20825 0.0485,0.11454 0.68351,0.54712 1.41111,0.9613 1.20712,0.68714 2.77599,2.14458 2.77751,2.58025 3.4e-4,0.0978 0.41734,0.31545 0.92666,0.48354 0.92949,0.30676 1.15428,0.62146 0.66146,0.92604 -0.14552,0.0899 -0.26459,0.48719 -0.26459,0.88278 0,0.69349 -0.59554,1.81942 -1.17529,2.22202 -0.4408,0.30611 -1.25771,0.23519 -1.71429,-0.14884 l -0.41771,-0.35133 -2.28758,0.16664 -2.28757,0.16664 -0.97993,0.74743 -0.97993,0.74742 0.15511,0.77554 c 0.19619,0.98096 0.49499,1.25673 2.2249,2.05344 l 1.40124,0.64533 1.99753,-0.28777 1.99753,-0.28777 2.52419,0.0964 c 1.38831,0.053 2.58061,0.15285 2.64956,0.2218 0.069,0.069 0.61273,-0.18227 1.20838,-0.55829 l 1.083,-0.68367 0.1006,0.30182 c 0.0553,0.16601 0.33156,0.30183 0.61383,0.30183 h 0.51322 l -0.42465,0.64809 -0.42465,0.64809 -0.90427,0.29844 -0.90427,0.29843 0.14937,0.5951 0.14936,0.59511 -0.94141,0.64118 -0.9414,0.64118 -0.002,0.72257 -0.002,0.72256 0.7276,0.16192 c 1.39078,0.30951 1.65365,0.41439 1.65365,0.65974 0,0.13571 -0.28312,0.24675 -0.62915,0.24675 -0.34603,0 -1.05549,0.17814 -1.57657,0.39586 l -0.94743,0.39587 -0.30032,1.00237 -0.30032,1.00237 -0.90268,0.28253 -0.90268,0.28254 -1.51991,-0.0709 c -0.83594,-0.039 -2.11629,-0.13549 -2.84522,-0.21442 l -1.32531,-0.14351 -0.38225,0.23624 -0.38225,0.23624 0.37242,0.69587 0.37242,0.69588 -0.3487,0.21551 -0.34871,0.21551 -1.49115,-0.13208 c -0.82013,-0.0727 -1.81442,-0.13514 -2.20953,-0.13887 l -0.71838,-0.007 -0.93526,0.71336 -0.93527,0.71336 v 0.49681 c 0,0.27324 0.17621,0.67301 0.39158,0.88838 l 0.39158,0.39158 2.273,0.18934 2.273,0.18934 0.70886,0.58609 c 0.91639,0.75769 2.70299,1.26481 4.58895,1.30257 2.63445,0.0527 2.24954,0.55442 -1.03115,1.34398 l -1.91356,0.46053 -0.5618,0.90901 -0.5618,0.90902 0.4066,1.23507 c 0.41922,1.27342 0.37965,1.65469 -0.17177,1.65469 -0.17547,0 -0.75978,0.23622 -1.29847,0.52494 -0.53869,0.28872 -1.47589,0.58732 -2.08267,0.66356 -0.60678,0.0762 -1.77161,0.31162 -2.58852,0.52306 -0.81691,0.21144 -2.19966,0.45634 -3.07279,0.54421 -0.87312,0.0879 -2.00422,0.26294 -2.51354,0.38903 -0.82923,0.20529 -1.56879,0.29467 -5.42396,0.65551 -0.58208,0.0545 -2.30849,0.222 -3.83646,0.37226 l -2.77812,0.27319 -5.02708,-0.1172 c -2.7649,-0.0645 -6.69396,-0.21133 -8.73125,-0.32639 l -3.70417,-0.20918 -1.19062,0.212 c -0.65485,0.1166 -3.27422,0.33199 -5.82084,0.47865 -2.54661,0.14665 -5.82083,0.43757 -7.27604,0.64649 -2.64924,0.38033 -11.78017,1.12628 -16.00729,1.30771 -4.71022,0.20216 -10.70816,0.62751 -11.37709,0.80681 -0.7414,0.19873 -6.4673,0.64153 -10.29576,0.79621 -2.0974,0.0847 -4.002397,0.26017 -4.233327,0.38985 l -0.41986,0.23578 0.4702,0.18115 c 0.2586,0.0996 2.014777,0.13302 3.902597,0.0742 l 3.43241,-0.10694 v 0.20817 c 0,0.1145 -0.12823,0.20818 -0.28494,0.20818 -0.29875,0 -1.83173,1.4294 -1.83173,1.70796 0,0.0886 0.26789,0.26885 0.59531,0.40046 l 0.59531,0.23928 -0.585,0.0168 -0.58501,0.0168 -0.55538,0.59531 -0.55538,0.59531 h -2.03461 -2.034617 l 0.0662,0.33073 0.0661,0.33073 -0.46303,0.0268 c -0.25466,0.0147 -0.84203,0.006 -1.30527,-0.0188 -0.98642,-0.0534 -1.93587,0.38756 -1.93587,0.89899 0,0.43594 0.57623,0.68046 1.60358,0.68046 0.42161,0 1.56965,0.26364 2.55122,0.58586 l 1.784657,0.58586 -0.81001,0.16567 c -0.44551,0.0911 -0.959897,0.2583 -1.143077,0.37151 l -0.33307,0.20585 0.10568,0.72002 0.10568,0.72002 -1.07244,0.29561 c -0.58983,0.16258 -2.57992,0.48113 -4.42241,0.7079 l -3.34998,0.4123 -9.21773,-0.0491 -9.21772,-0.0491 -5.15938,0.30022 c -7.94456,0.46228 -28.02299,1.31287 -28.14308,1.19224 z m -65.57173,-9.53824 c 0.044,-0.76398 0.16304,-1.38878 0.26458,-1.38843 0.10154,3.4e-4 0.52663,0.65519 0.94465,1.45521 l 0.76004,1.45458 h 0.87799 c 0.4829,0 0.94081,-0.10165 1.01759,-0.22588 0.0768,-0.12424 -0.21385,-0.78322 -0.64584,-1.4644 -0.92514,-1.4588 -0.93556,-1.52827 -0.28962,-1.93166 0.2727,-0.17031 0.57721,-0.63397 0.6767,-1.03037 l 0.18089,-0.72072 -0.29771,-0.71875 -0.29772,-0.71875 -0.65603,-0.2989 -0.65602,-0.29891 h -1.97193 -1.97192 v 3.52778 c 0,1.94028 0.085,3.6128 0.18893,3.71671 0.10391,0.10391 0.55039,0.15352 0.99218,0.11024 l 0.80326,-0.0787 z m 0.0523,-3.63802 v -0.66146 h 0.76544 0.76544 l 0.12162,0.33073 c 0.0669,0.1819 0.0697,0.47956 0.006,0.66146 l -0.11536,0.33073 h -0.7717 -0.7717 z m 10.79853,4.16719 0.0829,-0.8599 h -1.60426 -1.60427 v -0.66146 -0.66145 h 1.47278 1.47279 l -0.0837,-0.72761 -0.0837,-0.7276 -1.38907,-0.08 -1.38906,-0.08 v -0.51534 -0.51534 h 1.45521 1.45521 v -0.79375 -0.79375 h -2.51354 -2.51354 v 3.52778 c 0,1.94028 0.0835,3.6113 0.18561,3.71339 0.10208,0.10209 1.26294,0.1517 2.57968,0.11024 l 2.39408,-0.0754 z m 3.75355,0.19844 0.32878,-0.79375 h 1.27638 1.2763796 l 0.34873,0.7276 0.34873,0.7276 h 0.92248 0.92248 l -0.0781,-0.39687 c -0.043,-0.21828 -0.68718,-1.86144 -1.43162,-3.65146 l -1.35354,-3.25458 -0.9368496,0.0796 -0.93684,0.0796 -1.02603,2.38125 c -2.007,4.65794 -2.0426,4.8948 -0.73582,4.8948 h 0.74604 z m 1.15615,-2.97657 c 0.0877,-0.32742 0.16116,-0.68461 0.16315,-0.79375 0.009,-0.50876 0.50997,-0.11538 0.75772,0.59532 l 0.2766996,0.79375 h -0.6785496 -0.67856 z m 10.75009957,2.84427 v -0.92604 h -1.32291997 -1.32292 v -2.77812 -2.77813 h -0.92604 -0.92604 v 3.52778 c 0,1.94028 0.0794,3.60715 0.17639,3.70417 0.097,0.097 1.10905,0.17639 2.24896,0.17639 h 2.07256997 z m 6.29706003,-0.7276 0.0793,-1.52135 h 1.17743 1.17742 v 1.29052 1.29051 l 0.38231,0.3173 c 0.21027,0.17451 0.65675,0.27838 0.99219,0.23083 l 0.6098704,-0.0865 0.0737,-3.65444 0.0737,-3.65444 -0.9997604,0.0826 -0.99976,0.0826 -0.0806,1.25677 -0.0806,1.25678 h -1.17612 -1.17613 v -1.32292 -1.32292 h -0.92604 -0.92605 v 3.72093 3.72093 l 0.8599,-0.0829 0.8599,-0.0829 z m 8.5734004,0.92604 0.34726,-0.7276 1.23371,-0.0798 1.2337,-0.0798 0.35366,0.74125 0.35366,0.74124 0.75788,0.0868 c 0.41683,0.0478 0.85453,-0.0118 0.97266,-0.13229 l 0.21478,-0.21912 -0.91509,-2.24896 c -0.5033,-1.23692 -1.17331,-2.82031 -1.48891,-3.51864 l -0.57383,-1.26969 -0.90565,0.0791 -0.90565,0.0791 -1.43601,3.37979 c -0.78981,1.85889 -1.36419,3.496 -1.27641,3.63803 0.0878,0.14202 0.50325,0.25823 0.92329,0.25823 h 0.7637 z m 1.00454,-2.69953 c 0,-0.13867 0.14002,-0.55944 0.31115,-0.93504 l 0.31116,-0.68291 0.3503,0.83313 c 0.45089,1.07234 0.4615,1.03696 -0.31115,1.03696 -0.36381,0 -0.66146,-0.11346 -0.66146,-0.25214 z m 7.88518,1.90578 c 0.044,-0.76398 0.18145,-1.38906 0.30547,-1.38906 0.12402,0 0.59507,0.65484 1.04677,1.45521 l 0.82127,1.45521 h 0.92378 0.92378 v -0.34508 c 0,-0.18979 -0.34672,-0.8918 -0.77049,-1.56001 l -0.77049,-1.21494 0.63819,-0.5549 c 0.97393,-0.84682 0.95068,-2.2355 -0.0525,-3.1381 l -0.66168,-0.59531 h -2.10191 -2.10192 v 3.52778 c 0,1.94028 0.0848,3.61262 0.18854,3.71631 0.10369,0.1037 0.49065,0.15331 0.85989,0.11025 l 0.67136,-0.0783 z m 0.0523,-3.63802 v -0.69498 l 0.85989,0.0829 0.8599,0.0829 v 0.52917 0.52917 l -0.8599,0.0829 -0.85989,0.0829 z m 10.88001,4.52773 0.93957,-0.44585 0.5725,-1.01863 c 0.69952,-1.24464 0.72569,-2.2567 0.089,-3.44381 l -0.48347,-0.90147 -0.90147,-0.48346 -0.90147,-0.48347 h -2.05465 -2.05465 v 3.52778 c 0,1.94028 0.0893,3.6197 0.19844,3.73205 l 0.19844,0.20428 1.72907,-0.12079 1.72908,-0.12078 z m -2.94251,-3.20481 v -1.98438 h 0.80577 0.80578 l 0.64943,0.64943 0.64943,0.64944 v 0.78657 0.78657 l -0.69714,0.54837 -0.69714,0.54837 h -0.75807 -0.75806 z m 13.83462,3.30406 0.67683,-0.53239 0.16353,-0.74456 0.16354,-0.74456 -0.25288,-0.6651 -0.25287,-0.6651 -1.33047,-0.57236 c -1.54243,-0.66353 -1.76875,-0.91587 -1.22567,-1.36659 l 0.39372,-0.32676 0.81287,0.3367 0.81286,0.3367 0.57644,-0.58434 0.57643,-0.58435 -0.50898,-0.37825 c -0.27995,-0.20803 -0.89727,-0.45109 -1.37182,-0.54011 l -0.86283,-0.16187 -0.94247,0.31104 c -1.0883,0.35917 -1.74148,1.15811 -1.72944,2.11535 0.0118,0.9361 0.47866,1.45272 1.95847,2.16714 1.34088,0.64734 1.53043,0.97112 0.8266,1.41201 l -0.42237,0.26459 -0.76623,-0.43783 -0.76623,-0.43783 -0.59676,0.63522 c -0.32822,0.34938 -0.54668,0.67518 -0.48547,0.724 0.0612,0.0488 0.40567,0.28743 0.76547,0.53021 l 0.65418,0.44144 h 1.22837 1.22836 z m 7.9935,-0.39365 v -0.79375 l -1.67034,-0.0792 -1.67033,-0.0792 0.0828,-0.58226 0.0828,-0.58225 1.32292,-0.082 c 0.7276,-0.0451 1.42404,-0.18196 1.54763,-0.3041 l 0.22472,-0.22207 -0.1764,-0.5558 -0.1764,-0.5558 h -1.43738 -1.43738 v -0.52917 -0.52917 h 1.5875 1.5875 v -0.79375 -0.79375 h -2.51354 -2.51354 v 3.52778 c 0,1.94028 0.0835,3.6113 0.18561,3.71339 0.10208,0.10209 1.26294,0.1517 2.57968,0.11024 l 2.39408,-0.0754 z m 6.74687,0 v -0.92604 h -1.32291 -1.32292 v -2.77812 -2.77813 h -0.92604 -0.92604 v 3.52778 c 0,1.94028 0.0794,3.60715 0.17639,3.70417 0.097,0.097 1.10904,0.17639 2.24896,0.17639 h 2.07256 z m 4.49792,-1.98437 v -2.91042 h 1.05833 1.05834 v -0.79375 -0.79375 h -3.06028 -3.06029 l 0.0837,0.72761 0.0837,0.7276 0.99219,0.0821 0.99219,0.0821 v 2.71805 c 0,1.49493 0.0794,2.79743 0.17639,2.89445 0.097,0.097 0.51373,0.17639 0.92604,0.17639 h 0.74965 z m 9.525,1.997 v -0.91342 l -1.61292,-0.0788 -1.61291,-0.0788 1.61291,-1.97697 1.61292,-1.97696 v -0.73502 -0.73501 h -2.77812 -2.77813 v 0.79375 0.79375 h 1.45521 c 0.80036,0 1.45521,0.0689 1.45521,0.15309 0,0.0842 -0.71438,1.02734 -1.5875,2.09587 l -1.5875,1.94278 v 0.63816 c 0,0.35099 0.0794,0.71753 0.17639,0.81455 0.097,0.097 1.4067,0.17639 2.91041,0.17639 h 2.73403 z m 7.56049,0.26699 c 0.0892,-0.35553 0.0845,-0.77225 -0.0106,-0.92604 l -0.17282,-0.27962 h -1.59028 -1.59029 l 0.0846,-0.59531 0.0846,-0.59531 1.38906,-0.08 1.38906,-0.08 v -0.77992 -0.77992 h -1.45521 -1.45521 v -0.52917 -0.52917 h 1.5875 1.5875 v -0.79375 -0.79375 h -2.51354 -2.51354 v 3.52778 c 0,1.94028 0.0794,3.60715 0.17639,3.70417 0.097,0.097 1.22584,0.17639 2.5085,0.17639 h 2.33211 z m 4.29344,-0.87493 0.08,-1.38906 h 0.23134 c 0.12724,0 0.606,0.65484 1.06393,1.45521 l 0.83258,1.45521 h 0.86253 c 0.47439,0 0.93366,-0.0711 1.0206,-0.15808 0.0869,-0.0869 -0.19087,-0.72519 -0.61736,-1.41833 -0.81566,-1.32561 -0.95915,-1.86318 -0.49735,-1.86318 0.15294,0 0.44982,-0.41102 0.65972,-0.91338 l 0.38164,-0.91339 -0.24615,-0.64741 c -0.13538,-0.35608 -0.51828,-0.83803 -0.85089,-1.07099 l -0.60473,-0.42358 h -2.0578 -2.05779 v 3.52778 c 0,1.94028 0.0848,3.61262 0.18853,3.71631 0.1037,0.1037 0.49065,0.15331 0.8599,0.11025 l 0.67136,-0.0783 z m 0.0523,-3.63802 v -0.69498 l 0.8599,0.0829 0.85989,0.0829 v 0.52917 0.52917 l -0.85989,0.0829 -0.8599,0.0829 z m 16.369473,2.95222 c 0.16208,-0.19529 0.21635,-0.43342 0.12059,-0.52917 -0.2694,-0.2694 -1.35819,-0.20547 -1.5411,0.0905 -0.43689,0.70689 0.8644,1.10875 1.42051,0.43868 z M -13.143383,527.71462 c 0.87312,-0.20602 2.45738,-0.81055 3.5205796,-1.34341 l 1.93308,-0.96883 1.21494,-1.34527 c 1.39904,-1.54911 2.31986,-3.37054 2.74976,-5.43917 l 0.30094,-1.44807 -0.12233,-1.85922 -0.12233,-1.85922 -0.82115,-1.61922 -0.82114,-1.61921 -1.27034,-1.12063 c -1.66228,-1.46638 -3.6381096,-2.44376 -7.8641596,-3.89018 -5.12831,-1.75522 -5.70931,-2.20845 -5.70931,-4.45372 v -1.22837 l 0.75194,-0.75195 0.75194,-0.75194 1.16629,-0.31546 1.16629,-0.31546 1.48521,0.13335 c 1.78682,0.16042 3.4982,0.87778 4.78087,2.00397 0.5211396,0.45757 1.0508696,0.83189 1.1771796,0.83182 0.12631,-7e-5 1.4506,-1.30133 2.94286,-2.8917 l 2.71321,-2.89157 -1.12579,-0.9225 c -1.35091,-1.10697 -3.17239,-2.04436 -5.468,-2.814 l -1.6965396,-0.5688 -2.66909,-0.13611 -2.66908,-0.13612 -2.11667,0.38592 -2.11666,0.38591 -1.71979,0.81702 c -0.94589,0.44936 -2.32302,1.34686 -3.06028,1.99444 l -1.34049,1.17743 -0.90186,1.67562 -0.90185,1.67562 -0.10179,2.99138 -0.10179,2.99139 0.83087,1.68772 0.83086,1.68773 1.37845,1.23934 1.37845,1.23935 1.45773,0.65793 c 0.80176,0.36186 2.76742,1.10372 4.36815,1.64858 3.46482,1.17935 4.79903,1.83267 5.68854,2.78548 l 0.66146,0.70853 v 1.28219 1.2822 l -0.54797,0.74701 c -0.30139,0.41085 -0.95623,0.96127 -1.45521,1.22314 l -0.90723,0.47613 -2.11667,-0.0912 -2.11667,-0.0912 -1.45202,-0.64306 c -0.79861,-0.35368 -2.06247,-1.14028 -2.80858,-1.748 l -1.35656,-1.10493 -2.87996,2.90397 -2.87996,2.90397 1.2697,1.13059 c 3.89979,3.47253 11.01524,5.04725 16.72197,3.70074 z m 127.817563,0.15505 c 6.69794,-1.69849 11.57118,-6.5717 13.36001,-13.35991 l 0.55778,-2.11667 0.0194,-3.04271 0.0194,-3.0427 -0.5813,-2.20386 c -0.57457,-2.17835 -2.01318,-5.37702 -2.99521,-6.65969 -0.27853,-0.3638 -1.1731,-1.34288 -1.98792,-2.17573 l -1.48151,-1.51428 -1.74741,-1.04989 c -0.96107,-0.57744 -2.68351,-1.36196 -3.82763,-1.74338 l -2.08022,-0.6935 -2.68228,-0.14665 -2.68228,-0.14665 -2.31449,0.40479 -2.31449,0.40479 -2.18343,1.06278 c -5.000433,2.43396 -8.176513,6.28738 -9.784023,11.8706 l -0.59354,2.0615 v 3.43958 3.43959 l 0.60457,2.10169 c 0.33252,1.15593 1.10178,3.06093 1.70947,4.23333 l 1.1049,2.13164 1.86616,1.87261 1.86615,1.87261 1.724763,0.96453 c 1.79996,1.0066 3.17624,1.55908 5.40355,2.16913 l 1.32291,0.36234 2.80195,0.0174 2.80195,0.0174 z m -7.17556,-0.79262 c -2.06126,-0.2834 -4.64009,-1.15357 -6.4743,-2.1846 l -1.455213,-0.81799 -1.85371,-1.87193 -1.8537,-1.87194 -0.9765,-1.86401 c -0.53708,-1.0252 -1.24477,-2.81114 -1.57266,-3.96875 l -0.59617,-2.10474 -0.009,-3.04271 -0.009,-3.0427 0.60649,-2.24896 c 1.38837,-5.14827 4.6533,-9.06168 9.377823,-11.24043 2.33368,-1.07619 4.3024,-1.46079 7.45123,-1.45566 l 2.3988,0.004 1.65573,0.39038 c 0.91064,0.2147 2.57426,0.82626 3.69692,1.35901 l 2.04121,0.96863 2.13042,2.14281 2.13042,2.14281 0.98099,1.88186 0.98099,1.88186 0.53199,2.21918 0.532,2.21918 -0.003,2.64583 -0.003,2.64584 -0.38646,1.85208 -0.38645,1.85208 -1.18935,2.40989 -1.18935,2.40989 -1.52846,1.58618 c -0.84064,0.8724 -2.2085,2.02112 -3.03967,2.5527 l -1.51122,0.96651 -2.32524,0.76837 -2.32524,0.76837 -2.11666,0.1332 c -1.16417,0.0733 -2.83464,0.0345 -3.71216,-0.0861 z m -90.099533,0.63178 c 2.86278,-0.70383 5.86883,-2.52133 7.15304,-4.32485 l 0.54239,-0.76171 -2.9648,-1.85557 -2.9648,-1.85557 -0.87803,0.77093 c -1.23586,1.0851 -2.17027,1.51813 -3.71928,1.72361 l -1.34363,0.17824 -1.38231,-0.33161 -1.38231,-0.33161 -1.0367304,-0.93663 c -0.99428,-0.89827 -1.79622,-2.09614 -1.79622,-2.68304 v -0.27772 h 9.1161304 9.11614 l 0.15507,-0.8599 c 0.0853,-0.47294 0.0411,-1.93145 -0.0983,-3.24114 l -0.25334,-2.38125 -0.57155,-1.52494 c -2.35029,-6.27081 -8.29059,-9.25412 -15.4188904,-7.74361 l -1.79118,0.37956 -1.64098,0.87262 -1.64098,0.87262 -1.3588,1.35712 c -1.6874,1.68533 -2.84602003,3.68585 -3.41572003,5.89775 l -0.4375,1.69863 v 2.27634 c 0,2.61074 0.35174,4.29669 1.32792,6.36495 l 0.68683003,1.45521 1.59121,1.60737 1.59121,1.60738 1.71979,0.83556 c 0.94589,0.45956 2.37464,1.00833 3.175,1.21948 l 1.4552104,0.38392 2.36434,0.0174 2.36435,0.0174 z M 7.6264066,511.05704 c 0,-1.10069 1.86754,-3.28273 3.2583704,-3.80709 0.40965,-0.15445 1.46322,-0.28082 2.34126,-0.28082 h 1.59644 l 0.9089,0.43131 0.90891,0.4313 0.62113,1.09005 c 0.34163,0.59953 0.69702,1.41747 0.78977,1.81766 l 0.16863,0.7276 h -5.29671 -5.2967004 z m 40.7511504,16.53284 c 1.08848,-0.30025 2.50732,-0.85409 3.15298,-1.23076 1.29182,-0.75361 3.35193,-2.56104 3.73507,-3.27694 l 0.24434,-0.45657 -2.94436,-1.86506 -2.94436,-1.86507 -1.15586,1.01743 -1.15585,1.01743 -1.17331,0.29544 c -3.16035,0.79578 -6.06044,-0.22729 -7.54454,-2.66153 -0.29491,-0.48372 -0.53665,-1.02678 -0.53719,-1.20679 l -9.9e-4,-0.3273 9.19427,-0.0696 9.19427,-0.0696 -0.0302,-2.52073 -0.0302,-2.52074 -0.45625,-1.58031 c -0.25095,-0.86917 -0.80899,-2.24524 -1.24011,-3.05795 l -0.78384,-1.47764 -1.3755,-1.34535 -1.3755,-1.34536 -1.5875,-0.79694 -1.5875,-0.79695 -1.82818,-0.31718 -1.82818,-0.31718 -2.05384,0.17129 c -2.1936,0.18293 -3.19456,0.47168 -5.59396,1.61367 l -1.51457,0.72086 -1.4356,1.44709 -1.43559,1.44709 -0.79491,1.5017 c -0.43719,0.82594 -0.98836,2.15656 -1.2248,2.95692 l -0.42991,1.45521 -0.002,2.51354 -0.002,2.51354 0.43573,1.45521 c 0.65278,2.18009 1.52354,3.73343 2.99602,5.34456 l 1.32489,1.44964 1.9305,0.9675 c 1.06178,0.53213 2.58536,1.13872 3.38572,1.34799 l 1.45521,0.38048 2.51886,0.0174 2.51886,0.0174 z m -10.32407,-16.37019 c 0,-1.21702 1.46035,-3.01634 3.04271,-3.74894 l 1.05833,-0.48999 1.59163,-0.006 1.59163,-0.006 0.92191,0.49295 0.92191,0.49294 0.49309,0.83976 c 0.27121,0.46187 0.58609,1.25207 0.69975,1.75601 l 0.20664,0.91626 h -5.2638 -5.2638 z m 110.540653,16.00863 1.66462,-0.76214 1.27029,-1.38989 c 0.69865,-0.76444 1.49738,-1.84729 1.77496,-2.40634 l 0.50468,-1.01644 0.0751,2.84427 0.0751,2.84427 h 0.69334 0.69333 l -0.17205,-3.37344 c -0.0946,-1.85539 -0.17253,-7.15367 -0.17312,-11.77396 l -0.001,-8.40052 h -0.66146 -0.66145 v 7.15299 7.15298 l -0.67608,2.04129 -0.67607,2.04128 -0.92403,1.27059 -0.92402,1.27059 -1.24417,0.79058 c -0.6843,0.43481 -1.88871,0.97848 -2.67648,1.20815 l -1.43231,0.41758 -1.43155,-0.16825 c -2.67368,-0.31424 -4.67087,-1.8991 -5.74928,-4.56229 l -0.52045,-1.28528 -0.0913,-8.6651 -0.0913,-8.66511 h -0.65831 -0.65831 l 0.08,8.7974 0.08,8.79739 0.63345,1.57412 0.63346,1.57412 1.18091,1.2625 1.18092,1.26249 1.36002,0.53573 1.36002,0.53572 2.24896,-0.0716 2.24895,-0.0716 z m 24.29241,0.60828 1.18823,-0.2992 -0.0831,-0.4284 -0.083,-0.42841 -2.1125,0.0878 -2.1125,0.0878 -0.92604,-0.62681 c -0.50932,-0.34474 -1.10464,-0.97955 -1.32292,-1.41068 l -0.39687,-0.78387 v -9.525 -9.525 l 3.37344,-0.074 3.37343,-0.074 v -0.52126 -0.52127 h -3.43958 -3.43958 v -3.43958 -3.43958 h -0.66146 -0.66146 v 3.43958 3.43958 h -2.51354 -2.51354 v 0.52917 0.52917 h 2.49844 2.49845 l 0.0968,9.59114 0.0968,9.59115 0.32459,0.98125 c 0.8315,2.51368 3.55645,3.64133 6.81591,2.82059 z m 5.92526,-1.12515 v -1.42435 l 0.52917,-0.13838 c 0.29104,-0.0761 0.52916,-0.26859 0.52916,-0.42773 v -0.28936 h -1.4552 -1.45521 v 0.39688 0.39687 h 0.52916 0.52917 v 1.45521 1.45521 h 0.39688 0.39687 z m 2.1303,0.43216 0.0136,-0.99219 0.41154,0.99219 c 0.22635,0.54571 0.52275,0.99219 0.65868,0.99219 0.13592,0 0.47196,-0.50602 0.74676,-1.12448 l 0.49963,-1.12448 0.0187,1.12448 0.0187,1.12448 h 0.39687 0.39688 v -1.85208 -1.85209 h -0.60679 -0.60678 l -0.42215,1.12448 -0.42216,1.12448 -0.15384,-0.39687 c -0.0846,-0.21828 -0.27348,-0.7243 -0.41972,-1.12448 l -0.26588,-0.72761 h -0.53572 -0.53571 v 1.85209 1.85208 h 0.39687 0.39688 z m -110.609463,-5.72942 0.1323,-5.79556 2.76698,4.07577 c 1.52184,2.24168 3.30778,4.87629 3.96875,5.85469 l 1.20177,1.77891 5.22552,0.007 c 2.87403,0.004 5.22552,-0.064 5.22552,-0.15077 0,-0.16794 -8.66531,-12.08693 -9.71129,-13.35772 l -0.34458,-0.41865 4.75436,-5.53448 c 2.61489,-3.04396 4.7584,-5.6833 4.76335,-5.8652 l 0.009,-0.33073 h -4.99611 -4.9961 l -3.93358,5.01904 -3.93358,5.01904 -0.1323,-11.56748 -0.13229,-11.56748 -4.29948,-0.0727 -4.29948,-0.0727 v 19.45999 19.45998 l 4.29948,-0.0727 4.29948,-0.0727 z m 131.220203,-6.97289 0.57467,-0.46534 -0.17766,-0.46299 c -0.29708,-0.77417 -1.5224,-0.885 -2.68913,-0.24322 l -0.58546,0.32204 0.16928,0.45898 c 0.22983,0.62313 0.60707,0.84701 1.43534,0.85181 l 0.6983,0.004 z m -51.66605,-27.73949 0.16254,-0.42358 -0.36929,-0.23383 c -0.2031,-0.12861 -0.62725,-0.23565 -0.94254,-0.23788 -0.3153,-0.002 -0.62336,-0.15288 -0.68458,-0.33478 l -0.11131,-0.33073 -0.42832,0.35351 c -0.23557,0.19443 -0.54011,0.28441 -0.67676,0.19995 -0.31463,-0.19445 -0.5788,0.45694 -0.34121,0.84136 0.0981,0.15868 0.71213,0.33544 1.36458,0.39281 0.65245,0.0574 1.33884,0.1251 1.52531,0.15052 0.18647,0.0254 0.41218,-0.14439 0.50158,-0.37735 z m 4.98022,-0.37017 v -0.66146 l -1.42684,-0.0813 -1.42684,-0.0813 -0.29295,0.2985 -0.29295,0.2985 0.64067,0.52339 0.64068,0.52338 1.07911,-0.0791 1.07912,-0.0792 z m -116.455913,-4.45546 2.0774,-0.25468 0.77844,0.22325 c 0.42814,0.12279 4.37487,0.29505 8.77051,0.38279 l 7.99207,0.15954 0.72257,-0.21053 c 0.97398,-0.28379 0.93997,-0.6491 -0.1111,-1.19326 l -0.87605,-0.45356 -3.43959,-0.0579 c -1.89177,-0.0318 -4.0473,0.0369 -4.79006,0.15278 l -1.35049,0.21064 -0.55287,-0.29589 c -1.11084,-0.5945 -6.9259,-0.99546 -12.43584,-0.85747 l -1.40217,0.0351 -0.97702,0.94887 -0.97702,0.94887 0.47716,0.34891 0.47716,0.34892 1.76975,-0.0909 c 0.97335,-0.05 2.70457,-0.20548 3.84715,-0.34556 z"
       id="logo-face" /></g></svg>
