<?xml version="1.0" encoding="UTF-8" standalone="no"?>
<!-- Created with Inkscape (http://www.inkscape.org/) -->

<svg
   width="265.71091mm"
   height="265.90598mm"
   viewBox="0 0 265.71091 265.90597"
   version="1.1"
   id="svg1"
   xml:space="preserve"
   xmlns="http://www.w3.org/2000/svg"
   xmlns:svg="http://www.w3.org/2000/svg"><defs
     id="defs1"><pattern
       id="EMFhbasepattern"
       patternUnits="userSpaceOnUse"
       width="6"
       height="6"
       x="0"
       y="0" /></defs><g
     id="layer1"
     transform="translate(234.96651,230.85282)"><path
       class="logo-face"
       d="m -107.10188,34.938145 c -29.60469,-1.27291 -58.04384,-12.23072 -80.16874,-30.8896098 -3.80958,-3.21278003 -4.83387,-4.16290003 -8.99584,-8.34443 -7.5733,-7.6089102 -14.25906,-16.1650602 -19.44414,-24.8838102 -0.56252,-0.94588 -1.34734,-2.25557 -1.74404,-2.91041 -3.53732,-5.83917 -8.2084,-16.4493 -10.93158,-24.83053 -4.05883,-12.49204 -6.07599,-24.31011 -6.41964,-37.61114 l -0.16065,-6.217705 0.30821,-4.6302 c 0.85755,-12.88297 3.20312,-24.71593 7.14164,-36.0282 12.76114,-36.65266 40.73578,-65.80493 76.75854,-79.98976 14.66779,-5.7758 28.63731,-8.65029 45.11145,-9.28255 l 4.49792,-0.17262 5.367076,0.30326 c 23.764589,1.34278 45.129124,8.0787 64.779804,20.42409 8.00082,5.02646 14.71494,10.38019 22.0115296,17.55165 6.9076,6.78914 12.1949,13.1622 17.3526,20.91601 12.6516204,19.01974 19.9941404,39.88056 21.9864604,62.46569 l 0.39466,4.47388 0.001,6.642305 c 0.001,6.86365 -0.24689,11.26065 -0.93209,16.50874 -2.91222,22.30505 -10.48066,41.92411 -23.2715504,60.32499 -8.58999,12.3574902 -21.4148596,24.8958802 -34.2979996,33.53185 -23.56642,15.79754 -51.727522,23.83594 -79.34462,22.6485 z m 11.462468,-3.79496 c 17.213057,-0.9052 32.439272,-4.67478 48.131502,-11.916 C -25.98418,9.2950052 -6.7502804,-7.3758448 6.2044196,-27.327615 17.29407,-44.407005 23.91277,-62.983545 26.42517,-84.080745 l 0.47263,-3.96875 0.003,-9.92187 0.003,-9.921875 -0.46858,-3.83645 c -2.6673,-21.83851 -9.37015,-40.19233 -21.1567404,-57.93168 -7.75664,-11.6741 -18.3662296,-22.89558 -29.6973296,-31.41009 -19.56886,-14.70459 -41.495662,-23.04467 -67.07187,-25.51146 l -3.307291,-0.31899 -7.143749,-0.007 -7.14375,-0.007 -3.57188,0.32824 c -17.21561,1.58207 -31.90417,5.70558 -46.81519,13.14241 -6.94627,3.46443 -11.40968,6.13159 -17.61084,10.52354 -2.58923,1.83381 -6.76898,5.07388 -8.58592,6.65564 -14.2015,12.36338 -24.55756,25.70814 -32.38073,41.72564 -6.77606,13.87361 -10.69935,27.7061 -12.51729,44.13272 l -0.45387,4.10104 -0.0155,8.202085 -0.0155,8.20208 0.33851,3.43958 c 2.45008,24.89505 11.12631,47.32523 25.73942,66.54271 20.04048,26.3549102 48.69233,43.81159 80.93981,49.31408 10.07182,1.71858 18.77387,2.25439 28.395795,1.74839 z m -13.049968,-1.60572 c -21.46821,-1.15078 -42.78934,-7.8777 -60.98645,-19.24153 -17.78799,-11.10832983 -33.25499,-27.32553 -43.45342,-45.56105 -9.62744,-17.21456 -14.93326,-35.28952 -16.23242,-55.29792 l -0.31783,-4.89479 0.16142,-5.423955 c 0.58909,-19.79494 5.32277,-38.30439 14.17594,-55.4302 8.91583,-17.24702 20.93496,-31.44288 37.04237,-43.75094 3.80422,-2.9069 10.68456,-7.27774 15.78315,-10.02649 15.44743,-8.328 31.31716,-13.06303 49.99079,-14.91568 l 3.175,-0.315 7.14375,0.005 7.143746,0.005 3.307291,0.31161 c 25.520999,2.40452 48.093003,11.1234 67.468753,26.06112 22.1512996,17.07754 38.10563,40.93786 45.38945,67.88172 2.98267,11.0333 4.35221,21.44417 4.35221,33.084235 0,8.99038 -0.68481,16.07505 -2.40016,24.83059 -5.28986,27.00065 -19.1454204,51.47534 -39.5363,69.8375502 -22.15178,19.9479298 -49.758462,31.3569698 -79.507286,32.8580698 -5.684344,0.28683 -7.060004,0.28495 -12.700004,-0.0174 z m 5.82084,-17.30988 v -1.98437 h 0.50098 0.50099 l 0.51342,1.91823 0.51342,1.91823 0.969969,0.0821 c 0.533483,0.0452 0.969968,0.0428 0.969968,-0.005 0,-0.0481 -0.242306,-0.96183 -0.538458,-2.03053 l -0.538459,-1.9431 0.472313,-0.3453598 0.472313,-0.34536 0.09351,-2.27553 c 0.104019,-2.53123 -0.02906,-3.35342 -0.641975,-3.96634 l -0.415376,-0.41537 h -2.362355 -2.36235 v 5.68854 5.6885398 h 0.92604 0.92605 z m 0,-5.6808698 v -1.87636 l 0.41374,-0.15877 0.41375,-0.15877 0.65721,0.29945 0.65721,0.29944 -0.0788,1.65357 -0.0788,1.65356 -0.99219,0.0821 -0.99218,0.0821 z m -11.27927,6.5407698 c 0.0878,-0.32742 0.16117,-0.73693 0.16315,-0.91002 l 0.004,-0.31471 -1.88412,-0.18566 -1.88412,-0.18565 0.17282,-1.47046 c 0.0951,-0.8087498 0.19877,-1.4913498 0.23048,-1.5168998 0.0317,-0.0256 0.6784,0.0358 1.43708,0.13621 l 1.37944,0.18266 0.14192,-0.36984 c 0.0781,-0.20342 0.14192,-0.5855 0.14192,-0.84907 v -0.47922 l -0.41851,-0.1606 c -0.23019,-0.0883 -0.81847,-0.1606 -1.30731,-0.1606 -0.48883,0 -0.94865,-0.0969 -1.02181,-0.21524 -0.0732,-0.11839 -0.0436,-0.803 0.0657,-1.52136 l 0.19878,-1.3061 0.24936,0.0338 c 0.13715,0.0186 0.9778,0.11204 1.8681,0.20762 l 1.61874,0.17379 0.16904,-0.8452 c 0.093,-0.46486 0.13228,-0.88196 0.0874,-0.92688 -0.0449,-0.0449 -1.24059,-0.22411 -2.65703,-0.39818 l -2.57533,-0.31649 -0.22456,0.242 c -0.27173,0.29284 -1.68077,10.7092798 -1.47631,10.9137398 0.14384,0.14384 3.72828,0.74602 4.79757,0.80598 l 0.56445,0.0316 z m 38.756392,-2.16902 c 0.778618,-0.20725 1.641821,-0.58147 1.91823,-0.83162 l 0.502561,-0.4548098 v -0.5682 c 0,-1.00031 -1.861454,-8.18822003 -2.289802,-8.84197003 l -0.413001,-0.63031 -1.492869,0.13838 c -0.821078,0.0761 -1.823146,0.29049 -2.226817,0.4764 l -0.733948,0.33802 -0.164764,0.65646003 -0.164763,0.65647 0.972342,4.12682 0.972342,4.1268198 0.668728,0.59531 c 0.787006,0.70061 0.658648,0.68949 2.451761,0.21223 z m -1.414686,-2.0643098 c -0.06309,-0.18191 -0.482555,-1.80798 -0.932153,-3.6135 l -0.81745,-3.28277 0.345144,-0.22535 c 0.18983,-0.12395 0.641473,-0.19452 1.003653,-0.15682 l 0.658508,0.0685 0.898819,3.53403 0.898819,3.53402 -0.366702,0.23224 c -0.201687,0.12773 -0.63833,0.23405 -0.970319,0.23628 l -0.603616,0.004 z m -51.633746,-3.59594 2.61027,-4.85271003 -0.23292,-0.23292 c -0.12811,-0.1281 -0.52804,-0.2661 -0.88875,-0.30666 l -0.65583,-0.0737 -1.78712,3.43958003 -1.78712,3.43958 0.19249,-2.91041 c 0.10587,-1.60073 0.1957,-3.37572003 0.19962,-3.94442003 l 0.007,-1.03399997 -0.74414,-0.25033 c -0.40928,-0.13768 -0.78353,-0.20817 -0.83168,-0.15663 -0.0481,0.0515 -0.23252,2.63836 -0.40971,5.74849 l -0.32216,5.65478 0.3601,0.2345898 c 0.19805,0.12903 0.65697,0.20375 1.01983,0.16606 l 0.65974,-0.0685 z m 66.52898,1.68635 c 0.065,-0.065 -0.19423,-0.89843 -0.57602,-1.85211 -0.38178,-0.95369 -0.69415,-1.77837 -0.69415,-1.83263 0,-0.0543 0.22497,-0.15748 0.49994,-0.22938 l 0.49993,-0.13074 1.09668,1.55509 c 0.60318,0.8553 1.20604,1.55508 1.3397,1.55508 0.13366,0 0.54387,-0.13707 0.91158,-0.30461 l 0.66856,-0.30462 -1.19271,-1.67144 -1.19272,-1.67145 0.32437,-0.51939 0.32436,-0.51939 -0.87804,-2.33319 c -0.48292,-1.28326 -1.06071,-2.54156 -1.28398,-2.79622 l -0.40594,-0.46302 -0.81889,-7.6e-4 c -0.6245,-5.8e-4 -3.732625,1.06311 -4.350929,1.48901 -0.05085,0.035 0.830036,2.40474997 1.95753,5.26606 l 2.049989,5.20237 0.8013,-0.16026 c 0.44072,-0.0881 0.85447,-0.21343 0.91944,-0.2784 z m -2.46009,-6.54935003 c -0.25289,-0.62272 -0.55427,-1.45167997 -0.66974,-1.84213997 l -0.20993,-0.70992 0.8006,-0.2791 c 0.44033,-0.1535 0.89828,-0.21872 1.01767,-0.14494 0.11938,0.0738 0.46862,0.80652 0.77609,1.62829997 l 0.55903,1.49414 -0.34347,0.32452 c -0.1889,0.17848003 -0.59703,0.40030003 -0.90695,0.49293003 l -0.56349,0.16842 z m -77.31997,0.72169003 c 1.12492,-2.69113 2.04531,-5.05327 2.04531,-5.24919 0,-0.35185 -1.28371,-1.09774 -1.50625,-0.8752 -0.0632,0.0632 -1.06953,2.41369 -2.23625,5.22325997 l -2.12132,5.10832003 0.46894,0.34289 c 0.25791,0.18859 0.65688,0.34289 0.8866,0.34289 h 0.41766 z m -11.95228,-1.88160003 0.32666,-1.64342997 0.69823,-0.13964 0.69823,-0.13965 1.24926,-2.19979 1.24926,-2.19979 -0.073,-0.92604 -0.073,-0.92604 -1.98198,-1.1244802 c -1.09008,-0.61847 -2.04996,-1.12448 -2.13305,-1.12448 -0.15088,0 -2.59302,4.2285902 -4.55626,7.8891902 l -1.03835,1.93607 0.48919,0.37061997 c 0.26906,0.20384 0.67947,0.37441 0.91203,0.37904 l 0.42284,0.008 0.44948,-0.99218997 c 0.24721,-0.54569 0.65224,-1.25694 0.90007,-1.58055 l 0.4506,-0.58838 0.36956,0.23112 0.36956,0.23111 -0.4357,1.73456 c -0.56057,2.23162997 -0.56368,2.20330997 0.29135,2.6513 l 0.72706,0.38095 0.18061,-0.29224 c 0.0993,-0.16072 0.3276,-1.03177003 0.50727,-1.93566003 z m -0.48835,-4.13167997 c -0.77227,-0.37245 -0.74796,-0.57375 0.2872,-2.37783 l 0.86649,-1.51013 0.86032,0.52319 0.86031,0.52319 -0.86985,1.58225 c -0.90804,1.65173 -1.03086,1.72889 -2.00447,1.25933 z m 105.58614,5.57856997 c 0.31786,-0.16533 1.38185,-0.76605 2.36444,-1.33493 l 1.78652,-1.03431997 -0.41253,-0.79774 -0.41252,-0.79774 -1.68793,0.9278 -1.68793,0.9278 -0.67825,-1.15735 c -0.37304,-0.63655 -0.67826,-1.22043 -0.67826,-1.29753 0,-0.0771 0.53579,-0.45415 1.19063,-0.83792 0.65484,-0.38376 1.18798,-0.77573 1.18474,-0.87105 -0.003,-0.0953 -0.2237,-0.45655 -0.48992,-0.80276 l -0.48404,-0.62946 -1.20019,0.70335 -1.20019,0.70336 -0.69114,-1.17934 c -0.38012,-0.64864 -0.69114,-1.23937 -0.69114,-1.31275 0,-0.0734 0.71438,-0.52614 1.5875,-1.00615 0.87313,-0.48 1.5875,-0.9511202 1.5875,-1.0469302 0,-0.0958 -0.21952,-0.4453 -0.48782,-0.77664 l -0.48783,-0.60244 -2.31413,1.26144 -2.31414,1.2614402 0.12164,0.46516 c 0.15169,0.58007 5.21239,9.53529997 5.3885,9.53529997 0.0707,0 0.38864,-0.13527 0.70649,-0.3006 z M -163.80931,-11.076435 c 1.77585,-2.31695 3.2362,-4.34778 3.24521,-4.51294 0.009,-0.16517 -0.27461,-0.49098 -0.63029,-0.72402 l -0.64668,-0.42372 -0.89779,1.12089 c -0.49379,0.61649 -1.34735,1.71621 -1.8968,2.44381 l -0.999,1.32292 0.16882,-0.79375 c 0.0929,-0.43656 0.51832,-1.86531 0.94549,-3.175 l 0.77665,-2.38125 -0.71167,-0.58752 c -0.39143,-0.32313 -0.7847,-0.50172 -0.87394,-0.39687 -0.0893,0.10485 -1.62551,2.12837 -3.41393,4.4967 l -3.25166,4.30606 0.47294,0.5225802 c 0.26011,0.28743 0.61865,0.52259 0.79674,0.52259 0.1781,0 1.02285,-0.9200002 1.87723,-2.0444502 0.85437,-1.12444 1.69967,-2.22577 1.87844,-2.44739 l 0.32503,-0.40295 -0.38222,1.32292 c -0.21022,0.7276 -0.62438,2.02616 -0.92034,2.88569 -0.29597,0.8595202 -0.53813,1.7431202 -0.53813,1.9635402 0,0.51961 0.80562,1.40862 1.16725,1.28807 0.1539,-0.0513 1.73279,-1.98896 3.50865,-4.3059102 z m 129.90643,2.5020602 1.4135,-1.09051 v -0.8668202 -0.86681 l -1.48006,-1.89159 -1.48006,-1.89158 -0.96733,0.71934 c -0.53204,0.39563 -1.01323,0.7547 -1.06932,0.79794 -0.0561,0.0432 0.0996,0.38629 0.34602,0.76236 l 0.44802,0.68375 0.56572,-0.0802 0.56573,-0.0802 0.62116,0.91619 0.62117,0.91618 -0.60688,0.467 c -0.33378,0.2568402 -0.78547,0.4651102 -1.00375,0.4628202 l -0.39687,-0.004 -2.05053,-2.7182302 c -1.12778,-1.49502 -2.05052,-2.82057 -2.05052,-2.94566 0,-0.41541 0.86881,-1.19516 1.33166,-1.19516 h 0.45588 l 0.38902,0.58589 0.38902,0.58589 0.70159,-0.4597 c 0.38587,-0.25283 0.70158,-0.54888 0.70158,-0.65789 0,-0.10901 -0.36585,-0.64205 -0.81301,-1.18453 l -0.81301,-0.98633 h -0.76458 -0.76457 l -1.39898,1.13798 -1.39897,1.13797 -0.0753,0.78025 -0.0752,0.78026 0.60442,0.8266 c 1.43533,1.96297 3.01589,4.0246202 3.98095,5.1926702 l 1.03836,1.25677 h 0.81082 0.81082 z m -58.777583,-4.3326602 c 10.957041,-1.26234 19.826776,-3.95866 29.896293,-9.0882 l 3.96875,-2.02173 3.83646,-2.55478 c 19.17921,-12.77187 32.02335,-31.73614 36.62019,-54.06941 7.032,-34.164345 -7.41117,-69.163265 -36.4879,-88.418045 -11.496675,-7.61316 -24.038029,-12.14046 -37.967706,-13.70593 l -3.571875,-0.40142 -5.688539,0.002 -5.68854,0.002 -3.57188,0.39672 c -17.79419,1.97636 -34.66785,9.5281 -47.74891,21.36984 -15.09815,13.66772 -24.561,31.38592 -27.51444,51.51792 -0.22416,1.52797 -0.54418,4.84486 -0.71114,7.37086 l -0.30358,4.592735 0.30914,4.79997 c 0.4625,7.1813 1.18342,11.5827 2.96792,18.11968 5.11087,18.72222 16.95398,35.51199 33.19206,47.05579 11.40078,8.10492 24.9672,13.25269 39.54437,15.00509 l 3.04271,0.36578 6.21933,0.0284 6.219325,0.0284 z m 8.06817,-5.91912 c -2.646046,-1.47356 -7.599179,-4.55059 -9.183893,-5.7053 -0.612756,-0.44648 -1.862912,-1.3463 -2.778125,-1.9996 -1.397759,-0.99775 -5.061619,-4.09119 -6.578399,-5.55423 -0.88187,-0.85062 -3.8727,-4.42639 -4.65856,-5.56965 -1.20148,-1.74792 -2.16737,-3.54122 -3.01673,-5.60094 l -0.74894,-1.81619 -0.28196,-2.0593 -0.28196,-2.05931 0.27808,-1.96067 c 0.48992,-3.4544 1.37834,-5.83793 3.59886,-9.6553 2.19211,-3.76855 5.37458,-7.72342 13.1599,-16.35387 0.414186,-0.45914 1.120703,-1.37059 1.570038,-2.02544 0.449335,-0.65484 0.891159,-1.25015 0.981831,-1.32291 0.384971,-0.30893 4.015162,-5.39471 5.854578,-8.20208 5.035182,-7.68486 7.406616,-13.945165 7.817578,-20.637495 l 0.154351,-2.51355 -0.444775,-2.17089 c -1.397961,-6.8233 -4.554169,-10.83 -14.937883,-18.9631 -3.215527,-2.51858 -14.193018,-9.93227 -18.285238,-12.34901 -1.09141,-0.64454 -2.17659,-1.29221 -2.41152,-1.43924 -0.23493,-0.14704 -0.9493,-0.5509 -1.5875,-0.89747 -0.6382,-0.34657 -1.96774,-1.15024 -2.95455,-1.78593 -0.9868,-0.6357 -1.84835,-1.15581 -1.91456,-1.15581 -0.24697,0 -7.81266,-4.54484 -11.3725,-6.83166 -2.86771,-1.8422 -6.55901,-4.69052 -7.19696,-5.55338 -0.31702,-0.42879 -0.77698,-1.39286 -1.02213,-2.14237 l -0.44573,-1.36275 0.12095,-1.25883 0.12096,-1.25883 0.7222,-1.23234 0.7222,-1.23234 1.90176,-0.90986 c 8.76527,-4.19359 17.33249,-6.61363 27.3852,-7.73567 l 3.35614,-0.3746 4.8273,-0.003 4.827299,-0.003 3.903948,0.41381 c 9.943143,1.05396 19.777062,3.97948 29.039363,8.639 2.81748,1.41737 6.55649,3.63308 6.70278,3.97202 0.0485,0.11238 0.18784,0.20433 0.30963,0.20433 0.20647,0 4.47002,2.83371 4.76155,3.16469 0.0728,0.0826 1.32236,1.10099 2.77689,2.26306 4.86056,3.88328 11.12083,10.48694 14.56697,15.36599 0.71018,1.00547 1.35942,1.88766 1.44275,1.96042 0.19538,0.1706 2.58475,3.97265 3.57491,5.68855 3.3128,5.74084 6.69397,14.05916 8.31008,20.44439 0.74663,2.94992 1.63397,7.53094 1.48717,7.67773 -0.0691,0.0691 -0.0172,0.32801 0.11519,0.57544 0.26056,0.48686 0.43508,2.19099 0.85539,8.35252 l 0.2713,3.977165 -0.29007,3.96033 c -0.15954,2.17818 -0.29185,4.25598 -0.29402,4.61733 -0.008,1.30733 -1.12169,7.61916 -1.91509,10.85237 -0.935,3.81019 -2.60247,9.1104 -3.39989,10.80682 -0.3013,0.641 -0.77423,1.73986 -1.05096,2.44191 -0.27672,0.70205 -1.09759,2.46106 -1.82416,3.90892 -9.20874,18.35056 -24.76554,32.70319 -43.443592,40.08087 -3.396183,1.34146 -8.081718,2.90181 -8.699535,2.89707 -0.218281,-0.002 -0.515937,0.0834 -0.661458,0.18899 -0.145521,0.10562 -0.56224,0.25996 -0.926042,0.34297 l -0.661458,0.15094 z m -93.115747,-46.03783 c -1.1038,-2.16363 -3.24845,-8.26287 -4.15215,-11.80842 -1.26703,-4.97107 -1.33198,-5.28047 -1.97202,-9.39271 l -0.55592,-3.57188 -0.14074,-6.41 -0.14074,-6.410005 0.3072,-2.9827 c 0.94757,-9.20011 3.37455,-18.50993 6.65781,-25.53914 0.425,-0.90989 0.77346,-1.74333 0.77436,-1.85208 8.9e-4,-0.10875 0.16002,-0.49539 0.3536,-0.85919 1.26823,-2.38336 2.76118,-5.06762 3.38462,-6.08542 0.40112,-0.65484 1.11694,-1.84546 1.5907,-2.64583 0.47377,-0.80036 1.00436,-1.60088 1.17909,-1.77892 0.17473,-0.17804 0.59321,-0.77335 0.92996,-1.32292 0.81372,-1.32798 3.33291,-4.47738 6.05415,-7.56868 1.75699,-1.99593 6.75397,-6.75466 9.24534,-8.80454 2.58978,-2.13085 6.03296,-4.60202 6.41218,-4.60202 h 0.21748 v 1.43879 c 0,3.28515 1.73145,7.88636 4.24209,11.27303 2.47068,3.33276 6.48054,6.74876 15.51515,13.21734 1.11786,0.80037 3.46987,2.59582 5.22668,3.9899 l 3.1942,2.53469 3.08109,3.15385 c 1.69461,1.73462 3.43623,3.57057 3.87029,4.0799 1.40685,1.6508 4.36135,6.17921 5.0061,7.67291 0.34547,0.80037 0.74199,1.69334 0.88116,1.98438 0.13917,0.29104 0.43104,1.30307 0.6486,2.24896 1.80235,7.8361 -2.69507,14.87998 -13.78521,21.590445 -2.51146,1.51965 -10.38068,5.51374 -13.46036,6.83192 -0.58209,0.24915 -1.29646,0.56121 -1.5875,0.69347 -0.96554,0.43878 -9.23155,3.61383 -10.98021,4.2176 -4.26984,1.47427 -12.58701,4.89983 -15.47813,6.37491 -5.57307,2.84343 -11.24543,6.83182 -14.73992,10.36404 -0.53987,0.5457 -1.04347,0.99219 -1.1191,0.99219 -0.0756,0 -0.37256,-0.46074 -0.65985,-1.02387 z m 2.55856,43.8239 c 1.9301,-1.92613 3.50927,-3.63409 3.50927,-3.79545 0,-0.16137 -0.24313,-0.51343 -0.54029,-0.78236 l -0.54029,-0.48896 -3.23384,3.22608 -3.23384,3.22607 h -0.44989 -0.44989 l -0.30167,-0.56365 -0.30166,-0.56366 3.20277,-3.21048 c 1.76152,-1.76576 3.20277,-3.33913 3.20277,-3.49637 0,-0.15725 -0.23589,-0.49939 -0.5242,-0.7603 l -0.52421,-0.4744 -0.46798,0.36625 c -0.25739,0.20144 -1.9265,1.83093 -3.70913,3.62109 l -3.24115,3.25483 v 0.70582 0.70582 l 1.24683,1.26586 1.24682,1.26586 h 0.80015 0.80015 z m 152.52674,2.25522 1.26586,-1.24682 v -0.79202 -0.79203 l -3.25282,-3.25282 -3.25281,-3.25281 h -0.75373 -0.75373 l -1.28512,1.28512 -1.28512,1.28511 v 0.7358 0.73579 l 3.26601,3.27075 3.26602,3.27076 h 0.75979 0.75979 z m -4.75341,-3.33974 c -1.34607,-1.35568 -2.44739,-2.58624 -2.44739,-2.7346 0,-0.32663 0.86957,-1.1455 1.21642,-1.1455 0.13679,0 1.40781,1.16346 2.82448,2.58547 l 2.57577,2.58547 -0.41292,0.58953 c -0.22711,0.32424 -0.61453,0.5884 -0.86094,0.58701 l -0.44802,-0.002 z m 13.85304,-6.72437 c 0.19332,-0.25466 0.35527,-0.59988 0.3599,-0.76714 0.005,-0.16727 -1.06315,-1.10198 -2.37283,-2.07713 -1.30969,-0.97515 -2.38125,-1.80504 -2.38125,-1.8442 0,-0.0392 1.37032,0.34231 3.04516,0.84772 l 3.04517,0.91892 0.37711,-0.14471 c 0.20741,-0.0796 0.50454,-0.38283 0.6603,-0.67387 l 0.2832,-0.52915 -3.24245,-2.4654 c -1.78335,-1.35597 -3.81956,-2.87946 -4.52491,-3.38555 l -1.28245,-0.92014 -0.50348,0.62177 c -0.27692,0.34198 -0.50349,0.70584 -0.50349,0.80858 0,0.10275 1.0858,0.98253 2.41288,1.95507 1.32708,0.97254 2.24981,1.76628 2.05052,1.76388 -0.1993,-0.002 -1.64192,-0.40824 -3.20584,-0.90185 l -2.84348,-0.89747 -0.52756,0.74089 -0.52756,0.74089 4.42937,3.32891 c 2.43616,1.83091 4.53532,3.33209 4.6648,3.33596 0.12947,0.004 0.39358,-0.20132 0.58689,-0.45598 z m -173.47812,-1.22817 c 0.79644,-0.59781 1.54977,-1.15806 1.67409,-1.24498 l 0.22602,-0.15806 -0.54559,-1.61954 c -0.71234,-2.11455 -0.696,-2.28684 0.283,-2.98395 l 0.82859,-0.59 0.42818,0.26828 c 0.23551,0.14755 0.46473,0.51251 0.50939,0.81102 l 0.0812,0.54275 -0.5836,0.40876 -0.58359,0.40877 0.44235,0.67511 c 0.24329,0.37132 0.58843,0.67135 0.76698,0.66676 0.4255,-0.011 1.64083,-1.08961 2.01462,-1.78805 l 0.29446,-0.5502 -0.23923,-0.61263 c -0.13157,-0.33695 -0.67665,-1.11865 -1.21128,-1.73712 l -0.97205,-1.12448 h -0.67463 -0.67462 l -1.8183,1.34796 c -1.00006,0.74138 -1.81824,1.42599 -1.81817,1.52136 8e-5,0.0954 0.2382,0.79975 0.52917,1.56529 0.29097,0.76555 0.52698,1.59898 0.52446,1.85209 l -0.005,0.46018 -0.84201,0.5885 -0.84202,0.58851 -0.47633,-0.43108 c -0.6314,-0.57141 -0.60119,-1.08917 0.0965,-1.65415 l 0.57287,-0.46388 -0.50672,-0.6947 c -0.2787,-0.38208 -0.56889,-0.69844 -0.64487,-0.70301 -0.076,-0.005 -0.582,0.35754 -1.12448,0.8047 l -0.98633,0.81301 0.007,0.84063 0.007,0.84063 0.79843,1.05547 c 0.43914,0.58051 1.0609,1.20037 1.3817,1.37748 l 0.58328,0.322 0.52514,-0.15825 c 0.28883,-0.087 1.17677,-0.64737 1.97321,-1.24518 z m -15.33784,-32.82825 0.32217,-0.3882 -0.41655,-1.13316 c -1.62406,-4.41791 -3.52607,-12.39537 -4.24438,-17.8019 -0.232,-1.74625 -0.48505,-3.65125 -0.56232,-4.23334 l -0.1405,-1.05833 2.52677,2.51069 2.52677,2.51068 0.44489,-0.28063 c 0.24469,-0.15434 0.49383,-0.42744 0.55365,-0.60689 l 0.10875,-0.32626 -3.12739,-3.16639 -3.1274,-3.1664 -0.0985,-1.9124 -0.0985,-1.9124 2.61954,2.59071 2.61955,2.5907 0.44722,-0.17162 0.44723,-0.17161 v -0.47112 -0.47111 l -3.04271,-3.07391 -3.04271,-3.07391 v -1.98292 c 0,-1.0906 0.0918,-1.982915 0.20396,-1.982915 0.11217,0 1.27055,1.071555 2.57417,2.381245 l 2.37022,2.38125 h 0.44023 c 0.24212,0 0.51586,-0.1971 0.6083,-0.438 l 0.16808,-0.43801 -0.60279,-0.67309 c -1.6577,-1.85104 -6.08434,-6.123805 -6.34433,-6.123805 -0.16318,0 -1.77041,1.45695 -3.57162,3.237655 l -3.27493,3.23767 0.0763,0.52994 0.0763,0.52994 0.49773,0.0949 0.49772,0.0949 2.34655,-2.33567 2.34654,-2.33567 v 1.97489 1.97488 l -3.10642,3.11454 -3.10642,3.11453 0.29051,0.46132 c 0.15978,0.25372 0.45634,0.49287 0.65902,0.53144 l 0.36852,0.0701 2.38125,-2.40039 2.38125,-2.40039 0.0766,1.81313 0.0766,1.81313 -2.92091,2.99595 -2.92092,2.99596 v 0.50604 0.50604 l 0.4207,0.16144 0.42069,0.16143 2.62201,-2.61217 2.62202,-2.61217 v 0.4445 c 0,0.93203 0.82241,6.81287 1.34249,9.59974 0.91364,4.89581 3.14516,13.14831 3.98862,14.75052 0.29727,0.56468 0.84316,0.59669 1.27627,0.0748 z m 201.84323955,-1.28266 c 1.96653005,-5.25601 4.15564005,-15.20528 4.68258005,-21.28175 0.1041,-1.20055 0.26569,-2.18281 0.35907,-2.18281 0.0934,0 1.23639,1.07156 2.54001,2.38125 l 2.37022,2.38125 h 0.44023 c 0.5561604,0 0.8357404,-0.69451 0.5136404,-1.27594 -0.13523,-0.24412 -1.5040204,-1.69188 -3.0417504,-3.21725 l -2.79588,-2.7734 v -1.51046 -1.51047 l 0.25071,-0.15495 0.25071,-0.15495 2.32898,2.25706 2.32897,2.25706 0.3938404,-0.0702 c 0.21661,-0.0386 0.43679,-0.29328 0.48929,-0.56589 l 0.0954,-0.49564 -2.9161904,-2.9409 -2.91619,-2.9409 -0.18387,-2.05052 c -0.10113,-1.12779 -0.11208,-2.050515 -0.0243,-2.050515 0.0877,0 1.17843,1.012025 2.42375,2.248955 l 2.2642,2.24895 h 0.52605 0.5260604 l 0.16166,-0.42127 0.16166,-0.42128 -3.1465304,-3.16811 c -1.73059,-1.742455 -3.36456,-3.288655 -3.63104,-3.435995 l -0.48452,-0.26788 -3.29598005,3.25848 -3.29598995,3.258475 0.0763,0.52994 0.0763,0.52995 0.49796,0.095 0.49796,0.095 2.47859995,-2.4683 2.47861005,-2.468295 v 0.817735 c 0,0.44976 0.0755,1.36873 0.16782,2.04216 l 0.16783,1.22442 -3.21897005,3.21897 c -1.77043995,1.77043 -3.17831995,3.34092 -3.12863995,3.48996 0.0497,0.14905 0.29053,0.39728 0.53522,0.55162 l 0.44489,0.28063 2.51592995,-2.50546 2.51592005,-2.50546 v 1.85118 1.85117 l -3.05062005,3.03839 -3.05062995,3.03839 0.0741,0.52917 0.0741,0.52917 0.52947,0.0759 0.52946,0.0759 2.07142995,-2.12393 c 1.13929005,-1.16817 2.19273005,-2.1989 2.34099005,-2.29053 l 0.26956,-0.1666 -0.18067,1.95003 c -0.49535,5.34618 -1.94198005,12.20062 -3.88269,18.39692 l -1.09067,3.48232 0.16128,0.42029 0.16128,0.42028 h 0.51846 0.51846 z M -5.6777504,-122.42716 c 0.25665,-0.66881 -1.54383,-7.35012 -2.88188,-10.69423 l -0.43929,-1.09789 h -0.63273 -0.6327296 v 0.61082 c 0,0.33595 0.3500596,1.57001 0.7779196,2.74235 0.42785,1.17234 1.13522,3.5169 1.57194,5.21012 0.43672,1.69322 0.86759,3.1976 0.9575,3.34306 0.2448,0.39611 1.11319,0.31857 1.27927,-0.11423 z m 10.10567,-2.13293 4.17956,-1.18874 0.51326,-0.46449 0.51326,-0.46449 -0.11142,-1.32334 c -0.1393,-1.65453 -0.67102,-2.7805 -1.54413,-3.26988 l -0.67489,-0.37827 -4.48449,1.25433 -4.48449,1.25432 -0.46302,0.41211 -0.46302,0.41211 v 0.78819 c 0,1.18181 0.55135,2.89024 1.1494,3.56157 l 0.53033995,0.59531 h 0.58004 c 0.31902,0 2.46084005,-0.53493 4.75960005,-1.18873 z m -4.79392005,-1.5888 c -0.0912,-0.36348 -0.10854,-0.80996 -0.0385,-0.99219 l 0.12739,-0.33132 3.63562005,-1.01479 3.63562,-1.01479 0.24481,0.2448 c 0.13464,0.13464 0.26982,0.59025 0.30041,1.01247 l 0.0556,0.76767 -3.30729,0.97026 c -1.81902,0.53365 -3.57292005,0.98118 -3.89757005,0.99451 l -0.59027,0.0242 z m -196.06458955,0.0298 0.8772,-0.36652 0.53694,-0.89025 c 0.74573,-1.23644 1.48359,-3.61451 1.44446,-4.65538 -0.0448,-1.19075 -0.44078,-1.83898 -1.43879,-2.35506 -0.83676,-0.43271 -5.92954,-2.21419 -6.32977,-2.21419 -0.11419,0 -1.05018,1.12095 -2.07997,2.491 l -1.87235,2.49099 -1.77065,-0.60269 -1.77064,-0.60269 0.0322,-0.98501 0.0322,-0.98501 0.41942,-0.41943 0.41942,-0.41942 1.03429,0.30988 c 0.56886,0.17043 1.15811,0.30988 1.30944,0.30988 0.32285,0 1.17373,-2.34268 0.97039,-2.67169 -0.0763,-0.12341 -0.90931,-0.4624 -1.8512,-0.75332 l -1.71253,-0.52894 -0.79502,0.159 -0.79501,0.159 -0.64811,0.77024 -0.64812,0.77024 -0.67745,2.14451 -0.67745,2.14452 0.28237,0.8556 c 0.15531,0.47058 0.49459,1.04765 0.75396,1.28238 0.45859,0.41501 6.34813,2.55485 6.99206,2.54041 0.1769,-0.004 1.13147,-1.07553 2.12125,-2.38125 l 1.7996,-2.37403 0.44936,0.0205 c 0.24714,0.0113 1.04466,0.23235 1.77227,0.49127 l 1.32291,0.47076 -0.0322,0.98669 -0.0322,0.98668 -0.41339,0.41339 -0.41339,0.4134 -1.23302,-0.34523 -1.23302,-0.34522 -0.23867,0.3721 c -0.13127,0.20466 -0.3558,0.78524 -0.49894,1.29018 l -0.26027,0.91808 0.22415,0.22415 c 0.20555,0.20555 3.06379,1.19973 3.54413,1.23276 0.11382,0.008 0.60168,-0.1507 1.08414,-0.35229 z m 195.1887096,-5.49043 c 0.49465995,-0.16538 0.99023995,-0.38126 1.10128995,-0.47972 l 0.20191,-0.17903 -0.2889,-0.82872 -0.28889,-0.82873 -0.65784995,0.25012 c -0.36181,0.13756 -0.81704,0.25011 -1.01161,0.25011 h -0.35377 l -0.27103,-0.77748 -0.27103,-0.77749 0.3113,-0.24039 c 0.35435,-0.27365 7.10317,-2.75307 7.19265,-2.64248 0.2258,0.2791 0.65927,1.28098 0.65927,1.52379 0,0.16266 -0.36893,0.42435 -0.81983,0.58154 l -0.81983,0.28579 0.16112,0.80563 c 0.0886,0.4431 0.21865,0.86315 0.28896,0.93346 0.25528,0.25528 2.26018,-0.52142 2.7765,-1.07563 l 0.52974,-0.5686 v -0.60622 c 0,-0.85328 -0.77408,-2.75441 -1.40929,-3.46119 l -0.53503,-0.59531 h -0.55269 c -0.30398,0 -2.45063,0.69446 -4.77032005,1.54324 l -4.21761995,1.54325 -0.52454,0.70256 -0.52455,0.70257 0.44998,1.42749 c 0.24749,0.78513 0.69504,1.73904 0.99456,2.11982 l 0.54458,0.69232 h 0.60277 c 0.33152,0 1.00749,-0.13532 1.50215,-0.3007 z m -188.4323496,-9.60962 0.74511,-0.38531 1.06904,-2.06208 c 1.44346,-2.78428 1.54061,-3.8169 0.46073,-4.89678 -0.62143,-0.62142 -13.83394,-7.88093 -14.34353,-7.88093 -0.13143,0 -0.50812,0.554 -0.83709,1.23112 l -0.59812,1.23112 0.34696,0.22478 c 0.19083,0.12363 2.93837,1.60583 6.10565,3.29377 3.16727,1.68794 6.02282,3.28287 6.34567,3.5443 l 0.587,0.47532 -0.45831,0.96107 c -0.25206,0.52859 -0.65547,1.03674 -0.89646,1.12921 l -0.43816,0.16814 -1.21532,-0.63931 c -0.66843,-0.35162 -2.94198,-1.57512 -5.05234,-2.71889 -2.11036,-1.14377 -4.51212,-2.42061 -5.33724,-2.83742 l -1.50023,-0.75783 -0.71057,1.21248 -0.71056,1.21249 0.35871,0.33674 c 0.38219,0.35878 11.27867,6.24221 13.05871,7.05089 1.28943,0.58581 2.043,0.61253 3.02035,0.10712 z m 180.8445296,-2.36714 c 1.73495,-0.96167 3.20432,-1.79835 3.26526,-1.85929 0.13687,-0.13686 -1.74307,-3.53039 -2.06648,-3.73028 -0.18823,-0.11633 -2.19526,0.72426 -2.6031496,1.09025 -0.0561,0.0503 0.0893,0.38346 0.3230996,0.74028 l 0.42509,0.64876 -1.4435796,0.81471 c -0.79396,0.44808 -1.65373,0.81378 -1.9106,0.81266 l -0.46703,-0.002 -0.59531,-1.04257 c -0.32742,-0.57341 -0.59531,-1.22232 -0.59531,-1.44202 v -0.39945 l 1.12448,-0.63889 c 0.61846,-0.3514 2.89061,-1.61549 5.0492196,-2.80909 l 3.92474,-2.1702 0.37323,0.14322 c 0.52073,0.19983 1.4324,1.76312 1.43359,2.45827 l 9.9e-4,0.57748 -0.46302,0.15449 c -0.25466,0.085 -0.744,0.37127 -1.08741,0.63621 l -0.62438,0.48172 0.45901,0.90297 c 0.25246,0.49664 0.57463,1.04802 0.71594,1.22529 l 0.25693,0.32231 1.28216,-0.64972 c 1.45388995,-0.73675 2.51105995,-1.6987 2.77265995,-2.52295 0.28593005,-0.90088 -0.0852,-2.09837 -1.30744,-4.21883 l -1.14381995,-1.98437 -0.83379,-0.49123 -0.83379,-0.49123 -0.85577,0.16054 c -1.14761,0.2153 -11.7556696,6.09089 -12.7510596,7.06256 l -0.78774,0.76896 v 0.99559 0.99558 l 1.27039,2.26326 1.27038,2.26326 0.70798,0.45402 0.70798,0.45403 0.92604,-0.11289 0.92604,-0.11288 z m -171.5659696,-12.1965 c 0.002,-0.14552 -1.71741,-1.57427 -3.82094,-3.175 -2.10352,-1.60073 -3.8298,-2.98468 -3.83617,-3.07545 -0.006,-0.0908 2.15823,0.53431 4.81024,1.38907 2.65202,0.85475 4.96507,1.55409 5.14012,1.55409 0.29714,0 1.95414,-1.8065 1.93612,-2.1108 -0.005,-0.076 -0.56771,-0.55488 -1.25156,-1.0642 -1.40469,-1.04618 -7.22862,-5.53035 -10.71257,-8.2482 -1.27326,-0.99328 -2.4284,-1.80596 -2.56698,-1.80596 -0.13858,0 -0.60914,0.51914 -1.04569,1.15365 l -0.79373,1.15365 3.99663,3.07968 c 2.19815,1.69383 3.84047,3.07968 3.64959,3.07968 -0.19087,0 -2.38204,-0.66413 -4.86925,-1.47585 -2.48722,-0.81172 -4.65811,-1.51739 -4.82421,-1.56816 l -0.30198,-0.0923 -0.82249,1.02349 c -0.45238,0.56291 -0.81703,1.11976 -0.81034,1.23743 0.007,0.11768 2.0393,1.76177 4.51691,3.65354 2.47762,1.89177 5.71287,4.37546 7.18946,5.51932 l 2.68471,2.07974 0.86424,-1.02141 c 0.47533,-0.56177 0.86588,-1.14047 0.86789,-1.28599 z m 165.0753,-4.5255 c 3.79944,-3.01966 6.9080796,-5.56839 6.9080796,-5.66385 0,-0.0955 -0.39916,-0.63532 -0.88702,-1.19969 l -0.8870096,-1.02612 -0.63434,0.41576 c -0.5717,0.37471 -5.72255,4.44014 -6.95439,5.48892 l -0.49922,0.42503 0.42743,-0.83585 c 0.23509,-0.45972 1.50472,-2.53846 2.82139,-4.61942 l 2.39396,-3.78356 -0.14126,-0.36812 c -0.21886,-0.57032 -1.29999,-1.87144 -1.56863,-1.88779 -0.2748,-0.0167 -2.19087,1.40039 -5.448,4.02932 -1.23692,0.99836 -2.44051,1.96962 -2.67464,2.15835 -0.23412,0.18874 -1.74903,1.38654 -3.36645,2.66178 l -2.94078,2.31862 0.51808,0.6925 c 1.0021,1.33947 1.24773,1.61854 1.42458,1.61854 0.0982,0 1.65299,-1.18157 3.45515,-2.6257 1.80216,-1.44414 3.59196,-2.8323 3.97733,-3.0848 l 0.70067,-0.4591 -1.56521,2.48949 c -0.86086,1.36922 -2.17106,3.45849 -2.91156,4.64283 l -1.34635,2.15334 0.81118,1.10303 0.81118,1.10303 0.33388,-0.12812 c 0.18364,-0.0705 3.44252,-2.59876 7.24195,-5.61842 z m -155.02255,-6.8458 0.89192,-0.92023 -0.49912,-0.60113 c -0.27452,-0.33062 -1.2147,-1.34533 -2.0893,-2.25492 l -1.59017,-1.65379 0.58672,-0.58672 0.58671,-0.58671 0.861,0.49886 c 0.47355,0.27437 1.65833,1.01471 2.63285,1.64519 0.97452,0.63049 1.87309,1.14634 1.99683,1.14634 0.12373,0 0.67497,-0.46085 1.22498,-1.02411 l 1.00002,-1.02411 -2.73226,-1.71586 -2.73226,-1.71586 0.0839,-0.81077 0.0839,-0.81077 -0.4416,-0.85396 c -0.24288,-0.46969 -1.64984,-2.0868 -3.12658,-3.5936 l -2.68497,-2.73963 -0.95249,5.8e-4 -0.95249,5.9e-4 -1.03189,0.78335 c -0.56754,0.43085 -1.91904,1.60937 -3.00335,2.61896 l -1.97147,1.8356 3.42535,3.6649 c 1.88394,2.01569 4.21234,4.49834 5.17423,5.51698 0.96189,1.01865 2.19674,2.3581 2.7441,2.97657 0.54736,0.61846 1.13659,1.12447 1.30939,1.12447 0.1728,0 0.71555,-0.4141 1.20611,-0.92022 z m -7.47675,-10.02124 -2.01199,-2.21022 0.98803,-0.96478 c 0.54341,-0.53063 1.13703,-0.96478 1.31915,-0.96478 0.34337,0 2.94146,2.58259 3.67418,3.65228 l 0.41756,0.60957 -1.01952,1.04407 c -0.56073,0.57424 -1.09509,1.04407 -1.18747,1.04407 -0.0924,0 -1.07335,-0.99459 -2.17994,-2.21021 z m 149.73347,4.65761 c 2.75647,-2.87404 5.57628,-5.83743 6.26624,-6.58531 l 1.25448,-1.35979 -1.1333,-0.95894 -1.13331,-0.95893 -4.03733,4.17081 c -2.22053,2.29394 -5.06716,5.27674 -6.32583,6.62844 l -2.2885,2.45763 0.88763,0.91581 c 0.4882,0.50369 1.025,0.9158 1.1929,0.9158 0.16789,0 2.56055,-2.35148 5.31702,-5.22552 z m -12.8936,-3.13875 c 0.2991,-0.38024 1.66621,-1.95782 3.03801,-3.50573 6.75469,-7.62179 8.09433,-9.18708 8.09621,-9.45994 0.003,-0.36669 -2.05586,-1.75636 -2.34074,-1.5803 -0.11416,0.0706 -1.74046,1.97672 -3.614,4.23592 -1.87354,2.2592 -3.44957,4.0645 -3.5023,4.01178 -0.0527,-0.0527 0.86338,-2.33843 2.03578,-5.07934 1.17239,-2.74091 2.12789,-5.10551 2.12332,-5.25465 -0.005,-0.14915 -0.3211,-0.49933 -0.7034,-0.77818 l -0.69507,-0.507 -0.61055,0.37471 c -0.3358,0.20609 -2.28147,1.96592 -4.32369,3.91073 -2.04223,1.94481 -3.71315,3.45896 -3.71315,3.36479 0,-0.0942 1.19063,-2.22963 2.64584,-4.74546 1.45521,-2.51583 2.64583,-4.71291 2.64583,-4.88239 0,-0.40846 -2.01599,-1.73203 -2.33646,-1.53398 -0.13768,0.0851 -1.26465,2.03114 -2.50436,4.32454 -1.23972,2.2934 -3.158,5.82536 -4.26286,7.8488 -1.10485,2.02344 -2.00882,3.71436 -2.00882,3.7576 0,0.0432 0.54158,0.45123 1.20351,0.90665 l 1.20351,0.82804 0.84701,-0.6661 c 0.46586,-0.36636 2.27576,-1.97686 4.02201,-3.5789 1.74625,-1.60204 3.20485,-2.8298 3.24133,-2.72836 0.0365,0.10144 -0.76719,2.25885 -1.78594,4.79425 -1.01874,2.5354 -1.85226,4.76328 -1.85226,4.95085 0,0.37324 1.78306,1.68302 2.29117,1.68302 0.17394,0 0.56097,-0.3111 0.86007,-0.69135 z m -117.03986,-1.72873 1.15935,-0.83258 -0.16858,-0.2919 c -0.0927,-0.16054 -1.13838,-1.66111 -2.3237,-3.3346 -1.18531,-1.67349 -3.4465,-4.88818 -5.02486,-7.14375 -1.57836,-2.25557 -2.90472,-4.14519 -2.94746,-4.19916 -0.12699,-0.16033 -2.48223,1.40114 -2.48274,1.64601 -2.6e-4,0.12374 1.94288,2.98124 4.3181,6.35 6.09293,8.6416 6.09075,8.63856 6.20629,8.63856 0.0573,0 0.62596,-0.37466 1.2636,-0.83258 z m 11.36258,-6.92503 1.05833,-0.60516 -0.0272,-0.51497 c -0.033,-0.62507 -4.56063,-17.36178 -4.74723,-17.54839 -0.0726,-0.0726 -0.66517,0.12703 -1.31683,0.44363 l -1.18482,0.57563 7.7e-4,0.46646 c 6.1e-4,0.37039 2.81851,10.30638 3.30261,11.6451 0.0658,0.1819 0.0783,0.33073 0.0279,0.33073 -0.0504,0 -1.7328,-2.05383 -3.73856,-4.56406 -2.00575,-2.51023 -3.80734,-4.73955 -4.00354,-4.95403 l -0.35671,-0.38996 -1.18809,0.64902 c -0.65345,0.35696 -1.18809,0.74942 -1.18809,0.87213 0,0.4744 11.61968,14.20939 12.01594,14.20338 0.15795,-0.002 0.76344,-0.27667 1.34552,-0.60951 z m 90.07867,-2.98178 0.0119,-0.28836 -2.64583,-1.14308 -2.64584,-1.14308 v -0.3179 c 0,-0.27494 1.50644,-3.81305 1.72376,-4.04854 0.0434,-0.0471 0.99981,0.3399 2.12528,0.8599 1.12548,0.52 2.08666,0.94546 2.13597,0.94546 0.1728,0 1.15874,-2.09936 1.15874,-2.46728 v -0.37169 l -1.98437,-0.8652 c -1.09141,-0.47586 -1.98438,-0.98057 -1.98438,-1.12156 0,-0.141 0.38542,-1.11763 0.85648,-2.1703 l 0.85648,-1.91393 2.58851,1.14769 c 1.42369,0.63122 2.71184,1.14768 2.86257,1.14768 0.15073,0 0.51166,-0.53715 0.80207,-1.19367 0.50146,-1.13363 0.49087,-1.71674 -0.0312,-1.71674 -0.12975,0 -1.79548,-0.71438 -3.7016,-1.5875 -1.90613,-0.87313 -3.61724,-1.5875 -3.80248,-1.5875 h -0.33679 l -3.63966,8.07368 c -2.00182,4.44052 -3.593456,8.21229 -3.536981,8.38172 0.05648,0.16943 1.880511,1.1174 4.053421,2.1066 l 3.95074,1.79856 0.58559,-1.1183 c 0.32207,-0.61507 0.59096,-1.24807 0.59754,-1.40666 z m -74.87242,-3.40364 c 1.9134,-0.63065 3.54216,-1.2099 3.61947,-1.2872 0.15419,-0.1542 -0.41479,-1.98107 -0.76984,-2.47178 l -0.22229,-0.30723 -2.78071,0.93116 c -1.52939,0.51214 -2.82095,0.88852 -2.87013,0.83639 -0.0492,-0.0521 -0.3867,-1.06707 -0.75005,-2.25544 l -0.66062,-2.16069 2.22073,-0.70712 c 1.2214,-0.38892 2.22073,-0.79439 2.22073,-0.90104 0,-0.45449 -0.86033,-2.66943 -1.03686,-2.66943 -0.10636,0 -1.06852,0.29766 -2.13814,0.66146 -1.06962,0.3638 -2.01954,0.66146 -2.11093,0.66146 -0.0914,0 -0.44354,-0.86321 -0.78256,-1.91823 -0.33902,-1.05503 -0.66384,-2.04359 -0.72183,-2.19681 l -0.10544,-0.27857 2.85257,-0.89117 c 1.56891,-0.49015 2.89446,-0.92262 2.94567,-0.96106 0.0512,-0.0384 -0.10719,-0.67291 -0.352,-1.40994 l -0.44509,-1.34006 h -0.31938 c -0.35802,0 -8.11679,2.56967 -8.29408,2.74696 -0.10045,0.10045 4.54202,14.76668 5.26934,16.64658 l 0.28645,0.74041 0.73304,-0.161 c 0.40317,-0.0885 2.29855,-0.67699 4.21195,-1.30765 z m 59.273953,-3.39471 v -3.25025 l 0.795105,-0.46968 c 0.437307,-0.25832 0.960206,-0.79001 1.161998,-1.18152 0.554483,-1.07581 2.011647,-6.71133 2.011647,-7.77997 v -0.93888 l -0.808206,-0.79017 -0.808205,-0.79017 -3.297043,-0.86861 c -1.813373,-0.47774 -3.362516,-0.80314 -3.442541,-0.72312 -0.273242,0.27324 -4.641696,17.19346 -4.520524,17.50923 0.06645,0.17315 0.673268,0.44124 1.348497,0.59575 l 1.227688,0.28094 0.220363,-0.42842 c 0.1212,-0.23564 0.492345,-1.52975 0.824767,-2.87582 l 0.604404,-2.4474 0.555087,0.004 c 0.305299,0.002 0.69992,0.0961 0.876936,0.20857 l 0.321848,0.20451 0.07503,3.15684 0.07503,3.15684 1.058333,0.31843 c 0.582084,0.17514 1.207162,0.32758 1.389063,0.33876 l 0.330729,0.0203 z m -2.579687,-6.87329 c -0.618464,-0.14872 -1.12448,-0.39241 -1.12448,-0.54153 0,-0.30045 1.366804,-5.55029 1.484725,-5.70277 0.04082,-0.0528 0.671347,0.0473 1.401178,0.22237 l 1.326965,0.31834 0.13751,0.43908 c 0.127539,0.40725 -0.927762,4.71918 -1.303935,5.32784 -0.192845,0.31203 -0.387737,0.30561 -1.921963,-0.0633 z m -43.946536,6.98376 c 0.095,-0.0921 -0.0114,-1.45019 -0.23641,-3.01791 -0.22503,-1.56772 -0.36229,-2.89042 -0.30503,-2.93934 0.0573,-0.0489 0.402,-0.16008 0.76607,-0.24702 l 0.66195,-0.15808 1.19014,2.79819 c 0.65457,1.53901 1.34042,2.85685 1.52411,2.92854 0.18369,0.0717 0.8683,0.0502 1.52135,-0.0477 l 1.18738,-0.17806 v -0.26322 c 0,-0.14477 -0.5456,-1.51623 -1.21245,-3.04769 l -1.21245,-2.78448 0.40029,-0.44231 c 0.22015,-0.24326 0.52048,-0.75846 0.6674,-1.14488 l 0.26712,-0.70259 -0.38367,-2.60422 c -0.21102,-1.43232 -0.50776,-3.21864 -0.65942,-3.96958 l -0.27575,-1.36536 -0.63498,-0.68516 -0.63499,-0.68517 h -1.35235 c -0.74379,0 -2.60746,0.19548 -4.14149,0.43441 l -2.78914,0.4344 0.17597,1.08695 c 0.0968,0.59782 0.70874,4.58757 1.35989,8.8661 0.65116,4.27854 1.24989,7.88589 1.33052,8.01634 l 0.14658,0.23719 1.23332,-0.1759 c 0.67832,-0.0967 1.31104,-0.25129 1.40604,-0.34343 z m -1.20713,-9.33287 c -0.15753,-0.49723 -0.79321,-4.73896 -0.80669,-5.38282 l -0.011,-0.52527 1.32292,-0.19089 1.32292,-0.19089 0.29468,0.31928 c 0.3087,0.33446 0.89594,3.55695 0.89594,4.91648 v 0.7911 l -0.46302,0.13601 c -0.25466,0.0748 -0.90825,0.21491 -1.45241,0.31134 l -0.9894,0.17532 z m 30.863428,8.19487 c 0.253155,-0.12971 0.639937,-0.58324 0.859515,-1.00786 l 0.399233,-0.77203 0.292814,-2.6916 0.292815,-2.6916 -0.509824,-0.68285 -0.509823,-0.68285 0.597721,-0.54203 0.597721,-0.54203 0.286404,-2.78965 0.286404,-2.78965 -0.293263,-0.84125 -0.293263,-0.84126 -0.836493,-0.50455 -0.836494,-0.50456 -3.279292,-0.30226 c -1.80361,-0.16624 -3.314588,-0.26697 -3.357727,-0.22383 -0.194665,0.19467 -1.842858,18.17112 -1.670425,18.21894 0.05795,0.0161 1.47458,0.17602 3.14807,0.35545 3.014186,0.32317 3.935302,0.29177 4.825907,-0.16453 z m -4.211383,-2.77961 -0.5761,-0.11813 0.105482,-0.84401 c 0.05801,-0.46421 0.175466,-1.51635 0.261002,-2.3381 l 0.15552,-1.49408 1.108848,0.12681 c 0.609867,0.0697 1.257677,0.17279 1.439578,0.229 l 0.330729,0.1022 -0.02637,1.52966 c -0.0145,0.84131 -0.108505,1.82732 -0.208887,2.19112 l -0.182513,0.66146 -0.915592,0.0361 c -0.503576,0.0199 -1.174838,-0.0171 -1.491693,-0.082 z m 0.758068,-7.68358 -0.611782,-0.11682 0.159885,-1.50079 c 0.08794,-0.82544 0.219904,-1.88828 0.293262,-2.36187 l 0.133378,-0.86107 1.11227,0.15553 c 0.611748,0.0855 1.277295,0.2076 1.478994,0.27126 l 0.366724,0.11574 -0.184825,2.03962 -0.184826,2.03962 -0.31419,0.19978 c -0.32904,0.20922 -1.213571,0.21669 -2.24889,0.019 z"
       id="logo-face" /></g></svg>
