<?xml version="1.0" encoding="UTF-8" standalone="no"?>
<!-- Created with Inkscape (http://www.inkscape.org/) -->

<svg
   width="210.93028mm"
   height="101.79843mm"
   viewBox="0 0 210.93028 101.79843"
   version="1.1"
   id="svg1"
   xml:space="preserve"
   xmlns="http://www.w3.org/2000/svg"
   xmlns:svg="http://www.w3.org/2000/svg"><defs
     id="defs1" /><g
     id="layer1"
     transform="translate(-494.71704,-330.85141)"><path
       class="logo-face"
       d="m 687.92586,432.49848 c -5.0837,-0.63265 -8.76932,-2.64055 -10.41226,-5.67253 l -0.57348,-1.05834 -0.075,-17.93592 -0.075,-17.93592 1.53017,-1.60444 1.53017,-1.60444 1.77851,-1.05674 c 0.97819,-0.5812 2.70459,-1.35168 3.83646,-1.71217 l 2.05794,-0.65543 2.27123,-0.14889 2.27122,-0.1489 1.96211,0.43764 c 2.44443,0.54522 4.13745,1.33091 6.2619,2.90602 l 1.65396,1.22627 1.18327,1.60736 c 0.6508,0.88405 1.30477,2.04505 1.45327,2.58 l 0.27,0.97265 -0.41419,6.34571 -0.41419,6.34572 -0.27804,0.33501 -0.27804,0.33502 h -1.66387 -1.66388 l -0.67445,-0.80154 -0.67445,-0.80154 -0.16283,-0.9844 c -0.25882,-1.56462 -0.66331,-2.4021 -1.50034,-3.10642 l -0.77974,-0.6561 h -5.94336 -5.94337 l -1.01516,0.51789 c -0.55834,0.28485 -1.09658,0.73009 -1.1961,0.98943 -0.0995,0.25934 -0.25111,2.91473 -0.33687,5.90086 l -0.15592,5.42933 0.40994,0.79114 c 0.66375,1.28097 2.54352,3.26113 3.78833,3.99063 l 1.15622,0.67759 4.9158,-0.19071 4.91579,-0.19071 0.64869,-0.51027 0.6487,-0.51026 v -1.03913 -1.03913 l -0.52917,-0.52916 -0.52917,-0.52917 h -4.87127 -4.87127 l -0.68498,-0.81405 -0.68498,-0.81405 v -0.90574 -0.90574 l 0.52244,-0.52244 c 0.28734,-0.28734 0.82971,-0.59956 1.20527,-0.69382 0.37555,-0.0943 3.94969,-0.12186 7.94252,-0.0614 l 7.2597,0.11003 0.30705,0.30705 0.30704,0.30705 0.21388,2.74038 0.21387,2.74038 0.8037,2.36295 0.8037,2.36294 v 1.3812 1.38119 l -0.56674,1.53128 c -1.52073,4.10885 -4.73677,7.02628 -8.99303,8.15803 -1.88445,0.50108 -5.7095,0.67387 -8.16178,0.3687 z m -88.24407,-0.8633 c -1.01865,-0.33947 -2.21026,-0.80445 -2.64803,-1.0333 l -0.79593,-0.41608 -0.92386,0.49179 c -0.50812,0.27049 -1.29806,0.49679 -1.75544,0.50289 l -0.83159,0.0111 -0.20577,-0.46302 c -0.11317,-0.25466 -0.29203,-5.7613 -0.39746,-12.23698 -0.10543,-6.47567 -0.27751,-16.55782 -0.38241,-22.40475 l -0.19072,-10.6308 0.63658,-0.63658 0.63657,-0.63657 2.42308,-0.17199 c 2.7083,-0.19225 3.86513,-0.0453 4.3629,0.554 l 0.33666,0.40537 0.13229,14.50458 0.13229,14.50457 0.60267,0.60244 0.60266,0.60244 h 1.81695 1.81696 l 0.55694,-0.50403 0.55695,-0.50402 v -14.34948 -14.34947 l 0.5054,-0.62462 0.5054,-0.62463 2.6079,-0.089 2.6079,-0.089 0.52472,0.5813 0.52472,0.5813 v 14.05979 14.0598 l 0.33857,0.59258 c 0.18622,0.32591 0.68632,0.7724 1.11134,0.99218 l 0.77277,0.39962 h 1.21431 1.2143 l 1.03895,-0.53003 c 0.57142,-0.29152 1.16199,-0.75994 1.31237,-1.04094 l 0.27343,-0.51091 v -14.14021 -14.14021 l 0.43667,-0.36312 0.43668,-0.36313 2.83979,-0.0887 2.83979,-0.0887 0.4277,0.61063 0.42771,0.61063 v 20.2621 20.26209 l -0.68366,1.37192 -0.68366,1.37192 -1.17733,1.03633 c -0.64753,0.56998 -1.73887,1.30402 -2.42519,1.6312 l -1.24787,0.59488 -2.01201,0.1233 -2.01202,0.1233 -2.17815,-0.44135 c -1.19799,-0.24274 -2.96565,-0.7272 -3.92815,-1.07657 l -1.74999,-0.63521 -2.24195,1.11094 -2.24194,1.11095 -2.00436,0.0674 -2.00435,0.0674 z m -70.18073,-0.0451 -0.59531,-0.42851 v -22.96274 -22.96274 l 0.55649,-0.50403 0.5565,-0.50402 10.75444,-0.16987 10.75444,-0.16986 1.10481,0.47701 c 0.60765,0.26236 1.66742,0.99365 2.35505,1.62508 l 1.25023,1.14805 0.48342,1.05834 0.48341,1.05833 0.005,10.84792 0.005,10.84791 -0.51167,0.83914 -0.51166,0.83913 -1.59128,1.1222 -1.59128,1.1222 1.58516,0.93774 1.58516,0.93774 0.69516,0.9114 0.69516,0.9114 -2.4e-4,1.08432 c -3.1e-4,1.38033 -0.79191,3.81114 -2.78721,8.5588 l -1.58454,3.77031 h -3.28206 c -1.80513,0 -3.28206,-0.0804 -3.28206,-0.17855 0,-0.0982 0.78505,-2.21156 1.74455,-4.69635 l 1.74456,-4.51781 0.0414,-1.21566 0.0414,-1.21567 -0.36793,-0.68853 c -0.20236,-0.37869 -0.55955,-0.77803 -0.79375,-0.88741 -0.2342,-0.10938 -2.0927,-0.26452 -4.12999,-0.34476 l -3.70417,-0.14589 v -3.57187 -3.57188 l 4.25976,-0.13229 4.25975,-0.13229 0.47853,-0.39687 c 0.26319,-0.21829 0.69517,-0.87313 0.95996,-1.45521 l 0.48142,-1.05834 0.006,-2.35055 0.006,-2.35055 -0.31185,-1.04086 -0.31184,-1.04086 -0.64988,-0.51119 -0.64987,-0.51119 h -5.26913 -5.26912 l -0.77678,0.40168 -0.77678,0.40169 -0.16582,0.6607 c -0.0912,0.36339 -0.024,7.16389 0.14937,15.11222 l 0.3152,14.45152 -0.42694,0.42724 -0.42694,0.42724 -3.49658,0.0828 -3.49658,0.0828 z m 103.84512,0.0229 -0.37236,-0.37236 -0.17534,-10.54171 c -0.0964,-5.79793 -0.17551,-16.21843 -0.17571,-23.15665 l -3.6e-4,-12.61496 0.41578,-0.41577 0.41577,-0.41578 h 3.67847 3.67848 l 0.36858,0.72761 0.36859,0.7276 0.14129,22.71411 0.14129,22.7141 -0.50308,0.50308 -0.50308,0.50309 h -3.55298 -3.55298 z m 12.54139,-0.30345 -0.56516,-0.71847 v -22.58619 -22.58619 l 0.52917,-0.52917 0.52917,-0.52917 h 0.93918 c 1.18538,0 2.11823,0.48677 3.29415,1.71894 0.50932,0.53368 1.13045,1.08169 1.38028,1.2178 l 0.45423,0.24748 3.19404,-1.34349 c 1.75672,-0.73892 3.9796,-1.50785 4.93973,-1.70873 l 1.74568,-0.36525 1.48521,0.26713 1.4852,0.26713 2.23849,1.07463 2.23849,1.07464 1.50657,1.50656 1.50657,1.50657 0.28836,1.03861 0.28836,1.03861 -0.003,19.44687 -0.003,19.44688 -0.21299,0.33556 c -0.31836,0.50159 -1.82323,0.85506 -3.64028,0.85506 -1.87533,0 -3.16075,-0.37897 -3.42804,-1.01067 -0.10346,-0.2445 -0.32326,-6.45719 -0.48845,-13.80599 l -0.2995,-13.36146 -0.34915,-0.6202 -0.34914,-0.6202 -1.23414,-0.56172 -1.23415,-0.56173 -2.79119,10e-4 -2.79119,0.001 -1.24934,0.47713 -1.24934,0.47713 -0.4271,0.82593 -0.42711,0.82593 0.18803,13.37139 0.18803,13.37138 -0.39488,0.52917 -0.39489,0.52917 -3.16087,0.0875 -3.16088,0.0875 z m -84.63891,-0.18409 c -0.30672,-0.32742 -0.68466,-0.93049 -0.83987,-1.34014 l -0.28221,-0.74483 v -20.63341 -20.63341 l 0.37325,-0.71447 c 0.43401,-0.83074 1.59015,-1.95174 2.53717,-2.46004 l 0.66146,-0.35503 11.00566,-0.10201 11.00566,-0.10201 0.82996,0.42919 0.82997,0.42919 0.4412,0.85319 0.44121,0.8532 -0.15822,6.06427 -0.15822,6.06426 -0.38489,0.38489 c -0.21169,0.21169 -0.90257,0.48491 -1.53528,0.60716 l -1.15039,0.22227 -8.50041,0.0115 -8.50042,0.0115 -0.36302,0.43741 -0.36301,0.43741 0.0721,1.7454 c 0.0954,2.30857 0.19286,2.55153 1.19325,2.97372 l 0.8511,0.35919 3.66546,-0.0758 3.66547,-0.0758 0.36943,0.3066 0.36943,0.30659 v 2.33385 2.33385 l -0.58804,0.41188 -0.58804,0.41188 h -3.72702 -3.72701 l -0.51056,0.37333 -0.51056,0.37333 -0.16902,2.33865 -0.16902,2.33865 0.37826,0.60712 c 0.20805,0.33392 0.66399,0.71576 1.01322,0.84853 l 0.63495,0.24141 8.41319,-0.26259 c 4.62725,-0.14442 8.66601,-0.20036 8.97501,-0.12429 l 0.56182,0.1383 0.27668,0.73096 c 0.15218,0.40204 0.34561,2.15972 0.42986,3.90597 0.0842,1.74625 0.22891,4.08176 0.32148,5.19002 l 0.16831,2.01502 -0.56468,0.56467 -0.56467,0.56467 h -12.78617 -12.78617 z m -63.68535,-13.75833 c -0.10158,-7.74898 -0.14553,-18.33972 -0.0977,-23.53498 l 0.087,-9.44591 0.33594,-0.33565 0.33593,-0.33564 0.7224,0.46943 c 0.39732,0.25819 1.13912,0.66035 1.64844,0.8937 l 0.92604,0.42426 2.11667,0.1152 2.11667,0.11519 3.70416,-0.83935 3.70417,-0.83935 2.422,-0.14614 2.42201,-0.14614 1.86604,0.4573 1.86603,0.45729 1.38341,0.8342 1.38341,0.8342 0.63868,1.19062 0.63869,1.19063 -0.18055,8.73125 -0.18056,8.73125 -0.44072,0.49044 c -0.24239,0.26974 -0.95403,0.79127 -1.58143,1.15895 l -1.14071,0.6685 1.33469,0.76227 c 0.73407,0.41925 1.52616,1.0545 1.76018,1.41167 l 0.42551,0.64939 -0.16907,7.08668 -0.16906,7.08668 -0.26845,1.05833 c -0.14765,0.58209 -0.66761,1.6081 -1.15547,2.28004 l -0.887,1.22171 -1.39774,0.69652 -1.39775,0.69653 h -11.29359 -11.2936 z m 20.35038,0.43096 c 0.23556,-0.0904 0.60828,-0.5124 0.82826,-0.93779 l 0.39995,-0.77343 0.0426,-1.53752 0.0426,-1.53751 -0.45845,-0.6997 -0.45846,-0.69969 h -4.36608 -4.36607 l -0.25801,-0.67869 c -0.14192,-0.37327 -0.25803,-1.51219 -0.25803,-2.53093 v -1.85226 l 0.27389,-0.51177 0.27389,-0.51177 4.02559,-0.004 c 2.21407,-0.002 4.16697,-0.094 4.33976,-0.20382 0.535,-0.34019 0.87645,-1.60922 0.87645,-3.25743 v -1.57878 l -0.37603,-0.89997 -0.37603,-0.89997 -0.78966,-0.40835 -0.78967,-0.40835 -4.32441,0.14778 -4.32441,0.14778 -0.74008,0.28026 -0.74008,0.28027 -0.3844,0.74334 -0.3844,0.74335 v 4.33669 c 0,2.38519 0.079,6.161 0.17548,8.3907 l 0.17547,4.05399 0.48598,0.48599 0.48599,0.48599 h 5.27003 c 2.89851,0 5.46276,-0.074 5.69833,-0.16436 z m -12.79072,-37.56008 c -0.78402,-0.21085 -2.12028,-0.75368 -2.96947,-1.2063 l -1.54399,-0.82293 -1.34936,-1.42675 -1.34936,-1.42675 -0.8768,-1.9136 c -1.18699,-2.5906 -1.71099,-5.1189 -2.03998,-9.84292 l -0.27697,-3.97694 0.10978,-12.7 0.10977,-12.7 0.45293,-0.85606 0.45294,-0.85606 0.5905,-0.12103 c 0.32477,-0.0666 2.1651,-0.17337 4.08962,-0.23734 l 3.49912,-0.11631 0.29257,0.35251 0.29256,0.35252 0.0448,14.23464 0.0448,14.23463 0.45774,0.83654 c 0.60687,1.10908 1.61798,1.87454 2.94988,2.23318 l 1.08957,0.2934 1.84408,-0.30455 1.84408,-0.30454 1.0667,-0.58327 1.0667,-0.58326 0.44456,-0.92604 0.44455,-0.92604 0.16946,-13.36146 0.16946,-13.36146 0.27631,-0.72357 0.27631,-0.72357 0.96176,-0.26714 c 1.14855,-0.31903 2.40153,-0.3267 3.9668,-0.0243 l 1.15296,0.22274 0.48913,0.49334 0.48914,0.49334 0.18079,18.91771 c 0.0994,10.40474 0.16219,19.33068 0.13945,19.83542 -0.0227,0.50475 -0.28165,1.41415 -0.57537,2.02091 l -0.53405,1.10319 -1.44368,1.36537 -1.44369,1.36538 -1.67907,0.78573 c -0.92349,0.43216 -2.50208,0.96009 -3.50798,1.17319 l -1.82892,0.38745 -3.30729,-0.0128 -3.30729,-0.0128 z m 110.6984,-0.21215 c -2.37945,-0.47051 -4.62932,-1.39253 -6.08778,-2.49483 l -1.30383,-0.98544 -0.80211,-1.29685 -0.80211,-1.29685 -0.20939,-17.69943 -0.20938,-17.69942 0.55949,-0.90527 c 1.92155,-3.10913 7.48275,-5.96631 12.37156,-6.35613 l 2.0398,-0.16264 1.97507,0.41955 1.97506,0.41955 1.87956,0.89259 1.87956,0.8926 1.79348,1.67771 1.79348,1.67772 0.76556,1.33467 0.76556,1.33468 0.007,1.85208 c 0.004,1.01865 -0.13289,4.05474 -0.30414,6.74688 l -0.31138,4.89479 -0.26387,0.34149 -0.26386,0.34148 -1.86752,-0.0769 -1.86751,-0.0769 -0.6047,-0.89903 -0.6047,-0.89902 -9.9e-4,-0.82077 -9.9e-4,-0.82077 -0.56167,-0.92136 c -0.30892,-0.50675 -0.75496,-1.06851 -0.9912,-1.24835 l -0.42953,-0.327 -6.00205,-0.008 -6.00204,-0.008 -0.65328,0.24838 c -0.3593,0.1366 -0.8862,0.49839 -1.17089,0.80397 l -0.51762,0.5556 -0.1896,5.38437 -0.18961,5.38438 0.56099,1.09961 c 0.76429,1.49814 2.24271,3.08374 3.63738,3.90107 l 1.15921,0.67934 4.71464,-0.11128 4.71463,-0.11128 0.69253,-0.45376 0.69252,-0.45376 0.16965,-0.67595 0.16965,-0.67594 -0.24103,-0.84206 -0.24102,-0.84206 -5.10618,-0.13229 -5.10618,-0.1323 -0.77137,-0.86407 -0.77137,-0.86407 v -0.77483 -0.77482 l 0.64074,-0.74236 0.64074,-0.74236 7.75978,0.088 7.75978,0.088 0.36059,0.34819 0.36058,0.34818 0.20398,2.73882 0.20397,2.73882 0.8245,2.48244 c 0.9603,2.89128 1.00218,3.64642 0.32324,5.82787 -1.30808,4.20288 -4.84773,7.44345 -9.41005,8.61497 l -1.57694,0.40493 -3.18556,-0.0259 -3.18556,-0.0259 z m 25.44942,0.0974 c -1.57355,-0.10364 -2.96256,-0.29402 -3.0867,-0.42307 l -0.2257,-0.23463 -0.19144,-22.89484 -0.19144,-22.89485 0.67554,-0.78536 0.67555,-0.78536 h 3.48586 3.48587 l 0.50579,0.62462 0.50579,0.62462 v 9.23111 9.23111 h 7.54063 7.54062 v -9.64799 -9.64798 l 0.51177,-0.27389 0.51178,-0.2739 h 3.31858 3.31859 l 0.37974,0.59532 0.37974,0.59531 0.0894,22.9739 0.0894,22.97389 -0.51359,0.37559 -0.51359,0.37558 h -3.46839 -3.46839 l -0.3175,-0.3175 -0.3175,-0.3175 v -7.48771 -7.48771 h -7.54062 -7.54063 v 7.65402 7.65402 l -0.41577,0.41577 -0.41578,0.41577 -0.97328,-0.0399 c -0.53531,-0.022 -2.26074,-0.12475 -3.83429,-0.22839 z m -113.14948,-0.50801 -0.2739,-0.51178 V 356.12023 333.137 l 0.3175,-0.3175 c 0.4764,-0.4764 1.04828,-0.3914 2.75939,0.4101 l 1.55332,0.72761 3.04271,-0.008 3.04271,-0.008 3.57187,-1.42144 3.57188,-1.42144 2.1558,-0.12346 2.1558,-0.12346 1.43896,0.65877 1.43895,0.65878 0.99883,0.99882 c 0.54935,0.54936 1.15051,1.36853 1.3359,1.82038 l 0.33707,0.82156 0.0964,12.86893 0.0964,12.86893 -0.52917,0.59708 c -0.29104,0.3284 -1.06495,0.8477 -1.71979,1.15399 l -1.19063,0.5569 h -7.23047 -7.23048 l -0.37629,0.51359 -0.3763,0.5136 v 7.11057 7.11057 l -0.27389,0.51178 -0.27389,0.51177 h -4.08243 -4.08242 z m 21.14851,-22.72201 0.7442,-0.7442 0.19498,-3.12062 c 0.30987,-4.95928 -0.0698,-6.57409 -1.75024,-7.44305 l -0.74132,-0.38335 h -4.84906 -4.84906 l -0.58803,0.41188 -0.58804,0.41188 v 5.39395 5.39395 l 0.58804,0.41188 0.58803,0.41188 h 5.25315 5.25315 z m 28.31926,23.00101 c 0,-0.12803 0.67081,-2.06279 1.49068,-4.29948 l 1.49068,-4.06671 0.0307,-1.23688 0.0307,-1.23687 -0.55721,-0.7475 -0.55722,-0.7475 -3.65838,-0.0739 -3.65839,-0.0739 -0.34846,-0.2892 -0.34847,-0.2892 v -3.40718 -3.40719 l 0.33073,-0.0198 c 0.1819,-0.0109 2.11208,-0.0748 4.28928,-0.14191 l 3.95854,-0.12206 0.51164,-0.4534 c 0.2814,-0.24938 0.75788,-0.98919 1.05885,-1.64403 l 0.54721,-1.19063 -0.0438,-2.43837 c -0.05,-2.78386 -0.36318,-4.20288 -1.14752,-5.2 l -0.54747,-0.696 h -5.68136 -5.68137 l -0.68645,0.68645 -0.68645,0.68645 0.16657,6.25886 c 0.0916,3.44237 0.24393,10.14509 0.33849,14.89492 l 0.17191,8.63605 -0.54865,0.29363 -0.54866,0.29364 h -3.71225 -3.71225 l -0.2739,-0.51178 -0.27389,-0.51177 V 356.11799 333.397 l 0.37549,-0.51359 0.37548,-0.51359 7.62816,-0.20604 c 4.19549,-0.11332 9.30593,-0.17286 11.35653,-0.13229 l 3.72836,0.0738 1.47718,0.98162 1.47718,0.98163 0.87987,1.26733 0.87987,1.26733 v 11.95502 11.95503 l -0.79375,0.84037 c -0.43656,0.46221 -1.35261,1.22046 -2.03566,1.685 l -1.24192,0.84462 0.97464,0.51519 c 1.30585,0.69026 2.90742,2.15107 3.39761,3.09899 l 0.39895,0.77148 -0.18215,1.07812 c -0.25101,1.48572 -1.2112,4.27418 -2.68713,7.80358 l -1.24474,2.97656 h -3.25386 -3.25386 z m 15.65315,-0.49483 -0.24046,-0.46303 -0.18445,-22.88645 -0.18445,-22.88646 0.39371,-0.52917 0.39371,-0.52917 3.52763,-0.0823 3.52762,-0.0823 0.47756,0.35398 0.47757,0.35397 0.24372,1.05125 0.24373,1.05125 0.006,22.23823 0.006,22.23823 -0.3175,0.3175 -0.3175,0.3175 h -3.90653 -3.90652 z m 91.23851,0.20377 -0.39687,-0.25115 v -16.37615 -16.37615 l -3.30729,-0.16862 c -1.81901,-0.0927 -4.09251,-0.1691 -5.05222,-0.16969 l -1.74493,-0.001 -0.43789,-0.48386 -0.43788,-0.48385 0.028,-3.94792 c 0.0154,-2.17135 0.1047,-5.01948 0.19844,-6.32917 l 0.17042,-2.38125 0.92604,-0.31579 0.92604,-0.3158 13.54267,-0.0149 13.54267,-0.0149 0.68343,0.25984 0.68343,0.25984 0.27938,0.73235 0.27939,0.73235 -0.31357,5.82083 -0.31356,5.82084 -0.26755,0.33072 -0.26754,0.33073 h -5.56678 -5.56677 l 0.18285,16.275 0.18285,16.27499 -0.28153,0.52605 -0.28153,0.52605 -3.49642,-0.004 -3.49642,-0.004 z"
       id="logo-face" /></g></svg>
