<?xml version="1.0" encoding="UTF-8" standalone="no"?>
<!-- Created with Inkscape (http://www.inkscape.org/) -->

<svg
   width="158.58752mm"
   height="158.49858mm"
   viewBox="0 0 158.58752 158.49858"
   version="1.1"
   id="svg1"
   xml:space="preserve"
   xmlns="http://www.w3.org/2000/svg"
   xmlns:svg="http://www.w3.org/2000/svg"><defs
     id="defs1" /><path class="logo-face"
     d="m 70.122541,158.17544 c -6.16183,-0.76497 -12.83022,-2.3739 -18.56665,-4.47971 -1.43001,-0.52494 -4.75583,-2.01429 -7.39072,-3.30965 -8.99308,-4.42117 -16.95008,-10.3864 -23.46043,-17.58791 C 9.3865529,120.27843 2.7690799,105.94784 0.36221086,88.745053 -0.17857514,84.879848 -0.09740614,72.78418 0.49626286,68.769011 1.4156819,62.550691 2.8775319,56.750055 4.8304039,51.571095 14.134231,26.897619 34.833891,8.4166348 60.200661,2.1356518 67.321261,0.37254383 70.696471,-0.00323017 79.382961,2.0834669e-5 86.463901,0.00272083 87.391871,0.05809083 91.410871,0.71835383 99.930981,2.1180838 106.65407,4.2682378 114.30795,8.0412358 c 8.11312,3.9993682 14.66332,8.6925962 21.04197,15.0765722 13.26614,13.277239 21.20765,30.127421 23.03918,48.884222 0.40134,4.110232 0.16003,14.62995 -0.42049,18.330523 -1.96873,12.549837 -5.8755,22.686587 -12.69552,32.940627 -11.29952,16.98903 -28.8474,29.06108 -48.692219,33.49775 -5.79472,1.29552 -8.74261,1.60683 -16.13958,1.70442 -5.22962,0.069 -7.99447,-0.0114 -10.31875,-0.29991 z m 20.37292,-2.48765 c 34.202419,-5.1238 60.557859,-31.78319 65.394809,-66.148987 0.7257,-5.156114 0.65281,-16.320022 -0.13993,-21.43125 -1.35631,-8.74472 -3.54291,-15.735287 -7.24151,-23.151042 C 142.29276,32.493149 133.48537,22.51651 121.89286,14.807049 103.7546,2.7444348 81.229231,-1.0207482 59.902581,4.4451918 c -11.12673,2.851742 -21.81305,8.3965092 -30.65817,15.9074812 -3.21133,2.726954 -8.7774,8.552924 -11.20218,11.725244 -4.40419,5.761968 -8.8555961,13.73777 -11.1491771,19.97653 -10.536675,28.660757 -3.654249,60.383583 17.7426871,81.780523 12.78566,12.78566 29.20731,20.5019 47.60347,22.36802 3.97912,0.40365 14.0129,0.12049 18.25625,-0.5152 z m -6.38445,-9.06514 c 0.18344,-0.68439 -1.78285,-14.77891 -2.32569,-16.67069 -0.19865,-0.69229 -0.28466,-1.30187 -0.19114,-1.35462 0.0935,-0.0528 1.33089,-0.17813 2.74971,-0.27861 l 2.57969,-0.18269 v 1.06349 c 0,0.58492 0.13354,1.96132 0.29675,3.05867 0.22988,1.5456 0.39383,1.99517 0.7276,1.99514 0.61548,-7e-5 4.6055,-0.77911 4.75474,-0.92835 0.10553,-0.10553 -0.82455,-3.79705 -1.40279,-5.56774 -0.16021,-0.49058 0.0529,-0.61191 2.2071,-1.25677 1.31144,-0.39257 2.50979,-0.71376 2.66301,-0.71376 0.15323,0 0.28086,0.44648 0.28364,0.99218 0.006,1.20397 3.47703,15.04447 4.071839,16.23683 0.23284,0.4667 0.39304,0.87691 0.35602,0.91156 -0.13043,0.12213 -4.596269,1.43859 -4.880139,1.43859 -0.15819,0 -0.36374,-0.44648 -0.45676,-0.99218 -0.093,-0.54571 -0.48799,-2.33164 -0.87771,-3.96875 -0.61815,-2.59674 -0.77758,-2.9757 -1.24937,-2.96977 -0.70646,0.009 -4.90164,0.95856 -5.09689,1.15381 -0.18863,0.18863 0.67318,6.35569 1.01311,7.24977 0.13777,0.36237 0.1971,0.71223 0.13185,0.77748 -0.15536,0.15537 -3.481,0.58197 -4.62338,0.59307 -0.79618,0.008 -0.87381,-0.0546 -0.73119,-0.58666 z m -15.57597,0.0337 c -2.6655,-0.47914 -2.49006,-0.34298 -2.08413,-1.61748 0.40939,-1.28539 2.27137,-13.20003 2.09103,-13.38037 -0.22131,-0.2213 -2.38413,-0.55707 -3.66275,-0.56863 -1.08338,-0.01 -1.25542,-0.081 -1.14672,-0.47455 0.0703,-0.25466 0.20596,-1.05833 0.3014,-1.78594 0.0954,-0.7276 0.23287,-1.57271 0.30542,-1.87802 l 0.13189,-0.55511 2.33336,0.60605 c 2.58743,0.67203 6.62478,1.29719 10.08204,1.56113 l 2.26612,0.17301 -0.36239,2.28787 c -0.19931,1.25834 -0.41252,2.33802 -0.47379,2.39929 -0.0613,0.0613 -0.26925,-0.0196 -0.46216,-0.17971 -0.35716,-0.29641 -4.08528,-1.00873 -4.27082,-0.81601 -0.18266,0.18973 -1.78323,10.63854 -1.9312,12.60723 l -0.14418,1.91823 -0.8251,-0.0296 c -0.45381,-0.0163 -1.42042,-0.1366 -2.14802,-0.2674 z m -19.24645,-6.12803 c -1.8543,-0.90462 -3.37235,-1.72184 -3.37344,-1.81605 -0.001,-0.0942 0.80169,-0.307 1.78395,-0.47288 0.98227,-0.16588 2.16865,-0.36916 2.63642,-0.45171 0.84018,-0.14829 0.8634,-0.12367 1.91823,2.03488 0.58726,1.20175 1.06775,2.22624 1.06775,2.27664 0,0.29534 -1.02953,-0.10568 -4.03291,-1.57088 z m 57.883749,-0.11905 c -0.21472,-0.85549 -6.72846,-12.62691 -7.956769,-14.37922 l -0.84946,-1.21183 2.282379,-1.08055 c 1.25531,-0.5943 3.31563,-1.73219 4.5785,-2.52864 l 2.29613,-1.4481 1.23492,1.85714 c 0.96015,1.44393 1.15569,1.90734 0.87887,2.08278 -0.19582,0.1241 -0.43468,0.22746 -0.53079,0.22969 -0.13908,0.003 -3.86508,2.03 -4.12613,2.24443 -0.16366,0.13444 1.15413,2.2534 1.40263,2.25536 0.15221,0.001 1.12918,-0.52337 2.17102,-1.16572 l 1.89429,-1.1679 0.93782,1.70618 c 0.5158,0.93839 0.93783,1.75084 0.93783,1.80544 0,0.0546 -0.89297,0.58936 -1.98438,1.18836 -1.09139,0.59899 -1.98437,1.18392 -1.98437,1.29984 0,0.28326 1.59476,3.21515 1.74885,3.21515 0.29188,0 4.52473,-2.49569 5.05727,-2.98177 0.46675,-0.42604 0.6166,-0.46051 0.72474,-0.16672 0.47139,1.28058 1.2004,3.5284 1.2004,3.70131 0,0.42974 -8.55939,5.26801 -9.31963,5.26801 -0.22885,0 -0.49344,-0.32211 -0.59412,-0.72324 z m -54.453119,-3.64959 c -1.41025,-0.51771 -3.23176,-1.88563 -4.00436,-3.0072 -2.21621,-3.21724 -1.06847,-7.55876 2.47309,-9.35487 2.53915,-1.28773 5.7786,-0.7707 8.20981,1.31032 4.65783,3.98693 1.97647,11.50765 -4.07769,11.43719 -0.88093,-0.0103 -2.05131,-0.1837 -2.60085,-0.38544 z m 3.65058,-4.1788 c 1.6098,-1.6098 1.47799,-3.96254 -0.26843,-4.79126 -1.04795,-0.49729 -1.64735,-0.51127 -2.46508,-0.0575 -1.00068,0.55529 -1.63404,1.76485 -1.63597,3.12427 -10e-4,1.05338 0.11699,1.33315 0.81231,1.91823 1.18611,0.99804 2.43331,0.93011 3.55717,-0.19374 z m -18.86717,0.574 c -2.20227,-1.6852 -2.41788,-1.92496 -2.07667,-2.30922 0.20941,-0.23583 0.76841,-1.65793 1.24222,-3.16023 l 0.86147,-2.73146 -0.85009,-0.84042 -0.85009,-0.84041 -1.31977,1.4552 c -0.72588,0.80037 -1.63237,1.90826 -2.01442,2.46198 l -0.69465,1.00677 -1.80727,-1.79342 c -1.84008,-1.82597 -2.12519,-2.36369 -1.40071,-2.6417 0.52354,-0.2009 11.00307,-11.65607 11.62228,-12.70431 l 0.46885,-0.79369 3.60688,3.67421 c 1.98378,2.02081 3.83508,4.10041 4.114,4.62134 0.65682,1.22673 0.67393,3.58526 0.0352,4.84591 -1.12259,2.21547 -3.28444,3.71315 -5.47148,3.7905 -1.28099,0.0453 -1.30316,0.0608 -1.57842,1.10429 -0.15356,0.58208 -0.46681,1.71318 -0.69612,2.51354 -0.22931,0.80036 -0.48821,2.07764 -0.57534,2.83838 l -0.15842,1.38318 z m 5.92345,-11.1782 c 1.30657,-1.30657 1.22019,-2.11182 -0.39743,-3.70511 -0.71335,-0.70263 -1.39796,-1.23394 -1.52135,-1.18068 -0.12339,0.0533 -0.91315,0.82637 -1.75502,1.71803 l -1.53069,1.6212 1.2661,1.05196 c 2.03434,1.69026 2.66369,1.7693 3.93839,0.4946 z m 74.189159,4.12059 c -2.98317,-2.95788 -6.04903,-5.85945 -6.81302,-6.44794 -0.76398,-0.58849 -1.38824,-1.14497 -1.38725,-1.23663 9.9e-4,-0.0917 0.41116,-0.4454 0.91148,-0.78609 0.50033,-0.34069 2.13661,-1.80695 3.63621,-3.25835 3.76233,-3.6414 5.21142,-4.30197 7.7656,-3.53997 2.59444,0.77401 4.61824,3.39102 4.61824,5.97189 v 1.22836 l 2.84576,0.83636 c 1.56516,0.46 3.29158,0.83636 3.83645,0.83636 0.54489,0 0.9907,0.0689 0.9907,0.15309 0,0.20355 -3.00387,3.87343 -3.52341,4.30462 -0.33379,0.27701 -0.56124,0.25844 -1.26001,-0.10291 -0.46898,-0.24252 -1.87651,-0.78675 -3.12786,-1.20941 l -2.27517,-0.76846 -0.73772,0.86205 -0.73773,0.86206 1.66377,1.60328 c 0.91507,0.88181 1.95323,1.8011 2.30702,2.04287 0.63837,0.43625 0.63938,0.44387 0.13229,1.00605 -0.28104,0.31156 -1.16581,1.11868 -1.96617,1.7936 l -1.45521,1.22712 z m 3.15252,-6.30097 c 1.36883,-1.55507 1.45845,-2.66853 0.30742,-3.81956 -1.19805,-1.19805 -2.14173,-1.06222 -3.81034,0.54845 l -1.36939,1.32185 1.62731,1.58857 c 0.89501,0.87371 1.7481,1.58857 1.89574,1.58857 0.14764,0 0.75481,-0.55255 1.34926,-1.22788 z m -44.559799,-0.36847 c -3.33981,-0.23444 -8.56875,-1.28226 -9.21024,-1.84563 -0.11792,-0.10355 0.17142,-0.51293 0.64299,-0.90973 0.93818,-0.78943 0.86966,-0.78975 4.33391,0.0203 3.29614,0.77075 11.7719,0.69284 15.21354,-0.13983 1.38245,-0.33448 2.78136,-0.66976 3.10868,-0.74509 0.48196,-0.11092 0.667,0.0324 0.97309,0.75375 0.20788,0.48988 0.29726,0.97132 0.19862,1.06985 -0.30226,0.30192 -4.29109,1.22485 -6.52934,1.51075 -3.18114,0.40634 -5.79406,0.49181 -8.73125,0.28563 z m -52.65209,-2.28288 c -1.19979,-0.63251 -1.93376,-1.3922 -2.93079,-3.03349 -1.49997,-2.46921 -3.81975,-7.21437 -3.61283,-7.39011 0.10649,-0.0904 0.61034,-0.32776 1.11966,-0.52738 1.06672,-0.41806 12.2514,-6.815557 14.00714,-8.011897 0.90687,-0.61794 1.20187,-0.71429 1.29337,-0.42244 0.0652,0.20795 1.05642,2.21425 2.20274,4.458447 2.50439,4.90296 2.66053,5.58327 1.71931,7.4909 -0.97228,1.97055 -2.15834,2.71624 -4.32036,2.71624 -1.67132,0 -1.67303,7.9e-4 -1.67303,0.7705 0,1.27373 -1.13396,2.87901 -2.59568,3.67458 -1.54381,0.84025 -3.90095,0.96452 -5.20953,0.27465 z m 3.47753,-5.15225 c 0.83235,-0.78196 0.78272,-1.66245 -0.18926,-3.35739 -0.76787,-1.33901 -0.83642,-1.39022 -1.38658,-1.03596 -0.31832,0.20498 -1.14432,0.70136 -1.83554,1.10307 -0.69123,0.4017 -1.25677,0.79519 -1.25677,0.87441 0,0.26086 1.65041,2.84387 1.9529,3.05642 0.49552,0.34818 2.05419,-0.0195 2.71525,-0.64055 z m 5.98133,-4.3916 c 0.63706,-0.57412 0.58105,-1.23025 -0.22202,-2.60058 l -0.68504,-1.16893 -1.23319,0.70234 c -1.77339,1.00999 -1.77934,1.02024 -1.21265,2.08939 0.90897,1.71493 2.1374,2.07317 3.3529,0.97778 z m 27.66258,4.85575 c -1.1141,-2.78229 -3.56801,-8.86871 -5.45313,-13.525377 -1.88513,-4.65667 -5.94598,-14.701911 -9.02413,-22.322764 -3.07815,-7.620852 -5.94277,-14.359181 -6.36582,-14.974063 -1.47923,-2.149986 -3.50329,-3.534022 -6.15822,-4.210936 l -1.38889,-0.354117 -0.0807,-1.229908 -0.0807,-1.229908 16.61719,0.06814 16.61718,0.06814 0.0809,1.115727 c 0.0732,1.008544 0.0153,1.132201 -0.60229,1.287206 -0.89008,0.223394 -1.19877,0.844497 -1.19696,2.408318 0.002,1.887189 0.18771,2.418653 5.09046,14.582273 l 4.5109,11.191442 2.09813,-5.217107 2.09813,-5.217106 -2.18197,-5.445168 c -1.20009,-2.994805 -2.56584,-6.219037 -3.035,-7.164922 -1.09409,-2.205834 -2.7146,-4.035438 -4.21949,-4.763943 -1.14073,-0.55222 -1.18764,-0.621025 -1.18764,-1.741952 v -1.167022 h 16.53646 16.53645 v 1.169602 c 0,1.105177 -0.0474,1.179803 -0.85989,1.354783 -2.22619,0.479413 -3.10886,1.570271 -3.10886,3.842112 0,1.128455 0.53096,2.681937 3.05654,8.942827 1.681089,4.167424 3.734909,9.273171 4.564059,11.346105 0.82914,2.072934 1.56706,3.768168 1.63982,3.767187 0.29658,-0.004 4.7468,-11.620746 5.0088,-13.074855 0.56268,-3.122923 0.10098,-6.451367 -1.28699,-9.277969 -1.50802,-3.071044 -3.57098,-4.848898 -6.3075,-5.435777 l -1.38306,-0.296614 v -1.1687 -1.168701 h 13.36146 13.36145 v 1.185584 c 0,1.077922 -0.0661,1.200213 -0.7276,1.34668 -2.63982,0.584469 -4.59924,1.901433 -6.73778,4.528595 -3.15318,3.873617 -5.01597,7.559497 -9.82152,19.433701 l -3.60178,8.89977 1.631,3.93252 c 2.0859,5.02933 3.0789,6.718967 5.14759,8.758957 0.92107,0.90829 1.67468,1.69675 1.67468,1.75212 0,0.0554 -0.47839,0.17719 -1.0631,0.27068 -1.50067,0.23997 -5.24134,1.9051 -8.20898,3.65418 -3.35828,1.97931 -6.21949,4.14011 -9.139159,6.90197 l -2.40396,2.27401 -3.38968,-8.38449 c -1.86433,-4.61147 -5.23674,-12.968397 -7.49424,-18.570947 -2.2575,-5.602549 -4.18126,-10.276322 -4.27502,-10.386159 -0.0938,-0.109838 -1.12294,2.041256 -2.28705,4.780209 l -2.11658,4.97991 1.60387,3.95104 c 0.88212,2.17308 1.91848,4.48683 2.30301,5.14167 1.1001,1.873437 2.80411,3.885597 3.8247,4.516367 1.07988,0.6674 0.98361,0.81539 -0.8236,1.26601 -4.49215,1.12011 -11.75153,5.61468 -17.07125,10.56949 l -2.25459,2.09993 z m 7.2994,-4.79413 0.72055,-0.52917 -4.65691,-11.509367 c -2.5613,-6.33012 -6.60746,-16.33137 -8.99147,-22.224963 -2.38402,-5.893594 -4.60524,-11.63836 -4.93607,-12.766146 l -0.60149,-2.050521 h -3.51342 -3.51341 l 0.79363,1.125939 c 0.897,1.272578 1.03943,1.614407 12.55906,30.140081 l 8.40579,20.814977 1.5066,-1.23581 c 0.82863,-0.6797 1.83084,-1.47394 2.22714,-1.76498 z m 32.092029,-0.13229 0.57423,-0.39688 -3.701379,-9.128117 C 83.647011,65.219273 82.407271,62.038325 82.244531,60.295638 l -0.15997,-1.713085 h -3.66817 -3.66817 l 0.77273,1.389062 c 0.425,0.763985 2.49756,5.675313 4.60569,10.914063 2.10812,5.23875 6.46691,16.042572 9.68619,24.008495 3.21928,7.965917 5.96842,14.786437 6.1092,15.156697 l 0.25595,0.67322 1.65827,-1.39837 c 0.91205,-0.76911 1.91667,-1.57697 2.232489,-1.79525 z m 16.99394,-47.955729 0.87196,-0.992188 h -3.3347 c -1.83408,0 -3.3347,0.0554 -3.3347,0.123103 0,0.06771 0.34392,0.665398 0.76425,1.328202 0.42034,0.662804 0.98495,1.901935 1.25468,2.753624 l 0.49042,1.548524 1.20806,-1.884539 c 0.66444,-1.036496 1.60045,-2.331023 2.08003,-2.876726 z m 16.29527,55.838899 c -0.87312,-0.73968 -1.62175,-1.43047 -1.66362,-1.53509 -0.0419,-0.10461 0.28428,-0.33949 0.72475,-0.52194 1.55079,-0.64235 3.6957,-3.66019 3.71119,-5.22152 0.005,-0.53151 -0.66004,-1.13379 -1.25243,-1.13379 -0.12908,0 -1.32627,0.69992 -2.66043,1.55538 -3.59919,2.30782 -5.28658,2.55479 -7.62621,1.11622 -1.53726,-0.94522 -2.31227,-2.27512 -2.43327,-4.17544 -0.0981,-1.54058 -0.0162,-1.89186 0.85006,-3.64456 0.52725,-1.06681 1.51233,-2.555497 2.18907,-3.308197 l 1.23044,-1.36854 1.54788,1.53172 1.54788,1.531727 -0.79479,0.62202 c -1.09907,0.86015 -2.17422,2.77225 -2.06989,3.68119 0.14582,1.27039 1.18253,1.12277 3.71164,-0.52848 3.30728,-2.15934 4.8536,-2.50303 6.95875,-1.54668 4.41929,2.00764 4.2785,7.74374 -0.30665,12.49312 -0.97174,1.00656 -1.83657,1.82282 -1.92184,1.81392 -0.0853,-0.009 -0.8694,-0.62137 -1.74253,-1.36106 z m -77.467959,-3.3511 c -8.16373,-5.76575 -13.89881,-14.587057 -16.19171,-24.904947 -0.58835,-2.64755 -0.82365,-10.011409 -0.41879,-13.106469 0.35176,-2.68912 0.74355,-4.356031 1.02384,-4.356031 0.10484,0 0.4468,0.744141 0.75993,1.653646 0.47402,1.376865 0.53272,1.919355 0.35068,3.241146 -0.31704,2.30212 -0.30751,7.177648 0.0187,9.572 0.80189,5.885598 2.89032,11.372478 6.26446,16.458465 1.5794,2.38069 5.65336,6.79917 7.72734,8.38081 1.00618,0.76733 1.41067,1.3214 1.94165,2.65971 0.36889,0.92976 0.59203,1.68608 0.49587,1.68072 -0.0962,-0.005 -0.98355,-0.58092 -1.97197,-1.27901 z m 57.755419,-13.926527 -0.5734,-0.92778 1.09206,-2.54599 c 2.5165,-5.86687 3.2923,-10.102798 3.11552,-17.010962 -0.11377,-4.446094 -0.078,-4.988537 0.4053,-6.151562 0.29154,-0.701525 0.61777,-1.275499 0.72496,-1.275499 0.29206,0 0.77634,2.750537 1.06656,6.0577 0.43098,4.911326 -0.26323,10.58893 -1.89594,15.505843 -0.76537,2.30492 -2.97501,7.27604 -3.23416,7.27604 -0.0701,0 -0.38552,-0.4175 -0.7009,-0.92779 z m -92.494069,-4.49724 c -0.27656,-1.2614 -0.56306,-2.38357 -0.63665,-2.4937 -0.0736,-0.11014 -1.27867,-0.87131 -2.67793,-1.69149 -2.97903,-1.746166 -2.76586,-1.19666 -3.04613,-7.85224 -0.20295,-4.819384 0.17312,-9.776827 1.1039,-14.552083 0.82701,-4.2428 2.21698,-9.004612 2.68036,-9.182428 0.19815,-0.07604 0.69696,0.0012 1.10846,0.171657 0.70988,0.294043 0.73478,0.360142 0.48627,1.291189 -0.23895,0.895224 -0.18409,1.091706 0.62561,2.240436 l 0.88754,1.259155 0.5574,-1.660317 c 0.51934,-1.546956 0.60876,-1.65652 1.30966,-1.604702 1.18666,0.08773 1.28307,0.387856 0.71519,2.226344 -0.28657,0.927735 -0.49428,1.716179 -0.46159,1.752098 0.0327,0.03592 0.70475,-0.153253 1.49344,-0.420383 1.30795,-0.442998 1.77575,-0.873713 2.17019,-1.99818 0.071,-0.202417 2.04194,0.269025 2.04194,0.488426 0,0.04318 -0.18394,0.599493 -0.40876,1.236252 -1.82609,5.172086 -2.60493,11.031305 -2.42235,18.223369 l 0.13769,5.423959 -2.07824,2.116668 -2.07825,2.11666 0.5667,2.30704 c 0.31169,1.26886 0.51347,2.35957 0.4484,2.4238 -0.0651,0.0642 -0.5462,0.19667 -1.06917,0.29434 l -0.95085,0.17758 z m -1.4591,-8.489063 c -0.30074,-2.67268 -0.37385,-2.903953 -1.11733,-3.534807 -1.79751,-1.525201 -1.71206,-1.585958 -1.57441,1.119527 0.18002,3.538217 0.3067,3.89418 1.67508,4.706931 0.64687,0.384208 1.21265,0.669212 1.25729,0.633352 0.0446,-0.0359 -0.0636,-1.352119 -0.24063,-2.925003 z m 3.91112,1.677154 1.0837,-1.124479 -0.16872,-2.41435 -0.16872,-2.414349 -1.40277,0.793988 c -1.23627,0.699745 -1.38732,0.876402 -1.27259,1.488308 0.0716,0.381876 0.207,1.617054 0.30087,2.74484 0.0939,1.127787 0.2548,2.050521 0.3576,2.050521 0.10281,0 0.67459,-0.506016 1.27063,-1.124479 z m 0.83071,-10.475151 c 0.0343,-1.114527 0.12807,-2.353834 0.20841,-2.754016 0.178,-0.886667 0.13989,-0.888772 -1.45534,-0.0804 -1.45527,0.737438 -1.60754,1.168421 -1.61273,4.564647 l -0.003,1.904556 1.40012,-0.804186 1.40012,-0.804186 z m -5.90528,-3.842213 -1.05833,-1.286635 -0.17286,1.022052 c -0.0951,0.562128 -0.21078,1.961585 -0.25714,3.109905 l -0.0843,2.087854 1.18319,1.020641 1.18319,1.02064 0.13229,-2.843911 0.13229,-2.843911 z m 5.16368,-1.625962 c 0.84147,-0.426406 1.35688,-0.875667 1.44182,-1.256771 0.0727,-0.326223 0.3152,-1.414303 0.53887,-2.417956 0.22367,-1.003654 0.36046,-1.871044 0.30397,-1.927534 -0.0565,-0.05649 -0.75442,0.141125 -1.55094,0.439144 l -1.44824,0.541853 -0.32119,1.914847 c -0.17666,1.053166 -0.38351,2.242269 -0.45967,2.642451 -0.16912,0.888666 -0.13497,0.890127 1.49538,0.06397 z m -3.2,-2.948895 0.46226,-2.283255 -0.94734,-1.459581 -0.94733,-1.459581 -0.58726,2.489246 c -0.32298,1.369085 -0.59135,2.618535 -0.59636,2.776555 -0.0142,0.449217 1.94483,2.846721 2.05531,2.515278 0.0542,-0.162474 0.30648,-1.322872 0.56072,-2.578662 z m 114.916009,27.68137 c -0.71497,-0.28738 -0.70787,-0.0162 -0.0703,-2.68561 l 0.52503,-2.1982 -2.1076,-2.11861 -2.1076,-2.118607 0.22234,-3.632554 c 0.429,-7.008912 -0.50457,-14.713695 -2.45068,-20.225538 l -0.39018,-1.105075 0.81465,-0.283988 c 1.16159,-0.40493 1.2613,-0.373141 1.56534,0.499037 0.21592,0.619365 0.57977,0.897813 1.74083,1.332221 0.80732,0.302058 1.5109,0.506148 1.56351,0.453534 0.0526,-0.05261 -0.15582,-0.840337 -0.46318,-1.750496 -0.60849,-1.801835 -0.53236,-2.041288 0.72923,-2.293606 0.80549,-0.161098 0.81543,-0.149107 1.31135,1.582539 0.27484,0.959676 0.56072,1.741137 0.6353,1.736578 0.0746,-0.0046 0.50862,-0.622073 0.96453,-1.372253 0.71069,-1.169393 0.79092,-1.473017 0.56244,-2.128425 -0.31253,-0.89652 -0.10749,-1.179581 1.0174,-1.40456 l 0.80474,-0.160948 0.82605,2.867966 c 1.14041,3.959449 2.10151,8.885366 2.46963,12.65755 0.30284,3.103148 0.17574,12.334139 -0.19239,13.97336 -0.13483,0.600406 -0.66803,1.034935 -2.75964,2.248955 l -2.59251,1.50477 -0.56751,2.44739 c -0.599,2.58314 -0.71866,2.71002 -2.05079,2.17457 z m 5.86241,-9.516753 c 0.0693,-0.363802 0.20511,-1.84231 0.30177,-3.285574 l 0.17572,-2.624114 -1.04566,0.828179 c -1.517,1.20149 -1.56849,1.306328 -1.76819,3.600551 -0.1001,1.150005 -0.25166,2.439242 -0.33681,2.864971 l -0.15481,0.77405 1.35097,-0.748301 c 0.94065,-0.521028 1.38925,-0.949203 1.47701,-1.409762 z m -4.76859,0.595312 c 0.0832,-0.691224 0.22492,-1.923347 0.31489,-2.738052 l 0.16361,-1.481281 -1.23689,-0.724857 c -0.68028,-0.398672 -1.30834,-0.653395 -1.39568,-0.566051 -0.0873,0.08734 -0.23989,1.139637 -0.33899,2.33843 l -0.18018,2.179624 1.08736,1.112461 c 0.59805,0.611854 1.16549,1.117867 1.26097,1.124477 0.0955,0.007 0.2417,-0.553527 0.32491,-1.244751 z m 0.30241,-11.90407 c -0.0931,-0.372082 -0.63652,-0.840459 -1.45808,-1.256771 -0.7203,-0.365001 -1.34719,-0.663638 -1.39312,-0.663638 -0.1898,0 0.38858,5.443269 0.60165,5.662242 0.12752,0.131057 0.68424,0.492416 1.23712,0.803021 l 1.00525,0.564736 0.0778,-2.258229 c 0.0428,-1.242025 0.011,-2.525138 -0.0706,-2.851361 z m 4.06624,3.308437 c 0.85222,-0.722708 0.85374,-0.728447 0.69495,-2.645833 -0.0875,-1.056855 -0.22407,-2.446581 -0.30347,-3.088279 l -0.14436,-1.166725 -1.03062,1.166725 -1.0306,1.166724 0.0232,2.971667 c 0.0258,3.306371 -0.0971,3.196791 1.79088,1.595721 z m -4.59668,-7.831771 c -0.0968,-0.704004 -0.31664,-1.913129 -0.48847,-2.686944 -0.30899,-1.391416 -0.32824,-1.412312 -1.74581,-1.894154 -0.78834,-0.26797 -1.46945,-0.451134 -1.51355,-0.407032 -0.0441,0.0441 0.0269,0.490208 0.15787,0.991349 0.13092,0.50114 0.37473,1.598018 0.54178,2.437507 0.2875,1.444735 0.36988,1.560783 1.54072,2.170493 0.68034,0.354283 1.33744,0.649694 1.46024,0.65647 0.1228,0.0068 0.14405,-0.563684 0.0472,-1.267689 z m 4.35184,-2.205737 c 0.004,-0.24367 -0.24302,-1.532786 -0.54968,-2.864702 l -0.55758,-2.421665 -0.89763,1.33291 c -0.4937,0.7331 -0.89763,1.46937 -0.89763,1.636154 0,0.166783 0.19724,1.381362 0.43832,2.699063 l 0.43832,2.395821 1.00899,-1.167272 c 0.55495,-0.642 1.01255,-1.366639 1.01689,-1.610309 z m -33.5689,-16.307102 c -1.29392,-0.07365 -1.57071,-0.207693 -2.91041,-1.409442 -2.92611,-2.624792 -8.291689,-5.7564 -12.091039,-7.056901 -4.92832,-1.686946 -9.13784,-2.302565 -14.35325,-2.099088 -8.57516,0.334558 -16.38763,3.36232 -22.99881,8.913307 -1.85743,1.559561 -1.94668,1.600892 -3.43056,1.588551 l -1.52352,-0.01267 1.98438,-1.844927 c 5.43932,-5.057092 12.04137,-8.485447 19.57916,-10.167204 3.04139,-0.678562 10.57774,-0.835758 14.03984,-0.292847 7.08439,1.110943 13.706,4.030599 19.165369,8.450549 2.14398,1.735782 4.2945,3.811112 4.08385,3.941058 -0.0633,0.03905 -0.75856,0.03438 -1.54501,-0.01039 z m 12.88665,-0.516473 c -0.23722,-0.401584 -1.09143,-1.558485 -1.89824,-2.570892 -1.30778,-1.641049 -1.42503,-1.887028 -1.08076,-2.267429 0.21238,-0.234679 0.80246,-1.487138 1.31128,-2.783241 l 0.92514,-2.35655 -0.87797,-0.877986 -0.87799,-0.877987 -1.89866,1.998786 c -1.04425,1.099332 -1.96696,1.998786 -2.05044,1.998786 -0.20759,0 -3.81848,-3.245631 -3.81848,-3.43223 0,-0.08216 0.28712,-0.325778 0.63805,-0.541384 1.01614,-0.624314 11.95726,-11.079085 12.33697,-11.788567 0.18897,-0.353092 0.42154,-0.641986 0.51682,-0.641986 0.48868,0 6.48348,6.069194 7.16019,7.249053 2.32515,4.053853 -0.88301,9.48385 -5.63376,9.535487 -1.72688,0.01877 -1.3743,-0.472996 -3.00288,4.188112 -0.49658,1.42126 -0.90288,2.879776 -0.90288,3.241145 0,0.859726 -0.31123,0.83284 -0.84638,-0.07312 z m 5.38422,-12.457609 c 1.21236,-1.083229 1.13604,-2.006735 -0.30725,-3.718386 -0.63209,-0.749634 -1.23222,-1.330309 -1.33359,-1.29039 -0.10138,0.03992 -0.90786,0.745471 -1.7922,1.567893 l -1.60787,1.495313 1.42633,1.348958 c 1.66727,1.576836 2.38495,1.695294 3.61458,0.596612 z M 38.282871,49.957212 c -0.74785,-0.523814 -14.25783,-6.832859 -15.53246,-7.253524 l -0.92675,-0.305856 1.5008,-2.160244 c 0.82544,-1.188134 1.53635,-2.20359 1.57979,-2.25657 0.0435,-0.05298 0.52808,0.185146 1.07695,0.529167 1.48158,0.928616 9.73271,5.44188 9.82548,5.374411 0.044,-0.03199 -0.72993,-1.51809 -1.7198,-3.302447 -1.78139,-3.211167 -1.81596,-3.251987 -3.38726,-3.998815 -0.87312,-0.414992 -1.78883,-0.754624 -2.0349,-0.754739 -0.89288,-4.16e-4 -0.6773,-0.463694 1.14524,-2.461193 l 1.85626,-2.034452 1.1042,0.742543 c 1.21884,0.819633 8.78468,5.07581 9.02283,5.07581 0.18022,0 -4.65663,-7.968982 -5.58777,-9.206158 -0.53202,-0.70688 -0.59489,-0.945574 -0.33237,-1.261891 0.43424,-0.523228 3.42304,-2.761118 3.68759,-2.761118 0.11532,0 0.29115,0.327422 0.39072,0.727604 0.22938,0.921919 7.12097,13.922204 8.00572,15.10198 l 0.66041,0.880625 -0.62459,0.434886 c -0.34352,0.239187 -1.12617,0.895775 -1.7392,1.459086 l -1.11462,1.0242 -3.44945,-1.754013 c -1.89719,-0.964707 -3.44944,-1.68676 -3.44944,-1.604562 0,0.273117 1.64619,3.415533 2.68519,5.125756 l 1.02409,1.685686 -0.90822,1.005286 c -0.49952,0.552907 -1.10967,1.312751 -1.3559,1.688542 -0.52557,0.802113 -0.60701,0.817211 -1.40254,0.26 z M 105.06883,37.15406 c -0.86142,-0.561391 -2.9121,-1.654875 -4.55705,-2.429964 -1.644939,-0.775088 -2.993969,-1.506492 -2.997839,-1.625342 -0.004,-0.11885 0.27732,-0.5951 0.62486,-1.058334 0.96491,-1.286126 7.566469,-13.854311 7.744399,-14.743937 0.0861,-0.430474 0.20316,-0.78268 0.26015,-0.78268 0.38153,0 8.30469,4.181373 9.30466,4.910449 0.0449,0.03277 -0.27501,0.846322 -0.71102,1.807898 -0.75198,1.658461 -1.13635,2.051691 -1.47302,1.506958 -0.28833,-0.466522 -4.17721,-2.448235 -4.37455,-2.229202 -0.10981,0.121883 -0.5223,0.783477 -0.91665,1.47021 l -0.71698,1.248604 2.2399,1.110882 2.23993,1.110883 -0.94207,1.741555 c -0.51814,0.957855 -0.97429,1.784309 -1.01369,1.836564 -0.0394,0.05226 -0.40593,-0.140834 -0.81448,-0.429088 -0.40857,-0.288254 -1.36575,-0.83793 -2.12708,-1.221502 l -1.38424,-0.697402 -0.77335,1.53199 -0.77334,1.531991 1.88701,1.031968 c 1.03785,0.567582 2.38704,1.22178 2.99821,1.453772 l 1.1112,0.421804 -1.32681,1.712604 c -0.72974,0.941932 -1.46521,1.734525 -1.63437,1.761317 -0.16917,0.02679 -1.01237,-0.410606 -1.87378,-0.971998 z m -53.197769,0.01898 c -0.19396,-0.883127 -7.21096,-13.152286 -8.35837,-14.614543 l -0.7586,-0.966765 1.77797,-1.047444 c 3.15702,-1.859868 2.84341,-1.837082 3.56911,-0.259312 0.92408,2.009042 7.23686,12.852195 8.16351,14.022056 0.43226,0.545703 0.68025,0.992188 0.5511,0.992188 -0.12915,0 -1.22533,0.595312 -2.43595,1.322916 -1.21062,0.727605 -2.23219,1.322917 -2.27017,1.322917 -0.038,0 -0.14534,-0.347406 -0.2386,-0.772013 z m 7.69285,-4.557101 c -0.23878,-1.493251 -4.33797,-14.395692 -4.98005,-15.675006 -0.42065,-0.838115 -0.4505,-1.070862 -0.16157,-1.259617 0.62078,-0.405555 6.97049,-2.345915 8.63813,-2.639664 4.6762,-0.823697 8.30527,2.161923 9.4808,7.799816 0.79851,3.829663 -0.51818,7.561825 -3.33525,9.453792 -0.80616,0.541423 -8.65173,3.41646 -9.32304,3.41646 -0.0791,0 -0.22265,-0.493102 -0.31902,-1.095781 z m 5.16134,-5.026176 c 2.55791,-0.856423 3.48429,-2.553677 2.91038,-5.332247 -0.55823,-2.702686 -1.77243,-4.503765 -3.25586,-4.829583 -0.94703,-0.208 -4.24898,0.635899 -4.09513,1.046615 0.0594,0.158517 0.74939,2.340417 1.53335,4.848667 0.78396,2.50825 1.55644,4.562078 1.71663,4.564063 0.16019,0.002 0.69597,-0.131897 1.19063,-0.297515 z m 30.31362,4.888635 c -0.0962,-0.09624 -1.15788,-0.436712 -2.3592,-0.756597 -1.98684,-0.529051 -2.1812,-0.63876 -2.15085,-1.214074 0.0437,-0.827522 1.13005,-7.621338 1.3281,-8.305382 0.20953,-0.723652 0.097,-0.587464 -3.22372,3.902604 -1.58746,2.146432 -2.95652,3.902604 -3.04237,3.902604 -0.0858,0 -0.97049,-1.994297 -1.96587,-4.431771 -0.99539,-2.437474 -1.89077,-4.525092 -1.98974,-4.639151 -0.099,-0.114059 -0.33029,1.73141 -0.51406,4.101042 -0.18376,2.369632 -0.35358,4.401327 -0.37737,4.514879 -0.0426,0.203361 -5.46187,0.572901 -5.46187,0.372445 0,-0.05669 0.11858,-0.448252 0.26353,-0.87015 0.35282,-1.02699 2.11744,-14.950152 2.11759,-16.708231 l 1.2e-4,-1.389063 h 2.23965 c 1.8626,0 2.2812,0.07795 2.48645,0.463021 0.13574,0.254661 1.10864,2.725208 2.16201,5.490104 1.05336,2.764896 1.98829,5.10953 2.07761,5.210298 0.0893,0.100768 1.70491,-2.012853 3.59019,-4.696936 2.37016,-3.374404 3.55388,-4.846741 3.83646,-4.771869 0.22477,0.05956 0.76586,0.185476 1.20243,0.279824 2.68889,0.581114 2.77985,0.63262 2.4843,1.406647 -0.41783,1.094276 -2.34824,16.679954 -2.1739,17.551635 0.14158,0.707946 -0.11958,0.998031 -0.52949,0.588121 z"
     id="logo-face" /></svg>
